G04 #@! TF.GenerationSoftware,KiCad,Pcbnew,(5.1.0)-1*
G04 #@! TF.CreationDate,2019-07-05T16:32:50+02:00*
G04 #@! TF.ProjectId,ECU_SMD,4543555f-534d-4442-9e6b-696361645f70,rev?*
G04 #@! TF.SameCoordinates,Original*
G04 #@! TF.FileFunction,Legend,Bot*
G04 #@! TF.FilePolarity,Positive*
%FSLAX46Y46*%
G04 Gerber Fmt 4.6, Leading zero omitted, Abs format (unit mm)*
G04 Created by KiCad (PCBNEW (5.1.0)-1) date 2019-07-05 16:32:50*
%MOMM*%
%LPD*%
G04 APERTURE LIST*
%ADD10C,0.500000*%
%ADD11C,0.010000*%
%ADD12C,0.120000*%
%ADD13C,0.150000*%
%ADD14C,0.100000*%
%ADD15C,1.170000*%
%ADD16R,1.620000X1.620000*%
%ADD17C,1.620000*%
%ADD18C,4.020000*%
%ADD19O,1.620000X1.620000*%
%ADD20C,1.445000*%
%ADD21R,1.720000X1.720000*%
%ADD22O,1.720000X1.720000*%
%ADD23O,3.520000X3.520000*%
%ADD24R,1.925000X2.020000*%
%ADD25O,1.925000X2.020000*%
%ADD26R,1.820000X1.820000*%
%ADD27O,1.820000X1.820000*%
G04 APERTURE END LIST*
D10*
X119071428Y-98785714D02*
X120071428Y-98785714D01*
X120071428Y-100357142D02*
X120071428Y-97357142D01*
X118642857Y-97357142D01*
X116071428Y-100357142D02*
X117500000Y-100357142D01*
X117500000Y-97357142D01*
X115214285Y-99500000D02*
X113785714Y-99500000D01*
X115500000Y-100357142D02*
X114500000Y-97357142D01*
X113500000Y-100357142D01*
X112642857Y-100214285D02*
X112214285Y-100357142D01*
X111500000Y-100357142D01*
X111214285Y-100214285D01*
X111071428Y-100071428D01*
X110928571Y-99785714D01*
X110928571Y-99500000D01*
X111071428Y-99214285D01*
X111214285Y-99071428D01*
X111500000Y-98928571D01*
X112071428Y-98785714D01*
X112357142Y-98642857D01*
X112500000Y-98500000D01*
X112642857Y-98214285D01*
X112642857Y-97928571D01*
X112500000Y-97642857D01*
X112357142Y-97500000D01*
X112071428Y-97357142D01*
X111357142Y-97357142D01*
X110928571Y-97500000D01*
X109642857Y-100357142D02*
X109642857Y-97357142D01*
X109642857Y-98785714D02*
X107928571Y-98785714D01*
X107928571Y-100357142D02*
X107928571Y-97357142D01*
D11*
G36*
X106627773Y-125301393D02*
G01*
X106847962Y-125103135D01*
X107155771Y-124814827D01*
X107540623Y-124446491D01*
X107991938Y-124008150D01*
X108499140Y-123509826D01*
X109022475Y-122990621D01*
X111767723Y-120254909D01*
X112515771Y-120354456D01*
X113548974Y-120409126D01*
X114566886Y-120303839D01*
X115552857Y-120047965D01*
X116490239Y-119650873D01*
X117362384Y-119121935D01*
X118152643Y-118470521D01*
X118844368Y-117706000D01*
X119420909Y-116837744D01*
X119682146Y-116320996D01*
X120017726Y-115384089D01*
X120211989Y-114386813D01*
X120264923Y-113361540D01*
X120176518Y-112340644D01*
X119946763Y-111356497D01*
X119684075Y-110667258D01*
X119205790Y-109795694D01*
X118598329Y-108984994D01*
X117892312Y-108271511D01*
X117248764Y-107776091D01*
X116991107Y-107602663D01*
X116787441Y-107463111D01*
X116680607Y-107386800D01*
X116679201Y-107385679D01*
X116692433Y-107289739D01*
X116786523Y-107047809D01*
X116960402Y-106662089D01*
X117213001Y-106134785D01*
X117543250Y-105468098D01*
X117950079Y-104664232D01*
X118432420Y-103725390D01*
X118801177Y-103014500D01*
X119026301Y-102579019D01*
X119219178Y-102200276D01*
X119368120Y-101901693D01*
X119461441Y-101706694D01*
X119487688Y-101638667D01*
X119428910Y-101701517D01*
X119273687Y-101880834D01*
X119033705Y-102162770D01*
X118720648Y-102533477D01*
X118346198Y-102979106D01*
X117922041Y-103485809D01*
X117459860Y-104039738D01*
X117306312Y-104224140D01*
X116731834Y-104909934D01*
X116231648Y-105497839D01*
X115811242Y-105981694D01*
X115476106Y-106355335D01*
X115231731Y-106612599D01*
X115083604Y-106747323D01*
X115041847Y-106766389D01*
X114815258Y-106710546D01*
X114468021Y-106660636D01*
X114048807Y-106620361D01*
X113606285Y-106593423D01*
X113189128Y-106583523D01*
X112846005Y-106594364D01*
X112814667Y-106597000D01*
X111747607Y-106774258D01*
X110747614Y-107098051D01*
X109825554Y-107556577D01*
X108992294Y-108138037D01*
X108258701Y-108830627D01*
X107635641Y-109622546D01*
X107133980Y-110501994D01*
X106764587Y-111457168D01*
X106538326Y-112476267D01*
X106481713Y-113269727D01*
X107020400Y-113269727D01*
X107132930Y-112271253D01*
X107405665Y-111293676D01*
X107574400Y-110880344D01*
X108047978Y-110027148D01*
X108656055Y-109253199D01*
X109376979Y-108575273D01*
X110189097Y-108010145D01*
X111070756Y-107574592D01*
X112000304Y-107285389D01*
X112286633Y-107229444D01*
X112787193Y-107173944D01*
X113367907Y-107153852D01*
X113943042Y-107170602D01*
X114232833Y-107196863D01*
X114480857Y-107237748D01*
X114642208Y-107285632D01*
X114677333Y-107315015D01*
X114624926Y-107392584D01*
X114475711Y-107585095D01*
X114241702Y-107877752D01*
X113934911Y-108255759D01*
X113567348Y-108704318D01*
X113151027Y-109208634D01*
X112697960Y-109753909D01*
X112676443Y-109779721D01*
X110675553Y-112179667D01*
X112706369Y-112264333D01*
X112016893Y-113365000D01*
X111758411Y-113778095D01*
X111515076Y-114167814D01*
X111308918Y-114498815D01*
X111161968Y-114735757D01*
X111124905Y-114795947D01*
X110922392Y-115126227D01*
X111487529Y-115080863D01*
X111771476Y-115063110D01*
X111974380Y-115060039D01*
X112052660Y-115072298D01*
X112052667Y-115072472D01*
X112006747Y-115150260D01*
X111878818Y-115345127D01*
X111683622Y-115635182D01*
X111435905Y-115998534D01*
X111150410Y-116413293D01*
X111119148Y-116458491D01*
X110826550Y-116883969D01*
X110566703Y-117266826D01*
X110355370Y-117583430D01*
X110208316Y-117810146D01*
X110141304Y-117923341D01*
X110139996Y-117926460D01*
X110143898Y-117988523D01*
X110237237Y-118016523D01*
X110449787Y-118014688D01*
X110658703Y-118000082D01*
X111223044Y-117954782D01*
X111091771Y-118199891D01*
X110962894Y-118421306D01*
X110791638Y-118692620D01*
X110719753Y-118800894D01*
X110479009Y-119156788D01*
X110041424Y-118906872D01*
X109628307Y-118626815D01*
X109174915Y-118247530D01*
X108729122Y-117814370D01*
X108338802Y-117372687D01*
X108138935Y-117104593D01*
X107627340Y-116206531D01*
X107269273Y-115255765D01*
X107066403Y-114270698D01*
X107020400Y-113269727D01*
X106481713Y-113269727D01*
X106465853Y-113492000D01*
X106545426Y-114545859D01*
X106777614Y-115561914D01*
X107152621Y-116522884D01*
X107660651Y-117411493D01*
X108291907Y-118210461D01*
X109036594Y-118902511D01*
X109841502Y-119445933D01*
X110176851Y-119636415D01*
X108442380Y-122342708D01*
X108043513Y-122965129D01*
X107684810Y-123525000D01*
X108062608Y-123525000D01*
X109935109Y-120646333D01*
X111807611Y-117767667D01*
X111216692Y-117742917D01*
X110625773Y-117718166D01*
X111637205Y-116261250D01*
X112648638Y-114804333D01*
X112096652Y-114779298D01*
X111815920Y-114760995D01*
X111617166Y-114737401D01*
X111544667Y-114714449D01*
X111587749Y-114633580D01*
X111707403Y-114433345D01*
X111889233Y-114137203D01*
X112118848Y-113768613D01*
X112358703Y-113387622D01*
X112623026Y-112967495D01*
X112856118Y-112592789D01*
X113042609Y-112288555D01*
X113167126Y-112079845D01*
X113213336Y-111994819D01*
X113188664Y-111945164D01*
X113057359Y-111909254D01*
X112799653Y-111884242D01*
X112395777Y-111867281D01*
X112311950Y-111865014D01*
X111369968Y-111841000D01*
X114653484Y-107887088D01*
X115239092Y-107182378D01*
X115792159Y-106517723D01*
X116303299Y-105904341D01*
X116763128Y-105353454D01*
X117162259Y-104876280D01*
X117491308Y-104484039D01*
X117740889Y-104187951D01*
X117901618Y-103999236D01*
X117964109Y-103929113D01*
X117964479Y-103928922D01*
X117933896Y-104000372D01*
X117834596Y-104205366D01*
X117675155Y-104526785D01*
X117464154Y-104947512D01*
X117210171Y-105450430D01*
X116921784Y-106018418D01*
X116661848Y-106528167D01*
X116334780Y-107167111D01*
X116019405Y-107780877D01*
X115727210Y-108347286D01*
X115469679Y-108844159D01*
X115258299Y-109249316D01*
X115104556Y-109540579D01*
X115039582Y-109660833D01*
X114747426Y-110190000D01*
X116548453Y-110190000D01*
X115485893Y-111765081D01*
X115179132Y-112222772D01*
X114907076Y-112634362D01*
X114683243Y-112978931D01*
X114521149Y-113235557D01*
X114434314Y-113383319D01*
X114423333Y-113409552D01*
X114500853Y-113436335D01*
X114706464Y-113445242D01*
X114999744Y-113435041D01*
X115079500Y-113429552D01*
X115406298Y-113406912D01*
X115592319Y-113404138D01*
X115665542Y-113427150D01*
X115653948Y-113481867D01*
X115610573Y-113541914D01*
X115517102Y-113659074D01*
X115336711Y-113882071D01*
X115089821Y-114185774D01*
X114796851Y-114545053D01*
X114550333Y-114846667D01*
X114236218Y-115231068D01*
X113952844Y-115578725D01*
X113720467Y-115864718D01*
X113559345Y-116064126D01*
X113496124Y-116143580D01*
X113452705Y-116211205D01*
X113465401Y-116254111D01*
X113559813Y-116276436D01*
X113761542Y-116282323D01*
X114096190Y-116275911D01*
X114281396Y-116270580D01*
X114646864Y-116264124D01*
X114937402Y-116267449D01*
X115119455Y-116279615D01*
X115164365Y-116295283D01*
X115102651Y-116363241D01*
X114932326Y-116540998D01*
X114663803Y-116817908D01*
X114307496Y-117183327D01*
X113873818Y-117626610D01*
X113373183Y-118137112D01*
X112816006Y-118704187D01*
X112212699Y-119317190D01*
X111788022Y-119748040D01*
X112298029Y-119748040D01*
X114135387Y-117868853D01*
X115972745Y-115989667D01*
X115028706Y-115965727D01*
X114651715Y-115952614D01*
X114346289Y-115935225D01*
X114146369Y-115915950D01*
X114084667Y-115899322D01*
X114136530Y-115824551D01*
X114281339Y-115640234D01*
X114502926Y-115366312D01*
X114785120Y-115022730D01*
X115111751Y-114629429D01*
X115197964Y-114526261D01*
X116311262Y-113195667D01*
X115617448Y-113153333D01*
X114923634Y-113111000D01*
X115989411Y-111544667D01*
X117055189Y-109978333D01*
X116163374Y-109954310D01*
X115271558Y-109930287D01*
X115779432Y-108917144D01*
X115971084Y-108544312D01*
X116140043Y-108233261D01*
X116270441Y-108011932D01*
X116346412Y-107908267D01*
X116354743Y-107904000D01*
X116458023Y-107946148D01*
X116654066Y-108054941D01*
X116829156Y-108162096D01*
X117569299Y-108727070D01*
X118230899Y-109423360D01*
X118794665Y-110223654D01*
X119241303Y-111100639D01*
X119547329Y-112010333D01*
X119648061Y-112584745D01*
X119694277Y-113251189D01*
X119685978Y-113941380D01*
X119623164Y-114587034D01*
X119547329Y-114973667D01*
X119212151Y-115965677D01*
X118735615Y-116871370D01*
X118127809Y-117680183D01*
X117398819Y-118381553D01*
X116558731Y-118964917D01*
X115617631Y-119419712D01*
X115143000Y-119586137D01*
X114739218Y-119684231D01*
X114248573Y-119762474D01*
X113725734Y-119816104D01*
X113225374Y-119840360D01*
X112802163Y-119830482D01*
X112610584Y-119806676D01*
X112298029Y-119748040D01*
X111788022Y-119748040D01*
X111602804Y-119935950D01*
X108062608Y-123525000D01*
X107684810Y-123525000D01*
X107665502Y-123555136D01*
X107319989Y-124094552D01*
X107018612Y-124565198D01*
X106773012Y-124948896D01*
X106594829Y-125227469D01*
X106495703Y-125382738D01*
X106492568Y-125387667D01*
X106505782Y-125399577D01*
X106627773Y-125301393D01*
X106627773Y-125301393D01*
G37*
X106627773Y-125301393D02*
X106847962Y-125103135D01*
X107155771Y-124814827D01*
X107540623Y-124446491D01*
X107991938Y-124008150D01*
X108499140Y-123509826D01*
X109022475Y-122990621D01*
X111767723Y-120254909D01*
X112515771Y-120354456D01*
X113548974Y-120409126D01*
X114566886Y-120303839D01*
X115552857Y-120047965D01*
X116490239Y-119650873D01*
X117362384Y-119121935D01*
X118152643Y-118470521D01*
X118844368Y-117706000D01*
X119420909Y-116837744D01*
X119682146Y-116320996D01*
X120017726Y-115384089D01*
X120211989Y-114386813D01*
X120264923Y-113361540D01*
X120176518Y-112340644D01*
X119946763Y-111356497D01*
X119684075Y-110667258D01*
X119205790Y-109795694D01*
X118598329Y-108984994D01*
X117892312Y-108271511D01*
X117248764Y-107776091D01*
X116991107Y-107602663D01*
X116787441Y-107463111D01*
X116680607Y-107386800D01*
X116679201Y-107385679D01*
X116692433Y-107289739D01*
X116786523Y-107047809D01*
X116960402Y-106662089D01*
X117213001Y-106134785D01*
X117543250Y-105468098D01*
X117950079Y-104664232D01*
X118432420Y-103725390D01*
X118801177Y-103014500D01*
X119026301Y-102579019D01*
X119219178Y-102200276D01*
X119368120Y-101901693D01*
X119461441Y-101706694D01*
X119487688Y-101638667D01*
X119428910Y-101701517D01*
X119273687Y-101880834D01*
X119033705Y-102162770D01*
X118720648Y-102533477D01*
X118346198Y-102979106D01*
X117922041Y-103485809D01*
X117459860Y-104039738D01*
X117306312Y-104224140D01*
X116731834Y-104909934D01*
X116231648Y-105497839D01*
X115811242Y-105981694D01*
X115476106Y-106355335D01*
X115231731Y-106612599D01*
X115083604Y-106747323D01*
X115041847Y-106766389D01*
X114815258Y-106710546D01*
X114468021Y-106660636D01*
X114048807Y-106620361D01*
X113606285Y-106593423D01*
X113189128Y-106583523D01*
X112846005Y-106594364D01*
X112814667Y-106597000D01*
X111747607Y-106774258D01*
X110747614Y-107098051D01*
X109825554Y-107556577D01*
X108992294Y-108138037D01*
X108258701Y-108830627D01*
X107635641Y-109622546D01*
X107133980Y-110501994D01*
X106764587Y-111457168D01*
X106538326Y-112476267D01*
X106481713Y-113269727D01*
X107020400Y-113269727D01*
X107132930Y-112271253D01*
X107405665Y-111293676D01*
X107574400Y-110880344D01*
X108047978Y-110027148D01*
X108656055Y-109253199D01*
X109376979Y-108575273D01*
X110189097Y-108010145D01*
X111070756Y-107574592D01*
X112000304Y-107285389D01*
X112286633Y-107229444D01*
X112787193Y-107173944D01*
X113367907Y-107153852D01*
X113943042Y-107170602D01*
X114232833Y-107196863D01*
X114480857Y-107237748D01*
X114642208Y-107285632D01*
X114677333Y-107315015D01*
X114624926Y-107392584D01*
X114475711Y-107585095D01*
X114241702Y-107877752D01*
X113934911Y-108255759D01*
X113567348Y-108704318D01*
X113151027Y-109208634D01*
X112697960Y-109753909D01*
X112676443Y-109779721D01*
X110675553Y-112179667D01*
X112706369Y-112264333D01*
X112016893Y-113365000D01*
X111758411Y-113778095D01*
X111515076Y-114167814D01*
X111308918Y-114498815D01*
X111161968Y-114735757D01*
X111124905Y-114795947D01*
X110922392Y-115126227D01*
X111487529Y-115080863D01*
X111771476Y-115063110D01*
X111974380Y-115060039D01*
X112052660Y-115072298D01*
X112052667Y-115072472D01*
X112006747Y-115150260D01*
X111878818Y-115345127D01*
X111683622Y-115635182D01*
X111435905Y-115998534D01*
X111150410Y-116413293D01*
X111119148Y-116458491D01*
X110826550Y-116883969D01*
X110566703Y-117266826D01*
X110355370Y-117583430D01*
X110208316Y-117810146D01*
X110141304Y-117923341D01*
X110139996Y-117926460D01*
X110143898Y-117988523D01*
X110237237Y-118016523D01*
X110449787Y-118014688D01*
X110658703Y-118000082D01*
X111223044Y-117954782D01*
X111091771Y-118199891D01*
X110962894Y-118421306D01*
X110791638Y-118692620D01*
X110719753Y-118800894D01*
X110479009Y-119156788D01*
X110041424Y-118906872D01*
X109628307Y-118626815D01*
X109174915Y-118247530D01*
X108729122Y-117814370D01*
X108338802Y-117372687D01*
X108138935Y-117104593D01*
X107627340Y-116206531D01*
X107269273Y-115255765D01*
X107066403Y-114270698D01*
X107020400Y-113269727D01*
X106481713Y-113269727D01*
X106465853Y-113492000D01*
X106545426Y-114545859D01*
X106777614Y-115561914D01*
X107152621Y-116522884D01*
X107660651Y-117411493D01*
X108291907Y-118210461D01*
X109036594Y-118902511D01*
X109841502Y-119445933D01*
X110176851Y-119636415D01*
X108442380Y-122342708D01*
X108043513Y-122965129D01*
X107684810Y-123525000D01*
X108062608Y-123525000D01*
X109935109Y-120646333D01*
X111807611Y-117767667D01*
X111216692Y-117742917D01*
X110625773Y-117718166D01*
X111637205Y-116261250D01*
X112648638Y-114804333D01*
X112096652Y-114779298D01*
X111815920Y-114760995D01*
X111617166Y-114737401D01*
X111544667Y-114714449D01*
X111587749Y-114633580D01*
X111707403Y-114433345D01*
X111889233Y-114137203D01*
X112118848Y-113768613D01*
X112358703Y-113387622D01*
X112623026Y-112967495D01*
X112856118Y-112592789D01*
X113042609Y-112288555D01*
X113167126Y-112079845D01*
X113213336Y-111994819D01*
X113188664Y-111945164D01*
X113057359Y-111909254D01*
X112799653Y-111884242D01*
X112395777Y-111867281D01*
X112311950Y-111865014D01*
X111369968Y-111841000D01*
X114653484Y-107887088D01*
X115239092Y-107182378D01*
X115792159Y-106517723D01*
X116303299Y-105904341D01*
X116763128Y-105353454D01*
X117162259Y-104876280D01*
X117491308Y-104484039D01*
X117740889Y-104187951D01*
X117901618Y-103999236D01*
X117964109Y-103929113D01*
X117964479Y-103928922D01*
X117933896Y-104000372D01*
X117834596Y-104205366D01*
X117675155Y-104526785D01*
X117464154Y-104947512D01*
X117210171Y-105450430D01*
X116921784Y-106018418D01*
X116661848Y-106528167D01*
X116334780Y-107167111D01*
X116019405Y-107780877D01*
X115727210Y-108347286D01*
X115469679Y-108844159D01*
X115258299Y-109249316D01*
X115104556Y-109540579D01*
X115039582Y-109660833D01*
X114747426Y-110190000D01*
X116548453Y-110190000D01*
X115485893Y-111765081D01*
X115179132Y-112222772D01*
X114907076Y-112634362D01*
X114683243Y-112978931D01*
X114521149Y-113235557D01*
X114434314Y-113383319D01*
X114423333Y-113409552D01*
X114500853Y-113436335D01*
X114706464Y-113445242D01*
X114999744Y-113435041D01*
X115079500Y-113429552D01*
X115406298Y-113406912D01*
X115592319Y-113404138D01*
X115665542Y-113427150D01*
X115653948Y-113481867D01*
X115610573Y-113541914D01*
X115517102Y-113659074D01*
X115336711Y-113882071D01*
X115089821Y-114185774D01*
X114796851Y-114545053D01*
X114550333Y-114846667D01*
X114236218Y-115231068D01*
X113952844Y-115578725D01*
X113720467Y-115864718D01*
X113559345Y-116064126D01*
X113496124Y-116143580D01*
X113452705Y-116211205D01*
X113465401Y-116254111D01*
X113559813Y-116276436D01*
X113761542Y-116282323D01*
X114096190Y-116275911D01*
X114281396Y-116270580D01*
X114646864Y-116264124D01*
X114937402Y-116267449D01*
X115119455Y-116279615D01*
X115164365Y-116295283D01*
X115102651Y-116363241D01*
X114932326Y-116540998D01*
X114663803Y-116817908D01*
X114307496Y-117183327D01*
X113873818Y-117626610D01*
X113373183Y-118137112D01*
X112816006Y-118704187D01*
X112212699Y-119317190D01*
X111788022Y-119748040D01*
X112298029Y-119748040D01*
X114135387Y-117868853D01*
X115972745Y-115989667D01*
X115028706Y-115965727D01*
X114651715Y-115952614D01*
X114346289Y-115935225D01*
X114146369Y-115915950D01*
X114084667Y-115899322D01*
X114136530Y-115824551D01*
X114281339Y-115640234D01*
X114502926Y-115366312D01*
X114785120Y-115022730D01*
X115111751Y-114629429D01*
X115197964Y-114526261D01*
X116311262Y-113195667D01*
X115617448Y-113153333D01*
X114923634Y-113111000D01*
X115989411Y-111544667D01*
X117055189Y-109978333D01*
X116163374Y-109954310D01*
X115271558Y-109930287D01*
X115779432Y-108917144D01*
X115971084Y-108544312D01*
X116140043Y-108233261D01*
X116270441Y-108011932D01*
X116346412Y-107908267D01*
X116354743Y-107904000D01*
X116458023Y-107946148D01*
X116654066Y-108054941D01*
X116829156Y-108162096D01*
X117569299Y-108727070D01*
X118230899Y-109423360D01*
X118794665Y-110223654D01*
X119241303Y-111100639D01*
X119547329Y-112010333D01*
X119648061Y-112584745D01*
X119694277Y-113251189D01*
X119685978Y-113941380D01*
X119623164Y-114587034D01*
X119547329Y-114973667D01*
X119212151Y-115965677D01*
X118735615Y-116871370D01*
X118127809Y-117680183D01*
X117398819Y-118381553D01*
X116558731Y-118964917D01*
X115617631Y-119419712D01*
X115143000Y-119586137D01*
X114739218Y-119684231D01*
X114248573Y-119762474D01*
X113725734Y-119816104D01*
X113225374Y-119840360D01*
X112802163Y-119830482D01*
X112610584Y-119806676D01*
X112298029Y-119748040D01*
X111788022Y-119748040D01*
X111602804Y-119935950D01*
X108062608Y-123525000D01*
X107684810Y-123525000D01*
X107665502Y-123555136D01*
X107319989Y-124094552D01*
X107018612Y-124565198D01*
X106773012Y-124948896D01*
X106594829Y-125227469D01*
X106495703Y-125382738D01*
X106492568Y-125387667D01*
X106505782Y-125399577D01*
X106627773Y-125301393D01*
G36*
X112086207Y-119037667D02*
G01*
X112609783Y-118503823D01*
X113094471Y-118006322D01*
X113527726Y-117558289D01*
X113897001Y-117172848D01*
X114189750Y-116863125D01*
X114393425Y-116642245D01*
X114495480Y-116523333D01*
X114505036Y-116507297D01*
X114427996Y-116479107D01*
X114218250Y-116464840D01*
X113911971Y-116465985D01*
X113703667Y-116474332D01*
X113358311Y-116489459D01*
X113087192Y-116495744D01*
X112926984Y-116492642D01*
X112899333Y-116486266D01*
X112950865Y-116415114D01*
X113094923Y-116233318D01*
X113315698Y-115960380D01*
X113597385Y-115615798D01*
X113924174Y-115219076D01*
X114039336Y-115079897D01*
X115179339Y-113703667D01*
X114589669Y-113678791D01*
X114298384Y-113661204D01*
X114087644Y-113638373D01*
X114000376Y-113615047D01*
X114000000Y-113613586D01*
X114044957Y-113534460D01*
X114170741Y-113335739D01*
X114363718Y-113038370D01*
X114610255Y-112663297D01*
X114896720Y-112231465D01*
X115016000Y-112052667D01*
X115314365Y-111604171D01*
X115578090Y-111204014D01*
X115793535Y-110873202D01*
X115947059Y-110632742D01*
X116025021Y-110503641D01*
X116032000Y-110488038D01*
X115953468Y-110469114D01*
X115742388Y-110454264D01*
X115435532Y-110445501D01*
X115227667Y-110444000D01*
X114882036Y-110439353D01*
X114610804Y-110426862D01*
X114450742Y-110408703D01*
X114423333Y-110396402D01*
X114460466Y-110310969D01*
X114563915Y-110098651D01*
X114721758Y-109782735D01*
X114922074Y-109386512D01*
X115152939Y-108933271D01*
X115402432Y-108446300D01*
X115658631Y-107948889D01*
X115909613Y-107464326D01*
X116143456Y-107015901D01*
X116348238Y-106626902D01*
X116468590Y-106401167D01*
X116614513Y-106120527D01*
X116716155Y-105907278D01*
X116757446Y-105795884D01*
X116754791Y-105787333D01*
X116693267Y-105850290D01*
X116534667Y-106030439D01*
X116290093Y-106314702D01*
X115970647Y-106689997D01*
X115587431Y-107143245D01*
X115151549Y-107661365D01*
X114674101Y-108231278D01*
X114297268Y-108682613D01*
X113796493Y-109285005D01*
X113330840Y-109848546D01*
X112911251Y-110359749D01*
X112548662Y-110805129D01*
X112254012Y-111171200D01*
X112038240Y-111444478D01*
X111912285Y-111611475D01*
X111883333Y-111658676D01*
X111964382Y-111690893D01*
X112195215Y-111703557D01*
X112557358Y-111696190D01*
X112816249Y-111682797D01*
X113749165Y-111626136D01*
X113337187Y-112283901D01*
X113100452Y-112662165D01*
X112821466Y-113108377D01*
X112547575Y-113546795D01*
X112449645Y-113703667D01*
X111974080Y-114465667D01*
X112556278Y-114490393D01*
X113138477Y-114515119D01*
X112124647Y-115972059D01*
X111110818Y-117429000D01*
X111754356Y-117453787D01*
X112397893Y-117478574D01*
X111943435Y-118131121D01*
X111744978Y-118418778D01*
X111478073Y-118809501D01*
X111168351Y-119265564D01*
X110841446Y-119749241D01*
X110579659Y-120138333D01*
X109670341Y-121493000D01*
X112086207Y-119037667D01*
X112086207Y-119037667D01*
G37*
X112086207Y-119037667D02*
X112609783Y-118503823D01*
X113094471Y-118006322D01*
X113527726Y-117558289D01*
X113897001Y-117172848D01*
X114189750Y-116863125D01*
X114393425Y-116642245D01*
X114495480Y-116523333D01*
X114505036Y-116507297D01*
X114427996Y-116479107D01*
X114218250Y-116464840D01*
X113911971Y-116465985D01*
X113703667Y-116474332D01*
X113358311Y-116489459D01*
X113087192Y-116495744D01*
X112926984Y-116492642D01*
X112899333Y-116486266D01*
X112950865Y-116415114D01*
X113094923Y-116233318D01*
X113315698Y-115960380D01*
X113597385Y-115615798D01*
X113924174Y-115219076D01*
X114039336Y-115079897D01*
X115179339Y-113703667D01*
X114589669Y-113678791D01*
X114298384Y-113661204D01*
X114087644Y-113638373D01*
X114000376Y-113615047D01*
X114000000Y-113613586D01*
X114044957Y-113534460D01*
X114170741Y-113335739D01*
X114363718Y-113038370D01*
X114610255Y-112663297D01*
X114896720Y-112231465D01*
X115016000Y-112052667D01*
X115314365Y-111604171D01*
X115578090Y-111204014D01*
X115793535Y-110873202D01*
X115947059Y-110632742D01*
X116025021Y-110503641D01*
X116032000Y-110488038D01*
X115953468Y-110469114D01*
X115742388Y-110454264D01*
X115435532Y-110445501D01*
X115227667Y-110444000D01*
X114882036Y-110439353D01*
X114610804Y-110426862D01*
X114450742Y-110408703D01*
X114423333Y-110396402D01*
X114460466Y-110310969D01*
X114563915Y-110098651D01*
X114721758Y-109782735D01*
X114922074Y-109386512D01*
X115152939Y-108933271D01*
X115402432Y-108446300D01*
X115658631Y-107948889D01*
X115909613Y-107464326D01*
X116143456Y-107015901D01*
X116348238Y-106626902D01*
X116468590Y-106401167D01*
X116614513Y-106120527D01*
X116716155Y-105907278D01*
X116757446Y-105795884D01*
X116754791Y-105787333D01*
X116693267Y-105850290D01*
X116534667Y-106030439D01*
X116290093Y-106314702D01*
X115970647Y-106689997D01*
X115587431Y-107143245D01*
X115151549Y-107661365D01*
X114674101Y-108231278D01*
X114297268Y-108682613D01*
X113796493Y-109285005D01*
X113330840Y-109848546D01*
X112911251Y-110359749D01*
X112548662Y-110805129D01*
X112254012Y-111171200D01*
X112038240Y-111444478D01*
X111912285Y-111611475D01*
X111883333Y-111658676D01*
X111964382Y-111690893D01*
X112195215Y-111703557D01*
X112557358Y-111696190D01*
X112816249Y-111682797D01*
X113749165Y-111626136D01*
X113337187Y-112283901D01*
X113100452Y-112662165D01*
X112821466Y-113108377D01*
X112547575Y-113546795D01*
X112449645Y-113703667D01*
X111974080Y-114465667D01*
X112556278Y-114490393D01*
X113138477Y-114515119D01*
X112124647Y-115972059D01*
X111110818Y-117429000D01*
X111754356Y-117453787D01*
X112397893Y-117478574D01*
X111943435Y-118131121D01*
X111744978Y-118418778D01*
X111478073Y-118809501D01*
X111168351Y-119265564D01*
X110841446Y-119749241D01*
X110579659Y-120138333D01*
X109670341Y-121493000D01*
X112086207Y-119037667D01*
D12*
X100458200Y-170415852D02*
X100458200Y-169893348D01*
X101878200Y-170415852D02*
X101878200Y-169893348D01*
X89561600Y-164294452D02*
X89561600Y-163771948D01*
X90981600Y-164294452D02*
X90981600Y-163771948D01*
X65420752Y-131351200D02*
X64898248Y-131351200D01*
X65420752Y-129931200D02*
X64898248Y-129931200D01*
X65094452Y-139921800D02*
X64571948Y-139921800D01*
X65094452Y-141341800D02*
X64571948Y-141341800D01*
X66061064Y-127508700D02*
X64856936Y-127508700D01*
X66061064Y-129328700D02*
X64856936Y-129328700D01*
X65943264Y-137562800D02*
X64739136Y-137562800D01*
X65943264Y-139382800D02*
X64739136Y-139382800D01*
X70015500Y-125313136D02*
X70015500Y-126517264D01*
X68195500Y-125313136D02*
X68195500Y-126517264D01*
X70061200Y-135076736D02*
X70061200Y-136280864D01*
X68241200Y-135076736D02*
X68241200Y-136280864D01*
X66173000Y-125100448D02*
X66173000Y-125622952D01*
X67593000Y-125100448D02*
X67593000Y-125622952D01*
X67702200Y-135036548D02*
X67702200Y-135559052D01*
X66282200Y-135036548D02*
X66282200Y-135559052D01*
X83116052Y-126467800D02*
X82593548Y-126467800D01*
X83116052Y-127887800D02*
X82593548Y-127887800D01*
X83116052Y-125855800D02*
X82593548Y-125855800D01*
X83116052Y-124435800D02*
X82593548Y-124435800D01*
X83116052Y-123823800D02*
X82593548Y-123823800D01*
X83116052Y-122403800D02*
X82593548Y-122403800D01*
X83116052Y-120371800D02*
X82593548Y-120371800D01*
X83116052Y-121791800D02*
X82593548Y-121791800D01*
X78121548Y-122341800D02*
X78644052Y-122341800D01*
X78121548Y-120921800D02*
X78644052Y-120921800D01*
X78021548Y-123621800D02*
X78544052Y-123621800D01*
X78021548Y-125041800D02*
X78544052Y-125041800D01*
X78021548Y-126467800D02*
X78544052Y-126467800D01*
X78021548Y-127887800D02*
X78544052Y-127887800D01*
X81299652Y-96945000D02*
X80777148Y-96945000D01*
X81299652Y-98365000D02*
X80777148Y-98365000D01*
X82148464Y-94586000D02*
X80944336Y-94586000D01*
X82148464Y-96406000D02*
X80944336Y-96406000D01*
X86139400Y-92099936D02*
X86139400Y-93304064D01*
X84319400Y-92099936D02*
X84319400Y-93304064D01*
X83780400Y-92186748D02*
X83780400Y-92709252D01*
X82360400Y-92186748D02*
X82360400Y-92709252D01*
X81334000Y-108842748D02*
X81334000Y-109365252D01*
X82754000Y-108842748D02*
X82754000Y-109365252D01*
X90981600Y-158071452D02*
X90981600Y-157548948D01*
X89561600Y-158071452D02*
X89561600Y-157548948D01*
X89891800Y-170415852D02*
X89891800Y-169893348D01*
X91311800Y-170415852D02*
X91311800Y-169893348D01*
D13*
X103175342Y-169511742D02*
X103222961Y-169464123D01*
X103270580Y-169321266D01*
X103270580Y-169226028D01*
X103222961Y-169083171D01*
X103127723Y-168987933D01*
X103032485Y-168940314D01*
X102842009Y-168892695D01*
X102699152Y-168892695D01*
X102508676Y-168940314D01*
X102413438Y-168987933D01*
X102318200Y-169083171D01*
X102270580Y-169226028D01*
X102270580Y-169321266D01*
X102318200Y-169464123D01*
X102365819Y-169511742D01*
X102603914Y-170368885D02*
X103270580Y-170368885D01*
X102222961Y-170130790D02*
X102937247Y-169892695D01*
X102937247Y-170511742D01*
X103270580Y-170940314D02*
X103270580Y-171130790D01*
X103222961Y-171226028D01*
X103175342Y-171273647D01*
X103032485Y-171368885D01*
X102842009Y-171416504D01*
X102461057Y-171416504D01*
X102365819Y-171368885D01*
X102318200Y-171321266D01*
X102270580Y-171226028D01*
X102270580Y-171035552D01*
X102318200Y-170940314D01*
X102365819Y-170892695D01*
X102461057Y-170845076D01*
X102699152Y-170845076D01*
X102794390Y-170892695D01*
X102842009Y-170940314D01*
X102889628Y-171035552D01*
X102889628Y-171226028D01*
X102842009Y-171321266D01*
X102794390Y-171368885D01*
X102699152Y-171416504D01*
X92278742Y-163390342D02*
X92326361Y-163342723D01*
X92373980Y-163199866D01*
X92373980Y-163104628D01*
X92326361Y-162961771D01*
X92231123Y-162866533D01*
X92135885Y-162818914D01*
X91945409Y-162771295D01*
X91802552Y-162771295D01*
X91612076Y-162818914D01*
X91516838Y-162866533D01*
X91421600Y-162961771D01*
X91373980Y-163104628D01*
X91373980Y-163199866D01*
X91421600Y-163342723D01*
X91469219Y-163390342D01*
X91707314Y-164247485D02*
X92373980Y-164247485D01*
X91326361Y-164009390D02*
X92040647Y-163771295D01*
X92040647Y-164390342D01*
X91373980Y-165199866D02*
X91373980Y-165009390D01*
X91421600Y-164914152D01*
X91469219Y-164866533D01*
X91612076Y-164771295D01*
X91802552Y-164723676D01*
X92183504Y-164723676D01*
X92278742Y-164771295D01*
X92326361Y-164818914D01*
X92373980Y-164914152D01*
X92373980Y-165104628D01*
X92326361Y-165199866D01*
X92278742Y-165247485D01*
X92183504Y-165295104D01*
X91945409Y-165295104D01*
X91850171Y-165247485D01*
X91802552Y-165199866D01*
X91754933Y-165104628D01*
X91754933Y-164914152D01*
X91802552Y-164818914D01*
X91850171Y-164771295D01*
X91945409Y-164723676D01*
X69176857Y-130871342D02*
X69224476Y-130918961D01*
X69367333Y-130966580D01*
X69462571Y-130966580D01*
X69605428Y-130918961D01*
X69700666Y-130823723D01*
X69748285Y-130728485D01*
X69795904Y-130538009D01*
X69795904Y-130395152D01*
X69748285Y-130204676D01*
X69700666Y-130109438D01*
X69605428Y-130014200D01*
X69462571Y-129966580D01*
X69367333Y-129966580D01*
X69224476Y-130014200D01*
X69176857Y-130061819D01*
X68224476Y-130966580D02*
X68795904Y-130966580D01*
X68510190Y-130966580D02*
X68510190Y-129966580D01*
X68605428Y-130109438D01*
X68700666Y-130204676D01*
X68795904Y-130252295D01*
X67605428Y-129966580D02*
X67510190Y-129966580D01*
X67414952Y-130014200D01*
X67367333Y-130061819D01*
X67319714Y-130157057D01*
X67272095Y-130347533D01*
X67272095Y-130585628D01*
X67319714Y-130776104D01*
X67367333Y-130871342D01*
X67414952Y-130918961D01*
X67510190Y-130966580D01*
X67605428Y-130966580D01*
X67700666Y-130918961D01*
X67748285Y-130871342D01*
X67795904Y-130776104D01*
X67843523Y-130585628D01*
X67843523Y-130347533D01*
X67795904Y-130157057D01*
X67748285Y-130061819D01*
X67700666Y-130014200D01*
X67605428Y-129966580D01*
X69159057Y-141242942D02*
X69206676Y-141290561D01*
X69349533Y-141338180D01*
X69444771Y-141338180D01*
X69587628Y-141290561D01*
X69682866Y-141195323D01*
X69730485Y-141100085D01*
X69778104Y-140909609D01*
X69778104Y-140766752D01*
X69730485Y-140576276D01*
X69682866Y-140481038D01*
X69587628Y-140385800D01*
X69444771Y-140338180D01*
X69349533Y-140338180D01*
X69206676Y-140385800D01*
X69159057Y-140433419D01*
X68206676Y-141338180D02*
X68778104Y-141338180D01*
X68492390Y-141338180D02*
X68492390Y-140338180D01*
X68587628Y-140481038D01*
X68682866Y-140576276D01*
X68778104Y-140623895D01*
X67254295Y-141338180D02*
X67825723Y-141338180D01*
X67540009Y-141338180D02*
X67540009Y-140338180D01*
X67635247Y-140481038D01*
X67730485Y-140576276D01*
X67825723Y-140623895D01*
X69938857Y-129410842D02*
X69986476Y-129458461D01*
X70129333Y-129506080D01*
X70224571Y-129506080D01*
X70367428Y-129458461D01*
X70462666Y-129363223D01*
X70510285Y-129267985D01*
X70557904Y-129077509D01*
X70557904Y-128934652D01*
X70510285Y-128744176D01*
X70462666Y-128648938D01*
X70367428Y-128553700D01*
X70224571Y-128506080D01*
X70129333Y-128506080D01*
X69986476Y-128553700D01*
X69938857Y-128601319D01*
X68986476Y-129506080D02*
X69557904Y-129506080D01*
X69272190Y-129506080D02*
X69272190Y-128506080D01*
X69367428Y-128648938D01*
X69462666Y-128744176D01*
X69557904Y-128791795D01*
X68605523Y-128601319D02*
X68557904Y-128553700D01*
X68462666Y-128506080D01*
X68224571Y-128506080D01*
X68129333Y-128553700D01*
X68081714Y-128601319D01*
X68034095Y-128696557D01*
X68034095Y-128791795D01*
X68081714Y-128934652D01*
X68653142Y-129506080D01*
X68034095Y-129506080D01*
X69921057Y-139337942D02*
X69968676Y-139385561D01*
X70111533Y-139433180D01*
X70206771Y-139433180D01*
X70349628Y-139385561D01*
X70444866Y-139290323D01*
X70492485Y-139195085D01*
X70540104Y-139004609D01*
X70540104Y-138861752D01*
X70492485Y-138671276D01*
X70444866Y-138576038D01*
X70349628Y-138480800D01*
X70206771Y-138433180D01*
X70111533Y-138433180D01*
X69968676Y-138480800D01*
X69921057Y-138528419D01*
X68968676Y-139433180D02*
X69540104Y-139433180D01*
X69254390Y-139433180D02*
X69254390Y-138433180D01*
X69349628Y-138576038D01*
X69444866Y-138671276D01*
X69540104Y-138718895D01*
X68635342Y-138433180D02*
X68016295Y-138433180D01*
X68349628Y-138814133D01*
X68206771Y-138814133D01*
X68111533Y-138861752D01*
X68063914Y-138909371D01*
X68016295Y-139004609D01*
X68016295Y-139242704D01*
X68063914Y-139337942D01*
X68111533Y-139385561D01*
X68206771Y-139433180D01*
X68492485Y-139433180D01*
X68587723Y-139385561D01*
X68635342Y-139337942D01*
X64255642Y-124600842D02*
X64303261Y-124553223D01*
X64350880Y-124410366D01*
X64350880Y-124315128D01*
X64303261Y-124172271D01*
X64208023Y-124077033D01*
X64112785Y-124029414D01*
X63922309Y-123981795D01*
X63779452Y-123981795D01*
X63588976Y-124029414D01*
X63493738Y-124077033D01*
X63398500Y-124172271D01*
X63350880Y-124315128D01*
X63350880Y-124410366D01*
X63398500Y-124553223D01*
X63446119Y-124600842D01*
X64350880Y-125553223D02*
X64350880Y-124981795D01*
X64350880Y-125267509D02*
X63350880Y-125267509D01*
X63493738Y-125172271D01*
X63588976Y-125077033D01*
X63636595Y-124981795D01*
X63684214Y-126410366D02*
X64350880Y-126410366D01*
X63303261Y-126172271D02*
X64017547Y-125934176D01*
X64017547Y-126553223D01*
X64301342Y-134654942D02*
X64348961Y-134607323D01*
X64396580Y-134464466D01*
X64396580Y-134369228D01*
X64348961Y-134226371D01*
X64253723Y-134131133D01*
X64158485Y-134083514D01*
X63968009Y-134035895D01*
X63825152Y-134035895D01*
X63634676Y-134083514D01*
X63539438Y-134131133D01*
X63444200Y-134226371D01*
X63396580Y-134369228D01*
X63396580Y-134464466D01*
X63444200Y-134607323D01*
X63491819Y-134654942D01*
X64396580Y-135607323D02*
X64396580Y-135035895D01*
X64396580Y-135321609D02*
X63396580Y-135321609D01*
X63539438Y-135226371D01*
X63634676Y-135131133D01*
X63682295Y-135035895D01*
X63396580Y-136512085D02*
X63396580Y-136035895D01*
X63872771Y-135988276D01*
X63825152Y-136035895D01*
X63777533Y-136131133D01*
X63777533Y-136369228D01*
X63825152Y-136464466D01*
X63872771Y-136512085D01*
X63968009Y-136559704D01*
X64206104Y-136559704D01*
X64301342Y-136512085D01*
X64348961Y-136464466D01*
X64396580Y-136369228D01*
X64396580Y-136131133D01*
X64348961Y-136035895D01*
X64301342Y-135988276D01*
X65779642Y-124600842D02*
X65827261Y-124553223D01*
X65874880Y-124410366D01*
X65874880Y-124315128D01*
X65827261Y-124172271D01*
X65732023Y-124077033D01*
X65636785Y-124029414D01*
X65446309Y-123981795D01*
X65303452Y-123981795D01*
X65112976Y-124029414D01*
X65017738Y-124077033D01*
X64922500Y-124172271D01*
X64874880Y-124315128D01*
X64874880Y-124410366D01*
X64922500Y-124553223D01*
X64970119Y-124600842D01*
X65874880Y-125553223D02*
X65874880Y-124981795D01*
X65874880Y-125267509D02*
X64874880Y-125267509D01*
X65017738Y-125172271D01*
X65112976Y-125077033D01*
X65160595Y-124981795D01*
X64874880Y-126410366D02*
X64874880Y-126219890D01*
X64922500Y-126124652D01*
X64970119Y-126077033D01*
X65112976Y-125981795D01*
X65303452Y-125934176D01*
X65684404Y-125934176D01*
X65779642Y-125981795D01*
X65827261Y-126029414D01*
X65874880Y-126124652D01*
X65874880Y-126315128D01*
X65827261Y-126410366D01*
X65779642Y-126457985D01*
X65684404Y-126505604D01*
X65446309Y-126505604D01*
X65351071Y-126457985D01*
X65303452Y-126410366D01*
X65255833Y-126315128D01*
X65255833Y-126124652D01*
X65303452Y-126029414D01*
X65351071Y-125981795D01*
X65446309Y-125934176D01*
X65699342Y-134654942D02*
X65746961Y-134607323D01*
X65794580Y-134464466D01*
X65794580Y-134369228D01*
X65746961Y-134226371D01*
X65651723Y-134131133D01*
X65556485Y-134083514D01*
X65366009Y-134035895D01*
X65223152Y-134035895D01*
X65032676Y-134083514D01*
X64937438Y-134131133D01*
X64842200Y-134226371D01*
X64794580Y-134369228D01*
X64794580Y-134464466D01*
X64842200Y-134607323D01*
X64889819Y-134654942D01*
X65794580Y-135607323D02*
X65794580Y-135035895D01*
X65794580Y-135321609D02*
X64794580Y-135321609D01*
X64937438Y-135226371D01*
X65032676Y-135131133D01*
X65080295Y-135035895D01*
X64794580Y-135940657D02*
X64794580Y-136607323D01*
X65794580Y-136178752D01*
X86799657Y-127534942D02*
X86847276Y-127582561D01*
X86990133Y-127630180D01*
X87085371Y-127630180D01*
X87228228Y-127582561D01*
X87323466Y-127487323D01*
X87371085Y-127392085D01*
X87418704Y-127201609D01*
X87418704Y-127058752D01*
X87371085Y-126868276D01*
X87323466Y-126773038D01*
X87228228Y-126677800D01*
X87085371Y-126630180D01*
X86990133Y-126630180D01*
X86847276Y-126677800D01*
X86799657Y-126725419D01*
X85847276Y-127630180D02*
X86418704Y-127630180D01*
X86132990Y-127630180D02*
X86132990Y-126630180D01*
X86228228Y-126773038D01*
X86323466Y-126868276D01*
X86418704Y-126915895D01*
X85275847Y-127058752D02*
X85371085Y-127011133D01*
X85418704Y-126963514D01*
X85466323Y-126868276D01*
X85466323Y-126820657D01*
X85418704Y-126725419D01*
X85371085Y-126677800D01*
X85275847Y-126630180D01*
X85085371Y-126630180D01*
X84990133Y-126677800D01*
X84942514Y-126725419D01*
X84894895Y-126820657D01*
X84894895Y-126868276D01*
X84942514Y-126963514D01*
X84990133Y-127011133D01*
X85085371Y-127058752D01*
X85275847Y-127058752D01*
X85371085Y-127106371D01*
X85418704Y-127153990D01*
X85466323Y-127249228D01*
X85466323Y-127439704D01*
X85418704Y-127534942D01*
X85371085Y-127582561D01*
X85275847Y-127630180D01*
X85085371Y-127630180D01*
X84990133Y-127582561D01*
X84942514Y-127534942D01*
X84894895Y-127439704D01*
X84894895Y-127249228D01*
X84942514Y-127153990D01*
X84990133Y-127106371D01*
X85085371Y-127058752D01*
X86799657Y-125502942D02*
X86847276Y-125550561D01*
X86990133Y-125598180D01*
X87085371Y-125598180D01*
X87228228Y-125550561D01*
X87323466Y-125455323D01*
X87371085Y-125360085D01*
X87418704Y-125169609D01*
X87418704Y-125026752D01*
X87371085Y-124836276D01*
X87323466Y-124741038D01*
X87228228Y-124645800D01*
X87085371Y-124598180D01*
X86990133Y-124598180D01*
X86847276Y-124645800D01*
X86799657Y-124693419D01*
X85847276Y-125598180D02*
X86418704Y-125598180D01*
X86132990Y-125598180D02*
X86132990Y-124598180D01*
X86228228Y-124741038D01*
X86323466Y-124836276D01*
X86418704Y-124883895D01*
X85371085Y-125598180D02*
X85180609Y-125598180D01*
X85085371Y-125550561D01*
X85037752Y-125502942D01*
X84942514Y-125360085D01*
X84894895Y-125169609D01*
X84894895Y-124788657D01*
X84942514Y-124693419D01*
X84990133Y-124645800D01*
X85085371Y-124598180D01*
X85275847Y-124598180D01*
X85371085Y-124645800D01*
X85418704Y-124693419D01*
X85466323Y-124788657D01*
X85466323Y-125026752D01*
X85418704Y-125121990D01*
X85371085Y-125169609D01*
X85275847Y-125217228D01*
X85085371Y-125217228D01*
X84990133Y-125169609D01*
X84942514Y-125121990D01*
X84894895Y-125026752D01*
X86799657Y-123470942D02*
X86847276Y-123518561D01*
X86990133Y-123566180D01*
X87085371Y-123566180D01*
X87228228Y-123518561D01*
X87323466Y-123423323D01*
X87371085Y-123328085D01*
X87418704Y-123137609D01*
X87418704Y-122994752D01*
X87371085Y-122804276D01*
X87323466Y-122709038D01*
X87228228Y-122613800D01*
X87085371Y-122566180D01*
X86990133Y-122566180D01*
X86847276Y-122613800D01*
X86799657Y-122661419D01*
X86418704Y-122661419D02*
X86371085Y-122613800D01*
X86275847Y-122566180D01*
X86037752Y-122566180D01*
X85942514Y-122613800D01*
X85894895Y-122661419D01*
X85847276Y-122756657D01*
X85847276Y-122851895D01*
X85894895Y-122994752D01*
X86466323Y-123566180D01*
X85847276Y-123566180D01*
X85228228Y-122566180D02*
X85132990Y-122566180D01*
X85037752Y-122613800D01*
X84990133Y-122661419D01*
X84942514Y-122756657D01*
X84894895Y-122947133D01*
X84894895Y-123185228D01*
X84942514Y-123375704D01*
X84990133Y-123470942D01*
X85037752Y-123518561D01*
X85132990Y-123566180D01*
X85228228Y-123566180D01*
X85323466Y-123518561D01*
X85371085Y-123470942D01*
X85418704Y-123375704D01*
X85466323Y-123185228D01*
X85466323Y-122947133D01*
X85418704Y-122756657D01*
X85371085Y-122661419D01*
X85323466Y-122613800D01*
X85228228Y-122566180D01*
X86799657Y-121438942D02*
X86847276Y-121486561D01*
X86990133Y-121534180D01*
X87085371Y-121534180D01*
X87228228Y-121486561D01*
X87323466Y-121391323D01*
X87371085Y-121296085D01*
X87418704Y-121105609D01*
X87418704Y-120962752D01*
X87371085Y-120772276D01*
X87323466Y-120677038D01*
X87228228Y-120581800D01*
X87085371Y-120534180D01*
X86990133Y-120534180D01*
X86847276Y-120581800D01*
X86799657Y-120629419D01*
X86418704Y-120629419D02*
X86371085Y-120581800D01*
X86275847Y-120534180D01*
X86037752Y-120534180D01*
X85942514Y-120581800D01*
X85894895Y-120629419D01*
X85847276Y-120724657D01*
X85847276Y-120819895D01*
X85894895Y-120962752D01*
X86466323Y-121534180D01*
X85847276Y-121534180D01*
X84894895Y-121534180D02*
X85466323Y-121534180D01*
X85180609Y-121534180D02*
X85180609Y-120534180D01*
X85275847Y-120677038D01*
X85371085Y-120772276D01*
X85466323Y-120819895D01*
X75469657Y-121988942D02*
X75517276Y-122036561D01*
X75660133Y-122084180D01*
X75755371Y-122084180D01*
X75898228Y-122036561D01*
X75993466Y-121941323D01*
X76041085Y-121846085D01*
X76088704Y-121655609D01*
X76088704Y-121512752D01*
X76041085Y-121322276D01*
X75993466Y-121227038D01*
X75898228Y-121131800D01*
X75755371Y-121084180D01*
X75660133Y-121084180D01*
X75517276Y-121131800D01*
X75469657Y-121179419D01*
X75088704Y-121179419D02*
X75041085Y-121131800D01*
X74945847Y-121084180D01*
X74707752Y-121084180D01*
X74612514Y-121131800D01*
X74564895Y-121179419D01*
X74517276Y-121274657D01*
X74517276Y-121369895D01*
X74564895Y-121512752D01*
X75136323Y-122084180D01*
X74517276Y-122084180D01*
X74136323Y-121179419D02*
X74088704Y-121131800D01*
X73993466Y-121084180D01*
X73755371Y-121084180D01*
X73660133Y-121131800D01*
X73612514Y-121179419D01*
X73564895Y-121274657D01*
X73564895Y-121369895D01*
X73612514Y-121512752D01*
X74183942Y-122084180D01*
X73564895Y-122084180D01*
X75623657Y-124688942D02*
X75671276Y-124736561D01*
X75814133Y-124784180D01*
X75909371Y-124784180D01*
X76052228Y-124736561D01*
X76147466Y-124641323D01*
X76195085Y-124546085D01*
X76242704Y-124355609D01*
X76242704Y-124212752D01*
X76195085Y-124022276D01*
X76147466Y-123927038D01*
X76052228Y-123831800D01*
X75909371Y-123784180D01*
X75814133Y-123784180D01*
X75671276Y-123831800D01*
X75623657Y-123879419D01*
X75242704Y-123879419D02*
X75195085Y-123831800D01*
X75099847Y-123784180D01*
X74861752Y-123784180D01*
X74766514Y-123831800D01*
X74718895Y-123879419D01*
X74671276Y-123974657D01*
X74671276Y-124069895D01*
X74718895Y-124212752D01*
X75290323Y-124784180D01*
X74671276Y-124784180D01*
X74337942Y-123784180D02*
X73718895Y-123784180D01*
X74052228Y-124165133D01*
X73909371Y-124165133D01*
X73814133Y-124212752D01*
X73766514Y-124260371D01*
X73718895Y-124355609D01*
X73718895Y-124593704D01*
X73766514Y-124688942D01*
X73814133Y-124736561D01*
X73909371Y-124784180D01*
X74195085Y-124784180D01*
X74290323Y-124736561D01*
X74337942Y-124688942D01*
X75623657Y-127534942D02*
X75671276Y-127582561D01*
X75814133Y-127630180D01*
X75909371Y-127630180D01*
X76052228Y-127582561D01*
X76147466Y-127487323D01*
X76195085Y-127392085D01*
X76242704Y-127201609D01*
X76242704Y-127058752D01*
X76195085Y-126868276D01*
X76147466Y-126773038D01*
X76052228Y-126677800D01*
X75909371Y-126630180D01*
X75814133Y-126630180D01*
X75671276Y-126677800D01*
X75623657Y-126725419D01*
X75242704Y-126725419D02*
X75195085Y-126677800D01*
X75099847Y-126630180D01*
X74861752Y-126630180D01*
X74766514Y-126677800D01*
X74718895Y-126725419D01*
X74671276Y-126820657D01*
X74671276Y-126915895D01*
X74718895Y-127058752D01*
X75290323Y-127630180D01*
X74671276Y-127630180D01*
X73814133Y-126963514D02*
X73814133Y-127630180D01*
X74052228Y-126582561D02*
X74290323Y-127296847D01*
X73671276Y-127296847D01*
X84856257Y-98266142D02*
X84903876Y-98313761D01*
X85046733Y-98361380D01*
X85141971Y-98361380D01*
X85284828Y-98313761D01*
X85380066Y-98218523D01*
X85427685Y-98123285D01*
X85475304Y-97932809D01*
X85475304Y-97789952D01*
X85427685Y-97599476D01*
X85380066Y-97504238D01*
X85284828Y-97409000D01*
X85141971Y-97361380D01*
X85046733Y-97361380D01*
X84903876Y-97409000D01*
X84856257Y-97456619D01*
X84475304Y-97456619D02*
X84427685Y-97409000D01*
X84332447Y-97361380D01*
X84094352Y-97361380D01*
X83999114Y-97409000D01*
X83951495Y-97456619D01*
X83903876Y-97551857D01*
X83903876Y-97647095D01*
X83951495Y-97789952D01*
X84522923Y-98361380D01*
X83903876Y-98361380D01*
X82999114Y-97361380D02*
X83475304Y-97361380D01*
X83522923Y-97837571D01*
X83475304Y-97789952D01*
X83380066Y-97742333D01*
X83141971Y-97742333D01*
X83046733Y-97789952D01*
X82999114Y-97837571D01*
X82951495Y-97932809D01*
X82951495Y-98170904D01*
X82999114Y-98266142D01*
X83046733Y-98313761D01*
X83141971Y-98361380D01*
X83380066Y-98361380D01*
X83475304Y-98313761D01*
X83522923Y-98266142D01*
X86126257Y-96361142D02*
X86173876Y-96408761D01*
X86316733Y-96456380D01*
X86411971Y-96456380D01*
X86554828Y-96408761D01*
X86650066Y-96313523D01*
X86697685Y-96218285D01*
X86745304Y-96027809D01*
X86745304Y-95884952D01*
X86697685Y-95694476D01*
X86650066Y-95599238D01*
X86554828Y-95504000D01*
X86411971Y-95456380D01*
X86316733Y-95456380D01*
X86173876Y-95504000D01*
X86126257Y-95551619D01*
X85745304Y-95551619D02*
X85697685Y-95504000D01*
X85602447Y-95456380D01*
X85364352Y-95456380D01*
X85269114Y-95504000D01*
X85221495Y-95551619D01*
X85173876Y-95646857D01*
X85173876Y-95742095D01*
X85221495Y-95884952D01*
X85792923Y-96456380D01*
X85173876Y-96456380D01*
X84316733Y-95456380D02*
X84507209Y-95456380D01*
X84602447Y-95504000D01*
X84650066Y-95551619D01*
X84745304Y-95694476D01*
X84792923Y-95884952D01*
X84792923Y-96265904D01*
X84745304Y-96361142D01*
X84697685Y-96408761D01*
X84602447Y-96456380D01*
X84411971Y-96456380D01*
X84316733Y-96408761D01*
X84269114Y-96361142D01*
X84221495Y-96265904D01*
X84221495Y-96027809D01*
X84269114Y-95932571D01*
X84316733Y-95884952D01*
X84411971Y-95837333D01*
X84602447Y-95837333D01*
X84697685Y-95884952D01*
X84745304Y-95932571D01*
X84792923Y-96027809D01*
X81776542Y-91678142D02*
X81824161Y-91630523D01*
X81871780Y-91487666D01*
X81871780Y-91392428D01*
X81824161Y-91249571D01*
X81728923Y-91154333D01*
X81633685Y-91106714D01*
X81443209Y-91059095D01*
X81300352Y-91059095D01*
X81109876Y-91106714D01*
X81014638Y-91154333D01*
X80919400Y-91249571D01*
X80871780Y-91392428D01*
X80871780Y-91487666D01*
X80919400Y-91630523D01*
X80967019Y-91678142D01*
X80967019Y-92059095D02*
X80919400Y-92106714D01*
X80871780Y-92201952D01*
X80871780Y-92440047D01*
X80919400Y-92535285D01*
X80967019Y-92582904D01*
X81062257Y-92630523D01*
X81157495Y-92630523D01*
X81300352Y-92582904D01*
X81871780Y-92011476D01*
X81871780Y-92630523D01*
X80871780Y-92963857D02*
X80871780Y-93630523D01*
X81871780Y-93201952D01*
X80379542Y-91678142D02*
X80427161Y-91630523D01*
X80474780Y-91487666D01*
X80474780Y-91392428D01*
X80427161Y-91249571D01*
X80331923Y-91154333D01*
X80236685Y-91106714D01*
X80046209Y-91059095D01*
X79903352Y-91059095D01*
X79712876Y-91106714D01*
X79617638Y-91154333D01*
X79522400Y-91249571D01*
X79474780Y-91392428D01*
X79474780Y-91487666D01*
X79522400Y-91630523D01*
X79570019Y-91678142D01*
X79570019Y-92059095D02*
X79522400Y-92106714D01*
X79474780Y-92201952D01*
X79474780Y-92440047D01*
X79522400Y-92535285D01*
X79570019Y-92582904D01*
X79665257Y-92630523D01*
X79760495Y-92630523D01*
X79903352Y-92582904D01*
X80474780Y-92011476D01*
X80474780Y-92630523D01*
X79903352Y-93201952D02*
X79855733Y-93106714D01*
X79808114Y-93059095D01*
X79712876Y-93011476D01*
X79665257Y-93011476D01*
X79570019Y-93059095D01*
X79522400Y-93106714D01*
X79474780Y-93201952D01*
X79474780Y-93392428D01*
X79522400Y-93487666D01*
X79570019Y-93535285D01*
X79665257Y-93582904D01*
X79712876Y-93582904D01*
X79808114Y-93535285D01*
X79855733Y-93487666D01*
X79903352Y-93392428D01*
X79903352Y-93201952D01*
X79950971Y-93106714D01*
X79998590Y-93059095D01*
X80093828Y-93011476D01*
X80284304Y-93011476D01*
X80379542Y-93059095D01*
X80427161Y-93106714D01*
X80474780Y-93201952D01*
X80474780Y-93392428D01*
X80427161Y-93487666D01*
X80379542Y-93535285D01*
X80284304Y-93582904D01*
X80093828Y-93582904D01*
X79998590Y-93535285D01*
X79950971Y-93487666D01*
X79903352Y-93392428D01*
X80751142Y-108461142D02*
X80798761Y-108413523D01*
X80846380Y-108270666D01*
X80846380Y-108175428D01*
X80798761Y-108032571D01*
X80703523Y-107937333D01*
X80608285Y-107889714D01*
X80417809Y-107842095D01*
X80274952Y-107842095D01*
X80084476Y-107889714D01*
X79989238Y-107937333D01*
X79894000Y-108032571D01*
X79846380Y-108175428D01*
X79846380Y-108270666D01*
X79894000Y-108413523D01*
X79941619Y-108461142D01*
X79846380Y-108794476D02*
X79846380Y-109413523D01*
X80227333Y-109080190D01*
X80227333Y-109223047D01*
X80274952Y-109318285D01*
X80322571Y-109365904D01*
X80417809Y-109413523D01*
X80655904Y-109413523D01*
X80751142Y-109365904D01*
X80798761Y-109318285D01*
X80846380Y-109223047D01*
X80846380Y-108937333D01*
X80798761Y-108842095D01*
X80751142Y-108794476D01*
X80274952Y-109984952D02*
X80227333Y-109889714D01*
X80179714Y-109842095D01*
X80084476Y-109794476D01*
X80036857Y-109794476D01*
X79941619Y-109842095D01*
X79894000Y-109889714D01*
X79846380Y-109984952D01*
X79846380Y-110175428D01*
X79894000Y-110270666D01*
X79941619Y-110318285D01*
X80036857Y-110365904D01*
X80084476Y-110365904D01*
X80179714Y-110318285D01*
X80227333Y-110270666D01*
X80274952Y-110175428D01*
X80274952Y-109984952D01*
X80322571Y-109889714D01*
X80370190Y-109842095D01*
X80465428Y-109794476D01*
X80655904Y-109794476D01*
X80751142Y-109842095D01*
X80798761Y-109889714D01*
X80846380Y-109984952D01*
X80846380Y-110175428D01*
X80798761Y-110270666D01*
X80751142Y-110318285D01*
X80655904Y-110365904D01*
X80465428Y-110365904D01*
X80370190Y-110318285D01*
X80322571Y-110270666D01*
X80274952Y-110175428D01*
X92278742Y-157167342D02*
X92326361Y-157119723D01*
X92373980Y-156976866D01*
X92373980Y-156881628D01*
X92326361Y-156738771D01*
X92231123Y-156643533D01*
X92135885Y-156595914D01*
X91945409Y-156548295D01*
X91802552Y-156548295D01*
X91612076Y-156595914D01*
X91516838Y-156643533D01*
X91421600Y-156738771D01*
X91373980Y-156881628D01*
X91373980Y-156976866D01*
X91421600Y-157119723D01*
X91469219Y-157167342D01*
X91707314Y-158024485D02*
X92373980Y-158024485D01*
X91326361Y-157786390D02*
X92040647Y-157548295D01*
X92040647Y-158167342D01*
X91373980Y-158738771D02*
X91373980Y-158834009D01*
X91421600Y-158929247D01*
X91469219Y-158976866D01*
X91564457Y-159024485D01*
X91754933Y-159072104D01*
X91993028Y-159072104D01*
X92183504Y-159024485D01*
X92278742Y-158976866D01*
X92326361Y-158929247D01*
X92373980Y-158834009D01*
X92373980Y-158738771D01*
X92326361Y-158643533D01*
X92278742Y-158595914D01*
X92183504Y-158548295D01*
X91993028Y-158500676D01*
X91754933Y-158500676D01*
X91564457Y-158548295D01*
X91469219Y-158595914D01*
X91421600Y-158643533D01*
X91373980Y-158738771D01*
X92608942Y-169511742D02*
X92656561Y-169464123D01*
X92704180Y-169321266D01*
X92704180Y-169226028D01*
X92656561Y-169083171D01*
X92561323Y-168987933D01*
X92466085Y-168940314D01*
X92275609Y-168892695D01*
X92132752Y-168892695D01*
X91942276Y-168940314D01*
X91847038Y-168987933D01*
X91751800Y-169083171D01*
X91704180Y-169226028D01*
X91704180Y-169321266D01*
X91751800Y-169464123D01*
X91799419Y-169511742D01*
X92037514Y-170368885D02*
X92704180Y-170368885D01*
X91656561Y-170130790D02*
X92370847Y-169892695D01*
X92370847Y-170511742D01*
X92132752Y-171035552D02*
X92085133Y-170940314D01*
X92037514Y-170892695D01*
X91942276Y-170845076D01*
X91894657Y-170845076D01*
X91799419Y-170892695D01*
X91751800Y-170940314D01*
X91704180Y-171035552D01*
X91704180Y-171226028D01*
X91751800Y-171321266D01*
X91799419Y-171368885D01*
X91894657Y-171416504D01*
X91942276Y-171416504D01*
X92037514Y-171368885D01*
X92085133Y-171321266D01*
X92132752Y-171226028D01*
X92132752Y-171035552D01*
X92180371Y-170940314D01*
X92227990Y-170892695D01*
X92323228Y-170845076D01*
X92513704Y-170845076D01*
X92608942Y-170892695D01*
X92656561Y-170940314D01*
X92704180Y-171035552D01*
X92704180Y-171226028D01*
X92656561Y-171321266D01*
X92608942Y-171368885D01*
X92513704Y-171416504D01*
X92323228Y-171416504D01*
X92227990Y-171368885D01*
X92180371Y-171321266D01*
X92132752Y-171226028D01*
%LPC*%
D14*
G36*
X101648783Y-168545825D02*
G01*
X101673474Y-168549487D01*
X101697686Y-168555552D01*
X101721187Y-168563961D01*
X101743751Y-168574633D01*
X101765161Y-168587465D01*
X101785209Y-168602334D01*
X101803703Y-168619097D01*
X101820466Y-168637591D01*
X101835335Y-168657639D01*
X101848167Y-168679049D01*
X101858839Y-168701613D01*
X101867248Y-168725114D01*
X101873313Y-168749326D01*
X101876975Y-168774017D01*
X101878200Y-168798947D01*
X101878200Y-169460253D01*
X101876975Y-169485183D01*
X101873313Y-169509874D01*
X101867248Y-169534086D01*
X101858839Y-169557587D01*
X101848167Y-169580151D01*
X101835335Y-169601561D01*
X101820466Y-169621609D01*
X101803703Y-169640103D01*
X101785209Y-169656866D01*
X101765161Y-169671735D01*
X101743751Y-169684567D01*
X101721187Y-169695239D01*
X101697686Y-169703648D01*
X101673474Y-169709713D01*
X101648783Y-169713375D01*
X101623853Y-169714600D01*
X100712547Y-169714600D01*
X100687617Y-169713375D01*
X100662926Y-169709713D01*
X100638714Y-169703648D01*
X100615213Y-169695239D01*
X100592649Y-169684567D01*
X100571239Y-169671735D01*
X100551191Y-169656866D01*
X100532697Y-169640103D01*
X100515934Y-169621609D01*
X100501065Y-169601561D01*
X100488233Y-169580151D01*
X100477561Y-169557587D01*
X100469152Y-169534086D01*
X100463087Y-169509874D01*
X100459425Y-169485183D01*
X100458200Y-169460253D01*
X100458200Y-168798947D01*
X100459425Y-168774017D01*
X100463087Y-168749326D01*
X100469152Y-168725114D01*
X100477561Y-168701613D01*
X100488233Y-168679049D01*
X100501065Y-168657639D01*
X100515934Y-168637591D01*
X100532697Y-168619097D01*
X100551191Y-168602334D01*
X100571239Y-168587465D01*
X100592649Y-168574633D01*
X100615213Y-168563961D01*
X100638714Y-168555552D01*
X100662926Y-168549487D01*
X100687617Y-168545825D01*
X100712547Y-168544600D01*
X101623853Y-168544600D01*
X101648783Y-168545825D01*
X101648783Y-168545825D01*
G37*
D15*
X101168200Y-169129600D03*
D14*
G36*
X101648783Y-170595825D02*
G01*
X101673474Y-170599487D01*
X101697686Y-170605552D01*
X101721187Y-170613961D01*
X101743751Y-170624633D01*
X101765161Y-170637465D01*
X101785209Y-170652334D01*
X101803703Y-170669097D01*
X101820466Y-170687591D01*
X101835335Y-170707639D01*
X101848167Y-170729049D01*
X101858839Y-170751613D01*
X101867248Y-170775114D01*
X101873313Y-170799326D01*
X101876975Y-170824017D01*
X101878200Y-170848947D01*
X101878200Y-171510253D01*
X101876975Y-171535183D01*
X101873313Y-171559874D01*
X101867248Y-171584086D01*
X101858839Y-171607587D01*
X101848167Y-171630151D01*
X101835335Y-171651561D01*
X101820466Y-171671609D01*
X101803703Y-171690103D01*
X101785209Y-171706866D01*
X101765161Y-171721735D01*
X101743751Y-171734567D01*
X101721187Y-171745239D01*
X101697686Y-171753648D01*
X101673474Y-171759713D01*
X101648783Y-171763375D01*
X101623853Y-171764600D01*
X100712547Y-171764600D01*
X100687617Y-171763375D01*
X100662926Y-171759713D01*
X100638714Y-171753648D01*
X100615213Y-171745239D01*
X100592649Y-171734567D01*
X100571239Y-171721735D01*
X100551191Y-171706866D01*
X100532697Y-171690103D01*
X100515934Y-171671609D01*
X100501065Y-171651561D01*
X100488233Y-171630151D01*
X100477561Y-171607587D01*
X100469152Y-171584086D01*
X100463087Y-171559874D01*
X100459425Y-171535183D01*
X100458200Y-171510253D01*
X100458200Y-170848947D01*
X100459425Y-170824017D01*
X100463087Y-170799326D01*
X100469152Y-170775114D01*
X100477561Y-170751613D01*
X100488233Y-170729049D01*
X100501065Y-170707639D01*
X100515934Y-170687591D01*
X100532697Y-170669097D01*
X100551191Y-170652334D01*
X100571239Y-170637465D01*
X100592649Y-170624633D01*
X100615213Y-170613961D01*
X100638714Y-170605552D01*
X100662926Y-170599487D01*
X100687617Y-170595825D01*
X100712547Y-170594600D01*
X101623853Y-170594600D01*
X101648783Y-170595825D01*
X101648783Y-170595825D01*
G37*
D15*
X101168200Y-171179600D03*
D14*
G36*
X90752183Y-162424425D02*
G01*
X90776874Y-162428087D01*
X90801086Y-162434152D01*
X90824587Y-162442561D01*
X90847151Y-162453233D01*
X90868561Y-162466065D01*
X90888609Y-162480934D01*
X90907103Y-162497697D01*
X90923866Y-162516191D01*
X90938735Y-162536239D01*
X90951567Y-162557649D01*
X90962239Y-162580213D01*
X90970648Y-162603714D01*
X90976713Y-162627926D01*
X90980375Y-162652617D01*
X90981600Y-162677547D01*
X90981600Y-163338853D01*
X90980375Y-163363783D01*
X90976713Y-163388474D01*
X90970648Y-163412686D01*
X90962239Y-163436187D01*
X90951567Y-163458751D01*
X90938735Y-163480161D01*
X90923866Y-163500209D01*
X90907103Y-163518703D01*
X90888609Y-163535466D01*
X90868561Y-163550335D01*
X90847151Y-163563167D01*
X90824587Y-163573839D01*
X90801086Y-163582248D01*
X90776874Y-163588313D01*
X90752183Y-163591975D01*
X90727253Y-163593200D01*
X89815947Y-163593200D01*
X89791017Y-163591975D01*
X89766326Y-163588313D01*
X89742114Y-163582248D01*
X89718613Y-163573839D01*
X89696049Y-163563167D01*
X89674639Y-163550335D01*
X89654591Y-163535466D01*
X89636097Y-163518703D01*
X89619334Y-163500209D01*
X89604465Y-163480161D01*
X89591633Y-163458751D01*
X89580961Y-163436187D01*
X89572552Y-163412686D01*
X89566487Y-163388474D01*
X89562825Y-163363783D01*
X89561600Y-163338853D01*
X89561600Y-162677547D01*
X89562825Y-162652617D01*
X89566487Y-162627926D01*
X89572552Y-162603714D01*
X89580961Y-162580213D01*
X89591633Y-162557649D01*
X89604465Y-162536239D01*
X89619334Y-162516191D01*
X89636097Y-162497697D01*
X89654591Y-162480934D01*
X89674639Y-162466065D01*
X89696049Y-162453233D01*
X89718613Y-162442561D01*
X89742114Y-162434152D01*
X89766326Y-162428087D01*
X89791017Y-162424425D01*
X89815947Y-162423200D01*
X90727253Y-162423200D01*
X90752183Y-162424425D01*
X90752183Y-162424425D01*
G37*
D15*
X90271600Y-163008200D03*
D14*
G36*
X90752183Y-164474425D02*
G01*
X90776874Y-164478087D01*
X90801086Y-164484152D01*
X90824587Y-164492561D01*
X90847151Y-164503233D01*
X90868561Y-164516065D01*
X90888609Y-164530934D01*
X90907103Y-164547697D01*
X90923866Y-164566191D01*
X90938735Y-164586239D01*
X90951567Y-164607649D01*
X90962239Y-164630213D01*
X90970648Y-164653714D01*
X90976713Y-164677926D01*
X90980375Y-164702617D01*
X90981600Y-164727547D01*
X90981600Y-165388853D01*
X90980375Y-165413783D01*
X90976713Y-165438474D01*
X90970648Y-165462686D01*
X90962239Y-165486187D01*
X90951567Y-165508751D01*
X90938735Y-165530161D01*
X90923866Y-165550209D01*
X90907103Y-165568703D01*
X90888609Y-165585466D01*
X90868561Y-165600335D01*
X90847151Y-165613167D01*
X90824587Y-165623839D01*
X90801086Y-165632248D01*
X90776874Y-165638313D01*
X90752183Y-165641975D01*
X90727253Y-165643200D01*
X89815947Y-165643200D01*
X89791017Y-165641975D01*
X89766326Y-165638313D01*
X89742114Y-165632248D01*
X89718613Y-165623839D01*
X89696049Y-165613167D01*
X89674639Y-165600335D01*
X89654591Y-165585466D01*
X89636097Y-165568703D01*
X89619334Y-165550209D01*
X89604465Y-165530161D01*
X89591633Y-165508751D01*
X89580961Y-165486187D01*
X89572552Y-165462686D01*
X89566487Y-165438474D01*
X89562825Y-165413783D01*
X89561600Y-165388853D01*
X89561600Y-164727547D01*
X89562825Y-164702617D01*
X89566487Y-164677926D01*
X89572552Y-164653714D01*
X89580961Y-164630213D01*
X89591633Y-164607649D01*
X89604465Y-164586239D01*
X89619334Y-164566191D01*
X89636097Y-164547697D01*
X89654591Y-164530934D01*
X89674639Y-164516065D01*
X89696049Y-164503233D01*
X89718613Y-164492561D01*
X89742114Y-164484152D01*
X89766326Y-164478087D01*
X89791017Y-164474425D01*
X89815947Y-164473200D01*
X90727253Y-164473200D01*
X90752183Y-164474425D01*
X90752183Y-164474425D01*
G37*
D15*
X90271600Y-165058200D03*
D16*
X68867000Y-164969000D03*
D17*
X68867000Y-162199000D03*
X68867000Y-159429000D03*
X68867000Y-156659000D03*
X68867000Y-153889000D03*
X66027000Y-163584000D03*
X66027000Y-160814000D03*
X66027000Y-158044000D03*
X66027000Y-155274000D03*
D18*
X68567000Y-146929000D03*
X68567000Y-171929000D03*
D16*
X98049800Y-176868200D03*
D19*
X90429800Y-174328200D03*
X98049800Y-174328200D03*
X90429800Y-176868200D03*
D14*
G36*
X64490083Y-129932425D02*
G01*
X64514774Y-129936087D01*
X64538986Y-129942152D01*
X64562487Y-129950561D01*
X64585051Y-129961233D01*
X64606461Y-129974065D01*
X64626509Y-129988934D01*
X64645003Y-130005697D01*
X64661766Y-130024191D01*
X64676635Y-130044239D01*
X64689467Y-130065649D01*
X64700139Y-130088213D01*
X64708548Y-130111714D01*
X64714613Y-130135926D01*
X64718275Y-130160617D01*
X64719500Y-130185547D01*
X64719500Y-131096853D01*
X64718275Y-131121783D01*
X64714613Y-131146474D01*
X64708548Y-131170686D01*
X64700139Y-131194187D01*
X64689467Y-131216751D01*
X64676635Y-131238161D01*
X64661766Y-131258209D01*
X64645003Y-131276703D01*
X64626509Y-131293466D01*
X64606461Y-131308335D01*
X64585051Y-131321167D01*
X64562487Y-131331839D01*
X64538986Y-131340248D01*
X64514774Y-131346313D01*
X64490083Y-131349975D01*
X64465153Y-131351200D01*
X63803847Y-131351200D01*
X63778917Y-131349975D01*
X63754226Y-131346313D01*
X63730014Y-131340248D01*
X63706513Y-131331839D01*
X63683949Y-131321167D01*
X63662539Y-131308335D01*
X63642491Y-131293466D01*
X63623997Y-131276703D01*
X63607234Y-131258209D01*
X63592365Y-131238161D01*
X63579533Y-131216751D01*
X63568861Y-131194187D01*
X63560452Y-131170686D01*
X63554387Y-131146474D01*
X63550725Y-131121783D01*
X63549500Y-131096853D01*
X63549500Y-130185547D01*
X63550725Y-130160617D01*
X63554387Y-130135926D01*
X63560452Y-130111714D01*
X63568861Y-130088213D01*
X63579533Y-130065649D01*
X63592365Y-130044239D01*
X63607234Y-130024191D01*
X63623997Y-130005697D01*
X63642491Y-129988934D01*
X63662539Y-129974065D01*
X63683949Y-129961233D01*
X63706513Y-129950561D01*
X63730014Y-129942152D01*
X63754226Y-129936087D01*
X63778917Y-129932425D01*
X63803847Y-129931200D01*
X64465153Y-129931200D01*
X64490083Y-129932425D01*
X64490083Y-129932425D01*
G37*
D15*
X64134500Y-130641200D03*
D14*
G36*
X66540083Y-129932425D02*
G01*
X66564774Y-129936087D01*
X66588986Y-129942152D01*
X66612487Y-129950561D01*
X66635051Y-129961233D01*
X66656461Y-129974065D01*
X66676509Y-129988934D01*
X66695003Y-130005697D01*
X66711766Y-130024191D01*
X66726635Y-130044239D01*
X66739467Y-130065649D01*
X66750139Y-130088213D01*
X66758548Y-130111714D01*
X66764613Y-130135926D01*
X66768275Y-130160617D01*
X66769500Y-130185547D01*
X66769500Y-131096853D01*
X66768275Y-131121783D01*
X66764613Y-131146474D01*
X66758548Y-131170686D01*
X66750139Y-131194187D01*
X66739467Y-131216751D01*
X66726635Y-131238161D01*
X66711766Y-131258209D01*
X66695003Y-131276703D01*
X66676509Y-131293466D01*
X66656461Y-131308335D01*
X66635051Y-131321167D01*
X66612487Y-131331839D01*
X66588986Y-131340248D01*
X66564774Y-131346313D01*
X66540083Y-131349975D01*
X66515153Y-131351200D01*
X65853847Y-131351200D01*
X65828917Y-131349975D01*
X65804226Y-131346313D01*
X65780014Y-131340248D01*
X65756513Y-131331839D01*
X65733949Y-131321167D01*
X65712539Y-131308335D01*
X65692491Y-131293466D01*
X65673997Y-131276703D01*
X65657234Y-131258209D01*
X65642365Y-131238161D01*
X65629533Y-131216751D01*
X65618861Y-131194187D01*
X65610452Y-131170686D01*
X65604387Y-131146474D01*
X65600725Y-131121783D01*
X65599500Y-131096853D01*
X65599500Y-130185547D01*
X65600725Y-130160617D01*
X65604387Y-130135926D01*
X65610452Y-130111714D01*
X65618861Y-130088213D01*
X65629533Y-130065649D01*
X65642365Y-130044239D01*
X65657234Y-130024191D01*
X65673997Y-130005697D01*
X65692491Y-129988934D01*
X65712539Y-129974065D01*
X65733949Y-129961233D01*
X65756513Y-129950561D01*
X65780014Y-129942152D01*
X65804226Y-129936087D01*
X65828917Y-129932425D01*
X65853847Y-129931200D01*
X66515153Y-129931200D01*
X66540083Y-129932425D01*
X66540083Y-129932425D01*
G37*
D15*
X66184500Y-130641200D03*
D14*
G36*
X66213783Y-139923025D02*
G01*
X66238474Y-139926687D01*
X66262686Y-139932752D01*
X66286187Y-139941161D01*
X66308751Y-139951833D01*
X66330161Y-139964665D01*
X66350209Y-139979534D01*
X66368703Y-139996297D01*
X66385466Y-140014791D01*
X66400335Y-140034839D01*
X66413167Y-140056249D01*
X66423839Y-140078813D01*
X66432248Y-140102314D01*
X66438313Y-140126526D01*
X66441975Y-140151217D01*
X66443200Y-140176147D01*
X66443200Y-141087453D01*
X66441975Y-141112383D01*
X66438313Y-141137074D01*
X66432248Y-141161286D01*
X66423839Y-141184787D01*
X66413167Y-141207351D01*
X66400335Y-141228761D01*
X66385466Y-141248809D01*
X66368703Y-141267303D01*
X66350209Y-141284066D01*
X66330161Y-141298935D01*
X66308751Y-141311767D01*
X66286187Y-141322439D01*
X66262686Y-141330848D01*
X66238474Y-141336913D01*
X66213783Y-141340575D01*
X66188853Y-141341800D01*
X65527547Y-141341800D01*
X65502617Y-141340575D01*
X65477926Y-141336913D01*
X65453714Y-141330848D01*
X65430213Y-141322439D01*
X65407649Y-141311767D01*
X65386239Y-141298935D01*
X65366191Y-141284066D01*
X65347697Y-141267303D01*
X65330934Y-141248809D01*
X65316065Y-141228761D01*
X65303233Y-141207351D01*
X65292561Y-141184787D01*
X65284152Y-141161286D01*
X65278087Y-141137074D01*
X65274425Y-141112383D01*
X65273200Y-141087453D01*
X65273200Y-140176147D01*
X65274425Y-140151217D01*
X65278087Y-140126526D01*
X65284152Y-140102314D01*
X65292561Y-140078813D01*
X65303233Y-140056249D01*
X65316065Y-140034839D01*
X65330934Y-140014791D01*
X65347697Y-139996297D01*
X65366191Y-139979534D01*
X65386239Y-139964665D01*
X65407649Y-139951833D01*
X65430213Y-139941161D01*
X65453714Y-139932752D01*
X65477926Y-139926687D01*
X65502617Y-139923025D01*
X65527547Y-139921800D01*
X66188853Y-139921800D01*
X66213783Y-139923025D01*
X66213783Y-139923025D01*
G37*
D15*
X65858200Y-140631800D03*
D14*
G36*
X64163783Y-139923025D02*
G01*
X64188474Y-139926687D01*
X64212686Y-139932752D01*
X64236187Y-139941161D01*
X64258751Y-139951833D01*
X64280161Y-139964665D01*
X64300209Y-139979534D01*
X64318703Y-139996297D01*
X64335466Y-140014791D01*
X64350335Y-140034839D01*
X64363167Y-140056249D01*
X64373839Y-140078813D01*
X64382248Y-140102314D01*
X64388313Y-140126526D01*
X64391975Y-140151217D01*
X64393200Y-140176147D01*
X64393200Y-141087453D01*
X64391975Y-141112383D01*
X64388313Y-141137074D01*
X64382248Y-141161286D01*
X64373839Y-141184787D01*
X64363167Y-141207351D01*
X64350335Y-141228761D01*
X64335466Y-141248809D01*
X64318703Y-141267303D01*
X64300209Y-141284066D01*
X64280161Y-141298935D01*
X64258751Y-141311767D01*
X64236187Y-141322439D01*
X64212686Y-141330848D01*
X64188474Y-141336913D01*
X64163783Y-141340575D01*
X64138853Y-141341800D01*
X63477547Y-141341800D01*
X63452617Y-141340575D01*
X63427926Y-141336913D01*
X63403714Y-141330848D01*
X63380213Y-141322439D01*
X63357649Y-141311767D01*
X63336239Y-141298935D01*
X63316191Y-141284066D01*
X63297697Y-141267303D01*
X63280934Y-141248809D01*
X63266065Y-141228761D01*
X63253233Y-141207351D01*
X63242561Y-141184787D01*
X63234152Y-141161286D01*
X63228087Y-141137074D01*
X63224425Y-141112383D01*
X63223200Y-141087453D01*
X63223200Y-140176147D01*
X63224425Y-140151217D01*
X63228087Y-140126526D01*
X63234152Y-140102314D01*
X63242561Y-140078813D01*
X63253233Y-140056249D01*
X63266065Y-140034839D01*
X63280934Y-140014791D01*
X63297697Y-139996297D01*
X63316191Y-139979534D01*
X63336239Y-139964665D01*
X63357649Y-139951833D01*
X63380213Y-139941161D01*
X63403714Y-139932752D01*
X63427926Y-139926687D01*
X63452617Y-139923025D01*
X63477547Y-139921800D01*
X64138853Y-139921800D01*
X64163783Y-139923025D01*
X64163783Y-139923025D01*
G37*
D15*
X63808200Y-140631800D03*
D14*
G36*
X67440339Y-127534921D02*
G01*
X67464948Y-127538571D01*
X67489081Y-127544616D01*
X67512505Y-127552997D01*
X67534994Y-127563634D01*
X67556333Y-127576424D01*
X67576315Y-127591244D01*
X67594749Y-127607951D01*
X67611456Y-127626385D01*
X67626276Y-127646367D01*
X67639066Y-127667706D01*
X67649703Y-127690195D01*
X67658084Y-127713619D01*
X67664129Y-127737752D01*
X67667779Y-127762361D01*
X67669000Y-127787209D01*
X67669000Y-129050191D01*
X67667779Y-129075039D01*
X67664129Y-129099648D01*
X67658084Y-129123781D01*
X67649703Y-129147205D01*
X67639066Y-129169694D01*
X67626276Y-129191033D01*
X67611456Y-129211015D01*
X67594749Y-129229449D01*
X67576315Y-129246156D01*
X67556333Y-129260976D01*
X67534994Y-129273766D01*
X67512505Y-129284403D01*
X67489081Y-129292784D01*
X67464948Y-129298829D01*
X67440339Y-129302479D01*
X67415491Y-129303700D01*
X66477509Y-129303700D01*
X66452661Y-129302479D01*
X66428052Y-129298829D01*
X66403919Y-129292784D01*
X66380495Y-129284403D01*
X66358006Y-129273766D01*
X66336667Y-129260976D01*
X66316685Y-129246156D01*
X66298251Y-129229449D01*
X66281544Y-129211015D01*
X66266724Y-129191033D01*
X66253934Y-129169694D01*
X66243297Y-129147205D01*
X66234916Y-129123781D01*
X66228871Y-129099648D01*
X66225221Y-129075039D01*
X66224000Y-129050191D01*
X66224000Y-127787209D01*
X66225221Y-127762361D01*
X66228871Y-127737752D01*
X66234916Y-127713619D01*
X66243297Y-127690195D01*
X66253934Y-127667706D01*
X66266724Y-127646367D01*
X66281544Y-127626385D01*
X66298251Y-127607951D01*
X66316685Y-127591244D01*
X66336667Y-127576424D01*
X66358006Y-127563634D01*
X66380495Y-127552997D01*
X66403919Y-127544616D01*
X66428052Y-127538571D01*
X66452661Y-127534921D01*
X66477509Y-127533700D01*
X67415491Y-127533700D01*
X67440339Y-127534921D01*
X67440339Y-127534921D01*
G37*
D20*
X66946500Y-128418700D03*
D14*
G36*
X64465339Y-127534921D02*
G01*
X64489948Y-127538571D01*
X64514081Y-127544616D01*
X64537505Y-127552997D01*
X64559994Y-127563634D01*
X64581333Y-127576424D01*
X64601315Y-127591244D01*
X64619749Y-127607951D01*
X64636456Y-127626385D01*
X64651276Y-127646367D01*
X64664066Y-127667706D01*
X64674703Y-127690195D01*
X64683084Y-127713619D01*
X64689129Y-127737752D01*
X64692779Y-127762361D01*
X64694000Y-127787209D01*
X64694000Y-129050191D01*
X64692779Y-129075039D01*
X64689129Y-129099648D01*
X64683084Y-129123781D01*
X64674703Y-129147205D01*
X64664066Y-129169694D01*
X64651276Y-129191033D01*
X64636456Y-129211015D01*
X64619749Y-129229449D01*
X64601315Y-129246156D01*
X64581333Y-129260976D01*
X64559994Y-129273766D01*
X64537505Y-129284403D01*
X64514081Y-129292784D01*
X64489948Y-129298829D01*
X64465339Y-129302479D01*
X64440491Y-129303700D01*
X63502509Y-129303700D01*
X63477661Y-129302479D01*
X63453052Y-129298829D01*
X63428919Y-129292784D01*
X63405495Y-129284403D01*
X63383006Y-129273766D01*
X63361667Y-129260976D01*
X63341685Y-129246156D01*
X63323251Y-129229449D01*
X63306544Y-129211015D01*
X63291724Y-129191033D01*
X63278934Y-129169694D01*
X63268297Y-129147205D01*
X63259916Y-129123781D01*
X63253871Y-129099648D01*
X63250221Y-129075039D01*
X63249000Y-129050191D01*
X63249000Y-127787209D01*
X63250221Y-127762361D01*
X63253871Y-127737752D01*
X63259916Y-127713619D01*
X63268297Y-127690195D01*
X63278934Y-127667706D01*
X63291724Y-127646367D01*
X63306544Y-127626385D01*
X63323251Y-127607951D01*
X63341685Y-127591244D01*
X63361667Y-127576424D01*
X63383006Y-127563634D01*
X63405495Y-127552997D01*
X63428919Y-127544616D01*
X63453052Y-127538571D01*
X63477661Y-127534921D01*
X63502509Y-127533700D01*
X64440491Y-127533700D01*
X64465339Y-127534921D01*
X64465339Y-127534921D01*
G37*
D20*
X63971500Y-128418700D03*
D14*
G36*
X67322539Y-137589021D02*
G01*
X67347148Y-137592671D01*
X67371281Y-137598716D01*
X67394705Y-137607097D01*
X67417194Y-137617734D01*
X67438533Y-137630524D01*
X67458515Y-137645344D01*
X67476949Y-137662051D01*
X67493656Y-137680485D01*
X67508476Y-137700467D01*
X67521266Y-137721806D01*
X67531903Y-137744295D01*
X67540284Y-137767719D01*
X67546329Y-137791852D01*
X67549979Y-137816461D01*
X67551200Y-137841309D01*
X67551200Y-139104291D01*
X67549979Y-139129139D01*
X67546329Y-139153748D01*
X67540284Y-139177881D01*
X67531903Y-139201305D01*
X67521266Y-139223794D01*
X67508476Y-139245133D01*
X67493656Y-139265115D01*
X67476949Y-139283549D01*
X67458515Y-139300256D01*
X67438533Y-139315076D01*
X67417194Y-139327866D01*
X67394705Y-139338503D01*
X67371281Y-139346884D01*
X67347148Y-139352929D01*
X67322539Y-139356579D01*
X67297691Y-139357800D01*
X66359709Y-139357800D01*
X66334861Y-139356579D01*
X66310252Y-139352929D01*
X66286119Y-139346884D01*
X66262695Y-139338503D01*
X66240206Y-139327866D01*
X66218867Y-139315076D01*
X66198885Y-139300256D01*
X66180451Y-139283549D01*
X66163744Y-139265115D01*
X66148924Y-139245133D01*
X66136134Y-139223794D01*
X66125497Y-139201305D01*
X66117116Y-139177881D01*
X66111071Y-139153748D01*
X66107421Y-139129139D01*
X66106200Y-139104291D01*
X66106200Y-137841309D01*
X66107421Y-137816461D01*
X66111071Y-137791852D01*
X66117116Y-137767719D01*
X66125497Y-137744295D01*
X66136134Y-137721806D01*
X66148924Y-137700467D01*
X66163744Y-137680485D01*
X66180451Y-137662051D01*
X66198885Y-137645344D01*
X66218867Y-137630524D01*
X66240206Y-137617734D01*
X66262695Y-137607097D01*
X66286119Y-137598716D01*
X66310252Y-137592671D01*
X66334861Y-137589021D01*
X66359709Y-137587800D01*
X67297691Y-137587800D01*
X67322539Y-137589021D01*
X67322539Y-137589021D01*
G37*
D20*
X66828700Y-138472800D03*
D14*
G36*
X64347539Y-137589021D02*
G01*
X64372148Y-137592671D01*
X64396281Y-137598716D01*
X64419705Y-137607097D01*
X64442194Y-137617734D01*
X64463533Y-137630524D01*
X64483515Y-137645344D01*
X64501949Y-137662051D01*
X64518656Y-137680485D01*
X64533476Y-137700467D01*
X64546266Y-137721806D01*
X64556903Y-137744295D01*
X64565284Y-137767719D01*
X64571329Y-137791852D01*
X64574979Y-137816461D01*
X64576200Y-137841309D01*
X64576200Y-139104291D01*
X64574979Y-139129139D01*
X64571329Y-139153748D01*
X64565284Y-139177881D01*
X64556903Y-139201305D01*
X64546266Y-139223794D01*
X64533476Y-139245133D01*
X64518656Y-139265115D01*
X64501949Y-139283549D01*
X64483515Y-139300256D01*
X64463533Y-139315076D01*
X64442194Y-139327866D01*
X64419705Y-139338503D01*
X64396281Y-139346884D01*
X64372148Y-139352929D01*
X64347539Y-139356579D01*
X64322691Y-139357800D01*
X63384709Y-139357800D01*
X63359861Y-139356579D01*
X63335252Y-139352929D01*
X63311119Y-139346884D01*
X63287695Y-139338503D01*
X63265206Y-139327866D01*
X63243867Y-139315076D01*
X63223885Y-139300256D01*
X63205451Y-139283549D01*
X63188744Y-139265115D01*
X63173924Y-139245133D01*
X63161134Y-139223794D01*
X63150497Y-139201305D01*
X63142116Y-139177881D01*
X63136071Y-139153748D01*
X63132421Y-139129139D01*
X63131200Y-139104291D01*
X63131200Y-137841309D01*
X63132421Y-137816461D01*
X63136071Y-137791852D01*
X63142116Y-137767719D01*
X63150497Y-137744295D01*
X63161134Y-137721806D01*
X63173924Y-137700467D01*
X63188744Y-137680485D01*
X63205451Y-137662051D01*
X63223885Y-137645344D01*
X63243867Y-137630524D01*
X63265206Y-137617734D01*
X63287695Y-137607097D01*
X63311119Y-137598716D01*
X63335252Y-137592671D01*
X63359861Y-137589021D01*
X63384709Y-137587800D01*
X64322691Y-137587800D01*
X64347539Y-137589021D01*
X64347539Y-137589021D01*
G37*
D20*
X63853700Y-138472800D03*
D14*
G36*
X69761839Y-126681421D02*
G01*
X69786448Y-126685071D01*
X69810581Y-126691116D01*
X69834005Y-126699497D01*
X69856494Y-126710134D01*
X69877833Y-126722924D01*
X69897815Y-126737744D01*
X69916249Y-126754451D01*
X69932956Y-126772885D01*
X69947776Y-126792867D01*
X69960566Y-126814206D01*
X69971203Y-126836695D01*
X69979584Y-126860119D01*
X69985629Y-126884252D01*
X69989279Y-126908861D01*
X69990500Y-126933709D01*
X69990500Y-127871691D01*
X69989279Y-127896539D01*
X69985629Y-127921148D01*
X69979584Y-127945281D01*
X69971203Y-127968705D01*
X69960566Y-127991194D01*
X69947776Y-128012533D01*
X69932956Y-128032515D01*
X69916249Y-128050949D01*
X69897815Y-128067656D01*
X69877833Y-128082476D01*
X69856494Y-128095266D01*
X69834005Y-128105903D01*
X69810581Y-128114284D01*
X69786448Y-128120329D01*
X69761839Y-128123979D01*
X69736991Y-128125200D01*
X68474009Y-128125200D01*
X68449161Y-128123979D01*
X68424552Y-128120329D01*
X68400419Y-128114284D01*
X68376995Y-128105903D01*
X68354506Y-128095266D01*
X68333167Y-128082476D01*
X68313185Y-128067656D01*
X68294751Y-128050949D01*
X68278044Y-128032515D01*
X68263224Y-128012533D01*
X68250434Y-127991194D01*
X68239797Y-127968705D01*
X68231416Y-127945281D01*
X68225371Y-127921148D01*
X68221721Y-127896539D01*
X68220500Y-127871691D01*
X68220500Y-126933709D01*
X68221721Y-126908861D01*
X68225371Y-126884252D01*
X68231416Y-126860119D01*
X68239797Y-126836695D01*
X68250434Y-126814206D01*
X68263224Y-126792867D01*
X68278044Y-126772885D01*
X68294751Y-126754451D01*
X68313185Y-126737744D01*
X68333167Y-126722924D01*
X68354506Y-126710134D01*
X68376995Y-126699497D01*
X68400419Y-126691116D01*
X68424552Y-126685071D01*
X68449161Y-126681421D01*
X68474009Y-126680200D01*
X69736991Y-126680200D01*
X69761839Y-126681421D01*
X69761839Y-126681421D01*
G37*
D20*
X69105500Y-127402700D03*
D14*
G36*
X69761839Y-123706421D02*
G01*
X69786448Y-123710071D01*
X69810581Y-123716116D01*
X69834005Y-123724497D01*
X69856494Y-123735134D01*
X69877833Y-123747924D01*
X69897815Y-123762744D01*
X69916249Y-123779451D01*
X69932956Y-123797885D01*
X69947776Y-123817867D01*
X69960566Y-123839206D01*
X69971203Y-123861695D01*
X69979584Y-123885119D01*
X69985629Y-123909252D01*
X69989279Y-123933861D01*
X69990500Y-123958709D01*
X69990500Y-124896691D01*
X69989279Y-124921539D01*
X69985629Y-124946148D01*
X69979584Y-124970281D01*
X69971203Y-124993705D01*
X69960566Y-125016194D01*
X69947776Y-125037533D01*
X69932956Y-125057515D01*
X69916249Y-125075949D01*
X69897815Y-125092656D01*
X69877833Y-125107476D01*
X69856494Y-125120266D01*
X69834005Y-125130903D01*
X69810581Y-125139284D01*
X69786448Y-125145329D01*
X69761839Y-125148979D01*
X69736991Y-125150200D01*
X68474009Y-125150200D01*
X68449161Y-125148979D01*
X68424552Y-125145329D01*
X68400419Y-125139284D01*
X68376995Y-125130903D01*
X68354506Y-125120266D01*
X68333167Y-125107476D01*
X68313185Y-125092656D01*
X68294751Y-125075949D01*
X68278044Y-125057515D01*
X68263224Y-125037533D01*
X68250434Y-125016194D01*
X68239797Y-124993705D01*
X68231416Y-124970281D01*
X68225371Y-124946148D01*
X68221721Y-124921539D01*
X68220500Y-124896691D01*
X68220500Y-123958709D01*
X68221721Y-123933861D01*
X68225371Y-123909252D01*
X68231416Y-123885119D01*
X68239797Y-123861695D01*
X68250434Y-123839206D01*
X68263224Y-123817867D01*
X68278044Y-123797885D01*
X68294751Y-123779451D01*
X68313185Y-123762744D01*
X68333167Y-123747924D01*
X68354506Y-123735134D01*
X68376995Y-123724497D01*
X68400419Y-123716116D01*
X68424552Y-123710071D01*
X68449161Y-123706421D01*
X68474009Y-123705200D01*
X69736991Y-123705200D01*
X69761839Y-123706421D01*
X69761839Y-123706421D01*
G37*
D20*
X69105500Y-124427700D03*
D14*
G36*
X69807539Y-136445021D02*
G01*
X69832148Y-136448671D01*
X69856281Y-136454716D01*
X69879705Y-136463097D01*
X69902194Y-136473734D01*
X69923533Y-136486524D01*
X69943515Y-136501344D01*
X69961949Y-136518051D01*
X69978656Y-136536485D01*
X69993476Y-136556467D01*
X70006266Y-136577806D01*
X70016903Y-136600295D01*
X70025284Y-136623719D01*
X70031329Y-136647852D01*
X70034979Y-136672461D01*
X70036200Y-136697309D01*
X70036200Y-137635291D01*
X70034979Y-137660139D01*
X70031329Y-137684748D01*
X70025284Y-137708881D01*
X70016903Y-137732305D01*
X70006266Y-137754794D01*
X69993476Y-137776133D01*
X69978656Y-137796115D01*
X69961949Y-137814549D01*
X69943515Y-137831256D01*
X69923533Y-137846076D01*
X69902194Y-137858866D01*
X69879705Y-137869503D01*
X69856281Y-137877884D01*
X69832148Y-137883929D01*
X69807539Y-137887579D01*
X69782691Y-137888800D01*
X68519709Y-137888800D01*
X68494861Y-137887579D01*
X68470252Y-137883929D01*
X68446119Y-137877884D01*
X68422695Y-137869503D01*
X68400206Y-137858866D01*
X68378867Y-137846076D01*
X68358885Y-137831256D01*
X68340451Y-137814549D01*
X68323744Y-137796115D01*
X68308924Y-137776133D01*
X68296134Y-137754794D01*
X68285497Y-137732305D01*
X68277116Y-137708881D01*
X68271071Y-137684748D01*
X68267421Y-137660139D01*
X68266200Y-137635291D01*
X68266200Y-136697309D01*
X68267421Y-136672461D01*
X68271071Y-136647852D01*
X68277116Y-136623719D01*
X68285497Y-136600295D01*
X68296134Y-136577806D01*
X68308924Y-136556467D01*
X68323744Y-136536485D01*
X68340451Y-136518051D01*
X68358885Y-136501344D01*
X68378867Y-136486524D01*
X68400206Y-136473734D01*
X68422695Y-136463097D01*
X68446119Y-136454716D01*
X68470252Y-136448671D01*
X68494861Y-136445021D01*
X68519709Y-136443800D01*
X69782691Y-136443800D01*
X69807539Y-136445021D01*
X69807539Y-136445021D01*
G37*
D20*
X69151200Y-137166300D03*
D14*
G36*
X69807539Y-133470021D02*
G01*
X69832148Y-133473671D01*
X69856281Y-133479716D01*
X69879705Y-133488097D01*
X69902194Y-133498734D01*
X69923533Y-133511524D01*
X69943515Y-133526344D01*
X69961949Y-133543051D01*
X69978656Y-133561485D01*
X69993476Y-133581467D01*
X70006266Y-133602806D01*
X70016903Y-133625295D01*
X70025284Y-133648719D01*
X70031329Y-133672852D01*
X70034979Y-133697461D01*
X70036200Y-133722309D01*
X70036200Y-134660291D01*
X70034979Y-134685139D01*
X70031329Y-134709748D01*
X70025284Y-134733881D01*
X70016903Y-134757305D01*
X70006266Y-134779794D01*
X69993476Y-134801133D01*
X69978656Y-134821115D01*
X69961949Y-134839549D01*
X69943515Y-134856256D01*
X69923533Y-134871076D01*
X69902194Y-134883866D01*
X69879705Y-134894503D01*
X69856281Y-134902884D01*
X69832148Y-134908929D01*
X69807539Y-134912579D01*
X69782691Y-134913800D01*
X68519709Y-134913800D01*
X68494861Y-134912579D01*
X68470252Y-134908929D01*
X68446119Y-134902884D01*
X68422695Y-134894503D01*
X68400206Y-134883866D01*
X68378867Y-134871076D01*
X68358885Y-134856256D01*
X68340451Y-134839549D01*
X68323744Y-134821115D01*
X68308924Y-134801133D01*
X68296134Y-134779794D01*
X68285497Y-134757305D01*
X68277116Y-134733881D01*
X68271071Y-134709748D01*
X68267421Y-134685139D01*
X68266200Y-134660291D01*
X68266200Y-133722309D01*
X68267421Y-133697461D01*
X68271071Y-133672852D01*
X68277116Y-133648719D01*
X68285497Y-133625295D01*
X68296134Y-133602806D01*
X68308924Y-133581467D01*
X68323744Y-133561485D01*
X68340451Y-133543051D01*
X68358885Y-133526344D01*
X68378867Y-133511524D01*
X68400206Y-133498734D01*
X68422695Y-133488097D01*
X68446119Y-133479716D01*
X68470252Y-133473671D01*
X68494861Y-133470021D01*
X68519709Y-133468800D01*
X69782691Y-133468800D01*
X69807539Y-133470021D01*
X69807539Y-133470021D01*
G37*
D20*
X69151200Y-134191300D03*
D14*
G36*
X67363583Y-123752925D02*
G01*
X67388274Y-123756587D01*
X67412486Y-123762652D01*
X67435987Y-123771061D01*
X67458551Y-123781733D01*
X67479961Y-123794565D01*
X67500009Y-123809434D01*
X67518503Y-123826197D01*
X67535266Y-123844691D01*
X67550135Y-123864739D01*
X67562967Y-123886149D01*
X67573639Y-123908713D01*
X67582048Y-123932214D01*
X67588113Y-123956426D01*
X67591775Y-123981117D01*
X67593000Y-124006047D01*
X67593000Y-124667353D01*
X67591775Y-124692283D01*
X67588113Y-124716974D01*
X67582048Y-124741186D01*
X67573639Y-124764687D01*
X67562967Y-124787251D01*
X67550135Y-124808661D01*
X67535266Y-124828709D01*
X67518503Y-124847203D01*
X67500009Y-124863966D01*
X67479961Y-124878835D01*
X67458551Y-124891667D01*
X67435987Y-124902339D01*
X67412486Y-124910748D01*
X67388274Y-124916813D01*
X67363583Y-124920475D01*
X67338653Y-124921700D01*
X66427347Y-124921700D01*
X66402417Y-124920475D01*
X66377726Y-124916813D01*
X66353514Y-124910748D01*
X66330013Y-124902339D01*
X66307449Y-124891667D01*
X66286039Y-124878835D01*
X66265991Y-124863966D01*
X66247497Y-124847203D01*
X66230734Y-124828709D01*
X66215865Y-124808661D01*
X66203033Y-124787251D01*
X66192361Y-124764687D01*
X66183952Y-124741186D01*
X66177887Y-124716974D01*
X66174225Y-124692283D01*
X66173000Y-124667353D01*
X66173000Y-124006047D01*
X66174225Y-123981117D01*
X66177887Y-123956426D01*
X66183952Y-123932214D01*
X66192361Y-123908713D01*
X66203033Y-123886149D01*
X66215865Y-123864739D01*
X66230734Y-123844691D01*
X66247497Y-123826197D01*
X66265991Y-123809434D01*
X66286039Y-123794565D01*
X66307449Y-123781733D01*
X66330013Y-123771061D01*
X66353514Y-123762652D01*
X66377726Y-123756587D01*
X66402417Y-123752925D01*
X66427347Y-123751700D01*
X67338653Y-123751700D01*
X67363583Y-123752925D01*
X67363583Y-123752925D01*
G37*
D15*
X66883000Y-124336700D03*
D14*
G36*
X67363583Y-125802925D02*
G01*
X67388274Y-125806587D01*
X67412486Y-125812652D01*
X67435987Y-125821061D01*
X67458551Y-125831733D01*
X67479961Y-125844565D01*
X67500009Y-125859434D01*
X67518503Y-125876197D01*
X67535266Y-125894691D01*
X67550135Y-125914739D01*
X67562967Y-125936149D01*
X67573639Y-125958713D01*
X67582048Y-125982214D01*
X67588113Y-126006426D01*
X67591775Y-126031117D01*
X67593000Y-126056047D01*
X67593000Y-126717353D01*
X67591775Y-126742283D01*
X67588113Y-126766974D01*
X67582048Y-126791186D01*
X67573639Y-126814687D01*
X67562967Y-126837251D01*
X67550135Y-126858661D01*
X67535266Y-126878709D01*
X67518503Y-126897203D01*
X67500009Y-126913966D01*
X67479961Y-126928835D01*
X67458551Y-126941667D01*
X67435987Y-126952339D01*
X67412486Y-126960748D01*
X67388274Y-126966813D01*
X67363583Y-126970475D01*
X67338653Y-126971700D01*
X66427347Y-126971700D01*
X66402417Y-126970475D01*
X66377726Y-126966813D01*
X66353514Y-126960748D01*
X66330013Y-126952339D01*
X66307449Y-126941667D01*
X66286039Y-126928835D01*
X66265991Y-126913966D01*
X66247497Y-126897203D01*
X66230734Y-126878709D01*
X66215865Y-126858661D01*
X66203033Y-126837251D01*
X66192361Y-126814687D01*
X66183952Y-126791186D01*
X66177887Y-126766974D01*
X66174225Y-126742283D01*
X66173000Y-126717353D01*
X66173000Y-126056047D01*
X66174225Y-126031117D01*
X66177887Y-126006426D01*
X66183952Y-125982214D01*
X66192361Y-125958713D01*
X66203033Y-125936149D01*
X66215865Y-125914739D01*
X66230734Y-125894691D01*
X66247497Y-125876197D01*
X66265991Y-125859434D01*
X66286039Y-125844565D01*
X66307449Y-125831733D01*
X66330013Y-125821061D01*
X66353514Y-125812652D01*
X66377726Y-125806587D01*
X66402417Y-125802925D01*
X66427347Y-125801700D01*
X67338653Y-125801700D01*
X67363583Y-125802925D01*
X67363583Y-125802925D01*
G37*
D15*
X66883000Y-126386700D03*
D14*
G36*
X67472783Y-135739025D02*
G01*
X67497474Y-135742687D01*
X67521686Y-135748752D01*
X67545187Y-135757161D01*
X67567751Y-135767833D01*
X67589161Y-135780665D01*
X67609209Y-135795534D01*
X67627703Y-135812297D01*
X67644466Y-135830791D01*
X67659335Y-135850839D01*
X67672167Y-135872249D01*
X67682839Y-135894813D01*
X67691248Y-135918314D01*
X67697313Y-135942526D01*
X67700975Y-135967217D01*
X67702200Y-135992147D01*
X67702200Y-136653453D01*
X67700975Y-136678383D01*
X67697313Y-136703074D01*
X67691248Y-136727286D01*
X67682839Y-136750787D01*
X67672167Y-136773351D01*
X67659335Y-136794761D01*
X67644466Y-136814809D01*
X67627703Y-136833303D01*
X67609209Y-136850066D01*
X67589161Y-136864935D01*
X67567751Y-136877767D01*
X67545187Y-136888439D01*
X67521686Y-136896848D01*
X67497474Y-136902913D01*
X67472783Y-136906575D01*
X67447853Y-136907800D01*
X66536547Y-136907800D01*
X66511617Y-136906575D01*
X66486926Y-136902913D01*
X66462714Y-136896848D01*
X66439213Y-136888439D01*
X66416649Y-136877767D01*
X66395239Y-136864935D01*
X66375191Y-136850066D01*
X66356697Y-136833303D01*
X66339934Y-136814809D01*
X66325065Y-136794761D01*
X66312233Y-136773351D01*
X66301561Y-136750787D01*
X66293152Y-136727286D01*
X66287087Y-136703074D01*
X66283425Y-136678383D01*
X66282200Y-136653453D01*
X66282200Y-135992147D01*
X66283425Y-135967217D01*
X66287087Y-135942526D01*
X66293152Y-135918314D01*
X66301561Y-135894813D01*
X66312233Y-135872249D01*
X66325065Y-135850839D01*
X66339934Y-135830791D01*
X66356697Y-135812297D01*
X66375191Y-135795534D01*
X66395239Y-135780665D01*
X66416649Y-135767833D01*
X66439213Y-135757161D01*
X66462714Y-135748752D01*
X66486926Y-135742687D01*
X66511617Y-135739025D01*
X66536547Y-135737800D01*
X67447853Y-135737800D01*
X67472783Y-135739025D01*
X67472783Y-135739025D01*
G37*
D15*
X66992200Y-136322800D03*
D14*
G36*
X67472783Y-133689025D02*
G01*
X67497474Y-133692687D01*
X67521686Y-133698752D01*
X67545187Y-133707161D01*
X67567751Y-133717833D01*
X67589161Y-133730665D01*
X67609209Y-133745534D01*
X67627703Y-133762297D01*
X67644466Y-133780791D01*
X67659335Y-133800839D01*
X67672167Y-133822249D01*
X67682839Y-133844813D01*
X67691248Y-133868314D01*
X67697313Y-133892526D01*
X67700975Y-133917217D01*
X67702200Y-133942147D01*
X67702200Y-134603453D01*
X67700975Y-134628383D01*
X67697313Y-134653074D01*
X67691248Y-134677286D01*
X67682839Y-134700787D01*
X67672167Y-134723351D01*
X67659335Y-134744761D01*
X67644466Y-134764809D01*
X67627703Y-134783303D01*
X67609209Y-134800066D01*
X67589161Y-134814935D01*
X67567751Y-134827767D01*
X67545187Y-134838439D01*
X67521686Y-134846848D01*
X67497474Y-134852913D01*
X67472783Y-134856575D01*
X67447853Y-134857800D01*
X66536547Y-134857800D01*
X66511617Y-134856575D01*
X66486926Y-134852913D01*
X66462714Y-134846848D01*
X66439213Y-134838439D01*
X66416649Y-134827767D01*
X66395239Y-134814935D01*
X66375191Y-134800066D01*
X66356697Y-134783303D01*
X66339934Y-134764809D01*
X66325065Y-134744761D01*
X66312233Y-134723351D01*
X66301561Y-134700787D01*
X66293152Y-134677286D01*
X66287087Y-134653074D01*
X66283425Y-134628383D01*
X66282200Y-134603453D01*
X66282200Y-133942147D01*
X66283425Y-133917217D01*
X66287087Y-133892526D01*
X66293152Y-133868314D01*
X66301561Y-133844813D01*
X66312233Y-133822249D01*
X66325065Y-133800839D01*
X66339934Y-133780791D01*
X66356697Y-133762297D01*
X66375191Y-133745534D01*
X66395239Y-133730665D01*
X66416649Y-133717833D01*
X66439213Y-133707161D01*
X66462714Y-133698752D01*
X66486926Y-133692687D01*
X66511617Y-133689025D01*
X66536547Y-133687800D01*
X67447853Y-133687800D01*
X67472783Y-133689025D01*
X67472783Y-133689025D01*
G37*
D15*
X66992200Y-134272800D03*
D14*
G36*
X84235383Y-126469025D02*
G01*
X84260074Y-126472687D01*
X84284286Y-126478752D01*
X84307787Y-126487161D01*
X84330351Y-126497833D01*
X84351761Y-126510665D01*
X84371809Y-126525534D01*
X84390303Y-126542297D01*
X84407066Y-126560791D01*
X84421935Y-126580839D01*
X84434767Y-126602249D01*
X84445439Y-126624813D01*
X84453848Y-126648314D01*
X84459913Y-126672526D01*
X84463575Y-126697217D01*
X84464800Y-126722147D01*
X84464800Y-127633453D01*
X84463575Y-127658383D01*
X84459913Y-127683074D01*
X84453848Y-127707286D01*
X84445439Y-127730787D01*
X84434767Y-127753351D01*
X84421935Y-127774761D01*
X84407066Y-127794809D01*
X84390303Y-127813303D01*
X84371809Y-127830066D01*
X84351761Y-127844935D01*
X84330351Y-127857767D01*
X84307787Y-127868439D01*
X84284286Y-127876848D01*
X84260074Y-127882913D01*
X84235383Y-127886575D01*
X84210453Y-127887800D01*
X83549147Y-127887800D01*
X83524217Y-127886575D01*
X83499526Y-127882913D01*
X83475314Y-127876848D01*
X83451813Y-127868439D01*
X83429249Y-127857767D01*
X83407839Y-127844935D01*
X83387791Y-127830066D01*
X83369297Y-127813303D01*
X83352534Y-127794809D01*
X83337665Y-127774761D01*
X83324833Y-127753351D01*
X83314161Y-127730787D01*
X83305752Y-127707286D01*
X83299687Y-127683074D01*
X83296025Y-127658383D01*
X83294800Y-127633453D01*
X83294800Y-126722147D01*
X83296025Y-126697217D01*
X83299687Y-126672526D01*
X83305752Y-126648314D01*
X83314161Y-126624813D01*
X83324833Y-126602249D01*
X83337665Y-126580839D01*
X83352534Y-126560791D01*
X83369297Y-126542297D01*
X83387791Y-126525534D01*
X83407839Y-126510665D01*
X83429249Y-126497833D01*
X83451813Y-126487161D01*
X83475314Y-126478752D01*
X83499526Y-126472687D01*
X83524217Y-126469025D01*
X83549147Y-126467800D01*
X84210453Y-126467800D01*
X84235383Y-126469025D01*
X84235383Y-126469025D01*
G37*
D15*
X83879800Y-127177800D03*
D14*
G36*
X82185383Y-126469025D02*
G01*
X82210074Y-126472687D01*
X82234286Y-126478752D01*
X82257787Y-126487161D01*
X82280351Y-126497833D01*
X82301761Y-126510665D01*
X82321809Y-126525534D01*
X82340303Y-126542297D01*
X82357066Y-126560791D01*
X82371935Y-126580839D01*
X82384767Y-126602249D01*
X82395439Y-126624813D01*
X82403848Y-126648314D01*
X82409913Y-126672526D01*
X82413575Y-126697217D01*
X82414800Y-126722147D01*
X82414800Y-127633453D01*
X82413575Y-127658383D01*
X82409913Y-127683074D01*
X82403848Y-127707286D01*
X82395439Y-127730787D01*
X82384767Y-127753351D01*
X82371935Y-127774761D01*
X82357066Y-127794809D01*
X82340303Y-127813303D01*
X82321809Y-127830066D01*
X82301761Y-127844935D01*
X82280351Y-127857767D01*
X82257787Y-127868439D01*
X82234286Y-127876848D01*
X82210074Y-127882913D01*
X82185383Y-127886575D01*
X82160453Y-127887800D01*
X81499147Y-127887800D01*
X81474217Y-127886575D01*
X81449526Y-127882913D01*
X81425314Y-127876848D01*
X81401813Y-127868439D01*
X81379249Y-127857767D01*
X81357839Y-127844935D01*
X81337791Y-127830066D01*
X81319297Y-127813303D01*
X81302534Y-127794809D01*
X81287665Y-127774761D01*
X81274833Y-127753351D01*
X81264161Y-127730787D01*
X81255752Y-127707286D01*
X81249687Y-127683074D01*
X81246025Y-127658383D01*
X81244800Y-127633453D01*
X81244800Y-126722147D01*
X81246025Y-126697217D01*
X81249687Y-126672526D01*
X81255752Y-126648314D01*
X81264161Y-126624813D01*
X81274833Y-126602249D01*
X81287665Y-126580839D01*
X81302534Y-126560791D01*
X81319297Y-126542297D01*
X81337791Y-126525534D01*
X81357839Y-126510665D01*
X81379249Y-126497833D01*
X81401813Y-126487161D01*
X81425314Y-126478752D01*
X81449526Y-126472687D01*
X81474217Y-126469025D01*
X81499147Y-126467800D01*
X82160453Y-126467800D01*
X82185383Y-126469025D01*
X82185383Y-126469025D01*
G37*
D15*
X81829800Y-127177800D03*
D14*
G36*
X82185383Y-124437025D02*
G01*
X82210074Y-124440687D01*
X82234286Y-124446752D01*
X82257787Y-124455161D01*
X82280351Y-124465833D01*
X82301761Y-124478665D01*
X82321809Y-124493534D01*
X82340303Y-124510297D01*
X82357066Y-124528791D01*
X82371935Y-124548839D01*
X82384767Y-124570249D01*
X82395439Y-124592813D01*
X82403848Y-124616314D01*
X82409913Y-124640526D01*
X82413575Y-124665217D01*
X82414800Y-124690147D01*
X82414800Y-125601453D01*
X82413575Y-125626383D01*
X82409913Y-125651074D01*
X82403848Y-125675286D01*
X82395439Y-125698787D01*
X82384767Y-125721351D01*
X82371935Y-125742761D01*
X82357066Y-125762809D01*
X82340303Y-125781303D01*
X82321809Y-125798066D01*
X82301761Y-125812935D01*
X82280351Y-125825767D01*
X82257787Y-125836439D01*
X82234286Y-125844848D01*
X82210074Y-125850913D01*
X82185383Y-125854575D01*
X82160453Y-125855800D01*
X81499147Y-125855800D01*
X81474217Y-125854575D01*
X81449526Y-125850913D01*
X81425314Y-125844848D01*
X81401813Y-125836439D01*
X81379249Y-125825767D01*
X81357839Y-125812935D01*
X81337791Y-125798066D01*
X81319297Y-125781303D01*
X81302534Y-125762809D01*
X81287665Y-125742761D01*
X81274833Y-125721351D01*
X81264161Y-125698787D01*
X81255752Y-125675286D01*
X81249687Y-125651074D01*
X81246025Y-125626383D01*
X81244800Y-125601453D01*
X81244800Y-124690147D01*
X81246025Y-124665217D01*
X81249687Y-124640526D01*
X81255752Y-124616314D01*
X81264161Y-124592813D01*
X81274833Y-124570249D01*
X81287665Y-124548839D01*
X81302534Y-124528791D01*
X81319297Y-124510297D01*
X81337791Y-124493534D01*
X81357839Y-124478665D01*
X81379249Y-124465833D01*
X81401813Y-124455161D01*
X81425314Y-124446752D01*
X81449526Y-124440687D01*
X81474217Y-124437025D01*
X81499147Y-124435800D01*
X82160453Y-124435800D01*
X82185383Y-124437025D01*
X82185383Y-124437025D01*
G37*
D15*
X81829800Y-125145800D03*
D14*
G36*
X84235383Y-124437025D02*
G01*
X84260074Y-124440687D01*
X84284286Y-124446752D01*
X84307787Y-124455161D01*
X84330351Y-124465833D01*
X84351761Y-124478665D01*
X84371809Y-124493534D01*
X84390303Y-124510297D01*
X84407066Y-124528791D01*
X84421935Y-124548839D01*
X84434767Y-124570249D01*
X84445439Y-124592813D01*
X84453848Y-124616314D01*
X84459913Y-124640526D01*
X84463575Y-124665217D01*
X84464800Y-124690147D01*
X84464800Y-125601453D01*
X84463575Y-125626383D01*
X84459913Y-125651074D01*
X84453848Y-125675286D01*
X84445439Y-125698787D01*
X84434767Y-125721351D01*
X84421935Y-125742761D01*
X84407066Y-125762809D01*
X84390303Y-125781303D01*
X84371809Y-125798066D01*
X84351761Y-125812935D01*
X84330351Y-125825767D01*
X84307787Y-125836439D01*
X84284286Y-125844848D01*
X84260074Y-125850913D01*
X84235383Y-125854575D01*
X84210453Y-125855800D01*
X83549147Y-125855800D01*
X83524217Y-125854575D01*
X83499526Y-125850913D01*
X83475314Y-125844848D01*
X83451813Y-125836439D01*
X83429249Y-125825767D01*
X83407839Y-125812935D01*
X83387791Y-125798066D01*
X83369297Y-125781303D01*
X83352534Y-125762809D01*
X83337665Y-125742761D01*
X83324833Y-125721351D01*
X83314161Y-125698787D01*
X83305752Y-125675286D01*
X83299687Y-125651074D01*
X83296025Y-125626383D01*
X83294800Y-125601453D01*
X83294800Y-124690147D01*
X83296025Y-124665217D01*
X83299687Y-124640526D01*
X83305752Y-124616314D01*
X83314161Y-124592813D01*
X83324833Y-124570249D01*
X83337665Y-124548839D01*
X83352534Y-124528791D01*
X83369297Y-124510297D01*
X83387791Y-124493534D01*
X83407839Y-124478665D01*
X83429249Y-124465833D01*
X83451813Y-124455161D01*
X83475314Y-124446752D01*
X83499526Y-124440687D01*
X83524217Y-124437025D01*
X83549147Y-124435800D01*
X84210453Y-124435800D01*
X84235383Y-124437025D01*
X84235383Y-124437025D01*
G37*
D15*
X83879800Y-125145800D03*
D14*
G36*
X82185383Y-122405025D02*
G01*
X82210074Y-122408687D01*
X82234286Y-122414752D01*
X82257787Y-122423161D01*
X82280351Y-122433833D01*
X82301761Y-122446665D01*
X82321809Y-122461534D01*
X82340303Y-122478297D01*
X82357066Y-122496791D01*
X82371935Y-122516839D01*
X82384767Y-122538249D01*
X82395439Y-122560813D01*
X82403848Y-122584314D01*
X82409913Y-122608526D01*
X82413575Y-122633217D01*
X82414800Y-122658147D01*
X82414800Y-123569453D01*
X82413575Y-123594383D01*
X82409913Y-123619074D01*
X82403848Y-123643286D01*
X82395439Y-123666787D01*
X82384767Y-123689351D01*
X82371935Y-123710761D01*
X82357066Y-123730809D01*
X82340303Y-123749303D01*
X82321809Y-123766066D01*
X82301761Y-123780935D01*
X82280351Y-123793767D01*
X82257787Y-123804439D01*
X82234286Y-123812848D01*
X82210074Y-123818913D01*
X82185383Y-123822575D01*
X82160453Y-123823800D01*
X81499147Y-123823800D01*
X81474217Y-123822575D01*
X81449526Y-123818913D01*
X81425314Y-123812848D01*
X81401813Y-123804439D01*
X81379249Y-123793767D01*
X81357839Y-123780935D01*
X81337791Y-123766066D01*
X81319297Y-123749303D01*
X81302534Y-123730809D01*
X81287665Y-123710761D01*
X81274833Y-123689351D01*
X81264161Y-123666787D01*
X81255752Y-123643286D01*
X81249687Y-123619074D01*
X81246025Y-123594383D01*
X81244800Y-123569453D01*
X81244800Y-122658147D01*
X81246025Y-122633217D01*
X81249687Y-122608526D01*
X81255752Y-122584314D01*
X81264161Y-122560813D01*
X81274833Y-122538249D01*
X81287665Y-122516839D01*
X81302534Y-122496791D01*
X81319297Y-122478297D01*
X81337791Y-122461534D01*
X81357839Y-122446665D01*
X81379249Y-122433833D01*
X81401813Y-122423161D01*
X81425314Y-122414752D01*
X81449526Y-122408687D01*
X81474217Y-122405025D01*
X81499147Y-122403800D01*
X82160453Y-122403800D01*
X82185383Y-122405025D01*
X82185383Y-122405025D01*
G37*
D15*
X81829800Y-123113800D03*
D14*
G36*
X84235383Y-122405025D02*
G01*
X84260074Y-122408687D01*
X84284286Y-122414752D01*
X84307787Y-122423161D01*
X84330351Y-122433833D01*
X84351761Y-122446665D01*
X84371809Y-122461534D01*
X84390303Y-122478297D01*
X84407066Y-122496791D01*
X84421935Y-122516839D01*
X84434767Y-122538249D01*
X84445439Y-122560813D01*
X84453848Y-122584314D01*
X84459913Y-122608526D01*
X84463575Y-122633217D01*
X84464800Y-122658147D01*
X84464800Y-123569453D01*
X84463575Y-123594383D01*
X84459913Y-123619074D01*
X84453848Y-123643286D01*
X84445439Y-123666787D01*
X84434767Y-123689351D01*
X84421935Y-123710761D01*
X84407066Y-123730809D01*
X84390303Y-123749303D01*
X84371809Y-123766066D01*
X84351761Y-123780935D01*
X84330351Y-123793767D01*
X84307787Y-123804439D01*
X84284286Y-123812848D01*
X84260074Y-123818913D01*
X84235383Y-123822575D01*
X84210453Y-123823800D01*
X83549147Y-123823800D01*
X83524217Y-123822575D01*
X83499526Y-123818913D01*
X83475314Y-123812848D01*
X83451813Y-123804439D01*
X83429249Y-123793767D01*
X83407839Y-123780935D01*
X83387791Y-123766066D01*
X83369297Y-123749303D01*
X83352534Y-123730809D01*
X83337665Y-123710761D01*
X83324833Y-123689351D01*
X83314161Y-123666787D01*
X83305752Y-123643286D01*
X83299687Y-123619074D01*
X83296025Y-123594383D01*
X83294800Y-123569453D01*
X83294800Y-122658147D01*
X83296025Y-122633217D01*
X83299687Y-122608526D01*
X83305752Y-122584314D01*
X83314161Y-122560813D01*
X83324833Y-122538249D01*
X83337665Y-122516839D01*
X83352534Y-122496791D01*
X83369297Y-122478297D01*
X83387791Y-122461534D01*
X83407839Y-122446665D01*
X83429249Y-122433833D01*
X83451813Y-122423161D01*
X83475314Y-122414752D01*
X83499526Y-122408687D01*
X83524217Y-122405025D01*
X83549147Y-122403800D01*
X84210453Y-122403800D01*
X84235383Y-122405025D01*
X84235383Y-122405025D01*
G37*
D15*
X83879800Y-123113800D03*
D14*
G36*
X84235383Y-120373025D02*
G01*
X84260074Y-120376687D01*
X84284286Y-120382752D01*
X84307787Y-120391161D01*
X84330351Y-120401833D01*
X84351761Y-120414665D01*
X84371809Y-120429534D01*
X84390303Y-120446297D01*
X84407066Y-120464791D01*
X84421935Y-120484839D01*
X84434767Y-120506249D01*
X84445439Y-120528813D01*
X84453848Y-120552314D01*
X84459913Y-120576526D01*
X84463575Y-120601217D01*
X84464800Y-120626147D01*
X84464800Y-121537453D01*
X84463575Y-121562383D01*
X84459913Y-121587074D01*
X84453848Y-121611286D01*
X84445439Y-121634787D01*
X84434767Y-121657351D01*
X84421935Y-121678761D01*
X84407066Y-121698809D01*
X84390303Y-121717303D01*
X84371809Y-121734066D01*
X84351761Y-121748935D01*
X84330351Y-121761767D01*
X84307787Y-121772439D01*
X84284286Y-121780848D01*
X84260074Y-121786913D01*
X84235383Y-121790575D01*
X84210453Y-121791800D01*
X83549147Y-121791800D01*
X83524217Y-121790575D01*
X83499526Y-121786913D01*
X83475314Y-121780848D01*
X83451813Y-121772439D01*
X83429249Y-121761767D01*
X83407839Y-121748935D01*
X83387791Y-121734066D01*
X83369297Y-121717303D01*
X83352534Y-121698809D01*
X83337665Y-121678761D01*
X83324833Y-121657351D01*
X83314161Y-121634787D01*
X83305752Y-121611286D01*
X83299687Y-121587074D01*
X83296025Y-121562383D01*
X83294800Y-121537453D01*
X83294800Y-120626147D01*
X83296025Y-120601217D01*
X83299687Y-120576526D01*
X83305752Y-120552314D01*
X83314161Y-120528813D01*
X83324833Y-120506249D01*
X83337665Y-120484839D01*
X83352534Y-120464791D01*
X83369297Y-120446297D01*
X83387791Y-120429534D01*
X83407839Y-120414665D01*
X83429249Y-120401833D01*
X83451813Y-120391161D01*
X83475314Y-120382752D01*
X83499526Y-120376687D01*
X83524217Y-120373025D01*
X83549147Y-120371800D01*
X84210453Y-120371800D01*
X84235383Y-120373025D01*
X84235383Y-120373025D01*
G37*
D15*
X83879800Y-121081800D03*
D14*
G36*
X82185383Y-120373025D02*
G01*
X82210074Y-120376687D01*
X82234286Y-120382752D01*
X82257787Y-120391161D01*
X82280351Y-120401833D01*
X82301761Y-120414665D01*
X82321809Y-120429534D01*
X82340303Y-120446297D01*
X82357066Y-120464791D01*
X82371935Y-120484839D01*
X82384767Y-120506249D01*
X82395439Y-120528813D01*
X82403848Y-120552314D01*
X82409913Y-120576526D01*
X82413575Y-120601217D01*
X82414800Y-120626147D01*
X82414800Y-121537453D01*
X82413575Y-121562383D01*
X82409913Y-121587074D01*
X82403848Y-121611286D01*
X82395439Y-121634787D01*
X82384767Y-121657351D01*
X82371935Y-121678761D01*
X82357066Y-121698809D01*
X82340303Y-121717303D01*
X82321809Y-121734066D01*
X82301761Y-121748935D01*
X82280351Y-121761767D01*
X82257787Y-121772439D01*
X82234286Y-121780848D01*
X82210074Y-121786913D01*
X82185383Y-121790575D01*
X82160453Y-121791800D01*
X81499147Y-121791800D01*
X81474217Y-121790575D01*
X81449526Y-121786913D01*
X81425314Y-121780848D01*
X81401813Y-121772439D01*
X81379249Y-121761767D01*
X81357839Y-121748935D01*
X81337791Y-121734066D01*
X81319297Y-121717303D01*
X81302534Y-121698809D01*
X81287665Y-121678761D01*
X81274833Y-121657351D01*
X81264161Y-121634787D01*
X81255752Y-121611286D01*
X81249687Y-121587074D01*
X81246025Y-121562383D01*
X81244800Y-121537453D01*
X81244800Y-120626147D01*
X81246025Y-120601217D01*
X81249687Y-120576526D01*
X81255752Y-120552314D01*
X81264161Y-120528813D01*
X81274833Y-120506249D01*
X81287665Y-120484839D01*
X81302534Y-120464791D01*
X81319297Y-120446297D01*
X81337791Y-120429534D01*
X81357839Y-120414665D01*
X81379249Y-120401833D01*
X81401813Y-120391161D01*
X81425314Y-120382752D01*
X81449526Y-120376687D01*
X81474217Y-120373025D01*
X81499147Y-120371800D01*
X82160453Y-120371800D01*
X82185383Y-120373025D01*
X82185383Y-120373025D01*
G37*
D15*
X81829800Y-121081800D03*
D14*
G36*
X77713383Y-120923025D02*
G01*
X77738074Y-120926687D01*
X77762286Y-120932752D01*
X77785787Y-120941161D01*
X77808351Y-120951833D01*
X77829761Y-120964665D01*
X77849809Y-120979534D01*
X77868303Y-120996297D01*
X77885066Y-121014791D01*
X77899935Y-121034839D01*
X77912767Y-121056249D01*
X77923439Y-121078813D01*
X77931848Y-121102314D01*
X77937913Y-121126526D01*
X77941575Y-121151217D01*
X77942800Y-121176147D01*
X77942800Y-122087453D01*
X77941575Y-122112383D01*
X77937913Y-122137074D01*
X77931848Y-122161286D01*
X77923439Y-122184787D01*
X77912767Y-122207351D01*
X77899935Y-122228761D01*
X77885066Y-122248809D01*
X77868303Y-122267303D01*
X77849809Y-122284066D01*
X77829761Y-122298935D01*
X77808351Y-122311767D01*
X77785787Y-122322439D01*
X77762286Y-122330848D01*
X77738074Y-122336913D01*
X77713383Y-122340575D01*
X77688453Y-122341800D01*
X77027147Y-122341800D01*
X77002217Y-122340575D01*
X76977526Y-122336913D01*
X76953314Y-122330848D01*
X76929813Y-122322439D01*
X76907249Y-122311767D01*
X76885839Y-122298935D01*
X76865791Y-122284066D01*
X76847297Y-122267303D01*
X76830534Y-122248809D01*
X76815665Y-122228761D01*
X76802833Y-122207351D01*
X76792161Y-122184787D01*
X76783752Y-122161286D01*
X76777687Y-122137074D01*
X76774025Y-122112383D01*
X76772800Y-122087453D01*
X76772800Y-121176147D01*
X76774025Y-121151217D01*
X76777687Y-121126526D01*
X76783752Y-121102314D01*
X76792161Y-121078813D01*
X76802833Y-121056249D01*
X76815665Y-121034839D01*
X76830534Y-121014791D01*
X76847297Y-120996297D01*
X76865791Y-120979534D01*
X76885839Y-120964665D01*
X76907249Y-120951833D01*
X76929813Y-120941161D01*
X76953314Y-120932752D01*
X76977526Y-120926687D01*
X77002217Y-120923025D01*
X77027147Y-120921800D01*
X77688453Y-120921800D01*
X77713383Y-120923025D01*
X77713383Y-120923025D01*
G37*
D15*
X77357800Y-121631800D03*
D14*
G36*
X79763383Y-120923025D02*
G01*
X79788074Y-120926687D01*
X79812286Y-120932752D01*
X79835787Y-120941161D01*
X79858351Y-120951833D01*
X79879761Y-120964665D01*
X79899809Y-120979534D01*
X79918303Y-120996297D01*
X79935066Y-121014791D01*
X79949935Y-121034839D01*
X79962767Y-121056249D01*
X79973439Y-121078813D01*
X79981848Y-121102314D01*
X79987913Y-121126526D01*
X79991575Y-121151217D01*
X79992800Y-121176147D01*
X79992800Y-122087453D01*
X79991575Y-122112383D01*
X79987913Y-122137074D01*
X79981848Y-122161286D01*
X79973439Y-122184787D01*
X79962767Y-122207351D01*
X79949935Y-122228761D01*
X79935066Y-122248809D01*
X79918303Y-122267303D01*
X79899809Y-122284066D01*
X79879761Y-122298935D01*
X79858351Y-122311767D01*
X79835787Y-122322439D01*
X79812286Y-122330848D01*
X79788074Y-122336913D01*
X79763383Y-122340575D01*
X79738453Y-122341800D01*
X79077147Y-122341800D01*
X79052217Y-122340575D01*
X79027526Y-122336913D01*
X79003314Y-122330848D01*
X78979813Y-122322439D01*
X78957249Y-122311767D01*
X78935839Y-122298935D01*
X78915791Y-122284066D01*
X78897297Y-122267303D01*
X78880534Y-122248809D01*
X78865665Y-122228761D01*
X78852833Y-122207351D01*
X78842161Y-122184787D01*
X78833752Y-122161286D01*
X78827687Y-122137074D01*
X78824025Y-122112383D01*
X78822800Y-122087453D01*
X78822800Y-121176147D01*
X78824025Y-121151217D01*
X78827687Y-121126526D01*
X78833752Y-121102314D01*
X78842161Y-121078813D01*
X78852833Y-121056249D01*
X78865665Y-121034839D01*
X78880534Y-121014791D01*
X78897297Y-120996297D01*
X78915791Y-120979534D01*
X78935839Y-120964665D01*
X78957249Y-120951833D01*
X78979813Y-120941161D01*
X79003314Y-120932752D01*
X79027526Y-120926687D01*
X79052217Y-120923025D01*
X79077147Y-120921800D01*
X79738453Y-120921800D01*
X79763383Y-120923025D01*
X79763383Y-120923025D01*
G37*
D15*
X79407800Y-121631800D03*
D14*
G36*
X79663383Y-123623025D02*
G01*
X79688074Y-123626687D01*
X79712286Y-123632752D01*
X79735787Y-123641161D01*
X79758351Y-123651833D01*
X79779761Y-123664665D01*
X79799809Y-123679534D01*
X79818303Y-123696297D01*
X79835066Y-123714791D01*
X79849935Y-123734839D01*
X79862767Y-123756249D01*
X79873439Y-123778813D01*
X79881848Y-123802314D01*
X79887913Y-123826526D01*
X79891575Y-123851217D01*
X79892800Y-123876147D01*
X79892800Y-124787453D01*
X79891575Y-124812383D01*
X79887913Y-124837074D01*
X79881848Y-124861286D01*
X79873439Y-124884787D01*
X79862767Y-124907351D01*
X79849935Y-124928761D01*
X79835066Y-124948809D01*
X79818303Y-124967303D01*
X79799809Y-124984066D01*
X79779761Y-124998935D01*
X79758351Y-125011767D01*
X79735787Y-125022439D01*
X79712286Y-125030848D01*
X79688074Y-125036913D01*
X79663383Y-125040575D01*
X79638453Y-125041800D01*
X78977147Y-125041800D01*
X78952217Y-125040575D01*
X78927526Y-125036913D01*
X78903314Y-125030848D01*
X78879813Y-125022439D01*
X78857249Y-125011767D01*
X78835839Y-124998935D01*
X78815791Y-124984066D01*
X78797297Y-124967303D01*
X78780534Y-124948809D01*
X78765665Y-124928761D01*
X78752833Y-124907351D01*
X78742161Y-124884787D01*
X78733752Y-124861286D01*
X78727687Y-124837074D01*
X78724025Y-124812383D01*
X78722800Y-124787453D01*
X78722800Y-123876147D01*
X78724025Y-123851217D01*
X78727687Y-123826526D01*
X78733752Y-123802314D01*
X78742161Y-123778813D01*
X78752833Y-123756249D01*
X78765665Y-123734839D01*
X78780534Y-123714791D01*
X78797297Y-123696297D01*
X78815791Y-123679534D01*
X78835839Y-123664665D01*
X78857249Y-123651833D01*
X78879813Y-123641161D01*
X78903314Y-123632752D01*
X78927526Y-123626687D01*
X78952217Y-123623025D01*
X78977147Y-123621800D01*
X79638453Y-123621800D01*
X79663383Y-123623025D01*
X79663383Y-123623025D01*
G37*
D15*
X79307800Y-124331800D03*
D14*
G36*
X77613383Y-123623025D02*
G01*
X77638074Y-123626687D01*
X77662286Y-123632752D01*
X77685787Y-123641161D01*
X77708351Y-123651833D01*
X77729761Y-123664665D01*
X77749809Y-123679534D01*
X77768303Y-123696297D01*
X77785066Y-123714791D01*
X77799935Y-123734839D01*
X77812767Y-123756249D01*
X77823439Y-123778813D01*
X77831848Y-123802314D01*
X77837913Y-123826526D01*
X77841575Y-123851217D01*
X77842800Y-123876147D01*
X77842800Y-124787453D01*
X77841575Y-124812383D01*
X77837913Y-124837074D01*
X77831848Y-124861286D01*
X77823439Y-124884787D01*
X77812767Y-124907351D01*
X77799935Y-124928761D01*
X77785066Y-124948809D01*
X77768303Y-124967303D01*
X77749809Y-124984066D01*
X77729761Y-124998935D01*
X77708351Y-125011767D01*
X77685787Y-125022439D01*
X77662286Y-125030848D01*
X77638074Y-125036913D01*
X77613383Y-125040575D01*
X77588453Y-125041800D01*
X76927147Y-125041800D01*
X76902217Y-125040575D01*
X76877526Y-125036913D01*
X76853314Y-125030848D01*
X76829813Y-125022439D01*
X76807249Y-125011767D01*
X76785839Y-124998935D01*
X76765791Y-124984066D01*
X76747297Y-124967303D01*
X76730534Y-124948809D01*
X76715665Y-124928761D01*
X76702833Y-124907351D01*
X76692161Y-124884787D01*
X76683752Y-124861286D01*
X76677687Y-124837074D01*
X76674025Y-124812383D01*
X76672800Y-124787453D01*
X76672800Y-123876147D01*
X76674025Y-123851217D01*
X76677687Y-123826526D01*
X76683752Y-123802314D01*
X76692161Y-123778813D01*
X76702833Y-123756249D01*
X76715665Y-123734839D01*
X76730534Y-123714791D01*
X76747297Y-123696297D01*
X76765791Y-123679534D01*
X76785839Y-123664665D01*
X76807249Y-123651833D01*
X76829813Y-123641161D01*
X76853314Y-123632752D01*
X76877526Y-123626687D01*
X76902217Y-123623025D01*
X76927147Y-123621800D01*
X77588453Y-123621800D01*
X77613383Y-123623025D01*
X77613383Y-123623025D01*
G37*
D15*
X77257800Y-124331800D03*
D14*
G36*
X79663383Y-126469025D02*
G01*
X79688074Y-126472687D01*
X79712286Y-126478752D01*
X79735787Y-126487161D01*
X79758351Y-126497833D01*
X79779761Y-126510665D01*
X79799809Y-126525534D01*
X79818303Y-126542297D01*
X79835066Y-126560791D01*
X79849935Y-126580839D01*
X79862767Y-126602249D01*
X79873439Y-126624813D01*
X79881848Y-126648314D01*
X79887913Y-126672526D01*
X79891575Y-126697217D01*
X79892800Y-126722147D01*
X79892800Y-127633453D01*
X79891575Y-127658383D01*
X79887913Y-127683074D01*
X79881848Y-127707286D01*
X79873439Y-127730787D01*
X79862767Y-127753351D01*
X79849935Y-127774761D01*
X79835066Y-127794809D01*
X79818303Y-127813303D01*
X79799809Y-127830066D01*
X79779761Y-127844935D01*
X79758351Y-127857767D01*
X79735787Y-127868439D01*
X79712286Y-127876848D01*
X79688074Y-127882913D01*
X79663383Y-127886575D01*
X79638453Y-127887800D01*
X78977147Y-127887800D01*
X78952217Y-127886575D01*
X78927526Y-127882913D01*
X78903314Y-127876848D01*
X78879813Y-127868439D01*
X78857249Y-127857767D01*
X78835839Y-127844935D01*
X78815791Y-127830066D01*
X78797297Y-127813303D01*
X78780534Y-127794809D01*
X78765665Y-127774761D01*
X78752833Y-127753351D01*
X78742161Y-127730787D01*
X78733752Y-127707286D01*
X78727687Y-127683074D01*
X78724025Y-127658383D01*
X78722800Y-127633453D01*
X78722800Y-126722147D01*
X78724025Y-126697217D01*
X78727687Y-126672526D01*
X78733752Y-126648314D01*
X78742161Y-126624813D01*
X78752833Y-126602249D01*
X78765665Y-126580839D01*
X78780534Y-126560791D01*
X78797297Y-126542297D01*
X78815791Y-126525534D01*
X78835839Y-126510665D01*
X78857249Y-126497833D01*
X78879813Y-126487161D01*
X78903314Y-126478752D01*
X78927526Y-126472687D01*
X78952217Y-126469025D01*
X78977147Y-126467800D01*
X79638453Y-126467800D01*
X79663383Y-126469025D01*
X79663383Y-126469025D01*
G37*
D15*
X79307800Y-127177800D03*
D14*
G36*
X77613383Y-126469025D02*
G01*
X77638074Y-126472687D01*
X77662286Y-126478752D01*
X77685787Y-126487161D01*
X77708351Y-126497833D01*
X77729761Y-126510665D01*
X77749809Y-126525534D01*
X77768303Y-126542297D01*
X77785066Y-126560791D01*
X77799935Y-126580839D01*
X77812767Y-126602249D01*
X77823439Y-126624813D01*
X77831848Y-126648314D01*
X77837913Y-126672526D01*
X77841575Y-126697217D01*
X77842800Y-126722147D01*
X77842800Y-127633453D01*
X77841575Y-127658383D01*
X77837913Y-127683074D01*
X77831848Y-127707286D01*
X77823439Y-127730787D01*
X77812767Y-127753351D01*
X77799935Y-127774761D01*
X77785066Y-127794809D01*
X77768303Y-127813303D01*
X77749809Y-127830066D01*
X77729761Y-127844935D01*
X77708351Y-127857767D01*
X77685787Y-127868439D01*
X77662286Y-127876848D01*
X77638074Y-127882913D01*
X77613383Y-127886575D01*
X77588453Y-127887800D01*
X76927147Y-127887800D01*
X76902217Y-127886575D01*
X76877526Y-127882913D01*
X76853314Y-127876848D01*
X76829813Y-127868439D01*
X76807249Y-127857767D01*
X76785839Y-127844935D01*
X76765791Y-127830066D01*
X76747297Y-127813303D01*
X76730534Y-127794809D01*
X76715665Y-127774761D01*
X76702833Y-127753351D01*
X76692161Y-127730787D01*
X76683752Y-127707286D01*
X76677687Y-127683074D01*
X76674025Y-127658383D01*
X76672800Y-127633453D01*
X76672800Y-126722147D01*
X76674025Y-126697217D01*
X76677687Y-126672526D01*
X76683752Y-126648314D01*
X76692161Y-126624813D01*
X76702833Y-126602249D01*
X76715665Y-126580839D01*
X76730534Y-126560791D01*
X76747297Y-126542297D01*
X76765791Y-126525534D01*
X76785839Y-126510665D01*
X76807249Y-126497833D01*
X76829813Y-126487161D01*
X76853314Y-126478752D01*
X76877526Y-126472687D01*
X76902217Y-126469025D01*
X76927147Y-126467800D01*
X77588453Y-126467800D01*
X77613383Y-126469025D01*
X77613383Y-126469025D01*
G37*
D15*
X77257800Y-127177800D03*
D18*
X68540000Y-118960000D03*
X68540000Y-93960000D03*
D17*
X66000000Y-102305000D03*
X66000000Y-105075000D03*
X66000000Y-107845000D03*
X66000000Y-110615000D03*
X68840000Y-100920000D03*
X68840000Y-103690000D03*
X68840000Y-106460000D03*
X68840000Y-109230000D03*
D16*
X68840000Y-112000000D03*
D14*
G36*
X82418983Y-96946225D02*
G01*
X82443674Y-96949887D01*
X82467886Y-96955952D01*
X82491387Y-96964361D01*
X82513951Y-96975033D01*
X82535361Y-96987865D01*
X82555409Y-97002734D01*
X82573903Y-97019497D01*
X82590666Y-97037991D01*
X82605535Y-97058039D01*
X82618367Y-97079449D01*
X82629039Y-97102013D01*
X82637448Y-97125514D01*
X82643513Y-97149726D01*
X82647175Y-97174417D01*
X82648400Y-97199347D01*
X82648400Y-98110653D01*
X82647175Y-98135583D01*
X82643513Y-98160274D01*
X82637448Y-98184486D01*
X82629039Y-98207987D01*
X82618367Y-98230551D01*
X82605535Y-98251961D01*
X82590666Y-98272009D01*
X82573903Y-98290503D01*
X82555409Y-98307266D01*
X82535361Y-98322135D01*
X82513951Y-98334967D01*
X82491387Y-98345639D01*
X82467886Y-98354048D01*
X82443674Y-98360113D01*
X82418983Y-98363775D01*
X82394053Y-98365000D01*
X81732747Y-98365000D01*
X81707817Y-98363775D01*
X81683126Y-98360113D01*
X81658914Y-98354048D01*
X81635413Y-98345639D01*
X81612849Y-98334967D01*
X81591439Y-98322135D01*
X81571391Y-98307266D01*
X81552897Y-98290503D01*
X81536134Y-98272009D01*
X81521265Y-98251961D01*
X81508433Y-98230551D01*
X81497761Y-98207987D01*
X81489352Y-98184486D01*
X81483287Y-98160274D01*
X81479625Y-98135583D01*
X81478400Y-98110653D01*
X81478400Y-97199347D01*
X81479625Y-97174417D01*
X81483287Y-97149726D01*
X81489352Y-97125514D01*
X81497761Y-97102013D01*
X81508433Y-97079449D01*
X81521265Y-97058039D01*
X81536134Y-97037991D01*
X81552897Y-97019497D01*
X81571391Y-97002734D01*
X81591439Y-96987865D01*
X81612849Y-96975033D01*
X81635413Y-96964361D01*
X81658914Y-96955952D01*
X81683126Y-96949887D01*
X81707817Y-96946225D01*
X81732747Y-96945000D01*
X82394053Y-96945000D01*
X82418983Y-96946225D01*
X82418983Y-96946225D01*
G37*
D15*
X82063400Y-97655000D03*
D14*
G36*
X80368983Y-96946225D02*
G01*
X80393674Y-96949887D01*
X80417886Y-96955952D01*
X80441387Y-96964361D01*
X80463951Y-96975033D01*
X80485361Y-96987865D01*
X80505409Y-97002734D01*
X80523903Y-97019497D01*
X80540666Y-97037991D01*
X80555535Y-97058039D01*
X80568367Y-97079449D01*
X80579039Y-97102013D01*
X80587448Y-97125514D01*
X80593513Y-97149726D01*
X80597175Y-97174417D01*
X80598400Y-97199347D01*
X80598400Y-98110653D01*
X80597175Y-98135583D01*
X80593513Y-98160274D01*
X80587448Y-98184486D01*
X80579039Y-98207987D01*
X80568367Y-98230551D01*
X80555535Y-98251961D01*
X80540666Y-98272009D01*
X80523903Y-98290503D01*
X80505409Y-98307266D01*
X80485361Y-98322135D01*
X80463951Y-98334967D01*
X80441387Y-98345639D01*
X80417886Y-98354048D01*
X80393674Y-98360113D01*
X80368983Y-98363775D01*
X80344053Y-98365000D01*
X79682747Y-98365000D01*
X79657817Y-98363775D01*
X79633126Y-98360113D01*
X79608914Y-98354048D01*
X79585413Y-98345639D01*
X79562849Y-98334967D01*
X79541439Y-98322135D01*
X79521391Y-98307266D01*
X79502897Y-98290503D01*
X79486134Y-98272009D01*
X79471265Y-98251961D01*
X79458433Y-98230551D01*
X79447761Y-98207987D01*
X79439352Y-98184486D01*
X79433287Y-98160274D01*
X79429625Y-98135583D01*
X79428400Y-98110653D01*
X79428400Y-97199347D01*
X79429625Y-97174417D01*
X79433287Y-97149726D01*
X79439352Y-97125514D01*
X79447761Y-97102013D01*
X79458433Y-97079449D01*
X79471265Y-97058039D01*
X79486134Y-97037991D01*
X79502897Y-97019497D01*
X79521391Y-97002734D01*
X79541439Y-96987865D01*
X79562849Y-96975033D01*
X79585413Y-96964361D01*
X79608914Y-96955952D01*
X79633126Y-96949887D01*
X79657817Y-96946225D01*
X79682747Y-96945000D01*
X80344053Y-96945000D01*
X80368983Y-96946225D01*
X80368983Y-96946225D01*
G37*
D15*
X80013400Y-97655000D03*
D14*
G36*
X83527739Y-94612221D02*
G01*
X83552348Y-94615871D01*
X83576481Y-94621916D01*
X83599905Y-94630297D01*
X83622394Y-94640934D01*
X83643733Y-94653724D01*
X83663715Y-94668544D01*
X83682149Y-94685251D01*
X83698856Y-94703685D01*
X83713676Y-94723667D01*
X83726466Y-94745006D01*
X83737103Y-94767495D01*
X83745484Y-94790919D01*
X83751529Y-94815052D01*
X83755179Y-94839661D01*
X83756400Y-94864509D01*
X83756400Y-96127491D01*
X83755179Y-96152339D01*
X83751529Y-96176948D01*
X83745484Y-96201081D01*
X83737103Y-96224505D01*
X83726466Y-96246994D01*
X83713676Y-96268333D01*
X83698856Y-96288315D01*
X83682149Y-96306749D01*
X83663715Y-96323456D01*
X83643733Y-96338276D01*
X83622394Y-96351066D01*
X83599905Y-96361703D01*
X83576481Y-96370084D01*
X83552348Y-96376129D01*
X83527739Y-96379779D01*
X83502891Y-96381000D01*
X82564909Y-96381000D01*
X82540061Y-96379779D01*
X82515452Y-96376129D01*
X82491319Y-96370084D01*
X82467895Y-96361703D01*
X82445406Y-96351066D01*
X82424067Y-96338276D01*
X82404085Y-96323456D01*
X82385651Y-96306749D01*
X82368944Y-96288315D01*
X82354124Y-96268333D01*
X82341334Y-96246994D01*
X82330697Y-96224505D01*
X82322316Y-96201081D01*
X82316271Y-96176948D01*
X82312621Y-96152339D01*
X82311400Y-96127491D01*
X82311400Y-94864509D01*
X82312621Y-94839661D01*
X82316271Y-94815052D01*
X82322316Y-94790919D01*
X82330697Y-94767495D01*
X82341334Y-94745006D01*
X82354124Y-94723667D01*
X82368944Y-94703685D01*
X82385651Y-94685251D01*
X82404085Y-94668544D01*
X82424067Y-94653724D01*
X82445406Y-94640934D01*
X82467895Y-94630297D01*
X82491319Y-94621916D01*
X82515452Y-94615871D01*
X82540061Y-94612221D01*
X82564909Y-94611000D01*
X83502891Y-94611000D01*
X83527739Y-94612221D01*
X83527739Y-94612221D01*
G37*
D20*
X83033900Y-95496000D03*
D14*
G36*
X80552739Y-94612221D02*
G01*
X80577348Y-94615871D01*
X80601481Y-94621916D01*
X80624905Y-94630297D01*
X80647394Y-94640934D01*
X80668733Y-94653724D01*
X80688715Y-94668544D01*
X80707149Y-94685251D01*
X80723856Y-94703685D01*
X80738676Y-94723667D01*
X80751466Y-94745006D01*
X80762103Y-94767495D01*
X80770484Y-94790919D01*
X80776529Y-94815052D01*
X80780179Y-94839661D01*
X80781400Y-94864509D01*
X80781400Y-96127491D01*
X80780179Y-96152339D01*
X80776529Y-96176948D01*
X80770484Y-96201081D01*
X80762103Y-96224505D01*
X80751466Y-96246994D01*
X80738676Y-96268333D01*
X80723856Y-96288315D01*
X80707149Y-96306749D01*
X80688715Y-96323456D01*
X80668733Y-96338276D01*
X80647394Y-96351066D01*
X80624905Y-96361703D01*
X80601481Y-96370084D01*
X80577348Y-96376129D01*
X80552739Y-96379779D01*
X80527891Y-96381000D01*
X79589909Y-96381000D01*
X79565061Y-96379779D01*
X79540452Y-96376129D01*
X79516319Y-96370084D01*
X79492895Y-96361703D01*
X79470406Y-96351066D01*
X79449067Y-96338276D01*
X79429085Y-96323456D01*
X79410651Y-96306749D01*
X79393944Y-96288315D01*
X79379124Y-96268333D01*
X79366334Y-96246994D01*
X79355697Y-96224505D01*
X79347316Y-96201081D01*
X79341271Y-96176948D01*
X79337621Y-96152339D01*
X79336400Y-96127491D01*
X79336400Y-94864509D01*
X79337621Y-94839661D01*
X79341271Y-94815052D01*
X79347316Y-94790919D01*
X79355697Y-94767495D01*
X79366334Y-94745006D01*
X79379124Y-94723667D01*
X79393944Y-94703685D01*
X79410651Y-94685251D01*
X79429085Y-94668544D01*
X79449067Y-94653724D01*
X79470406Y-94640934D01*
X79492895Y-94630297D01*
X79516319Y-94621916D01*
X79540452Y-94615871D01*
X79565061Y-94612221D01*
X79589909Y-94611000D01*
X80527891Y-94611000D01*
X80552739Y-94612221D01*
X80552739Y-94612221D01*
G37*
D20*
X80058900Y-95496000D03*
D14*
G36*
X85885739Y-93468221D02*
G01*
X85910348Y-93471871D01*
X85934481Y-93477916D01*
X85957905Y-93486297D01*
X85980394Y-93496934D01*
X86001733Y-93509724D01*
X86021715Y-93524544D01*
X86040149Y-93541251D01*
X86056856Y-93559685D01*
X86071676Y-93579667D01*
X86084466Y-93601006D01*
X86095103Y-93623495D01*
X86103484Y-93646919D01*
X86109529Y-93671052D01*
X86113179Y-93695661D01*
X86114400Y-93720509D01*
X86114400Y-94658491D01*
X86113179Y-94683339D01*
X86109529Y-94707948D01*
X86103484Y-94732081D01*
X86095103Y-94755505D01*
X86084466Y-94777994D01*
X86071676Y-94799333D01*
X86056856Y-94819315D01*
X86040149Y-94837749D01*
X86021715Y-94854456D01*
X86001733Y-94869276D01*
X85980394Y-94882066D01*
X85957905Y-94892703D01*
X85934481Y-94901084D01*
X85910348Y-94907129D01*
X85885739Y-94910779D01*
X85860891Y-94912000D01*
X84597909Y-94912000D01*
X84573061Y-94910779D01*
X84548452Y-94907129D01*
X84524319Y-94901084D01*
X84500895Y-94892703D01*
X84478406Y-94882066D01*
X84457067Y-94869276D01*
X84437085Y-94854456D01*
X84418651Y-94837749D01*
X84401944Y-94819315D01*
X84387124Y-94799333D01*
X84374334Y-94777994D01*
X84363697Y-94755505D01*
X84355316Y-94732081D01*
X84349271Y-94707948D01*
X84345621Y-94683339D01*
X84344400Y-94658491D01*
X84344400Y-93720509D01*
X84345621Y-93695661D01*
X84349271Y-93671052D01*
X84355316Y-93646919D01*
X84363697Y-93623495D01*
X84374334Y-93601006D01*
X84387124Y-93579667D01*
X84401944Y-93559685D01*
X84418651Y-93541251D01*
X84437085Y-93524544D01*
X84457067Y-93509724D01*
X84478406Y-93496934D01*
X84500895Y-93486297D01*
X84524319Y-93477916D01*
X84548452Y-93471871D01*
X84573061Y-93468221D01*
X84597909Y-93467000D01*
X85860891Y-93467000D01*
X85885739Y-93468221D01*
X85885739Y-93468221D01*
G37*
D20*
X85229400Y-94189500D03*
D14*
G36*
X85885739Y-90493221D02*
G01*
X85910348Y-90496871D01*
X85934481Y-90502916D01*
X85957905Y-90511297D01*
X85980394Y-90521934D01*
X86001733Y-90534724D01*
X86021715Y-90549544D01*
X86040149Y-90566251D01*
X86056856Y-90584685D01*
X86071676Y-90604667D01*
X86084466Y-90626006D01*
X86095103Y-90648495D01*
X86103484Y-90671919D01*
X86109529Y-90696052D01*
X86113179Y-90720661D01*
X86114400Y-90745509D01*
X86114400Y-91683491D01*
X86113179Y-91708339D01*
X86109529Y-91732948D01*
X86103484Y-91757081D01*
X86095103Y-91780505D01*
X86084466Y-91802994D01*
X86071676Y-91824333D01*
X86056856Y-91844315D01*
X86040149Y-91862749D01*
X86021715Y-91879456D01*
X86001733Y-91894276D01*
X85980394Y-91907066D01*
X85957905Y-91917703D01*
X85934481Y-91926084D01*
X85910348Y-91932129D01*
X85885739Y-91935779D01*
X85860891Y-91937000D01*
X84597909Y-91937000D01*
X84573061Y-91935779D01*
X84548452Y-91932129D01*
X84524319Y-91926084D01*
X84500895Y-91917703D01*
X84478406Y-91907066D01*
X84457067Y-91894276D01*
X84437085Y-91879456D01*
X84418651Y-91862749D01*
X84401944Y-91844315D01*
X84387124Y-91824333D01*
X84374334Y-91802994D01*
X84363697Y-91780505D01*
X84355316Y-91757081D01*
X84349271Y-91732948D01*
X84345621Y-91708339D01*
X84344400Y-91683491D01*
X84344400Y-90745509D01*
X84345621Y-90720661D01*
X84349271Y-90696052D01*
X84355316Y-90671919D01*
X84363697Y-90648495D01*
X84374334Y-90626006D01*
X84387124Y-90604667D01*
X84401944Y-90584685D01*
X84418651Y-90566251D01*
X84437085Y-90549544D01*
X84457067Y-90534724D01*
X84478406Y-90521934D01*
X84500895Y-90511297D01*
X84524319Y-90502916D01*
X84548452Y-90496871D01*
X84573061Y-90493221D01*
X84597909Y-90492000D01*
X85860891Y-90492000D01*
X85885739Y-90493221D01*
X85885739Y-90493221D01*
G37*
D20*
X85229400Y-91214500D03*
D14*
G36*
X83550983Y-92889225D02*
G01*
X83575674Y-92892887D01*
X83599886Y-92898952D01*
X83623387Y-92907361D01*
X83645951Y-92918033D01*
X83667361Y-92930865D01*
X83687409Y-92945734D01*
X83705903Y-92962497D01*
X83722666Y-92980991D01*
X83737535Y-93001039D01*
X83750367Y-93022449D01*
X83761039Y-93045013D01*
X83769448Y-93068514D01*
X83775513Y-93092726D01*
X83779175Y-93117417D01*
X83780400Y-93142347D01*
X83780400Y-93803653D01*
X83779175Y-93828583D01*
X83775513Y-93853274D01*
X83769448Y-93877486D01*
X83761039Y-93900987D01*
X83750367Y-93923551D01*
X83737535Y-93944961D01*
X83722666Y-93965009D01*
X83705903Y-93983503D01*
X83687409Y-94000266D01*
X83667361Y-94015135D01*
X83645951Y-94027967D01*
X83623387Y-94038639D01*
X83599886Y-94047048D01*
X83575674Y-94053113D01*
X83550983Y-94056775D01*
X83526053Y-94058000D01*
X82614747Y-94058000D01*
X82589817Y-94056775D01*
X82565126Y-94053113D01*
X82540914Y-94047048D01*
X82517413Y-94038639D01*
X82494849Y-94027967D01*
X82473439Y-94015135D01*
X82453391Y-94000266D01*
X82434897Y-93983503D01*
X82418134Y-93965009D01*
X82403265Y-93944961D01*
X82390433Y-93923551D01*
X82379761Y-93900987D01*
X82371352Y-93877486D01*
X82365287Y-93853274D01*
X82361625Y-93828583D01*
X82360400Y-93803653D01*
X82360400Y-93142347D01*
X82361625Y-93117417D01*
X82365287Y-93092726D01*
X82371352Y-93068514D01*
X82379761Y-93045013D01*
X82390433Y-93022449D01*
X82403265Y-93001039D01*
X82418134Y-92980991D01*
X82434897Y-92962497D01*
X82453391Y-92945734D01*
X82473439Y-92930865D01*
X82494849Y-92918033D01*
X82517413Y-92907361D01*
X82540914Y-92898952D01*
X82565126Y-92892887D01*
X82589817Y-92889225D01*
X82614747Y-92888000D01*
X83526053Y-92888000D01*
X83550983Y-92889225D01*
X83550983Y-92889225D01*
G37*
D15*
X83070400Y-93473000D03*
D14*
G36*
X83550983Y-90839225D02*
G01*
X83575674Y-90842887D01*
X83599886Y-90848952D01*
X83623387Y-90857361D01*
X83645951Y-90868033D01*
X83667361Y-90880865D01*
X83687409Y-90895734D01*
X83705903Y-90912497D01*
X83722666Y-90930991D01*
X83737535Y-90951039D01*
X83750367Y-90972449D01*
X83761039Y-90995013D01*
X83769448Y-91018514D01*
X83775513Y-91042726D01*
X83779175Y-91067417D01*
X83780400Y-91092347D01*
X83780400Y-91753653D01*
X83779175Y-91778583D01*
X83775513Y-91803274D01*
X83769448Y-91827486D01*
X83761039Y-91850987D01*
X83750367Y-91873551D01*
X83737535Y-91894961D01*
X83722666Y-91915009D01*
X83705903Y-91933503D01*
X83687409Y-91950266D01*
X83667361Y-91965135D01*
X83645951Y-91977967D01*
X83623387Y-91988639D01*
X83599886Y-91997048D01*
X83575674Y-92003113D01*
X83550983Y-92006775D01*
X83526053Y-92008000D01*
X82614747Y-92008000D01*
X82589817Y-92006775D01*
X82565126Y-92003113D01*
X82540914Y-91997048D01*
X82517413Y-91988639D01*
X82494849Y-91977967D01*
X82473439Y-91965135D01*
X82453391Y-91950266D01*
X82434897Y-91933503D01*
X82418134Y-91915009D01*
X82403265Y-91894961D01*
X82390433Y-91873551D01*
X82379761Y-91850987D01*
X82371352Y-91827486D01*
X82365287Y-91803274D01*
X82361625Y-91778583D01*
X82360400Y-91753653D01*
X82360400Y-91092347D01*
X82361625Y-91067417D01*
X82365287Y-91042726D01*
X82371352Y-91018514D01*
X82379761Y-90995013D01*
X82390433Y-90972449D01*
X82403265Y-90951039D01*
X82418134Y-90930991D01*
X82434897Y-90912497D01*
X82453391Y-90895734D01*
X82473439Y-90880865D01*
X82494849Y-90868033D01*
X82517413Y-90857361D01*
X82540914Y-90848952D01*
X82565126Y-90842887D01*
X82589817Y-90839225D01*
X82614747Y-90838000D01*
X83526053Y-90838000D01*
X83550983Y-90839225D01*
X83550983Y-90839225D01*
G37*
D15*
X83070400Y-91423000D03*
D14*
G36*
X82524583Y-107495225D02*
G01*
X82549274Y-107498887D01*
X82573486Y-107504952D01*
X82596987Y-107513361D01*
X82619551Y-107524033D01*
X82640961Y-107536865D01*
X82661009Y-107551734D01*
X82679503Y-107568497D01*
X82696266Y-107586991D01*
X82711135Y-107607039D01*
X82723967Y-107628449D01*
X82734639Y-107651013D01*
X82743048Y-107674514D01*
X82749113Y-107698726D01*
X82752775Y-107723417D01*
X82754000Y-107748347D01*
X82754000Y-108409653D01*
X82752775Y-108434583D01*
X82749113Y-108459274D01*
X82743048Y-108483486D01*
X82734639Y-108506987D01*
X82723967Y-108529551D01*
X82711135Y-108550961D01*
X82696266Y-108571009D01*
X82679503Y-108589503D01*
X82661009Y-108606266D01*
X82640961Y-108621135D01*
X82619551Y-108633967D01*
X82596987Y-108644639D01*
X82573486Y-108653048D01*
X82549274Y-108659113D01*
X82524583Y-108662775D01*
X82499653Y-108664000D01*
X81588347Y-108664000D01*
X81563417Y-108662775D01*
X81538726Y-108659113D01*
X81514514Y-108653048D01*
X81491013Y-108644639D01*
X81468449Y-108633967D01*
X81447039Y-108621135D01*
X81426991Y-108606266D01*
X81408497Y-108589503D01*
X81391734Y-108571009D01*
X81376865Y-108550961D01*
X81364033Y-108529551D01*
X81353361Y-108506987D01*
X81344952Y-108483486D01*
X81338887Y-108459274D01*
X81335225Y-108434583D01*
X81334000Y-108409653D01*
X81334000Y-107748347D01*
X81335225Y-107723417D01*
X81338887Y-107698726D01*
X81344952Y-107674514D01*
X81353361Y-107651013D01*
X81364033Y-107628449D01*
X81376865Y-107607039D01*
X81391734Y-107586991D01*
X81408497Y-107568497D01*
X81426991Y-107551734D01*
X81447039Y-107536865D01*
X81468449Y-107524033D01*
X81491013Y-107513361D01*
X81514514Y-107504952D01*
X81538726Y-107498887D01*
X81563417Y-107495225D01*
X81588347Y-107494000D01*
X82499653Y-107494000D01*
X82524583Y-107495225D01*
X82524583Y-107495225D01*
G37*
D15*
X82044000Y-108079000D03*
D14*
G36*
X82524583Y-109545225D02*
G01*
X82549274Y-109548887D01*
X82573486Y-109554952D01*
X82596987Y-109563361D01*
X82619551Y-109574033D01*
X82640961Y-109586865D01*
X82661009Y-109601734D01*
X82679503Y-109618497D01*
X82696266Y-109636991D01*
X82711135Y-109657039D01*
X82723967Y-109678449D01*
X82734639Y-109701013D01*
X82743048Y-109724514D01*
X82749113Y-109748726D01*
X82752775Y-109773417D01*
X82754000Y-109798347D01*
X82754000Y-110459653D01*
X82752775Y-110484583D01*
X82749113Y-110509274D01*
X82743048Y-110533486D01*
X82734639Y-110556987D01*
X82723967Y-110579551D01*
X82711135Y-110600961D01*
X82696266Y-110621009D01*
X82679503Y-110639503D01*
X82661009Y-110656266D01*
X82640961Y-110671135D01*
X82619551Y-110683967D01*
X82596987Y-110694639D01*
X82573486Y-110703048D01*
X82549274Y-110709113D01*
X82524583Y-110712775D01*
X82499653Y-110714000D01*
X81588347Y-110714000D01*
X81563417Y-110712775D01*
X81538726Y-110709113D01*
X81514514Y-110703048D01*
X81491013Y-110694639D01*
X81468449Y-110683967D01*
X81447039Y-110671135D01*
X81426991Y-110656266D01*
X81408497Y-110639503D01*
X81391734Y-110621009D01*
X81376865Y-110600961D01*
X81364033Y-110579551D01*
X81353361Y-110556987D01*
X81344952Y-110533486D01*
X81338887Y-110509274D01*
X81335225Y-110484583D01*
X81334000Y-110459653D01*
X81334000Y-109798347D01*
X81335225Y-109773417D01*
X81338887Y-109748726D01*
X81344952Y-109724514D01*
X81353361Y-109701013D01*
X81364033Y-109678449D01*
X81376865Y-109657039D01*
X81391734Y-109636991D01*
X81408497Y-109618497D01*
X81426991Y-109601734D01*
X81447039Y-109586865D01*
X81468449Y-109574033D01*
X81491013Y-109563361D01*
X81514514Y-109554952D01*
X81538726Y-109548887D01*
X81563417Y-109545225D01*
X81588347Y-109544000D01*
X82499653Y-109544000D01*
X82524583Y-109545225D01*
X82524583Y-109545225D01*
G37*
D15*
X82044000Y-110129000D03*
D14*
G36*
X90752183Y-158251425D02*
G01*
X90776874Y-158255087D01*
X90801086Y-158261152D01*
X90824587Y-158269561D01*
X90847151Y-158280233D01*
X90868561Y-158293065D01*
X90888609Y-158307934D01*
X90907103Y-158324697D01*
X90923866Y-158343191D01*
X90938735Y-158363239D01*
X90951567Y-158384649D01*
X90962239Y-158407213D01*
X90970648Y-158430714D01*
X90976713Y-158454926D01*
X90980375Y-158479617D01*
X90981600Y-158504547D01*
X90981600Y-159165853D01*
X90980375Y-159190783D01*
X90976713Y-159215474D01*
X90970648Y-159239686D01*
X90962239Y-159263187D01*
X90951567Y-159285751D01*
X90938735Y-159307161D01*
X90923866Y-159327209D01*
X90907103Y-159345703D01*
X90888609Y-159362466D01*
X90868561Y-159377335D01*
X90847151Y-159390167D01*
X90824587Y-159400839D01*
X90801086Y-159409248D01*
X90776874Y-159415313D01*
X90752183Y-159418975D01*
X90727253Y-159420200D01*
X89815947Y-159420200D01*
X89791017Y-159418975D01*
X89766326Y-159415313D01*
X89742114Y-159409248D01*
X89718613Y-159400839D01*
X89696049Y-159390167D01*
X89674639Y-159377335D01*
X89654591Y-159362466D01*
X89636097Y-159345703D01*
X89619334Y-159327209D01*
X89604465Y-159307161D01*
X89591633Y-159285751D01*
X89580961Y-159263187D01*
X89572552Y-159239686D01*
X89566487Y-159215474D01*
X89562825Y-159190783D01*
X89561600Y-159165853D01*
X89561600Y-158504547D01*
X89562825Y-158479617D01*
X89566487Y-158454926D01*
X89572552Y-158430714D01*
X89580961Y-158407213D01*
X89591633Y-158384649D01*
X89604465Y-158363239D01*
X89619334Y-158343191D01*
X89636097Y-158324697D01*
X89654591Y-158307934D01*
X89674639Y-158293065D01*
X89696049Y-158280233D01*
X89718613Y-158269561D01*
X89742114Y-158261152D01*
X89766326Y-158255087D01*
X89791017Y-158251425D01*
X89815947Y-158250200D01*
X90727253Y-158250200D01*
X90752183Y-158251425D01*
X90752183Y-158251425D01*
G37*
D15*
X90271600Y-158835200D03*
D14*
G36*
X90752183Y-156201425D02*
G01*
X90776874Y-156205087D01*
X90801086Y-156211152D01*
X90824587Y-156219561D01*
X90847151Y-156230233D01*
X90868561Y-156243065D01*
X90888609Y-156257934D01*
X90907103Y-156274697D01*
X90923866Y-156293191D01*
X90938735Y-156313239D01*
X90951567Y-156334649D01*
X90962239Y-156357213D01*
X90970648Y-156380714D01*
X90976713Y-156404926D01*
X90980375Y-156429617D01*
X90981600Y-156454547D01*
X90981600Y-157115853D01*
X90980375Y-157140783D01*
X90976713Y-157165474D01*
X90970648Y-157189686D01*
X90962239Y-157213187D01*
X90951567Y-157235751D01*
X90938735Y-157257161D01*
X90923866Y-157277209D01*
X90907103Y-157295703D01*
X90888609Y-157312466D01*
X90868561Y-157327335D01*
X90847151Y-157340167D01*
X90824587Y-157350839D01*
X90801086Y-157359248D01*
X90776874Y-157365313D01*
X90752183Y-157368975D01*
X90727253Y-157370200D01*
X89815947Y-157370200D01*
X89791017Y-157368975D01*
X89766326Y-157365313D01*
X89742114Y-157359248D01*
X89718613Y-157350839D01*
X89696049Y-157340167D01*
X89674639Y-157327335D01*
X89654591Y-157312466D01*
X89636097Y-157295703D01*
X89619334Y-157277209D01*
X89604465Y-157257161D01*
X89591633Y-157235751D01*
X89580961Y-157213187D01*
X89572552Y-157189686D01*
X89566487Y-157165474D01*
X89562825Y-157140783D01*
X89561600Y-157115853D01*
X89561600Y-156454547D01*
X89562825Y-156429617D01*
X89566487Y-156404926D01*
X89572552Y-156380714D01*
X89580961Y-156357213D01*
X89591633Y-156334649D01*
X89604465Y-156313239D01*
X89619334Y-156293191D01*
X89636097Y-156274697D01*
X89654591Y-156257934D01*
X89674639Y-156243065D01*
X89696049Y-156230233D01*
X89718613Y-156219561D01*
X89742114Y-156211152D01*
X89766326Y-156205087D01*
X89791017Y-156201425D01*
X89815947Y-156200200D01*
X90727253Y-156200200D01*
X90752183Y-156201425D01*
X90752183Y-156201425D01*
G37*
D15*
X90271600Y-156785200D03*
D16*
X152781000Y-100711000D03*
D17*
X152781000Y-103481000D03*
X152781000Y-106251000D03*
X152781000Y-109021000D03*
X152781000Y-111791000D03*
X152781000Y-114561000D03*
X152781000Y-117331000D03*
X152781000Y-120101000D03*
X152781000Y-122871000D03*
X152781000Y-125641000D03*
X152781000Y-128411000D03*
X152781000Y-131181000D03*
X152781000Y-133951000D03*
X155621000Y-102096000D03*
X155621000Y-104866000D03*
X155621000Y-107636000D03*
X155621000Y-110406000D03*
X155621000Y-113176000D03*
X155621000Y-115946000D03*
X155621000Y-118716000D03*
X155621000Y-121486000D03*
X155621000Y-124256000D03*
X155621000Y-127026000D03*
X155621000Y-129796000D03*
X155621000Y-132566000D03*
D18*
X153081000Y-140881000D03*
X153081000Y-93781000D03*
D21*
X142000000Y-164000000D03*
D22*
X142000000Y-161460000D03*
X144540000Y-164000000D03*
X144540000Y-161460000D03*
X147080000Y-164000000D03*
X147080000Y-161460000D03*
X149620000Y-164000000D03*
X149620000Y-161460000D03*
D23*
X141673001Y-128728801D03*
D24*
X139133001Y-145388801D03*
D25*
X141673001Y-145388801D03*
X144213001Y-145388801D03*
D26*
X129362200Y-117856000D03*
D27*
X139522200Y-117856000D03*
X134391400Y-140512800D03*
D26*
X124231400Y-140512800D03*
D21*
X99949000Y-133350000D03*
D22*
X102489000Y-133350000D03*
X99949000Y-135890000D03*
X102489000Y-135890000D03*
D14*
G36*
X91082383Y-168545825D02*
G01*
X91107074Y-168549487D01*
X91131286Y-168555552D01*
X91154787Y-168563961D01*
X91177351Y-168574633D01*
X91198761Y-168587465D01*
X91218809Y-168602334D01*
X91237303Y-168619097D01*
X91254066Y-168637591D01*
X91268935Y-168657639D01*
X91281767Y-168679049D01*
X91292439Y-168701613D01*
X91300848Y-168725114D01*
X91306913Y-168749326D01*
X91310575Y-168774017D01*
X91311800Y-168798947D01*
X91311800Y-169460253D01*
X91310575Y-169485183D01*
X91306913Y-169509874D01*
X91300848Y-169534086D01*
X91292439Y-169557587D01*
X91281767Y-169580151D01*
X91268935Y-169601561D01*
X91254066Y-169621609D01*
X91237303Y-169640103D01*
X91218809Y-169656866D01*
X91198761Y-169671735D01*
X91177351Y-169684567D01*
X91154787Y-169695239D01*
X91131286Y-169703648D01*
X91107074Y-169709713D01*
X91082383Y-169713375D01*
X91057453Y-169714600D01*
X90146147Y-169714600D01*
X90121217Y-169713375D01*
X90096526Y-169709713D01*
X90072314Y-169703648D01*
X90048813Y-169695239D01*
X90026249Y-169684567D01*
X90004839Y-169671735D01*
X89984791Y-169656866D01*
X89966297Y-169640103D01*
X89949534Y-169621609D01*
X89934665Y-169601561D01*
X89921833Y-169580151D01*
X89911161Y-169557587D01*
X89902752Y-169534086D01*
X89896687Y-169509874D01*
X89893025Y-169485183D01*
X89891800Y-169460253D01*
X89891800Y-168798947D01*
X89893025Y-168774017D01*
X89896687Y-168749326D01*
X89902752Y-168725114D01*
X89911161Y-168701613D01*
X89921833Y-168679049D01*
X89934665Y-168657639D01*
X89949534Y-168637591D01*
X89966297Y-168619097D01*
X89984791Y-168602334D01*
X90004839Y-168587465D01*
X90026249Y-168574633D01*
X90048813Y-168563961D01*
X90072314Y-168555552D01*
X90096526Y-168549487D01*
X90121217Y-168545825D01*
X90146147Y-168544600D01*
X91057453Y-168544600D01*
X91082383Y-168545825D01*
X91082383Y-168545825D01*
G37*
D15*
X90601800Y-169129600D03*
D14*
G36*
X91082383Y-170595825D02*
G01*
X91107074Y-170599487D01*
X91131286Y-170605552D01*
X91154787Y-170613961D01*
X91177351Y-170624633D01*
X91198761Y-170637465D01*
X91218809Y-170652334D01*
X91237303Y-170669097D01*
X91254066Y-170687591D01*
X91268935Y-170707639D01*
X91281767Y-170729049D01*
X91292439Y-170751613D01*
X91300848Y-170775114D01*
X91306913Y-170799326D01*
X91310575Y-170824017D01*
X91311800Y-170848947D01*
X91311800Y-171510253D01*
X91310575Y-171535183D01*
X91306913Y-171559874D01*
X91300848Y-171584086D01*
X91292439Y-171607587D01*
X91281767Y-171630151D01*
X91268935Y-171651561D01*
X91254066Y-171671609D01*
X91237303Y-171690103D01*
X91218809Y-171706866D01*
X91198761Y-171721735D01*
X91177351Y-171734567D01*
X91154787Y-171745239D01*
X91131286Y-171753648D01*
X91107074Y-171759713D01*
X91082383Y-171763375D01*
X91057453Y-171764600D01*
X90146147Y-171764600D01*
X90121217Y-171763375D01*
X90096526Y-171759713D01*
X90072314Y-171753648D01*
X90048813Y-171745239D01*
X90026249Y-171734567D01*
X90004839Y-171721735D01*
X89984791Y-171706866D01*
X89966297Y-171690103D01*
X89949534Y-171671609D01*
X89934665Y-171651561D01*
X89921833Y-171630151D01*
X89911161Y-171607587D01*
X89902752Y-171584086D01*
X89896687Y-171559874D01*
X89893025Y-171535183D01*
X89891800Y-171510253D01*
X89891800Y-170848947D01*
X89893025Y-170824017D01*
X89896687Y-170799326D01*
X89902752Y-170775114D01*
X89911161Y-170751613D01*
X89921833Y-170729049D01*
X89934665Y-170707639D01*
X89949534Y-170687591D01*
X89966297Y-170669097D01*
X89984791Y-170652334D01*
X90004839Y-170637465D01*
X90026249Y-170624633D01*
X90048813Y-170613961D01*
X90072314Y-170605552D01*
X90096526Y-170599487D01*
X90121217Y-170595825D01*
X90146147Y-170594600D01*
X91057453Y-170594600D01*
X91082383Y-170595825D01*
X91082383Y-170595825D01*
G37*
D15*
X90601800Y-171179600D03*
M02*
