M48
; DRILL file {KiCad (5.1.0)-1} date 7/5/2019 4:32:54 PM
; FORMAT={-:-/ absolute / inch / decimal}
; #@! TF.CreationDate,2019-07-05T16:32:54+02:00
; #@! TF.GenerationSoftware,Kicad,Pcbnew,(5.1.0)-1
; #@! TF.FileFunction,Plated,1,2,PTH
FMAT,2
INCH
T1C0.0118
T2C0.0157
T3C0.0315
T4C0.0354
T5C0.0394
T6C0.0433
T7C0.1260
T8C0.1575
%
G90
G05
T1
X2.5185Y-4.6383
X2.5291Y-4.7401
X2.5646Y-5.3585
X2.6563Y-4.5344
X2.8557Y-5.4379
X2.875Y-5.1523
X2.8811Y-4.89
X2.8874Y-4.8631
X2.892Y-4.802
X2.8927Y-4.8333
X2.899Y-4.752
X2.911Y-5.1574
X2.913Y-5.3721
X2.9169Y-5.0085
X2.9214Y-5.5461
X2.9278Y-5.247
X2.9617Y-5.4273
X2.9937Y-4.702
X3.0211Y-5.5673
X3.076Y-5.056
X3.0787Y-5.3958
X3.1632Y-5.474
X3.1794Y-4.6185
X3.243Y-4.631
X3.258Y-4.605
X3.279Y-4.634
X3.498Y-6.271
X3.5Y-6.381
X3.5Y-6.531
X3.501Y-6.121
X3.5217Y-5.3637
X3.6341Y-5.1876
X3.7486Y-5.2088
X3.7953Y-5.3467
X3.8443Y-5.3047
X3.8714Y-5.3624
X3.9198Y-6.3234
X3.921Y-6.767
X3.922Y-6.617
X3.9899Y-6.2231
X4.0191Y-5.6777
X4.0376Y-5.472
X4.0404Y-5.6991
X4.0664Y-6.6372
X4.0753Y-6.2695
X4.0968Y-6.5243
X4.1138Y-6.2587
X4.1138Y-6.9717
X4.1224Y-6.7669
X4.185Y-6.455
X4.194Y-4.6362
X4.1972Y-5.3398
X4.1982Y-5.633
X4.207Y-6.177
X4.2131Y-7.0986
X4.2152Y-4.5111
X4.2326Y-5.25
X4.2458Y-5.2991
X4.2513Y-5.7242
X4.2668Y-5.4915
X4.3043Y-5.8112
X4.3085Y-6.0657
X4.3085Y-6.3329
X4.3586Y-6.5769
X4.3912Y-7.0731
X4.4103Y-5.6719
X4.4379Y-6.2523
X4.4634Y-6.369
X4.4846Y-6.3944
X4.5037Y-5.8048
X4.5143Y-6.2863
X4.5185Y-6.1548
X4.5185Y-6.6362
X4.5185Y-6.7804
X4.5249Y-6.8971
X4.5461Y-7.0265
X4.5842Y-7.0859
X4.6118Y-6.2566
X4.6245Y-5.9236
X4.6564Y-6.6765
X4.6564Y-6.8738
X4.6967Y-6.4665
X4.6967Y-6.9332
X4.7242Y-5.6183
X4.7327Y-6.7847
X4.7412Y-6.5938
X4.7518Y-6.0169
X4.7577Y-5.4617
X4.7624Y-5.0795
X4.8769Y-6.1399
X4.9305Y-5.6346
X4.963Y-6.419
X4.9639Y-6.2332
X5.007Y-6.419
X5.0917Y-5.7958
X5.093Y-6.423
X5.18Y-6.435
X5.191Y-6.336
X5.2211Y-5.9251
X5.223Y-6.387
X5.223Y-6.441
X5.2423Y-6.0665
X5.3457Y-5.8833
X5.4178Y-6.0275
X5.492Y-5.9363
X5.5047Y-5.3615
X5.5853Y-6.8101
X5.5869Y-6.1764
X5.6596Y-5.983
X5.6639Y-6.1495
X5.668Y-6.7083
X5.6786Y-6.9544
X5.6999Y-5.8706
X5.7338Y-6.7868
X5.7677Y-5.9533
X5.7762Y-7.071
X5.7932Y-6.6744
X5.8165Y-6.9671
X5.8254Y-6.2018
X5.9395Y-6.8483
X5.9713Y-5.9596
X6.0307Y-6.0996
X6.0562Y-6.6977
X6.0689Y-5.8515
X6.088Y-6.5047
X6.1919Y-6.0445
X6.2195Y-6.3181
X6.2895Y-5.7751
T2
X2.451Y-4.988
X2.451Y-5.109
X2.452Y-5.548
X2.461Y-5.249
X2.5075Y-5.2867
X2.5107Y-4.8959
X2.7132Y-5.0834
X2.7175Y-5.4667
X2.748Y-3.495
X2.854Y-6.701
X2.873Y-6.189
X2.879Y-3.412
X2.894Y-3.739
X2.928Y-6.582
X2.956Y-3.508
X2.959Y-3.704
X2.962Y-3.934
X2.963Y-3.777
X2.971Y-3.358
X2.9895Y-5.0544
X2.993Y-4.044
X2.9934Y-5.017
X3.016Y-6.008
X3.0215Y-5.166
X3.027Y-6.612
X3.0328Y-4.7316
X3.0336Y-6.3405
X3.0627Y-4.7216
X3.073Y-3.779
X3.077Y-6.221
X3.08Y-6.34
X3.091Y-6.009
X3.092Y-4.437
X3.108Y-6.567
X3.124Y-4.437
X3.1455Y-3.5997
X3.1526Y-4.5376
X3.155Y-4.369
X3.161Y-3.395
X3.175Y-4.93
X3.175Y-5.01
X3.186Y-4.039
X3.211Y-3.464
X3.2395Y-5.0761
X3.24Y-4.395
X3.265Y-4.195
X3.2729Y-4.7139
X3.2946Y-5.078
X3.31Y-5.795
X3.319Y-4.049
X3.3246Y-5.8644
X3.3261Y-5.078
X3.328Y-5.91
X3.345Y-4.72
X3.3487Y-5.1374
X3.3505Y-3.7747
X3.3545Y-4.8323
X3.3556Y-4.8005
X3.3556Y-4.9284
X3.3576Y-5.0465
X3.36Y-4.67
X3.37Y-4.271
X3.403Y-4.017
X3.418Y-3.988
X3.4298Y-5.1431
X3.431Y-6.011
X3.436Y-4.311
X3.467Y-3.493
X3.491Y-3.575
X3.514Y-3.425
X3.5506Y-5.9921
X3.5656Y-5.9221
X3.571Y-5.772
X3.5944Y-4.3181
X3.63Y-4.8175
X3.6306Y-5.9921
X3.636Y-5.07
X3.6826Y-3.798
X3.687Y-3.883
X3.6885Y-4.9328
X3.7052Y-6.7673
X3.718Y-6.619
X3.721Y-3.401
X3.723Y-3.669
X3.728Y-3.592
X3.74Y-4.18
X3.755Y-4.549
X3.76Y-4.645
X3.811Y-4.58
X3.825Y-5.025
X3.838Y-3.798
X3.8475Y-4.8775
X3.8484Y-4.675
X3.927Y-5.941
X3.929Y-3.437
X3.952Y-4.18
X3.952Y-4.598
X3.9625Y-4.6675
X4.0275Y-4.9658
X4.0627Y-4.9327
X4.07Y-3.802
X4.075Y-4.598
X4.1044Y-4.968
X4.132Y-3.453
X4.184Y-4.18
X4.2253Y-4.77
X4.26Y-4.995
X4.305Y-4.74
X4.311Y-3.81
X4.335Y-3.456
X4.338Y-5.089
X4.375Y-4.705
X4.378Y-4.437
X4.425Y-4.437
X4.426Y-3.697
X4.428Y-4.18
X4.467Y-4.437
X4.467Y-5.181
X4.5158Y-4.936
X4.539Y-4.714
X4.5452Y-3.789
X4.56Y-4.552
X4.602Y-5.06
X4.61Y-3.47
X4.6274Y-5.3286
X4.639Y-4.6046
X4.652Y-3.646
X4.662Y-4.18
X4.707Y-5.191
X4.727Y-4.72
X4.738Y-5.31
X4.7752Y-4.5504
X4.797Y-3.497
X4.852Y-4.5504
X4.892Y-4.18
X5.001Y-3.523
X5.008Y-3.807
X5.035Y-5.347
X5.048Y-4.092
X5.089Y-5.107
X5.122Y-3.576
X5.124Y-4.18
X5.152Y-3.525
X5.187Y-5.228
X5.228Y-5.05
X5.237Y-3.812
X5.318Y-5.259
X5.32Y-3.978
X5.333Y-5.183
X5.35Y-4.18
X5.357Y-4.371
X5.362Y-3.595
X5.363Y-3.542
X5.378Y-3.976
X5.477Y-4.373
X5.575Y-4.18
X5.588Y-4.255
X5.646Y-4.122
X5.657Y-4.375
X5.662Y-3.587
X5.678Y-3.955
X5.682Y-4.686
X5.704Y-4.42
X5.714Y-4.238
X5.741Y-3.778
X5.829Y-4.547
X5.983Y-3.53
X6.046Y-3.838
X6.137Y-3.778
X6.144Y-3.869
X6.188Y-4.088
X6.192Y-4.29
X6.227Y-4.611
X6.242Y-4.818
T3
X3.5602Y-6.8633
X3.5602Y-6.9633
X3.8602Y-6.8633
X3.8602Y-6.9633
T4
X4.891Y-5.532
X5.291Y-5.532
X5.093Y-4.64
X5.493Y-4.64
T5
X2.5984Y-4.0278
X2.5984Y-4.1368
X2.5984Y-4.2459
X2.5984Y-4.3549
X2.7102Y-3.9732
X2.7102Y-4.0823
X2.7102Y-4.1913
X2.7102Y-4.3004
X2.7102Y-4.4094
X5.5906Y-6.3567
X5.5906Y-6.4567
X5.6906Y-6.3567
X5.6906Y-6.4567
X5.7906Y-6.3567
X5.7906Y-6.4567
X5.8906Y-6.3567
X5.8906Y-6.4567
X2.5995Y-6.1131
X2.5995Y-6.2222
X2.5995Y-6.3313
X2.5995Y-6.4403
X2.7113Y-6.0586
X2.7113Y-6.1677
X2.7113Y-6.2767
X2.7113Y-6.3858
X2.7113Y-6.4948
X6.015Y-3.965
X6.015Y-4.0741
X6.015Y-4.1831
X6.015Y-4.2922
X6.015Y-4.4012
X6.015Y-4.5103
X6.015Y-4.6193
X6.015Y-4.7284
X6.015Y-4.8374
X6.015Y-4.9465
X6.015Y-5.0556
X6.015Y-5.1646
X6.015Y-5.2737
X6.1268Y-4.0195
X6.1268Y-4.1286
X6.1268Y-4.2376
X6.1268Y-4.3467
X6.1268Y-4.4557
X6.1268Y-4.5648
X6.1268Y-4.6739
X6.1268Y-4.7829
X6.1268Y-4.892
X6.1268Y-5.001
X6.1268Y-5.1101
X6.1268Y-5.2191
X3.935Y-5.25
X3.935Y-5.35
X4.035Y-5.25
X4.035Y-5.35
T6
X5.4777Y-5.724
X5.5777Y-5.724
X5.6777Y-5.724
T7
X6.0268Y-3.6922
X6.0268Y-5.5465
X2.6984Y-3.6992
X2.6984Y-4.6835
X2.6995Y-5.7846
X2.6995Y-6.7689
T8
X2.5591Y-3.4252
X2.5591Y-7.0472
X6.1811Y-3.4252
X6.1811Y-7.0472
T0
M30
