%FSLAX45Y45*%
G04 Gerber Fmt 4.5, Leading zero omitted, Abs format (unit mm)*
G04 Created by KiCad (PCBNEW (5.1.0)-1) date 2019-05-16 09:59:26*
%MOMM*%
%LPD*%
G04 APERTURE LIST*
%ADD10C,0.150000*%
%ADD11C,0.200000*%
%ADD12C,0.300000*%
G04 APERTURE END LIST*
D10*
X6400000Y-18300000D02*
G75*
G02X6100000Y-18000000I0J300000D01*
G01*
X6100000Y-8600000D02*
X6100000Y-18000000D01*
X15800000Y-18300000D02*
X6400000Y-18300000D01*
X16100000Y-18000000D02*
G75*
G02X15800000Y-18300000I-300000J0D01*
G01*
X16100000Y-8600000D02*
X16100000Y-18000000D01*
X15800000Y-8300000D02*
G75*
G02X16100000Y-8600000I0J-300000D01*
G01*
X6100000Y-8600000D02*
G75*
G02X6400000Y-8300000I300000J0D01*
G01*
D11*
X6400000Y-8300000D02*
X15800000Y-8300000D01*
D11*
X13992300Y-12697880D02*
X14342300Y-13047880D01*
X14342300Y-12697880D02*
X13992300Y-13047880D01*
D12*
X6378928Y-18773214D02*
X6378928Y-18473214D01*
X6450357Y-18473214D01*
X6493214Y-18487500D01*
X6521786Y-18516072D01*
X6536071Y-18544643D01*
X6550357Y-18601786D01*
X6550357Y-18644643D01*
X6536071Y-18701786D01*
X6521786Y-18730357D01*
X6493214Y-18758929D01*
X6450357Y-18773214D01*
X6378928Y-18773214D01*
X6678928Y-18773214D02*
X6678928Y-18573214D01*
X6678928Y-18630357D02*
X6693214Y-18601786D01*
X6707500Y-18587500D01*
X6736071Y-18573214D01*
X6764643Y-18573214D01*
X6864643Y-18773214D02*
X6864643Y-18573214D01*
X6864643Y-18473214D02*
X6850357Y-18487500D01*
X6864643Y-18501786D01*
X6878928Y-18487500D01*
X6864643Y-18473214D01*
X6864643Y-18501786D01*
X7050357Y-18773214D02*
X7021786Y-18758929D01*
X7007500Y-18730357D01*
X7007500Y-18473214D01*
X7207500Y-18773214D02*
X7178928Y-18758929D01*
X7164643Y-18730357D01*
X7164643Y-18473214D01*
X7550357Y-18773214D02*
X7550357Y-18473214D01*
X7650357Y-18687500D01*
X7750357Y-18473214D01*
X7750357Y-18773214D01*
X8021786Y-18773214D02*
X8021786Y-18616072D01*
X8007500Y-18587500D01*
X7978928Y-18573214D01*
X7921786Y-18573214D01*
X7893214Y-18587500D01*
X8021786Y-18758929D02*
X7993214Y-18773214D01*
X7921786Y-18773214D01*
X7893214Y-18758929D01*
X7878928Y-18730357D01*
X7878928Y-18701786D01*
X7893214Y-18673214D01*
X7921786Y-18658929D01*
X7993214Y-18658929D01*
X8021786Y-18644643D01*
X8164643Y-18573214D02*
X8164643Y-18873214D01*
X8164643Y-18587500D02*
X8193214Y-18573214D01*
X8250357Y-18573214D01*
X8278928Y-18587500D01*
X8293214Y-18601786D01*
X8307500Y-18630357D01*
X8307500Y-18716072D01*
X8293214Y-18744643D01*
X8278928Y-18758929D01*
X8250357Y-18773214D01*
X8193214Y-18773214D01*
X8164643Y-18758929D01*
X8436071Y-18744643D02*
X8450357Y-18758929D01*
X8436071Y-18773214D01*
X8421786Y-18758929D01*
X8436071Y-18744643D01*
X8436071Y-18773214D01*
X8436071Y-18587500D02*
X8450357Y-18601786D01*
X8436071Y-18616072D01*
X8421786Y-18601786D01*
X8436071Y-18587500D01*
X8436071Y-18616072D01*
X5742500Y-19092500D02*
X6092500Y-19442500D01*
X6092500Y-19092500D02*
X5742500Y-19442500D01*
X6350357Y-19103214D02*
X6536071Y-19103214D01*
X6436071Y-19217500D01*
X6478928Y-19217500D01*
X6507500Y-19231786D01*
X6521786Y-19246072D01*
X6536071Y-19274643D01*
X6536071Y-19346072D01*
X6521786Y-19374643D01*
X6507500Y-19388929D01*
X6478928Y-19403214D01*
X6393214Y-19403214D01*
X6364643Y-19388929D01*
X6350357Y-19374643D01*
X6664643Y-19374643D02*
X6678928Y-19388929D01*
X6664643Y-19403214D01*
X6650357Y-19388929D01*
X6664643Y-19374643D01*
X6664643Y-19403214D01*
X6950357Y-19103214D02*
X6807500Y-19103214D01*
X6793214Y-19246072D01*
X6807500Y-19231786D01*
X6836071Y-19217500D01*
X6907500Y-19217500D01*
X6936071Y-19231786D01*
X6950357Y-19246072D01*
X6964643Y-19274643D01*
X6964643Y-19346072D01*
X6950357Y-19374643D01*
X6936071Y-19388929D01*
X6907500Y-19403214D01*
X6836071Y-19403214D01*
X6807500Y-19388929D01*
X6793214Y-19374643D01*
X7150357Y-19103214D02*
X7178928Y-19103214D01*
X7207500Y-19117500D01*
X7221786Y-19131786D01*
X7236071Y-19160357D01*
X7250357Y-19217500D01*
X7250357Y-19288929D01*
X7236071Y-19346072D01*
X7221786Y-19374643D01*
X7207500Y-19388929D01*
X7178928Y-19403214D01*
X7150357Y-19403214D01*
X7121786Y-19388929D01*
X7107500Y-19374643D01*
X7093214Y-19346072D01*
X7078928Y-19288929D01*
X7078928Y-19217500D01*
X7093214Y-19160357D01*
X7107500Y-19131786D01*
X7121786Y-19117500D01*
X7150357Y-19103214D01*
X7378928Y-19403214D02*
X7378928Y-19203214D01*
X7378928Y-19231786D02*
X7393214Y-19217500D01*
X7421786Y-19203214D01*
X7464643Y-19203214D01*
X7493214Y-19217500D01*
X7507500Y-19246072D01*
X7507500Y-19403214D01*
X7507500Y-19246072D02*
X7521786Y-19217500D01*
X7550357Y-19203214D01*
X7593214Y-19203214D01*
X7621786Y-19217500D01*
X7636071Y-19246072D01*
X7636071Y-19403214D01*
X7778928Y-19403214D02*
X7778928Y-19203214D01*
X7778928Y-19231786D02*
X7793214Y-19217500D01*
X7821786Y-19203214D01*
X7864643Y-19203214D01*
X7893214Y-19217500D01*
X7907500Y-19246072D01*
X7907500Y-19403214D01*
X7907500Y-19246072D02*
X7921786Y-19217500D01*
X7950357Y-19203214D01*
X7993214Y-19203214D01*
X8021786Y-19217500D01*
X8036071Y-19246072D01*
X8036071Y-19403214D01*
X8621786Y-19088929D02*
X8364643Y-19474643D01*
X9007500Y-19103214D02*
X9036071Y-19103214D01*
X9064643Y-19117500D01*
X9078928Y-19131786D01*
X9093214Y-19160357D01*
X9107500Y-19217500D01*
X9107500Y-19288929D01*
X9093214Y-19346072D01*
X9078928Y-19374643D01*
X9064643Y-19388929D01*
X9036071Y-19403214D01*
X9007500Y-19403214D01*
X8978928Y-19388929D01*
X8964643Y-19374643D01*
X8950357Y-19346072D01*
X8936071Y-19288929D01*
X8936071Y-19217500D01*
X8950357Y-19160357D01*
X8964643Y-19131786D01*
X8978928Y-19117500D01*
X9007500Y-19103214D01*
X9236071Y-19374643D02*
X9250357Y-19388929D01*
X9236071Y-19403214D01*
X9221786Y-19388929D01*
X9236071Y-19374643D01*
X9236071Y-19403214D01*
X9536071Y-19403214D02*
X9364643Y-19403214D01*
X9450357Y-19403214D02*
X9450357Y-19103214D01*
X9421786Y-19146072D01*
X9393214Y-19174643D01*
X9364643Y-19188929D01*
X9636071Y-19103214D02*
X9821786Y-19103214D01*
X9721786Y-19217500D01*
X9764643Y-19217500D01*
X9793214Y-19231786D01*
X9807500Y-19246072D01*
X9821786Y-19274643D01*
X9821786Y-19346072D01*
X9807500Y-19374643D01*
X9793214Y-19388929D01*
X9764643Y-19403214D01*
X9678928Y-19403214D01*
X9650357Y-19388929D01*
X9636071Y-19374643D01*
X9993214Y-19231786D02*
X9964643Y-19217500D01*
X9950357Y-19203214D01*
X9936071Y-19174643D01*
X9936071Y-19160357D01*
X9950357Y-19131786D01*
X9964643Y-19117500D01*
X9993214Y-19103214D01*
X10050357Y-19103214D01*
X10078928Y-19117500D01*
X10093214Y-19131786D01*
X10107500Y-19160357D01*
X10107500Y-19174643D01*
X10093214Y-19203214D01*
X10078928Y-19217500D01*
X10050357Y-19231786D01*
X9993214Y-19231786D01*
X9964643Y-19246072D01*
X9950357Y-19260357D01*
X9936071Y-19288929D01*
X9936071Y-19346072D01*
X9950357Y-19374643D01*
X9964643Y-19388929D01*
X9993214Y-19403214D01*
X10050357Y-19403214D01*
X10078928Y-19388929D01*
X10093214Y-19374643D01*
X10107500Y-19346072D01*
X10107500Y-19288929D01*
X10093214Y-19260357D01*
X10078928Y-19246072D01*
X10050357Y-19231786D01*
X10221786Y-19103214D02*
X10221786Y-19160357D01*
X10336071Y-19103214D02*
X10336071Y-19160357D01*
X10778928Y-19517500D02*
X10764643Y-19503214D01*
X10736071Y-19460357D01*
X10721786Y-19431786D01*
X10707500Y-19388929D01*
X10693214Y-19317500D01*
X10693214Y-19260357D01*
X10707500Y-19188929D01*
X10721786Y-19146072D01*
X10736071Y-19117500D01*
X10764643Y-19074643D01*
X10778928Y-19060357D01*
X11050357Y-19403214D02*
X10878928Y-19403214D01*
X10964643Y-19403214D02*
X10964643Y-19103214D01*
X10936071Y-19146072D01*
X10907500Y-19174643D01*
X10878928Y-19188929D01*
X11407500Y-19403214D02*
X11407500Y-19103214D01*
X11536071Y-19403214D02*
X11536071Y-19246072D01*
X11521786Y-19217500D01*
X11493214Y-19203214D01*
X11450357Y-19203214D01*
X11421786Y-19217500D01*
X11407500Y-19231786D01*
X11721786Y-19403214D02*
X11693214Y-19388929D01*
X11678928Y-19374643D01*
X11664643Y-19346072D01*
X11664643Y-19260357D01*
X11678928Y-19231786D01*
X11693214Y-19217500D01*
X11721786Y-19203214D01*
X11764643Y-19203214D01*
X11793214Y-19217500D01*
X11807500Y-19231786D01*
X11821786Y-19260357D01*
X11821786Y-19346072D01*
X11807500Y-19374643D01*
X11793214Y-19388929D01*
X11764643Y-19403214D01*
X11721786Y-19403214D01*
X11993214Y-19403214D02*
X11964643Y-19388929D01*
X11950357Y-19360357D01*
X11950357Y-19103214D01*
X12221786Y-19388929D02*
X12193214Y-19403214D01*
X12136071Y-19403214D01*
X12107500Y-19388929D01*
X12093214Y-19360357D01*
X12093214Y-19246072D01*
X12107500Y-19217500D01*
X12136071Y-19203214D01*
X12193214Y-19203214D01*
X12221786Y-19217500D01*
X12236071Y-19246072D01*
X12236071Y-19274643D01*
X12093214Y-19303214D01*
X12336071Y-19517500D02*
X12350357Y-19503214D01*
X12378928Y-19460357D01*
X12393214Y-19431786D01*
X12407500Y-19388929D01*
X12421786Y-19317500D01*
X12421786Y-19260357D01*
X12407500Y-19188929D01*
X12393214Y-19146072D01*
X12378928Y-19117500D01*
X12350357Y-19074643D01*
X12336071Y-19060357D01*
X12878928Y-19517500D02*
X12864643Y-19503214D01*
X12836071Y-19460357D01*
X12821786Y-19431786D01*
X12807500Y-19388929D01*
X12793214Y-19317500D01*
X12793214Y-19260357D01*
X12807500Y-19188929D01*
X12821786Y-19146072D01*
X12836071Y-19117500D01*
X12864643Y-19074643D01*
X12878928Y-19060357D01*
X12993214Y-19203214D02*
X12993214Y-19403214D01*
X12993214Y-19231786D02*
X13007500Y-19217500D01*
X13036071Y-19203214D01*
X13078928Y-19203214D01*
X13107500Y-19217500D01*
X13121786Y-19246072D01*
X13121786Y-19403214D01*
X13307500Y-19403214D02*
X13278928Y-19388929D01*
X13264643Y-19374643D01*
X13250357Y-19346072D01*
X13250357Y-19260357D01*
X13264643Y-19231786D01*
X13278928Y-19217500D01*
X13307500Y-19203214D01*
X13350357Y-19203214D01*
X13378928Y-19217500D01*
X13393214Y-19231786D01*
X13407500Y-19260357D01*
X13407500Y-19346072D01*
X13393214Y-19374643D01*
X13378928Y-19388929D01*
X13350357Y-19403214D01*
X13307500Y-19403214D01*
X13493214Y-19203214D02*
X13607500Y-19203214D01*
X13536071Y-19103214D02*
X13536071Y-19360357D01*
X13550357Y-19388929D01*
X13578928Y-19403214D01*
X13607500Y-19403214D01*
X13936071Y-19203214D02*
X13936071Y-19503214D01*
X13936071Y-19217500D02*
X13964643Y-19203214D01*
X14021786Y-19203214D01*
X14050357Y-19217500D01*
X14064643Y-19231786D01*
X14078928Y-19260357D01*
X14078928Y-19346072D01*
X14064643Y-19374643D01*
X14050357Y-19388929D01*
X14021786Y-19403214D01*
X13964643Y-19403214D01*
X13936071Y-19388929D01*
X14250357Y-19403214D02*
X14221786Y-19388929D01*
X14207500Y-19360357D01*
X14207500Y-19103214D01*
X14493214Y-19403214D02*
X14493214Y-19246072D01*
X14478928Y-19217500D01*
X14450357Y-19203214D01*
X14393214Y-19203214D01*
X14364643Y-19217500D01*
X14493214Y-19388929D02*
X14464643Y-19403214D01*
X14393214Y-19403214D01*
X14364643Y-19388929D01*
X14350357Y-19360357D01*
X14350357Y-19331786D01*
X14364643Y-19303214D01*
X14393214Y-19288929D01*
X14464643Y-19288929D01*
X14493214Y-19274643D01*
X14593214Y-19203214D02*
X14707500Y-19203214D01*
X14636071Y-19103214D02*
X14636071Y-19360357D01*
X14650357Y-19388929D01*
X14678928Y-19403214D01*
X14707500Y-19403214D01*
X14921786Y-19388929D02*
X14893214Y-19403214D01*
X14836071Y-19403214D01*
X14807500Y-19388929D01*
X14793214Y-19360357D01*
X14793214Y-19246072D01*
X14807500Y-19217500D01*
X14836071Y-19203214D01*
X14893214Y-19203214D01*
X14921786Y-19217500D01*
X14936071Y-19246072D01*
X14936071Y-19274643D01*
X14793214Y-19303214D01*
X15193214Y-19403214D02*
X15193214Y-19103214D01*
X15193214Y-19388929D02*
X15164643Y-19403214D01*
X15107500Y-19403214D01*
X15078928Y-19388929D01*
X15064643Y-19374643D01*
X15050357Y-19346072D01*
X15050357Y-19260357D01*
X15064643Y-19231786D01*
X15078928Y-19217500D01*
X15107500Y-19203214D01*
X15164643Y-19203214D01*
X15193214Y-19217500D01*
X15307500Y-19517500D02*
X15321786Y-19503214D01*
X15350357Y-19460357D01*
X15364643Y-19431786D01*
X15378928Y-19388929D01*
X15393214Y-19317500D01*
X15393214Y-19260357D01*
X15378928Y-19188929D01*
X15364643Y-19146072D01*
X15350357Y-19117500D01*
X15321786Y-19074643D01*
X15307500Y-19060357D01*
M02*
