M48
;DRILL file {KiCad (5.0.2)-1} date 2/20/2019 3:00:48 PM
;FORMAT={-:-/ absolute / inch / decimal}
FMAT,2
INCH,TZ
T1C0.0157
T2C0.0394
T3C0.1181
T4C0.1260
%
G90
G05
T1
X1.6535Y-2.1654
X1.6732Y-1.2795
X1.6732Y-2.0866
X1.6732Y-2.3228
X1.6929Y-1.1024
X1.7323Y-1.4567
X1.7717Y-2.4606
X1.7913Y-1.0433
X1.811Y-1.1417
X1.8701Y-2.185
X1.9051Y-1.2037
X1.9094Y-2.5787
X1.9488Y-1.5157
X1.9488Y-1.6929
X1.9685Y-1.4173
X2.0151Y-1.6187
X2.0276Y-2.1063
X2.0669Y-2.6181
X2.0866Y-1.5551
X2.1701Y-2.0537
X2.2047Y-2.5787
X2.2244Y-1.5157
X2.2701Y-1.4237
X2.3228Y-2.5787
X2.3425Y-2.126
X2.3901Y-1.8737
X2.3901Y-2.3137
X2.4001Y-1.9837
X2.4001Y-2.4537
X2.4409Y-1.1417
X2.4409Y-1.4173
X2.4409Y-2.0669
X2.4606Y-2.5787
X2.4803Y-1.4961
X2.4803Y-2.1654
X2.5236Y-2.0444
X2.5394Y-1.1417
X2.5591Y-2.1247
X2.5651Y-1.3237
X2.5748Y-2.044
X2.6181Y-2.5787
X2.6378Y-1.1417
X2.6551Y-2.4037
X2.7151Y-2.0037
X2.7362Y-1.1417
X2.7559Y-2.5787
X2.7756Y-1.2992
X2.8543Y-1.1417
X2.8801Y-1.9687
X2.8801Y-2.1487
X2.8937Y-1.3386
X2.9134Y-1.437
X2.9134Y-1.5748
X2.9151Y-2.1082
X2.9301Y-1.9587
X2.9331Y-1.2205
X2.9528Y-2.5787
X2.9921Y-1.2795
X2.9921Y-1.3976
X3.0118Y-1.6339
X3.0709Y-1.3386
X3.0709Y-1.5157
X3.0709Y-1.9488
X3.1102Y-1.063
X3.1496Y-1.4173
X3.1496Y-1.6339
X3.1496Y-1.9488
X3.1496Y-2.5787
X3.1693Y-1.752
X3.1693Y-2.126
X3.1693Y-2.2638
X3.189Y-1.1417
X3.2283Y-1.5354
X3.248Y-2.3819
X3.2874Y-1.2598
X3.3071Y-1.6732
X3.3071Y-1.752
X3.3661Y-1.378
X3.3858Y-2.4213
T2
X1.7583Y-1.662
X1.7583Y-1.7711
X1.7583Y-1.8801
X1.7583Y-1.9892
X1.8701Y-1.6075
X1.8701Y-1.7165
X1.8701Y-1.8256
X1.8701Y-1.9346
X1.8701Y-2.0437
T3
X1.6929Y-1.1024
X1.6929Y-1.1024
X1.6929Y-2.5591
X3.3465Y-1.1024
X3.3465Y-2.5591
T4
X1.8583Y-1.3335
X1.8583Y-2.3177
T0
M30
