G04 #@! TF.GenerationSoftware,KiCad,Pcbnew,(5.0.2)-1*
G04 #@! TF.CreationDate,2019-02-20T15:00:44+02:00*
G04 #@! TF.ProjectId,APPS_SMD,41505053-5f53-44d4-942e-6b696361645f,rev?*
G04 #@! TF.SameCoordinates,Original*
G04 #@! TF.FileFunction,Soldermask,Top*
G04 #@! TF.FilePolarity,Negative*
%FSLAX46Y46*%
G04 Gerber Fmt 4.6, Leading zero omitted, Abs format (unit mm)*
G04 Created by KiCad (PCBNEW (5.0.2)-1) date 2/20/2019 3:00:44 PM*
%MOMM*%
%LPD*%
G01*
G04 APERTURE LIST*
%ADD10C,0.100000*%
G04 APERTURE END LIST*
D10*
G36*
X57740677Y-61533665D02*
X57778364Y-61545098D01*
X57813103Y-61563666D01*
X57843548Y-61588652D01*
X57868534Y-61619097D01*
X57887102Y-61653836D01*
X57898535Y-61691523D01*
X57903000Y-61736861D01*
X57903000Y-62573539D01*
X57898535Y-62618877D01*
X57887102Y-62656564D01*
X57868534Y-62691303D01*
X57843548Y-62721748D01*
X57813103Y-62746734D01*
X57778364Y-62765302D01*
X57740677Y-62776735D01*
X57695339Y-62781200D01*
X56608661Y-62781200D01*
X56563323Y-62776735D01*
X56525636Y-62765302D01*
X56490897Y-62746734D01*
X56460452Y-62721748D01*
X56435466Y-62691303D01*
X56416898Y-62656564D01*
X56405465Y-62618877D01*
X56401000Y-62573539D01*
X56401000Y-61736861D01*
X56405465Y-61691523D01*
X56416898Y-61653836D01*
X56435466Y-61619097D01*
X56460452Y-61588652D01*
X56490897Y-61563666D01*
X56525636Y-61545098D01*
X56563323Y-61533665D01*
X56608661Y-61529200D01*
X57695339Y-61529200D01*
X57740677Y-61533665D01*
X57740677Y-61533665D01*
G37*
G36*
X60026677Y-61533665D02*
X60064364Y-61545098D01*
X60099103Y-61563666D01*
X60129548Y-61588652D01*
X60154534Y-61619097D01*
X60173102Y-61653836D01*
X60184535Y-61691523D01*
X60189000Y-61736861D01*
X60189000Y-62573539D01*
X60184535Y-62618877D01*
X60173102Y-62656564D01*
X60154534Y-62691303D01*
X60129548Y-62721748D01*
X60099103Y-62746734D01*
X60064364Y-62765302D01*
X60026677Y-62776735D01*
X59981339Y-62781200D01*
X58894661Y-62781200D01*
X58849323Y-62776735D01*
X58811636Y-62765302D01*
X58776897Y-62746734D01*
X58746452Y-62721748D01*
X58721466Y-62691303D01*
X58702898Y-62656564D01*
X58691465Y-62618877D01*
X58687000Y-62573539D01*
X58687000Y-61736861D01*
X58691465Y-61691523D01*
X58702898Y-61653836D01*
X58721466Y-61619097D01*
X58746452Y-61588652D01*
X58776897Y-61563666D01*
X58811636Y-61545098D01*
X58849323Y-61533665D01*
X58894661Y-61529200D01*
X59981339Y-61529200D01*
X60026677Y-61533665D01*
X60026677Y-61533665D01*
G37*
G36*
X55518177Y-61520965D02*
X55555864Y-61532398D01*
X55590603Y-61550966D01*
X55621048Y-61575952D01*
X55646034Y-61606397D01*
X55664602Y-61641136D01*
X55676035Y-61678823D01*
X55680500Y-61724161D01*
X55680500Y-62560839D01*
X55676035Y-62606177D01*
X55664602Y-62643864D01*
X55646034Y-62678603D01*
X55621048Y-62709048D01*
X55590603Y-62734034D01*
X55555864Y-62752602D01*
X55518177Y-62764035D01*
X55472839Y-62768500D01*
X54386161Y-62768500D01*
X54340823Y-62764035D01*
X54303136Y-62752602D01*
X54268397Y-62734034D01*
X54237952Y-62709048D01*
X54212966Y-62678603D01*
X54194398Y-62643864D01*
X54182965Y-62606177D01*
X54178500Y-62560839D01*
X54178500Y-61724161D01*
X54182965Y-61678823D01*
X54194398Y-61641136D01*
X54212966Y-61606397D01*
X54237952Y-61575952D01*
X54268397Y-61550966D01*
X54303136Y-61532398D01*
X54340823Y-61520965D01*
X54386161Y-61516500D01*
X55472839Y-61516500D01*
X55518177Y-61520965D01*
X55518177Y-61520965D01*
G37*
G36*
X53486177Y-61520965D02*
X53523864Y-61532398D01*
X53558603Y-61550966D01*
X53589048Y-61575952D01*
X53614034Y-61606397D01*
X53632602Y-61641136D01*
X53644035Y-61678823D01*
X53648500Y-61724161D01*
X53648500Y-62560839D01*
X53644035Y-62606177D01*
X53632602Y-62643864D01*
X53614034Y-62678603D01*
X53589048Y-62709048D01*
X53558603Y-62734034D01*
X53523864Y-62752602D01*
X53486177Y-62764035D01*
X53440839Y-62768500D01*
X52354161Y-62768500D01*
X52308823Y-62764035D01*
X52271136Y-62752602D01*
X52236397Y-62734034D01*
X52205952Y-62709048D01*
X52180966Y-62678603D01*
X52162398Y-62643864D01*
X52150965Y-62606177D01*
X52146500Y-62560839D01*
X52146500Y-61724161D01*
X52150965Y-61678823D01*
X52162398Y-61641136D01*
X52180966Y-61606397D01*
X52205952Y-61575952D01*
X52236397Y-61550966D01*
X52271136Y-61532398D01*
X52308823Y-61520965D01*
X52354161Y-61516500D01*
X53440839Y-61516500D01*
X53486177Y-61520965D01*
X53486177Y-61520965D01*
G37*
G36*
X62877177Y-61259965D02*
X62914864Y-61271398D01*
X62949603Y-61289966D01*
X62980048Y-61314952D01*
X63005034Y-61345397D01*
X63023602Y-61380136D01*
X63035035Y-61417823D01*
X63039500Y-61463161D01*
X63039500Y-62549839D01*
X63035035Y-62595177D01*
X63023602Y-62632864D01*
X63005034Y-62667603D01*
X62980048Y-62698048D01*
X62949603Y-62723034D01*
X62914864Y-62741602D01*
X62877177Y-62753035D01*
X62831839Y-62757500D01*
X61995161Y-62757500D01*
X61949823Y-62753035D01*
X61912136Y-62741602D01*
X61877397Y-62723034D01*
X61846952Y-62698048D01*
X61821966Y-62667603D01*
X61803398Y-62632864D01*
X61791965Y-62595177D01*
X61787500Y-62549839D01*
X61787500Y-61463161D01*
X61791965Y-61417823D01*
X61803398Y-61380136D01*
X61821966Y-61345397D01*
X61846952Y-61314952D01*
X61877397Y-61289966D01*
X61912136Y-61271398D01*
X61949823Y-61259965D01*
X61995161Y-61255500D01*
X62831839Y-61255500D01*
X62877177Y-61259965D01*
X62877177Y-61259965D01*
G37*
G36*
X64927177Y-61259965D02*
X64964864Y-61271398D01*
X64999603Y-61289966D01*
X65030048Y-61314952D01*
X65055034Y-61345397D01*
X65073602Y-61380136D01*
X65085035Y-61417823D01*
X65089500Y-61463161D01*
X65089500Y-62549839D01*
X65085035Y-62595177D01*
X65073602Y-62632864D01*
X65055034Y-62667603D01*
X65030048Y-62698048D01*
X64999603Y-62723034D01*
X64964864Y-62741602D01*
X64927177Y-62753035D01*
X64881839Y-62757500D01*
X64045161Y-62757500D01*
X63999823Y-62753035D01*
X63962136Y-62741602D01*
X63927397Y-62723034D01*
X63896952Y-62698048D01*
X63871966Y-62667603D01*
X63853398Y-62632864D01*
X63841965Y-62595177D01*
X63837500Y-62549839D01*
X63837500Y-61463161D01*
X63841965Y-61417823D01*
X63853398Y-61380136D01*
X63871966Y-61345397D01*
X63896952Y-61314952D01*
X63927397Y-61289966D01*
X63962136Y-61271398D01*
X63999823Y-61259965D01*
X64045161Y-61255500D01*
X64881839Y-61255500D01*
X64927177Y-61259965D01*
X64927177Y-61259965D01*
G37*
G36*
X78088677Y-60403465D02*
X78126364Y-60414898D01*
X78161103Y-60433466D01*
X78191548Y-60458452D01*
X78216534Y-60488897D01*
X78235102Y-60523636D01*
X78246535Y-60561323D01*
X78251000Y-60606661D01*
X78251000Y-61443339D01*
X78246535Y-61488677D01*
X78235102Y-61526364D01*
X78216534Y-61561103D01*
X78191548Y-61591548D01*
X78161103Y-61616534D01*
X78126364Y-61635102D01*
X78088677Y-61646535D01*
X78043339Y-61651000D01*
X76956661Y-61651000D01*
X76911323Y-61646535D01*
X76873636Y-61635102D01*
X76838897Y-61616534D01*
X76808452Y-61591548D01*
X76783466Y-61561103D01*
X76764898Y-61526364D01*
X76753465Y-61488677D01*
X76749000Y-61443339D01*
X76749000Y-60606661D01*
X76753465Y-60561323D01*
X76764898Y-60523636D01*
X76783466Y-60488897D01*
X76808452Y-60458452D01*
X76838897Y-60433466D01*
X76873636Y-60414898D01*
X76911323Y-60403465D01*
X76956661Y-60399000D01*
X78043339Y-60399000D01*
X78088677Y-60403465D01*
X78088677Y-60403465D01*
G37*
G36*
X75926000Y-61056000D02*
X74274000Y-61056000D01*
X74274000Y-60354000D01*
X75926000Y-60354000D01*
X75926000Y-61056000D01*
X75926000Y-61056000D01*
G37*
G36*
X70526000Y-61056000D02*
X68874000Y-61056000D01*
X68874000Y-60354000D01*
X70526000Y-60354000D01*
X70526000Y-61056000D01*
X70526000Y-61056000D01*
G37*
G36*
X47798252Y-56897818D02*
X47798254Y-56897819D01*
X47798255Y-56897819D01*
X48171513Y-57052427D01*
X48441036Y-57232517D01*
X48507439Y-57276886D01*
X48793114Y-57562561D01*
X48793116Y-57562564D01*
X49017573Y-57898487D01*
X49172181Y-58271745D01*
X49172182Y-58271748D01*
X49251000Y-58667993D01*
X49251000Y-59072007D01*
X49178065Y-59438677D01*
X49172181Y-59468255D01*
X49017573Y-59841513D01*
X49017572Y-59841514D01*
X48793114Y-60177439D01*
X48507439Y-60463114D01*
X48507436Y-60463116D01*
X48171513Y-60687573D01*
X47798255Y-60842181D01*
X47798254Y-60842181D01*
X47798252Y-60842182D01*
X47402007Y-60921000D01*
X46997993Y-60921000D01*
X46601748Y-60842182D01*
X46601746Y-60842181D01*
X46601745Y-60842181D01*
X46228487Y-60687573D01*
X45892564Y-60463116D01*
X45892561Y-60463114D01*
X45606886Y-60177439D01*
X45382428Y-59841514D01*
X45382427Y-59841513D01*
X45227819Y-59468255D01*
X45221936Y-59438677D01*
X45149000Y-59072007D01*
X45149000Y-58667993D01*
X45227818Y-58271748D01*
X45227819Y-58271745D01*
X45382427Y-57898487D01*
X45606884Y-57562564D01*
X45606886Y-57562561D01*
X45892561Y-57276886D01*
X45958964Y-57232517D01*
X46228487Y-57052427D01*
X46601745Y-56897819D01*
X46601746Y-56897819D01*
X46601748Y-56897818D01*
X46997993Y-56819000D01*
X47402007Y-56819000D01*
X47798252Y-56897818D01*
X47798252Y-56897818D01*
G37*
G36*
X60026677Y-59483665D02*
X60064364Y-59495098D01*
X60099103Y-59513666D01*
X60129548Y-59538652D01*
X60154534Y-59569097D01*
X60173102Y-59603836D01*
X60184535Y-59641523D01*
X60189000Y-59686861D01*
X60189000Y-60523539D01*
X60184535Y-60568877D01*
X60173102Y-60606564D01*
X60154534Y-60641303D01*
X60129548Y-60671748D01*
X60099103Y-60696734D01*
X60064364Y-60715302D01*
X60026677Y-60726735D01*
X59981339Y-60731200D01*
X58894661Y-60731200D01*
X58849323Y-60726735D01*
X58811636Y-60715302D01*
X58776897Y-60696734D01*
X58746452Y-60671748D01*
X58721466Y-60641303D01*
X58702898Y-60606564D01*
X58691465Y-60568877D01*
X58687000Y-60523539D01*
X58687000Y-59686861D01*
X58691465Y-59641523D01*
X58702898Y-59603836D01*
X58721466Y-59569097D01*
X58746452Y-59538652D01*
X58776897Y-59513666D01*
X58811636Y-59495098D01*
X58849323Y-59483665D01*
X58894661Y-59479200D01*
X59981339Y-59479200D01*
X60026677Y-59483665D01*
X60026677Y-59483665D01*
G37*
G36*
X57740677Y-59483665D02*
X57778364Y-59495098D01*
X57813103Y-59513666D01*
X57843548Y-59538652D01*
X57868534Y-59569097D01*
X57887102Y-59603836D01*
X57898535Y-59641523D01*
X57903000Y-59686861D01*
X57903000Y-60523539D01*
X57898535Y-60568877D01*
X57887102Y-60606564D01*
X57868534Y-60641303D01*
X57843548Y-60671748D01*
X57813103Y-60696734D01*
X57778364Y-60715302D01*
X57740677Y-60726735D01*
X57695339Y-60731200D01*
X56608661Y-60731200D01*
X56563323Y-60726735D01*
X56525636Y-60715302D01*
X56490897Y-60696734D01*
X56460452Y-60671748D01*
X56435466Y-60641303D01*
X56416898Y-60606564D01*
X56405465Y-60568877D01*
X56401000Y-60523539D01*
X56401000Y-59686861D01*
X56405465Y-59641523D01*
X56416898Y-59603836D01*
X56435466Y-59569097D01*
X56460452Y-59538652D01*
X56490897Y-59513666D01*
X56525636Y-59495098D01*
X56563323Y-59483665D01*
X56608661Y-59479200D01*
X57695339Y-59479200D01*
X57740677Y-59483665D01*
X57740677Y-59483665D01*
G37*
G36*
X55518177Y-59470965D02*
X55555864Y-59482398D01*
X55590603Y-59500966D01*
X55621048Y-59525952D01*
X55646034Y-59556397D01*
X55664602Y-59591136D01*
X55676035Y-59628823D01*
X55680500Y-59674161D01*
X55680500Y-60510839D01*
X55676035Y-60556177D01*
X55664602Y-60593864D01*
X55646034Y-60628603D01*
X55621048Y-60659048D01*
X55590603Y-60684034D01*
X55555864Y-60702602D01*
X55518177Y-60714035D01*
X55472839Y-60718500D01*
X54386161Y-60718500D01*
X54340823Y-60714035D01*
X54303136Y-60702602D01*
X54268397Y-60684034D01*
X54237952Y-60659048D01*
X54212966Y-60628603D01*
X54194398Y-60593864D01*
X54182965Y-60556177D01*
X54178500Y-60510839D01*
X54178500Y-59674161D01*
X54182965Y-59628823D01*
X54194398Y-59591136D01*
X54212966Y-59556397D01*
X54237952Y-59525952D01*
X54268397Y-59500966D01*
X54303136Y-59482398D01*
X54340823Y-59470965D01*
X54386161Y-59466500D01*
X55472839Y-59466500D01*
X55518177Y-59470965D01*
X55518177Y-59470965D01*
G37*
G36*
X53486177Y-59470965D02*
X53523864Y-59482398D01*
X53558603Y-59500966D01*
X53589048Y-59525952D01*
X53614034Y-59556397D01*
X53632602Y-59591136D01*
X53644035Y-59628823D01*
X53648500Y-59674161D01*
X53648500Y-60510839D01*
X53644035Y-60556177D01*
X53632602Y-60593864D01*
X53614034Y-60628603D01*
X53589048Y-60659048D01*
X53558603Y-60684034D01*
X53523864Y-60702602D01*
X53486177Y-60714035D01*
X53440839Y-60718500D01*
X52354161Y-60718500D01*
X52308823Y-60714035D01*
X52271136Y-60702602D01*
X52236397Y-60684034D01*
X52205952Y-60659048D01*
X52180966Y-60628603D01*
X52162398Y-60593864D01*
X52150965Y-60556177D01*
X52146500Y-60510839D01*
X52146500Y-59674161D01*
X52150965Y-59628823D01*
X52162398Y-59591136D01*
X52180966Y-59556397D01*
X52205952Y-59525952D01*
X52236397Y-59500966D01*
X52271136Y-59482398D01*
X52308823Y-59470965D01*
X52354161Y-59466500D01*
X53440839Y-59466500D01*
X53486177Y-59470965D01*
X53486177Y-59470965D01*
G37*
G36*
X62919500Y-60157500D02*
X61757500Y-60157500D01*
X61757500Y-57505500D01*
X62919500Y-57505500D01*
X62919500Y-60157500D01*
X62919500Y-60157500D01*
G37*
G36*
X65119500Y-60157500D02*
X63957500Y-60157500D01*
X63957500Y-59405500D01*
X65119500Y-59405500D01*
X65119500Y-60157500D01*
X65119500Y-60157500D01*
G37*
G36*
X75926000Y-59786000D02*
X74274000Y-59786000D01*
X74274000Y-59084000D01*
X75926000Y-59084000D01*
X75926000Y-59786000D01*
X75926000Y-59786000D01*
G37*
G36*
X70526000Y-59786000D02*
X68874000Y-59786000D01*
X68874000Y-59084000D01*
X70526000Y-59084000D01*
X70526000Y-59786000D01*
X70526000Y-59786000D01*
G37*
G36*
X78088677Y-58353465D02*
X78126364Y-58364898D01*
X78161103Y-58383466D01*
X78191548Y-58408452D01*
X78216534Y-58438897D01*
X78235102Y-58473636D01*
X78246535Y-58511323D01*
X78251000Y-58556661D01*
X78251000Y-59393339D01*
X78246535Y-59438677D01*
X78235102Y-59476364D01*
X78216534Y-59511103D01*
X78191548Y-59541548D01*
X78161103Y-59566534D01*
X78126364Y-59585102D01*
X78088677Y-59596535D01*
X78043339Y-59601000D01*
X76956661Y-59601000D01*
X76911323Y-59596535D01*
X76873636Y-59585102D01*
X76838897Y-59566534D01*
X76808452Y-59541548D01*
X76783466Y-59511103D01*
X76764898Y-59476364D01*
X76753465Y-59438677D01*
X76749000Y-59393339D01*
X76749000Y-58556661D01*
X76753465Y-58511323D01*
X76764898Y-58473636D01*
X76783466Y-58438897D01*
X76808452Y-58408452D01*
X76838897Y-58383466D01*
X76873636Y-58364898D01*
X76911323Y-58353465D01*
X76956661Y-58349000D01*
X78043339Y-58349000D01*
X78088677Y-58353465D01*
X78088677Y-58353465D01*
G37*
G36*
X55402177Y-57068965D02*
X55439864Y-57080398D01*
X55474603Y-57098966D01*
X55505048Y-57123952D01*
X55530034Y-57154397D01*
X55548602Y-57189136D01*
X55560035Y-57226823D01*
X55564500Y-57272161D01*
X55564500Y-58358839D01*
X55560035Y-58404177D01*
X55548602Y-58441864D01*
X55530034Y-58476603D01*
X55505048Y-58507048D01*
X55474603Y-58532034D01*
X55439864Y-58550602D01*
X55402177Y-58562035D01*
X55356839Y-58566500D01*
X54520161Y-58566500D01*
X54474823Y-58562035D01*
X54437136Y-58550602D01*
X54402397Y-58532034D01*
X54371952Y-58507048D01*
X54346966Y-58476603D01*
X54328398Y-58441864D01*
X54316965Y-58404177D01*
X54312500Y-58358839D01*
X54312500Y-57272161D01*
X54316965Y-57226823D01*
X54328398Y-57189136D01*
X54346966Y-57154397D01*
X54371952Y-57123952D01*
X54402397Y-57098966D01*
X54437136Y-57080398D01*
X54474823Y-57068965D01*
X54520161Y-57064500D01*
X55356839Y-57064500D01*
X55402177Y-57068965D01*
X55402177Y-57068965D01*
G37*
G36*
X53352177Y-57068965D02*
X53389864Y-57080398D01*
X53424603Y-57098966D01*
X53455048Y-57123952D01*
X53480034Y-57154397D01*
X53498602Y-57189136D01*
X53510035Y-57226823D01*
X53514500Y-57272161D01*
X53514500Y-58358839D01*
X53510035Y-58404177D01*
X53498602Y-58441864D01*
X53480034Y-58476603D01*
X53455048Y-58507048D01*
X53424603Y-58532034D01*
X53389864Y-58550602D01*
X53352177Y-58562035D01*
X53306839Y-58566500D01*
X52470161Y-58566500D01*
X52424823Y-58562035D01*
X52387136Y-58550602D01*
X52352397Y-58532034D01*
X52321952Y-58507048D01*
X52296966Y-58476603D01*
X52278398Y-58441864D01*
X52266965Y-58404177D01*
X52262500Y-58358839D01*
X52262500Y-57272161D01*
X52266965Y-57226823D01*
X52278398Y-57189136D01*
X52296966Y-57154397D01*
X52321952Y-57123952D01*
X52352397Y-57098966D01*
X52387136Y-57080398D01*
X52424823Y-57068965D01*
X52470161Y-57064500D01*
X53306839Y-57064500D01*
X53352177Y-57068965D01*
X53352177Y-57068965D01*
G37*
G36*
X59720177Y-57068965D02*
X59757864Y-57080398D01*
X59792603Y-57098966D01*
X59823048Y-57123952D01*
X59848034Y-57154397D01*
X59866602Y-57189136D01*
X59878035Y-57226823D01*
X59882500Y-57272161D01*
X59882500Y-58358839D01*
X59878035Y-58404177D01*
X59866602Y-58441864D01*
X59848034Y-58476603D01*
X59823048Y-58507048D01*
X59792603Y-58532034D01*
X59757864Y-58550602D01*
X59720177Y-58562035D01*
X59674839Y-58566500D01*
X58838161Y-58566500D01*
X58792823Y-58562035D01*
X58755136Y-58550602D01*
X58720397Y-58532034D01*
X58689952Y-58507048D01*
X58664966Y-58476603D01*
X58646398Y-58441864D01*
X58634965Y-58404177D01*
X58630500Y-58358839D01*
X58630500Y-57272161D01*
X58634965Y-57226823D01*
X58646398Y-57189136D01*
X58664966Y-57154397D01*
X58689952Y-57123952D01*
X58720397Y-57098966D01*
X58755136Y-57080398D01*
X58792823Y-57068965D01*
X58838161Y-57064500D01*
X59674839Y-57064500D01*
X59720177Y-57068965D01*
X59720177Y-57068965D01*
G37*
G36*
X57670177Y-57068965D02*
X57707864Y-57080398D01*
X57742603Y-57098966D01*
X57773048Y-57123952D01*
X57798034Y-57154397D01*
X57816602Y-57189136D01*
X57828035Y-57226823D01*
X57832500Y-57272161D01*
X57832500Y-58358839D01*
X57828035Y-58404177D01*
X57816602Y-58441864D01*
X57798034Y-58476603D01*
X57773048Y-58507048D01*
X57742603Y-58532034D01*
X57707864Y-58550602D01*
X57670177Y-58562035D01*
X57624839Y-58566500D01*
X56788161Y-58566500D01*
X56742823Y-58562035D01*
X56705136Y-58550602D01*
X56670397Y-58532034D01*
X56639952Y-58507048D01*
X56614966Y-58476603D01*
X56596398Y-58441864D01*
X56584965Y-58404177D01*
X56580500Y-58358839D01*
X56580500Y-57272161D01*
X56584965Y-57226823D01*
X56596398Y-57189136D01*
X56614966Y-57154397D01*
X56639952Y-57123952D01*
X56670397Y-57098966D01*
X56705136Y-57080398D01*
X56742823Y-57068965D01*
X56788161Y-57064500D01*
X57624839Y-57064500D01*
X57670177Y-57068965D01*
X57670177Y-57068965D01*
G37*
G36*
X70526000Y-58516000D02*
X68874000Y-58516000D01*
X68874000Y-57814000D01*
X70526000Y-57814000D01*
X70526000Y-58516000D01*
X70526000Y-58516000D01*
G37*
G36*
X75926000Y-58516000D02*
X74274000Y-58516000D01*
X74274000Y-57814000D01*
X75926000Y-57814000D01*
X75926000Y-58516000D01*
X75926000Y-58516000D01*
G37*
G36*
X65119500Y-58257500D02*
X63957500Y-58257500D01*
X63957500Y-57505500D01*
X65119500Y-57505500D01*
X65119500Y-58257500D01*
X65119500Y-58257500D01*
G37*
G36*
X85042477Y-56593465D02*
X85080164Y-56604898D01*
X85114903Y-56623466D01*
X85145348Y-56648452D01*
X85170334Y-56678897D01*
X85188902Y-56713636D01*
X85200335Y-56751323D01*
X85204800Y-56796661D01*
X85204800Y-57883339D01*
X85200335Y-57928677D01*
X85188902Y-57966364D01*
X85170334Y-58001103D01*
X85145348Y-58031548D01*
X85114903Y-58056534D01*
X85080164Y-58075102D01*
X85042477Y-58086535D01*
X84997139Y-58091000D01*
X84160461Y-58091000D01*
X84115123Y-58086535D01*
X84077436Y-58075102D01*
X84042697Y-58056534D01*
X84012252Y-58031548D01*
X83987266Y-58001103D01*
X83968698Y-57966364D01*
X83957265Y-57928677D01*
X83952800Y-57883339D01*
X83952800Y-56796661D01*
X83957265Y-56751323D01*
X83968698Y-56713636D01*
X83987266Y-56678897D01*
X84012252Y-56648452D01*
X84042697Y-56623466D01*
X84077436Y-56604898D01*
X84115123Y-56593465D01*
X84160461Y-56589000D01*
X84997139Y-56589000D01*
X85042477Y-56593465D01*
X85042477Y-56593465D01*
G37*
G36*
X82992477Y-56593465D02*
X83030164Y-56604898D01*
X83064903Y-56623466D01*
X83095348Y-56648452D01*
X83120334Y-56678897D01*
X83138902Y-56713636D01*
X83150335Y-56751323D01*
X83154800Y-56796661D01*
X83154800Y-57883339D01*
X83150335Y-57928677D01*
X83138902Y-57966364D01*
X83120334Y-58001103D01*
X83095348Y-58031548D01*
X83064903Y-58056534D01*
X83030164Y-58075102D01*
X82992477Y-58086535D01*
X82947139Y-58091000D01*
X82110461Y-58091000D01*
X82065123Y-58086535D01*
X82027436Y-58075102D01*
X81992697Y-58056534D01*
X81962252Y-58031548D01*
X81937266Y-58001103D01*
X81918698Y-57966364D01*
X81907265Y-57928677D01*
X81902800Y-57883339D01*
X81902800Y-56796661D01*
X81907265Y-56751323D01*
X81918698Y-56713636D01*
X81937266Y-56678897D01*
X81962252Y-56648452D01*
X81992697Y-56623466D01*
X82027436Y-56604898D01*
X82065123Y-56593465D01*
X82110461Y-56589000D01*
X82947139Y-56589000D01*
X82992477Y-56593465D01*
X82992477Y-56593465D01*
G37*
G36*
X75926000Y-57246000D02*
X74274000Y-57246000D01*
X74274000Y-56544000D01*
X75926000Y-56544000D01*
X75926000Y-57246000D01*
X75926000Y-57246000D01*
G37*
G36*
X70526000Y-57246000D02*
X68874000Y-57246000D01*
X68874000Y-56544000D01*
X70526000Y-56544000D01*
X70526000Y-57246000D01*
X70526000Y-57246000D01*
G37*
G36*
X54438677Y-54753465D02*
X54476364Y-54764898D01*
X54511103Y-54783466D01*
X54541548Y-54808452D01*
X54566534Y-54838897D01*
X54585102Y-54873636D01*
X54596535Y-54911323D01*
X54601000Y-54956661D01*
X54601000Y-56043339D01*
X54596535Y-56088677D01*
X54585102Y-56126364D01*
X54566534Y-56161103D01*
X54541548Y-56191548D01*
X54511103Y-56216534D01*
X54476364Y-56235102D01*
X54438677Y-56246535D01*
X54393339Y-56251000D01*
X53556661Y-56251000D01*
X53511323Y-56246535D01*
X53473636Y-56235102D01*
X53438897Y-56216534D01*
X53408452Y-56191548D01*
X53383466Y-56161103D01*
X53364898Y-56126364D01*
X53353465Y-56088677D01*
X53349000Y-56043339D01*
X53349000Y-54956661D01*
X53353465Y-54911323D01*
X53364898Y-54873636D01*
X53383466Y-54838897D01*
X53408452Y-54808452D01*
X53438897Y-54783466D01*
X53473636Y-54764898D01*
X53511323Y-54753465D01*
X53556661Y-54749000D01*
X54393339Y-54749000D01*
X54438677Y-54753465D01*
X54438677Y-54753465D01*
G37*
G36*
X56488677Y-54753465D02*
X56526364Y-54764898D01*
X56561103Y-54783466D01*
X56591548Y-54808452D01*
X56616534Y-54838897D01*
X56635102Y-54873636D01*
X56646535Y-54911323D01*
X56651000Y-54956661D01*
X56651000Y-56043339D01*
X56646535Y-56088677D01*
X56635102Y-56126364D01*
X56616534Y-56161103D01*
X56591548Y-56191548D01*
X56561103Y-56216534D01*
X56526364Y-56235102D01*
X56488677Y-56246535D01*
X56443339Y-56251000D01*
X55606661Y-56251000D01*
X55561323Y-56246535D01*
X55523636Y-56235102D01*
X55488897Y-56216534D01*
X55458452Y-56191548D01*
X55433466Y-56161103D01*
X55414898Y-56126364D01*
X55403465Y-56088677D01*
X55399000Y-56043339D01*
X55399000Y-54956661D01*
X55403465Y-54911323D01*
X55414898Y-54873636D01*
X55433466Y-54838897D01*
X55458452Y-54808452D01*
X55488897Y-54783466D01*
X55523636Y-54764898D01*
X55561323Y-54753465D01*
X55606661Y-54749000D01*
X56443339Y-54749000D01*
X56488677Y-54753465D01*
X56488677Y-54753465D01*
G37*
G36*
X82992477Y-54434465D02*
X83030164Y-54445898D01*
X83064903Y-54464466D01*
X83095348Y-54489452D01*
X83120334Y-54519897D01*
X83138902Y-54554636D01*
X83150335Y-54592323D01*
X83154800Y-54637661D01*
X83154800Y-55724339D01*
X83150335Y-55769677D01*
X83138902Y-55807364D01*
X83120334Y-55842103D01*
X83095348Y-55872548D01*
X83064903Y-55897534D01*
X83030164Y-55916102D01*
X82992477Y-55927535D01*
X82947139Y-55932000D01*
X82110461Y-55932000D01*
X82065123Y-55927535D01*
X82027436Y-55916102D01*
X81992697Y-55897534D01*
X81962252Y-55872548D01*
X81937266Y-55842103D01*
X81918698Y-55807364D01*
X81907265Y-55769677D01*
X81902800Y-55724339D01*
X81902800Y-54637661D01*
X81907265Y-54592323D01*
X81918698Y-54554636D01*
X81937266Y-54519897D01*
X81962252Y-54489452D01*
X81992697Y-54464466D01*
X82027436Y-54445898D01*
X82065123Y-54434465D01*
X82110461Y-54430000D01*
X82947139Y-54430000D01*
X82992477Y-54434465D01*
X82992477Y-54434465D01*
G37*
G36*
X85042477Y-54434465D02*
X85080164Y-54445898D01*
X85114903Y-54464466D01*
X85145348Y-54489452D01*
X85170334Y-54519897D01*
X85188902Y-54554636D01*
X85200335Y-54592323D01*
X85204800Y-54637661D01*
X85204800Y-55724339D01*
X85200335Y-55769677D01*
X85188902Y-55807364D01*
X85170334Y-55842103D01*
X85145348Y-55872548D01*
X85114903Y-55897534D01*
X85080164Y-55916102D01*
X85042477Y-55927535D01*
X84997139Y-55932000D01*
X84160461Y-55932000D01*
X84115123Y-55927535D01*
X84077436Y-55916102D01*
X84042697Y-55897534D01*
X84012252Y-55872548D01*
X83987266Y-55842103D01*
X83968698Y-55807364D01*
X83957265Y-55769677D01*
X83952800Y-55724339D01*
X83952800Y-54637661D01*
X83957265Y-54592323D01*
X83968698Y-54554636D01*
X83987266Y-54519897D01*
X84012252Y-54489452D01*
X84042697Y-54464466D01*
X84077436Y-54445898D01*
X84115123Y-54434465D01*
X84160461Y-54430000D01*
X84997139Y-54430000D01*
X85042477Y-54434465D01*
X85042477Y-54434465D01*
G37*
G36*
X77563677Y-54053465D02*
X77601364Y-54064898D01*
X77636103Y-54083466D01*
X77666548Y-54108452D01*
X77691534Y-54138897D01*
X77710102Y-54173636D01*
X77721535Y-54211323D01*
X77726000Y-54256661D01*
X77726000Y-55343339D01*
X77721535Y-55388677D01*
X77710102Y-55426364D01*
X77691534Y-55461103D01*
X77666548Y-55491548D01*
X77636103Y-55516534D01*
X77601364Y-55535102D01*
X77563677Y-55546535D01*
X77518339Y-55551000D01*
X76681661Y-55551000D01*
X76636323Y-55546535D01*
X76598636Y-55535102D01*
X76563897Y-55516534D01*
X76533452Y-55491548D01*
X76508466Y-55461103D01*
X76489898Y-55426364D01*
X76478465Y-55388677D01*
X76474000Y-55343339D01*
X76474000Y-54256661D01*
X76478465Y-54211323D01*
X76489898Y-54173636D01*
X76508466Y-54138897D01*
X76533452Y-54108452D01*
X76563897Y-54083466D01*
X76598636Y-54064898D01*
X76636323Y-54053465D01*
X76681661Y-54049000D01*
X77518339Y-54049000D01*
X77563677Y-54053465D01*
X77563677Y-54053465D01*
G37*
G36*
X75513677Y-54053465D02*
X75551364Y-54064898D01*
X75586103Y-54083466D01*
X75616548Y-54108452D01*
X75641534Y-54138897D01*
X75660102Y-54173636D01*
X75671535Y-54211323D01*
X75676000Y-54256661D01*
X75676000Y-55343339D01*
X75671535Y-55388677D01*
X75660102Y-55426364D01*
X75641534Y-55461103D01*
X75616548Y-55491548D01*
X75586103Y-55516534D01*
X75551364Y-55535102D01*
X75513677Y-55546535D01*
X75468339Y-55551000D01*
X74631661Y-55551000D01*
X74586323Y-55546535D01*
X74548636Y-55535102D01*
X74513897Y-55516534D01*
X74483452Y-55491548D01*
X74458466Y-55461103D01*
X74439898Y-55426364D01*
X74428465Y-55388677D01*
X74424000Y-55343339D01*
X74424000Y-54256661D01*
X74428465Y-54211323D01*
X74439898Y-54173636D01*
X74458466Y-54138897D01*
X74483452Y-54108452D01*
X74513897Y-54083466D01*
X74548636Y-54064898D01*
X74586323Y-54053465D01*
X74631661Y-54049000D01*
X75468339Y-54049000D01*
X75513677Y-54053465D01*
X75513677Y-54053465D01*
G37*
G36*
X85234800Y-53332000D02*
X84072800Y-53332000D01*
X84072800Y-52580000D01*
X85234800Y-52580000D01*
X85234800Y-53332000D01*
X85234800Y-53332000D01*
G37*
G36*
X83034800Y-53332000D02*
X81872800Y-53332000D01*
X81872800Y-50680000D01*
X83034800Y-50680000D01*
X83034800Y-53332000D01*
X83034800Y-53332000D01*
G37*
G36*
X48351000Y-52761000D02*
X46649000Y-52761000D01*
X46649000Y-51059000D01*
X48351000Y-51059000D01*
X48351000Y-52761000D01*
X48351000Y-52761000D01*
G37*
G36*
X75613677Y-50553465D02*
X75651364Y-50564898D01*
X75686103Y-50583466D01*
X75716548Y-50608452D01*
X75741534Y-50638897D01*
X75760102Y-50673636D01*
X75771535Y-50711323D01*
X75776000Y-50756661D01*
X75776000Y-51843339D01*
X75771535Y-51888677D01*
X75760102Y-51926364D01*
X75741534Y-51961103D01*
X75716548Y-51991548D01*
X75686103Y-52016534D01*
X75651364Y-52035102D01*
X75613677Y-52046535D01*
X75568339Y-52051000D01*
X74731661Y-52051000D01*
X74686323Y-52046535D01*
X74648636Y-52035102D01*
X74613897Y-52016534D01*
X74583452Y-51991548D01*
X74558466Y-51961103D01*
X74539898Y-51926364D01*
X74528465Y-51888677D01*
X74524000Y-51843339D01*
X74524000Y-50756661D01*
X74528465Y-50711323D01*
X74539898Y-50673636D01*
X74558466Y-50638897D01*
X74583452Y-50608452D01*
X74613897Y-50583466D01*
X74648636Y-50564898D01*
X74686323Y-50553465D01*
X74731661Y-50549000D01*
X75568339Y-50549000D01*
X75613677Y-50553465D01*
X75613677Y-50553465D01*
G37*
G36*
X77663677Y-50553465D02*
X77701364Y-50564898D01*
X77736103Y-50583466D01*
X77766548Y-50608452D01*
X77791534Y-50638897D01*
X77810102Y-50673636D01*
X77821535Y-50711323D01*
X77826000Y-50756661D01*
X77826000Y-51843339D01*
X77821535Y-51888677D01*
X77810102Y-51926364D01*
X77791534Y-51961103D01*
X77766548Y-51991548D01*
X77736103Y-52016534D01*
X77701364Y-52035102D01*
X77663677Y-52046535D01*
X77618339Y-52051000D01*
X76781661Y-52051000D01*
X76736323Y-52046535D01*
X76698636Y-52035102D01*
X76663897Y-52016534D01*
X76633452Y-51991548D01*
X76608466Y-51961103D01*
X76589898Y-51926364D01*
X76578465Y-51888677D01*
X76574000Y-51843339D01*
X76574000Y-50756661D01*
X76578465Y-50711323D01*
X76589898Y-50673636D01*
X76608466Y-50638897D01*
X76633452Y-50608452D01*
X76663897Y-50583466D01*
X76698636Y-50564898D01*
X76736323Y-50553465D01*
X76781661Y-50549000D01*
X77618339Y-50549000D01*
X77663677Y-50553465D01*
X77663677Y-50553465D01*
G37*
G36*
X85234800Y-51432000D02*
X84072800Y-51432000D01*
X84072800Y-50680000D01*
X85234800Y-50680000D01*
X85234800Y-51432000D01*
X85234800Y-51432000D01*
G37*
G36*
X44908228Y-49706703D02*
X45063100Y-49770853D01*
X45202481Y-49863985D01*
X45321015Y-49982519D01*
X45414147Y-50121900D01*
X45478297Y-50276772D01*
X45511000Y-50441184D01*
X45511000Y-50608816D01*
X45478297Y-50773228D01*
X45414147Y-50928100D01*
X45321015Y-51067481D01*
X45202481Y-51186015D01*
X45063100Y-51279147D01*
X44908228Y-51343297D01*
X44743816Y-51376000D01*
X44576184Y-51376000D01*
X44411772Y-51343297D01*
X44256900Y-51279147D01*
X44117519Y-51186015D01*
X43998985Y-51067481D01*
X43905853Y-50928100D01*
X43841703Y-50773228D01*
X43809000Y-50608816D01*
X43809000Y-50441184D01*
X43841703Y-50276772D01*
X43905853Y-50121900D01*
X43998985Y-49982519D01*
X44117519Y-49863985D01*
X44256900Y-49770853D01*
X44411772Y-49706703D01*
X44576184Y-49674000D01*
X44743816Y-49674000D01*
X44908228Y-49706703D01*
X44908228Y-49706703D01*
G37*
G36*
X64800177Y-49791865D02*
X64837864Y-49803298D01*
X64872603Y-49821866D01*
X64903048Y-49846852D01*
X64928034Y-49877297D01*
X64946602Y-49912036D01*
X64958035Y-49949723D01*
X64962500Y-49995061D01*
X64962500Y-51081739D01*
X64958035Y-51127077D01*
X64946602Y-51164764D01*
X64928034Y-51199503D01*
X64903048Y-51229948D01*
X64872603Y-51254934D01*
X64837864Y-51273502D01*
X64800177Y-51284935D01*
X64754839Y-51289400D01*
X63918161Y-51289400D01*
X63872823Y-51284935D01*
X63835136Y-51273502D01*
X63800397Y-51254934D01*
X63769952Y-51229948D01*
X63744966Y-51199503D01*
X63726398Y-51164764D01*
X63714965Y-51127077D01*
X63710500Y-51081739D01*
X63710500Y-49995061D01*
X63714965Y-49949723D01*
X63726398Y-49912036D01*
X63744966Y-49877297D01*
X63769952Y-49846852D01*
X63800397Y-49821866D01*
X63835136Y-49803298D01*
X63872823Y-49791865D01*
X63918161Y-49787400D01*
X64754839Y-49787400D01*
X64800177Y-49791865D01*
X64800177Y-49791865D01*
G37*
G36*
X62750177Y-49791865D02*
X62787864Y-49803298D01*
X62822603Y-49821866D01*
X62853048Y-49846852D01*
X62878034Y-49877297D01*
X62896602Y-49912036D01*
X62908035Y-49949723D01*
X62912500Y-49995061D01*
X62912500Y-51081739D01*
X62908035Y-51127077D01*
X62896602Y-51164764D01*
X62878034Y-51199503D01*
X62853048Y-51229948D01*
X62822603Y-51254934D01*
X62787864Y-51273502D01*
X62750177Y-51284935D01*
X62704839Y-51289400D01*
X61868161Y-51289400D01*
X61822823Y-51284935D01*
X61785136Y-51273502D01*
X61750397Y-51254934D01*
X61719952Y-51229948D01*
X61694966Y-51199503D01*
X61676398Y-51164764D01*
X61664965Y-51127077D01*
X61660500Y-51081739D01*
X61660500Y-49995061D01*
X61664965Y-49949723D01*
X61676398Y-49912036D01*
X61694966Y-49877297D01*
X61719952Y-49846852D01*
X61750397Y-49821866D01*
X61785136Y-49803298D01*
X61822823Y-49791865D01*
X61868161Y-49787400D01*
X62704839Y-49787400D01*
X62750177Y-49791865D01*
X62750177Y-49791865D01*
G37*
G36*
X59975877Y-49925865D02*
X60013564Y-49937298D01*
X60048303Y-49955866D01*
X60078748Y-49980852D01*
X60103734Y-50011297D01*
X60122302Y-50046036D01*
X60133735Y-50083723D01*
X60138200Y-50129061D01*
X60138200Y-50965739D01*
X60133735Y-51011077D01*
X60122302Y-51048764D01*
X60103734Y-51083503D01*
X60078748Y-51113948D01*
X60048303Y-51138934D01*
X60013564Y-51157502D01*
X59975877Y-51168935D01*
X59930539Y-51173400D01*
X58843861Y-51173400D01*
X58798523Y-51168935D01*
X58760836Y-51157502D01*
X58726097Y-51138934D01*
X58695652Y-51113948D01*
X58670666Y-51083503D01*
X58652098Y-51048764D01*
X58640665Y-51011077D01*
X58636200Y-50965739D01*
X58636200Y-50129061D01*
X58640665Y-50083723D01*
X58652098Y-50046036D01*
X58670666Y-50011297D01*
X58695652Y-49980852D01*
X58726097Y-49955866D01*
X58760836Y-49937298D01*
X58798523Y-49925865D01*
X58843861Y-49921400D01*
X59930539Y-49921400D01*
X59975877Y-49925865D01*
X59975877Y-49925865D01*
G37*
G36*
X55708677Y-49925865D02*
X55746364Y-49937298D01*
X55781103Y-49955866D01*
X55811548Y-49980852D01*
X55836534Y-50011297D01*
X55855102Y-50046036D01*
X55866535Y-50083723D01*
X55871000Y-50129061D01*
X55871000Y-50965739D01*
X55866535Y-51011077D01*
X55855102Y-51048764D01*
X55836534Y-51083503D01*
X55811548Y-51113948D01*
X55781103Y-51138934D01*
X55746364Y-51157502D01*
X55708677Y-51168935D01*
X55663339Y-51173400D01*
X54576661Y-51173400D01*
X54531323Y-51168935D01*
X54493636Y-51157502D01*
X54458897Y-51138934D01*
X54428452Y-51113948D01*
X54403466Y-51083503D01*
X54384898Y-51048764D01*
X54373465Y-51011077D01*
X54369000Y-50965739D01*
X54369000Y-50129061D01*
X54373465Y-50083723D01*
X54384898Y-50046036D01*
X54403466Y-50011297D01*
X54428452Y-49980852D01*
X54458897Y-49955866D01*
X54493636Y-49937298D01*
X54531323Y-49925865D01*
X54576661Y-49921400D01*
X55663339Y-49921400D01*
X55708677Y-49925865D01*
X55708677Y-49925865D01*
G37*
G36*
X53524277Y-49925865D02*
X53561964Y-49937298D01*
X53596703Y-49955866D01*
X53627148Y-49980852D01*
X53652134Y-50011297D01*
X53670702Y-50046036D01*
X53682135Y-50083723D01*
X53686600Y-50129061D01*
X53686600Y-50965739D01*
X53682135Y-51011077D01*
X53670702Y-51048764D01*
X53652134Y-51083503D01*
X53627148Y-51113948D01*
X53596703Y-51138934D01*
X53561964Y-51157502D01*
X53524277Y-51168935D01*
X53478939Y-51173400D01*
X52392261Y-51173400D01*
X52346923Y-51168935D01*
X52309236Y-51157502D01*
X52274497Y-51138934D01*
X52244052Y-51113948D01*
X52219066Y-51083503D01*
X52200498Y-51048764D01*
X52189065Y-51011077D01*
X52184600Y-50965739D01*
X52184600Y-50129061D01*
X52189065Y-50083723D01*
X52200498Y-50046036D01*
X52219066Y-50011297D01*
X52244052Y-49980852D01*
X52274497Y-49955866D01*
X52309236Y-49937298D01*
X52346923Y-49925865D01*
X52392261Y-49921400D01*
X53478939Y-49921400D01*
X53524277Y-49925865D01*
X53524277Y-49925865D01*
G37*
G36*
X57893077Y-49925865D02*
X57930764Y-49937298D01*
X57965503Y-49955866D01*
X57995948Y-49980852D01*
X58020934Y-50011297D01*
X58039502Y-50046036D01*
X58050935Y-50083723D01*
X58055400Y-50129061D01*
X58055400Y-50965739D01*
X58050935Y-51011077D01*
X58039502Y-51048764D01*
X58020934Y-51083503D01*
X57995948Y-51113948D01*
X57965503Y-51138934D01*
X57930764Y-51157502D01*
X57893077Y-51168935D01*
X57847739Y-51173400D01*
X56761061Y-51173400D01*
X56715723Y-51168935D01*
X56678036Y-51157502D01*
X56643297Y-51138934D01*
X56612852Y-51113948D01*
X56587866Y-51083503D01*
X56569298Y-51048764D01*
X56557865Y-51011077D01*
X56553400Y-50965739D01*
X56553400Y-50129061D01*
X56557865Y-50083723D01*
X56569298Y-50046036D01*
X56587866Y-50011297D01*
X56612852Y-49980852D01*
X56643297Y-49955866D01*
X56678036Y-49937298D01*
X56715723Y-49925865D01*
X56761061Y-49921400D01*
X57847739Y-49921400D01*
X57893077Y-49925865D01*
X57893077Y-49925865D01*
G37*
G36*
X47748228Y-48321703D02*
X47903100Y-48385853D01*
X48042481Y-48478985D01*
X48161015Y-48597519D01*
X48254147Y-48736900D01*
X48318297Y-48891772D01*
X48351000Y-49056184D01*
X48351000Y-49223816D01*
X48318297Y-49388228D01*
X48254147Y-49543100D01*
X48161015Y-49682481D01*
X48042481Y-49801015D01*
X47903100Y-49894147D01*
X47748228Y-49958297D01*
X47583816Y-49991000D01*
X47416184Y-49991000D01*
X47251772Y-49958297D01*
X47096900Y-49894147D01*
X46957519Y-49801015D01*
X46838985Y-49682481D01*
X46745853Y-49543100D01*
X46681703Y-49388228D01*
X46649000Y-49223816D01*
X46649000Y-49056184D01*
X46681703Y-48891772D01*
X46745853Y-48736900D01*
X46838985Y-48597519D01*
X46957519Y-48478985D01*
X47096900Y-48385853D01*
X47251772Y-48321703D01*
X47416184Y-48289000D01*
X47583816Y-48289000D01*
X47748228Y-48321703D01*
X47748228Y-48321703D01*
G37*
G36*
X84966277Y-48160665D02*
X85003964Y-48172098D01*
X85038703Y-48190666D01*
X85069148Y-48215652D01*
X85094134Y-48246097D01*
X85112702Y-48280836D01*
X85124135Y-48318523D01*
X85128600Y-48363861D01*
X85128600Y-49450539D01*
X85124135Y-49495877D01*
X85112702Y-49533564D01*
X85094134Y-49568303D01*
X85069148Y-49598748D01*
X85038703Y-49623734D01*
X85003964Y-49642302D01*
X84966277Y-49653735D01*
X84920939Y-49658200D01*
X84084261Y-49658200D01*
X84038923Y-49653735D01*
X84001236Y-49642302D01*
X83966497Y-49623734D01*
X83936052Y-49598748D01*
X83911066Y-49568303D01*
X83892498Y-49533564D01*
X83881065Y-49495877D01*
X83876600Y-49450539D01*
X83876600Y-48363861D01*
X83881065Y-48318523D01*
X83892498Y-48280836D01*
X83911066Y-48246097D01*
X83936052Y-48215652D01*
X83966497Y-48190666D01*
X84001236Y-48172098D01*
X84038923Y-48160665D01*
X84084261Y-48156200D01*
X84920939Y-48156200D01*
X84966277Y-48160665D01*
X84966277Y-48160665D01*
G37*
G36*
X82916277Y-48160665D02*
X82953964Y-48172098D01*
X82988703Y-48190666D01*
X83019148Y-48215652D01*
X83044134Y-48246097D01*
X83062702Y-48280836D01*
X83074135Y-48318523D01*
X83078600Y-48363861D01*
X83078600Y-49450539D01*
X83074135Y-49495877D01*
X83062702Y-49533564D01*
X83044134Y-49568303D01*
X83019148Y-49598748D01*
X82988703Y-49623734D01*
X82953964Y-49642302D01*
X82916277Y-49653735D01*
X82870939Y-49658200D01*
X82034261Y-49658200D01*
X81988923Y-49653735D01*
X81951236Y-49642302D01*
X81916497Y-49623734D01*
X81886052Y-49598748D01*
X81861066Y-49568303D01*
X81842498Y-49533564D01*
X81831065Y-49495877D01*
X81826600Y-49450539D01*
X81826600Y-48363861D01*
X81831065Y-48318523D01*
X81842498Y-48280836D01*
X81861066Y-48246097D01*
X81886052Y-48215652D01*
X81916497Y-48190666D01*
X81951236Y-48172098D01*
X81988923Y-48160665D01*
X82034261Y-48156200D01*
X82870939Y-48156200D01*
X82916277Y-48160665D01*
X82916277Y-48160665D01*
G37*
G36*
X57893077Y-47875865D02*
X57930764Y-47887298D01*
X57965503Y-47905866D01*
X57995948Y-47930852D01*
X58020934Y-47961297D01*
X58039502Y-47996036D01*
X58050935Y-48033723D01*
X58055400Y-48079061D01*
X58055400Y-48915739D01*
X58050935Y-48961077D01*
X58039502Y-48998764D01*
X58020934Y-49033503D01*
X57995948Y-49063948D01*
X57965503Y-49088934D01*
X57930764Y-49107502D01*
X57893077Y-49118935D01*
X57847739Y-49123400D01*
X56761061Y-49123400D01*
X56715723Y-49118935D01*
X56678036Y-49107502D01*
X56643297Y-49088934D01*
X56612852Y-49063948D01*
X56587866Y-49033503D01*
X56569298Y-48998764D01*
X56557865Y-48961077D01*
X56553400Y-48915739D01*
X56553400Y-48079061D01*
X56557865Y-48033723D01*
X56569298Y-47996036D01*
X56587866Y-47961297D01*
X56612852Y-47930852D01*
X56643297Y-47905866D01*
X56678036Y-47887298D01*
X56715723Y-47875865D01*
X56761061Y-47871400D01*
X57847739Y-47871400D01*
X57893077Y-47875865D01*
X57893077Y-47875865D01*
G37*
G36*
X53524277Y-47875865D02*
X53561964Y-47887298D01*
X53596703Y-47905866D01*
X53627148Y-47930852D01*
X53652134Y-47961297D01*
X53670702Y-47996036D01*
X53682135Y-48033723D01*
X53686600Y-48079061D01*
X53686600Y-48915739D01*
X53682135Y-48961077D01*
X53670702Y-48998764D01*
X53652134Y-49033503D01*
X53627148Y-49063948D01*
X53596703Y-49088934D01*
X53561964Y-49107502D01*
X53524277Y-49118935D01*
X53478939Y-49123400D01*
X52392261Y-49123400D01*
X52346923Y-49118935D01*
X52309236Y-49107502D01*
X52274497Y-49088934D01*
X52244052Y-49063948D01*
X52219066Y-49033503D01*
X52200498Y-48998764D01*
X52189065Y-48961077D01*
X52184600Y-48915739D01*
X52184600Y-48079061D01*
X52189065Y-48033723D01*
X52200498Y-47996036D01*
X52219066Y-47961297D01*
X52244052Y-47930852D01*
X52274497Y-47905866D01*
X52309236Y-47887298D01*
X52346923Y-47875865D01*
X52392261Y-47871400D01*
X53478939Y-47871400D01*
X53524277Y-47875865D01*
X53524277Y-47875865D01*
G37*
G36*
X59975877Y-47875865D02*
X60013564Y-47887298D01*
X60048303Y-47905866D01*
X60078748Y-47930852D01*
X60103734Y-47961297D01*
X60122302Y-47996036D01*
X60133735Y-48033723D01*
X60138200Y-48079061D01*
X60138200Y-48915739D01*
X60133735Y-48961077D01*
X60122302Y-48998764D01*
X60103734Y-49033503D01*
X60078748Y-49063948D01*
X60048303Y-49088934D01*
X60013564Y-49107502D01*
X59975877Y-49118935D01*
X59930539Y-49123400D01*
X58843861Y-49123400D01*
X58798523Y-49118935D01*
X58760836Y-49107502D01*
X58726097Y-49088934D01*
X58695652Y-49063948D01*
X58670666Y-49033503D01*
X58652098Y-48998764D01*
X58640665Y-48961077D01*
X58636200Y-48915739D01*
X58636200Y-48079061D01*
X58640665Y-48033723D01*
X58652098Y-47996036D01*
X58670666Y-47961297D01*
X58695652Y-47930852D01*
X58726097Y-47905866D01*
X58760836Y-47887298D01*
X58798523Y-47875865D01*
X58843861Y-47871400D01*
X59930539Y-47871400D01*
X59975877Y-47875865D01*
X59975877Y-47875865D01*
G37*
G36*
X55708677Y-47875865D02*
X55746364Y-47887298D01*
X55781103Y-47905866D01*
X55811548Y-47930852D01*
X55836534Y-47961297D01*
X55855102Y-47996036D01*
X55866535Y-48033723D01*
X55871000Y-48079061D01*
X55871000Y-48915739D01*
X55866535Y-48961077D01*
X55855102Y-48998764D01*
X55836534Y-49033503D01*
X55811548Y-49063948D01*
X55781103Y-49088934D01*
X55746364Y-49107502D01*
X55708677Y-49118935D01*
X55663339Y-49123400D01*
X54576661Y-49123400D01*
X54531323Y-49118935D01*
X54493636Y-49107502D01*
X54458897Y-49088934D01*
X54428452Y-49063948D01*
X54403466Y-49033503D01*
X54384898Y-48998764D01*
X54373465Y-48961077D01*
X54369000Y-48915739D01*
X54369000Y-48079061D01*
X54373465Y-48033723D01*
X54384898Y-47996036D01*
X54403466Y-47961297D01*
X54428452Y-47930852D01*
X54458897Y-47905866D01*
X54493636Y-47887298D01*
X54531323Y-47875865D01*
X54576661Y-47871400D01*
X55663339Y-47871400D01*
X55708677Y-47875865D01*
X55708677Y-47875865D01*
G37*
G36*
X71677678Y-47316465D02*
X71715365Y-47327898D01*
X71750104Y-47346466D01*
X71780549Y-47371452D01*
X71805535Y-47401897D01*
X71824103Y-47436636D01*
X71835536Y-47474323D01*
X71840001Y-47519661D01*
X71840001Y-48606339D01*
X71835536Y-48651677D01*
X71824103Y-48689364D01*
X71805535Y-48724103D01*
X71780549Y-48754548D01*
X71750104Y-48779534D01*
X71715365Y-48798102D01*
X71677678Y-48809535D01*
X71632340Y-48814000D01*
X70795662Y-48814000D01*
X70750324Y-48809535D01*
X70712637Y-48798102D01*
X70677898Y-48779534D01*
X70647453Y-48754548D01*
X70622467Y-48724103D01*
X70603899Y-48689364D01*
X70592466Y-48651677D01*
X70588001Y-48606339D01*
X70588001Y-47519661D01*
X70592466Y-47474323D01*
X70603899Y-47436636D01*
X70622467Y-47401897D01*
X70647453Y-47371452D01*
X70677898Y-47346466D01*
X70712637Y-47327898D01*
X70750324Y-47316465D01*
X70795662Y-47312000D01*
X71632340Y-47312000D01*
X71677678Y-47316465D01*
X71677678Y-47316465D01*
G37*
G36*
X69627678Y-47316465D02*
X69665365Y-47327898D01*
X69700104Y-47346466D01*
X69730549Y-47371452D01*
X69755535Y-47401897D01*
X69774103Y-47436636D01*
X69785536Y-47474323D01*
X69790001Y-47519661D01*
X69790001Y-48606339D01*
X69785536Y-48651677D01*
X69774103Y-48689364D01*
X69755535Y-48724103D01*
X69730549Y-48754548D01*
X69700104Y-48779534D01*
X69665365Y-48798102D01*
X69627678Y-48809535D01*
X69582340Y-48814000D01*
X68745662Y-48814000D01*
X68700324Y-48809535D01*
X68662637Y-48798102D01*
X68627898Y-48779534D01*
X68597453Y-48754548D01*
X68572467Y-48724103D01*
X68553899Y-48689364D01*
X68542466Y-48651677D01*
X68538001Y-48606339D01*
X68538001Y-47519661D01*
X68542466Y-47474323D01*
X68553899Y-47436636D01*
X68572467Y-47401897D01*
X68597453Y-47371452D01*
X68627898Y-47346466D01*
X68662637Y-47327898D01*
X68700324Y-47316465D01*
X68745662Y-47312000D01*
X69582340Y-47312000D01*
X69627678Y-47316465D01*
X69627678Y-47316465D01*
G37*
G36*
X75437678Y-47241466D02*
X75475365Y-47252899D01*
X75510104Y-47271467D01*
X75540549Y-47296453D01*
X75565535Y-47326898D01*
X75584103Y-47361637D01*
X75595536Y-47399324D01*
X75600001Y-47444662D01*
X75600001Y-48531340D01*
X75595536Y-48576678D01*
X75584103Y-48614365D01*
X75565535Y-48649104D01*
X75540549Y-48679549D01*
X75510104Y-48704535D01*
X75475365Y-48723103D01*
X75437678Y-48734536D01*
X75392340Y-48739001D01*
X74555662Y-48739001D01*
X74510324Y-48734536D01*
X74472637Y-48723103D01*
X74437898Y-48704535D01*
X74407453Y-48679549D01*
X74382467Y-48649104D01*
X74363899Y-48614365D01*
X74352466Y-48576678D01*
X74348001Y-48531340D01*
X74348001Y-47444662D01*
X74352466Y-47399324D01*
X74363899Y-47361637D01*
X74382467Y-47326898D01*
X74407453Y-47296453D01*
X74437898Y-47271467D01*
X74472637Y-47252899D01*
X74510324Y-47241466D01*
X74555662Y-47237001D01*
X75392340Y-47237001D01*
X75437678Y-47241466D01*
X75437678Y-47241466D01*
G37*
G36*
X73387678Y-47241466D02*
X73425365Y-47252899D01*
X73460104Y-47271467D01*
X73490549Y-47296453D01*
X73515535Y-47326898D01*
X73534103Y-47361637D01*
X73545536Y-47399324D01*
X73550001Y-47444662D01*
X73550001Y-48531340D01*
X73545536Y-48576678D01*
X73534103Y-48614365D01*
X73515535Y-48649104D01*
X73490549Y-48679549D01*
X73460104Y-48704535D01*
X73425365Y-48723103D01*
X73387678Y-48734536D01*
X73342340Y-48739001D01*
X72505662Y-48739001D01*
X72460324Y-48734536D01*
X72422637Y-48723103D01*
X72387898Y-48704535D01*
X72357453Y-48679549D01*
X72332467Y-48649104D01*
X72313899Y-48614365D01*
X72302466Y-48576678D01*
X72298001Y-48531340D01*
X72298001Y-47444662D01*
X72302466Y-47399324D01*
X72313899Y-47361637D01*
X72332467Y-47326898D01*
X72357453Y-47296453D01*
X72387898Y-47271467D01*
X72422637Y-47252899D01*
X72460324Y-47241466D01*
X72505662Y-47237001D01*
X73342340Y-47237001D01*
X73387678Y-47241466D01*
X73387678Y-47241466D01*
G37*
G36*
X65119500Y-48689400D02*
X63957500Y-48689400D01*
X63957500Y-47937400D01*
X65119500Y-47937400D01*
X65119500Y-48689400D01*
X65119500Y-48689400D01*
G37*
G36*
X62919500Y-48689400D02*
X61757500Y-48689400D01*
X61757500Y-46037400D01*
X62919500Y-46037400D01*
X62919500Y-48689400D01*
X62919500Y-48689400D01*
G37*
G36*
X44908228Y-46936703D02*
X45063100Y-47000853D01*
X45202481Y-47093985D01*
X45321015Y-47212519D01*
X45414147Y-47351900D01*
X45478297Y-47506772D01*
X45511000Y-47671184D01*
X45511000Y-47838816D01*
X45478297Y-48003228D01*
X45414147Y-48158100D01*
X45321015Y-48297481D01*
X45202481Y-48416015D01*
X45063100Y-48509147D01*
X44908228Y-48573297D01*
X44743816Y-48606000D01*
X44576184Y-48606000D01*
X44411772Y-48573297D01*
X44256900Y-48509147D01*
X44117519Y-48416015D01*
X43998985Y-48297481D01*
X43905853Y-48158100D01*
X43841703Y-48003228D01*
X43809000Y-47838816D01*
X43809000Y-47671184D01*
X43841703Y-47506772D01*
X43905853Y-47351900D01*
X43998985Y-47212519D01*
X44117519Y-47093985D01*
X44256900Y-47000853D01*
X44411772Y-46936703D01*
X44576184Y-46904000D01*
X44743816Y-46904000D01*
X44908228Y-46936703D01*
X44908228Y-46936703D01*
G37*
G36*
X47748228Y-45551703D02*
X47903100Y-45615853D01*
X48042481Y-45708985D01*
X48161015Y-45827519D01*
X48254147Y-45966900D01*
X48318297Y-46121772D01*
X48351000Y-46286184D01*
X48351000Y-46453816D01*
X48318297Y-46618228D01*
X48254147Y-46773100D01*
X48161015Y-46912481D01*
X48042481Y-47031015D01*
X47903100Y-47124147D01*
X47748228Y-47188297D01*
X47583816Y-47221000D01*
X47416184Y-47221000D01*
X47251772Y-47188297D01*
X47096900Y-47124147D01*
X46957519Y-47031015D01*
X46838985Y-46912481D01*
X46745853Y-46773100D01*
X46681703Y-46618228D01*
X46649000Y-46453816D01*
X46649000Y-46286184D01*
X46681703Y-46121772D01*
X46745853Y-45966900D01*
X46838985Y-45827519D01*
X46957519Y-45708985D01*
X47096900Y-45615853D01*
X47251772Y-45551703D01*
X47416184Y-45519000D01*
X47583816Y-45519000D01*
X47748228Y-45551703D01*
X47748228Y-45551703D01*
G37*
G36*
X59847177Y-45600865D02*
X59884864Y-45612298D01*
X59919603Y-45630866D01*
X59950048Y-45655852D01*
X59975034Y-45686297D01*
X59993602Y-45721036D01*
X60005035Y-45758723D01*
X60009500Y-45804061D01*
X60009500Y-46890739D01*
X60005035Y-46936077D01*
X59993602Y-46973764D01*
X59975034Y-47008503D01*
X59950048Y-47038948D01*
X59919603Y-47063934D01*
X59884864Y-47082502D01*
X59847177Y-47093935D01*
X59801839Y-47098400D01*
X58965161Y-47098400D01*
X58919823Y-47093935D01*
X58882136Y-47082502D01*
X58847397Y-47063934D01*
X58816952Y-47038948D01*
X58791966Y-47008503D01*
X58773398Y-46973764D01*
X58761965Y-46936077D01*
X58757500Y-46890739D01*
X58757500Y-45804061D01*
X58761965Y-45758723D01*
X58773398Y-45721036D01*
X58791966Y-45686297D01*
X58816952Y-45655852D01*
X58847397Y-45630866D01*
X58882136Y-45612298D01*
X58919823Y-45600865D01*
X58965161Y-45596400D01*
X59801839Y-45596400D01*
X59847177Y-45600865D01*
X59847177Y-45600865D01*
G37*
G36*
X57797177Y-45600865D02*
X57834864Y-45612298D01*
X57869603Y-45630866D01*
X57900048Y-45655852D01*
X57925034Y-45686297D01*
X57943602Y-45721036D01*
X57955035Y-45758723D01*
X57959500Y-45804061D01*
X57959500Y-46890739D01*
X57955035Y-46936077D01*
X57943602Y-46973764D01*
X57925034Y-47008503D01*
X57900048Y-47038948D01*
X57869603Y-47063934D01*
X57834864Y-47082502D01*
X57797177Y-47093935D01*
X57751839Y-47098400D01*
X56915161Y-47098400D01*
X56869823Y-47093935D01*
X56832136Y-47082502D01*
X56797397Y-47063934D01*
X56766952Y-47038948D01*
X56741966Y-47008503D01*
X56723398Y-46973764D01*
X56711965Y-46936077D01*
X56707500Y-46890739D01*
X56707500Y-45804061D01*
X56711965Y-45758723D01*
X56723398Y-45721036D01*
X56741966Y-45686297D01*
X56766952Y-45655852D01*
X56797397Y-45630866D01*
X56832136Y-45612298D01*
X56869823Y-45600865D01*
X56915161Y-45596400D01*
X57751839Y-45596400D01*
X57797177Y-45600865D01*
X57797177Y-45600865D01*
G37*
G36*
X55592677Y-45575465D02*
X55630364Y-45586898D01*
X55665103Y-45605466D01*
X55695548Y-45630452D01*
X55720534Y-45660897D01*
X55739102Y-45695636D01*
X55750535Y-45733323D01*
X55755000Y-45778661D01*
X55755000Y-46865339D01*
X55750535Y-46910677D01*
X55739102Y-46948364D01*
X55720534Y-46983103D01*
X55695548Y-47013548D01*
X55665103Y-47038534D01*
X55630364Y-47057102D01*
X55592677Y-47068535D01*
X55547339Y-47073000D01*
X54710661Y-47073000D01*
X54665323Y-47068535D01*
X54627636Y-47057102D01*
X54592897Y-47038534D01*
X54562452Y-47013548D01*
X54537466Y-46983103D01*
X54518898Y-46948364D01*
X54507465Y-46910677D01*
X54503000Y-46865339D01*
X54503000Y-45778661D01*
X54507465Y-45733323D01*
X54518898Y-45695636D01*
X54537466Y-45660897D01*
X54562452Y-45630452D01*
X54592897Y-45605466D01*
X54627636Y-45586898D01*
X54665323Y-45575465D01*
X54710661Y-45571000D01*
X55547339Y-45571000D01*
X55592677Y-45575465D01*
X55592677Y-45575465D01*
G37*
G36*
X53542677Y-45575465D02*
X53580364Y-45586898D01*
X53615103Y-45605466D01*
X53645548Y-45630452D01*
X53670534Y-45660897D01*
X53689102Y-45695636D01*
X53700535Y-45733323D01*
X53705000Y-45778661D01*
X53705000Y-46865339D01*
X53700535Y-46910677D01*
X53689102Y-46948364D01*
X53670534Y-46983103D01*
X53645548Y-47013548D01*
X53615103Y-47038534D01*
X53580364Y-47057102D01*
X53542677Y-47068535D01*
X53497339Y-47073000D01*
X52660661Y-47073000D01*
X52615323Y-47068535D01*
X52577636Y-47057102D01*
X52542897Y-47038534D01*
X52512452Y-47013548D01*
X52487466Y-46983103D01*
X52468898Y-46948364D01*
X52457465Y-46910677D01*
X52453000Y-46865339D01*
X52453000Y-45778661D01*
X52457465Y-45733323D01*
X52468898Y-45695636D01*
X52487466Y-45660897D01*
X52512452Y-45630452D01*
X52542897Y-45605466D01*
X52577636Y-45586898D01*
X52615323Y-45575465D01*
X52660661Y-45571000D01*
X53497339Y-45571000D01*
X53542677Y-45575465D01*
X53542677Y-45575465D01*
G37*
G36*
X65119500Y-46789400D02*
X63957500Y-46789400D01*
X63957500Y-46037400D01*
X65119500Y-46037400D01*
X65119500Y-46789400D01*
X65119500Y-46789400D01*
G37*
G36*
X44908228Y-44166703D02*
X45063100Y-44230853D01*
X45202481Y-44323985D01*
X45321015Y-44442519D01*
X45414147Y-44581900D01*
X45478297Y-44736772D01*
X45511000Y-44901184D01*
X45511000Y-45068816D01*
X45478297Y-45233228D01*
X45414147Y-45388100D01*
X45321015Y-45527481D01*
X45202481Y-45646015D01*
X45063100Y-45739147D01*
X44908228Y-45803297D01*
X44743816Y-45836000D01*
X44576184Y-45836000D01*
X44411772Y-45803297D01*
X44256900Y-45739147D01*
X44117519Y-45646015D01*
X43998985Y-45527481D01*
X43905853Y-45388100D01*
X43841703Y-45233228D01*
X43809000Y-45068816D01*
X43809000Y-44901184D01*
X43841703Y-44736772D01*
X43905853Y-44581900D01*
X43998985Y-44442519D01*
X44117519Y-44323985D01*
X44256900Y-44230853D01*
X44411772Y-44166703D01*
X44576184Y-44134000D01*
X44743816Y-44134000D01*
X44908228Y-44166703D01*
X44908228Y-44166703D01*
G37*
G36*
X73377677Y-43916465D02*
X73415364Y-43927898D01*
X73450103Y-43946466D01*
X73480548Y-43971452D01*
X73505534Y-44001897D01*
X73524102Y-44036636D01*
X73535535Y-44074323D01*
X73540000Y-44119661D01*
X73540000Y-45206339D01*
X73535535Y-45251677D01*
X73524102Y-45289364D01*
X73505534Y-45324103D01*
X73480548Y-45354548D01*
X73450103Y-45379534D01*
X73415364Y-45398102D01*
X73377677Y-45409535D01*
X73332339Y-45414000D01*
X72495661Y-45414000D01*
X72450323Y-45409535D01*
X72412636Y-45398102D01*
X72377897Y-45379534D01*
X72347452Y-45354548D01*
X72322466Y-45324103D01*
X72303898Y-45289364D01*
X72292465Y-45251677D01*
X72288000Y-45206339D01*
X72288000Y-44119661D01*
X72292465Y-44074323D01*
X72303898Y-44036636D01*
X72322466Y-44001897D01*
X72347452Y-43971452D01*
X72377897Y-43946466D01*
X72412636Y-43927898D01*
X72450323Y-43916465D01*
X72495661Y-43912000D01*
X73332339Y-43912000D01*
X73377677Y-43916465D01*
X73377677Y-43916465D01*
G37*
G36*
X75427677Y-43916465D02*
X75465364Y-43927898D01*
X75500103Y-43946466D01*
X75530548Y-43971452D01*
X75555534Y-44001897D01*
X75574102Y-44036636D01*
X75585535Y-44074323D01*
X75590000Y-44119661D01*
X75590000Y-45206339D01*
X75585535Y-45251677D01*
X75574102Y-45289364D01*
X75555534Y-45324103D01*
X75530548Y-45354548D01*
X75500103Y-45379534D01*
X75465364Y-45398102D01*
X75427677Y-45409535D01*
X75382339Y-45414000D01*
X74545661Y-45414000D01*
X74500323Y-45409535D01*
X74462636Y-45398102D01*
X74427897Y-45379534D01*
X74397452Y-45354548D01*
X74372466Y-45324103D01*
X74353898Y-45289364D01*
X74342465Y-45251677D01*
X74338000Y-45206339D01*
X74338000Y-44119661D01*
X74342465Y-44074323D01*
X74353898Y-44036636D01*
X74372466Y-44001897D01*
X74397452Y-43971452D01*
X74427897Y-43946466D01*
X74462636Y-43927898D01*
X74500323Y-43916465D01*
X74545661Y-43912000D01*
X75382339Y-43912000D01*
X75427677Y-43916465D01*
X75427677Y-43916465D01*
G37*
G36*
X71587678Y-43891466D02*
X71625365Y-43902899D01*
X71660104Y-43921467D01*
X71690549Y-43946453D01*
X71715535Y-43976898D01*
X71734103Y-44011637D01*
X71745536Y-44049324D01*
X71750001Y-44094662D01*
X71750001Y-45181340D01*
X71745536Y-45226678D01*
X71734103Y-45264365D01*
X71715535Y-45299104D01*
X71690549Y-45329549D01*
X71660104Y-45354535D01*
X71625365Y-45373103D01*
X71587678Y-45384536D01*
X71542340Y-45389001D01*
X70705662Y-45389001D01*
X70660324Y-45384536D01*
X70622637Y-45373103D01*
X70587898Y-45354535D01*
X70557453Y-45329549D01*
X70532467Y-45299104D01*
X70513899Y-45264365D01*
X70502466Y-45226678D01*
X70498001Y-45181340D01*
X70498001Y-44094662D01*
X70502466Y-44049324D01*
X70513899Y-44011637D01*
X70532467Y-43976898D01*
X70557453Y-43946453D01*
X70587898Y-43921467D01*
X70622637Y-43902899D01*
X70660324Y-43891466D01*
X70705662Y-43887001D01*
X71542340Y-43887001D01*
X71587678Y-43891466D01*
X71587678Y-43891466D01*
G37*
G36*
X69537678Y-43891466D02*
X69575365Y-43902899D01*
X69610104Y-43921467D01*
X69640549Y-43946453D01*
X69665535Y-43976898D01*
X69684103Y-44011637D01*
X69695536Y-44049324D01*
X69700001Y-44094662D01*
X69700001Y-45181340D01*
X69695536Y-45226678D01*
X69684103Y-45264365D01*
X69665535Y-45299104D01*
X69640549Y-45329549D01*
X69610104Y-45354535D01*
X69575365Y-45373103D01*
X69537678Y-45384536D01*
X69492340Y-45389001D01*
X68655662Y-45389001D01*
X68610324Y-45384536D01*
X68572637Y-45373103D01*
X68537898Y-45354535D01*
X68507453Y-45329549D01*
X68482467Y-45299104D01*
X68463899Y-45264365D01*
X68452466Y-45226678D01*
X68448001Y-45181340D01*
X68448001Y-44094662D01*
X68452466Y-44049324D01*
X68463899Y-44011637D01*
X68482467Y-43976898D01*
X68507453Y-43946453D01*
X68537898Y-43921467D01*
X68572637Y-43902899D01*
X68610324Y-43891466D01*
X68655662Y-43887001D01*
X69492340Y-43887001D01*
X69537678Y-43891466D01*
X69537678Y-43891466D01*
G37*
G36*
X54938677Y-43253465D02*
X54976364Y-43264898D01*
X55011103Y-43283466D01*
X55041548Y-43308452D01*
X55066534Y-43338897D01*
X55085102Y-43373636D01*
X55096535Y-43411323D01*
X55101000Y-43456661D01*
X55101000Y-44543339D01*
X55096535Y-44588677D01*
X55085102Y-44626364D01*
X55066534Y-44661103D01*
X55041548Y-44691548D01*
X55011103Y-44716534D01*
X54976364Y-44735102D01*
X54938677Y-44746535D01*
X54893339Y-44751000D01*
X54056661Y-44751000D01*
X54011323Y-44746535D01*
X53973636Y-44735102D01*
X53938897Y-44716534D01*
X53908452Y-44691548D01*
X53883466Y-44661103D01*
X53864898Y-44626364D01*
X53853465Y-44588677D01*
X53849000Y-44543339D01*
X53849000Y-43456661D01*
X53853465Y-43411323D01*
X53864898Y-43373636D01*
X53883466Y-43338897D01*
X53908452Y-43308452D01*
X53938897Y-43283466D01*
X53973636Y-43264898D01*
X54011323Y-43253465D01*
X54056661Y-43249000D01*
X54893339Y-43249000D01*
X54938677Y-43253465D01*
X54938677Y-43253465D01*
G37*
G36*
X56988677Y-43253465D02*
X57026364Y-43264898D01*
X57061103Y-43283466D01*
X57091548Y-43308452D01*
X57116534Y-43338897D01*
X57135102Y-43373636D01*
X57146535Y-43411323D01*
X57151000Y-43456661D01*
X57151000Y-44543339D01*
X57146535Y-44588677D01*
X57135102Y-44626364D01*
X57116534Y-44661103D01*
X57091548Y-44691548D01*
X57061103Y-44716534D01*
X57026364Y-44735102D01*
X56988677Y-44746535D01*
X56943339Y-44751000D01*
X56106661Y-44751000D01*
X56061323Y-44746535D01*
X56023636Y-44735102D01*
X55988897Y-44716534D01*
X55958452Y-44691548D01*
X55933466Y-44661103D01*
X55914898Y-44626364D01*
X55903465Y-44588677D01*
X55899000Y-44543339D01*
X55899000Y-43456661D01*
X55903465Y-43411323D01*
X55914898Y-43373636D01*
X55933466Y-43338897D01*
X55958452Y-43308452D01*
X55988897Y-43283466D01*
X56023636Y-43264898D01*
X56061323Y-43253465D01*
X56106661Y-43249000D01*
X56943339Y-43249000D01*
X56988677Y-43253465D01*
X56988677Y-43253465D01*
G37*
G36*
X47748228Y-42781703D02*
X47903100Y-42845853D01*
X48042481Y-42938985D01*
X48161015Y-43057519D01*
X48254147Y-43196900D01*
X48318297Y-43351772D01*
X48351000Y-43516184D01*
X48351000Y-43683816D01*
X48318297Y-43848228D01*
X48254147Y-44003100D01*
X48161015Y-44142481D01*
X48042481Y-44261015D01*
X47903100Y-44354147D01*
X47748228Y-44418297D01*
X47583816Y-44451000D01*
X47416184Y-44451000D01*
X47251772Y-44418297D01*
X47096900Y-44354147D01*
X46957519Y-44261015D01*
X46838985Y-44142481D01*
X46745853Y-44003100D01*
X46681703Y-43848228D01*
X46649000Y-43683816D01*
X46649000Y-43516184D01*
X46681703Y-43351772D01*
X46745853Y-43196900D01*
X46838985Y-43057519D01*
X46957519Y-42938985D01*
X47096900Y-42845853D01*
X47251772Y-42781703D01*
X47416184Y-42749000D01*
X47583816Y-42749000D01*
X47748228Y-42781703D01*
X47748228Y-42781703D01*
G37*
G36*
X44908228Y-41396703D02*
X45063100Y-41460853D01*
X45202481Y-41553985D01*
X45321015Y-41672519D01*
X45414147Y-41811900D01*
X45478297Y-41966772D01*
X45511000Y-42131184D01*
X45511000Y-42298816D01*
X45478297Y-42463228D01*
X45414147Y-42618100D01*
X45321015Y-42757481D01*
X45202481Y-42876015D01*
X45063100Y-42969147D01*
X44908228Y-43033297D01*
X44743816Y-43066000D01*
X44576184Y-43066000D01*
X44411772Y-43033297D01*
X44256900Y-42969147D01*
X44117519Y-42876015D01*
X43998985Y-42757481D01*
X43905853Y-42618100D01*
X43841703Y-42463228D01*
X43809000Y-42298816D01*
X43809000Y-42131184D01*
X43841703Y-41966772D01*
X43905853Y-41811900D01*
X43998985Y-41672519D01*
X44117519Y-41553985D01*
X44256900Y-41460853D01*
X44411772Y-41396703D01*
X44576184Y-41364000D01*
X44743816Y-41364000D01*
X44908228Y-41396703D01*
X44908228Y-41396703D01*
G37*
G36*
X47748228Y-40011703D02*
X47903100Y-40075853D01*
X48042481Y-40168985D01*
X48161015Y-40287519D01*
X48254147Y-40426900D01*
X48318297Y-40581772D01*
X48351000Y-40746184D01*
X48351000Y-40913816D01*
X48318297Y-41078228D01*
X48254147Y-41233100D01*
X48161015Y-41372481D01*
X48042481Y-41491015D01*
X47903100Y-41584147D01*
X47748228Y-41648297D01*
X47583816Y-41681000D01*
X47416184Y-41681000D01*
X47251772Y-41648297D01*
X47096900Y-41584147D01*
X46957519Y-41491015D01*
X46838985Y-41372481D01*
X46745853Y-41233100D01*
X46681703Y-41078228D01*
X46649000Y-40913816D01*
X46649000Y-40746184D01*
X46681703Y-40581772D01*
X46745853Y-40426900D01*
X46838985Y-40287519D01*
X46957519Y-40168985D01*
X47096900Y-40075853D01*
X47251772Y-40011703D01*
X47416184Y-39979000D01*
X47583816Y-39979000D01*
X47748228Y-40011703D01*
X47748228Y-40011703D01*
G37*
G36*
X61998600Y-40769400D02*
X58096600Y-40769400D01*
X58096600Y-38667400D01*
X61998600Y-38667400D01*
X61998600Y-40769400D01*
X61998600Y-40769400D01*
G37*
G36*
X65839662Y-38960281D02*
X65874577Y-38970873D01*
X65906765Y-38988078D01*
X65934973Y-39011227D01*
X65958122Y-39039435D01*
X65975327Y-39071623D01*
X65985919Y-39106538D01*
X65990100Y-39148995D01*
X65990100Y-40290205D01*
X65985919Y-40332662D01*
X65975327Y-40367577D01*
X65958122Y-40399765D01*
X65934973Y-40427973D01*
X65906765Y-40451122D01*
X65874577Y-40468327D01*
X65839662Y-40478919D01*
X65797205Y-40483100D01*
X64330995Y-40483100D01*
X64288538Y-40478919D01*
X64253623Y-40468327D01*
X64221435Y-40451122D01*
X64193227Y-40427973D01*
X64170078Y-40399765D01*
X64152873Y-40367577D01*
X64142281Y-40332662D01*
X64138100Y-40290205D01*
X64138100Y-39148995D01*
X64142281Y-39106538D01*
X64152873Y-39071623D01*
X64170078Y-39039435D01*
X64193227Y-39011227D01*
X64221435Y-38988078D01*
X64253623Y-38970873D01*
X64288538Y-38960281D01*
X64330995Y-38956100D01*
X65797205Y-38956100D01*
X65839662Y-38960281D01*
X65839662Y-38960281D01*
G37*
G36*
X68154677Y-39054665D02*
X68192364Y-39066098D01*
X68227103Y-39084666D01*
X68257548Y-39109652D01*
X68282534Y-39140097D01*
X68301102Y-39174836D01*
X68312535Y-39212523D01*
X68317000Y-39257861D01*
X68317000Y-40094539D01*
X68312535Y-40139877D01*
X68301102Y-40177564D01*
X68282534Y-40212303D01*
X68257548Y-40242748D01*
X68227103Y-40267734D01*
X68192364Y-40286302D01*
X68154677Y-40297735D01*
X68109339Y-40302200D01*
X67022661Y-40302200D01*
X66977323Y-40297735D01*
X66939636Y-40286302D01*
X66904897Y-40267734D01*
X66874452Y-40242748D01*
X66849466Y-40212303D01*
X66830898Y-40177564D01*
X66819465Y-40139877D01*
X66815000Y-40094539D01*
X66815000Y-39257861D01*
X66819465Y-39212523D01*
X66830898Y-39174836D01*
X66849466Y-39140097D01*
X66874452Y-39109652D01*
X66904897Y-39084666D01*
X66939636Y-39066098D01*
X66977323Y-39054665D01*
X67022661Y-39050200D01*
X68109339Y-39050200D01*
X68154677Y-39054665D01*
X68154677Y-39054665D01*
G37*
G36*
X70491477Y-39054665D02*
X70529164Y-39066098D01*
X70563903Y-39084666D01*
X70594348Y-39109652D01*
X70619334Y-39140097D01*
X70637902Y-39174836D01*
X70649335Y-39212523D01*
X70653800Y-39257861D01*
X70653800Y-40094539D01*
X70649335Y-40139877D01*
X70637902Y-40177564D01*
X70619334Y-40212303D01*
X70594348Y-40242748D01*
X70563903Y-40267734D01*
X70529164Y-40286302D01*
X70491477Y-40297735D01*
X70446139Y-40302200D01*
X69359461Y-40302200D01*
X69314123Y-40297735D01*
X69276436Y-40286302D01*
X69241697Y-40267734D01*
X69211252Y-40242748D01*
X69186266Y-40212303D01*
X69167698Y-40177564D01*
X69156265Y-40139877D01*
X69151800Y-40094539D01*
X69151800Y-39257861D01*
X69156265Y-39212523D01*
X69167698Y-39174836D01*
X69186266Y-39140097D01*
X69211252Y-39109652D01*
X69241697Y-39084666D01*
X69276436Y-39066098D01*
X69314123Y-39054665D01*
X69359461Y-39050200D01*
X70446139Y-39050200D01*
X70491477Y-39054665D01*
X70491477Y-39054665D01*
G37*
G36*
X68154677Y-37004665D02*
X68192364Y-37016098D01*
X68227103Y-37034666D01*
X68257548Y-37059652D01*
X68282534Y-37090097D01*
X68301102Y-37124836D01*
X68312535Y-37162523D01*
X68317000Y-37207861D01*
X68317000Y-38044539D01*
X68312535Y-38089877D01*
X68301102Y-38127564D01*
X68282534Y-38162303D01*
X68257548Y-38192748D01*
X68227103Y-38217734D01*
X68192364Y-38236302D01*
X68154677Y-38247735D01*
X68109339Y-38252200D01*
X67022661Y-38252200D01*
X66977323Y-38247735D01*
X66939636Y-38236302D01*
X66904897Y-38217734D01*
X66874452Y-38192748D01*
X66849466Y-38162303D01*
X66830898Y-38127564D01*
X66819465Y-38089877D01*
X66815000Y-38044539D01*
X66815000Y-37207861D01*
X66819465Y-37162523D01*
X66830898Y-37124836D01*
X66849466Y-37090097D01*
X66874452Y-37059652D01*
X66904897Y-37034666D01*
X66939636Y-37016098D01*
X66977323Y-37004665D01*
X67022661Y-37000200D01*
X68109339Y-37000200D01*
X68154677Y-37004665D01*
X68154677Y-37004665D01*
G37*
G36*
X70491477Y-37004665D02*
X70529164Y-37016098D01*
X70563903Y-37034666D01*
X70594348Y-37059652D01*
X70619334Y-37090097D01*
X70637902Y-37124836D01*
X70649335Y-37162523D01*
X70653800Y-37207861D01*
X70653800Y-38044539D01*
X70649335Y-38089877D01*
X70637902Y-38127564D01*
X70619334Y-38162303D01*
X70594348Y-38192748D01*
X70563903Y-38217734D01*
X70529164Y-38236302D01*
X70491477Y-38247735D01*
X70446139Y-38252200D01*
X69359461Y-38252200D01*
X69314123Y-38247735D01*
X69276436Y-38236302D01*
X69241697Y-38217734D01*
X69211252Y-38192748D01*
X69186266Y-38162303D01*
X69167698Y-38127564D01*
X69156265Y-38089877D01*
X69151800Y-38044539D01*
X69151800Y-37207861D01*
X69156265Y-37162523D01*
X69167698Y-37124836D01*
X69186266Y-37090097D01*
X69211252Y-37059652D01*
X69241697Y-37034666D01*
X69276436Y-37016098D01*
X69314123Y-37004665D01*
X69359461Y-37000200D01*
X70446139Y-37000200D01*
X70491477Y-37004665D01*
X70491477Y-37004665D01*
G37*
G36*
X65839662Y-35985281D02*
X65874577Y-35995873D01*
X65906765Y-36013078D01*
X65934973Y-36036227D01*
X65958122Y-36064435D01*
X65975327Y-36096623D01*
X65985919Y-36131538D01*
X65990100Y-36173995D01*
X65990100Y-37315205D01*
X65985919Y-37357662D01*
X65975327Y-37392577D01*
X65958122Y-37424765D01*
X65934973Y-37452973D01*
X65906765Y-37476122D01*
X65874577Y-37493327D01*
X65839662Y-37503919D01*
X65797205Y-37508100D01*
X64330995Y-37508100D01*
X64288538Y-37503919D01*
X64253623Y-37493327D01*
X64221435Y-37476122D01*
X64193227Y-37452973D01*
X64170078Y-37424765D01*
X64152873Y-37392577D01*
X64142281Y-37357662D01*
X64138100Y-37315205D01*
X64138100Y-36173995D01*
X64142281Y-36131538D01*
X64152873Y-36096623D01*
X64170078Y-36064435D01*
X64193227Y-36036227D01*
X64221435Y-36013078D01*
X64253623Y-35995873D01*
X64288538Y-35985281D01*
X64330995Y-35981100D01*
X65797205Y-35981100D01*
X65839662Y-35985281D01*
X65839662Y-35985281D01*
G37*
G36*
X56047962Y-35670981D02*
X56082877Y-35681573D01*
X56115065Y-35698778D01*
X56143273Y-35721927D01*
X56166422Y-35750135D01*
X56183627Y-35782323D01*
X56194219Y-35817238D01*
X56198400Y-35859695D01*
X56198400Y-37000905D01*
X56194219Y-37043362D01*
X56183627Y-37078277D01*
X56166422Y-37110465D01*
X56143273Y-37138673D01*
X56115065Y-37161822D01*
X56082877Y-37179027D01*
X56047962Y-37189619D01*
X56005505Y-37193800D01*
X54539295Y-37193800D01*
X54496838Y-37189619D01*
X54461923Y-37179027D01*
X54429735Y-37161822D01*
X54401527Y-37138673D01*
X54378378Y-37110465D01*
X54361173Y-37078277D01*
X54350581Y-37043362D01*
X54346400Y-37000905D01*
X54346400Y-35859695D01*
X54350581Y-35817238D01*
X54361173Y-35782323D01*
X54378378Y-35750135D01*
X54401527Y-35721927D01*
X54429735Y-35698778D01*
X54461923Y-35681573D01*
X54496838Y-35670981D01*
X54539295Y-35666800D01*
X56005505Y-35666800D01*
X56047962Y-35670981D01*
X56047962Y-35670981D01*
G37*
G36*
X53473477Y-35803465D02*
X53511164Y-35814898D01*
X53545903Y-35833466D01*
X53576348Y-35858452D01*
X53601334Y-35888897D01*
X53619902Y-35923636D01*
X53631335Y-35961323D01*
X53635800Y-36006661D01*
X53635800Y-36843339D01*
X53631335Y-36888677D01*
X53619902Y-36926364D01*
X53601334Y-36961103D01*
X53576348Y-36991548D01*
X53545903Y-37016534D01*
X53511164Y-37035102D01*
X53473477Y-37046535D01*
X53428139Y-37051000D01*
X52341461Y-37051000D01*
X52296123Y-37046535D01*
X52258436Y-37035102D01*
X52223697Y-37016534D01*
X52193252Y-36991548D01*
X52168266Y-36961103D01*
X52149698Y-36926364D01*
X52138265Y-36888677D01*
X52133800Y-36843339D01*
X52133800Y-36006661D01*
X52138265Y-35961323D01*
X52149698Y-35923636D01*
X52168266Y-35888897D01*
X52193252Y-35858452D01*
X52223697Y-35833466D01*
X52258436Y-35814898D01*
X52296123Y-35803465D01*
X52341461Y-35799000D01*
X53428139Y-35799000D01*
X53473477Y-35803465D01*
X53473477Y-35803465D01*
G37*
G36*
X47798252Y-31897818D02*
X47798254Y-31897819D01*
X47798255Y-31897819D01*
X48171513Y-32052427D01*
X48171514Y-32052428D01*
X48507439Y-32276886D01*
X48793114Y-32562561D01*
X48793116Y-32562564D01*
X49017573Y-32898487D01*
X49042926Y-32959695D01*
X49172182Y-33271748D01*
X49251000Y-33667993D01*
X49251000Y-34072007D01*
X49222633Y-34214619D01*
X49172181Y-34468255D01*
X49017573Y-34841513D01*
X48913990Y-34996535D01*
X48793114Y-35177439D01*
X48507439Y-35463114D01*
X48507436Y-35463116D01*
X48171513Y-35687573D01*
X47798255Y-35842181D01*
X47798254Y-35842181D01*
X47798252Y-35842182D01*
X47402007Y-35921000D01*
X46997993Y-35921000D01*
X46601748Y-35842182D01*
X46601746Y-35842181D01*
X46601745Y-35842181D01*
X46228487Y-35687573D01*
X45892564Y-35463116D01*
X45892561Y-35463114D01*
X45606886Y-35177439D01*
X45486010Y-34996535D01*
X45382427Y-34841513D01*
X45227819Y-34468255D01*
X45177368Y-34214619D01*
X45149000Y-34072007D01*
X45149000Y-33667993D01*
X45227818Y-33271748D01*
X45357074Y-32959695D01*
X45382427Y-32898487D01*
X45606884Y-32562564D01*
X45606886Y-32562561D01*
X45892561Y-32276886D01*
X46228486Y-32052428D01*
X46228487Y-32052427D01*
X46601745Y-31897819D01*
X46601746Y-31897819D01*
X46601748Y-31897818D01*
X46997993Y-31819000D01*
X47402007Y-31819000D01*
X47798252Y-31897818D01*
X47798252Y-31897818D01*
G37*
G36*
X53473477Y-33753465D02*
X53511164Y-33764898D01*
X53545903Y-33783466D01*
X53576348Y-33808452D01*
X53601334Y-33838897D01*
X53619902Y-33873636D01*
X53631335Y-33911323D01*
X53635800Y-33956661D01*
X53635800Y-34793339D01*
X53631335Y-34838677D01*
X53619902Y-34876364D01*
X53601334Y-34911103D01*
X53576348Y-34941548D01*
X53545903Y-34966534D01*
X53511164Y-34985102D01*
X53473477Y-34996535D01*
X53428139Y-35001000D01*
X52341461Y-35001000D01*
X52296123Y-34996535D01*
X52258436Y-34985102D01*
X52223697Y-34966534D01*
X52193252Y-34941548D01*
X52168266Y-34911103D01*
X52149698Y-34876364D01*
X52138265Y-34838677D01*
X52133800Y-34793339D01*
X52133800Y-33956661D01*
X52138265Y-33911323D01*
X52149698Y-33873636D01*
X52168266Y-33838897D01*
X52193252Y-33808452D01*
X52223697Y-33783466D01*
X52258436Y-33764898D01*
X52296123Y-33753465D01*
X52341461Y-33749000D01*
X53428139Y-33749000D01*
X53473477Y-33753465D01*
X53473477Y-33753465D01*
G37*
G36*
X58548600Y-34469400D02*
X56946600Y-34469400D01*
X56946600Y-32367400D01*
X58548600Y-32367400D01*
X58548600Y-34469400D01*
X58548600Y-34469400D01*
G37*
G36*
X63148600Y-34469400D02*
X61546600Y-34469400D01*
X61546600Y-32367400D01*
X63148600Y-32367400D01*
X63148600Y-34469400D01*
X63148600Y-34469400D01*
G37*
G36*
X60848600Y-34469400D02*
X59246600Y-34469400D01*
X59246600Y-32367400D01*
X60848600Y-32367400D01*
X60848600Y-34469400D01*
X60848600Y-34469400D01*
G37*
G36*
X56047962Y-32695981D02*
X56082877Y-32706573D01*
X56115065Y-32723778D01*
X56143273Y-32746927D01*
X56166422Y-32775135D01*
X56183627Y-32807323D01*
X56194219Y-32842238D01*
X56198400Y-32884695D01*
X56198400Y-34025905D01*
X56194219Y-34068362D01*
X56183627Y-34103277D01*
X56166422Y-34135465D01*
X56143273Y-34163673D01*
X56115065Y-34186822D01*
X56082877Y-34204027D01*
X56047962Y-34214619D01*
X56005505Y-34218800D01*
X54539295Y-34218800D01*
X54496838Y-34214619D01*
X54461923Y-34204027D01*
X54429735Y-34186822D01*
X54401527Y-34163673D01*
X54378378Y-34135465D01*
X54361173Y-34103277D01*
X54350581Y-34068362D01*
X54346400Y-34025905D01*
X54346400Y-32884695D01*
X54350581Y-32842238D01*
X54361173Y-32807323D01*
X54378378Y-32775135D01*
X54401527Y-32746927D01*
X54429735Y-32723778D01*
X54461923Y-32706573D01*
X54496838Y-32695981D01*
X54539295Y-32691800D01*
X56005505Y-32691800D01*
X56047962Y-32695981D01*
X56047962Y-32695981D01*
G37*
G36*
X57597677Y-27795465D02*
X57635364Y-27806898D01*
X57670103Y-27825466D01*
X57700548Y-27850452D01*
X57725534Y-27880897D01*
X57744102Y-27915636D01*
X57755535Y-27953323D01*
X57760000Y-27998661D01*
X57760000Y-29085339D01*
X57755535Y-29130677D01*
X57744102Y-29168364D01*
X57725534Y-29203103D01*
X57700548Y-29233548D01*
X57670103Y-29258534D01*
X57635364Y-29277102D01*
X57597677Y-29288535D01*
X57552339Y-29293000D01*
X56715661Y-29293000D01*
X56670323Y-29288535D01*
X56632636Y-29277102D01*
X56597897Y-29258534D01*
X56567452Y-29233548D01*
X56542466Y-29203103D01*
X56523898Y-29168364D01*
X56512465Y-29130677D01*
X56508000Y-29085339D01*
X56508000Y-27998661D01*
X56512465Y-27953323D01*
X56523898Y-27915636D01*
X56542466Y-27880897D01*
X56567452Y-27850452D01*
X56597897Y-27825466D01*
X56632636Y-27806898D01*
X56670323Y-27795465D01*
X56715661Y-27791000D01*
X57552339Y-27791000D01*
X57597677Y-27795465D01*
X57597677Y-27795465D01*
G37*
G36*
X59647677Y-27795465D02*
X59685364Y-27806898D01*
X59720103Y-27825466D01*
X59750548Y-27850452D01*
X59775534Y-27880897D01*
X59794102Y-27915636D01*
X59805535Y-27953323D01*
X59810000Y-27998661D01*
X59810000Y-29085339D01*
X59805535Y-29130677D01*
X59794102Y-29168364D01*
X59775534Y-29203103D01*
X59750548Y-29233548D01*
X59720103Y-29258534D01*
X59685364Y-29277102D01*
X59647677Y-29288535D01*
X59602339Y-29293000D01*
X58765661Y-29293000D01*
X58720323Y-29288535D01*
X58682636Y-29277102D01*
X58647897Y-29258534D01*
X58617452Y-29233548D01*
X58592466Y-29203103D01*
X58573898Y-29168364D01*
X58562465Y-29130677D01*
X58558000Y-29085339D01*
X58558000Y-27998661D01*
X58562465Y-27953323D01*
X58573898Y-27915636D01*
X58592466Y-27880897D01*
X58617452Y-27850452D01*
X58647897Y-27825466D01*
X58682636Y-27806898D01*
X58720323Y-27795465D01*
X58765661Y-27791000D01*
X59602339Y-27791000D01*
X59647677Y-27795465D01*
X59647677Y-27795465D01*
G37*
G36*
X55601677Y-27795465D02*
X55639364Y-27806898D01*
X55674103Y-27825466D01*
X55704548Y-27850452D01*
X55729534Y-27880897D01*
X55748102Y-27915636D01*
X55759535Y-27953323D01*
X55764000Y-27998661D01*
X55764000Y-29085339D01*
X55759535Y-29130677D01*
X55748102Y-29168364D01*
X55729534Y-29203103D01*
X55704548Y-29233548D01*
X55674103Y-29258534D01*
X55639364Y-29277102D01*
X55601677Y-29288535D01*
X55556339Y-29293000D01*
X54719661Y-29293000D01*
X54674323Y-29288535D01*
X54636636Y-29277102D01*
X54601897Y-29258534D01*
X54571452Y-29233548D01*
X54546466Y-29203103D01*
X54527898Y-29168364D01*
X54516465Y-29130677D01*
X54512000Y-29085339D01*
X54512000Y-27998661D01*
X54516465Y-27953323D01*
X54527898Y-27915636D01*
X54546466Y-27880897D01*
X54571452Y-27850452D01*
X54601897Y-27825466D01*
X54636636Y-27806898D01*
X54674323Y-27795465D01*
X54719661Y-27791000D01*
X55556339Y-27791000D01*
X55601677Y-27795465D01*
X55601677Y-27795465D01*
G37*
G36*
X53551677Y-27795465D02*
X53589364Y-27806898D01*
X53624103Y-27825466D01*
X53654548Y-27850452D01*
X53679534Y-27880897D01*
X53698102Y-27915636D01*
X53709535Y-27953323D01*
X53714000Y-27998661D01*
X53714000Y-29085339D01*
X53709535Y-29130677D01*
X53698102Y-29168364D01*
X53679534Y-29203103D01*
X53654548Y-29233548D01*
X53624103Y-29258534D01*
X53589364Y-29277102D01*
X53551677Y-29288535D01*
X53506339Y-29293000D01*
X52669661Y-29293000D01*
X52624323Y-29288535D01*
X52586636Y-29277102D01*
X52551897Y-29258534D01*
X52521452Y-29233548D01*
X52496466Y-29203103D01*
X52477898Y-29168364D01*
X52466465Y-29130677D01*
X52462000Y-29085339D01*
X52462000Y-27998661D01*
X52466465Y-27953323D01*
X52477898Y-27915636D01*
X52496466Y-27880897D01*
X52521452Y-27850452D01*
X52551897Y-27825466D01*
X52586636Y-27806898D01*
X52624323Y-27795465D01*
X52669661Y-27791000D01*
X53506339Y-27791000D01*
X53551677Y-27795465D01*
X53551677Y-27795465D01*
G37*
G36*
X50541000Y-29120000D02*
X49539000Y-29120000D01*
X49539000Y-28218000D01*
X50541000Y-28218000D01*
X50541000Y-29120000D01*
X50541000Y-29120000D01*
G37*
G36*
X48541000Y-28170000D02*
X47539000Y-28170000D01*
X47539000Y-27268000D01*
X48541000Y-27268000D01*
X48541000Y-28170000D01*
X48541000Y-28170000D01*
G37*
G36*
X50541000Y-27220000D02*
X49539000Y-27220000D01*
X49539000Y-26318000D01*
X50541000Y-26318000D01*
X50541000Y-27220000D01*
X50541000Y-27220000D01*
G37*
M02*
