G04 #@! TF.GenerationSoftware,KiCad,Pcbnew,(5.0.2)-1*
G04 #@! TF.CreationDate,2019-02-20T15:00:44+02:00*
G04 #@! TF.ProjectId,APPS_SMD,41505053-5f53-44d4-942e-6b696361645f,rev?*
G04 #@! TF.SameCoordinates,Original*
G04 #@! TF.FileFunction,Soldermask,Bot*
G04 #@! TF.FilePolarity,Negative*
%FSLAX46Y46*%
G04 Gerber Fmt 4.6, Leading zero omitted, Abs format (unit mm)*
G04 Created by KiCad (PCBNEW (5.0.2)-1) date 2/20/2019 3:00:44 PM*
%MOMM*%
%LPD*%
G01*
G04 APERTURE LIST*
%ADD10C,0.100000*%
G04 APERTURE END LIST*
D10*
G36*
X47798252Y-56897818D02*
X47798254Y-56897819D01*
X47798255Y-56897819D01*
X48171513Y-57052427D01*
X48171514Y-57052428D01*
X48507439Y-57276886D01*
X48793114Y-57562561D01*
X48793116Y-57562564D01*
X49017573Y-57898487D01*
X49172181Y-58271745D01*
X49251000Y-58667994D01*
X49251000Y-59072006D01*
X49172181Y-59468255D01*
X49017573Y-59841513D01*
X49017572Y-59841514D01*
X48793114Y-60177439D01*
X48507439Y-60463114D01*
X48507436Y-60463116D01*
X48171513Y-60687573D01*
X47798255Y-60842181D01*
X47798254Y-60842181D01*
X47798252Y-60842182D01*
X47402007Y-60921000D01*
X46997993Y-60921000D01*
X46601748Y-60842182D01*
X46601746Y-60842181D01*
X46601745Y-60842181D01*
X46228487Y-60687573D01*
X45892564Y-60463116D01*
X45892561Y-60463114D01*
X45606886Y-60177439D01*
X45382428Y-59841514D01*
X45382427Y-59841513D01*
X45227819Y-59468255D01*
X45149000Y-59072006D01*
X45149000Y-58667994D01*
X45227819Y-58271745D01*
X45382427Y-57898487D01*
X45606884Y-57562564D01*
X45606886Y-57562561D01*
X45892561Y-57276886D01*
X46228486Y-57052428D01*
X46228487Y-57052427D01*
X46601745Y-56897819D01*
X46601746Y-56897819D01*
X46601748Y-56897818D01*
X46997993Y-56819000D01*
X47402007Y-56819000D01*
X47798252Y-56897818D01*
X47798252Y-56897818D01*
G37*
G36*
X48351000Y-52761000D02*
X46649000Y-52761000D01*
X46649000Y-51059000D01*
X48351000Y-51059000D01*
X48351000Y-52761000D01*
X48351000Y-52761000D01*
G37*
G36*
X44908228Y-49706703D02*
X45063100Y-49770853D01*
X45202481Y-49863985D01*
X45321015Y-49982519D01*
X45414147Y-50121900D01*
X45478297Y-50276772D01*
X45511000Y-50441184D01*
X45511000Y-50608816D01*
X45478297Y-50773228D01*
X45414147Y-50928100D01*
X45321015Y-51067481D01*
X45202481Y-51186015D01*
X45063100Y-51279147D01*
X44908228Y-51343297D01*
X44743816Y-51376000D01*
X44576184Y-51376000D01*
X44411772Y-51343297D01*
X44256900Y-51279147D01*
X44117519Y-51186015D01*
X43998985Y-51067481D01*
X43905853Y-50928100D01*
X43841703Y-50773228D01*
X43809000Y-50608816D01*
X43809000Y-50441184D01*
X43841703Y-50276772D01*
X43905853Y-50121900D01*
X43998985Y-49982519D01*
X44117519Y-49863985D01*
X44256900Y-49770853D01*
X44411772Y-49706703D01*
X44576184Y-49674000D01*
X44743816Y-49674000D01*
X44908228Y-49706703D01*
X44908228Y-49706703D01*
G37*
G36*
X47748228Y-48321703D02*
X47903100Y-48385853D01*
X48042481Y-48478985D01*
X48161015Y-48597519D01*
X48254147Y-48736900D01*
X48318297Y-48891772D01*
X48351000Y-49056184D01*
X48351000Y-49223816D01*
X48318297Y-49388228D01*
X48254147Y-49543100D01*
X48161015Y-49682481D01*
X48042481Y-49801015D01*
X47903100Y-49894147D01*
X47748228Y-49958297D01*
X47583816Y-49991000D01*
X47416184Y-49991000D01*
X47251772Y-49958297D01*
X47096900Y-49894147D01*
X46957519Y-49801015D01*
X46838985Y-49682481D01*
X46745853Y-49543100D01*
X46681703Y-49388228D01*
X46649000Y-49223816D01*
X46649000Y-49056184D01*
X46681703Y-48891772D01*
X46745853Y-48736900D01*
X46838985Y-48597519D01*
X46957519Y-48478985D01*
X47096900Y-48385853D01*
X47251772Y-48321703D01*
X47416184Y-48289000D01*
X47583816Y-48289000D01*
X47748228Y-48321703D01*
X47748228Y-48321703D01*
G37*
G36*
X44908228Y-46936703D02*
X45063100Y-47000853D01*
X45202481Y-47093985D01*
X45321015Y-47212519D01*
X45414147Y-47351900D01*
X45478297Y-47506772D01*
X45511000Y-47671184D01*
X45511000Y-47838816D01*
X45478297Y-48003228D01*
X45414147Y-48158100D01*
X45321015Y-48297481D01*
X45202481Y-48416015D01*
X45063100Y-48509147D01*
X44908228Y-48573297D01*
X44743816Y-48606000D01*
X44576184Y-48606000D01*
X44411772Y-48573297D01*
X44256900Y-48509147D01*
X44117519Y-48416015D01*
X43998985Y-48297481D01*
X43905853Y-48158100D01*
X43841703Y-48003228D01*
X43809000Y-47838816D01*
X43809000Y-47671184D01*
X43841703Y-47506772D01*
X43905853Y-47351900D01*
X43998985Y-47212519D01*
X44117519Y-47093985D01*
X44256900Y-47000853D01*
X44411772Y-46936703D01*
X44576184Y-46904000D01*
X44743816Y-46904000D01*
X44908228Y-46936703D01*
X44908228Y-46936703D01*
G37*
G36*
X47748228Y-45551703D02*
X47903100Y-45615853D01*
X48042481Y-45708985D01*
X48161015Y-45827519D01*
X48254147Y-45966900D01*
X48318297Y-46121772D01*
X48351000Y-46286184D01*
X48351000Y-46453816D01*
X48318297Y-46618228D01*
X48254147Y-46773100D01*
X48161015Y-46912481D01*
X48042481Y-47031015D01*
X47903100Y-47124147D01*
X47748228Y-47188297D01*
X47583816Y-47221000D01*
X47416184Y-47221000D01*
X47251772Y-47188297D01*
X47096900Y-47124147D01*
X46957519Y-47031015D01*
X46838985Y-46912481D01*
X46745853Y-46773100D01*
X46681703Y-46618228D01*
X46649000Y-46453816D01*
X46649000Y-46286184D01*
X46681703Y-46121772D01*
X46745853Y-45966900D01*
X46838985Y-45827519D01*
X46957519Y-45708985D01*
X47096900Y-45615853D01*
X47251772Y-45551703D01*
X47416184Y-45519000D01*
X47583816Y-45519000D01*
X47748228Y-45551703D01*
X47748228Y-45551703D01*
G37*
G36*
X44908228Y-44166703D02*
X45063100Y-44230853D01*
X45202481Y-44323985D01*
X45321015Y-44442519D01*
X45414147Y-44581900D01*
X45478297Y-44736772D01*
X45511000Y-44901184D01*
X45511000Y-45068816D01*
X45478297Y-45233228D01*
X45414147Y-45388100D01*
X45321015Y-45527481D01*
X45202481Y-45646015D01*
X45063100Y-45739147D01*
X44908228Y-45803297D01*
X44743816Y-45836000D01*
X44576184Y-45836000D01*
X44411772Y-45803297D01*
X44256900Y-45739147D01*
X44117519Y-45646015D01*
X43998985Y-45527481D01*
X43905853Y-45388100D01*
X43841703Y-45233228D01*
X43809000Y-45068816D01*
X43809000Y-44901184D01*
X43841703Y-44736772D01*
X43905853Y-44581900D01*
X43998985Y-44442519D01*
X44117519Y-44323985D01*
X44256900Y-44230853D01*
X44411772Y-44166703D01*
X44576184Y-44134000D01*
X44743816Y-44134000D01*
X44908228Y-44166703D01*
X44908228Y-44166703D01*
G37*
G36*
X47748228Y-42781703D02*
X47903100Y-42845853D01*
X48042481Y-42938985D01*
X48161015Y-43057519D01*
X48254147Y-43196900D01*
X48318297Y-43351772D01*
X48351000Y-43516184D01*
X48351000Y-43683816D01*
X48318297Y-43848228D01*
X48254147Y-44003100D01*
X48161015Y-44142481D01*
X48042481Y-44261015D01*
X47903100Y-44354147D01*
X47748228Y-44418297D01*
X47583816Y-44451000D01*
X47416184Y-44451000D01*
X47251772Y-44418297D01*
X47096900Y-44354147D01*
X46957519Y-44261015D01*
X46838985Y-44142481D01*
X46745853Y-44003100D01*
X46681703Y-43848228D01*
X46649000Y-43683816D01*
X46649000Y-43516184D01*
X46681703Y-43351772D01*
X46745853Y-43196900D01*
X46838985Y-43057519D01*
X46957519Y-42938985D01*
X47096900Y-42845853D01*
X47251772Y-42781703D01*
X47416184Y-42749000D01*
X47583816Y-42749000D01*
X47748228Y-42781703D01*
X47748228Y-42781703D01*
G37*
G36*
X44908228Y-41396703D02*
X45063100Y-41460853D01*
X45202481Y-41553985D01*
X45321015Y-41672519D01*
X45414147Y-41811900D01*
X45478297Y-41966772D01*
X45511000Y-42131184D01*
X45511000Y-42298816D01*
X45478297Y-42463228D01*
X45414147Y-42618100D01*
X45321015Y-42757481D01*
X45202481Y-42876015D01*
X45063100Y-42969147D01*
X44908228Y-43033297D01*
X44743816Y-43066000D01*
X44576184Y-43066000D01*
X44411772Y-43033297D01*
X44256900Y-42969147D01*
X44117519Y-42876015D01*
X43998985Y-42757481D01*
X43905853Y-42618100D01*
X43841703Y-42463228D01*
X43809000Y-42298816D01*
X43809000Y-42131184D01*
X43841703Y-41966772D01*
X43905853Y-41811900D01*
X43998985Y-41672519D01*
X44117519Y-41553985D01*
X44256900Y-41460853D01*
X44411772Y-41396703D01*
X44576184Y-41364000D01*
X44743816Y-41364000D01*
X44908228Y-41396703D01*
X44908228Y-41396703D01*
G37*
G36*
X47748228Y-40011703D02*
X47903100Y-40075853D01*
X48042481Y-40168985D01*
X48161015Y-40287519D01*
X48254147Y-40426900D01*
X48318297Y-40581772D01*
X48351000Y-40746184D01*
X48351000Y-40913816D01*
X48318297Y-41078228D01*
X48254147Y-41233100D01*
X48161015Y-41372481D01*
X48042481Y-41491015D01*
X47903100Y-41584147D01*
X47748228Y-41648297D01*
X47583816Y-41681000D01*
X47416184Y-41681000D01*
X47251772Y-41648297D01*
X47096900Y-41584147D01*
X46957519Y-41491015D01*
X46838985Y-41372481D01*
X46745853Y-41233100D01*
X46681703Y-41078228D01*
X46649000Y-40913816D01*
X46649000Y-40746184D01*
X46681703Y-40581772D01*
X46745853Y-40426900D01*
X46838985Y-40287519D01*
X46957519Y-40168985D01*
X47096900Y-40075853D01*
X47251772Y-40011703D01*
X47416184Y-39979000D01*
X47583816Y-39979000D01*
X47748228Y-40011703D01*
X47748228Y-40011703D01*
G37*
G36*
X47798252Y-31897818D02*
X47798254Y-31897819D01*
X47798255Y-31897819D01*
X48171513Y-32052427D01*
X48171514Y-32052428D01*
X48507439Y-32276886D01*
X48793114Y-32562561D01*
X48793116Y-32562564D01*
X49017573Y-32898487D01*
X49172181Y-33271745D01*
X49251000Y-33667994D01*
X49251000Y-34072006D01*
X49172181Y-34468255D01*
X49017573Y-34841513D01*
X49017572Y-34841514D01*
X48793114Y-35177439D01*
X48507439Y-35463114D01*
X48507436Y-35463116D01*
X48171513Y-35687573D01*
X47798255Y-35842181D01*
X47798254Y-35842181D01*
X47798252Y-35842182D01*
X47402007Y-35921000D01*
X46997993Y-35921000D01*
X46601748Y-35842182D01*
X46601746Y-35842181D01*
X46601745Y-35842181D01*
X46228487Y-35687573D01*
X45892564Y-35463116D01*
X45892561Y-35463114D01*
X45606886Y-35177439D01*
X45382428Y-34841514D01*
X45382427Y-34841513D01*
X45227819Y-34468255D01*
X45149000Y-34072006D01*
X45149000Y-33667994D01*
X45227819Y-33271745D01*
X45382427Y-32898487D01*
X45606884Y-32562564D01*
X45606886Y-32562561D01*
X45892561Y-32276886D01*
X46228486Y-32052428D01*
X46228487Y-32052427D01*
X46601745Y-31897819D01*
X46601746Y-31897819D01*
X46601748Y-31897818D01*
X46997993Y-31819000D01*
X47402007Y-31819000D01*
X47798252Y-31897818D01*
X47798252Y-31897818D01*
G37*
M02*
