G04 #@! TF.GenerationSoftware,KiCad,Pcbnew,(5.0.2)-1*
G04 #@! TF.CreationDate,2019-02-20T15:00:44+02:00*
G04 #@! TF.ProjectId,APPS_SMD,41505053-5f53-44d4-942e-6b696361645f,rev?*
G04 #@! TF.SameCoordinates,Original*
G04 #@! TF.FileFunction,Paste,Top*
G04 #@! TF.FilePolarity,Positive*
%FSLAX46Y46*%
G04 Gerber Fmt 4.6, Leading zero omitted, Abs format (unit mm)*
G04 Created by KiCad (PCBNEW (5.0.2)-1) date 2/20/2019 3:00:44 PM*
%MOMM*%
%LPD*%
G01*
G04 APERTURE LIST*
%ADD10C,0.100000*%
%ADD11C,1.425000*%
%ADD12C,1.150000*%
%ADD13R,3.800000X2.000000*%
%ADD14R,1.500000X2.000000*%
%ADD15R,1.060000X0.650000*%
%ADD16R,0.900000X0.800000*%
%ADD17R,1.550000X0.600000*%
G04 APERTURE END LIST*
D10*
G04 #@! TO.C,C10*
G36*
X55921904Y-32744004D02*
X55946173Y-32747604D01*
X55969971Y-32753565D01*
X55993071Y-32761830D01*
X56015249Y-32772320D01*
X56036293Y-32784933D01*
X56055998Y-32799547D01*
X56074177Y-32816023D01*
X56090653Y-32834202D01*
X56105267Y-32853907D01*
X56117880Y-32874951D01*
X56128370Y-32897129D01*
X56136635Y-32920229D01*
X56142596Y-32944027D01*
X56146196Y-32968296D01*
X56147400Y-32992800D01*
X56147400Y-33917800D01*
X56146196Y-33942304D01*
X56142596Y-33966573D01*
X56136635Y-33990371D01*
X56128370Y-34013471D01*
X56117880Y-34035649D01*
X56105267Y-34056693D01*
X56090653Y-34076398D01*
X56074177Y-34094577D01*
X56055998Y-34111053D01*
X56036293Y-34125667D01*
X56015249Y-34138280D01*
X55993071Y-34148770D01*
X55969971Y-34157035D01*
X55946173Y-34162996D01*
X55921904Y-34166596D01*
X55897400Y-34167800D01*
X54647400Y-34167800D01*
X54622896Y-34166596D01*
X54598627Y-34162996D01*
X54574829Y-34157035D01*
X54551729Y-34148770D01*
X54529551Y-34138280D01*
X54508507Y-34125667D01*
X54488802Y-34111053D01*
X54470623Y-34094577D01*
X54454147Y-34076398D01*
X54439533Y-34056693D01*
X54426920Y-34035649D01*
X54416430Y-34013471D01*
X54408165Y-33990371D01*
X54402204Y-33966573D01*
X54398604Y-33942304D01*
X54397400Y-33917800D01*
X54397400Y-32992800D01*
X54398604Y-32968296D01*
X54402204Y-32944027D01*
X54408165Y-32920229D01*
X54416430Y-32897129D01*
X54426920Y-32874951D01*
X54439533Y-32853907D01*
X54454147Y-32834202D01*
X54470623Y-32816023D01*
X54488802Y-32799547D01*
X54508507Y-32784933D01*
X54529551Y-32772320D01*
X54551729Y-32761830D01*
X54574829Y-32753565D01*
X54598627Y-32747604D01*
X54622896Y-32744004D01*
X54647400Y-32742800D01*
X55897400Y-32742800D01*
X55921904Y-32744004D01*
X55921904Y-32744004D01*
G37*
D11*
X55272400Y-33455300D03*
D10*
G36*
X55921904Y-35719004D02*
X55946173Y-35722604D01*
X55969971Y-35728565D01*
X55993071Y-35736830D01*
X56015249Y-35747320D01*
X56036293Y-35759933D01*
X56055998Y-35774547D01*
X56074177Y-35791023D01*
X56090653Y-35809202D01*
X56105267Y-35828907D01*
X56117880Y-35849951D01*
X56128370Y-35872129D01*
X56136635Y-35895229D01*
X56142596Y-35919027D01*
X56146196Y-35943296D01*
X56147400Y-35967800D01*
X56147400Y-36892800D01*
X56146196Y-36917304D01*
X56142596Y-36941573D01*
X56136635Y-36965371D01*
X56128370Y-36988471D01*
X56117880Y-37010649D01*
X56105267Y-37031693D01*
X56090653Y-37051398D01*
X56074177Y-37069577D01*
X56055998Y-37086053D01*
X56036293Y-37100667D01*
X56015249Y-37113280D01*
X55993071Y-37123770D01*
X55969971Y-37132035D01*
X55946173Y-37137996D01*
X55921904Y-37141596D01*
X55897400Y-37142800D01*
X54647400Y-37142800D01*
X54622896Y-37141596D01*
X54598627Y-37137996D01*
X54574829Y-37132035D01*
X54551729Y-37123770D01*
X54529551Y-37113280D01*
X54508507Y-37100667D01*
X54488802Y-37086053D01*
X54470623Y-37069577D01*
X54454147Y-37051398D01*
X54439533Y-37031693D01*
X54426920Y-37010649D01*
X54416430Y-36988471D01*
X54408165Y-36965371D01*
X54402204Y-36941573D01*
X54398604Y-36917304D01*
X54397400Y-36892800D01*
X54397400Y-35967800D01*
X54398604Y-35943296D01*
X54402204Y-35919027D01*
X54408165Y-35895229D01*
X54416430Y-35872129D01*
X54426920Y-35849951D01*
X54439533Y-35828907D01*
X54454147Y-35809202D01*
X54470623Y-35791023D01*
X54488802Y-35774547D01*
X54508507Y-35759933D01*
X54529551Y-35747320D01*
X54551729Y-35736830D01*
X54574829Y-35728565D01*
X54598627Y-35722604D01*
X54622896Y-35719004D01*
X54647400Y-35717800D01*
X55897400Y-35717800D01*
X55921904Y-35719004D01*
X55921904Y-35719004D01*
G37*
D11*
X55272400Y-36430300D03*
G04 #@! TD*
D10*
G04 #@! TO.C,C11*
G36*
X53359305Y-33801204D02*
X53383573Y-33804804D01*
X53407372Y-33810765D01*
X53430471Y-33819030D01*
X53452650Y-33829520D01*
X53473693Y-33842132D01*
X53493399Y-33856747D01*
X53511577Y-33873223D01*
X53528053Y-33891401D01*
X53542668Y-33911107D01*
X53555280Y-33932150D01*
X53565770Y-33954329D01*
X53574035Y-33977428D01*
X53579996Y-34001227D01*
X53583596Y-34025495D01*
X53584800Y-34049999D01*
X53584800Y-34700001D01*
X53583596Y-34724505D01*
X53579996Y-34748773D01*
X53574035Y-34772572D01*
X53565770Y-34795671D01*
X53555280Y-34817850D01*
X53542668Y-34838893D01*
X53528053Y-34858599D01*
X53511577Y-34876777D01*
X53493399Y-34893253D01*
X53473693Y-34907868D01*
X53452650Y-34920480D01*
X53430471Y-34930970D01*
X53407372Y-34939235D01*
X53383573Y-34945196D01*
X53359305Y-34948796D01*
X53334801Y-34950000D01*
X52434799Y-34950000D01*
X52410295Y-34948796D01*
X52386027Y-34945196D01*
X52362228Y-34939235D01*
X52339129Y-34930970D01*
X52316950Y-34920480D01*
X52295907Y-34907868D01*
X52276201Y-34893253D01*
X52258023Y-34876777D01*
X52241547Y-34858599D01*
X52226932Y-34838893D01*
X52214320Y-34817850D01*
X52203830Y-34795671D01*
X52195565Y-34772572D01*
X52189604Y-34748773D01*
X52186004Y-34724505D01*
X52184800Y-34700001D01*
X52184800Y-34049999D01*
X52186004Y-34025495D01*
X52189604Y-34001227D01*
X52195565Y-33977428D01*
X52203830Y-33954329D01*
X52214320Y-33932150D01*
X52226932Y-33911107D01*
X52241547Y-33891401D01*
X52258023Y-33873223D01*
X52276201Y-33856747D01*
X52295907Y-33842132D01*
X52316950Y-33829520D01*
X52339129Y-33819030D01*
X52362228Y-33810765D01*
X52386027Y-33804804D01*
X52410295Y-33801204D01*
X52434799Y-33800000D01*
X53334801Y-33800000D01*
X53359305Y-33801204D01*
X53359305Y-33801204D01*
G37*
D12*
X52884800Y-34375000D03*
D10*
G36*
X53359305Y-35851204D02*
X53383573Y-35854804D01*
X53407372Y-35860765D01*
X53430471Y-35869030D01*
X53452650Y-35879520D01*
X53473693Y-35892132D01*
X53493399Y-35906747D01*
X53511577Y-35923223D01*
X53528053Y-35941401D01*
X53542668Y-35961107D01*
X53555280Y-35982150D01*
X53565770Y-36004329D01*
X53574035Y-36027428D01*
X53579996Y-36051227D01*
X53583596Y-36075495D01*
X53584800Y-36099999D01*
X53584800Y-36750001D01*
X53583596Y-36774505D01*
X53579996Y-36798773D01*
X53574035Y-36822572D01*
X53565770Y-36845671D01*
X53555280Y-36867850D01*
X53542668Y-36888893D01*
X53528053Y-36908599D01*
X53511577Y-36926777D01*
X53493399Y-36943253D01*
X53473693Y-36957868D01*
X53452650Y-36970480D01*
X53430471Y-36980970D01*
X53407372Y-36989235D01*
X53383573Y-36995196D01*
X53359305Y-36998796D01*
X53334801Y-37000000D01*
X52434799Y-37000000D01*
X52410295Y-36998796D01*
X52386027Y-36995196D01*
X52362228Y-36989235D01*
X52339129Y-36980970D01*
X52316950Y-36970480D01*
X52295907Y-36957868D01*
X52276201Y-36943253D01*
X52258023Y-36926777D01*
X52241547Y-36908599D01*
X52226932Y-36888893D01*
X52214320Y-36867850D01*
X52203830Y-36845671D01*
X52195565Y-36822572D01*
X52189604Y-36798773D01*
X52186004Y-36774505D01*
X52184800Y-36750001D01*
X52184800Y-36099999D01*
X52186004Y-36075495D01*
X52189604Y-36051227D01*
X52195565Y-36027428D01*
X52203830Y-36004329D01*
X52214320Y-35982150D01*
X52226932Y-35961107D01*
X52241547Y-35941401D01*
X52258023Y-35923223D01*
X52276201Y-35906747D01*
X52295907Y-35892132D01*
X52316950Y-35879520D01*
X52339129Y-35869030D01*
X52362228Y-35860765D01*
X52386027Y-35854804D01*
X52410295Y-35851204D01*
X52434799Y-35850000D01*
X53334801Y-35850000D01*
X53359305Y-35851204D01*
X53359305Y-35851204D01*
G37*
D12*
X52884800Y-36425000D03*
G04 #@! TD*
D10*
G04 #@! TO.C,C12*
G36*
X68040505Y-37052404D02*
X68064773Y-37056004D01*
X68088572Y-37061965D01*
X68111671Y-37070230D01*
X68133850Y-37080720D01*
X68154893Y-37093332D01*
X68174599Y-37107947D01*
X68192777Y-37124423D01*
X68209253Y-37142601D01*
X68223868Y-37162307D01*
X68236480Y-37183350D01*
X68246970Y-37205529D01*
X68255235Y-37228628D01*
X68261196Y-37252427D01*
X68264796Y-37276695D01*
X68266000Y-37301199D01*
X68266000Y-37951201D01*
X68264796Y-37975705D01*
X68261196Y-37999973D01*
X68255235Y-38023772D01*
X68246970Y-38046871D01*
X68236480Y-38069050D01*
X68223868Y-38090093D01*
X68209253Y-38109799D01*
X68192777Y-38127977D01*
X68174599Y-38144453D01*
X68154893Y-38159068D01*
X68133850Y-38171680D01*
X68111671Y-38182170D01*
X68088572Y-38190435D01*
X68064773Y-38196396D01*
X68040505Y-38199996D01*
X68016001Y-38201200D01*
X67115999Y-38201200D01*
X67091495Y-38199996D01*
X67067227Y-38196396D01*
X67043428Y-38190435D01*
X67020329Y-38182170D01*
X66998150Y-38171680D01*
X66977107Y-38159068D01*
X66957401Y-38144453D01*
X66939223Y-38127977D01*
X66922747Y-38109799D01*
X66908132Y-38090093D01*
X66895520Y-38069050D01*
X66885030Y-38046871D01*
X66876765Y-38023772D01*
X66870804Y-37999973D01*
X66867204Y-37975705D01*
X66866000Y-37951201D01*
X66866000Y-37301199D01*
X66867204Y-37276695D01*
X66870804Y-37252427D01*
X66876765Y-37228628D01*
X66885030Y-37205529D01*
X66895520Y-37183350D01*
X66908132Y-37162307D01*
X66922747Y-37142601D01*
X66939223Y-37124423D01*
X66957401Y-37107947D01*
X66977107Y-37093332D01*
X66998150Y-37080720D01*
X67020329Y-37070230D01*
X67043428Y-37061965D01*
X67067227Y-37056004D01*
X67091495Y-37052404D01*
X67115999Y-37051200D01*
X68016001Y-37051200D01*
X68040505Y-37052404D01*
X68040505Y-37052404D01*
G37*
D12*
X67566000Y-37626200D03*
D10*
G36*
X68040505Y-39102404D02*
X68064773Y-39106004D01*
X68088572Y-39111965D01*
X68111671Y-39120230D01*
X68133850Y-39130720D01*
X68154893Y-39143332D01*
X68174599Y-39157947D01*
X68192777Y-39174423D01*
X68209253Y-39192601D01*
X68223868Y-39212307D01*
X68236480Y-39233350D01*
X68246970Y-39255529D01*
X68255235Y-39278628D01*
X68261196Y-39302427D01*
X68264796Y-39326695D01*
X68266000Y-39351199D01*
X68266000Y-40001201D01*
X68264796Y-40025705D01*
X68261196Y-40049973D01*
X68255235Y-40073772D01*
X68246970Y-40096871D01*
X68236480Y-40119050D01*
X68223868Y-40140093D01*
X68209253Y-40159799D01*
X68192777Y-40177977D01*
X68174599Y-40194453D01*
X68154893Y-40209068D01*
X68133850Y-40221680D01*
X68111671Y-40232170D01*
X68088572Y-40240435D01*
X68064773Y-40246396D01*
X68040505Y-40249996D01*
X68016001Y-40251200D01*
X67115999Y-40251200D01*
X67091495Y-40249996D01*
X67067227Y-40246396D01*
X67043428Y-40240435D01*
X67020329Y-40232170D01*
X66998150Y-40221680D01*
X66977107Y-40209068D01*
X66957401Y-40194453D01*
X66939223Y-40177977D01*
X66922747Y-40159799D01*
X66908132Y-40140093D01*
X66895520Y-40119050D01*
X66885030Y-40096871D01*
X66876765Y-40073772D01*
X66870804Y-40049973D01*
X66867204Y-40025705D01*
X66866000Y-40001201D01*
X66866000Y-39351199D01*
X66867204Y-39326695D01*
X66870804Y-39302427D01*
X66876765Y-39278628D01*
X66885030Y-39255529D01*
X66895520Y-39233350D01*
X66908132Y-39212307D01*
X66922747Y-39192601D01*
X66939223Y-39174423D01*
X66957401Y-39157947D01*
X66977107Y-39143332D01*
X66998150Y-39130720D01*
X67020329Y-39120230D01*
X67043428Y-39111965D01*
X67067227Y-39106004D01*
X67091495Y-39102404D01*
X67115999Y-39101200D01*
X68016001Y-39101200D01*
X68040505Y-39102404D01*
X68040505Y-39102404D01*
G37*
D12*
X67566000Y-39676200D03*
G04 #@! TD*
D10*
G04 #@! TO.C,C13*
G36*
X65713604Y-36033304D02*
X65737873Y-36036904D01*
X65761671Y-36042865D01*
X65784771Y-36051130D01*
X65806949Y-36061620D01*
X65827993Y-36074233D01*
X65847698Y-36088847D01*
X65865877Y-36105323D01*
X65882353Y-36123502D01*
X65896967Y-36143207D01*
X65909580Y-36164251D01*
X65920070Y-36186429D01*
X65928335Y-36209529D01*
X65934296Y-36233327D01*
X65937896Y-36257596D01*
X65939100Y-36282100D01*
X65939100Y-37207100D01*
X65937896Y-37231604D01*
X65934296Y-37255873D01*
X65928335Y-37279671D01*
X65920070Y-37302771D01*
X65909580Y-37324949D01*
X65896967Y-37345993D01*
X65882353Y-37365698D01*
X65865877Y-37383877D01*
X65847698Y-37400353D01*
X65827993Y-37414967D01*
X65806949Y-37427580D01*
X65784771Y-37438070D01*
X65761671Y-37446335D01*
X65737873Y-37452296D01*
X65713604Y-37455896D01*
X65689100Y-37457100D01*
X64439100Y-37457100D01*
X64414596Y-37455896D01*
X64390327Y-37452296D01*
X64366529Y-37446335D01*
X64343429Y-37438070D01*
X64321251Y-37427580D01*
X64300207Y-37414967D01*
X64280502Y-37400353D01*
X64262323Y-37383877D01*
X64245847Y-37365698D01*
X64231233Y-37345993D01*
X64218620Y-37324949D01*
X64208130Y-37302771D01*
X64199865Y-37279671D01*
X64193904Y-37255873D01*
X64190304Y-37231604D01*
X64189100Y-37207100D01*
X64189100Y-36282100D01*
X64190304Y-36257596D01*
X64193904Y-36233327D01*
X64199865Y-36209529D01*
X64208130Y-36186429D01*
X64218620Y-36164251D01*
X64231233Y-36143207D01*
X64245847Y-36123502D01*
X64262323Y-36105323D01*
X64280502Y-36088847D01*
X64300207Y-36074233D01*
X64321251Y-36061620D01*
X64343429Y-36051130D01*
X64366529Y-36042865D01*
X64390327Y-36036904D01*
X64414596Y-36033304D01*
X64439100Y-36032100D01*
X65689100Y-36032100D01*
X65713604Y-36033304D01*
X65713604Y-36033304D01*
G37*
D11*
X65064100Y-36744600D03*
D10*
G36*
X65713604Y-39008304D02*
X65737873Y-39011904D01*
X65761671Y-39017865D01*
X65784771Y-39026130D01*
X65806949Y-39036620D01*
X65827993Y-39049233D01*
X65847698Y-39063847D01*
X65865877Y-39080323D01*
X65882353Y-39098502D01*
X65896967Y-39118207D01*
X65909580Y-39139251D01*
X65920070Y-39161429D01*
X65928335Y-39184529D01*
X65934296Y-39208327D01*
X65937896Y-39232596D01*
X65939100Y-39257100D01*
X65939100Y-40182100D01*
X65937896Y-40206604D01*
X65934296Y-40230873D01*
X65928335Y-40254671D01*
X65920070Y-40277771D01*
X65909580Y-40299949D01*
X65896967Y-40320993D01*
X65882353Y-40340698D01*
X65865877Y-40358877D01*
X65847698Y-40375353D01*
X65827993Y-40389967D01*
X65806949Y-40402580D01*
X65784771Y-40413070D01*
X65761671Y-40421335D01*
X65737873Y-40427296D01*
X65713604Y-40430896D01*
X65689100Y-40432100D01*
X64439100Y-40432100D01*
X64414596Y-40430896D01*
X64390327Y-40427296D01*
X64366529Y-40421335D01*
X64343429Y-40413070D01*
X64321251Y-40402580D01*
X64300207Y-40389967D01*
X64280502Y-40375353D01*
X64262323Y-40358877D01*
X64245847Y-40340698D01*
X64231233Y-40320993D01*
X64218620Y-40299949D01*
X64208130Y-40277771D01*
X64199865Y-40254671D01*
X64193904Y-40230873D01*
X64190304Y-40206604D01*
X64189100Y-40182100D01*
X64189100Y-39257100D01*
X64190304Y-39232596D01*
X64193904Y-39208327D01*
X64199865Y-39184529D01*
X64208130Y-39161429D01*
X64218620Y-39139251D01*
X64231233Y-39118207D01*
X64245847Y-39098502D01*
X64262323Y-39080323D01*
X64280502Y-39063847D01*
X64300207Y-39049233D01*
X64321251Y-39036620D01*
X64343429Y-39026130D01*
X64366529Y-39017865D01*
X64390327Y-39011904D01*
X64414596Y-39008304D01*
X64439100Y-39007100D01*
X65689100Y-39007100D01*
X65713604Y-39008304D01*
X65713604Y-39008304D01*
G37*
D11*
X65064100Y-39719600D03*
G04 #@! TD*
D13*
G04 #@! TO.C,U8*
X60047600Y-39718400D03*
D14*
X60047600Y-33418400D03*
X57747600Y-33418400D03*
X62347600Y-33418400D03*
G04 #@! TD*
D10*
G04 #@! TO.C,C1*
G36*
X82878305Y-56641204D02*
X82902573Y-56644804D01*
X82926372Y-56650765D01*
X82949471Y-56659030D01*
X82971650Y-56669520D01*
X82992693Y-56682132D01*
X83012399Y-56696747D01*
X83030577Y-56713223D01*
X83047053Y-56731401D01*
X83061668Y-56751107D01*
X83074280Y-56772150D01*
X83084770Y-56794329D01*
X83093035Y-56817428D01*
X83098996Y-56841227D01*
X83102596Y-56865495D01*
X83103800Y-56889999D01*
X83103800Y-57790001D01*
X83102596Y-57814505D01*
X83098996Y-57838773D01*
X83093035Y-57862572D01*
X83084770Y-57885671D01*
X83074280Y-57907850D01*
X83061668Y-57928893D01*
X83047053Y-57948599D01*
X83030577Y-57966777D01*
X83012399Y-57983253D01*
X82992693Y-57997868D01*
X82971650Y-58010480D01*
X82949471Y-58020970D01*
X82926372Y-58029235D01*
X82902573Y-58035196D01*
X82878305Y-58038796D01*
X82853801Y-58040000D01*
X82203799Y-58040000D01*
X82179295Y-58038796D01*
X82155027Y-58035196D01*
X82131228Y-58029235D01*
X82108129Y-58020970D01*
X82085950Y-58010480D01*
X82064907Y-57997868D01*
X82045201Y-57983253D01*
X82027023Y-57966777D01*
X82010547Y-57948599D01*
X81995932Y-57928893D01*
X81983320Y-57907850D01*
X81972830Y-57885671D01*
X81964565Y-57862572D01*
X81958604Y-57838773D01*
X81955004Y-57814505D01*
X81953800Y-57790001D01*
X81953800Y-56889999D01*
X81955004Y-56865495D01*
X81958604Y-56841227D01*
X81964565Y-56817428D01*
X81972830Y-56794329D01*
X81983320Y-56772150D01*
X81995932Y-56751107D01*
X82010547Y-56731401D01*
X82027023Y-56713223D01*
X82045201Y-56696747D01*
X82064907Y-56682132D01*
X82085950Y-56669520D01*
X82108129Y-56659030D01*
X82131228Y-56650765D01*
X82155027Y-56644804D01*
X82179295Y-56641204D01*
X82203799Y-56640000D01*
X82853801Y-56640000D01*
X82878305Y-56641204D01*
X82878305Y-56641204D01*
G37*
D12*
X82528800Y-57340000D03*
D10*
G36*
X84928305Y-56641204D02*
X84952573Y-56644804D01*
X84976372Y-56650765D01*
X84999471Y-56659030D01*
X85021650Y-56669520D01*
X85042693Y-56682132D01*
X85062399Y-56696747D01*
X85080577Y-56713223D01*
X85097053Y-56731401D01*
X85111668Y-56751107D01*
X85124280Y-56772150D01*
X85134770Y-56794329D01*
X85143035Y-56817428D01*
X85148996Y-56841227D01*
X85152596Y-56865495D01*
X85153800Y-56889999D01*
X85153800Y-57790001D01*
X85152596Y-57814505D01*
X85148996Y-57838773D01*
X85143035Y-57862572D01*
X85134770Y-57885671D01*
X85124280Y-57907850D01*
X85111668Y-57928893D01*
X85097053Y-57948599D01*
X85080577Y-57966777D01*
X85062399Y-57983253D01*
X85042693Y-57997868D01*
X85021650Y-58010480D01*
X84999471Y-58020970D01*
X84976372Y-58029235D01*
X84952573Y-58035196D01*
X84928305Y-58038796D01*
X84903801Y-58040000D01*
X84253799Y-58040000D01*
X84229295Y-58038796D01*
X84205027Y-58035196D01*
X84181228Y-58029235D01*
X84158129Y-58020970D01*
X84135950Y-58010480D01*
X84114907Y-57997868D01*
X84095201Y-57983253D01*
X84077023Y-57966777D01*
X84060547Y-57948599D01*
X84045932Y-57928893D01*
X84033320Y-57907850D01*
X84022830Y-57885671D01*
X84014565Y-57862572D01*
X84008604Y-57838773D01*
X84005004Y-57814505D01*
X84003800Y-57790001D01*
X84003800Y-56889999D01*
X84005004Y-56865495D01*
X84008604Y-56841227D01*
X84014565Y-56817428D01*
X84022830Y-56794329D01*
X84033320Y-56772150D01*
X84045932Y-56751107D01*
X84060547Y-56731401D01*
X84077023Y-56713223D01*
X84095201Y-56696747D01*
X84114907Y-56682132D01*
X84135950Y-56669520D01*
X84158129Y-56659030D01*
X84181228Y-56650765D01*
X84205027Y-56644804D01*
X84229295Y-56641204D01*
X84253799Y-56640000D01*
X84903801Y-56640000D01*
X84928305Y-56641204D01*
X84928305Y-56641204D01*
G37*
D12*
X84578800Y-57340000D03*
G04 #@! TD*
D10*
G04 #@! TO.C,C2*
G36*
X59861705Y-49973604D02*
X59885973Y-49977204D01*
X59909772Y-49983165D01*
X59932871Y-49991430D01*
X59955050Y-50001920D01*
X59976093Y-50014532D01*
X59995799Y-50029147D01*
X60013977Y-50045623D01*
X60030453Y-50063801D01*
X60045068Y-50083507D01*
X60057680Y-50104550D01*
X60068170Y-50126729D01*
X60076435Y-50149828D01*
X60082396Y-50173627D01*
X60085996Y-50197895D01*
X60087200Y-50222399D01*
X60087200Y-50872401D01*
X60085996Y-50896905D01*
X60082396Y-50921173D01*
X60076435Y-50944972D01*
X60068170Y-50968071D01*
X60057680Y-50990250D01*
X60045068Y-51011293D01*
X60030453Y-51030999D01*
X60013977Y-51049177D01*
X59995799Y-51065653D01*
X59976093Y-51080268D01*
X59955050Y-51092880D01*
X59932871Y-51103370D01*
X59909772Y-51111635D01*
X59885973Y-51117596D01*
X59861705Y-51121196D01*
X59837201Y-51122400D01*
X58937199Y-51122400D01*
X58912695Y-51121196D01*
X58888427Y-51117596D01*
X58864628Y-51111635D01*
X58841529Y-51103370D01*
X58819350Y-51092880D01*
X58798307Y-51080268D01*
X58778601Y-51065653D01*
X58760423Y-51049177D01*
X58743947Y-51030999D01*
X58729332Y-51011293D01*
X58716720Y-50990250D01*
X58706230Y-50968071D01*
X58697965Y-50944972D01*
X58692004Y-50921173D01*
X58688404Y-50896905D01*
X58687200Y-50872401D01*
X58687200Y-50222399D01*
X58688404Y-50197895D01*
X58692004Y-50173627D01*
X58697965Y-50149828D01*
X58706230Y-50126729D01*
X58716720Y-50104550D01*
X58729332Y-50083507D01*
X58743947Y-50063801D01*
X58760423Y-50045623D01*
X58778601Y-50029147D01*
X58798307Y-50014532D01*
X58819350Y-50001920D01*
X58841529Y-49991430D01*
X58864628Y-49983165D01*
X58888427Y-49977204D01*
X58912695Y-49973604D01*
X58937199Y-49972400D01*
X59837201Y-49972400D01*
X59861705Y-49973604D01*
X59861705Y-49973604D01*
G37*
D12*
X59387200Y-50547400D03*
D10*
G36*
X59861705Y-47923604D02*
X59885973Y-47927204D01*
X59909772Y-47933165D01*
X59932871Y-47941430D01*
X59955050Y-47951920D01*
X59976093Y-47964532D01*
X59995799Y-47979147D01*
X60013977Y-47995623D01*
X60030453Y-48013801D01*
X60045068Y-48033507D01*
X60057680Y-48054550D01*
X60068170Y-48076729D01*
X60076435Y-48099828D01*
X60082396Y-48123627D01*
X60085996Y-48147895D01*
X60087200Y-48172399D01*
X60087200Y-48822401D01*
X60085996Y-48846905D01*
X60082396Y-48871173D01*
X60076435Y-48894972D01*
X60068170Y-48918071D01*
X60057680Y-48940250D01*
X60045068Y-48961293D01*
X60030453Y-48980999D01*
X60013977Y-48999177D01*
X59995799Y-49015653D01*
X59976093Y-49030268D01*
X59955050Y-49042880D01*
X59932871Y-49053370D01*
X59909772Y-49061635D01*
X59885973Y-49067596D01*
X59861705Y-49071196D01*
X59837201Y-49072400D01*
X58937199Y-49072400D01*
X58912695Y-49071196D01*
X58888427Y-49067596D01*
X58864628Y-49061635D01*
X58841529Y-49053370D01*
X58819350Y-49042880D01*
X58798307Y-49030268D01*
X58778601Y-49015653D01*
X58760423Y-48999177D01*
X58743947Y-48980999D01*
X58729332Y-48961293D01*
X58716720Y-48940250D01*
X58706230Y-48918071D01*
X58697965Y-48894972D01*
X58692004Y-48871173D01*
X58688404Y-48846905D01*
X58687200Y-48822401D01*
X58687200Y-48172399D01*
X58688404Y-48147895D01*
X58692004Y-48123627D01*
X58697965Y-48099828D01*
X58706230Y-48076729D01*
X58716720Y-48054550D01*
X58729332Y-48033507D01*
X58743947Y-48013801D01*
X58760423Y-47995623D01*
X58778601Y-47979147D01*
X58798307Y-47964532D01*
X58819350Y-47951920D01*
X58841529Y-47941430D01*
X58864628Y-47933165D01*
X58888427Y-47927204D01*
X58912695Y-47923604D01*
X58937199Y-47922400D01*
X59837201Y-47922400D01*
X59861705Y-47923604D01*
X59861705Y-47923604D01*
G37*
D12*
X59387200Y-48497400D03*
G04 #@! TD*
D10*
G04 #@! TO.C,C3*
G36*
X59912505Y-59531404D02*
X59936773Y-59535004D01*
X59960572Y-59540965D01*
X59983671Y-59549230D01*
X60005850Y-59559720D01*
X60026893Y-59572332D01*
X60046599Y-59586947D01*
X60064777Y-59603423D01*
X60081253Y-59621601D01*
X60095868Y-59641307D01*
X60108480Y-59662350D01*
X60118970Y-59684529D01*
X60127235Y-59707628D01*
X60133196Y-59731427D01*
X60136796Y-59755695D01*
X60138000Y-59780199D01*
X60138000Y-60430201D01*
X60136796Y-60454705D01*
X60133196Y-60478973D01*
X60127235Y-60502772D01*
X60118970Y-60525871D01*
X60108480Y-60548050D01*
X60095868Y-60569093D01*
X60081253Y-60588799D01*
X60064777Y-60606977D01*
X60046599Y-60623453D01*
X60026893Y-60638068D01*
X60005850Y-60650680D01*
X59983671Y-60661170D01*
X59960572Y-60669435D01*
X59936773Y-60675396D01*
X59912505Y-60678996D01*
X59888001Y-60680200D01*
X58987999Y-60680200D01*
X58963495Y-60678996D01*
X58939227Y-60675396D01*
X58915428Y-60669435D01*
X58892329Y-60661170D01*
X58870150Y-60650680D01*
X58849107Y-60638068D01*
X58829401Y-60623453D01*
X58811223Y-60606977D01*
X58794747Y-60588799D01*
X58780132Y-60569093D01*
X58767520Y-60548050D01*
X58757030Y-60525871D01*
X58748765Y-60502772D01*
X58742804Y-60478973D01*
X58739204Y-60454705D01*
X58738000Y-60430201D01*
X58738000Y-59780199D01*
X58739204Y-59755695D01*
X58742804Y-59731427D01*
X58748765Y-59707628D01*
X58757030Y-59684529D01*
X58767520Y-59662350D01*
X58780132Y-59641307D01*
X58794747Y-59621601D01*
X58811223Y-59603423D01*
X58829401Y-59586947D01*
X58849107Y-59572332D01*
X58870150Y-59559720D01*
X58892329Y-59549230D01*
X58915428Y-59540965D01*
X58939227Y-59535004D01*
X58963495Y-59531404D01*
X58987999Y-59530200D01*
X59888001Y-59530200D01*
X59912505Y-59531404D01*
X59912505Y-59531404D01*
G37*
D12*
X59438000Y-60105200D03*
D10*
G36*
X59912505Y-61581404D02*
X59936773Y-61585004D01*
X59960572Y-61590965D01*
X59983671Y-61599230D01*
X60005850Y-61609720D01*
X60026893Y-61622332D01*
X60046599Y-61636947D01*
X60064777Y-61653423D01*
X60081253Y-61671601D01*
X60095868Y-61691307D01*
X60108480Y-61712350D01*
X60118970Y-61734529D01*
X60127235Y-61757628D01*
X60133196Y-61781427D01*
X60136796Y-61805695D01*
X60138000Y-61830199D01*
X60138000Y-62480201D01*
X60136796Y-62504705D01*
X60133196Y-62528973D01*
X60127235Y-62552772D01*
X60118970Y-62575871D01*
X60108480Y-62598050D01*
X60095868Y-62619093D01*
X60081253Y-62638799D01*
X60064777Y-62656977D01*
X60046599Y-62673453D01*
X60026893Y-62688068D01*
X60005850Y-62700680D01*
X59983671Y-62711170D01*
X59960572Y-62719435D01*
X59936773Y-62725396D01*
X59912505Y-62728996D01*
X59888001Y-62730200D01*
X58987999Y-62730200D01*
X58963495Y-62728996D01*
X58939227Y-62725396D01*
X58915428Y-62719435D01*
X58892329Y-62711170D01*
X58870150Y-62700680D01*
X58849107Y-62688068D01*
X58829401Y-62673453D01*
X58811223Y-62656977D01*
X58794747Y-62638799D01*
X58780132Y-62619093D01*
X58767520Y-62598050D01*
X58757030Y-62575871D01*
X58748765Y-62552772D01*
X58742804Y-62528973D01*
X58739204Y-62504705D01*
X58738000Y-62480201D01*
X58738000Y-61830199D01*
X58739204Y-61805695D01*
X58742804Y-61781427D01*
X58748765Y-61757628D01*
X58757030Y-61734529D01*
X58767520Y-61712350D01*
X58780132Y-61691307D01*
X58794747Y-61671601D01*
X58811223Y-61653423D01*
X58829401Y-61636947D01*
X58849107Y-61622332D01*
X58870150Y-61609720D01*
X58892329Y-61599230D01*
X58915428Y-61590965D01*
X58939227Y-61585004D01*
X58963495Y-61581404D01*
X58987999Y-61580200D01*
X59888001Y-61580200D01*
X59912505Y-61581404D01*
X59912505Y-61581404D01*
G37*
D12*
X59438000Y-62155200D03*
G04 #@! TD*
D10*
G04 #@! TO.C,C4*
G36*
X55594505Y-49973604D02*
X55618773Y-49977204D01*
X55642572Y-49983165D01*
X55665671Y-49991430D01*
X55687850Y-50001920D01*
X55708893Y-50014532D01*
X55728599Y-50029147D01*
X55746777Y-50045623D01*
X55763253Y-50063801D01*
X55777868Y-50083507D01*
X55790480Y-50104550D01*
X55800970Y-50126729D01*
X55809235Y-50149828D01*
X55815196Y-50173627D01*
X55818796Y-50197895D01*
X55820000Y-50222399D01*
X55820000Y-50872401D01*
X55818796Y-50896905D01*
X55815196Y-50921173D01*
X55809235Y-50944972D01*
X55800970Y-50968071D01*
X55790480Y-50990250D01*
X55777868Y-51011293D01*
X55763253Y-51030999D01*
X55746777Y-51049177D01*
X55728599Y-51065653D01*
X55708893Y-51080268D01*
X55687850Y-51092880D01*
X55665671Y-51103370D01*
X55642572Y-51111635D01*
X55618773Y-51117596D01*
X55594505Y-51121196D01*
X55570001Y-51122400D01*
X54669999Y-51122400D01*
X54645495Y-51121196D01*
X54621227Y-51117596D01*
X54597428Y-51111635D01*
X54574329Y-51103370D01*
X54552150Y-51092880D01*
X54531107Y-51080268D01*
X54511401Y-51065653D01*
X54493223Y-51049177D01*
X54476747Y-51030999D01*
X54462132Y-51011293D01*
X54449520Y-50990250D01*
X54439030Y-50968071D01*
X54430765Y-50944972D01*
X54424804Y-50921173D01*
X54421204Y-50896905D01*
X54420000Y-50872401D01*
X54420000Y-50222399D01*
X54421204Y-50197895D01*
X54424804Y-50173627D01*
X54430765Y-50149828D01*
X54439030Y-50126729D01*
X54449520Y-50104550D01*
X54462132Y-50083507D01*
X54476747Y-50063801D01*
X54493223Y-50045623D01*
X54511401Y-50029147D01*
X54531107Y-50014532D01*
X54552150Y-50001920D01*
X54574329Y-49991430D01*
X54597428Y-49983165D01*
X54621227Y-49977204D01*
X54645495Y-49973604D01*
X54669999Y-49972400D01*
X55570001Y-49972400D01*
X55594505Y-49973604D01*
X55594505Y-49973604D01*
G37*
D12*
X55120000Y-50547400D03*
D10*
G36*
X55594505Y-47923604D02*
X55618773Y-47927204D01*
X55642572Y-47933165D01*
X55665671Y-47941430D01*
X55687850Y-47951920D01*
X55708893Y-47964532D01*
X55728599Y-47979147D01*
X55746777Y-47995623D01*
X55763253Y-48013801D01*
X55777868Y-48033507D01*
X55790480Y-48054550D01*
X55800970Y-48076729D01*
X55809235Y-48099828D01*
X55815196Y-48123627D01*
X55818796Y-48147895D01*
X55820000Y-48172399D01*
X55820000Y-48822401D01*
X55818796Y-48846905D01*
X55815196Y-48871173D01*
X55809235Y-48894972D01*
X55800970Y-48918071D01*
X55790480Y-48940250D01*
X55777868Y-48961293D01*
X55763253Y-48980999D01*
X55746777Y-48999177D01*
X55728599Y-49015653D01*
X55708893Y-49030268D01*
X55687850Y-49042880D01*
X55665671Y-49053370D01*
X55642572Y-49061635D01*
X55618773Y-49067596D01*
X55594505Y-49071196D01*
X55570001Y-49072400D01*
X54669999Y-49072400D01*
X54645495Y-49071196D01*
X54621227Y-49067596D01*
X54597428Y-49061635D01*
X54574329Y-49053370D01*
X54552150Y-49042880D01*
X54531107Y-49030268D01*
X54511401Y-49015653D01*
X54493223Y-48999177D01*
X54476747Y-48980999D01*
X54462132Y-48961293D01*
X54449520Y-48940250D01*
X54439030Y-48918071D01*
X54430765Y-48894972D01*
X54424804Y-48871173D01*
X54421204Y-48846905D01*
X54420000Y-48822401D01*
X54420000Y-48172399D01*
X54421204Y-48147895D01*
X54424804Y-48123627D01*
X54430765Y-48099828D01*
X54439030Y-48076729D01*
X54449520Y-48054550D01*
X54462132Y-48033507D01*
X54476747Y-48013801D01*
X54493223Y-47995623D01*
X54511401Y-47979147D01*
X54531107Y-47964532D01*
X54552150Y-47951920D01*
X54574329Y-47941430D01*
X54597428Y-47933165D01*
X54621227Y-47927204D01*
X54645495Y-47923604D01*
X54669999Y-47922400D01*
X55570001Y-47922400D01*
X55594505Y-47923604D01*
X55594505Y-47923604D01*
G37*
D12*
X55120000Y-48497400D03*
G04 #@! TD*
D10*
G04 #@! TO.C,C5*
G36*
X55404005Y-59518704D02*
X55428273Y-59522304D01*
X55452072Y-59528265D01*
X55475171Y-59536530D01*
X55497350Y-59547020D01*
X55518393Y-59559632D01*
X55538099Y-59574247D01*
X55556277Y-59590723D01*
X55572753Y-59608901D01*
X55587368Y-59628607D01*
X55599980Y-59649650D01*
X55610470Y-59671829D01*
X55618735Y-59694928D01*
X55624696Y-59718727D01*
X55628296Y-59742995D01*
X55629500Y-59767499D01*
X55629500Y-60417501D01*
X55628296Y-60442005D01*
X55624696Y-60466273D01*
X55618735Y-60490072D01*
X55610470Y-60513171D01*
X55599980Y-60535350D01*
X55587368Y-60556393D01*
X55572753Y-60576099D01*
X55556277Y-60594277D01*
X55538099Y-60610753D01*
X55518393Y-60625368D01*
X55497350Y-60637980D01*
X55475171Y-60648470D01*
X55452072Y-60656735D01*
X55428273Y-60662696D01*
X55404005Y-60666296D01*
X55379501Y-60667500D01*
X54479499Y-60667500D01*
X54454995Y-60666296D01*
X54430727Y-60662696D01*
X54406928Y-60656735D01*
X54383829Y-60648470D01*
X54361650Y-60637980D01*
X54340607Y-60625368D01*
X54320901Y-60610753D01*
X54302723Y-60594277D01*
X54286247Y-60576099D01*
X54271632Y-60556393D01*
X54259020Y-60535350D01*
X54248530Y-60513171D01*
X54240265Y-60490072D01*
X54234304Y-60466273D01*
X54230704Y-60442005D01*
X54229500Y-60417501D01*
X54229500Y-59767499D01*
X54230704Y-59742995D01*
X54234304Y-59718727D01*
X54240265Y-59694928D01*
X54248530Y-59671829D01*
X54259020Y-59649650D01*
X54271632Y-59628607D01*
X54286247Y-59608901D01*
X54302723Y-59590723D01*
X54320901Y-59574247D01*
X54340607Y-59559632D01*
X54361650Y-59547020D01*
X54383829Y-59536530D01*
X54406928Y-59528265D01*
X54430727Y-59522304D01*
X54454995Y-59518704D01*
X54479499Y-59517500D01*
X55379501Y-59517500D01*
X55404005Y-59518704D01*
X55404005Y-59518704D01*
G37*
D12*
X54929500Y-60092500D03*
D10*
G36*
X55404005Y-61568704D02*
X55428273Y-61572304D01*
X55452072Y-61578265D01*
X55475171Y-61586530D01*
X55497350Y-61597020D01*
X55518393Y-61609632D01*
X55538099Y-61624247D01*
X55556277Y-61640723D01*
X55572753Y-61658901D01*
X55587368Y-61678607D01*
X55599980Y-61699650D01*
X55610470Y-61721829D01*
X55618735Y-61744928D01*
X55624696Y-61768727D01*
X55628296Y-61792995D01*
X55629500Y-61817499D01*
X55629500Y-62467501D01*
X55628296Y-62492005D01*
X55624696Y-62516273D01*
X55618735Y-62540072D01*
X55610470Y-62563171D01*
X55599980Y-62585350D01*
X55587368Y-62606393D01*
X55572753Y-62626099D01*
X55556277Y-62644277D01*
X55538099Y-62660753D01*
X55518393Y-62675368D01*
X55497350Y-62687980D01*
X55475171Y-62698470D01*
X55452072Y-62706735D01*
X55428273Y-62712696D01*
X55404005Y-62716296D01*
X55379501Y-62717500D01*
X54479499Y-62717500D01*
X54454995Y-62716296D01*
X54430727Y-62712696D01*
X54406928Y-62706735D01*
X54383829Y-62698470D01*
X54361650Y-62687980D01*
X54340607Y-62675368D01*
X54320901Y-62660753D01*
X54302723Y-62644277D01*
X54286247Y-62626099D01*
X54271632Y-62606393D01*
X54259020Y-62585350D01*
X54248530Y-62563171D01*
X54240265Y-62540072D01*
X54234304Y-62516273D01*
X54230704Y-62492005D01*
X54229500Y-62467501D01*
X54229500Y-61817499D01*
X54230704Y-61792995D01*
X54234304Y-61768727D01*
X54240265Y-61744928D01*
X54248530Y-61721829D01*
X54259020Y-61699650D01*
X54271632Y-61678607D01*
X54286247Y-61658901D01*
X54302723Y-61640723D01*
X54320901Y-61624247D01*
X54340607Y-61609632D01*
X54361650Y-61597020D01*
X54383829Y-61586530D01*
X54406928Y-61578265D01*
X54430727Y-61572304D01*
X54454995Y-61568704D01*
X54479499Y-61567500D01*
X55379501Y-61567500D01*
X55404005Y-61568704D01*
X55404005Y-61568704D01*
G37*
D12*
X54929500Y-62142500D03*
G04 #@! TD*
D10*
G04 #@! TO.C,C14*
G36*
X62636005Y-49839604D02*
X62660273Y-49843204D01*
X62684072Y-49849165D01*
X62707171Y-49857430D01*
X62729350Y-49867920D01*
X62750393Y-49880532D01*
X62770099Y-49895147D01*
X62788277Y-49911623D01*
X62804753Y-49929801D01*
X62819368Y-49949507D01*
X62831980Y-49970550D01*
X62842470Y-49992729D01*
X62850735Y-50015828D01*
X62856696Y-50039627D01*
X62860296Y-50063895D01*
X62861500Y-50088399D01*
X62861500Y-50988401D01*
X62860296Y-51012905D01*
X62856696Y-51037173D01*
X62850735Y-51060972D01*
X62842470Y-51084071D01*
X62831980Y-51106250D01*
X62819368Y-51127293D01*
X62804753Y-51146999D01*
X62788277Y-51165177D01*
X62770099Y-51181653D01*
X62750393Y-51196268D01*
X62729350Y-51208880D01*
X62707171Y-51219370D01*
X62684072Y-51227635D01*
X62660273Y-51233596D01*
X62636005Y-51237196D01*
X62611501Y-51238400D01*
X61961499Y-51238400D01*
X61936995Y-51237196D01*
X61912727Y-51233596D01*
X61888928Y-51227635D01*
X61865829Y-51219370D01*
X61843650Y-51208880D01*
X61822607Y-51196268D01*
X61802901Y-51181653D01*
X61784723Y-51165177D01*
X61768247Y-51146999D01*
X61753632Y-51127293D01*
X61741020Y-51106250D01*
X61730530Y-51084071D01*
X61722265Y-51060972D01*
X61716304Y-51037173D01*
X61712704Y-51012905D01*
X61711500Y-50988401D01*
X61711500Y-50088399D01*
X61712704Y-50063895D01*
X61716304Y-50039627D01*
X61722265Y-50015828D01*
X61730530Y-49992729D01*
X61741020Y-49970550D01*
X61753632Y-49949507D01*
X61768247Y-49929801D01*
X61784723Y-49911623D01*
X61802901Y-49895147D01*
X61822607Y-49880532D01*
X61843650Y-49867920D01*
X61865829Y-49857430D01*
X61888928Y-49849165D01*
X61912727Y-49843204D01*
X61936995Y-49839604D01*
X61961499Y-49838400D01*
X62611501Y-49838400D01*
X62636005Y-49839604D01*
X62636005Y-49839604D01*
G37*
D12*
X62286500Y-50538400D03*
D10*
G36*
X64686005Y-49839604D02*
X64710273Y-49843204D01*
X64734072Y-49849165D01*
X64757171Y-49857430D01*
X64779350Y-49867920D01*
X64800393Y-49880532D01*
X64820099Y-49895147D01*
X64838277Y-49911623D01*
X64854753Y-49929801D01*
X64869368Y-49949507D01*
X64881980Y-49970550D01*
X64892470Y-49992729D01*
X64900735Y-50015828D01*
X64906696Y-50039627D01*
X64910296Y-50063895D01*
X64911500Y-50088399D01*
X64911500Y-50988401D01*
X64910296Y-51012905D01*
X64906696Y-51037173D01*
X64900735Y-51060972D01*
X64892470Y-51084071D01*
X64881980Y-51106250D01*
X64869368Y-51127293D01*
X64854753Y-51146999D01*
X64838277Y-51165177D01*
X64820099Y-51181653D01*
X64800393Y-51196268D01*
X64779350Y-51208880D01*
X64757171Y-51219370D01*
X64734072Y-51227635D01*
X64710273Y-51233596D01*
X64686005Y-51237196D01*
X64661501Y-51238400D01*
X64011499Y-51238400D01*
X63986995Y-51237196D01*
X63962727Y-51233596D01*
X63938928Y-51227635D01*
X63915829Y-51219370D01*
X63893650Y-51208880D01*
X63872607Y-51196268D01*
X63852901Y-51181653D01*
X63834723Y-51165177D01*
X63818247Y-51146999D01*
X63803632Y-51127293D01*
X63791020Y-51106250D01*
X63780530Y-51084071D01*
X63772265Y-51060972D01*
X63766304Y-51037173D01*
X63762704Y-51012905D01*
X63761500Y-50988401D01*
X63761500Y-50088399D01*
X63762704Y-50063895D01*
X63766304Y-50039627D01*
X63772265Y-50015828D01*
X63780530Y-49992729D01*
X63791020Y-49970550D01*
X63803632Y-49949507D01*
X63818247Y-49929801D01*
X63834723Y-49911623D01*
X63852901Y-49895147D01*
X63872607Y-49880532D01*
X63893650Y-49867920D01*
X63915829Y-49857430D01*
X63938928Y-49849165D01*
X63962727Y-49843204D01*
X63986995Y-49839604D01*
X64011499Y-49838400D01*
X64661501Y-49838400D01*
X64686005Y-49839604D01*
X64686005Y-49839604D01*
G37*
D12*
X64336500Y-50538400D03*
G04 #@! TD*
D10*
G04 #@! TO.C,C15*
G36*
X62763005Y-61307704D02*
X62787273Y-61311304D01*
X62811072Y-61317265D01*
X62834171Y-61325530D01*
X62856350Y-61336020D01*
X62877393Y-61348632D01*
X62897099Y-61363247D01*
X62915277Y-61379723D01*
X62931753Y-61397901D01*
X62946368Y-61417607D01*
X62958980Y-61438650D01*
X62969470Y-61460829D01*
X62977735Y-61483928D01*
X62983696Y-61507727D01*
X62987296Y-61531995D01*
X62988500Y-61556499D01*
X62988500Y-62456501D01*
X62987296Y-62481005D01*
X62983696Y-62505273D01*
X62977735Y-62529072D01*
X62969470Y-62552171D01*
X62958980Y-62574350D01*
X62946368Y-62595393D01*
X62931753Y-62615099D01*
X62915277Y-62633277D01*
X62897099Y-62649753D01*
X62877393Y-62664368D01*
X62856350Y-62676980D01*
X62834171Y-62687470D01*
X62811072Y-62695735D01*
X62787273Y-62701696D01*
X62763005Y-62705296D01*
X62738501Y-62706500D01*
X62088499Y-62706500D01*
X62063995Y-62705296D01*
X62039727Y-62701696D01*
X62015928Y-62695735D01*
X61992829Y-62687470D01*
X61970650Y-62676980D01*
X61949607Y-62664368D01*
X61929901Y-62649753D01*
X61911723Y-62633277D01*
X61895247Y-62615099D01*
X61880632Y-62595393D01*
X61868020Y-62574350D01*
X61857530Y-62552171D01*
X61849265Y-62529072D01*
X61843304Y-62505273D01*
X61839704Y-62481005D01*
X61838500Y-62456501D01*
X61838500Y-61556499D01*
X61839704Y-61531995D01*
X61843304Y-61507727D01*
X61849265Y-61483928D01*
X61857530Y-61460829D01*
X61868020Y-61438650D01*
X61880632Y-61417607D01*
X61895247Y-61397901D01*
X61911723Y-61379723D01*
X61929901Y-61363247D01*
X61949607Y-61348632D01*
X61970650Y-61336020D01*
X61992829Y-61325530D01*
X62015928Y-61317265D01*
X62039727Y-61311304D01*
X62063995Y-61307704D01*
X62088499Y-61306500D01*
X62738501Y-61306500D01*
X62763005Y-61307704D01*
X62763005Y-61307704D01*
G37*
D12*
X62413500Y-62006500D03*
D10*
G36*
X64813005Y-61307704D02*
X64837273Y-61311304D01*
X64861072Y-61317265D01*
X64884171Y-61325530D01*
X64906350Y-61336020D01*
X64927393Y-61348632D01*
X64947099Y-61363247D01*
X64965277Y-61379723D01*
X64981753Y-61397901D01*
X64996368Y-61417607D01*
X65008980Y-61438650D01*
X65019470Y-61460829D01*
X65027735Y-61483928D01*
X65033696Y-61507727D01*
X65037296Y-61531995D01*
X65038500Y-61556499D01*
X65038500Y-62456501D01*
X65037296Y-62481005D01*
X65033696Y-62505273D01*
X65027735Y-62529072D01*
X65019470Y-62552171D01*
X65008980Y-62574350D01*
X64996368Y-62595393D01*
X64981753Y-62615099D01*
X64965277Y-62633277D01*
X64947099Y-62649753D01*
X64927393Y-62664368D01*
X64906350Y-62676980D01*
X64884171Y-62687470D01*
X64861072Y-62695735D01*
X64837273Y-62701696D01*
X64813005Y-62705296D01*
X64788501Y-62706500D01*
X64138499Y-62706500D01*
X64113995Y-62705296D01*
X64089727Y-62701696D01*
X64065928Y-62695735D01*
X64042829Y-62687470D01*
X64020650Y-62676980D01*
X63999607Y-62664368D01*
X63979901Y-62649753D01*
X63961723Y-62633277D01*
X63945247Y-62615099D01*
X63930632Y-62595393D01*
X63918020Y-62574350D01*
X63907530Y-62552171D01*
X63899265Y-62529072D01*
X63893304Y-62505273D01*
X63889704Y-62481005D01*
X63888500Y-62456501D01*
X63888500Y-61556499D01*
X63889704Y-61531995D01*
X63893304Y-61507727D01*
X63899265Y-61483928D01*
X63907530Y-61460829D01*
X63918020Y-61438650D01*
X63930632Y-61417607D01*
X63945247Y-61397901D01*
X63961723Y-61379723D01*
X63979901Y-61363247D01*
X63999607Y-61348632D01*
X64020650Y-61336020D01*
X64042829Y-61325530D01*
X64065928Y-61317265D01*
X64089727Y-61311304D01*
X64113995Y-61307704D01*
X64138499Y-61306500D01*
X64788501Y-61306500D01*
X64813005Y-61307704D01*
X64813005Y-61307704D01*
G37*
D12*
X64463500Y-62006500D03*
G04 #@! TD*
D10*
G04 #@! TO.C,C16*
G36*
X77974505Y-58401204D02*
X77998773Y-58404804D01*
X78022572Y-58410765D01*
X78045671Y-58419030D01*
X78067850Y-58429520D01*
X78088893Y-58442132D01*
X78108599Y-58456747D01*
X78126777Y-58473223D01*
X78143253Y-58491401D01*
X78157868Y-58511107D01*
X78170480Y-58532150D01*
X78180970Y-58554329D01*
X78189235Y-58577428D01*
X78195196Y-58601227D01*
X78198796Y-58625495D01*
X78200000Y-58649999D01*
X78200000Y-59300001D01*
X78198796Y-59324505D01*
X78195196Y-59348773D01*
X78189235Y-59372572D01*
X78180970Y-59395671D01*
X78170480Y-59417850D01*
X78157868Y-59438893D01*
X78143253Y-59458599D01*
X78126777Y-59476777D01*
X78108599Y-59493253D01*
X78088893Y-59507868D01*
X78067850Y-59520480D01*
X78045671Y-59530970D01*
X78022572Y-59539235D01*
X77998773Y-59545196D01*
X77974505Y-59548796D01*
X77950001Y-59550000D01*
X77049999Y-59550000D01*
X77025495Y-59548796D01*
X77001227Y-59545196D01*
X76977428Y-59539235D01*
X76954329Y-59530970D01*
X76932150Y-59520480D01*
X76911107Y-59507868D01*
X76891401Y-59493253D01*
X76873223Y-59476777D01*
X76856747Y-59458599D01*
X76842132Y-59438893D01*
X76829520Y-59417850D01*
X76819030Y-59395671D01*
X76810765Y-59372572D01*
X76804804Y-59348773D01*
X76801204Y-59324505D01*
X76800000Y-59300001D01*
X76800000Y-58649999D01*
X76801204Y-58625495D01*
X76804804Y-58601227D01*
X76810765Y-58577428D01*
X76819030Y-58554329D01*
X76829520Y-58532150D01*
X76842132Y-58511107D01*
X76856747Y-58491401D01*
X76873223Y-58473223D01*
X76891401Y-58456747D01*
X76911107Y-58442132D01*
X76932150Y-58429520D01*
X76954329Y-58419030D01*
X76977428Y-58410765D01*
X77001227Y-58404804D01*
X77025495Y-58401204D01*
X77049999Y-58400000D01*
X77950001Y-58400000D01*
X77974505Y-58401204D01*
X77974505Y-58401204D01*
G37*
D12*
X77500000Y-58975000D03*
D10*
G36*
X77974505Y-60451204D02*
X77998773Y-60454804D01*
X78022572Y-60460765D01*
X78045671Y-60469030D01*
X78067850Y-60479520D01*
X78088893Y-60492132D01*
X78108599Y-60506747D01*
X78126777Y-60523223D01*
X78143253Y-60541401D01*
X78157868Y-60561107D01*
X78170480Y-60582150D01*
X78180970Y-60604329D01*
X78189235Y-60627428D01*
X78195196Y-60651227D01*
X78198796Y-60675495D01*
X78200000Y-60699999D01*
X78200000Y-61350001D01*
X78198796Y-61374505D01*
X78195196Y-61398773D01*
X78189235Y-61422572D01*
X78180970Y-61445671D01*
X78170480Y-61467850D01*
X78157868Y-61488893D01*
X78143253Y-61508599D01*
X78126777Y-61526777D01*
X78108599Y-61543253D01*
X78088893Y-61557868D01*
X78067850Y-61570480D01*
X78045671Y-61580970D01*
X78022572Y-61589235D01*
X77998773Y-61595196D01*
X77974505Y-61598796D01*
X77950001Y-61600000D01*
X77049999Y-61600000D01*
X77025495Y-61598796D01*
X77001227Y-61595196D01*
X76977428Y-61589235D01*
X76954329Y-61580970D01*
X76932150Y-61570480D01*
X76911107Y-61557868D01*
X76891401Y-61543253D01*
X76873223Y-61526777D01*
X76856747Y-61508599D01*
X76842132Y-61488893D01*
X76829520Y-61467850D01*
X76819030Y-61445671D01*
X76810765Y-61422572D01*
X76804804Y-61398773D01*
X76801204Y-61374505D01*
X76800000Y-61350001D01*
X76800000Y-60699999D01*
X76801204Y-60675495D01*
X76804804Y-60651227D01*
X76810765Y-60627428D01*
X76819030Y-60604329D01*
X76829520Y-60582150D01*
X76842132Y-60561107D01*
X76856747Y-60541401D01*
X76873223Y-60523223D01*
X76891401Y-60506747D01*
X76911107Y-60492132D01*
X76932150Y-60479520D01*
X76954329Y-60469030D01*
X76977428Y-60460765D01*
X77001227Y-60454804D01*
X77025495Y-60451204D01*
X77049999Y-60450000D01*
X77950001Y-60450000D01*
X77974505Y-60451204D01*
X77974505Y-60451204D01*
G37*
D12*
X77500000Y-61025000D03*
G04 #@! TD*
D10*
G04 #@! TO.C,C17*
G36*
X70377305Y-39102404D02*
X70401573Y-39106004D01*
X70425372Y-39111965D01*
X70448471Y-39120230D01*
X70470650Y-39130720D01*
X70491693Y-39143332D01*
X70511399Y-39157947D01*
X70529577Y-39174423D01*
X70546053Y-39192601D01*
X70560668Y-39212307D01*
X70573280Y-39233350D01*
X70583770Y-39255529D01*
X70592035Y-39278628D01*
X70597996Y-39302427D01*
X70601596Y-39326695D01*
X70602800Y-39351199D01*
X70602800Y-40001201D01*
X70601596Y-40025705D01*
X70597996Y-40049973D01*
X70592035Y-40073772D01*
X70583770Y-40096871D01*
X70573280Y-40119050D01*
X70560668Y-40140093D01*
X70546053Y-40159799D01*
X70529577Y-40177977D01*
X70511399Y-40194453D01*
X70491693Y-40209068D01*
X70470650Y-40221680D01*
X70448471Y-40232170D01*
X70425372Y-40240435D01*
X70401573Y-40246396D01*
X70377305Y-40249996D01*
X70352801Y-40251200D01*
X69452799Y-40251200D01*
X69428295Y-40249996D01*
X69404027Y-40246396D01*
X69380228Y-40240435D01*
X69357129Y-40232170D01*
X69334950Y-40221680D01*
X69313907Y-40209068D01*
X69294201Y-40194453D01*
X69276023Y-40177977D01*
X69259547Y-40159799D01*
X69244932Y-40140093D01*
X69232320Y-40119050D01*
X69221830Y-40096871D01*
X69213565Y-40073772D01*
X69207604Y-40049973D01*
X69204004Y-40025705D01*
X69202800Y-40001201D01*
X69202800Y-39351199D01*
X69204004Y-39326695D01*
X69207604Y-39302427D01*
X69213565Y-39278628D01*
X69221830Y-39255529D01*
X69232320Y-39233350D01*
X69244932Y-39212307D01*
X69259547Y-39192601D01*
X69276023Y-39174423D01*
X69294201Y-39157947D01*
X69313907Y-39143332D01*
X69334950Y-39130720D01*
X69357129Y-39120230D01*
X69380228Y-39111965D01*
X69404027Y-39106004D01*
X69428295Y-39102404D01*
X69452799Y-39101200D01*
X70352801Y-39101200D01*
X70377305Y-39102404D01*
X70377305Y-39102404D01*
G37*
D12*
X69902800Y-39676200D03*
D10*
G36*
X70377305Y-37052404D02*
X70401573Y-37056004D01*
X70425372Y-37061965D01*
X70448471Y-37070230D01*
X70470650Y-37080720D01*
X70491693Y-37093332D01*
X70511399Y-37107947D01*
X70529577Y-37124423D01*
X70546053Y-37142601D01*
X70560668Y-37162307D01*
X70573280Y-37183350D01*
X70583770Y-37205529D01*
X70592035Y-37228628D01*
X70597996Y-37252427D01*
X70601596Y-37276695D01*
X70602800Y-37301199D01*
X70602800Y-37951201D01*
X70601596Y-37975705D01*
X70597996Y-37999973D01*
X70592035Y-38023772D01*
X70583770Y-38046871D01*
X70573280Y-38069050D01*
X70560668Y-38090093D01*
X70546053Y-38109799D01*
X70529577Y-38127977D01*
X70511399Y-38144453D01*
X70491693Y-38159068D01*
X70470650Y-38171680D01*
X70448471Y-38182170D01*
X70425372Y-38190435D01*
X70401573Y-38196396D01*
X70377305Y-38199996D01*
X70352801Y-38201200D01*
X69452799Y-38201200D01*
X69428295Y-38199996D01*
X69404027Y-38196396D01*
X69380228Y-38190435D01*
X69357129Y-38182170D01*
X69334950Y-38171680D01*
X69313907Y-38159068D01*
X69294201Y-38144453D01*
X69276023Y-38127977D01*
X69259547Y-38109799D01*
X69244932Y-38090093D01*
X69232320Y-38069050D01*
X69221830Y-38046871D01*
X69213565Y-38023772D01*
X69207604Y-37999973D01*
X69204004Y-37975705D01*
X69202800Y-37951201D01*
X69202800Y-37301199D01*
X69204004Y-37276695D01*
X69207604Y-37252427D01*
X69213565Y-37228628D01*
X69221830Y-37205529D01*
X69232320Y-37183350D01*
X69244932Y-37162307D01*
X69259547Y-37142601D01*
X69276023Y-37124423D01*
X69294201Y-37107947D01*
X69313907Y-37093332D01*
X69334950Y-37080720D01*
X69357129Y-37070230D01*
X69380228Y-37061965D01*
X69404027Y-37056004D01*
X69428295Y-37052404D01*
X69452799Y-37051200D01*
X70352801Y-37051200D01*
X70377305Y-37052404D01*
X70377305Y-37052404D01*
G37*
D12*
X69902800Y-37626200D03*
G04 #@! TD*
D10*
G04 #@! TO.C,C18*
G36*
X84852105Y-48208404D02*
X84876373Y-48212004D01*
X84900172Y-48217965D01*
X84923271Y-48226230D01*
X84945450Y-48236720D01*
X84966493Y-48249332D01*
X84986199Y-48263947D01*
X85004377Y-48280423D01*
X85020853Y-48298601D01*
X85035468Y-48318307D01*
X85048080Y-48339350D01*
X85058570Y-48361529D01*
X85066835Y-48384628D01*
X85072796Y-48408427D01*
X85076396Y-48432695D01*
X85077600Y-48457199D01*
X85077600Y-49357201D01*
X85076396Y-49381705D01*
X85072796Y-49405973D01*
X85066835Y-49429772D01*
X85058570Y-49452871D01*
X85048080Y-49475050D01*
X85035468Y-49496093D01*
X85020853Y-49515799D01*
X85004377Y-49533977D01*
X84986199Y-49550453D01*
X84966493Y-49565068D01*
X84945450Y-49577680D01*
X84923271Y-49588170D01*
X84900172Y-49596435D01*
X84876373Y-49602396D01*
X84852105Y-49605996D01*
X84827601Y-49607200D01*
X84177599Y-49607200D01*
X84153095Y-49605996D01*
X84128827Y-49602396D01*
X84105028Y-49596435D01*
X84081929Y-49588170D01*
X84059750Y-49577680D01*
X84038707Y-49565068D01*
X84019001Y-49550453D01*
X84000823Y-49533977D01*
X83984347Y-49515799D01*
X83969732Y-49496093D01*
X83957120Y-49475050D01*
X83946630Y-49452871D01*
X83938365Y-49429772D01*
X83932404Y-49405973D01*
X83928804Y-49381705D01*
X83927600Y-49357201D01*
X83927600Y-48457199D01*
X83928804Y-48432695D01*
X83932404Y-48408427D01*
X83938365Y-48384628D01*
X83946630Y-48361529D01*
X83957120Y-48339350D01*
X83969732Y-48318307D01*
X83984347Y-48298601D01*
X84000823Y-48280423D01*
X84019001Y-48263947D01*
X84038707Y-48249332D01*
X84059750Y-48236720D01*
X84081929Y-48226230D01*
X84105028Y-48217965D01*
X84128827Y-48212004D01*
X84153095Y-48208404D01*
X84177599Y-48207200D01*
X84827601Y-48207200D01*
X84852105Y-48208404D01*
X84852105Y-48208404D01*
G37*
D12*
X84502600Y-48907200D03*
D10*
G36*
X82802105Y-48208404D02*
X82826373Y-48212004D01*
X82850172Y-48217965D01*
X82873271Y-48226230D01*
X82895450Y-48236720D01*
X82916493Y-48249332D01*
X82936199Y-48263947D01*
X82954377Y-48280423D01*
X82970853Y-48298601D01*
X82985468Y-48318307D01*
X82998080Y-48339350D01*
X83008570Y-48361529D01*
X83016835Y-48384628D01*
X83022796Y-48408427D01*
X83026396Y-48432695D01*
X83027600Y-48457199D01*
X83027600Y-49357201D01*
X83026396Y-49381705D01*
X83022796Y-49405973D01*
X83016835Y-49429772D01*
X83008570Y-49452871D01*
X82998080Y-49475050D01*
X82985468Y-49496093D01*
X82970853Y-49515799D01*
X82954377Y-49533977D01*
X82936199Y-49550453D01*
X82916493Y-49565068D01*
X82895450Y-49577680D01*
X82873271Y-49588170D01*
X82850172Y-49596435D01*
X82826373Y-49602396D01*
X82802105Y-49605996D01*
X82777601Y-49607200D01*
X82127599Y-49607200D01*
X82103095Y-49605996D01*
X82078827Y-49602396D01*
X82055028Y-49596435D01*
X82031929Y-49588170D01*
X82009750Y-49577680D01*
X81988707Y-49565068D01*
X81969001Y-49550453D01*
X81950823Y-49533977D01*
X81934347Y-49515799D01*
X81919732Y-49496093D01*
X81907120Y-49475050D01*
X81896630Y-49452871D01*
X81888365Y-49429772D01*
X81882404Y-49405973D01*
X81878804Y-49381705D01*
X81877600Y-49357201D01*
X81877600Y-48457199D01*
X81878804Y-48432695D01*
X81882404Y-48408427D01*
X81888365Y-48384628D01*
X81896630Y-48361529D01*
X81907120Y-48339350D01*
X81919732Y-48318307D01*
X81934347Y-48298601D01*
X81950823Y-48280423D01*
X81969001Y-48263947D01*
X81988707Y-48249332D01*
X82009750Y-48236720D01*
X82031929Y-48226230D01*
X82055028Y-48217965D01*
X82078827Y-48212004D01*
X82103095Y-48208404D01*
X82127599Y-48207200D01*
X82777601Y-48207200D01*
X82802105Y-48208404D01*
X82802105Y-48208404D01*
G37*
D12*
X82452600Y-48907200D03*
G04 #@! TD*
D10*
G04 #@! TO.C,R1*
G36*
X53410105Y-49973604D02*
X53434373Y-49977204D01*
X53458172Y-49983165D01*
X53481271Y-49991430D01*
X53503450Y-50001920D01*
X53524493Y-50014532D01*
X53544199Y-50029147D01*
X53562377Y-50045623D01*
X53578853Y-50063801D01*
X53593468Y-50083507D01*
X53606080Y-50104550D01*
X53616570Y-50126729D01*
X53624835Y-50149828D01*
X53630796Y-50173627D01*
X53634396Y-50197895D01*
X53635600Y-50222399D01*
X53635600Y-50872401D01*
X53634396Y-50896905D01*
X53630796Y-50921173D01*
X53624835Y-50944972D01*
X53616570Y-50968071D01*
X53606080Y-50990250D01*
X53593468Y-51011293D01*
X53578853Y-51030999D01*
X53562377Y-51049177D01*
X53544199Y-51065653D01*
X53524493Y-51080268D01*
X53503450Y-51092880D01*
X53481271Y-51103370D01*
X53458172Y-51111635D01*
X53434373Y-51117596D01*
X53410105Y-51121196D01*
X53385601Y-51122400D01*
X52485599Y-51122400D01*
X52461095Y-51121196D01*
X52436827Y-51117596D01*
X52413028Y-51111635D01*
X52389929Y-51103370D01*
X52367750Y-51092880D01*
X52346707Y-51080268D01*
X52327001Y-51065653D01*
X52308823Y-51049177D01*
X52292347Y-51030999D01*
X52277732Y-51011293D01*
X52265120Y-50990250D01*
X52254630Y-50968071D01*
X52246365Y-50944972D01*
X52240404Y-50921173D01*
X52236804Y-50896905D01*
X52235600Y-50872401D01*
X52235600Y-50222399D01*
X52236804Y-50197895D01*
X52240404Y-50173627D01*
X52246365Y-50149828D01*
X52254630Y-50126729D01*
X52265120Y-50104550D01*
X52277732Y-50083507D01*
X52292347Y-50063801D01*
X52308823Y-50045623D01*
X52327001Y-50029147D01*
X52346707Y-50014532D01*
X52367750Y-50001920D01*
X52389929Y-49991430D01*
X52413028Y-49983165D01*
X52436827Y-49977204D01*
X52461095Y-49973604D01*
X52485599Y-49972400D01*
X53385601Y-49972400D01*
X53410105Y-49973604D01*
X53410105Y-49973604D01*
G37*
D12*
X52935600Y-50547400D03*
D10*
G36*
X53410105Y-47923604D02*
X53434373Y-47927204D01*
X53458172Y-47933165D01*
X53481271Y-47941430D01*
X53503450Y-47951920D01*
X53524493Y-47964532D01*
X53544199Y-47979147D01*
X53562377Y-47995623D01*
X53578853Y-48013801D01*
X53593468Y-48033507D01*
X53606080Y-48054550D01*
X53616570Y-48076729D01*
X53624835Y-48099828D01*
X53630796Y-48123627D01*
X53634396Y-48147895D01*
X53635600Y-48172399D01*
X53635600Y-48822401D01*
X53634396Y-48846905D01*
X53630796Y-48871173D01*
X53624835Y-48894972D01*
X53616570Y-48918071D01*
X53606080Y-48940250D01*
X53593468Y-48961293D01*
X53578853Y-48980999D01*
X53562377Y-48999177D01*
X53544199Y-49015653D01*
X53524493Y-49030268D01*
X53503450Y-49042880D01*
X53481271Y-49053370D01*
X53458172Y-49061635D01*
X53434373Y-49067596D01*
X53410105Y-49071196D01*
X53385601Y-49072400D01*
X52485599Y-49072400D01*
X52461095Y-49071196D01*
X52436827Y-49067596D01*
X52413028Y-49061635D01*
X52389929Y-49053370D01*
X52367750Y-49042880D01*
X52346707Y-49030268D01*
X52327001Y-49015653D01*
X52308823Y-48999177D01*
X52292347Y-48980999D01*
X52277732Y-48961293D01*
X52265120Y-48940250D01*
X52254630Y-48918071D01*
X52246365Y-48894972D01*
X52240404Y-48871173D01*
X52236804Y-48846905D01*
X52235600Y-48822401D01*
X52235600Y-48172399D01*
X52236804Y-48147895D01*
X52240404Y-48123627D01*
X52246365Y-48099828D01*
X52254630Y-48076729D01*
X52265120Y-48054550D01*
X52277732Y-48033507D01*
X52292347Y-48013801D01*
X52308823Y-47995623D01*
X52327001Y-47979147D01*
X52346707Y-47964532D01*
X52367750Y-47951920D01*
X52389929Y-47941430D01*
X52413028Y-47933165D01*
X52436827Y-47927204D01*
X52461095Y-47923604D01*
X52485599Y-47922400D01*
X53385601Y-47922400D01*
X53410105Y-47923604D01*
X53410105Y-47923604D01*
G37*
D12*
X52935600Y-48497400D03*
G04 #@! TD*
D10*
G04 #@! TO.C,R2*
G36*
X53372005Y-59518704D02*
X53396273Y-59522304D01*
X53420072Y-59528265D01*
X53443171Y-59536530D01*
X53465350Y-59547020D01*
X53486393Y-59559632D01*
X53506099Y-59574247D01*
X53524277Y-59590723D01*
X53540753Y-59608901D01*
X53555368Y-59628607D01*
X53567980Y-59649650D01*
X53578470Y-59671829D01*
X53586735Y-59694928D01*
X53592696Y-59718727D01*
X53596296Y-59742995D01*
X53597500Y-59767499D01*
X53597500Y-60417501D01*
X53596296Y-60442005D01*
X53592696Y-60466273D01*
X53586735Y-60490072D01*
X53578470Y-60513171D01*
X53567980Y-60535350D01*
X53555368Y-60556393D01*
X53540753Y-60576099D01*
X53524277Y-60594277D01*
X53506099Y-60610753D01*
X53486393Y-60625368D01*
X53465350Y-60637980D01*
X53443171Y-60648470D01*
X53420072Y-60656735D01*
X53396273Y-60662696D01*
X53372005Y-60666296D01*
X53347501Y-60667500D01*
X52447499Y-60667500D01*
X52422995Y-60666296D01*
X52398727Y-60662696D01*
X52374928Y-60656735D01*
X52351829Y-60648470D01*
X52329650Y-60637980D01*
X52308607Y-60625368D01*
X52288901Y-60610753D01*
X52270723Y-60594277D01*
X52254247Y-60576099D01*
X52239632Y-60556393D01*
X52227020Y-60535350D01*
X52216530Y-60513171D01*
X52208265Y-60490072D01*
X52202304Y-60466273D01*
X52198704Y-60442005D01*
X52197500Y-60417501D01*
X52197500Y-59767499D01*
X52198704Y-59742995D01*
X52202304Y-59718727D01*
X52208265Y-59694928D01*
X52216530Y-59671829D01*
X52227020Y-59649650D01*
X52239632Y-59628607D01*
X52254247Y-59608901D01*
X52270723Y-59590723D01*
X52288901Y-59574247D01*
X52308607Y-59559632D01*
X52329650Y-59547020D01*
X52351829Y-59536530D01*
X52374928Y-59528265D01*
X52398727Y-59522304D01*
X52422995Y-59518704D01*
X52447499Y-59517500D01*
X53347501Y-59517500D01*
X53372005Y-59518704D01*
X53372005Y-59518704D01*
G37*
D12*
X52897500Y-60092500D03*
D10*
G36*
X53372005Y-61568704D02*
X53396273Y-61572304D01*
X53420072Y-61578265D01*
X53443171Y-61586530D01*
X53465350Y-61597020D01*
X53486393Y-61609632D01*
X53506099Y-61624247D01*
X53524277Y-61640723D01*
X53540753Y-61658901D01*
X53555368Y-61678607D01*
X53567980Y-61699650D01*
X53578470Y-61721829D01*
X53586735Y-61744928D01*
X53592696Y-61768727D01*
X53596296Y-61792995D01*
X53597500Y-61817499D01*
X53597500Y-62467501D01*
X53596296Y-62492005D01*
X53592696Y-62516273D01*
X53586735Y-62540072D01*
X53578470Y-62563171D01*
X53567980Y-62585350D01*
X53555368Y-62606393D01*
X53540753Y-62626099D01*
X53524277Y-62644277D01*
X53506099Y-62660753D01*
X53486393Y-62675368D01*
X53465350Y-62687980D01*
X53443171Y-62698470D01*
X53420072Y-62706735D01*
X53396273Y-62712696D01*
X53372005Y-62716296D01*
X53347501Y-62717500D01*
X52447499Y-62717500D01*
X52422995Y-62716296D01*
X52398727Y-62712696D01*
X52374928Y-62706735D01*
X52351829Y-62698470D01*
X52329650Y-62687980D01*
X52308607Y-62675368D01*
X52288901Y-62660753D01*
X52270723Y-62644277D01*
X52254247Y-62626099D01*
X52239632Y-62606393D01*
X52227020Y-62585350D01*
X52216530Y-62563171D01*
X52208265Y-62540072D01*
X52202304Y-62516273D01*
X52198704Y-62492005D01*
X52197500Y-62467501D01*
X52197500Y-61817499D01*
X52198704Y-61792995D01*
X52202304Y-61768727D01*
X52208265Y-61744928D01*
X52216530Y-61721829D01*
X52227020Y-61699650D01*
X52239632Y-61678607D01*
X52254247Y-61658901D01*
X52270723Y-61640723D01*
X52288901Y-61624247D01*
X52308607Y-61609632D01*
X52329650Y-61597020D01*
X52351829Y-61586530D01*
X52374928Y-61578265D01*
X52398727Y-61572304D01*
X52422995Y-61568704D01*
X52447499Y-61567500D01*
X53347501Y-61567500D01*
X53372005Y-61568704D01*
X53372005Y-61568704D01*
G37*
D12*
X52897500Y-62142500D03*
G04 #@! TD*
D10*
G04 #@! TO.C,R3*
G36*
X53428505Y-45623204D02*
X53452773Y-45626804D01*
X53476572Y-45632765D01*
X53499671Y-45641030D01*
X53521850Y-45651520D01*
X53542893Y-45664132D01*
X53562599Y-45678747D01*
X53580777Y-45695223D01*
X53597253Y-45713401D01*
X53611868Y-45733107D01*
X53624480Y-45754150D01*
X53634970Y-45776329D01*
X53643235Y-45799428D01*
X53649196Y-45823227D01*
X53652796Y-45847495D01*
X53654000Y-45871999D01*
X53654000Y-46772001D01*
X53652796Y-46796505D01*
X53649196Y-46820773D01*
X53643235Y-46844572D01*
X53634970Y-46867671D01*
X53624480Y-46889850D01*
X53611868Y-46910893D01*
X53597253Y-46930599D01*
X53580777Y-46948777D01*
X53562599Y-46965253D01*
X53542893Y-46979868D01*
X53521850Y-46992480D01*
X53499671Y-47002970D01*
X53476572Y-47011235D01*
X53452773Y-47017196D01*
X53428505Y-47020796D01*
X53404001Y-47022000D01*
X52753999Y-47022000D01*
X52729495Y-47020796D01*
X52705227Y-47017196D01*
X52681428Y-47011235D01*
X52658329Y-47002970D01*
X52636150Y-46992480D01*
X52615107Y-46979868D01*
X52595401Y-46965253D01*
X52577223Y-46948777D01*
X52560747Y-46930599D01*
X52546132Y-46910893D01*
X52533520Y-46889850D01*
X52523030Y-46867671D01*
X52514765Y-46844572D01*
X52508804Y-46820773D01*
X52505204Y-46796505D01*
X52504000Y-46772001D01*
X52504000Y-45871999D01*
X52505204Y-45847495D01*
X52508804Y-45823227D01*
X52514765Y-45799428D01*
X52523030Y-45776329D01*
X52533520Y-45754150D01*
X52546132Y-45733107D01*
X52560747Y-45713401D01*
X52577223Y-45695223D01*
X52595401Y-45678747D01*
X52615107Y-45664132D01*
X52636150Y-45651520D01*
X52658329Y-45641030D01*
X52681428Y-45632765D01*
X52705227Y-45626804D01*
X52729495Y-45623204D01*
X52753999Y-45622000D01*
X53404001Y-45622000D01*
X53428505Y-45623204D01*
X53428505Y-45623204D01*
G37*
D12*
X53079000Y-46322000D03*
D10*
G36*
X55478505Y-45623204D02*
X55502773Y-45626804D01*
X55526572Y-45632765D01*
X55549671Y-45641030D01*
X55571850Y-45651520D01*
X55592893Y-45664132D01*
X55612599Y-45678747D01*
X55630777Y-45695223D01*
X55647253Y-45713401D01*
X55661868Y-45733107D01*
X55674480Y-45754150D01*
X55684970Y-45776329D01*
X55693235Y-45799428D01*
X55699196Y-45823227D01*
X55702796Y-45847495D01*
X55704000Y-45871999D01*
X55704000Y-46772001D01*
X55702796Y-46796505D01*
X55699196Y-46820773D01*
X55693235Y-46844572D01*
X55684970Y-46867671D01*
X55674480Y-46889850D01*
X55661868Y-46910893D01*
X55647253Y-46930599D01*
X55630777Y-46948777D01*
X55612599Y-46965253D01*
X55592893Y-46979868D01*
X55571850Y-46992480D01*
X55549671Y-47002970D01*
X55526572Y-47011235D01*
X55502773Y-47017196D01*
X55478505Y-47020796D01*
X55454001Y-47022000D01*
X54803999Y-47022000D01*
X54779495Y-47020796D01*
X54755227Y-47017196D01*
X54731428Y-47011235D01*
X54708329Y-47002970D01*
X54686150Y-46992480D01*
X54665107Y-46979868D01*
X54645401Y-46965253D01*
X54627223Y-46948777D01*
X54610747Y-46930599D01*
X54596132Y-46910893D01*
X54583520Y-46889850D01*
X54573030Y-46867671D01*
X54564765Y-46844572D01*
X54558804Y-46820773D01*
X54555204Y-46796505D01*
X54554000Y-46772001D01*
X54554000Y-45871999D01*
X54555204Y-45847495D01*
X54558804Y-45823227D01*
X54564765Y-45799428D01*
X54573030Y-45776329D01*
X54583520Y-45754150D01*
X54596132Y-45733107D01*
X54610747Y-45713401D01*
X54627223Y-45695223D01*
X54645401Y-45678747D01*
X54665107Y-45664132D01*
X54686150Y-45651520D01*
X54708329Y-45641030D01*
X54731428Y-45632765D01*
X54755227Y-45626804D01*
X54779495Y-45623204D01*
X54803999Y-45622000D01*
X55454001Y-45622000D01*
X55478505Y-45623204D01*
X55478505Y-45623204D01*
G37*
D12*
X55129000Y-46322000D03*
G04 #@! TD*
D10*
G04 #@! TO.C,R4*
G36*
X55288005Y-57116704D02*
X55312273Y-57120304D01*
X55336072Y-57126265D01*
X55359171Y-57134530D01*
X55381350Y-57145020D01*
X55402393Y-57157632D01*
X55422099Y-57172247D01*
X55440277Y-57188723D01*
X55456753Y-57206901D01*
X55471368Y-57226607D01*
X55483980Y-57247650D01*
X55494470Y-57269829D01*
X55502735Y-57292928D01*
X55508696Y-57316727D01*
X55512296Y-57340995D01*
X55513500Y-57365499D01*
X55513500Y-58265501D01*
X55512296Y-58290005D01*
X55508696Y-58314273D01*
X55502735Y-58338072D01*
X55494470Y-58361171D01*
X55483980Y-58383350D01*
X55471368Y-58404393D01*
X55456753Y-58424099D01*
X55440277Y-58442277D01*
X55422099Y-58458753D01*
X55402393Y-58473368D01*
X55381350Y-58485980D01*
X55359171Y-58496470D01*
X55336072Y-58504735D01*
X55312273Y-58510696D01*
X55288005Y-58514296D01*
X55263501Y-58515500D01*
X54613499Y-58515500D01*
X54588995Y-58514296D01*
X54564727Y-58510696D01*
X54540928Y-58504735D01*
X54517829Y-58496470D01*
X54495650Y-58485980D01*
X54474607Y-58473368D01*
X54454901Y-58458753D01*
X54436723Y-58442277D01*
X54420247Y-58424099D01*
X54405632Y-58404393D01*
X54393020Y-58383350D01*
X54382530Y-58361171D01*
X54374265Y-58338072D01*
X54368304Y-58314273D01*
X54364704Y-58290005D01*
X54363500Y-58265501D01*
X54363500Y-57365499D01*
X54364704Y-57340995D01*
X54368304Y-57316727D01*
X54374265Y-57292928D01*
X54382530Y-57269829D01*
X54393020Y-57247650D01*
X54405632Y-57226607D01*
X54420247Y-57206901D01*
X54436723Y-57188723D01*
X54454901Y-57172247D01*
X54474607Y-57157632D01*
X54495650Y-57145020D01*
X54517829Y-57134530D01*
X54540928Y-57126265D01*
X54564727Y-57120304D01*
X54588995Y-57116704D01*
X54613499Y-57115500D01*
X55263501Y-57115500D01*
X55288005Y-57116704D01*
X55288005Y-57116704D01*
G37*
D12*
X54938500Y-57815500D03*
D10*
G36*
X53238005Y-57116704D02*
X53262273Y-57120304D01*
X53286072Y-57126265D01*
X53309171Y-57134530D01*
X53331350Y-57145020D01*
X53352393Y-57157632D01*
X53372099Y-57172247D01*
X53390277Y-57188723D01*
X53406753Y-57206901D01*
X53421368Y-57226607D01*
X53433980Y-57247650D01*
X53444470Y-57269829D01*
X53452735Y-57292928D01*
X53458696Y-57316727D01*
X53462296Y-57340995D01*
X53463500Y-57365499D01*
X53463500Y-58265501D01*
X53462296Y-58290005D01*
X53458696Y-58314273D01*
X53452735Y-58338072D01*
X53444470Y-58361171D01*
X53433980Y-58383350D01*
X53421368Y-58404393D01*
X53406753Y-58424099D01*
X53390277Y-58442277D01*
X53372099Y-58458753D01*
X53352393Y-58473368D01*
X53331350Y-58485980D01*
X53309171Y-58496470D01*
X53286072Y-58504735D01*
X53262273Y-58510696D01*
X53238005Y-58514296D01*
X53213501Y-58515500D01*
X52563499Y-58515500D01*
X52538995Y-58514296D01*
X52514727Y-58510696D01*
X52490928Y-58504735D01*
X52467829Y-58496470D01*
X52445650Y-58485980D01*
X52424607Y-58473368D01*
X52404901Y-58458753D01*
X52386723Y-58442277D01*
X52370247Y-58424099D01*
X52355632Y-58404393D01*
X52343020Y-58383350D01*
X52332530Y-58361171D01*
X52324265Y-58338072D01*
X52318304Y-58314273D01*
X52314704Y-58290005D01*
X52313500Y-58265501D01*
X52313500Y-57365499D01*
X52314704Y-57340995D01*
X52318304Y-57316727D01*
X52324265Y-57292928D01*
X52332530Y-57269829D01*
X52343020Y-57247650D01*
X52355632Y-57226607D01*
X52370247Y-57206901D01*
X52386723Y-57188723D01*
X52404901Y-57172247D01*
X52424607Y-57157632D01*
X52445650Y-57145020D01*
X52467829Y-57134530D01*
X52490928Y-57126265D01*
X52514727Y-57120304D01*
X52538995Y-57116704D01*
X52563499Y-57115500D01*
X53213501Y-57115500D01*
X53238005Y-57116704D01*
X53238005Y-57116704D01*
G37*
D12*
X52888500Y-57815500D03*
G04 #@! TD*
D10*
G04 #@! TO.C,R5*
G36*
X57778905Y-47923604D02*
X57803173Y-47927204D01*
X57826972Y-47933165D01*
X57850071Y-47941430D01*
X57872250Y-47951920D01*
X57893293Y-47964532D01*
X57912999Y-47979147D01*
X57931177Y-47995623D01*
X57947653Y-48013801D01*
X57962268Y-48033507D01*
X57974880Y-48054550D01*
X57985370Y-48076729D01*
X57993635Y-48099828D01*
X57999596Y-48123627D01*
X58003196Y-48147895D01*
X58004400Y-48172399D01*
X58004400Y-48822401D01*
X58003196Y-48846905D01*
X57999596Y-48871173D01*
X57993635Y-48894972D01*
X57985370Y-48918071D01*
X57974880Y-48940250D01*
X57962268Y-48961293D01*
X57947653Y-48980999D01*
X57931177Y-48999177D01*
X57912999Y-49015653D01*
X57893293Y-49030268D01*
X57872250Y-49042880D01*
X57850071Y-49053370D01*
X57826972Y-49061635D01*
X57803173Y-49067596D01*
X57778905Y-49071196D01*
X57754401Y-49072400D01*
X56854399Y-49072400D01*
X56829895Y-49071196D01*
X56805627Y-49067596D01*
X56781828Y-49061635D01*
X56758729Y-49053370D01*
X56736550Y-49042880D01*
X56715507Y-49030268D01*
X56695801Y-49015653D01*
X56677623Y-48999177D01*
X56661147Y-48980999D01*
X56646532Y-48961293D01*
X56633920Y-48940250D01*
X56623430Y-48918071D01*
X56615165Y-48894972D01*
X56609204Y-48871173D01*
X56605604Y-48846905D01*
X56604400Y-48822401D01*
X56604400Y-48172399D01*
X56605604Y-48147895D01*
X56609204Y-48123627D01*
X56615165Y-48099828D01*
X56623430Y-48076729D01*
X56633920Y-48054550D01*
X56646532Y-48033507D01*
X56661147Y-48013801D01*
X56677623Y-47995623D01*
X56695801Y-47979147D01*
X56715507Y-47964532D01*
X56736550Y-47951920D01*
X56758729Y-47941430D01*
X56781828Y-47933165D01*
X56805627Y-47927204D01*
X56829895Y-47923604D01*
X56854399Y-47922400D01*
X57754401Y-47922400D01*
X57778905Y-47923604D01*
X57778905Y-47923604D01*
G37*
D12*
X57304400Y-48497400D03*
D10*
G36*
X57778905Y-49973604D02*
X57803173Y-49977204D01*
X57826972Y-49983165D01*
X57850071Y-49991430D01*
X57872250Y-50001920D01*
X57893293Y-50014532D01*
X57912999Y-50029147D01*
X57931177Y-50045623D01*
X57947653Y-50063801D01*
X57962268Y-50083507D01*
X57974880Y-50104550D01*
X57985370Y-50126729D01*
X57993635Y-50149828D01*
X57999596Y-50173627D01*
X58003196Y-50197895D01*
X58004400Y-50222399D01*
X58004400Y-50872401D01*
X58003196Y-50896905D01*
X57999596Y-50921173D01*
X57993635Y-50944972D01*
X57985370Y-50968071D01*
X57974880Y-50990250D01*
X57962268Y-51011293D01*
X57947653Y-51030999D01*
X57931177Y-51049177D01*
X57912999Y-51065653D01*
X57893293Y-51080268D01*
X57872250Y-51092880D01*
X57850071Y-51103370D01*
X57826972Y-51111635D01*
X57803173Y-51117596D01*
X57778905Y-51121196D01*
X57754401Y-51122400D01*
X56854399Y-51122400D01*
X56829895Y-51121196D01*
X56805627Y-51117596D01*
X56781828Y-51111635D01*
X56758729Y-51103370D01*
X56736550Y-51092880D01*
X56715507Y-51080268D01*
X56695801Y-51065653D01*
X56677623Y-51049177D01*
X56661147Y-51030999D01*
X56646532Y-51011293D01*
X56633920Y-50990250D01*
X56623430Y-50968071D01*
X56615165Y-50944972D01*
X56609204Y-50921173D01*
X56605604Y-50896905D01*
X56604400Y-50872401D01*
X56604400Y-50222399D01*
X56605604Y-50197895D01*
X56609204Y-50173627D01*
X56615165Y-50149828D01*
X56623430Y-50126729D01*
X56633920Y-50104550D01*
X56646532Y-50083507D01*
X56661147Y-50063801D01*
X56677623Y-50045623D01*
X56695801Y-50029147D01*
X56715507Y-50014532D01*
X56736550Y-50001920D01*
X56758729Y-49991430D01*
X56781828Y-49983165D01*
X56805627Y-49977204D01*
X56829895Y-49973604D01*
X56854399Y-49972400D01*
X57754401Y-49972400D01*
X57778905Y-49973604D01*
X57778905Y-49973604D01*
G37*
D12*
X57304400Y-50547400D03*
G04 #@! TD*
D10*
G04 #@! TO.C,R6*
G36*
X57626505Y-61581404D02*
X57650773Y-61585004D01*
X57674572Y-61590965D01*
X57697671Y-61599230D01*
X57719850Y-61609720D01*
X57740893Y-61622332D01*
X57760599Y-61636947D01*
X57778777Y-61653423D01*
X57795253Y-61671601D01*
X57809868Y-61691307D01*
X57822480Y-61712350D01*
X57832970Y-61734529D01*
X57841235Y-61757628D01*
X57847196Y-61781427D01*
X57850796Y-61805695D01*
X57852000Y-61830199D01*
X57852000Y-62480201D01*
X57850796Y-62504705D01*
X57847196Y-62528973D01*
X57841235Y-62552772D01*
X57832970Y-62575871D01*
X57822480Y-62598050D01*
X57809868Y-62619093D01*
X57795253Y-62638799D01*
X57778777Y-62656977D01*
X57760599Y-62673453D01*
X57740893Y-62688068D01*
X57719850Y-62700680D01*
X57697671Y-62711170D01*
X57674572Y-62719435D01*
X57650773Y-62725396D01*
X57626505Y-62728996D01*
X57602001Y-62730200D01*
X56701999Y-62730200D01*
X56677495Y-62728996D01*
X56653227Y-62725396D01*
X56629428Y-62719435D01*
X56606329Y-62711170D01*
X56584150Y-62700680D01*
X56563107Y-62688068D01*
X56543401Y-62673453D01*
X56525223Y-62656977D01*
X56508747Y-62638799D01*
X56494132Y-62619093D01*
X56481520Y-62598050D01*
X56471030Y-62575871D01*
X56462765Y-62552772D01*
X56456804Y-62528973D01*
X56453204Y-62504705D01*
X56452000Y-62480201D01*
X56452000Y-61830199D01*
X56453204Y-61805695D01*
X56456804Y-61781427D01*
X56462765Y-61757628D01*
X56471030Y-61734529D01*
X56481520Y-61712350D01*
X56494132Y-61691307D01*
X56508747Y-61671601D01*
X56525223Y-61653423D01*
X56543401Y-61636947D01*
X56563107Y-61622332D01*
X56584150Y-61609720D01*
X56606329Y-61599230D01*
X56629428Y-61590965D01*
X56653227Y-61585004D01*
X56677495Y-61581404D01*
X56701999Y-61580200D01*
X57602001Y-61580200D01*
X57626505Y-61581404D01*
X57626505Y-61581404D01*
G37*
D12*
X57152000Y-62155200D03*
D10*
G36*
X57626505Y-59531404D02*
X57650773Y-59535004D01*
X57674572Y-59540965D01*
X57697671Y-59549230D01*
X57719850Y-59559720D01*
X57740893Y-59572332D01*
X57760599Y-59586947D01*
X57778777Y-59603423D01*
X57795253Y-59621601D01*
X57809868Y-59641307D01*
X57822480Y-59662350D01*
X57832970Y-59684529D01*
X57841235Y-59707628D01*
X57847196Y-59731427D01*
X57850796Y-59755695D01*
X57852000Y-59780199D01*
X57852000Y-60430201D01*
X57850796Y-60454705D01*
X57847196Y-60478973D01*
X57841235Y-60502772D01*
X57832970Y-60525871D01*
X57822480Y-60548050D01*
X57809868Y-60569093D01*
X57795253Y-60588799D01*
X57778777Y-60606977D01*
X57760599Y-60623453D01*
X57740893Y-60638068D01*
X57719850Y-60650680D01*
X57697671Y-60661170D01*
X57674572Y-60669435D01*
X57650773Y-60675396D01*
X57626505Y-60678996D01*
X57602001Y-60680200D01*
X56701999Y-60680200D01*
X56677495Y-60678996D01*
X56653227Y-60675396D01*
X56629428Y-60669435D01*
X56606329Y-60661170D01*
X56584150Y-60650680D01*
X56563107Y-60638068D01*
X56543401Y-60623453D01*
X56525223Y-60606977D01*
X56508747Y-60588799D01*
X56494132Y-60569093D01*
X56481520Y-60548050D01*
X56471030Y-60525871D01*
X56462765Y-60502772D01*
X56456804Y-60478973D01*
X56453204Y-60454705D01*
X56452000Y-60430201D01*
X56452000Y-59780199D01*
X56453204Y-59755695D01*
X56456804Y-59731427D01*
X56462765Y-59707628D01*
X56471030Y-59684529D01*
X56481520Y-59662350D01*
X56494132Y-59641307D01*
X56508747Y-59621601D01*
X56525223Y-59603423D01*
X56543401Y-59586947D01*
X56563107Y-59572332D01*
X56584150Y-59559720D01*
X56606329Y-59549230D01*
X56629428Y-59540965D01*
X56653227Y-59535004D01*
X56677495Y-59531404D01*
X56701999Y-59530200D01*
X57602001Y-59530200D01*
X57626505Y-59531404D01*
X57626505Y-59531404D01*
G37*
D12*
X57152000Y-60105200D03*
G04 #@! TD*
D10*
G04 #@! TO.C,R7*
G36*
X57683005Y-45648604D02*
X57707273Y-45652204D01*
X57731072Y-45658165D01*
X57754171Y-45666430D01*
X57776350Y-45676920D01*
X57797393Y-45689532D01*
X57817099Y-45704147D01*
X57835277Y-45720623D01*
X57851753Y-45738801D01*
X57866368Y-45758507D01*
X57878980Y-45779550D01*
X57889470Y-45801729D01*
X57897735Y-45824828D01*
X57903696Y-45848627D01*
X57907296Y-45872895D01*
X57908500Y-45897399D01*
X57908500Y-46797401D01*
X57907296Y-46821905D01*
X57903696Y-46846173D01*
X57897735Y-46869972D01*
X57889470Y-46893071D01*
X57878980Y-46915250D01*
X57866368Y-46936293D01*
X57851753Y-46955999D01*
X57835277Y-46974177D01*
X57817099Y-46990653D01*
X57797393Y-47005268D01*
X57776350Y-47017880D01*
X57754171Y-47028370D01*
X57731072Y-47036635D01*
X57707273Y-47042596D01*
X57683005Y-47046196D01*
X57658501Y-47047400D01*
X57008499Y-47047400D01*
X56983995Y-47046196D01*
X56959727Y-47042596D01*
X56935928Y-47036635D01*
X56912829Y-47028370D01*
X56890650Y-47017880D01*
X56869607Y-47005268D01*
X56849901Y-46990653D01*
X56831723Y-46974177D01*
X56815247Y-46955999D01*
X56800632Y-46936293D01*
X56788020Y-46915250D01*
X56777530Y-46893071D01*
X56769265Y-46869972D01*
X56763304Y-46846173D01*
X56759704Y-46821905D01*
X56758500Y-46797401D01*
X56758500Y-45897399D01*
X56759704Y-45872895D01*
X56763304Y-45848627D01*
X56769265Y-45824828D01*
X56777530Y-45801729D01*
X56788020Y-45779550D01*
X56800632Y-45758507D01*
X56815247Y-45738801D01*
X56831723Y-45720623D01*
X56849901Y-45704147D01*
X56869607Y-45689532D01*
X56890650Y-45676920D01*
X56912829Y-45666430D01*
X56935928Y-45658165D01*
X56959727Y-45652204D01*
X56983995Y-45648604D01*
X57008499Y-45647400D01*
X57658501Y-45647400D01*
X57683005Y-45648604D01*
X57683005Y-45648604D01*
G37*
D12*
X57333500Y-46347400D03*
D10*
G36*
X59733005Y-45648604D02*
X59757273Y-45652204D01*
X59781072Y-45658165D01*
X59804171Y-45666430D01*
X59826350Y-45676920D01*
X59847393Y-45689532D01*
X59867099Y-45704147D01*
X59885277Y-45720623D01*
X59901753Y-45738801D01*
X59916368Y-45758507D01*
X59928980Y-45779550D01*
X59939470Y-45801729D01*
X59947735Y-45824828D01*
X59953696Y-45848627D01*
X59957296Y-45872895D01*
X59958500Y-45897399D01*
X59958500Y-46797401D01*
X59957296Y-46821905D01*
X59953696Y-46846173D01*
X59947735Y-46869972D01*
X59939470Y-46893071D01*
X59928980Y-46915250D01*
X59916368Y-46936293D01*
X59901753Y-46955999D01*
X59885277Y-46974177D01*
X59867099Y-46990653D01*
X59847393Y-47005268D01*
X59826350Y-47017880D01*
X59804171Y-47028370D01*
X59781072Y-47036635D01*
X59757273Y-47042596D01*
X59733005Y-47046196D01*
X59708501Y-47047400D01*
X59058499Y-47047400D01*
X59033995Y-47046196D01*
X59009727Y-47042596D01*
X58985928Y-47036635D01*
X58962829Y-47028370D01*
X58940650Y-47017880D01*
X58919607Y-47005268D01*
X58899901Y-46990653D01*
X58881723Y-46974177D01*
X58865247Y-46955999D01*
X58850632Y-46936293D01*
X58838020Y-46915250D01*
X58827530Y-46893071D01*
X58819265Y-46869972D01*
X58813304Y-46846173D01*
X58809704Y-46821905D01*
X58808500Y-46797401D01*
X58808500Y-45897399D01*
X58809704Y-45872895D01*
X58813304Y-45848627D01*
X58819265Y-45824828D01*
X58827530Y-45801729D01*
X58838020Y-45779550D01*
X58850632Y-45758507D01*
X58865247Y-45738801D01*
X58881723Y-45720623D01*
X58899901Y-45704147D01*
X58919607Y-45689532D01*
X58940650Y-45676920D01*
X58962829Y-45666430D01*
X58985928Y-45658165D01*
X59009727Y-45652204D01*
X59033995Y-45648604D01*
X59058499Y-45647400D01*
X59708501Y-45647400D01*
X59733005Y-45648604D01*
X59733005Y-45648604D01*
G37*
D12*
X59383500Y-46347400D03*
G04 #@! TD*
D10*
G04 #@! TO.C,R8*
G36*
X59606005Y-57116704D02*
X59630273Y-57120304D01*
X59654072Y-57126265D01*
X59677171Y-57134530D01*
X59699350Y-57145020D01*
X59720393Y-57157632D01*
X59740099Y-57172247D01*
X59758277Y-57188723D01*
X59774753Y-57206901D01*
X59789368Y-57226607D01*
X59801980Y-57247650D01*
X59812470Y-57269829D01*
X59820735Y-57292928D01*
X59826696Y-57316727D01*
X59830296Y-57340995D01*
X59831500Y-57365499D01*
X59831500Y-58265501D01*
X59830296Y-58290005D01*
X59826696Y-58314273D01*
X59820735Y-58338072D01*
X59812470Y-58361171D01*
X59801980Y-58383350D01*
X59789368Y-58404393D01*
X59774753Y-58424099D01*
X59758277Y-58442277D01*
X59740099Y-58458753D01*
X59720393Y-58473368D01*
X59699350Y-58485980D01*
X59677171Y-58496470D01*
X59654072Y-58504735D01*
X59630273Y-58510696D01*
X59606005Y-58514296D01*
X59581501Y-58515500D01*
X58931499Y-58515500D01*
X58906995Y-58514296D01*
X58882727Y-58510696D01*
X58858928Y-58504735D01*
X58835829Y-58496470D01*
X58813650Y-58485980D01*
X58792607Y-58473368D01*
X58772901Y-58458753D01*
X58754723Y-58442277D01*
X58738247Y-58424099D01*
X58723632Y-58404393D01*
X58711020Y-58383350D01*
X58700530Y-58361171D01*
X58692265Y-58338072D01*
X58686304Y-58314273D01*
X58682704Y-58290005D01*
X58681500Y-58265501D01*
X58681500Y-57365499D01*
X58682704Y-57340995D01*
X58686304Y-57316727D01*
X58692265Y-57292928D01*
X58700530Y-57269829D01*
X58711020Y-57247650D01*
X58723632Y-57226607D01*
X58738247Y-57206901D01*
X58754723Y-57188723D01*
X58772901Y-57172247D01*
X58792607Y-57157632D01*
X58813650Y-57145020D01*
X58835829Y-57134530D01*
X58858928Y-57126265D01*
X58882727Y-57120304D01*
X58906995Y-57116704D01*
X58931499Y-57115500D01*
X59581501Y-57115500D01*
X59606005Y-57116704D01*
X59606005Y-57116704D01*
G37*
D12*
X59256500Y-57815500D03*
D10*
G36*
X57556005Y-57116704D02*
X57580273Y-57120304D01*
X57604072Y-57126265D01*
X57627171Y-57134530D01*
X57649350Y-57145020D01*
X57670393Y-57157632D01*
X57690099Y-57172247D01*
X57708277Y-57188723D01*
X57724753Y-57206901D01*
X57739368Y-57226607D01*
X57751980Y-57247650D01*
X57762470Y-57269829D01*
X57770735Y-57292928D01*
X57776696Y-57316727D01*
X57780296Y-57340995D01*
X57781500Y-57365499D01*
X57781500Y-58265501D01*
X57780296Y-58290005D01*
X57776696Y-58314273D01*
X57770735Y-58338072D01*
X57762470Y-58361171D01*
X57751980Y-58383350D01*
X57739368Y-58404393D01*
X57724753Y-58424099D01*
X57708277Y-58442277D01*
X57690099Y-58458753D01*
X57670393Y-58473368D01*
X57649350Y-58485980D01*
X57627171Y-58496470D01*
X57604072Y-58504735D01*
X57580273Y-58510696D01*
X57556005Y-58514296D01*
X57531501Y-58515500D01*
X56881499Y-58515500D01*
X56856995Y-58514296D01*
X56832727Y-58510696D01*
X56808928Y-58504735D01*
X56785829Y-58496470D01*
X56763650Y-58485980D01*
X56742607Y-58473368D01*
X56722901Y-58458753D01*
X56704723Y-58442277D01*
X56688247Y-58424099D01*
X56673632Y-58404393D01*
X56661020Y-58383350D01*
X56650530Y-58361171D01*
X56642265Y-58338072D01*
X56636304Y-58314273D01*
X56632704Y-58290005D01*
X56631500Y-58265501D01*
X56631500Y-57365499D01*
X56632704Y-57340995D01*
X56636304Y-57316727D01*
X56642265Y-57292928D01*
X56650530Y-57269829D01*
X56661020Y-57247650D01*
X56673632Y-57226607D01*
X56688247Y-57206901D01*
X56704723Y-57188723D01*
X56722901Y-57172247D01*
X56742607Y-57157632D01*
X56763650Y-57145020D01*
X56785829Y-57134530D01*
X56808928Y-57126265D01*
X56832727Y-57120304D01*
X56856995Y-57116704D01*
X56881499Y-57115500D01*
X57531501Y-57115500D01*
X57556005Y-57116704D01*
X57556005Y-57116704D01*
G37*
D12*
X57206500Y-57815500D03*
G04 #@! TD*
D10*
G04 #@! TO.C,R9*
G36*
X82878305Y-54482204D02*
X82902573Y-54485804D01*
X82926372Y-54491765D01*
X82949471Y-54500030D01*
X82971650Y-54510520D01*
X82992693Y-54523132D01*
X83012399Y-54537747D01*
X83030577Y-54554223D01*
X83047053Y-54572401D01*
X83061668Y-54592107D01*
X83074280Y-54613150D01*
X83084770Y-54635329D01*
X83093035Y-54658428D01*
X83098996Y-54682227D01*
X83102596Y-54706495D01*
X83103800Y-54730999D01*
X83103800Y-55631001D01*
X83102596Y-55655505D01*
X83098996Y-55679773D01*
X83093035Y-55703572D01*
X83084770Y-55726671D01*
X83074280Y-55748850D01*
X83061668Y-55769893D01*
X83047053Y-55789599D01*
X83030577Y-55807777D01*
X83012399Y-55824253D01*
X82992693Y-55838868D01*
X82971650Y-55851480D01*
X82949471Y-55861970D01*
X82926372Y-55870235D01*
X82902573Y-55876196D01*
X82878305Y-55879796D01*
X82853801Y-55881000D01*
X82203799Y-55881000D01*
X82179295Y-55879796D01*
X82155027Y-55876196D01*
X82131228Y-55870235D01*
X82108129Y-55861970D01*
X82085950Y-55851480D01*
X82064907Y-55838868D01*
X82045201Y-55824253D01*
X82027023Y-55807777D01*
X82010547Y-55789599D01*
X81995932Y-55769893D01*
X81983320Y-55748850D01*
X81972830Y-55726671D01*
X81964565Y-55703572D01*
X81958604Y-55679773D01*
X81955004Y-55655505D01*
X81953800Y-55631001D01*
X81953800Y-54730999D01*
X81955004Y-54706495D01*
X81958604Y-54682227D01*
X81964565Y-54658428D01*
X81972830Y-54635329D01*
X81983320Y-54613150D01*
X81995932Y-54592107D01*
X82010547Y-54572401D01*
X82027023Y-54554223D01*
X82045201Y-54537747D01*
X82064907Y-54523132D01*
X82085950Y-54510520D01*
X82108129Y-54500030D01*
X82131228Y-54491765D01*
X82155027Y-54485804D01*
X82179295Y-54482204D01*
X82203799Y-54481000D01*
X82853801Y-54481000D01*
X82878305Y-54482204D01*
X82878305Y-54482204D01*
G37*
D12*
X82528800Y-55181000D03*
D10*
G36*
X84928305Y-54482204D02*
X84952573Y-54485804D01*
X84976372Y-54491765D01*
X84999471Y-54500030D01*
X85021650Y-54510520D01*
X85042693Y-54523132D01*
X85062399Y-54537747D01*
X85080577Y-54554223D01*
X85097053Y-54572401D01*
X85111668Y-54592107D01*
X85124280Y-54613150D01*
X85134770Y-54635329D01*
X85143035Y-54658428D01*
X85148996Y-54682227D01*
X85152596Y-54706495D01*
X85153800Y-54730999D01*
X85153800Y-55631001D01*
X85152596Y-55655505D01*
X85148996Y-55679773D01*
X85143035Y-55703572D01*
X85134770Y-55726671D01*
X85124280Y-55748850D01*
X85111668Y-55769893D01*
X85097053Y-55789599D01*
X85080577Y-55807777D01*
X85062399Y-55824253D01*
X85042693Y-55838868D01*
X85021650Y-55851480D01*
X84999471Y-55861970D01*
X84976372Y-55870235D01*
X84952573Y-55876196D01*
X84928305Y-55879796D01*
X84903801Y-55881000D01*
X84253799Y-55881000D01*
X84229295Y-55879796D01*
X84205027Y-55876196D01*
X84181228Y-55870235D01*
X84158129Y-55861970D01*
X84135950Y-55851480D01*
X84114907Y-55838868D01*
X84095201Y-55824253D01*
X84077023Y-55807777D01*
X84060547Y-55789599D01*
X84045932Y-55769893D01*
X84033320Y-55748850D01*
X84022830Y-55726671D01*
X84014565Y-55703572D01*
X84008604Y-55679773D01*
X84005004Y-55655505D01*
X84003800Y-55631001D01*
X84003800Y-54730999D01*
X84005004Y-54706495D01*
X84008604Y-54682227D01*
X84014565Y-54658428D01*
X84022830Y-54635329D01*
X84033320Y-54613150D01*
X84045932Y-54592107D01*
X84060547Y-54572401D01*
X84077023Y-54554223D01*
X84095201Y-54537747D01*
X84114907Y-54523132D01*
X84135950Y-54510520D01*
X84158129Y-54500030D01*
X84181228Y-54491765D01*
X84205027Y-54485804D01*
X84229295Y-54482204D01*
X84253799Y-54481000D01*
X84903801Y-54481000D01*
X84928305Y-54482204D01*
X84928305Y-54482204D01*
G37*
D12*
X84578800Y-55181000D03*
G04 #@! TD*
D15*
G04 #@! TO.C,U1*
X62338500Y-46413400D03*
X62338500Y-47363400D03*
X62338500Y-48313400D03*
X64538500Y-48313400D03*
X64538500Y-46413400D03*
G04 #@! TD*
G04 #@! TO.C,U2*
X64538500Y-57881500D03*
X64538500Y-59781500D03*
X62338500Y-59781500D03*
X62338500Y-58831500D03*
X62338500Y-57881500D03*
G04 #@! TD*
G04 #@! TO.C,U3*
X82453800Y-51056000D03*
X82453800Y-52006000D03*
X82453800Y-52956000D03*
X84653800Y-52956000D03*
X84653800Y-51056000D03*
G04 #@! TD*
D16*
G04 #@! TO.C,Q1*
X50040000Y-28669000D03*
X50040000Y-26769000D03*
X48040000Y-27719000D03*
G04 #@! TD*
D10*
G04 #@! TO.C,R10*
G36*
X55487505Y-27843204D02*
X55511773Y-27846804D01*
X55535572Y-27852765D01*
X55558671Y-27861030D01*
X55580850Y-27871520D01*
X55601893Y-27884132D01*
X55621599Y-27898747D01*
X55639777Y-27915223D01*
X55656253Y-27933401D01*
X55670868Y-27953107D01*
X55683480Y-27974150D01*
X55693970Y-27996329D01*
X55702235Y-28019428D01*
X55708196Y-28043227D01*
X55711796Y-28067495D01*
X55713000Y-28091999D01*
X55713000Y-28992001D01*
X55711796Y-29016505D01*
X55708196Y-29040773D01*
X55702235Y-29064572D01*
X55693970Y-29087671D01*
X55683480Y-29109850D01*
X55670868Y-29130893D01*
X55656253Y-29150599D01*
X55639777Y-29168777D01*
X55621599Y-29185253D01*
X55601893Y-29199868D01*
X55580850Y-29212480D01*
X55558671Y-29222970D01*
X55535572Y-29231235D01*
X55511773Y-29237196D01*
X55487505Y-29240796D01*
X55463001Y-29242000D01*
X54812999Y-29242000D01*
X54788495Y-29240796D01*
X54764227Y-29237196D01*
X54740428Y-29231235D01*
X54717329Y-29222970D01*
X54695150Y-29212480D01*
X54674107Y-29199868D01*
X54654401Y-29185253D01*
X54636223Y-29168777D01*
X54619747Y-29150599D01*
X54605132Y-29130893D01*
X54592520Y-29109850D01*
X54582030Y-29087671D01*
X54573765Y-29064572D01*
X54567804Y-29040773D01*
X54564204Y-29016505D01*
X54563000Y-28992001D01*
X54563000Y-28091999D01*
X54564204Y-28067495D01*
X54567804Y-28043227D01*
X54573765Y-28019428D01*
X54582030Y-27996329D01*
X54592520Y-27974150D01*
X54605132Y-27953107D01*
X54619747Y-27933401D01*
X54636223Y-27915223D01*
X54654401Y-27898747D01*
X54674107Y-27884132D01*
X54695150Y-27871520D01*
X54717329Y-27861030D01*
X54740428Y-27852765D01*
X54764227Y-27846804D01*
X54788495Y-27843204D01*
X54812999Y-27842000D01*
X55463001Y-27842000D01*
X55487505Y-27843204D01*
X55487505Y-27843204D01*
G37*
D12*
X55138000Y-28542000D03*
D10*
G36*
X53437505Y-27843204D02*
X53461773Y-27846804D01*
X53485572Y-27852765D01*
X53508671Y-27861030D01*
X53530850Y-27871520D01*
X53551893Y-27884132D01*
X53571599Y-27898747D01*
X53589777Y-27915223D01*
X53606253Y-27933401D01*
X53620868Y-27953107D01*
X53633480Y-27974150D01*
X53643970Y-27996329D01*
X53652235Y-28019428D01*
X53658196Y-28043227D01*
X53661796Y-28067495D01*
X53663000Y-28091999D01*
X53663000Y-28992001D01*
X53661796Y-29016505D01*
X53658196Y-29040773D01*
X53652235Y-29064572D01*
X53643970Y-29087671D01*
X53633480Y-29109850D01*
X53620868Y-29130893D01*
X53606253Y-29150599D01*
X53589777Y-29168777D01*
X53571599Y-29185253D01*
X53551893Y-29199868D01*
X53530850Y-29212480D01*
X53508671Y-29222970D01*
X53485572Y-29231235D01*
X53461773Y-29237196D01*
X53437505Y-29240796D01*
X53413001Y-29242000D01*
X52762999Y-29242000D01*
X52738495Y-29240796D01*
X52714227Y-29237196D01*
X52690428Y-29231235D01*
X52667329Y-29222970D01*
X52645150Y-29212480D01*
X52624107Y-29199868D01*
X52604401Y-29185253D01*
X52586223Y-29168777D01*
X52569747Y-29150599D01*
X52555132Y-29130893D01*
X52542520Y-29109850D01*
X52532030Y-29087671D01*
X52523765Y-29064572D01*
X52517804Y-29040773D01*
X52514204Y-29016505D01*
X52513000Y-28992001D01*
X52513000Y-28091999D01*
X52514204Y-28067495D01*
X52517804Y-28043227D01*
X52523765Y-28019428D01*
X52532030Y-27996329D01*
X52542520Y-27974150D01*
X52555132Y-27953107D01*
X52569747Y-27933401D01*
X52586223Y-27915223D01*
X52604401Y-27898747D01*
X52624107Y-27884132D01*
X52645150Y-27871520D01*
X52667329Y-27861030D01*
X52690428Y-27852765D01*
X52714227Y-27846804D01*
X52738495Y-27843204D01*
X52762999Y-27842000D01*
X53413001Y-27842000D01*
X53437505Y-27843204D01*
X53437505Y-27843204D01*
G37*
D12*
X53088000Y-28542000D03*
G04 #@! TD*
D10*
G04 #@! TO.C,R11*
G36*
X59533505Y-27843204D02*
X59557773Y-27846804D01*
X59581572Y-27852765D01*
X59604671Y-27861030D01*
X59626850Y-27871520D01*
X59647893Y-27884132D01*
X59667599Y-27898747D01*
X59685777Y-27915223D01*
X59702253Y-27933401D01*
X59716868Y-27953107D01*
X59729480Y-27974150D01*
X59739970Y-27996329D01*
X59748235Y-28019428D01*
X59754196Y-28043227D01*
X59757796Y-28067495D01*
X59759000Y-28091999D01*
X59759000Y-28992001D01*
X59757796Y-29016505D01*
X59754196Y-29040773D01*
X59748235Y-29064572D01*
X59739970Y-29087671D01*
X59729480Y-29109850D01*
X59716868Y-29130893D01*
X59702253Y-29150599D01*
X59685777Y-29168777D01*
X59667599Y-29185253D01*
X59647893Y-29199868D01*
X59626850Y-29212480D01*
X59604671Y-29222970D01*
X59581572Y-29231235D01*
X59557773Y-29237196D01*
X59533505Y-29240796D01*
X59509001Y-29242000D01*
X58858999Y-29242000D01*
X58834495Y-29240796D01*
X58810227Y-29237196D01*
X58786428Y-29231235D01*
X58763329Y-29222970D01*
X58741150Y-29212480D01*
X58720107Y-29199868D01*
X58700401Y-29185253D01*
X58682223Y-29168777D01*
X58665747Y-29150599D01*
X58651132Y-29130893D01*
X58638520Y-29109850D01*
X58628030Y-29087671D01*
X58619765Y-29064572D01*
X58613804Y-29040773D01*
X58610204Y-29016505D01*
X58609000Y-28992001D01*
X58609000Y-28091999D01*
X58610204Y-28067495D01*
X58613804Y-28043227D01*
X58619765Y-28019428D01*
X58628030Y-27996329D01*
X58638520Y-27974150D01*
X58651132Y-27953107D01*
X58665747Y-27933401D01*
X58682223Y-27915223D01*
X58700401Y-27898747D01*
X58720107Y-27884132D01*
X58741150Y-27871520D01*
X58763329Y-27861030D01*
X58786428Y-27852765D01*
X58810227Y-27846804D01*
X58834495Y-27843204D01*
X58858999Y-27842000D01*
X59509001Y-27842000D01*
X59533505Y-27843204D01*
X59533505Y-27843204D01*
G37*
D12*
X59184000Y-28542000D03*
D10*
G36*
X57483505Y-27843204D02*
X57507773Y-27846804D01*
X57531572Y-27852765D01*
X57554671Y-27861030D01*
X57576850Y-27871520D01*
X57597893Y-27884132D01*
X57617599Y-27898747D01*
X57635777Y-27915223D01*
X57652253Y-27933401D01*
X57666868Y-27953107D01*
X57679480Y-27974150D01*
X57689970Y-27996329D01*
X57698235Y-28019428D01*
X57704196Y-28043227D01*
X57707796Y-28067495D01*
X57709000Y-28091999D01*
X57709000Y-28992001D01*
X57707796Y-29016505D01*
X57704196Y-29040773D01*
X57698235Y-29064572D01*
X57689970Y-29087671D01*
X57679480Y-29109850D01*
X57666868Y-29130893D01*
X57652253Y-29150599D01*
X57635777Y-29168777D01*
X57617599Y-29185253D01*
X57597893Y-29199868D01*
X57576850Y-29212480D01*
X57554671Y-29222970D01*
X57531572Y-29231235D01*
X57507773Y-29237196D01*
X57483505Y-29240796D01*
X57459001Y-29242000D01*
X56808999Y-29242000D01*
X56784495Y-29240796D01*
X56760227Y-29237196D01*
X56736428Y-29231235D01*
X56713329Y-29222970D01*
X56691150Y-29212480D01*
X56670107Y-29199868D01*
X56650401Y-29185253D01*
X56632223Y-29168777D01*
X56615747Y-29150599D01*
X56601132Y-29130893D01*
X56588520Y-29109850D01*
X56578030Y-29087671D01*
X56569765Y-29064572D01*
X56563804Y-29040773D01*
X56560204Y-29016505D01*
X56559000Y-28992001D01*
X56559000Y-28091999D01*
X56560204Y-28067495D01*
X56563804Y-28043227D01*
X56569765Y-28019428D01*
X56578030Y-27996329D01*
X56588520Y-27974150D01*
X56601132Y-27953107D01*
X56615747Y-27933401D01*
X56632223Y-27915223D01*
X56650401Y-27898747D01*
X56670107Y-27884132D01*
X56691150Y-27871520D01*
X56713329Y-27861030D01*
X56736428Y-27852765D01*
X56760227Y-27846804D01*
X56784495Y-27843204D01*
X56808999Y-27842000D01*
X57459001Y-27842000D01*
X57483505Y-27843204D01*
X57483505Y-27843204D01*
G37*
D12*
X57134000Y-28542000D03*
G04 #@! TD*
D10*
G04 #@! TO.C,R12*
G36*
X77549505Y-50601204D02*
X77573773Y-50604804D01*
X77597572Y-50610765D01*
X77620671Y-50619030D01*
X77642850Y-50629520D01*
X77663893Y-50642132D01*
X77683599Y-50656747D01*
X77701777Y-50673223D01*
X77718253Y-50691401D01*
X77732868Y-50711107D01*
X77745480Y-50732150D01*
X77755970Y-50754329D01*
X77764235Y-50777428D01*
X77770196Y-50801227D01*
X77773796Y-50825495D01*
X77775000Y-50849999D01*
X77775000Y-51750001D01*
X77773796Y-51774505D01*
X77770196Y-51798773D01*
X77764235Y-51822572D01*
X77755970Y-51845671D01*
X77745480Y-51867850D01*
X77732868Y-51888893D01*
X77718253Y-51908599D01*
X77701777Y-51926777D01*
X77683599Y-51943253D01*
X77663893Y-51957868D01*
X77642850Y-51970480D01*
X77620671Y-51980970D01*
X77597572Y-51989235D01*
X77573773Y-51995196D01*
X77549505Y-51998796D01*
X77525001Y-52000000D01*
X76874999Y-52000000D01*
X76850495Y-51998796D01*
X76826227Y-51995196D01*
X76802428Y-51989235D01*
X76779329Y-51980970D01*
X76757150Y-51970480D01*
X76736107Y-51957868D01*
X76716401Y-51943253D01*
X76698223Y-51926777D01*
X76681747Y-51908599D01*
X76667132Y-51888893D01*
X76654520Y-51867850D01*
X76644030Y-51845671D01*
X76635765Y-51822572D01*
X76629804Y-51798773D01*
X76626204Y-51774505D01*
X76625000Y-51750001D01*
X76625000Y-50849999D01*
X76626204Y-50825495D01*
X76629804Y-50801227D01*
X76635765Y-50777428D01*
X76644030Y-50754329D01*
X76654520Y-50732150D01*
X76667132Y-50711107D01*
X76681747Y-50691401D01*
X76698223Y-50673223D01*
X76716401Y-50656747D01*
X76736107Y-50642132D01*
X76757150Y-50629520D01*
X76779329Y-50619030D01*
X76802428Y-50610765D01*
X76826227Y-50604804D01*
X76850495Y-50601204D01*
X76874999Y-50600000D01*
X77525001Y-50600000D01*
X77549505Y-50601204D01*
X77549505Y-50601204D01*
G37*
D12*
X77200000Y-51300000D03*
D10*
G36*
X75499505Y-50601204D02*
X75523773Y-50604804D01*
X75547572Y-50610765D01*
X75570671Y-50619030D01*
X75592850Y-50629520D01*
X75613893Y-50642132D01*
X75633599Y-50656747D01*
X75651777Y-50673223D01*
X75668253Y-50691401D01*
X75682868Y-50711107D01*
X75695480Y-50732150D01*
X75705970Y-50754329D01*
X75714235Y-50777428D01*
X75720196Y-50801227D01*
X75723796Y-50825495D01*
X75725000Y-50849999D01*
X75725000Y-51750001D01*
X75723796Y-51774505D01*
X75720196Y-51798773D01*
X75714235Y-51822572D01*
X75705970Y-51845671D01*
X75695480Y-51867850D01*
X75682868Y-51888893D01*
X75668253Y-51908599D01*
X75651777Y-51926777D01*
X75633599Y-51943253D01*
X75613893Y-51957868D01*
X75592850Y-51970480D01*
X75570671Y-51980970D01*
X75547572Y-51989235D01*
X75523773Y-51995196D01*
X75499505Y-51998796D01*
X75475001Y-52000000D01*
X74824999Y-52000000D01*
X74800495Y-51998796D01*
X74776227Y-51995196D01*
X74752428Y-51989235D01*
X74729329Y-51980970D01*
X74707150Y-51970480D01*
X74686107Y-51957868D01*
X74666401Y-51943253D01*
X74648223Y-51926777D01*
X74631747Y-51908599D01*
X74617132Y-51888893D01*
X74604520Y-51867850D01*
X74594030Y-51845671D01*
X74585765Y-51822572D01*
X74579804Y-51798773D01*
X74576204Y-51774505D01*
X74575000Y-51750001D01*
X74575000Y-50849999D01*
X74576204Y-50825495D01*
X74579804Y-50801227D01*
X74585765Y-50777428D01*
X74594030Y-50754329D01*
X74604520Y-50732150D01*
X74617132Y-50711107D01*
X74631747Y-50691401D01*
X74648223Y-50673223D01*
X74666401Y-50656747D01*
X74686107Y-50642132D01*
X74707150Y-50629520D01*
X74729329Y-50619030D01*
X74752428Y-50610765D01*
X74776227Y-50604804D01*
X74800495Y-50601204D01*
X74824999Y-50600000D01*
X75475001Y-50600000D01*
X75499505Y-50601204D01*
X75499505Y-50601204D01*
G37*
D12*
X75150000Y-51300000D03*
G04 #@! TD*
D10*
G04 #@! TO.C,R13*
G36*
X77449505Y-54101204D02*
X77473773Y-54104804D01*
X77497572Y-54110765D01*
X77520671Y-54119030D01*
X77542850Y-54129520D01*
X77563893Y-54142132D01*
X77583599Y-54156747D01*
X77601777Y-54173223D01*
X77618253Y-54191401D01*
X77632868Y-54211107D01*
X77645480Y-54232150D01*
X77655970Y-54254329D01*
X77664235Y-54277428D01*
X77670196Y-54301227D01*
X77673796Y-54325495D01*
X77675000Y-54349999D01*
X77675000Y-55250001D01*
X77673796Y-55274505D01*
X77670196Y-55298773D01*
X77664235Y-55322572D01*
X77655970Y-55345671D01*
X77645480Y-55367850D01*
X77632868Y-55388893D01*
X77618253Y-55408599D01*
X77601777Y-55426777D01*
X77583599Y-55443253D01*
X77563893Y-55457868D01*
X77542850Y-55470480D01*
X77520671Y-55480970D01*
X77497572Y-55489235D01*
X77473773Y-55495196D01*
X77449505Y-55498796D01*
X77425001Y-55500000D01*
X76774999Y-55500000D01*
X76750495Y-55498796D01*
X76726227Y-55495196D01*
X76702428Y-55489235D01*
X76679329Y-55480970D01*
X76657150Y-55470480D01*
X76636107Y-55457868D01*
X76616401Y-55443253D01*
X76598223Y-55426777D01*
X76581747Y-55408599D01*
X76567132Y-55388893D01*
X76554520Y-55367850D01*
X76544030Y-55345671D01*
X76535765Y-55322572D01*
X76529804Y-55298773D01*
X76526204Y-55274505D01*
X76525000Y-55250001D01*
X76525000Y-54349999D01*
X76526204Y-54325495D01*
X76529804Y-54301227D01*
X76535765Y-54277428D01*
X76544030Y-54254329D01*
X76554520Y-54232150D01*
X76567132Y-54211107D01*
X76581747Y-54191401D01*
X76598223Y-54173223D01*
X76616401Y-54156747D01*
X76636107Y-54142132D01*
X76657150Y-54129520D01*
X76679329Y-54119030D01*
X76702428Y-54110765D01*
X76726227Y-54104804D01*
X76750495Y-54101204D01*
X76774999Y-54100000D01*
X77425001Y-54100000D01*
X77449505Y-54101204D01*
X77449505Y-54101204D01*
G37*
D12*
X77100000Y-54800000D03*
D10*
G36*
X75399505Y-54101204D02*
X75423773Y-54104804D01*
X75447572Y-54110765D01*
X75470671Y-54119030D01*
X75492850Y-54129520D01*
X75513893Y-54142132D01*
X75533599Y-54156747D01*
X75551777Y-54173223D01*
X75568253Y-54191401D01*
X75582868Y-54211107D01*
X75595480Y-54232150D01*
X75605970Y-54254329D01*
X75614235Y-54277428D01*
X75620196Y-54301227D01*
X75623796Y-54325495D01*
X75625000Y-54349999D01*
X75625000Y-55250001D01*
X75623796Y-55274505D01*
X75620196Y-55298773D01*
X75614235Y-55322572D01*
X75605970Y-55345671D01*
X75595480Y-55367850D01*
X75582868Y-55388893D01*
X75568253Y-55408599D01*
X75551777Y-55426777D01*
X75533599Y-55443253D01*
X75513893Y-55457868D01*
X75492850Y-55470480D01*
X75470671Y-55480970D01*
X75447572Y-55489235D01*
X75423773Y-55495196D01*
X75399505Y-55498796D01*
X75375001Y-55500000D01*
X74724999Y-55500000D01*
X74700495Y-55498796D01*
X74676227Y-55495196D01*
X74652428Y-55489235D01*
X74629329Y-55480970D01*
X74607150Y-55470480D01*
X74586107Y-55457868D01*
X74566401Y-55443253D01*
X74548223Y-55426777D01*
X74531747Y-55408599D01*
X74517132Y-55388893D01*
X74504520Y-55367850D01*
X74494030Y-55345671D01*
X74485765Y-55322572D01*
X74479804Y-55298773D01*
X74476204Y-55274505D01*
X74475000Y-55250001D01*
X74475000Y-54349999D01*
X74476204Y-54325495D01*
X74479804Y-54301227D01*
X74485765Y-54277428D01*
X74494030Y-54254329D01*
X74504520Y-54232150D01*
X74517132Y-54211107D01*
X74531747Y-54191401D01*
X74548223Y-54173223D01*
X74566401Y-54156747D01*
X74586107Y-54142132D01*
X74607150Y-54129520D01*
X74629329Y-54119030D01*
X74652428Y-54110765D01*
X74676227Y-54104804D01*
X74700495Y-54101204D01*
X74724999Y-54100000D01*
X75375001Y-54100000D01*
X75399505Y-54101204D01*
X75399505Y-54101204D01*
G37*
D12*
X75050000Y-54800000D03*
G04 #@! TD*
D10*
G04 #@! TO.C,R14*
G36*
X69513506Y-47364204D02*
X69537774Y-47367804D01*
X69561573Y-47373765D01*
X69584672Y-47382030D01*
X69606851Y-47392520D01*
X69627894Y-47405132D01*
X69647600Y-47419747D01*
X69665778Y-47436223D01*
X69682254Y-47454401D01*
X69696869Y-47474107D01*
X69709481Y-47495150D01*
X69719971Y-47517329D01*
X69728236Y-47540428D01*
X69734197Y-47564227D01*
X69737797Y-47588495D01*
X69739001Y-47612999D01*
X69739001Y-48513001D01*
X69737797Y-48537505D01*
X69734197Y-48561773D01*
X69728236Y-48585572D01*
X69719971Y-48608671D01*
X69709481Y-48630850D01*
X69696869Y-48651893D01*
X69682254Y-48671599D01*
X69665778Y-48689777D01*
X69647600Y-48706253D01*
X69627894Y-48720868D01*
X69606851Y-48733480D01*
X69584672Y-48743970D01*
X69561573Y-48752235D01*
X69537774Y-48758196D01*
X69513506Y-48761796D01*
X69489002Y-48763000D01*
X68839000Y-48763000D01*
X68814496Y-48761796D01*
X68790228Y-48758196D01*
X68766429Y-48752235D01*
X68743330Y-48743970D01*
X68721151Y-48733480D01*
X68700108Y-48720868D01*
X68680402Y-48706253D01*
X68662224Y-48689777D01*
X68645748Y-48671599D01*
X68631133Y-48651893D01*
X68618521Y-48630850D01*
X68608031Y-48608671D01*
X68599766Y-48585572D01*
X68593805Y-48561773D01*
X68590205Y-48537505D01*
X68589001Y-48513001D01*
X68589001Y-47612999D01*
X68590205Y-47588495D01*
X68593805Y-47564227D01*
X68599766Y-47540428D01*
X68608031Y-47517329D01*
X68618521Y-47495150D01*
X68631133Y-47474107D01*
X68645748Y-47454401D01*
X68662224Y-47436223D01*
X68680402Y-47419747D01*
X68700108Y-47405132D01*
X68721151Y-47392520D01*
X68743330Y-47382030D01*
X68766429Y-47373765D01*
X68790228Y-47367804D01*
X68814496Y-47364204D01*
X68839000Y-47363000D01*
X69489002Y-47363000D01*
X69513506Y-47364204D01*
X69513506Y-47364204D01*
G37*
D12*
X69164001Y-48063000D03*
D10*
G36*
X71563506Y-47364204D02*
X71587774Y-47367804D01*
X71611573Y-47373765D01*
X71634672Y-47382030D01*
X71656851Y-47392520D01*
X71677894Y-47405132D01*
X71697600Y-47419747D01*
X71715778Y-47436223D01*
X71732254Y-47454401D01*
X71746869Y-47474107D01*
X71759481Y-47495150D01*
X71769971Y-47517329D01*
X71778236Y-47540428D01*
X71784197Y-47564227D01*
X71787797Y-47588495D01*
X71789001Y-47612999D01*
X71789001Y-48513001D01*
X71787797Y-48537505D01*
X71784197Y-48561773D01*
X71778236Y-48585572D01*
X71769971Y-48608671D01*
X71759481Y-48630850D01*
X71746869Y-48651893D01*
X71732254Y-48671599D01*
X71715778Y-48689777D01*
X71697600Y-48706253D01*
X71677894Y-48720868D01*
X71656851Y-48733480D01*
X71634672Y-48743970D01*
X71611573Y-48752235D01*
X71587774Y-48758196D01*
X71563506Y-48761796D01*
X71539002Y-48763000D01*
X70889000Y-48763000D01*
X70864496Y-48761796D01*
X70840228Y-48758196D01*
X70816429Y-48752235D01*
X70793330Y-48743970D01*
X70771151Y-48733480D01*
X70750108Y-48720868D01*
X70730402Y-48706253D01*
X70712224Y-48689777D01*
X70695748Y-48671599D01*
X70681133Y-48651893D01*
X70668521Y-48630850D01*
X70658031Y-48608671D01*
X70649766Y-48585572D01*
X70643805Y-48561773D01*
X70640205Y-48537505D01*
X70639001Y-48513001D01*
X70639001Y-47612999D01*
X70640205Y-47588495D01*
X70643805Y-47564227D01*
X70649766Y-47540428D01*
X70658031Y-47517329D01*
X70668521Y-47495150D01*
X70681133Y-47474107D01*
X70695748Y-47454401D01*
X70712224Y-47436223D01*
X70730402Y-47419747D01*
X70750108Y-47405132D01*
X70771151Y-47392520D01*
X70793330Y-47382030D01*
X70816429Y-47373765D01*
X70840228Y-47367804D01*
X70864496Y-47364204D01*
X70889000Y-47363000D01*
X71539002Y-47363000D01*
X71563506Y-47364204D01*
X71563506Y-47364204D01*
G37*
D12*
X71214001Y-48063000D03*
G04 #@! TD*
D10*
G04 #@! TO.C,R15*
G36*
X73273506Y-47289205D02*
X73297774Y-47292805D01*
X73321573Y-47298766D01*
X73344672Y-47307031D01*
X73366851Y-47317521D01*
X73387894Y-47330133D01*
X73407600Y-47344748D01*
X73425778Y-47361224D01*
X73442254Y-47379402D01*
X73456869Y-47399108D01*
X73469481Y-47420151D01*
X73479971Y-47442330D01*
X73488236Y-47465429D01*
X73494197Y-47489228D01*
X73497797Y-47513496D01*
X73499001Y-47538000D01*
X73499001Y-48438002D01*
X73497797Y-48462506D01*
X73494197Y-48486774D01*
X73488236Y-48510573D01*
X73479971Y-48533672D01*
X73469481Y-48555851D01*
X73456869Y-48576894D01*
X73442254Y-48596600D01*
X73425778Y-48614778D01*
X73407600Y-48631254D01*
X73387894Y-48645869D01*
X73366851Y-48658481D01*
X73344672Y-48668971D01*
X73321573Y-48677236D01*
X73297774Y-48683197D01*
X73273506Y-48686797D01*
X73249002Y-48688001D01*
X72599000Y-48688001D01*
X72574496Y-48686797D01*
X72550228Y-48683197D01*
X72526429Y-48677236D01*
X72503330Y-48668971D01*
X72481151Y-48658481D01*
X72460108Y-48645869D01*
X72440402Y-48631254D01*
X72422224Y-48614778D01*
X72405748Y-48596600D01*
X72391133Y-48576894D01*
X72378521Y-48555851D01*
X72368031Y-48533672D01*
X72359766Y-48510573D01*
X72353805Y-48486774D01*
X72350205Y-48462506D01*
X72349001Y-48438002D01*
X72349001Y-47538000D01*
X72350205Y-47513496D01*
X72353805Y-47489228D01*
X72359766Y-47465429D01*
X72368031Y-47442330D01*
X72378521Y-47420151D01*
X72391133Y-47399108D01*
X72405748Y-47379402D01*
X72422224Y-47361224D01*
X72440402Y-47344748D01*
X72460108Y-47330133D01*
X72481151Y-47317521D01*
X72503330Y-47307031D01*
X72526429Y-47298766D01*
X72550228Y-47292805D01*
X72574496Y-47289205D01*
X72599000Y-47288001D01*
X73249002Y-47288001D01*
X73273506Y-47289205D01*
X73273506Y-47289205D01*
G37*
D12*
X72924001Y-47988001D03*
D10*
G36*
X75323506Y-47289205D02*
X75347774Y-47292805D01*
X75371573Y-47298766D01*
X75394672Y-47307031D01*
X75416851Y-47317521D01*
X75437894Y-47330133D01*
X75457600Y-47344748D01*
X75475778Y-47361224D01*
X75492254Y-47379402D01*
X75506869Y-47399108D01*
X75519481Y-47420151D01*
X75529971Y-47442330D01*
X75538236Y-47465429D01*
X75544197Y-47489228D01*
X75547797Y-47513496D01*
X75549001Y-47538000D01*
X75549001Y-48438002D01*
X75547797Y-48462506D01*
X75544197Y-48486774D01*
X75538236Y-48510573D01*
X75529971Y-48533672D01*
X75519481Y-48555851D01*
X75506869Y-48576894D01*
X75492254Y-48596600D01*
X75475778Y-48614778D01*
X75457600Y-48631254D01*
X75437894Y-48645869D01*
X75416851Y-48658481D01*
X75394672Y-48668971D01*
X75371573Y-48677236D01*
X75347774Y-48683197D01*
X75323506Y-48686797D01*
X75299002Y-48688001D01*
X74649000Y-48688001D01*
X74624496Y-48686797D01*
X74600228Y-48683197D01*
X74576429Y-48677236D01*
X74553330Y-48668971D01*
X74531151Y-48658481D01*
X74510108Y-48645869D01*
X74490402Y-48631254D01*
X74472224Y-48614778D01*
X74455748Y-48596600D01*
X74441133Y-48576894D01*
X74428521Y-48555851D01*
X74418031Y-48533672D01*
X74409766Y-48510573D01*
X74403805Y-48486774D01*
X74400205Y-48462506D01*
X74399001Y-48438002D01*
X74399001Y-47538000D01*
X74400205Y-47513496D01*
X74403805Y-47489228D01*
X74409766Y-47465429D01*
X74418031Y-47442330D01*
X74428521Y-47420151D01*
X74441133Y-47399108D01*
X74455748Y-47379402D01*
X74472224Y-47361224D01*
X74490402Y-47344748D01*
X74510108Y-47330133D01*
X74531151Y-47317521D01*
X74553330Y-47307031D01*
X74576429Y-47298766D01*
X74600228Y-47292805D01*
X74624496Y-47289205D01*
X74649000Y-47288001D01*
X75299002Y-47288001D01*
X75323506Y-47289205D01*
X75323506Y-47289205D01*
G37*
D12*
X74974001Y-47988001D03*
G04 #@! TD*
D10*
G04 #@! TO.C,R16*
G36*
X71473506Y-43939205D02*
X71497774Y-43942805D01*
X71521573Y-43948766D01*
X71544672Y-43957031D01*
X71566851Y-43967521D01*
X71587894Y-43980133D01*
X71607600Y-43994748D01*
X71625778Y-44011224D01*
X71642254Y-44029402D01*
X71656869Y-44049108D01*
X71669481Y-44070151D01*
X71679971Y-44092330D01*
X71688236Y-44115429D01*
X71694197Y-44139228D01*
X71697797Y-44163496D01*
X71699001Y-44188000D01*
X71699001Y-45088002D01*
X71697797Y-45112506D01*
X71694197Y-45136774D01*
X71688236Y-45160573D01*
X71679971Y-45183672D01*
X71669481Y-45205851D01*
X71656869Y-45226894D01*
X71642254Y-45246600D01*
X71625778Y-45264778D01*
X71607600Y-45281254D01*
X71587894Y-45295869D01*
X71566851Y-45308481D01*
X71544672Y-45318971D01*
X71521573Y-45327236D01*
X71497774Y-45333197D01*
X71473506Y-45336797D01*
X71449002Y-45338001D01*
X70799000Y-45338001D01*
X70774496Y-45336797D01*
X70750228Y-45333197D01*
X70726429Y-45327236D01*
X70703330Y-45318971D01*
X70681151Y-45308481D01*
X70660108Y-45295869D01*
X70640402Y-45281254D01*
X70622224Y-45264778D01*
X70605748Y-45246600D01*
X70591133Y-45226894D01*
X70578521Y-45205851D01*
X70568031Y-45183672D01*
X70559766Y-45160573D01*
X70553805Y-45136774D01*
X70550205Y-45112506D01*
X70549001Y-45088002D01*
X70549001Y-44188000D01*
X70550205Y-44163496D01*
X70553805Y-44139228D01*
X70559766Y-44115429D01*
X70568031Y-44092330D01*
X70578521Y-44070151D01*
X70591133Y-44049108D01*
X70605748Y-44029402D01*
X70622224Y-44011224D01*
X70640402Y-43994748D01*
X70660108Y-43980133D01*
X70681151Y-43967521D01*
X70703330Y-43957031D01*
X70726429Y-43948766D01*
X70750228Y-43942805D01*
X70774496Y-43939205D01*
X70799000Y-43938001D01*
X71449002Y-43938001D01*
X71473506Y-43939205D01*
X71473506Y-43939205D01*
G37*
D12*
X71124001Y-44638001D03*
D10*
G36*
X69423506Y-43939205D02*
X69447774Y-43942805D01*
X69471573Y-43948766D01*
X69494672Y-43957031D01*
X69516851Y-43967521D01*
X69537894Y-43980133D01*
X69557600Y-43994748D01*
X69575778Y-44011224D01*
X69592254Y-44029402D01*
X69606869Y-44049108D01*
X69619481Y-44070151D01*
X69629971Y-44092330D01*
X69638236Y-44115429D01*
X69644197Y-44139228D01*
X69647797Y-44163496D01*
X69649001Y-44188000D01*
X69649001Y-45088002D01*
X69647797Y-45112506D01*
X69644197Y-45136774D01*
X69638236Y-45160573D01*
X69629971Y-45183672D01*
X69619481Y-45205851D01*
X69606869Y-45226894D01*
X69592254Y-45246600D01*
X69575778Y-45264778D01*
X69557600Y-45281254D01*
X69537894Y-45295869D01*
X69516851Y-45308481D01*
X69494672Y-45318971D01*
X69471573Y-45327236D01*
X69447774Y-45333197D01*
X69423506Y-45336797D01*
X69399002Y-45338001D01*
X68749000Y-45338001D01*
X68724496Y-45336797D01*
X68700228Y-45333197D01*
X68676429Y-45327236D01*
X68653330Y-45318971D01*
X68631151Y-45308481D01*
X68610108Y-45295869D01*
X68590402Y-45281254D01*
X68572224Y-45264778D01*
X68555748Y-45246600D01*
X68541133Y-45226894D01*
X68528521Y-45205851D01*
X68518031Y-45183672D01*
X68509766Y-45160573D01*
X68503805Y-45136774D01*
X68500205Y-45112506D01*
X68499001Y-45088002D01*
X68499001Y-44188000D01*
X68500205Y-44163496D01*
X68503805Y-44139228D01*
X68509766Y-44115429D01*
X68518031Y-44092330D01*
X68528521Y-44070151D01*
X68541133Y-44049108D01*
X68555748Y-44029402D01*
X68572224Y-44011224D01*
X68590402Y-43994748D01*
X68610108Y-43980133D01*
X68631151Y-43967521D01*
X68653330Y-43957031D01*
X68676429Y-43948766D01*
X68700228Y-43942805D01*
X68724496Y-43939205D01*
X68749000Y-43938001D01*
X69399002Y-43938001D01*
X69423506Y-43939205D01*
X69423506Y-43939205D01*
G37*
D12*
X69074001Y-44638001D03*
G04 #@! TD*
D10*
G04 #@! TO.C,R17*
G36*
X73263505Y-43964204D02*
X73287773Y-43967804D01*
X73311572Y-43973765D01*
X73334671Y-43982030D01*
X73356850Y-43992520D01*
X73377893Y-44005132D01*
X73397599Y-44019747D01*
X73415777Y-44036223D01*
X73432253Y-44054401D01*
X73446868Y-44074107D01*
X73459480Y-44095150D01*
X73469970Y-44117329D01*
X73478235Y-44140428D01*
X73484196Y-44164227D01*
X73487796Y-44188495D01*
X73489000Y-44212999D01*
X73489000Y-45113001D01*
X73487796Y-45137505D01*
X73484196Y-45161773D01*
X73478235Y-45185572D01*
X73469970Y-45208671D01*
X73459480Y-45230850D01*
X73446868Y-45251893D01*
X73432253Y-45271599D01*
X73415777Y-45289777D01*
X73397599Y-45306253D01*
X73377893Y-45320868D01*
X73356850Y-45333480D01*
X73334671Y-45343970D01*
X73311572Y-45352235D01*
X73287773Y-45358196D01*
X73263505Y-45361796D01*
X73239001Y-45363000D01*
X72588999Y-45363000D01*
X72564495Y-45361796D01*
X72540227Y-45358196D01*
X72516428Y-45352235D01*
X72493329Y-45343970D01*
X72471150Y-45333480D01*
X72450107Y-45320868D01*
X72430401Y-45306253D01*
X72412223Y-45289777D01*
X72395747Y-45271599D01*
X72381132Y-45251893D01*
X72368520Y-45230850D01*
X72358030Y-45208671D01*
X72349765Y-45185572D01*
X72343804Y-45161773D01*
X72340204Y-45137505D01*
X72339000Y-45113001D01*
X72339000Y-44212999D01*
X72340204Y-44188495D01*
X72343804Y-44164227D01*
X72349765Y-44140428D01*
X72358030Y-44117329D01*
X72368520Y-44095150D01*
X72381132Y-44074107D01*
X72395747Y-44054401D01*
X72412223Y-44036223D01*
X72430401Y-44019747D01*
X72450107Y-44005132D01*
X72471150Y-43992520D01*
X72493329Y-43982030D01*
X72516428Y-43973765D01*
X72540227Y-43967804D01*
X72564495Y-43964204D01*
X72588999Y-43963000D01*
X73239001Y-43963000D01*
X73263505Y-43964204D01*
X73263505Y-43964204D01*
G37*
D12*
X72914000Y-44663000D03*
D10*
G36*
X75313505Y-43964204D02*
X75337773Y-43967804D01*
X75361572Y-43973765D01*
X75384671Y-43982030D01*
X75406850Y-43992520D01*
X75427893Y-44005132D01*
X75447599Y-44019747D01*
X75465777Y-44036223D01*
X75482253Y-44054401D01*
X75496868Y-44074107D01*
X75509480Y-44095150D01*
X75519970Y-44117329D01*
X75528235Y-44140428D01*
X75534196Y-44164227D01*
X75537796Y-44188495D01*
X75539000Y-44212999D01*
X75539000Y-45113001D01*
X75537796Y-45137505D01*
X75534196Y-45161773D01*
X75528235Y-45185572D01*
X75519970Y-45208671D01*
X75509480Y-45230850D01*
X75496868Y-45251893D01*
X75482253Y-45271599D01*
X75465777Y-45289777D01*
X75447599Y-45306253D01*
X75427893Y-45320868D01*
X75406850Y-45333480D01*
X75384671Y-45343970D01*
X75361572Y-45352235D01*
X75337773Y-45358196D01*
X75313505Y-45361796D01*
X75289001Y-45363000D01*
X74638999Y-45363000D01*
X74614495Y-45361796D01*
X74590227Y-45358196D01*
X74566428Y-45352235D01*
X74543329Y-45343970D01*
X74521150Y-45333480D01*
X74500107Y-45320868D01*
X74480401Y-45306253D01*
X74462223Y-45289777D01*
X74445747Y-45271599D01*
X74431132Y-45251893D01*
X74418520Y-45230850D01*
X74408030Y-45208671D01*
X74399765Y-45185572D01*
X74393804Y-45161773D01*
X74390204Y-45137505D01*
X74389000Y-45113001D01*
X74389000Y-44212999D01*
X74390204Y-44188495D01*
X74393804Y-44164227D01*
X74399765Y-44140428D01*
X74408030Y-44117329D01*
X74418520Y-44095150D01*
X74431132Y-44074107D01*
X74445747Y-44054401D01*
X74462223Y-44036223D01*
X74480401Y-44019747D01*
X74500107Y-44005132D01*
X74521150Y-43992520D01*
X74543329Y-43982030D01*
X74566428Y-43973765D01*
X74590227Y-43967804D01*
X74614495Y-43964204D01*
X74638999Y-43963000D01*
X75289001Y-43963000D01*
X75313505Y-43964204D01*
X75313505Y-43964204D01*
G37*
D12*
X74964000Y-44663000D03*
G04 #@! TD*
D17*
G04 #@! TO.C,U4*
X69700000Y-56895000D03*
X69700000Y-58165000D03*
X69700000Y-59435000D03*
X69700000Y-60705000D03*
X75100000Y-60705000D03*
X75100000Y-59435000D03*
X75100000Y-58165000D03*
X75100000Y-56895000D03*
G04 #@! TD*
D10*
G04 #@! TO.C,R18*
G36*
X56874505Y-43301204D02*
X56898773Y-43304804D01*
X56922572Y-43310765D01*
X56945671Y-43319030D01*
X56967850Y-43329520D01*
X56988893Y-43342132D01*
X57008599Y-43356747D01*
X57026777Y-43373223D01*
X57043253Y-43391401D01*
X57057868Y-43411107D01*
X57070480Y-43432150D01*
X57080970Y-43454329D01*
X57089235Y-43477428D01*
X57095196Y-43501227D01*
X57098796Y-43525495D01*
X57100000Y-43549999D01*
X57100000Y-44450001D01*
X57098796Y-44474505D01*
X57095196Y-44498773D01*
X57089235Y-44522572D01*
X57080970Y-44545671D01*
X57070480Y-44567850D01*
X57057868Y-44588893D01*
X57043253Y-44608599D01*
X57026777Y-44626777D01*
X57008599Y-44643253D01*
X56988893Y-44657868D01*
X56967850Y-44670480D01*
X56945671Y-44680970D01*
X56922572Y-44689235D01*
X56898773Y-44695196D01*
X56874505Y-44698796D01*
X56850001Y-44700000D01*
X56199999Y-44700000D01*
X56175495Y-44698796D01*
X56151227Y-44695196D01*
X56127428Y-44689235D01*
X56104329Y-44680970D01*
X56082150Y-44670480D01*
X56061107Y-44657868D01*
X56041401Y-44643253D01*
X56023223Y-44626777D01*
X56006747Y-44608599D01*
X55992132Y-44588893D01*
X55979520Y-44567850D01*
X55969030Y-44545671D01*
X55960765Y-44522572D01*
X55954804Y-44498773D01*
X55951204Y-44474505D01*
X55950000Y-44450001D01*
X55950000Y-43549999D01*
X55951204Y-43525495D01*
X55954804Y-43501227D01*
X55960765Y-43477428D01*
X55969030Y-43454329D01*
X55979520Y-43432150D01*
X55992132Y-43411107D01*
X56006747Y-43391401D01*
X56023223Y-43373223D01*
X56041401Y-43356747D01*
X56061107Y-43342132D01*
X56082150Y-43329520D01*
X56104329Y-43319030D01*
X56127428Y-43310765D01*
X56151227Y-43304804D01*
X56175495Y-43301204D01*
X56199999Y-43300000D01*
X56850001Y-43300000D01*
X56874505Y-43301204D01*
X56874505Y-43301204D01*
G37*
D12*
X56525000Y-44000000D03*
D10*
G36*
X54824505Y-43301204D02*
X54848773Y-43304804D01*
X54872572Y-43310765D01*
X54895671Y-43319030D01*
X54917850Y-43329520D01*
X54938893Y-43342132D01*
X54958599Y-43356747D01*
X54976777Y-43373223D01*
X54993253Y-43391401D01*
X55007868Y-43411107D01*
X55020480Y-43432150D01*
X55030970Y-43454329D01*
X55039235Y-43477428D01*
X55045196Y-43501227D01*
X55048796Y-43525495D01*
X55050000Y-43549999D01*
X55050000Y-44450001D01*
X55048796Y-44474505D01*
X55045196Y-44498773D01*
X55039235Y-44522572D01*
X55030970Y-44545671D01*
X55020480Y-44567850D01*
X55007868Y-44588893D01*
X54993253Y-44608599D01*
X54976777Y-44626777D01*
X54958599Y-44643253D01*
X54938893Y-44657868D01*
X54917850Y-44670480D01*
X54895671Y-44680970D01*
X54872572Y-44689235D01*
X54848773Y-44695196D01*
X54824505Y-44698796D01*
X54800001Y-44700000D01*
X54149999Y-44700000D01*
X54125495Y-44698796D01*
X54101227Y-44695196D01*
X54077428Y-44689235D01*
X54054329Y-44680970D01*
X54032150Y-44670480D01*
X54011107Y-44657868D01*
X53991401Y-44643253D01*
X53973223Y-44626777D01*
X53956747Y-44608599D01*
X53942132Y-44588893D01*
X53929520Y-44567850D01*
X53919030Y-44545671D01*
X53910765Y-44522572D01*
X53904804Y-44498773D01*
X53901204Y-44474505D01*
X53900000Y-44450001D01*
X53900000Y-43549999D01*
X53901204Y-43525495D01*
X53904804Y-43501227D01*
X53910765Y-43477428D01*
X53919030Y-43454329D01*
X53929520Y-43432150D01*
X53942132Y-43411107D01*
X53956747Y-43391401D01*
X53973223Y-43373223D01*
X53991401Y-43356747D01*
X54011107Y-43342132D01*
X54032150Y-43329520D01*
X54054329Y-43319030D01*
X54077428Y-43310765D01*
X54101227Y-43304804D01*
X54125495Y-43301204D01*
X54149999Y-43300000D01*
X54800001Y-43300000D01*
X54824505Y-43301204D01*
X54824505Y-43301204D01*
G37*
D12*
X54475000Y-44000000D03*
G04 #@! TD*
D10*
G04 #@! TO.C,R19*
G36*
X54324505Y-54801204D02*
X54348773Y-54804804D01*
X54372572Y-54810765D01*
X54395671Y-54819030D01*
X54417850Y-54829520D01*
X54438893Y-54842132D01*
X54458599Y-54856747D01*
X54476777Y-54873223D01*
X54493253Y-54891401D01*
X54507868Y-54911107D01*
X54520480Y-54932150D01*
X54530970Y-54954329D01*
X54539235Y-54977428D01*
X54545196Y-55001227D01*
X54548796Y-55025495D01*
X54550000Y-55049999D01*
X54550000Y-55950001D01*
X54548796Y-55974505D01*
X54545196Y-55998773D01*
X54539235Y-56022572D01*
X54530970Y-56045671D01*
X54520480Y-56067850D01*
X54507868Y-56088893D01*
X54493253Y-56108599D01*
X54476777Y-56126777D01*
X54458599Y-56143253D01*
X54438893Y-56157868D01*
X54417850Y-56170480D01*
X54395671Y-56180970D01*
X54372572Y-56189235D01*
X54348773Y-56195196D01*
X54324505Y-56198796D01*
X54300001Y-56200000D01*
X53649999Y-56200000D01*
X53625495Y-56198796D01*
X53601227Y-56195196D01*
X53577428Y-56189235D01*
X53554329Y-56180970D01*
X53532150Y-56170480D01*
X53511107Y-56157868D01*
X53491401Y-56143253D01*
X53473223Y-56126777D01*
X53456747Y-56108599D01*
X53442132Y-56088893D01*
X53429520Y-56067850D01*
X53419030Y-56045671D01*
X53410765Y-56022572D01*
X53404804Y-55998773D01*
X53401204Y-55974505D01*
X53400000Y-55950001D01*
X53400000Y-55049999D01*
X53401204Y-55025495D01*
X53404804Y-55001227D01*
X53410765Y-54977428D01*
X53419030Y-54954329D01*
X53429520Y-54932150D01*
X53442132Y-54911107D01*
X53456747Y-54891401D01*
X53473223Y-54873223D01*
X53491401Y-54856747D01*
X53511107Y-54842132D01*
X53532150Y-54829520D01*
X53554329Y-54819030D01*
X53577428Y-54810765D01*
X53601227Y-54804804D01*
X53625495Y-54801204D01*
X53649999Y-54800000D01*
X54300001Y-54800000D01*
X54324505Y-54801204D01*
X54324505Y-54801204D01*
G37*
D12*
X53975000Y-55500000D03*
D10*
G36*
X56374505Y-54801204D02*
X56398773Y-54804804D01*
X56422572Y-54810765D01*
X56445671Y-54819030D01*
X56467850Y-54829520D01*
X56488893Y-54842132D01*
X56508599Y-54856747D01*
X56526777Y-54873223D01*
X56543253Y-54891401D01*
X56557868Y-54911107D01*
X56570480Y-54932150D01*
X56580970Y-54954329D01*
X56589235Y-54977428D01*
X56595196Y-55001227D01*
X56598796Y-55025495D01*
X56600000Y-55049999D01*
X56600000Y-55950001D01*
X56598796Y-55974505D01*
X56595196Y-55998773D01*
X56589235Y-56022572D01*
X56580970Y-56045671D01*
X56570480Y-56067850D01*
X56557868Y-56088893D01*
X56543253Y-56108599D01*
X56526777Y-56126777D01*
X56508599Y-56143253D01*
X56488893Y-56157868D01*
X56467850Y-56170480D01*
X56445671Y-56180970D01*
X56422572Y-56189235D01*
X56398773Y-56195196D01*
X56374505Y-56198796D01*
X56350001Y-56200000D01*
X55699999Y-56200000D01*
X55675495Y-56198796D01*
X55651227Y-56195196D01*
X55627428Y-56189235D01*
X55604329Y-56180970D01*
X55582150Y-56170480D01*
X55561107Y-56157868D01*
X55541401Y-56143253D01*
X55523223Y-56126777D01*
X55506747Y-56108599D01*
X55492132Y-56088893D01*
X55479520Y-56067850D01*
X55469030Y-56045671D01*
X55460765Y-56022572D01*
X55454804Y-55998773D01*
X55451204Y-55974505D01*
X55450000Y-55950001D01*
X55450000Y-55049999D01*
X55451204Y-55025495D01*
X55454804Y-55001227D01*
X55460765Y-54977428D01*
X55469030Y-54954329D01*
X55479520Y-54932150D01*
X55492132Y-54911107D01*
X55506747Y-54891401D01*
X55523223Y-54873223D01*
X55541401Y-54856747D01*
X55561107Y-54842132D01*
X55582150Y-54829520D01*
X55604329Y-54819030D01*
X55627428Y-54810765D01*
X55651227Y-54804804D01*
X55675495Y-54801204D01*
X55699999Y-54800000D01*
X56350001Y-54800000D01*
X56374505Y-54801204D01*
X56374505Y-54801204D01*
G37*
D12*
X56025000Y-55500000D03*
G04 #@! TD*
M02*
