M48
; DRILL file {KiCad (5.1.0)-1} date 7/5/2019 4:38:05 PM
; FORMAT={-:-/ absolute / inch / decimal}
; #@! TF.CreationDate,2019-07-05T16:38:05+02:00
; #@! TF.GenerationSoftware,Kicad,Pcbnew,(5.1.0)-1
; #@! TF.FileFunction,Plated,1,2,PTH
FMAT,2
INCH
T1C0.0157
T2C0.0394
T3C0.1260
%
G90
G05
T1
X2.62Y-4.865
X2.62Y-5.085
X2.65Y-5.39
X2.765Y-4.745
X2.805Y-4.745
X2.8351Y-4.9217
X2.85Y-4.745
X2.9306Y-5.0554
X2.995Y-4.9845
X3.0039Y-5.0236
X3.005Y-5.12
X3.015Y-5.375
X3.015Y-5.465
X3.115Y-4.82
X3.2Y-4.82
X3.2041Y-5.6459
X3.3Y-5.395
X3.32Y-4.81
X3.325Y-4.97
X3.3272Y-5.015
X3.3858Y-5.1575
X3.49Y-4.7
X3.5Y-5.595
X3.515Y-4.675
X3.5433Y-5.1575
X3.665Y-4.655
X3.695Y-4.68
X3.72Y-4.705
T2
X2.3132Y-4.9733
X2.3132Y-5.0824
X2.3132Y-5.1914
X2.3132Y-5.3005
X2.425Y-4.9188
X2.425Y-5.0278
X2.425Y-5.1369
X2.425Y-5.2459
X2.425Y-5.355
X3.8189Y-4.9213
X3.8189Y-5.0303
X3.8189Y-5.1394
X3.8189Y-5.2484
X3.8189Y-5.3575
X3.9307Y-4.9758
X3.9307Y-5.0848
X3.9307Y-5.1939
X3.9307Y-5.303
T3
X2.4132Y-4.6448
X2.4132Y-5.629
X3.8307Y-4.6472
X3.8307Y-5.6315
T0
M30
