G04 #@! TF.GenerationSoftware,KiCad,Pcbnew,(5.1.0)-1*
G04 #@! TF.CreationDate,2019-07-05T16:38:03+02:00*
G04 #@! TF.ProjectId,BSPD_SMD,42535044-5f53-44d4-942e-6b696361645f,rev?*
G04 #@! TF.SameCoordinates,Original*
G04 #@! TF.FileFunction,Legend,Top*
G04 #@! TF.FilePolarity,Positive*
%FSLAX46Y46*%
G04 Gerber Fmt 4.6, Leading zero omitted, Abs format (unit mm)*
G04 Created by KiCad (PCBNEW (5.1.0)-1) date 2019-07-05 16:38:03*
%MOMM*%
%LPD*%
G04 APERTURE LIST*
%ADD10C,0.200000*%
%ADD11C,0.120000*%
%ADD12C,0.150000*%
%ADD13R,1.060000X0.650000*%
%ADD14C,0.100000*%
%ADD15C,1.150000*%
%ADD16C,1.425000*%
%ADD17C,4.000000*%
%ADD18C,1.600000*%
%ADD19R,1.600000X1.600000*%
%ADD20R,0.900000X0.800000*%
%ADD21R,1.550000X0.600000*%
%ADD22R,3.800000X2.000000*%
%ADD23R,1.500000X2.000000*%
G04 APERTURE END LIST*
D10*
X54000000Y-114000000D02*
G75*
G02X57000000Y-111000000I3000000J0D01*
G01*
X105000000Y-147000000D02*
X105000000Y-148000000D01*
X105000000Y-148000000D02*
G75*
G02X102000000Y-151000000I-3000000J0D01*
G01*
X57000000Y-151000000D02*
X102000000Y-151000000D01*
X105000000Y-114000000D02*
X105000000Y-147000000D01*
X102000000Y-111000000D02*
X98000000Y-111000000D01*
X102000000Y-111000000D02*
G75*
G02X105000000Y-114000000I0J-3000000D01*
G01*
X57000000Y-111000000D02*
X98000000Y-111000000D01*
X54000000Y-114000000D02*
G75*
G02X57000000Y-111000000I3000000J0D01*
G01*
X54000000Y-148000000D02*
X54000000Y-114000000D01*
X57000000Y-151000000D02*
G75*
G02X54000000Y-148000000I0J3000000D01*
G01*
D11*
X87910000Y-126640000D02*
X85460000Y-126640000D01*
X86110000Y-129860000D02*
X87910000Y-129860000D01*
X71004500Y-127197752D02*
X71004500Y-126675248D01*
X69584500Y-127197752D02*
X69584500Y-126675248D01*
X70410000Y-138437252D02*
X70410000Y-137914748D01*
X71830000Y-138437252D02*
X71830000Y-137914748D01*
X81545500Y-128395252D02*
X81545500Y-127872748D01*
X80125500Y-128395252D02*
X80125500Y-127872748D01*
X86621252Y-142759500D02*
X86098748Y-142759500D01*
X86621252Y-141339500D02*
X86098748Y-141339500D01*
X77668800Y-114536136D02*
X77668800Y-115740264D01*
X75848800Y-114536136D02*
X75848800Y-115740264D01*
X74979600Y-114267348D02*
X74979600Y-114789852D01*
X73559600Y-114267348D02*
X73559600Y-114789852D01*
X76125000Y-119920652D02*
X76125000Y-119398148D01*
X77545000Y-119920652D02*
X77545000Y-119398148D01*
X75078000Y-119677264D02*
X75078000Y-118473136D01*
X73258000Y-119677264D02*
X73258000Y-118473136D01*
X86352748Y-137044500D02*
X86875252Y-137044500D01*
X86352748Y-135624500D02*
X86875252Y-135624500D01*
X90562500Y-128008748D02*
X90562500Y-128531252D01*
X89142500Y-128008748D02*
X89142500Y-128531252D01*
X87578000Y-119450752D02*
X87578000Y-118928248D01*
X86158000Y-119450752D02*
X86158000Y-118928248D01*
X73921252Y-132322500D02*
X73398748Y-132322500D01*
X73921252Y-133742500D02*
X73398748Y-133742500D01*
X74937252Y-145490000D02*
X74414748Y-145490000D01*
X74937252Y-144070000D02*
X74414748Y-144070000D01*
X64816325Y-136017000D02*
X65249338Y-135767000D01*
X65249338Y-136267000D02*
X64816325Y-136017000D01*
X65249338Y-135767000D02*
X65249338Y-136267000D01*
X64355000Y-145962000D02*
X53875000Y-145962000D01*
X64355000Y-114992000D02*
X64355000Y-145962000D01*
X53875000Y-114992000D02*
X64355000Y-114992000D01*
X104720000Y-146025000D02*
X94240000Y-146025000D01*
X94240000Y-146025000D02*
X94240000Y-115055000D01*
X94240000Y-115055000D02*
X104720000Y-115055000D01*
X93345662Y-125250000D02*
X93345662Y-124750000D01*
X93345662Y-124750000D02*
X93778675Y-125000000D01*
X93778675Y-125000000D02*
X93345662Y-125250000D01*
X92089000Y-145598000D02*
X92089000Y-144668000D01*
X92089000Y-142438000D02*
X92089000Y-143368000D01*
X92089000Y-142438000D02*
X89929000Y-142438000D01*
X92089000Y-145598000D02*
X90629000Y-145598000D01*
X86621252Y-144982000D02*
X86098748Y-144982000D01*
X86621252Y-143562000D02*
X86098748Y-143562000D01*
X68909000Y-131401452D02*
X68909000Y-130878948D01*
X67489000Y-131401452D02*
X67489000Y-130878948D01*
X71004500Y-130866248D02*
X71004500Y-131388752D01*
X69584500Y-130866248D02*
X69584500Y-131388752D01*
X67997000Y-142755252D02*
X67997000Y-142232748D01*
X69417000Y-142755252D02*
X69417000Y-142232748D01*
X71639500Y-142232748D02*
X71639500Y-142755252D01*
X70219500Y-142232748D02*
X70219500Y-142755252D01*
X81545500Y-132468252D02*
X81545500Y-131945748D01*
X80125500Y-132468252D02*
X80125500Y-131945748D01*
X83895000Y-131945748D02*
X83895000Y-132468252D01*
X82475000Y-131945748D02*
X82475000Y-132468252D01*
X68909000Y-127197752D02*
X68909000Y-126675248D01*
X67489000Y-127197752D02*
X67489000Y-126675248D01*
X69417000Y-138386452D02*
X69417000Y-137863948D01*
X67997000Y-138386452D02*
X67997000Y-137863948D01*
X82480000Y-128421252D02*
X82480000Y-127898748D01*
X83900000Y-128421252D02*
X83900000Y-127898748D01*
X86098748Y-140600500D02*
X86621252Y-140600500D01*
X86098748Y-139180500D02*
X86621252Y-139180500D01*
D12*
X73553500Y-126584000D02*
X73553500Y-126634000D01*
X77703500Y-126584000D02*
X77703500Y-126729000D01*
X77703500Y-131734000D02*
X77703500Y-131589000D01*
X73553500Y-131734000D02*
X73553500Y-131589000D01*
X73553500Y-126584000D02*
X77703500Y-126584000D01*
X73553500Y-131734000D02*
X77703500Y-131734000D01*
X73553500Y-126634000D02*
X72153500Y-126634000D01*
X73934500Y-138254500D02*
X72534500Y-138254500D01*
X73934500Y-143354500D02*
X78084500Y-143354500D01*
X73934500Y-138204500D02*
X78084500Y-138204500D01*
X73934500Y-143354500D02*
X73934500Y-143209500D01*
X78084500Y-143354500D02*
X78084500Y-143209500D01*
X78084500Y-138204500D02*
X78084500Y-138349500D01*
X73934500Y-138204500D02*
X73934500Y-138254500D01*
D11*
X81396000Y-141437000D02*
X83196000Y-141437000D01*
X83196000Y-138217000D02*
X80746000Y-138217000D01*
X78505000Y-119004000D02*
X79765000Y-119004000D01*
X85325000Y-119004000D02*
X84065000Y-119004000D01*
X78505000Y-115244000D02*
X78505000Y-119004000D01*
X85325000Y-112994000D02*
X85325000Y-119004000D01*
X82025748Y-123242000D02*
X82548252Y-123242000D01*
X82025748Y-124662000D02*
X82548252Y-124662000D01*
X78097748Y-124662000D02*
X78620252Y-124662000D01*
X78097748Y-123242000D02*
X78620252Y-123242000D01*
X79231748Y-135815000D02*
X79754252Y-135815000D01*
X79231748Y-137235000D02*
X79754252Y-137235000D01*
X78342748Y-147522000D02*
X78865252Y-147522000D01*
X78342748Y-146102000D02*
X78865252Y-146102000D01*
X78883252Y-145490000D02*
X78360748Y-145490000D01*
X78883252Y-144070000D02*
X78360748Y-144070000D01*
X85971748Y-147522000D02*
X86494252Y-147522000D01*
X85971748Y-146102000D02*
X86494252Y-146102000D01*
X65838000Y-140478252D02*
X65838000Y-139955748D01*
X67258000Y-140478252D02*
X67258000Y-139955748D01*
X77335748Y-133806000D02*
X77858252Y-133806000D01*
X77335748Y-132386000D02*
X77858252Y-132386000D01*
X69349252Y-124281000D02*
X68826748Y-124281000D01*
X69349252Y-122861000D02*
X68826748Y-122861000D01*
D12*
X86248095Y-124802380D02*
X86248095Y-125611904D01*
X86295714Y-125707142D01*
X86343333Y-125754761D01*
X86438571Y-125802380D01*
X86629047Y-125802380D01*
X86724285Y-125754761D01*
X86771904Y-125707142D01*
X86819523Y-125611904D01*
X86819523Y-124802380D01*
X87819523Y-125802380D02*
X87248095Y-125802380D01*
X87533809Y-125802380D02*
X87533809Y-124802380D01*
X87438571Y-124945238D01*
X87343333Y-125040476D01*
X87248095Y-125088095D01*
X72350333Y-125960142D02*
X72302714Y-126007761D01*
X72159857Y-126055380D01*
X72064619Y-126055380D01*
X71921761Y-126007761D01*
X71826523Y-125912523D01*
X71778904Y-125817285D01*
X71731285Y-125626809D01*
X71731285Y-125483952D01*
X71778904Y-125293476D01*
X71826523Y-125198238D01*
X71921761Y-125103000D01*
X72064619Y-125055380D01*
X72159857Y-125055380D01*
X72302714Y-125103000D01*
X72350333Y-125150619D01*
X73207476Y-125055380D02*
X73017000Y-125055380D01*
X72921761Y-125103000D01*
X72874142Y-125150619D01*
X72778904Y-125293476D01*
X72731285Y-125483952D01*
X72731285Y-125864904D01*
X72778904Y-125960142D01*
X72826523Y-126007761D01*
X72921761Y-126055380D01*
X73112238Y-126055380D01*
X73207476Y-126007761D01*
X73255095Y-125960142D01*
X73302714Y-125864904D01*
X73302714Y-125626809D01*
X73255095Y-125531571D01*
X73207476Y-125483952D01*
X73112238Y-125436333D01*
X72921761Y-125436333D01*
X72826523Y-125483952D01*
X72778904Y-125531571D01*
X72731285Y-125626809D01*
X70953333Y-135993142D02*
X70905714Y-136040761D01*
X70762857Y-136088380D01*
X70667619Y-136088380D01*
X70524761Y-136040761D01*
X70429523Y-135945523D01*
X70381904Y-135850285D01*
X70334285Y-135659809D01*
X70334285Y-135516952D01*
X70381904Y-135326476D01*
X70429523Y-135231238D01*
X70524761Y-135136000D01*
X70667619Y-135088380D01*
X70762857Y-135088380D01*
X70905714Y-135136000D01*
X70953333Y-135183619D01*
X71286666Y-135088380D02*
X71953333Y-135088380D01*
X71524761Y-136088380D01*
X80732333Y-125960142D02*
X80684714Y-126007761D01*
X80541857Y-126055380D01*
X80446619Y-126055380D01*
X80303761Y-126007761D01*
X80208523Y-125912523D01*
X80160904Y-125817285D01*
X80113285Y-125626809D01*
X80113285Y-125483952D01*
X80160904Y-125293476D01*
X80208523Y-125198238D01*
X80303761Y-125103000D01*
X80446619Y-125055380D01*
X80541857Y-125055380D01*
X80684714Y-125103000D01*
X80732333Y-125150619D01*
X81303761Y-125483952D02*
X81208523Y-125436333D01*
X81160904Y-125388714D01*
X81113285Y-125293476D01*
X81113285Y-125245857D01*
X81160904Y-125150619D01*
X81208523Y-125103000D01*
X81303761Y-125055380D01*
X81494238Y-125055380D01*
X81589476Y-125103000D01*
X81637095Y-125150619D01*
X81684714Y-125245857D01*
X81684714Y-125293476D01*
X81637095Y-125388714D01*
X81589476Y-125436333D01*
X81494238Y-125483952D01*
X81303761Y-125483952D01*
X81208523Y-125531571D01*
X81160904Y-125579190D01*
X81113285Y-125674428D01*
X81113285Y-125864904D01*
X81160904Y-125960142D01*
X81208523Y-126007761D01*
X81303761Y-126055380D01*
X81494238Y-126055380D01*
X81589476Y-126007761D01*
X81637095Y-125960142D01*
X81684714Y-125864904D01*
X81684714Y-125674428D01*
X81637095Y-125579190D01*
X81589476Y-125531571D01*
X81494238Y-125483952D01*
X83081833Y-142978142D02*
X83034214Y-143025761D01*
X82891357Y-143073380D01*
X82796119Y-143073380D01*
X82653261Y-143025761D01*
X82558023Y-142930523D01*
X82510404Y-142835285D01*
X82462785Y-142644809D01*
X82462785Y-142501952D01*
X82510404Y-142311476D01*
X82558023Y-142216238D01*
X82653261Y-142121000D01*
X82796119Y-142073380D01*
X82891357Y-142073380D01*
X83034214Y-142121000D01*
X83081833Y-142168619D01*
X83558023Y-143073380D02*
X83748500Y-143073380D01*
X83843738Y-143025761D01*
X83891357Y-142978142D01*
X83986595Y-142835285D01*
X84034214Y-142644809D01*
X84034214Y-142263857D01*
X83986595Y-142168619D01*
X83938976Y-142121000D01*
X83843738Y-142073380D01*
X83653261Y-142073380D01*
X83558023Y-142121000D01*
X83510404Y-142168619D01*
X83462785Y-142263857D01*
X83462785Y-142501952D01*
X83510404Y-142597190D01*
X83558023Y-142644809D01*
X83653261Y-142692428D01*
X83843738Y-142692428D01*
X83938976Y-142644809D01*
X83986595Y-142597190D01*
X84034214Y-142501952D01*
X70807342Y-114530142D02*
X70759723Y-114577761D01*
X70616866Y-114625380D01*
X70521628Y-114625380D01*
X70378771Y-114577761D01*
X70283533Y-114482523D01*
X70235914Y-114387285D01*
X70188295Y-114196809D01*
X70188295Y-114053952D01*
X70235914Y-113863476D01*
X70283533Y-113768238D01*
X70378771Y-113673000D01*
X70521628Y-113625380D01*
X70616866Y-113625380D01*
X70759723Y-113673000D01*
X70807342Y-113720619D01*
X71759723Y-114625380D02*
X71188295Y-114625380D01*
X71474009Y-114625380D02*
X71474009Y-113625380D01*
X71378771Y-113768238D01*
X71283533Y-113863476D01*
X71188295Y-113911095D01*
X72378771Y-113625380D02*
X72474009Y-113625380D01*
X72569247Y-113673000D01*
X72616866Y-113720619D01*
X72664485Y-113815857D01*
X72712104Y-114006333D01*
X72712104Y-114244428D01*
X72664485Y-114434904D01*
X72616866Y-114530142D01*
X72569247Y-114577761D01*
X72474009Y-114625380D01*
X72378771Y-114625380D01*
X72283533Y-114577761D01*
X72235914Y-114530142D01*
X72188295Y-114434904D01*
X72140676Y-114244428D01*
X72140676Y-114006333D01*
X72188295Y-113815857D01*
X72235914Y-113720619D01*
X72283533Y-113673000D01*
X72378771Y-113625380D01*
X70832742Y-116028742D02*
X70785123Y-116076361D01*
X70642266Y-116123980D01*
X70547028Y-116123980D01*
X70404171Y-116076361D01*
X70308933Y-115981123D01*
X70261314Y-115885885D01*
X70213695Y-115695409D01*
X70213695Y-115552552D01*
X70261314Y-115362076D01*
X70308933Y-115266838D01*
X70404171Y-115171600D01*
X70547028Y-115123980D01*
X70642266Y-115123980D01*
X70785123Y-115171600D01*
X70832742Y-115219219D01*
X71785123Y-116123980D02*
X71213695Y-116123980D01*
X71499409Y-116123980D02*
X71499409Y-115123980D01*
X71404171Y-115266838D01*
X71308933Y-115362076D01*
X71213695Y-115409695D01*
X72737504Y-116123980D02*
X72166076Y-116123980D01*
X72451790Y-116123980D02*
X72451790Y-115123980D01*
X72356552Y-115266838D01*
X72261314Y-115362076D01*
X72166076Y-115409695D01*
X70908942Y-119635542D02*
X70861323Y-119683161D01*
X70718466Y-119730780D01*
X70623228Y-119730780D01*
X70480371Y-119683161D01*
X70385133Y-119587923D01*
X70337514Y-119492685D01*
X70289895Y-119302209D01*
X70289895Y-119159352D01*
X70337514Y-118968876D01*
X70385133Y-118873638D01*
X70480371Y-118778400D01*
X70623228Y-118730780D01*
X70718466Y-118730780D01*
X70861323Y-118778400D01*
X70908942Y-118826019D01*
X71861323Y-119730780D02*
X71289895Y-119730780D01*
X71575609Y-119730780D02*
X71575609Y-118730780D01*
X71480371Y-118873638D01*
X71385133Y-118968876D01*
X71289895Y-119016495D01*
X72242276Y-118826019D02*
X72289895Y-118778400D01*
X72385133Y-118730780D01*
X72623228Y-118730780D01*
X72718466Y-118778400D01*
X72766085Y-118826019D01*
X72813704Y-118921257D01*
X72813704Y-119016495D01*
X72766085Y-119159352D01*
X72194657Y-119730780D01*
X72813704Y-119730780D01*
X70858142Y-118340142D02*
X70810523Y-118387761D01*
X70667666Y-118435380D01*
X70572428Y-118435380D01*
X70429571Y-118387761D01*
X70334333Y-118292523D01*
X70286714Y-118197285D01*
X70239095Y-118006809D01*
X70239095Y-117863952D01*
X70286714Y-117673476D01*
X70334333Y-117578238D01*
X70429571Y-117483000D01*
X70572428Y-117435380D01*
X70667666Y-117435380D01*
X70810523Y-117483000D01*
X70858142Y-117530619D01*
X71810523Y-118435380D02*
X71239095Y-118435380D01*
X71524809Y-118435380D02*
X71524809Y-117435380D01*
X71429571Y-117578238D01*
X71334333Y-117673476D01*
X71239095Y-117721095D01*
X72143857Y-117435380D02*
X72762904Y-117435380D01*
X72429571Y-117816333D01*
X72572428Y-117816333D01*
X72667666Y-117863952D01*
X72715285Y-117911571D01*
X72762904Y-118006809D01*
X72762904Y-118244904D01*
X72715285Y-118340142D01*
X72667666Y-118387761D01*
X72572428Y-118435380D01*
X72286714Y-118435380D01*
X72191476Y-118387761D01*
X72143857Y-118340142D01*
X88701642Y-138406142D02*
X88654023Y-138453761D01*
X88511166Y-138501380D01*
X88415928Y-138501380D01*
X88273071Y-138453761D01*
X88177833Y-138358523D01*
X88130214Y-138263285D01*
X88082595Y-138072809D01*
X88082595Y-137929952D01*
X88130214Y-137739476D01*
X88177833Y-137644238D01*
X88273071Y-137549000D01*
X88415928Y-137501380D01*
X88511166Y-137501380D01*
X88654023Y-137549000D01*
X88701642Y-137596619D01*
X89654023Y-138501380D02*
X89082595Y-138501380D01*
X89368309Y-138501380D02*
X89368309Y-137501380D01*
X89273071Y-137644238D01*
X89177833Y-137739476D01*
X89082595Y-137787095D01*
X90511166Y-137834714D02*
X90511166Y-138501380D01*
X90273071Y-137453761D02*
X90034976Y-138168047D01*
X90654023Y-138168047D01*
X91859642Y-128912857D02*
X91907261Y-128960476D01*
X91954880Y-129103333D01*
X91954880Y-129198571D01*
X91907261Y-129341428D01*
X91812023Y-129436666D01*
X91716785Y-129484285D01*
X91526309Y-129531904D01*
X91383452Y-129531904D01*
X91192976Y-129484285D01*
X91097738Y-129436666D01*
X91002500Y-129341428D01*
X90954880Y-129198571D01*
X90954880Y-129103333D01*
X91002500Y-128960476D01*
X91050119Y-128912857D01*
X91954880Y-127960476D02*
X91954880Y-128531904D01*
X91954880Y-128246190D02*
X90954880Y-128246190D01*
X91097738Y-128341428D01*
X91192976Y-128436666D01*
X91240595Y-128531904D01*
X90954880Y-127055714D02*
X90954880Y-127531904D01*
X91431071Y-127579523D01*
X91383452Y-127531904D01*
X91335833Y-127436666D01*
X91335833Y-127198571D01*
X91383452Y-127103333D01*
X91431071Y-127055714D01*
X91526309Y-127008095D01*
X91764404Y-127008095D01*
X91859642Y-127055714D01*
X91907261Y-127103333D01*
X91954880Y-127198571D01*
X91954880Y-127436666D01*
X91907261Y-127531904D01*
X91859642Y-127579523D01*
X88939642Y-119832357D02*
X88987261Y-119879976D01*
X89034880Y-120022833D01*
X89034880Y-120118071D01*
X88987261Y-120260928D01*
X88892023Y-120356166D01*
X88796785Y-120403785D01*
X88606309Y-120451404D01*
X88463452Y-120451404D01*
X88272976Y-120403785D01*
X88177738Y-120356166D01*
X88082500Y-120260928D01*
X88034880Y-120118071D01*
X88034880Y-120022833D01*
X88082500Y-119879976D01*
X88130119Y-119832357D01*
X89034880Y-118879976D02*
X89034880Y-119451404D01*
X89034880Y-119165690D02*
X88034880Y-119165690D01*
X88177738Y-119260928D01*
X88272976Y-119356166D01*
X88320595Y-119451404D01*
X88034880Y-118022833D02*
X88034880Y-118213309D01*
X88082500Y-118308547D01*
X88130119Y-118356166D01*
X88272976Y-118451404D01*
X88463452Y-118499023D01*
X88844404Y-118499023D01*
X88939642Y-118451404D01*
X88987261Y-118403785D01*
X89034880Y-118308547D01*
X89034880Y-118118071D01*
X88987261Y-118022833D01*
X88939642Y-117975214D01*
X88844404Y-117927595D01*
X88606309Y-117927595D01*
X88511071Y-117975214D01*
X88463452Y-118022833D01*
X88415833Y-118118071D01*
X88415833Y-118308547D01*
X88463452Y-118403785D01*
X88511071Y-118451404D01*
X88606309Y-118499023D01*
X73144142Y-135104142D02*
X73096523Y-135151761D01*
X72953666Y-135199380D01*
X72858428Y-135199380D01*
X72715571Y-135151761D01*
X72620333Y-135056523D01*
X72572714Y-134961285D01*
X72525095Y-134770809D01*
X72525095Y-134627952D01*
X72572714Y-134437476D01*
X72620333Y-134342238D01*
X72715571Y-134247000D01*
X72858428Y-134199380D01*
X72953666Y-134199380D01*
X73096523Y-134247000D01*
X73144142Y-134294619D01*
X74096523Y-135199380D02*
X73525095Y-135199380D01*
X73810809Y-135199380D02*
X73810809Y-134199380D01*
X73715571Y-134342238D01*
X73620333Y-134437476D01*
X73525095Y-134485095D01*
X74572714Y-135199380D02*
X74763190Y-135199380D01*
X74858428Y-135151761D01*
X74906047Y-135104142D01*
X75001285Y-134961285D01*
X75048904Y-134770809D01*
X75048904Y-134389857D01*
X75001285Y-134294619D01*
X74953666Y-134247000D01*
X74858428Y-134199380D01*
X74667952Y-134199380D01*
X74572714Y-134247000D01*
X74525095Y-134294619D01*
X74477476Y-134389857D01*
X74477476Y-134627952D01*
X74525095Y-134723190D01*
X74572714Y-134770809D01*
X74667952Y-134818428D01*
X74858428Y-134818428D01*
X74953666Y-134770809D01*
X75001285Y-134723190D01*
X75048904Y-134627952D01*
X74033142Y-146788142D02*
X73985523Y-146835761D01*
X73842666Y-146883380D01*
X73747428Y-146883380D01*
X73604571Y-146835761D01*
X73509333Y-146740523D01*
X73461714Y-146645285D01*
X73414095Y-146454809D01*
X73414095Y-146311952D01*
X73461714Y-146121476D01*
X73509333Y-146026238D01*
X73604571Y-145931000D01*
X73747428Y-145883380D01*
X73842666Y-145883380D01*
X73985523Y-145931000D01*
X74033142Y-145978619D01*
X74414095Y-145978619D02*
X74461714Y-145931000D01*
X74556952Y-145883380D01*
X74795047Y-145883380D01*
X74890285Y-145931000D01*
X74937904Y-145978619D01*
X74985523Y-146073857D01*
X74985523Y-146169095D01*
X74937904Y-146311952D01*
X74366476Y-146883380D01*
X74985523Y-146883380D01*
X75604571Y-145883380D02*
X75699809Y-145883380D01*
X75795047Y-145931000D01*
X75842666Y-145978619D01*
X75890285Y-146073857D01*
X75937904Y-146264333D01*
X75937904Y-146502428D01*
X75890285Y-146692904D01*
X75842666Y-146788142D01*
X75795047Y-146835761D01*
X75699809Y-146883380D01*
X75604571Y-146883380D01*
X75509333Y-146835761D01*
X75461714Y-146788142D01*
X75414095Y-146692904D01*
X75366476Y-146502428D01*
X75366476Y-146264333D01*
X75414095Y-146073857D01*
X75461714Y-145978619D01*
X75509333Y-145931000D01*
X75604571Y-145883380D01*
X64747380Y-130810333D02*
X65461666Y-130810333D01*
X65604523Y-130857952D01*
X65699761Y-130953190D01*
X65747380Y-131096047D01*
X65747380Y-131191285D01*
X65747380Y-129810333D02*
X65747380Y-130381761D01*
X65747380Y-130096047D02*
X64747380Y-130096047D01*
X64890238Y-130191285D01*
X64985476Y-130286523D01*
X65033095Y-130381761D01*
X92752380Y-130873333D02*
X93466666Y-130873333D01*
X93609523Y-130920952D01*
X93704761Y-131016190D01*
X93752380Y-131159047D01*
X93752380Y-131254285D01*
X92847619Y-130444761D02*
X92800000Y-130397142D01*
X92752380Y-130301904D01*
X92752380Y-130063809D01*
X92800000Y-129968571D01*
X92847619Y-129920952D01*
X92942857Y-129873333D01*
X93038095Y-129873333D01*
X93180952Y-129920952D01*
X93752380Y-130492380D01*
X93752380Y-129873333D01*
X91233761Y-142065619D02*
X91138523Y-142018000D01*
X91043285Y-141922761D01*
X90900428Y-141779904D01*
X90805190Y-141732285D01*
X90709952Y-141732285D01*
X90757571Y-141970380D02*
X90662333Y-141922761D01*
X90567095Y-141827523D01*
X90519476Y-141637047D01*
X90519476Y-141303714D01*
X90567095Y-141113238D01*
X90662333Y-141018000D01*
X90757571Y-140970380D01*
X90948047Y-140970380D01*
X91043285Y-141018000D01*
X91138523Y-141113238D01*
X91186142Y-141303714D01*
X91186142Y-141637047D01*
X91138523Y-141827523D01*
X91043285Y-141922761D01*
X90948047Y-141970380D01*
X90757571Y-141970380D01*
X92138523Y-141970380D02*
X91567095Y-141970380D01*
X91852809Y-141970380D02*
X91852809Y-140970380D01*
X91757571Y-141113238D01*
X91662333Y-141208476D01*
X91567095Y-141256095D01*
X83526333Y-144597380D02*
X83193000Y-144121190D01*
X82954904Y-144597380D02*
X82954904Y-143597380D01*
X83335857Y-143597380D01*
X83431095Y-143645000D01*
X83478714Y-143692619D01*
X83526333Y-143787857D01*
X83526333Y-143930714D01*
X83478714Y-144025952D01*
X83431095Y-144073571D01*
X83335857Y-144121190D01*
X82954904Y-144121190D01*
X84478714Y-144597380D02*
X83907285Y-144597380D01*
X84193000Y-144597380D02*
X84193000Y-143597380D01*
X84097761Y-143740238D01*
X84002523Y-143835476D01*
X83907285Y-143883095D01*
X66857642Y-134119880D02*
X66524309Y-133643690D01*
X66286214Y-134119880D02*
X66286214Y-133119880D01*
X66667166Y-133119880D01*
X66762404Y-133167500D01*
X66810023Y-133215119D01*
X66857642Y-133310357D01*
X66857642Y-133453214D01*
X66810023Y-133548452D01*
X66762404Y-133596071D01*
X66667166Y-133643690D01*
X66286214Y-133643690D01*
X67810023Y-134119880D02*
X67238595Y-134119880D01*
X67524309Y-134119880D02*
X67524309Y-133119880D01*
X67429071Y-133262738D01*
X67333833Y-133357976D01*
X67238595Y-133405595D01*
X68429071Y-133119880D02*
X68524309Y-133119880D01*
X68619547Y-133167500D01*
X68667166Y-133215119D01*
X68714785Y-133310357D01*
X68762404Y-133500833D01*
X68762404Y-133738928D01*
X68714785Y-133929404D01*
X68667166Y-134024642D01*
X68619547Y-134072261D01*
X68524309Y-134119880D01*
X68429071Y-134119880D01*
X68333833Y-134072261D01*
X68286214Y-134024642D01*
X68238595Y-133929404D01*
X68190976Y-133738928D01*
X68190976Y-133500833D01*
X68238595Y-133310357D01*
X68286214Y-133215119D01*
X68333833Y-133167500D01*
X68429071Y-133119880D01*
X69588142Y-134119880D02*
X69254809Y-133643690D01*
X69016714Y-134119880D02*
X69016714Y-133119880D01*
X69397666Y-133119880D01*
X69492904Y-133167500D01*
X69540523Y-133215119D01*
X69588142Y-133310357D01*
X69588142Y-133453214D01*
X69540523Y-133548452D01*
X69492904Y-133596071D01*
X69397666Y-133643690D01*
X69016714Y-133643690D01*
X70540523Y-134119880D02*
X69969095Y-134119880D01*
X70254809Y-134119880D02*
X70254809Y-133119880D01*
X70159571Y-133262738D01*
X70064333Y-133357976D01*
X69969095Y-133405595D01*
X71492904Y-134119880D02*
X70921476Y-134119880D01*
X71207190Y-134119880D02*
X71207190Y-133119880D01*
X71111952Y-133262738D01*
X71016714Y-133357976D01*
X70921476Y-133405595D01*
X67429142Y-145613380D02*
X67095809Y-145137190D01*
X66857714Y-145613380D02*
X66857714Y-144613380D01*
X67238666Y-144613380D01*
X67333904Y-144661000D01*
X67381523Y-144708619D01*
X67429142Y-144803857D01*
X67429142Y-144946714D01*
X67381523Y-145041952D01*
X67333904Y-145089571D01*
X67238666Y-145137190D01*
X66857714Y-145137190D01*
X68381523Y-145613380D02*
X67810095Y-145613380D01*
X68095809Y-145613380D02*
X68095809Y-144613380D01*
X68000571Y-144756238D01*
X67905333Y-144851476D01*
X67810095Y-144899095D01*
X68762476Y-144708619D02*
X68810095Y-144661000D01*
X68905333Y-144613380D01*
X69143428Y-144613380D01*
X69238666Y-144661000D01*
X69286285Y-144708619D01*
X69333904Y-144803857D01*
X69333904Y-144899095D01*
X69286285Y-145041952D01*
X68714857Y-145613380D01*
X69333904Y-145613380D01*
X70223142Y-145613380D02*
X69889809Y-145137190D01*
X69651714Y-145613380D02*
X69651714Y-144613380D01*
X70032666Y-144613380D01*
X70127904Y-144661000D01*
X70175523Y-144708619D01*
X70223142Y-144803857D01*
X70223142Y-144946714D01*
X70175523Y-145041952D01*
X70127904Y-145089571D01*
X70032666Y-145137190D01*
X69651714Y-145137190D01*
X71175523Y-145613380D02*
X70604095Y-145613380D01*
X70889809Y-145613380D02*
X70889809Y-144613380D01*
X70794571Y-144756238D01*
X70699333Y-144851476D01*
X70604095Y-144899095D01*
X71508857Y-144613380D02*
X72127904Y-144613380D01*
X71794571Y-144994333D01*
X71937428Y-144994333D01*
X72032666Y-145041952D01*
X72080285Y-145089571D01*
X72127904Y-145184809D01*
X72127904Y-145422904D01*
X72080285Y-145518142D01*
X72032666Y-145565761D01*
X71937428Y-145613380D01*
X71651714Y-145613380D01*
X71556476Y-145565761D01*
X71508857Y-145518142D01*
X81272142Y-135326380D02*
X80938809Y-134850190D01*
X80700714Y-135326380D02*
X80700714Y-134326380D01*
X81081666Y-134326380D01*
X81176904Y-134374000D01*
X81224523Y-134421619D01*
X81272142Y-134516857D01*
X81272142Y-134659714D01*
X81224523Y-134754952D01*
X81176904Y-134802571D01*
X81081666Y-134850190D01*
X80700714Y-134850190D01*
X82224523Y-135326380D02*
X81653095Y-135326380D01*
X81938809Y-135326380D02*
X81938809Y-134326380D01*
X81843571Y-134469238D01*
X81748333Y-134564476D01*
X81653095Y-134612095D01*
X83081666Y-134659714D02*
X83081666Y-135326380D01*
X82843571Y-134278761D02*
X82605476Y-134993047D01*
X83224523Y-134993047D01*
X85542380Y-132849857D02*
X85066190Y-133183190D01*
X85542380Y-133421285D02*
X84542380Y-133421285D01*
X84542380Y-133040333D01*
X84590000Y-132945095D01*
X84637619Y-132897476D01*
X84732857Y-132849857D01*
X84875714Y-132849857D01*
X84970952Y-132897476D01*
X85018571Y-132945095D01*
X85066190Y-133040333D01*
X85066190Y-133421285D01*
X85542380Y-131897476D02*
X85542380Y-132468904D01*
X85542380Y-132183190D02*
X84542380Y-132183190D01*
X84685238Y-132278428D01*
X84780476Y-132373666D01*
X84828095Y-132468904D01*
X84542380Y-130992714D02*
X84542380Y-131468904D01*
X85018571Y-131516523D01*
X84970952Y-131468904D01*
X84923333Y-131373666D01*
X84923333Y-131135571D01*
X84970952Y-131040333D01*
X85018571Y-130992714D01*
X85113809Y-130945095D01*
X85351904Y-130945095D01*
X85447142Y-130992714D01*
X85494761Y-131040333D01*
X85542380Y-131135571D01*
X85542380Y-131373666D01*
X85494761Y-131468904D01*
X85447142Y-131516523D01*
X67000380Y-127134857D02*
X66524190Y-127468190D01*
X67000380Y-127706285D02*
X66000380Y-127706285D01*
X66000380Y-127325333D01*
X66048000Y-127230095D01*
X66095619Y-127182476D01*
X66190857Y-127134857D01*
X66333714Y-127134857D01*
X66428952Y-127182476D01*
X66476571Y-127230095D01*
X66524190Y-127325333D01*
X66524190Y-127706285D01*
X67000380Y-126182476D02*
X67000380Y-126753904D01*
X67000380Y-126468190D02*
X66000380Y-126468190D01*
X66143238Y-126563428D01*
X66238476Y-126658666D01*
X66286095Y-126753904D01*
X66000380Y-125325333D02*
X66000380Y-125515809D01*
X66048000Y-125611047D01*
X66095619Y-125658666D01*
X66238476Y-125753904D01*
X66428952Y-125801523D01*
X66809904Y-125801523D01*
X66905142Y-125753904D01*
X66952761Y-125706285D01*
X67000380Y-125611047D01*
X67000380Y-125420571D01*
X66952761Y-125325333D01*
X66905142Y-125277714D01*
X66809904Y-125230095D01*
X66571809Y-125230095D01*
X66476571Y-125277714D01*
X66428952Y-125325333D01*
X66381333Y-125420571D01*
X66381333Y-125611047D01*
X66428952Y-125706285D01*
X66476571Y-125753904D01*
X66571809Y-125801523D01*
X68064142Y-135961380D02*
X67730809Y-135485190D01*
X67492714Y-135961380D02*
X67492714Y-134961380D01*
X67873666Y-134961380D01*
X67968904Y-135009000D01*
X68016523Y-135056619D01*
X68064142Y-135151857D01*
X68064142Y-135294714D01*
X68016523Y-135389952D01*
X67968904Y-135437571D01*
X67873666Y-135485190D01*
X67492714Y-135485190D01*
X69016523Y-135961380D02*
X68445095Y-135961380D01*
X68730809Y-135961380D02*
X68730809Y-134961380D01*
X68635571Y-135104238D01*
X68540333Y-135199476D01*
X68445095Y-135247095D01*
X69349857Y-134961380D02*
X70016523Y-134961380D01*
X69587952Y-135961380D01*
X82483642Y-126123180D02*
X82150309Y-125646990D01*
X81912214Y-126123180D02*
X81912214Y-125123180D01*
X82293166Y-125123180D01*
X82388404Y-125170800D01*
X82436023Y-125218419D01*
X82483642Y-125313657D01*
X82483642Y-125456514D01*
X82436023Y-125551752D01*
X82388404Y-125599371D01*
X82293166Y-125646990D01*
X81912214Y-125646990D01*
X83436023Y-126123180D02*
X82864595Y-126123180D01*
X83150309Y-126123180D02*
X83150309Y-125123180D01*
X83055071Y-125266038D01*
X82959833Y-125361276D01*
X82864595Y-125408895D01*
X84007452Y-125551752D02*
X83912214Y-125504133D01*
X83864595Y-125456514D01*
X83816976Y-125361276D01*
X83816976Y-125313657D01*
X83864595Y-125218419D01*
X83912214Y-125170800D01*
X84007452Y-125123180D01*
X84197928Y-125123180D01*
X84293166Y-125170800D01*
X84340785Y-125218419D01*
X84388404Y-125313657D01*
X84388404Y-125361276D01*
X84340785Y-125456514D01*
X84293166Y-125504133D01*
X84197928Y-125551752D01*
X84007452Y-125551752D01*
X83912214Y-125599371D01*
X83864595Y-125646990D01*
X83816976Y-125742228D01*
X83816976Y-125932704D01*
X83864595Y-126027942D01*
X83912214Y-126075561D01*
X84007452Y-126123180D01*
X84197928Y-126123180D01*
X84293166Y-126075561D01*
X84340785Y-126027942D01*
X84388404Y-125932704D01*
X84388404Y-125742228D01*
X84340785Y-125646990D01*
X84293166Y-125599371D01*
X84197928Y-125551752D01*
X85717142Y-138692880D02*
X85383809Y-138216690D01*
X85145714Y-138692880D02*
X85145714Y-137692880D01*
X85526666Y-137692880D01*
X85621904Y-137740500D01*
X85669523Y-137788119D01*
X85717142Y-137883357D01*
X85717142Y-138026214D01*
X85669523Y-138121452D01*
X85621904Y-138169071D01*
X85526666Y-138216690D01*
X85145714Y-138216690D01*
X86669523Y-138692880D02*
X86098095Y-138692880D01*
X86383809Y-138692880D02*
X86383809Y-137692880D01*
X86288571Y-137835738D01*
X86193333Y-137930976D01*
X86098095Y-137978595D01*
X87145714Y-138692880D02*
X87336190Y-138692880D01*
X87431428Y-138645261D01*
X87479047Y-138597642D01*
X87574285Y-138454785D01*
X87621904Y-138264309D01*
X87621904Y-137883357D01*
X87574285Y-137788119D01*
X87526666Y-137740500D01*
X87431428Y-137692880D01*
X87240952Y-137692880D01*
X87145714Y-137740500D01*
X87098095Y-137788119D01*
X87050476Y-137883357D01*
X87050476Y-138121452D01*
X87098095Y-138216690D01*
X87145714Y-138264309D01*
X87240952Y-138311928D01*
X87431428Y-138311928D01*
X87526666Y-138264309D01*
X87574285Y-138216690D01*
X87621904Y-138121452D01*
X74866595Y-125111380D02*
X74866595Y-125920904D01*
X74914214Y-126016142D01*
X74961833Y-126063761D01*
X75057071Y-126111380D01*
X75247547Y-126111380D01*
X75342785Y-126063761D01*
X75390404Y-126016142D01*
X75438023Y-125920904D01*
X75438023Y-125111380D01*
X76342785Y-125444714D02*
X76342785Y-126111380D01*
X76104690Y-125063761D02*
X75866595Y-125778047D01*
X76485642Y-125778047D01*
X75184095Y-136866380D02*
X75184095Y-137675904D01*
X75231714Y-137771142D01*
X75279333Y-137818761D01*
X75374571Y-137866380D01*
X75565047Y-137866380D01*
X75660285Y-137818761D01*
X75707904Y-137771142D01*
X75755523Y-137675904D01*
X75755523Y-136866380D01*
X76707904Y-136866380D02*
X76231714Y-136866380D01*
X76184095Y-137342571D01*
X76231714Y-137294952D01*
X76326952Y-137247333D01*
X76565047Y-137247333D01*
X76660285Y-137294952D01*
X76707904Y-137342571D01*
X76755523Y-137437809D01*
X76755523Y-137675904D01*
X76707904Y-137771142D01*
X76660285Y-137818761D01*
X76565047Y-137866380D01*
X76326952Y-137866380D01*
X76231714Y-137818761D01*
X76184095Y-137771142D01*
X81724595Y-136866380D02*
X81724595Y-137675904D01*
X81772214Y-137771142D01*
X81819833Y-137818761D01*
X81915071Y-137866380D01*
X82105547Y-137866380D01*
X82200785Y-137818761D01*
X82248404Y-137771142D01*
X82296023Y-137675904D01*
X82296023Y-136866380D01*
X82676976Y-136866380D02*
X83343642Y-136866380D01*
X82915071Y-137866380D01*
X85939380Y-116331904D02*
X86748904Y-116331904D01*
X86844142Y-116284285D01*
X86891761Y-116236666D01*
X86939380Y-116141428D01*
X86939380Y-115950952D01*
X86891761Y-115855714D01*
X86844142Y-115808095D01*
X86748904Y-115760476D01*
X85939380Y-115760476D01*
X86367952Y-115141428D02*
X86320333Y-115236666D01*
X86272714Y-115284285D01*
X86177476Y-115331904D01*
X86129857Y-115331904D01*
X86034619Y-115284285D01*
X85987000Y-115236666D01*
X85939380Y-115141428D01*
X85939380Y-114950952D01*
X85987000Y-114855714D01*
X86034619Y-114808095D01*
X86129857Y-114760476D01*
X86177476Y-114760476D01*
X86272714Y-114808095D01*
X86320333Y-114855714D01*
X86367952Y-114950952D01*
X86367952Y-115141428D01*
X86415571Y-115236666D01*
X86463190Y-115284285D01*
X86558428Y-115331904D01*
X86748904Y-115331904D01*
X86844142Y-115284285D01*
X86891761Y-115236666D01*
X86939380Y-115141428D01*
X86939380Y-114950952D01*
X86891761Y-114855714D01*
X86844142Y-114808095D01*
X86748904Y-114760476D01*
X86558428Y-114760476D01*
X86463190Y-114808095D01*
X86415571Y-114855714D01*
X86367952Y-114950952D01*
X82120333Y-122754380D02*
X81787000Y-122278190D01*
X81548904Y-122754380D02*
X81548904Y-121754380D01*
X81929857Y-121754380D01*
X82025095Y-121802000D01*
X82072714Y-121849619D01*
X82120333Y-121944857D01*
X82120333Y-122087714D01*
X82072714Y-122182952D01*
X82025095Y-122230571D01*
X81929857Y-122278190D01*
X81548904Y-122278190D01*
X82501285Y-121849619D02*
X82548904Y-121802000D01*
X82644142Y-121754380D01*
X82882238Y-121754380D01*
X82977476Y-121802000D01*
X83025095Y-121849619D01*
X83072714Y-121944857D01*
X83072714Y-122040095D01*
X83025095Y-122182952D01*
X82453666Y-122754380D01*
X83072714Y-122754380D01*
X78192333Y-122754380D02*
X77859000Y-122278190D01*
X77620904Y-122754380D02*
X77620904Y-121754380D01*
X78001857Y-121754380D01*
X78097095Y-121802000D01*
X78144714Y-121849619D01*
X78192333Y-121944857D01*
X78192333Y-122087714D01*
X78144714Y-122182952D01*
X78097095Y-122230571D01*
X78001857Y-122278190D01*
X77620904Y-122278190D01*
X78525666Y-121754380D02*
X79144714Y-121754380D01*
X78811380Y-122135333D01*
X78954238Y-122135333D01*
X79049476Y-122182952D01*
X79097095Y-122230571D01*
X79144714Y-122325809D01*
X79144714Y-122563904D01*
X79097095Y-122659142D01*
X79049476Y-122706761D01*
X78954238Y-122754380D01*
X78668523Y-122754380D01*
X78573285Y-122706761D01*
X78525666Y-122659142D01*
X79326333Y-135327380D02*
X78993000Y-134851190D01*
X78754904Y-135327380D02*
X78754904Y-134327380D01*
X79135857Y-134327380D01*
X79231095Y-134375000D01*
X79278714Y-134422619D01*
X79326333Y-134517857D01*
X79326333Y-134660714D01*
X79278714Y-134755952D01*
X79231095Y-134803571D01*
X79135857Y-134851190D01*
X78754904Y-134851190D01*
X80183476Y-134660714D02*
X80183476Y-135327380D01*
X79945380Y-134279761D02*
X79707285Y-134994047D01*
X80326333Y-134994047D01*
X78437333Y-149042380D02*
X78104000Y-148566190D01*
X77865904Y-149042380D02*
X77865904Y-148042380D01*
X78246857Y-148042380D01*
X78342095Y-148090000D01*
X78389714Y-148137619D01*
X78437333Y-148232857D01*
X78437333Y-148375714D01*
X78389714Y-148470952D01*
X78342095Y-148518571D01*
X78246857Y-148566190D01*
X77865904Y-148566190D01*
X79342095Y-148042380D02*
X78865904Y-148042380D01*
X78818285Y-148518571D01*
X78865904Y-148470952D01*
X78961142Y-148423333D01*
X79199238Y-148423333D01*
X79294476Y-148470952D01*
X79342095Y-148518571D01*
X79389714Y-148613809D01*
X79389714Y-148851904D01*
X79342095Y-148947142D01*
X79294476Y-148994761D01*
X79199238Y-149042380D01*
X78961142Y-149042380D01*
X78865904Y-148994761D01*
X78818285Y-148947142D01*
X81240333Y-145359380D02*
X80907000Y-144883190D01*
X80668904Y-145359380D02*
X80668904Y-144359380D01*
X81049857Y-144359380D01*
X81145095Y-144407000D01*
X81192714Y-144454619D01*
X81240333Y-144549857D01*
X81240333Y-144692714D01*
X81192714Y-144787952D01*
X81145095Y-144835571D01*
X81049857Y-144883190D01*
X80668904Y-144883190D01*
X82097476Y-144359380D02*
X81907000Y-144359380D01*
X81811761Y-144407000D01*
X81764142Y-144454619D01*
X81668904Y-144597476D01*
X81621285Y-144787952D01*
X81621285Y-145168904D01*
X81668904Y-145264142D01*
X81716523Y-145311761D01*
X81811761Y-145359380D01*
X82002238Y-145359380D01*
X82097476Y-145311761D01*
X82145095Y-145264142D01*
X82192714Y-145168904D01*
X82192714Y-144930809D01*
X82145095Y-144835571D01*
X82097476Y-144787952D01*
X82002238Y-144740333D01*
X81811761Y-144740333D01*
X81716523Y-144787952D01*
X81668904Y-144835571D01*
X81621285Y-144930809D01*
X83154333Y-147518380D02*
X82821000Y-147042190D01*
X82582904Y-147518380D02*
X82582904Y-146518380D01*
X82963857Y-146518380D01*
X83059095Y-146566000D01*
X83106714Y-146613619D01*
X83154333Y-146708857D01*
X83154333Y-146851714D01*
X83106714Y-146946952D01*
X83059095Y-146994571D01*
X82963857Y-147042190D01*
X82582904Y-147042190D01*
X83487666Y-146518380D02*
X84154333Y-146518380D01*
X83725761Y-147518380D01*
X66746380Y-137580666D02*
X66270190Y-137914000D01*
X66746380Y-138152095D02*
X65746380Y-138152095D01*
X65746380Y-137771142D01*
X65794000Y-137675904D01*
X65841619Y-137628285D01*
X65936857Y-137580666D01*
X66079714Y-137580666D01*
X66174952Y-137628285D01*
X66222571Y-137675904D01*
X66270190Y-137771142D01*
X66270190Y-138152095D01*
X66174952Y-137009238D02*
X66127333Y-137104476D01*
X66079714Y-137152095D01*
X65984476Y-137199714D01*
X65936857Y-137199714D01*
X65841619Y-137152095D01*
X65794000Y-137104476D01*
X65746380Y-137009238D01*
X65746380Y-136818761D01*
X65794000Y-136723523D01*
X65841619Y-136675904D01*
X65936857Y-136628285D01*
X65984476Y-136628285D01*
X66079714Y-136675904D01*
X66127333Y-136723523D01*
X66174952Y-136818761D01*
X66174952Y-137009238D01*
X66222571Y-137104476D01*
X66270190Y-137152095D01*
X66365428Y-137199714D01*
X66555904Y-137199714D01*
X66651142Y-137152095D01*
X66698761Y-137104476D01*
X66746380Y-137009238D01*
X66746380Y-136818761D01*
X66698761Y-136723523D01*
X66651142Y-136675904D01*
X66555904Y-136628285D01*
X66365428Y-136628285D01*
X66270190Y-136675904D01*
X66222571Y-136723523D01*
X66174952Y-136818761D01*
X76414333Y-135326380D02*
X76081000Y-134850190D01*
X75842904Y-135326380D02*
X75842904Y-134326380D01*
X76223857Y-134326380D01*
X76319095Y-134374000D01*
X76366714Y-134421619D01*
X76414333Y-134516857D01*
X76414333Y-134659714D01*
X76366714Y-134754952D01*
X76319095Y-134802571D01*
X76223857Y-134850190D01*
X75842904Y-134850190D01*
X76890523Y-135326380D02*
X77081000Y-135326380D01*
X77176238Y-135278761D01*
X77223857Y-135231142D01*
X77319095Y-135088285D01*
X77366714Y-134897809D01*
X77366714Y-134516857D01*
X77319095Y-134421619D01*
X77271476Y-134374000D01*
X77176238Y-134326380D01*
X76985761Y-134326380D01*
X76890523Y-134374000D01*
X76842904Y-134421619D01*
X76795285Y-134516857D01*
X76795285Y-134754952D01*
X76842904Y-134850190D01*
X76890523Y-134897809D01*
X76985761Y-134945428D01*
X77176238Y-134945428D01*
X77271476Y-134897809D01*
X77319095Y-134850190D01*
X77366714Y-134754952D01*
X68191142Y-122499380D02*
X67857809Y-122023190D01*
X67619714Y-122499380D02*
X67619714Y-121499380D01*
X68000666Y-121499380D01*
X68095904Y-121547000D01*
X68143523Y-121594619D01*
X68191142Y-121689857D01*
X68191142Y-121832714D01*
X68143523Y-121927952D01*
X68095904Y-121975571D01*
X68000666Y-122023190D01*
X67619714Y-122023190D01*
X68572095Y-121594619D02*
X68619714Y-121547000D01*
X68714952Y-121499380D01*
X68953047Y-121499380D01*
X69048285Y-121547000D01*
X69095904Y-121594619D01*
X69143523Y-121689857D01*
X69143523Y-121785095D01*
X69095904Y-121927952D01*
X68524476Y-122499380D01*
X69143523Y-122499380D01*
X69762571Y-121499380D02*
X69857809Y-121499380D01*
X69953047Y-121547000D01*
X70000666Y-121594619D01*
X70048285Y-121689857D01*
X70095904Y-121880333D01*
X70095904Y-122118428D01*
X70048285Y-122308904D01*
X70000666Y-122404142D01*
X69953047Y-122451761D01*
X69857809Y-122499380D01*
X69762571Y-122499380D01*
X69667333Y-122451761D01*
X69619714Y-122404142D01*
X69572095Y-122308904D01*
X69524476Y-122118428D01*
X69524476Y-121880333D01*
X69572095Y-121689857D01*
X69619714Y-121594619D01*
X69667333Y-121547000D01*
X69762571Y-121499380D01*
%LPC*%
D13*
X88110000Y-127300000D03*
X88110000Y-129200000D03*
X85910000Y-129200000D03*
X85910000Y-128250000D03*
X85910000Y-127300000D03*
D14*
G36*
X70769005Y-125337704D02*
G01*
X70793273Y-125341304D01*
X70817072Y-125347265D01*
X70840171Y-125355530D01*
X70862350Y-125366020D01*
X70883393Y-125378632D01*
X70903099Y-125393247D01*
X70921277Y-125409723D01*
X70937753Y-125427901D01*
X70952368Y-125447607D01*
X70964980Y-125468650D01*
X70975470Y-125490829D01*
X70983735Y-125513928D01*
X70989696Y-125537727D01*
X70993296Y-125561995D01*
X70994500Y-125586499D01*
X70994500Y-126236501D01*
X70993296Y-126261005D01*
X70989696Y-126285273D01*
X70983735Y-126309072D01*
X70975470Y-126332171D01*
X70964980Y-126354350D01*
X70952368Y-126375393D01*
X70937753Y-126395099D01*
X70921277Y-126413277D01*
X70903099Y-126429753D01*
X70883393Y-126444368D01*
X70862350Y-126456980D01*
X70840171Y-126467470D01*
X70817072Y-126475735D01*
X70793273Y-126481696D01*
X70769005Y-126485296D01*
X70744501Y-126486500D01*
X69844499Y-126486500D01*
X69819995Y-126485296D01*
X69795727Y-126481696D01*
X69771928Y-126475735D01*
X69748829Y-126467470D01*
X69726650Y-126456980D01*
X69705607Y-126444368D01*
X69685901Y-126429753D01*
X69667723Y-126413277D01*
X69651247Y-126395099D01*
X69636632Y-126375393D01*
X69624020Y-126354350D01*
X69613530Y-126332171D01*
X69605265Y-126309072D01*
X69599304Y-126285273D01*
X69595704Y-126261005D01*
X69594500Y-126236501D01*
X69594500Y-125586499D01*
X69595704Y-125561995D01*
X69599304Y-125537727D01*
X69605265Y-125513928D01*
X69613530Y-125490829D01*
X69624020Y-125468650D01*
X69636632Y-125447607D01*
X69651247Y-125427901D01*
X69667723Y-125409723D01*
X69685901Y-125393247D01*
X69705607Y-125378632D01*
X69726650Y-125366020D01*
X69748829Y-125355530D01*
X69771928Y-125347265D01*
X69795727Y-125341304D01*
X69819995Y-125337704D01*
X69844499Y-125336500D01*
X70744501Y-125336500D01*
X70769005Y-125337704D01*
X70769005Y-125337704D01*
G37*
D15*
X70294500Y-125911500D03*
D14*
G36*
X70769005Y-127387704D02*
G01*
X70793273Y-127391304D01*
X70817072Y-127397265D01*
X70840171Y-127405530D01*
X70862350Y-127416020D01*
X70883393Y-127428632D01*
X70903099Y-127443247D01*
X70921277Y-127459723D01*
X70937753Y-127477901D01*
X70952368Y-127497607D01*
X70964980Y-127518650D01*
X70975470Y-127540829D01*
X70983735Y-127563928D01*
X70989696Y-127587727D01*
X70993296Y-127611995D01*
X70994500Y-127636499D01*
X70994500Y-128286501D01*
X70993296Y-128311005D01*
X70989696Y-128335273D01*
X70983735Y-128359072D01*
X70975470Y-128382171D01*
X70964980Y-128404350D01*
X70952368Y-128425393D01*
X70937753Y-128445099D01*
X70921277Y-128463277D01*
X70903099Y-128479753D01*
X70883393Y-128494368D01*
X70862350Y-128506980D01*
X70840171Y-128517470D01*
X70817072Y-128525735D01*
X70793273Y-128531696D01*
X70769005Y-128535296D01*
X70744501Y-128536500D01*
X69844499Y-128536500D01*
X69819995Y-128535296D01*
X69795727Y-128531696D01*
X69771928Y-128525735D01*
X69748829Y-128517470D01*
X69726650Y-128506980D01*
X69705607Y-128494368D01*
X69685901Y-128479753D01*
X69667723Y-128463277D01*
X69651247Y-128445099D01*
X69636632Y-128425393D01*
X69624020Y-128404350D01*
X69613530Y-128382171D01*
X69605265Y-128359072D01*
X69599304Y-128335273D01*
X69595704Y-128311005D01*
X69594500Y-128286501D01*
X69594500Y-127636499D01*
X69595704Y-127611995D01*
X69599304Y-127587727D01*
X69605265Y-127563928D01*
X69613530Y-127540829D01*
X69624020Y-127518650D01*
X69636632Y-127497607D01*
X69651247Y-127477901D01*
X69667723Y-127459723D01*
X69685901Y-127443247D01*
X69705607Y-127428632D01*
X69726650Y-127416020D01*
X69748829Y-127405530D01*
X69771928Y-127397265D01*
X69795727Y-127391304D01*
X69819995Y-127387704D01*
X69844499Y-127386500D01*
X70744501Y-127386500D01*
X70769005Y-127387704D01*
X70769005Y-127387704D01*
G37*
D15*
X70294500Y-127961500D03*
D14*
G36*
X71594505Y-138627204D02*
G01*
X71618773Y-138630804D01*
X71642572Y-138636765D01*
X71665671Y-138645030D01*
X71687850Y-138655520D01*
X71708893Y-138668132D01*
X71728599Y-138682747D01*
X71746777Y-138699223D01*
X71763253Y-138717401D01*
X71777868Y-138737107D01*
X71790480Y-138758150D01*
X71800970Y-138780329D01*
X71809235Y-138803428D01*
X71815196Y-138827227D01*
X71818796Y-138851495D01*
X71820000Y-138875999D01*
X71820000Y-139526001D01*
X71818796Y-139550505D01*
X71815196Y-139574773D01*
X71809235Y-139598572D01*
X71800970Y-139621671D01*
X71790480Y-139643850D01*
X71777868Y-139664893D01*
X71763253Y-139684599D01*
X71746777Y-139702777D01*
X71728599Y-139719253D01*
X71708893Y-139733868D01*
X71687850Y-139746480D01*
X71665671Y-139756970D01*
X71642572Y-139765235D01*
X71618773Y-139771196D01*
X71594505Y-139774796D01*
X71570001Y-139776000D01*
X70669999Y-139776000D01*
X70645495Y-139774796D01*
X70621227Y-139771196D01*
X70597428Y-139765235D01*
X70574329Y-139756970D01*
X70552150Y-139746480D01*
X70531107Y-139733868D01*
X70511401Y-139719253D01*
X70493223Y-139702777D01*
X70476747Y-139684599D01*
X70462132Y-139664893D01*
X70449520Y-139643850D01*
X70439030Y-139621671D01*
X70430765Y-139598572D01*
X70424804Y-139574773D01*
X70421204Y-139550505D01*
X70420000Y-139526001D01*
X70420000Y-138875999D01*
X70421204Y-138851495D01*
X70424804Y-138827227D01*
X70430765Y-138803428D01*
X70439030Y-138780329D01*
X70449520Y-138758150D01*
X70462132Y-138737107D01*
X70476747Y-138717401D01*
X70493223Y-138699223D01*
X70511401Y-138682747D01*
X70531107Y-138668132D01*
X70552150Y-138655520D01*
X70574329Y-138645030D01*
X70597428Y-138636765D01*
X70621227Y-138630804D01*
X70645495Y-138627204D01*
X70669999Y-138626000D01*
X71570001Y-138626000D01*
X71594505Y-138627204D01*
X71594505Y-138627204D01*
G37*
D15*
X71120000Y-139201000D03*
D14*
G36*
X71594505Y-136577204D02*
G01*
X71618773Y-136580804D01*
X71642572Y-136586765D01*
X71665671Y-136595030D01*
X71687850Y-136605520D01*
X71708893Y-136618132D01*
X71728599Y-136632747D01*
X71746777Y-136649223D01*
X71763253Y-136667401D01*
X71777868Y-136687107D01*
X71790480Y-136708150D01*
X71800970Y-136730329D01*
X71809235Y-136753428D01*
X71815196Y-136777227D01*
X71818796Y-136801495D01*
X71820000Y-136825999D01*
X71820000Y-137476001D01*
X71818796Y-137500505D01*
X71815196Y-137524773D01*
X71809235Y-137548572D01*
X71800970Y-137571671D01*
X71790480Y-137593850D01*
X71777868Y-137614893D01*
X71763253Y-137634599D01*
X71746777Y-137652777D01*
X71728599Y-137669253D01*
X71708893Y-137683868D01*
X71687850Y-137696480D01*
X71665671Y-137706970D01*
X71642572Y-137715235D01*
X71618773Y-137721196D01*
X71594505Y-137724796D01*
X71570001Y-137726000D01*
X70669999Y-137726000D01*
X70645495Y-137724796D01*
X70621227Y-137721196D01*
X70597428Y-137715235D01*
X70574329Y-137706970D01*
X70552150Y-137696480D01*
X70531107Y-137683868D01*
X70511401Y-137669253D01*
X70493223Y-137652777D01*
X70476747Y-137634599D01*
X70462132Y-137614893D01*
X70449520Y-137593850D01*
X70439030Y-137571671D01*
X70430765Y-137548572D01*
X70424804Y-137524773D01*
X70421204Y-137500505D01*
X70420000Y-137476001D01*
X70420000Y-136825999D01*
X70421204Y-136801495D01*
X70424804Y-136777227D01*
X70430765Y-136753428D01*
X70439030Y-136730329D01*
X70449520Y-136708150D01*
X70462132Y-136687107D01*
X70476747Y-136667401D01*
X70493223Y-136649223D01*
X70511401Y-136632747D01*
X70531107Y-136618132D01*
X70552150Y-136605520D01*
X70574329Y-136595030D01*
X70597428Y-136586765D01*
X70621227Y-136580804D01*
X70645495Y-136577204D01*
X70669999Y-136576000D01*
X71570001Y-136576000D01*
X71594505Y-136577204D01*
X71594505Y-136577204D01*
G37*
D15*
X71120000Y-137151000D03*
D14*
G36*
X81310005Y-126535204D02*
G01*
X81334273Y-126538804D01*
X81358072Y-126544765D01*
X81381171Y-126553030D01*
X81403350Y-126563520D01*
X81424393Y-126576132D01*
X81444099Y-126590747D01*
X81462277Y-126607223D01*
X81478753Y-126625401D01*
X81493368Y-126645107D01*
X81505980Y-126666150D01*
X81516470Y-126688329D01*
X81524735Y-126711428D01*
X81530696Y-126735227D01*
X81534296Y-126759495D01*
X81535500Y-126783999D01*
X81535500Y-127434001D01*
X81534296Y-127458505D01*
X81530696Y-127482773D01*
X81524735Y-127506572D01*
X81516470Y-127529671D01*
X81505980Y-127551850D01*
X81493368Y-127572893D01*
X81478753Y-127592599D01*
X81462277Y-127610777D01*
X81444099Y-127627253D01*
X81424393Y-127641868D01*
X81403350Y-127654480D01*
X81381171Y-127664970D01*
X81358072Y-127673235D01*
X81334273Y-127679196D01*
X81310005Y-127682796D01*
X81285501Y-127684000D01*
X80385499Y-127684000D01*
X80360995Y-127682796D01*
X80336727Y-127679196D01*
X80312928Y-127673235D01*
X80289829Y-127664970D01*
X80267650Y-127654480D01*
X80246607Y-127641868D01*
X80226901Y-127627253D01*
X80208723Y-127610777D01*
X80192247Y-127592599D01*
X80177632Y-127572893D01*
X80165020Y-127551850D01*
X80154530Y-127529671D01*
X80146265Y-127506572D01*
X80140304Y-127482773D01*
X80136704Y-127458505D01*
X80135500Y-127434001D01*
X80135500Y-126783999D01*
X80136704Y-126759495D01*
X80140304Y-126735227D01*
X80146265Y-126711428D01*
X80154530Y-126688329D01*
X80165020Y-126666150D01*
X80177632Y-126645107D01*
X80192247Y-126625401D01*
X80208723Y-126607223D01*
X80226901Y-126590747D01*
X80246607Y-126576132D01*
X80267650Y-126563520D01*
X80289829Y-126553030D01*
X80312928Y-126544765D01*
X80336727Y-126538804D01*
X80360995Y-126535204D01*
X80385499Y-126534000D01*
X81285501Y-126534000D01*
X81310005Y-126535204D01*
X81310005Y-126535204D01*
G37*
D15*
X80835500Y-127109000D03*
D14*
G36*
X81310005Y-128585204D02*
G01*
X81334273Y-128588804D01*
X81358072Y-128594765D01*
X81381171Y-128603030D01*
X81403350Y-128613520D01*
X81424393Y-128626132D01*
X81444099Y-128640747D01*
X81462277Y-128657223D01*
X81478753Y-128675401D01*
X81493368Y-128695107D01*
X81505980Y-128716150D01*
X81516470Y-128738329D01*
X81524735Y-128761428D01*
X81530696Y-128785227D01*
X81534296Y-128809495D01*
X81535500Y-128833999D01*
X81535500Y-129484001D01*
X81534296Y-129508505D01*
X81530696Y-129532773D01*
X81524735Y-129556572D01*
X81516470Y-129579671D01*
X81505980Y-129601850D01*
X81493368Y-129622893D01*
X81478753Y-129642599D01*
X81462277Y-129660777D01*
X81444099Y-129677253D01*
X81424393Y-129691868D01*
X81403350Y-129704480D01*
X81381171Y-129714970D01*
X81358072Y-129723235D01*
X81334273Y-129729196D01*
X81310005Y-129732796D01*
X81285501Y-129734000D01*
X80385499Y-129734000D01*
X80360995Y-129732796D01*
X80336727Y-129729196D01*
X80312928Y-129723235D01*
X80289829Y-129714970D01*
X80267650Y-129704480D01*
X80246607Y-129691868D01*
X80226901Y-129677253D01*
X80208723Y-129660777D01*
X80192247Y-129642599D01*
X80177632Y-129622893D01*
X80165020Y-129601850D01*
X80154530Y-129579671D01*
X80146265Y-129556572D01*
X80140304Y-129532773D01*
X80136704Y-129508505D01*
X80135500Y-129484001D01*
X80135500Y-128833999D01*
X80136704Y-128809495D01*
X80140304Y-128785227D01*
X80146265Y-128761428D01*
X80154530Y-128738329D01*
X80165020Y-128716150D01*
X80177632Y-128695107D01*
X80192247Y-128675401D01*
X80208723Y-128657223D01*
X80226901Y-128640747D01*
X80246607Y-128626132D01*
X80267650Y-128613520D01*
X80289829Y-128603030D01*
X80312928Y-128594765D01*
X80336727Y-128588804D01*
X80360995Y-128585204D01*
X80385499Y-128584000D01*
X81285501Y-128584000D01*
X81310005Y-128585204D01*
X81310005Y-128585204D01*
G37*
D15*
X80835500Y-129159000D03*
D14*
G36*
X87734505Y-141350704D02*
G01*
X87758773Y-141354304D01*
X87782572Y-141360265D01*
X87805671Y-141368530D01*
X87827850Y-141379020D01*
X87848893Y-141391632D01*
X87868599Y-141406247D01*
X87886777Y-141422723D01*
X87903253Y-141440901D01*
X87917868Y-141460607D01*
X87930480Y-141481650D01*
X87940970Y-141503829D01*
X87949235Y-141526928D01*
X87955196Y-141550727D01*
X87958796Y-141574995D01*
X87960000Y-141599499D01*
X87960000Y-142499501D01*
X87958796Y-142524005D01*
X87955196Y-142548273D01*
X87949235Y-142572072D01*
X87940970Y-142595171D01*
X87930480Y-142617350D01*
X87917868Y-142638393D01*
X87903253Y-142658099D01*
X87886777Y-142676277D01*
X87868599Y-142692753D01*
X87848893Y-142707368D01*
X87827850Y-142719980D01*
X87805671Y-142730470D01*
X87782572Y-142738735D01*
X87758773Y-142744696D01*
X87734505Y-142748296D01*
X87710001Y-142749500D01*
X87059999Y-142749500D01*
X87035495Y-142748296D01*
X87011227Y-142744696D01*
X86987428Y-142738735D01*
X86964329Y-142730470D01*
X86942150Y-142719980D01*
X86921107Y-142707368D01*
X86901401Y-142692753D01*
X86883223Y-142676277D01*
X86866747Y-142658099D01*
X86852132Y-142638393D01*
X86839520Y-142617350D01*
X86829030Y-142595171D01*
X86820765Y-142572072D01*
X86814804Y-142548273D01*
X86811204Y-142524005D01*
X86810000Y-142499501D01*
X86810000Y-141599499D01*
X86811204Y-141574995D01*
X86814804Y-141550727D01*
X86820765Y-141526928D01*
X86829030Y-141503829D01*
X86839520Y-141481650D01*
X86852132Y-141460607D01*
X86866747Y-141440901D01*
X86883223Y-141422723D01*
X86901401Y-141406247D01*
X86921107Y-141391632D01*
X86942150Y-141379020D01*
X86964329Y-141368530D01*
X86987428Y-141360265D01*
X87011227Y-141354304D01*
X87035495Y-141350704D01*
X87059999Y-141349500D01*
X87710001Y-141349500D01*
X87734505Y-141350704D01*
X87734505Y-141350704D01*
G37*
D15*
X87385000Y-142049500D03*
D14*
G36*
X85684505Y-141350704D02*
G01*
X85708773Y-141354304D01*
X85732572Y-141360265D01*
X85755671Y-141368530D01*
X85777850Y-141379020D01*
X85798893Y-141391632D01*
X85818599Y-141406247D01*
X85836777Y-141422723D01*
X85853253Y-141440901D01*
X85867868Y-141460607D01*
X85880480Y-141481650D01*
X85890970Y-141503829D01*
X85899235Y-141526928D01*
X85905196Y-141550727D01*
X85908796Y-141574995D01*
X85910000Y-141599499D01*
X85910000Y-142499501D01*
X85908796Y-142524005D01*
X85905196Y-142548273D01*
X85899235Y-142572072D01*
X85890970Y-142595171D01*
X85880480Y-142617350D01*
X85867868Y-142638393D01*
X85853253Y-142658099D01*
X85836777Y-142676277D01*
X85818599Y-142692753D01*
X85798893Y-142707368D01*
X85777850Y-142719980D01*
X85755671Y-142730470D01*
X85732572Y-142738735D01*
X85708773Y-142744696D01*
X85684505Y-142748296D01*
X85660001Y-142749500D01*
X85009999Y-142749500D01*
X84985495Y-142748296D01*
X84961227Y-142744696D01*
X84937428Y-142738735D01*
X84914329Y-142730470D01*
X84892150Y-142719980D01*
X84871107Y-142707368D01*
X84851401Y-142692753D01*
X84833223Y-142676277D01*
X84816747Y-142658099D01*
X84802132Y-142638393D01*
X84789520Y-142617350D01*
X84779030Y-142595171D01*
X84770765Y-142572072D01*
X84764804Y-142548273D01*
X84761204Y-142524005D01*
X84760000Y-142499501D01*
X84760000Y-141599499D01*
X84761204Y-141574995D01*
X84764804Y-141550727D01*
X84770765Y-141526928D01*
X84779030Y-141503829D01*
X84789520Y-141481650D01*
X84802132Y-141460607D01*
X84816747Y-141440901D01*
X84833223Y-141422723D01*
X84851401Y-141406247D01*
X84871107Y-141391632D01*
X84892150Y-141379020D01*
X84914329Y-141368530D01*
X84937428Y-141360265D01*
X84961227Y-141354304D01*
X84985495Y-141350704D01*
X85009999Y-141349500D01*
X85660001Y-141349500D01*
X85684505Y-141350704D01*
X85684505Y-141350704D01*
G37*
D15*
X85335000Y-142049500D03*
D14*
G36*
X77408304Y-112939404D02*
G01*
X77432573Y-112943004D01*
X77456371Y-112948965D01*
X77479471Y-112957230D01*
X77501649Y-112967720D01*
X77522693Y-112980333D01*
X77542398Y-112994947D01*
X77560577Y-113011423D01*
X77577053Y-113029602D01*
X77591667Y-113049307D01*
X77604280Y-113070351D01*
X77614770Y-113092529D01*
X77623035Y-113115629D01*
X77628996Y-113139427D01*
X77632596Y-113163696D01*
X77633800Y-113188200D01*
X77633800Y-114113200D01*
X77632596Y-114137704D01*
X77628996Y-114161973D01*
X77623035Y-114185771D01*
X77614770Y-114208871D01*
X77604280Y-114231049D01*
X77591667Y-114252093D01*
X77577053Y-114271798D01*
X77560577Y-114289977D01*
X77542398Y-114306453D01*
X77522693Y-114321067D01*
X77501649Y-114333680D01*
X77479471Y-114344170D01*
X77456371Y-114352435D01*
X77432573Y-114358396D01*
X77408304Y-114361996D01*
X77383800Y-114363200D01*
X76133800Y-114363200D01*
X76109296Y-114361996D01*
X76085027Y-114358396D01*
X76061229Y-114352435D01*
X76038129Y-114344170D01*
X76015951Y-114333680D01*
X75994907Y-114321067D01*
X75975202Y-114306453D01*
X75957023Y-114289977D01*
X75940547Y-114271798D01*
X75925933Y-114252093D01*
X75913320Y-114231049D01*
X75902830Y-114208871D01*
X75894565Y-114185771D01*
X75888604Y-114161973D01*
X75885004Y-114137704D01*
X75883800Y-114113200D01*
X75883800Y-113188200D01*
X75885004Y-113163696D01*
X75888604Y-113139427D01*
X75894565Y-113115629D01*
X75902830Y-113092529D01*
X75913320Y-113070351D01*
X75925933Y-113049307D01*
X75940547Y-113029602D01*
X75957023Y-113011423D01*
X75975202Y-112994947D01*
X75994907Y-112980333D01*
X76015951Y-112967720D01*
X76038129Y-112957230D01*
X76061229Y-112948965D01*
X76085027Y-112943004D01*
X76109296Y-112939404D01*
X76133800Y-112938200D01*
X77383800Y-112938200D01*
X77408304Y-112939404D01*
X77408304Y-112939404D01*
G37*
D16*
X76758800Y-113650700D03*
D14*
G36*
X77408304Y-115914404D02*
G01*
X77432573Y-115918004D01*
X77456371Y-115923965D01*
X77479471Y-115932230D01*
X77501649Y-115942720D01*
X77522693Y-115955333D01*
X77542398Y-115969947D01*
X77560577Y-115986423D01*
X77577053Y-116004602D01*
X77591667Y-116024307D01*
X77604280Y-116045351D01*
X77614770Y-116067529D01*
X77623035Y-116090629D01*
X77628996Y-116114427D01*
X77632596Y-116138696D01*
X77633800Y-116163200D01*
X77633800Y-117088200D01*
X77632596Y-117112704D01*
X77628996Y-117136973D01*
X77623035Y-117160771D01*
X77614770Y-117183871D01*
X77604280Y-117206049D01*
X77591667Y-117227093D01*
X77577053Y-117246798D01*
X77560577Y-117264977D01*
X77542398Y-117281453D01*
X77522693Y-117296067D01*
X77501649Y-117308680D01*
X77479471Y-117319170D01*
X77456371Y-117327435D01*
X77432573Y-117333396D01*
X77408304Y-117336996D01*
X77383800Y-117338200D01*
X76133800Y-117338200D01*
X76109296Y-117336996D01*
X76085027Y-117333396D01*
X76061229Y-117327435D01*
X76038129Y-117319170D01*
X76015951Y-117308680D01*
X75994907Y-117296067D01*
X75975202Y-117281453D01*
X75957023Y-117264977D01*
X75940547Y-117246798D01*
X75925933Y-117227093D01*
X75913320Y-117206049D01*
X75902830Y-117183871D01*
X75894565Y-117160771D01*
X75888604Y-117136973D01*
X75885004Y-117112704D01*
X75883800Y-117088200D01*
X75883800Y-116163200D01*
X75885004Y-116138696D01*
X75888604Y-116114427D01*
X75894565Y-116090629D01*
X75902830Y-116067529D01*
X75913320Y-116045351D01*
X75925933Y-116024307D01*
X75940547Y-116004602D01*
X75957023Y-115986423D01*
X75975202Y-115969947D01*
X75994907Y-115955333D01*
X76015951Y-115942720D01*
X76038129Y-115932230D01*
X76061229Y-115923965D01*
X76085027Y-115918004D01*
X76109296Y-115914404D01*
X76133800Y-115913200D01*
X77383800Y-115913200D01*
X77408304Y-115914404D01*
X77408304Y-115914404D01*
G37*
D16*
X76758800Y-116625700D03*
D14*
G36*
X74744105Y-112929804D02*
G01*
X74768373Y-112933404D01*
X74792172Y-112939365D01*
X74815271Y-112947630D01*
X74837450Y-112958120D01*
X74858493Y-112970732D01*
X74878199Y-112985347D01*
X74896377Y-113001823D01*
X74912853Y-113020001D01*
X74927468Y-113039707D01*
X74940080Y-113060750D01*
X74950570Y-113082929D01*
X74958835Y-113106028D01*
X74964796Y-113129827D01*
X74968396Y-113154095D01*
X74969600Y-113178599D01*
X74969600Y-113828601D01*
X74968396Y-113853105D01*
X74964796Y-113877373D01*
X74958835Y-113901172D01*
X74950570Y-113924271D01*
X74940080Y-113946450D01*
X74927468Y-113967493D01*
X74912853Y-113987199D01*
X74896377Y-114005377D01*
X74878199Y-114021853D01*
X74858493Y-114036468D01*
X74837450Y-114049080D01*
X74815271Y-114059570D01*
X74792172Y-114067835D01*
X74768373Y-114073796D01*
X74744105Y-114077396D01*
X74719601Y-114078600D01*
X73819599Y-114078600D01*
X73795095Y-114077396D01*
X73770827Y-114073796D01*
X73747028Y-114067835D01*
X73723929Y-114059570D01*
X73701750Y-114049080D01*
X73680707Y-114036468D01*
X73661001Y-114021853D01*
X73642823Y-114005377D01*
X73626347Y-113987199D01*
X73611732Y-113967493D01*
X73599120Y-113946450D01*
X73588630Y-113924271D01*
X73580365Y-113901172D01*
X73574404Y-113877373D01*
X73570804Y-113853105D01*
X73569600Y-113828601D01*
X73569600Y-113178599D01*
X73570804Y-113154095D01*
X73574404Y-113129827D01*
X73580365Y-113106028D01*
X73588630Y-113082929D01*
X73599120Y-113060750D01*
X73611732Y-113039707D01*
X73626347Y-113020001D01*
X73642823Y-113001823D01*
X73661001Y-112985347D01*
X73680707Y-112970732D01*
X73701750Y-112958120D01*
X73723929Y-112947630D01*
X73747028Y-112939365D01*
X73770827Y-112933404D01*
X73795095Y-112929804D01*
X73819599Y-112928600D01*
X74719601Y-112928600D01*
X74744105Y-112929804D01*
X74744105Y-112929804D01*
G37*
D15*
X74269600Y-113503600D03*
D14*
G36*
X74744105Y-114979804D02*
G01*
X74768373Y-114983404D01*
X74792172Y-114989365D01*
X74815271Y-114997630D01*
X74837450Y-115008120D01*
X74858493Y-115020732D01*
X74878199Y-115035347D01*
X74896377Y-115051823D01*
X74912853Y-115070001D01*
X74927468Y-115089707D01*
X74940080Y-115110750D01*
X74950570Y-115132929D01*
X74958835Y-115156028D01*
X74964796Y-115179827D01*
X74968396Y-115204095D01*
X74969600Y-115228599D01*
X74969600Y-115878601D01*
X74968396Y-115903105D01*
X74964796Y-115927373D01*
X74958835Y-115951172D01*
X74950570Y-115974271D01*
X74940080Y-115996450D01*
X74927468Y-116017493D01*
X74912853Y-116037199D01*
X74896377Y-116055377D01*
X74878199Y-116071853D01*
X74858493Y-116086468D01*
X74837450Y-116099080D01*
X74815271Y-116109570D01*
X74792172Y-116117835D01*
X74768373Y-116123796D01*
X74744105Y-116127396D01*
X74719601Y-116128600D01*
X73819599Y-116128600D01*
X73795095Y-116127396D01*
X73770827Y-116123796D01*
X73747028Y-116117835D01*
X73723929Y-116109570D01*
X73701750Y-116099080D01*
X73680707Y-116086468D01*
X73661001Y-116071853D01*
X73642823Y-116055377D01*
X73626347Y-116037199D01*
X73611732Y-116017493D01*
X73599120Y-115996450D01*
X73588630Y-115974271D01*
X73580365Y-115951172D01*
X73574404Y-115927373D01*
X73570804Y-115903105D01*
X73569600Y-115878601D01*
X73569600Y-115228599D01*
X73570804Y-115204095D01*
X73574404Y-115179827D01*
X73580365Y-115156028D01*
X73588630Y-115132929D01*
X73599120Y-115110750D01*
X73611732Y-115089707D01*
X73626347Y-115070001D01*
X73642823Y-115051823D01*
X73661001Y-115035347D01*
X73680707Y-115020732D01*
X73701750Y-115008120D01*
X73723929Y-114997630D01*
X73747028Y-114989365D01*
X73770827Y-114983404D01*
X73795095Y-114979804D01*
X73819599Y-114978600D01*
X74719601Y-114978600D01*
X74744105Y-114979804D01*
X74744105Y-114979804D01*
G37*
D15*
X74269600Y-115553600D03*
D14*
G36*
X77309505Y-120110604D02*
G01*
X77333773Y-120114204D01*
X77357572Y-120120165D01*
X77380671Y-120128430D01*
X77402850Y-120138920D01*
X77423893Y-120151532D01*
X77443599Y-120166147D01*
X77461777Y-120182623D01*
X77478253Y-120200801D01*
X77492868Y-120220507D01*
X77505480Y-120241550D01*
X77515970Y-120263729D01*
X77524235Y-120286828D01*
X77530196Y-120310627D01*
X77533796Y-120334895D01*
X77535000Y-120359399D01*
X77535000Y-121009401D01*
X77533796Y-121033905D01*
X77530196Y-121058173D01*
X77524235Y-121081972D01*
X77515970Y-121105071D01*
X77505480Y-121127250D01*
X77492868Y-121148293D01*
X77478253Y-121167999D01*
X77461777Y-121186177D01*
X77443599Y-121202653D01*
X77423893Y-121217268D01*
X77402850Y-121229880D01*
X77380671Y-121240370D01*
X77357572Y-121248635D01*
X77333773Y-121254596D01*
X77309505Y-121258196D01*
X77285001Y-121259400D01*
X76384999Y-121259400D01*
X76360495Y-121258196D01*
X76336227Y-121254596D01*
X76312428Y-121248635D01*
X76289329Y-121240370D01*
X76267150Y-121229880D01*
X76246107Y-121217268D01*
X76226401Y-121202653D01*
X76208223Y-121186177D01*
X76191747Y-121167999D01*
X76177132Y-121148293D01*
X76164520Y-121127250D01*
X76154030Y-121105071D01*
X76145765Y-121081972D01*
X76139804Y-121058173D01*
X76136204Y-121033905D01*
X76135000Y-121009401D01*
X76135000Y-120359399D01*
X76136204Y-120334895D01*
X76139804Y-120310627D01*
X76145765Y-120286828D01*
X76154030Y-120263729D01*
X76164520Y-120241550D01*
X76177132Y-120220507D01*
X76191747Y-120200801D01*
X76208223Y-120182623D01*
X76226401Y-120166147D01*
X76246107Y-120151532D01*
X76267150Y-120138920D01*
X76289329Y-120128430D01*
X76312428Y-120120165D01*
X76336227Y-120114204D01*
X76360495Y-120110604D01*
X76384999Y-120109400D01*
X77285001Y-120109400D01*
X77309505Y-120110604D01*
X77309505Y-120110604D01*
G37*
D15*
X76835000Y-120684400D03*
D14*
G36*
X77309505Y-118060604D02*
G01*
X77333773Y-118064204D01*
X77357572Y-118070165D01*
X77380671Y-118078430D01*
X77402850Y-118088920D01*
X77423893Y-118101532D01*
X77443599Y-118116147D01*
X77461777Y-118132623D01*
X77478253Y-118150801D01*
X77492868Y-118170507D01*
X77505480Y-118191550D01*
X77515970Y-118213729D01*
X77524235Y-118236828D01*
X77530196Y-118260627D01*
X77533796Y-118284895D01*
X77535000Y-118309399D01*
X77535000Y-118959401D01*
X77533796Y-118983905D01*
X77530196Y-119008173D01*
X77524235Y-119031972D01*
X77515970Y-119055071D01*
X77505480Y-119077250D01*
X77492868Y-119098293D01*
X77478253Y-119117999D01*
X77461777Y-119136177D01*
X77443599Y-119152653D01*
X77423893Y-119167268D01*
X77402850Y-119179880D01*
X77380671Y-119190370D01*
X77357572Y-119198635D01*
X77333773Y-119204596D01*
X77309505Y-119208196D01*
X77285001Y-119209400D01*
X76384999Y-119209400D01*
X76360495Y-119208196D01*
X76336227Y-119204596D01*
X76312428Y-119198635D01*
X76289329Y-119190370D01*
X76267150Y-119179880D01*
X76246107Y-119167268D01*
X76226401Y-119152653D01*
X76208223Y-119136177D01*
X76191747Y-119117999D01*
X76177132Y-119098293D01*
X76164520Y-119077250D01*
X76154030Y-119055071D01*
X76145765Y-119031972D01*
X76139804Y-119008173D01*
X76136204Y-118983905D01*
X76135000Y-118959401D01*
X76135000Y-118309399D01*
X76136204Y-118284895D01*
X76139804Y-118260627D01*
X76145765Y-118236828D01*
X76154030Y-118213729D01*
X76164520Y-118191550D01*
X76177132Y-118170507D01*
X76191747Y-118150801D01*
X76208223Y-118132623D01*
X76226401Y-118116147D01*
X76246107Y-118101532D01*
X76267150Y-118088920D01*
X76289329Y-118078430D01*
X76312428Y-118070165D01*
X76336227Y-118064204D01*
X76360495Y-118060604D01*
X76384999Y-118059400D01*
X77285001Y-118059400D01*
X77309505Y-118060604D01*
X77309505Y-118060604D01*
G37*
D15*
X76835000Y-118634400D03*
D14*
G36*
X74817504Y-116876404D02*
G01*
X74841773Y-116880004D01*
X74865571Y-116885965D01*
X74888671Y-116894230D01*
X74910849Y-116904720D01*
X74931893Y-116917333D01*
X74951598Y-116931947D01*
X74969777Y-116948423D01*
X74986253Y-116966602D01*
X75000867Y-116986307D01*
X75013480Y-117007351D01*
X75023970Y-117029529D01*
X75032235Y-117052629D01*
X75038196Y-117076427D01*
X75041796Y-117100696D01*
X75043000Y-117125200D01*
X75043000Y-118050200D01*
X75041796Y-118074704D01*
X75038196Y-118098973D01*
X75032235Y-118122771D01*
X75023970Y-118145871D01*
X75013480Y-118168049D01*
X75000867Y-118189093D01*
X74986253Y-118208798D01*
X74969777Y-118226977D01*
X74951598Y-118243453D01*
X74931893Y-118258067D01*
X74910849Y-118270680D01*
X74888671Y-118281170D01*
X74865571Y-118289435D01*
X74841773Y-118295396D01*
X74817504Y-118298996D01*
X74793000Y-118300200D01*
X73543000Y-118300200D01*
X73518496Y-118298996D01*
X73494227Y-118295396D01*
X73470429Y-118289435D01*
X73447329Y-118281170D01*
X73425151Y-118270680D01*
X73404107Y-118258067D01*
X73384402Y-118243453D01*
X73366223Y-118226977D01*
X73349747Y-118208798D01*
X73335133Y-118189093D01*
X73322520Y-118168049D01*
X73312030Y-118145871D01*
X73303765Y-118122771D01*
X73297804Y-118098973D01*
X73294204Y-118074704D01*
X73293000Y-118050200D01*
X73293000Y-117125200D01*
X73294204Y-117100696D01*
X73297804Y-117076427D01*
X73303765Y-117052629D01*
X73312030Y-117029529D01*
X73322520Y-117007351D01*
X73335133Y-116986307D01*
X73349747Y-116966602D01*
X73366223Y-116948423D01*
X73384402Y-116931947D01*
X73404107Y-116917333D01*
X73425151Y-116904720D01*
X73447329Y-116894230D01*
X73470429Y-116885965D01*
X73494227Y-116880004D01*
X73518496Y-116876404D01*
X73543000Y-116875200D01*
X74793000Y-116875200D01*
X74817504Y-116876404D01*
X74817504Y-116876404D01*
G37*
D16*
X74168000Y-117587700D03*
D14*
G36*
X74817504Y-119851404D02*
G01*
X74841773Y-119855004D01*
X74865571Y-119860965D01*
X74888671Y-119869230D01*
X74910849Y-119879720D01*
X74931893Y-119892333D01*
X74951598Y-119906947D01*
X74969777Y-119923423D01*
X74986253Y-119941602D01*
X75000867Y-119961307D01*
X75013480Y-119982351D01*
X75023970Y-120004529D01*
X75032235Y-120027629D01*
X75038196Y-120051427D01*
X75041796Y-120075696D01*
X75043000Y-120100200D01*
X75043000Y-121025200D01*
X75041796Y-121049704D01*
X75038196Y-121073973D01*
X75032235Y-121097771D01*
X75023970Y-121120871D01*
X75013480Y-121143049D01*
X75000867Y-121164093D01*
X74986253Y-121183798D01*
X74969777Y-121201977D01*
X74951598Y-121218453D01*
X74931893Y-121233067D01*
X74910849Y-121245680D01*
X74888671Y-121256170D01*
X74865571Y-121264435D01*
X74841773Y-121270396D01*
X74817504Y-121273996D01*
X74793000Y-121275200D01*
X73543000Y-121275200D01*
X73518496Y-121273996D01*
X73494227Y-121270396D01*
X73470429Y-121264435D01*
X73447329Y-121256170D01*
X73425151Y-121245680D01*
X73404107Y-121233067D01*
X73384402Y-121218453D01*
X73366223Y-121201977D01*
X73349747Y-121183798D01*
X73335133Y-121164093D01*
X73322520Y-121143049D01*
X73312030Y-121120871D01*
X73303765Y-121097771D01*
X73297804Y-121073973D01*
X73294204Y-121049704D01*
X73293000Y-121025200D01*
X73293000Y-120100200D01*
X73294204Y-120075696D01*
X73297804Y-120051427D01*
X73303765Y-120027629D01*
X73312030Y-120004529D01*
X73322520Y-119982351D01*
X73335133Y-119961307D01*
X73349747Y-119941602D01*
X73366223Y-119923423D01*
X73384402Y-119906947D01*
X73404107Y-119892333D01*
X73425151Y-119879720D01*
X73447329Y-119869230D01*
X73470429Y-119860965D01*
X73494227Y-119855004D01*
X73518496Y-119851404D01*
X73543000Y-119850200D01*
X74793000Y-119850200D01*
X74817504Y-119851404D01*
X74817504Y-119851404D01*
G37*
D16*
X74168000Y-120562700D03*
D14*
G36*
X87988505Y-135635704D02*
G01*
X88012773Y-135639304D01*
X88036572Y-135645265D01*
X88059671Y-135653530D01*
X88081850Y-135664020D01*
X88102893Y-135676632D01*
X88122599Y-135691247D01*
X88140777Y-135707723D01*
X88157253Y-135725901D01*
X88171868Y-135745607D01*
X88184480Y-135766650D01*
X88194970Y-135788829D01*
X88203235Y-135811928D01*
X88209196Y-135835727D01*
X88212796Y-135859995D01*
X88214000Y-135884499D01*
X88214000Y-136784501D01*
X88212796Y-136809005D01*
X88209196Y-136833273D01*
X88203235Y-136857072D01*
X88194970Y-136880171D01*
X88184480Y-136902350D01*
X88171868Y-136923393D01*
X88157253Y-136943099D01*
X88140777Y-136961277D01*
X88122599Y-136977753D01*
X88102893Y-136992368D01*
X88081850Y-137004980D01*
X88059671Y-137015470D01*
X88036572Y-137023735D01*
X88012773Y-137029696D01*
X87988505Y-137033296D01*
X87964001Y-137034500D01*
X87313999Y-137034500D01*
X87289495Y-137033296D01*
X87265227Y-137029696D01*
X87241428Y-137023735D01*
X87218329Y-137015470D01*
X87196150Y-137004980D01*
X87175107Y-136992368D01*
X87155401Y-136977753D01*
X87137223Y-136961277D01*
X87120747Y-136943099D01*
X87106132Y-136923393D01*
X87093520Y-136902350D01*
X87083030Y-136880171D01*
X87074765Y-136857072D01*
X87068804Y-136833273D01*
X87065204Y-136809005D01*
X87064000Y-136784501D01*
X87064000Y-135884499D01*
X87065204Y-135859995D01*
X87068804Y-135835727D01*
X87074765Y-135811928D01*
X87083030Y-135788829D01*
X87093520Y-135766650D01*
X87106132Y-135745607D01*
X87120747Y-135725901D01*
X87137223Y-135707723D01*
X87155401Y-135691247D01*
X87175107Y-135676632D01*
X87196150Y-135664020D01*
X87218329Y-135653530D01*
X87241428Y-135645265D01*
X87265227Y-135639304D01*
X87289495Y-135635704D01*
X87313999Y-135634500D01*
X87964001Y-135634500D01*
X87988505Y-135635704D01*
X87988505Y-135635704D01*
G37*
D15*
X87639000Y-136334500D03*
D14*
G36*
X85938505Y-135635704D02*
G01*
X85962773Y-135639304D01*
X85986572Y-135645265D01*
X86009671Y-135653530D01*
X86031850Y-135664020D01*
X86052893Y-135676632D01*
X86072599Y-135691247D01*
X86090777Y-135707723D01*
X86107253Y-135725901D01*
X86121868Y-135745607D01*
X86134480Y-135766650D01*
X86144970Y-135788829D01*
X86153235Y-135811928D01*
X86159196Y-135835727D01*
X86162796Y-135859995D01*
X86164000Y-135884499D01*
X86164000Y-136784501D01*
X86162796Y-136809005D01*
X86159196Y-136833273D01*
X86153235Y-136857072D01*
X86144970Y-136880171D01*
X86134480Y-136902350D01*
X86121868Y-136923393D01*
X86107253Y-136943099D01*
X86090777Y-136961277D01*
X86072599Y-136977753D01*
X86052893Y-136992368D01*
X86031850Y-137004980D01*
X86009671Y-137015470D01*
X85986572Y-137023735D01*
X85962773Y-137029696D01*
X85938505Y-137033296D01*
X85914001Y-137034500D01*
X85263999Y-137034500D01*
X85239495Y-137033296D01*
X85215227Y-137029696D01*
X85191428Y-137023735D01*
X85168329Y-137015470D01*
X85146150Y-137004980D01*
X85125107Y-136992368D01*
X85105401Y-136977753D01*
X85087223Y-136961277D01*
X85070747Y-136943099D01*
X85056132Y-136923393D01*
X85043520Y-136902350D01*
X85033030Y-136880171D01*
X85024765Y-136857072D01*
X85018804Y-136833273D01*
X85015204Y-136809005D01*
X85014000Y-136784501D01*
X85014000Y-135884499D01*
X85015204Y-135859995D01*
X85018804Y-135835727D01*
X85024765Y-135811928D01*
X85033030Y-135788829D01*
X85043520Y-135766650D01*
X85056132Y-135745607D01*
X85070747Y-135725901D01*
X85087223Y-135707723D01*
X85105401Y-135691247D01*
X85125107Y-135676632D01*
X85146150Y-135664020D01*
X85168329Y-135653530D01*
X85191428Y-135645265D01*
X85215227Y-135639304D01*
X85239495Y-135635704D01*
X85263999Y-135634500D01*
X85914001Y-135634500D01*
X85938505Y-135635704D01*
X85938505Y-135635704D01*
G37*
D15*
X85589000Y-136334500D03*
D14*
G36*
X90327005Y-126671204D02*
G01*
X90351273Y-126674804D01*
X90375072Y-126680765D01*
X90398171Y-126689030D01*
X90420350Y-126699520D01*
X90441393Y-126712132D01*
X90461099Y-126726747D01*
X90479277Y-126743223D01*
X90495753Y-126761401D01*
X90510368Y-126781107D01*
X90522980Y-126802150D01*
X90533470Y-126824329D01*
X90541735Y-126847428D01*
X90547696Y-126871227D01*
X90551296Y-126895495D01*
X90552500Y-126919999D01*
X90552500Y-127570001D01*
X90551296Y-127594505D01*
X90547696Y-127618773D01*
X90541735Y-127642572D01*
X90533470Y-127665671D01*
X90522980Y-127687850D01*
X90510368Y-127708893D01*
X90495753Y-127728599D01*
X90479277Y-127746777D01*
X90461099Y-127763253D01*
X90441393Y-127777868D01*
X90420350Y-127790480D01*
X90398171Y-127800970D01*
X90375072Y-127809235D01*
X90351273Y-127815196D01*
X90327005Y-127818796D01*
X90302501Y-127820000D01*
X89402499Y-127820000D01*
X89377995Y-127818796D01*
X89353727Y-127815196D01*
X89329928Y-127809235D01*
X89306829Y-127800970D01*
X89284650Y-127790480D01*
X89263607Y-127777868D01*
X89243901Y-127763253D01*
X89225723Y-127746777D01*
X89209247Y-127728599D01*
X89194632Y-127708893D01*
X89182020Y-127687850D01*
X89171530Y-127665671D01*
X89163265Y-127642572D01*
X89157304Y-127618773D01*
X89153704Y-127594505D01*
X89152500Y-127570001D01*
X89152500Y-126919999D01*
X89153704Y-126895495D01*
X89157304Y-126871227D01*
X89163265Y-126847428D01*
X89171530Y-126824329D01*
X89182020Y-126802150D01*
X89194632Y-126781107D01*
X89209247Y-126761401D01*
X89225723Y-126743223D01*
X89243901Y-126726747D01*
X89263607Y-126712132D01*
X89284650Y-126699520D01*
X89306829Y-126689030D01*
X89329928Y-126680765D01*
X89353727Y-126674804D01*
X89377995Y-126671204D01*
X89402499Y-126670000D01*
X90302501Y-126670000D01*
X90327005Y-126671204D01*
X90327005Y-126671204D01*
G37*
D15*
X89852500Y-127245000D03*
D14*
G36*
X90327005Y-128721204D02*
G01*
X90351273Y-128724804D01*
X90375072Y-128730765D01*
X90398171Y-128739030D01*
X90420350Y-128749520D01*
X90441393Y-128762132D01*
X90461099Y-128776747D01*
X90479277Y-128793223D01*
X90495753Y-128811401D01*
X90510368Y-128831107D01*
X90522980Y-128852150D01*
X90533470Y-128874329D01*
X90541735Y-128897428D01*
X90547696Y-128921227D01*
X90551296Y-128945495D01*
X90552500Y-128969999D01*
X90552500Y-129620001D01*
X90551296Y-129644505D01*
X90547696Y-129668773D01*
X90541735Y-129692572D01*
X90533470Y-129715671D01*
X90522980Y-129737850D01*
X90510368Y-129758893D01*
X90495753Y-129778599D01*
X90479277Y-129796777D01*
X90461099Y-129813253D01*
X90441393Y-129827868D01*
X90420350Y-129840480D01*
X90398171Y-129850970D01*
X90375072Y-129859235D01*
X90351273Y-129865196D01*
X90327005Y-129868796D01*
X90302501Y-129870000D01*
X89402499Y-129870000D01*
X89377995Y-129868796D01*
X89353727Y-129865196D01*
X89329928Y-129859235D01*
X89306829Y-129850970D01*
X89284650Y-129840480D01*
X89263607Y-129827868D01*
X89243901Y-129813253D01*
X89225723Y-129796777D01*
X89209247Y-129778599D01*
X89194632Y-129758893D01*
X89182020Y-129737850D01*
X89171530Y-129715671D01*
X89163265Y-129692572D01*
X89157304Y-129668773D01*
X89153704Y-129644505D01*
X89152500Y-129620001D01*
X89152500Y-128969999D01*
X89153704Y-128945495D01*
X89157304Y-128921227D01*
X89163265Y-128897428D01*
X89171530Y-128874329D01*
X89182020Y-128852150D01*
X89194632Y-128831107D01*
X89209247Y-128811401D01*
X89225723Y-128793223D01*
X89243901Y-128776747D01*
X89263607Y-128762132D01*
X89284650Y-128749520D01*
X89306829Y-128739030D01*
X89329928Y-128730765D01*
X89353727Y-128724804D01*
X89377995Y-128721204D01*
X89402499Y-128720000D01*
X90302501Y-128720000D01*
X90327005Y-128721204D01*
X90327005Y-128721204D01*
G37*
D15*
X89852500Y-129295000D03*
D14*
G36*
X87342505Y-117590704D02*
G01*
X87366773Y-117594304D01*
X87390572Y-117600265D01*
X87413671Y-117608530D01*
X87435850Y-117619020D01*
X87456893Y-117631632D01*
X87476599Y-117646247D01*
X87494777Y-117662723D01*
X87511253Y-117680901D01*
X87525868Y-117700607D01*
X87538480Y-117721650D01*
X87548970Y-117743829D01*
X87557235Y-117766928D01*
X87563196Y-117790727D01*
X87566796Y-117814995D01*
X87568000Y-117839499D01*
X87568000Y-118489501D01*
X87566796Y-118514005D01*
X87563196Y-118538273D01*
X87557235Y-118562072D01*
X87548970Y-118585171D01*
X87538480Y-118607350D01*
X87525868Y-118628393D01*
X87511253Y-118648099D01*
X87494777Y-118666277D01*
X87476599Y-118682753D01*
X87456893Y-118697368D01*
X87435850Y-118709980D01*
X87413671Y-118720470D01*
X87390572Y-118728735D01*
X87366773Y-118734696D01*
X87342505Y-118738296D01*
X87318001Y-118739500D01*
X86417999Y-118739500D01*
X86393495Y-118738296D01*
X86369227Y-118734696D01*
X86345428Y-118728735D01*
X86322329Y-118720470D01*
X86300150Y-118709980D01*
X86279107Y-118697368D01*
X86259401Y-118682753D01*
X86241223Y-118666277D01*
X86224747Y-118648099D01*
X86210132Y-118628393D01*
X86197520Y-118607350D01*
X86187030Y-118585171D01*
X86178765Y-118562072D01*
X86172804Y-118538273D01*
X86169204Y-118514005D01*
X86168000Y-118489501D01*
X86168000Y-117839499D01*
X86169204Y-117814995D01*
X86172804Y-117790727D01*
X86178765Y-117766928D01*
X86187030Y-117743829D01*
X86197520Y-117721650D01*
X86210132Y-117700607D01*
X86224747Y-117680901D01*
X86241223Y-117662723D01*
X86259401Y-117646247D01*
X86279107Y-117631632D01*
X86300150Y-117619020D01*
X86322329Y-117608530D01*
X86345428Y-117600265D01*
X86369227Y-117594304D01*
X86393495Y-117590704D01*
X86417999Y-117589500D01*
X87318001Y-117589500D01*
X87342505Y-117590704D01*
X87342505Y-117590704D01*
G37*
D15*
X86868000Y-118164500D03*
D14*
G36*
X87342505Y-119640704D02*
G01*
X87366773Y-119644304D01*
X87390572Y-119650265D01*
X87413671Y-119658530D01*
X87435850Y-119669020D01*
X87456893Y-119681632D01*
X87476599Y-119696247D01*
X87494777Y-119712723D01*
X87511253Y-119730901D01*
X87525868Y-119750607D01*
X87538480Y-119771650D01*
X87548970Y-119793829D01*
X87557235Y-119816928D01*
X87563196Y-119840727D01*
X87566796Y-119864995D01*
X87568000Y-119889499D01*
X87568000Y-120539501D01*
X87566796Y-120564005D01*
X87563196Y-120588273D01*
X87557235Y-120612072D01*
X87548970Y-120635171D01*
X87538480Y-120657350D01*
X87525868Y-120678393D01*
X87511253Y-120698099D01*
X87494777Y-120716277D01*
X87476599Y-120732753D01*
X87456893Y-120747368D01*
X87435850Y-120759980D01*
X87413671Y-120770470D01*
X87390572Y-120778735D01*
X87366773Y-120784696D01*
X87342505Y-120788296D01*
X87318001Y-120789500D01*
X86417999Y-120789500D01*
X86393495Y-120788296D01*
X86369227Y-120784696D01*
X86345428Y-120778735D01*
X86322329Y-120770470D01*
X86300150Y-120759980D01*
X86279107Y-120747368D01*
X86259401Y-120732753D01*
X86241223Y-120716277D01*
X86224747Y-120698099D01*
X86210132Y-120678393D01*
X86197520Y-120657350D01*
X86187030Y-120635171D01*
X86178765Y-120612072D01*
X86172804Y-120588273D01*
X86169204Y-120564005D01*
X86168000Y-120539501D01*
X86168000Y-119889499D01*
X86169204Y-119864995D01*
X86172804Y-119840727D01*
X86178765Y-119816928D01*
X86187030Y-119793829D01*
X86197520Y-119771650D01*
X86210132Y-119750607D01*
X86224747Y-119730901D01*
X86241223Y-119712723D01*
X86259401Y-119696247D01*
X86279107Y-119681632D01*
X86300150Y-119669020D01*
X86322329Y-119658530D01*
X86345428Y-119650265D01*
X86369227Y-119644304D01*
X86393495Y-119640704D01*
X86417999Y-119639500D01*
X87318001Y-119639500D01*
X87342505Y-119640704D01*
X87342505Y-119640704D01*
G37*
D15*
X86868000Y-120214500D03*
D14*
G36*
X72984505Y-132333704D02*
G01*
X73008773Y-132337304D01*
X73032572Y-132343265D01*
X73055671Y-132351530D01*
X73077850Y-132362020D01*
X73098893Y-132374632D01*
X73118599Y-132389247D01*
X73136777Y-132405723D01*
X73153253Y-132423901D01*
X73167868Y-132443607D01*
X73180480Y-132464650D01*
X73190970Y-132486829D01*
X73199235Y-132509928D01*
X73205196Y-132533727D01*
X73208796Y-132557995D01*
X73210000Y-132582499D01*
X73210000Y-133482501D01*
X73208796Y-133507005D01*
X73205196Y-133531273D01*
X73199235Y-133555072D01*
X73190970Y-133578171D01*
X73180480Y-133600350D01*
X73167868Y-133621393D01*
X73153253Y-133641099D01*
X73136777Y-133659277D01*
X73118599Y-133675753D01*
X73098893Y-133690368D01*
X73077850Y-133702980D01*
X73055671Y-133713470D01*
X73032572Y-133721735D01*
X73008773Y-133727696D01*
X72984505Y-133731296D01*
X72960001Y-133732500D01*
X72309999Y-133732500D01*
X72285495Y-133731296D01*
X72261227Y-133727696D01*
X72237428Y-133721735D01*
X72214329Y-133713470D01*
X72192150Y-133702980D01*
X72171107Y-133690368D01*
X72151401Y-133675753D01*
X72133223Y-133659277D01*
X72116747Y-133641099D01*
X72102132Y-133621393D01*
X72089520Y-133600350D01*
X72079030Y-133578171D01*
X72070765Y-133555072D01*
X72064804Y-133531273D01*
X72061204Y-133507005D01*
X72060000Y-133482501D01*
X72060000Y-132582499D01*
X72061204Y-132557995D01*
X72064804Y-132533727D01*
X72070765Y-132509928D01*
X72079030Y-132486829D01*
X72089520Y-132464650D01*
X72102132Y-132443607D01*
X72116747Y-132423901D01*
X72133223Y-132405723D01*
X72151401Y-132389247D01*
X72171107Y-132374632D01*
X72192150Y-132362020D01*
X72214329Y-132351530D01*
X72237428Y-132343265D01*
X72261227Y-132337304D01*
X72285495Y-132333704D01*
X72309999Y-132332500D01*
X72960001Y-132332500D01*
X72984505Y-132333704D01*
X72984505Y-132333704D01*
G37*
D15*
X72635000Y-133032500D03*
D14*
G36*
X75034505Y-132333704D02*
G01*
X75058773Y-132337304D01*
X75082572Y-132343265D01*
X75105671Y-132351530D01*
X75127850Y-132362020D01*
X75148893Y-132374632D01*
X75168599Y-132389247D01*
X75186777Y-132405723D01*
X75203253Y-132423901D01*
X75217868Y-132443607D01*
X75230480Y-132464650D01*
X75240970Y-132486829D01*
X75249235Y-132509928D01*
X75255196Y-132533727D01*
X75258796Y-132557995D01*
X75260000Y-132582499D01*
X75260000Y-133482501D01*
X75258796Y-133507005D01*
X75255196Y-133531273D01*
X75249235Y-133555072D01*
X75240970Y-133578171D01*
X75230480Y-133600350D01*
X75217868Y-133621393D01*
X75203253Y-133641099D01*
X75186777Y-133659277D01*
X75168599Y-133675753D01*
X75148893Y-133690368D01*
X75127850Y-133702980D01*
X75105671Y-133713470D01*
X75082572Y-133721735D01*
X75058773Y-133727696D01*
X75034505Y-133731296D01*
X75010001Y-133732500D01*
X74359999Y-133732500D01*
X74335495Y-133731296D01*
X74311227Y-133727696D01*
X74287428Y-133721735D01*
X74264329Y-133713470D01*
X74242150Y-133702980D01*
X74221107Y-133690368D01*
X74201401Y-133675753D01*
X74183223Y-133659277D01*
X74166747Y-133641099D01*
X74152132Y-133621393D01*
X74139520Y-133600350D01*
X74129030Y-133578171D01*
X74120765Y-133555072D01*
X74114804Y-133531273D01*
X74111204Y-133507005D01*
X74110000Y-133482501D01*
X74110000Y-132582499D01*
X74111204Y-132557995D01*
X74114804Y-132533727D01*
X74120765Y-132509928D01*
X74129030Y-132486829D01*
X74139520Y-132464650D01*
X74152132Y-132443607D01*
X74166747Y-132423901D01*
X74183223Y-132405723D01*
X74201401Y-132389247D01*
X74221107Y-132374632D01*
X74242150Y-132362020D01*
X74264329Y-132351530D01*
X74287428Y-132343265D01*
X74311227Y-132337304D01*
X74335495Y-132333704D01*
X74359999Y-132332500D01*
X75010001Y-132332500D01*
X75034505Y-132333704D01*
X75034505Y-132333704D01*
G37*
D15*
X74685000Y-133032500D03*
D14*
G36*
X76050505Y-144081204D02*
G01*
X76074773Y-144084804D01*
X76098572Y-144090765D01*
X76121671Y-144099030D01*
X76143850Y-144109520D01*
X76164893Y-144122132D01*
X76184599Y-144136747D01*
X76202777Y-144153223D01*
X76219253Y-144171401D01*
X76233868Y-144191107D01*
X76246480Y-144212150D01*
X76256970Y-144234329D01*
X76265235Y-144257428D01*
X76271196Y-144281227D01*
X76274796Y-144305495D01*
X76276000Y-144329999D01*
X76276000Y-145230001D01*
X76274796Y-145254505D01*
X76271196Y-145278773D01*
X76265235Y-145302572D01*
X76256970Y-145325671D01*
X76246480Y-145347850D01*
X76233868Y-145368893D01*
X76219253Y-145388599D01*
X76202777Y-145406777D01*
X76184599Y-145423253D01*
X76164893Y-145437868D01*
X76143850Y-145450480D01*
X76121671Y-145460970D01*
X76098572Y-145469235D01*
X76074773Y-145475196D01*
X76050505Y-145478796D01*
X76026001Y-145480000D01*
X75375999Y-145480000D01*
X75351495Y-145478796D01*
X75327227Y-145475196D01*
X75303428Y-145469235D01*
X75280329Y-145460970D01*
X75258150Y-145450480D01*
X75237107Y-145437868D01*
X75217401Y-145423253D01*
X75199223Y-145406777D01*
X75182747Y-145388599D01*
X75168132Y-145368893D01*
X75155520Y-145347850D01*
X75145030Y-145325671D01*
X75136765Y-145302572D01*
X75130804Y-145278773D01*
X75127204Y-145254505D01*
X75126000Y-145230001D01*
X75126000Y-144329999D01*
X75127204Y-144305495D01*
X75130804Y-144281227D01*
X75136765Y-144257428D01*
X75145030Y-144234329D01*
X75155520Y-144212150D01*
X75168132Y-144191107D01*
X75182747Y-144171401D01*
X75199223Y-144153223D01*
X75217401Y-144136747D01*
X75237107Y-144122132D01*
X75258150Y-144109520D01*
X75280329Y-144099030D01*
X75303428Y-144090765D01*
X75327227Y-144084804D01*
X75351495Y-144081204D01*
X75375999Y-144080000D01*
X76026001Y-144080000D01*
X76050505Y-144081204D01*
X76050505Y-144081204D01*
G37*
D15*
X75701000Y-144780000D03*
D14*
G36*
X74000505Y-144081204D02*
G01*
X74024773Y-144084804D01*
X74048572Y-144090765D01*
X74071671Y-144099030D01*
X74093850Y-144109520D01*
X74114893Y-144122132D01*
X74134599Y-144136747D01*
X74152777Y-144153223D01*
X74169253Y-144171401D01*
X74183868Y-144191107D01*
X74196480Y-144212150D01*
X74206970Y-144234329D01*
X74215235Y-144257428D01*
X74221196Y-144281227D01*
X74224796Y-144305495D01*
X74226000Y-144329999D01*
X74226000Y-145230001D01*
X74224796Y-145254505D01*
X74221196Y-145278773D01*
X74215235Y-145302572D01*
X74206970Y-145325671D01*
X74196480Y-145347850D01*
X74183868Y-145368893D01*
X74169253Y-145388599D01*
X74152777Y-145406777D01*
X74134599Y-145423253D01*
X74114893Y-145437868D01*
X74093850Y-145450480D01*
X74071671Y-145460970D01*
X74048572Y-145469235D01*
X74024773Y-145475196D01*
X74000505Y-145478796D01*
X73976001Y-145480000D01*
X73325999Y-145480000D01*
X73301495Y-145478796D01*
X73277227Y-145475196D01*
X73253428Y-145469235D01*
X73230329Y-145460970D01*
X73208150Y-145450480D01*
X73187107Y-145437868D01*
X73167401Y-145423253D01*
X73149223Y-145406777D01*
X73132747Y-145388599D01*
X73118132Y-145368893D01*
X73105520Y-145347850D01*
X73095030Y-145325671D01*
X73086765Y-145302572D01*
X73080804Y-145278773D01*
X73077204Y-145254505D01*
X73076000Y-145230001D01*
X73076000Y-144329999D01*
X73077204Y-144305495D01*
X73080804Y-144281227D01*
X73086765Y-144257428D01*
X73095030Y-144234329D01*
X73105520Y-144212150D01*
X73118132Y-144191107D01*
X73132747Y-144171401D01*
X73149223Y-144153223D01*
X73167401Y-144136747D01*
X73187107Y-144122132D01*
X73208150Y-144109520D01*
X73230329Y-144099030D01*
X73253428Y-144090765D01*
X73277227Y-144084804D01*
X73301495Y-144081204D01*
X73325999Y-144080000D01*
X73976001Y-144080000D01*
X74000505Y-144081204D01*
X74000505Y-144081204D01*
G37*
D15*
X73651000Y-144780000D03*
D17*
X61295000Y-142977000D03*
X61295000Y-117977000D03*
D18*
X58755000Y-126322000D03*
X58755000Y-129092000D03*
X58755000Y-131862000D03*
X58755000Y-134632000D03*
X61595000Y-124937000D03*
X61595000Y-127707000D03*
X61595000Y-130477000D03*
X61595000Y-133247000D03*
D19*
X61595000Y-136017000D03*
X97000000Y-125000000D03*
D18*
X97000000Y-127770000D03*
X97000000Y-130540000D03*
X97000000Y-133310000D03*
X97000000Y-136080000D03*
X99840000Y-126385000D03*
X99840000Y-129155000D03*
X99840000Y-131925000D03*
X99840000Y-134695000D03*
D17*
X97300000Y-143040000D03*
X97300000Y-118040000D03*
D20*
X90329000Y-143068000D03*
X90329000Y-144968000D03*
X92329000Y-144018000D03*
D14*
G36*
X87734505Y-143573204D02*
G01*
X87758773Y-143576804D01*
X87782572Y-143582765D01*
X87805671Y-143591030D01*
X87827850Y-143601520D01*
X87848893Y-143614132D01*
X87868599Y-143628747D01*
X87886777Y-143645223D01*
X87903253Y-143663401D01*
X87917868Y-143683107D01*
X87930480Y-143704150D01*
X87940970Y-143726329D01*
X87949235Y-143749428D01*
X87955196Y-143773227D01*
X87958796Y-143797495D01*
X87960000Y-143821999D01*
X87960000Y-144722001D01*
X87958796Y-144746505D01*
X87955196Y-144770773D01*
X87949235Y-144794572D01*
X87940970Y-144817671D01*
X87930480Y-144839850D01*
X87917868Y-144860893D01*
X87903253Y-144880599D01*
X87886777Y-144898777D01*
X87868599Y-144915253D01*
X87848893Y-144929868D01*
X87827850Y-144942480D01*
X87805671Y-144952970D01*
X87782572Y-144961235D01*
X87758773Y-144967196D01*
X87734505Y-144970796D01*
X87710001Y-144972000D01*
X87059999Y-144972000D01*
X87035495Y-144970796D01*
X87011227Y-144967196D01*
X86987428Y-144961235D01*
X86964329Y-144952970D01*
X86942150Y-144942480D01*
X86921107Y-144929868D01*
X86901401Y-144915253D01*
X86883223Y-144898777D01*
X86866747Y-144880599D01*
X86852132Y-144860893D01*
X86839520Y-144839850D01*
X86829030Y-144817671D01*
X86820765Y-144794572D01*
X86814804Y-144770773D01*
X86811204Y-144746505D01*
X86810000Y-144722001D01*
X86810000Y-143821999D01*
X86811204Y-143797495D01*
X86814804Y-143773227D01*
X86820765Y-143749428D01*
X86829030Y-143726329D01*
X86839520Y-143704150D01*
X86852132Y-143683107D01*
X86866747Y-143663401D01*
X86883223Y-143645223D01*
X86901401Y-143628747D01*
X86921107Y-143614132D01*
X86942150Y-143601520D01*
X86964329Y-143591030D01*
X86987428Y-143582765D01*
X87011227Y-143576804D01*
X87035495Y-143573204D01*
X87059999Y-143572000D01*
X87710001Y-143572000D01*
X87734505Y-143573204D01*
X87734505Y-143573204D01*
G37*
D15*
X87385000Y-144272000D03*
D14*
G36*
X85684505Y-143573204D02*
G01*
X85708773Y-143576804D01*
X85732572Y-143582765D01*
X85755671Y-143591030D01*
X85777850Y-143601520D01*
X85798893Y-143614132D01*
X85818599Y-143628747D01*
X85836777Y-143645223D01*
X85853253Y-143663401D01*
X85867868Y-143683107D01*
X85880480Y-143704150D01*
X85890970Y-143726329D01*
X85899235Y-143749428D01*
X85905196Y-143773227D01*
X85908796Y-143797495D01*
X85910000Y-143821999D01*
X85910000Y-144722001D01*
X85908796Y-144746505D01*
X85905196Y-144770773D01*
X85899235Y-144794572D01*
X85890970Y-144817671D01*
X85880480Y-144839850D01*
X85867868Y-144860893D01*
X85853253Y-144880599D01*
X85836777Y-144898777D01*
X85818599Y-144915253D01*
X85798893Y-144929868D01*
X85777850Y-144942480D01*
X85755671Y-144952970D01*
X85732572Y-144961235D01*
X85708773Y-144967196D01*
X85684505Y-144970796D01*
X85660001Y-144972000D01*
X85009999Y-144972000D01*
X84985495Y-144970796D01*
X84961227Y-144967196D01*
X84937428Y-144961235D01*
X84914329Y-144952970D01*
X84892150Y-144942480D01*
X84871107Y-144929868D01*
X84851401Y-144915253D01*
X84833223Y-144898777D01*
X84816747Y-144880599D01*
X84802132Y-144860893D01*
X84789520Y-144839850D01*
X84779030Y-144817671D01*
X84770765Y-144794572D01*
X84764804Y-144770773D01*
X84761204Y-144746505D01*
X84760000Y-144722001D01*
X84760000Y-143821999D01*
X84761204Y-143797495D01*
X84764804Y-143773227D01*
X84770765Y-143749428D01*
X84779030Y-143726329D01*
X84789520Y-143704150D01*
X84802132Y-143683107D01*
X84816747Y-143663401D01*
X84833223Y-143645223D01*
X84851401Y-143628747D01*
X84871107Y-143614132D01*
X84892150Y-143601520D01*
X84914329Y-143591030D01*
X84937428Y-143582765D01*
X84961227Y-143576804D01*
X84985495Y-143573204D01*
X85009999Y-143572000D01*
X85660001Y-143572000D01*
X85684505Y-143573204D01*
X85684505Y-143573204D01*
G37*
D15*
X85335000Y-144272000D03*
D14*
G36*
X68673505Y-129541404D02*
G01*
X68697773Y-129545004D01*
X68721572Y-129550965D01*
X68744671Y-129559230D01*
X68766850Y-129569720D01*
X68787893Y-129582332D01*
X68807599Y-129596947D01*
X68825777Y-129613423D01*
X68842253Y-129631601D01*
X68856868Y-129651307D01*
X68869480Y-129672350D01*
X68879970Y-129694529D01*
X68888235Y-129717628D01*
X68894196Y-129741427D01*
X68897796Y-129765695D01*
X68899000Y-129790199D01*
X68899000Y-130440201D01*
X68897796Y-130464705D01*
X68894196Y-130488973D01*
X68888235Y-130512772D01*
X68879970Y-130535871D01*
X68869480Y-130558050D01*
X68856868Y-130579093D01*
X68842253Y-130598799D01*
X68825777Y-130616977D01*
X68807599Y-130633453D01*
X68787893Y-130648068D01*
X68766850Y-130660680D01*
X68744671Y-130671170D01*
X68721572Y-130679435D01*
X68697773Y-130685396D01*
X68673505Y-130688996D01*
X68649001Y-130690200D01*
X67748999Y-130690200D01*
X67724495Y-130688996D01*
X67700227Y-130685396D01*
X67676428Y-130679435D01*
X67653329Y-130671170D01*
X67631150Y-130660680D01*
X67610107Y-130648068D01*
X67590401Y-130633453D01*
X67572223Y-130616977D01*
X67555747Y-130598799D01*
X67541132Y-130579093D01*
X67528520Y-130558050D01*
X67518030Y-130535871D01*
X67509765Y-130512772D01*
X67503804Y-130488973D01*
X67500204Y-130464705D01*
X67499000Y-130440201D01*
X67499000Y-129790199D01*
X67500204Y-129765695D01*
X67503804Y-129741427D01*
X67509765Y-129717628D01*
X67518030Y-129694529D01*
X67528520Y-129672350D01*
X67541132Y-129651307D01*
X67555747Y-129631601D01*
X67572223Y-129613423D01*
X67590401Y-129596947D01*
X67610107Y-129582332D01*
X67631150Y-129569720D01*
X67653329Y-129559230D01*
X67676428Y-129550965D01*
X67700227Y-129545004D01*
X67724495Y-129541404D01*
X67748999Y-129540200D01*
X68649001Y-129540200D01*
X68673505Y-129541404D01*
X68673505Y-129541404D01*
G37*
D15*
X68199000Y-130115200D03*
D14*
G36*
X68673505Y-131591404D02*
G01*
X68697773Y-131595004D01*
X68721572Y-131600965D01*
X68744671Y-131609230D01*
X68766850Y-131619720D01*
X68787893Y-131632332D01*
X68807599Y-131646947D01*
X68825777Y-131663423D01*
X68842253Y-131681601D01*
X68856868Y-131701307D01*
X68869480Y-131722350D01*
X68879970Y-131744529D01*
X68888235Y-131767628D01*
X68894196Y-131791427D01*
X68897796Y-131815695D01*
X68899000Y-131840199D01*
X68899000Y-132490201D01*
X68897796Y-132514705D01*
X68894196Y-132538973D01*
X68888235Y-132562772D01*
X68879970Y-132585871D01*
X68869480Y-132608050D01*
X68856868Y-132629093D01*
X68842253Y-132648799D01*
X68825777Y-132666977D01*
X68807599Y-132683453D01*
X68787893Y-132698068D01*
X68766850Y-132710680D01*
X68744671Y-132721170D01*
X68721572Y-132729435D01*
X68697773Y-132735396D01*
X68673505Y-132738996D01*
X68649001Y-132740200D01*
X67748999Y-132740200D01*
X67724495Y-132738996D01*
X67700227Y-132735396D01*
X67676428Y-132729435D01*
X67653329Y-132721170D01*
X67631150Y-132710680D01*
X67610107Y-132698068D01*
X67590401Y-132683453D01*
X67572223Y-132666977D01*
X67555747Y-132648799D01*
X67541132Y-132629093D01*
X67528520Y-132608050D01*
X67518030Y-132585871D01*
X67509765Y-132562772D01*
X67503804Y-132538973D01*
X67500204Y-132514705D01*
X67499000Y-132490201D01*
X67499000Y-131840199D01*
X67500204Y-131815695D01*
X67503804Y-131791427D01*
X67509765Y-131767628D01*
X67518030Y-131744529D01*
X67528520Y-131722350D01*
X67541132Y-131701307D01*
X67555747Y-131681601D01*
X67572223Y-131663423D01*
X67590401Y-131646947D01*
X67610107Y-131632332D01*
X67631150Y-131619720D01*
X67653329Y-131609230D01*
X67676428Y-131600965D01*
X67700227Y-131595004D01*
X67724495Y-131591404D01*
X67748999Y-131590200D01*
X68649001Y-131590200D01*
X68673505Y-131591404D01*
X68673505Y-131591404D01*
G37*
D15*
X68199000Y-132165200D03*
D14*
G36*
X70769005Y-129528704D02*
G01*
X70793273Y-129532304D01*
X70817072Y-129538265D01*
X70840171Y-129546530D01*
X70862350Y-129557020D01*
X70883393Y-129569632D01*
X70903099Y-129584247D01*
X70921277Y-129600723D01*
X70937753Y-129618901D01*
X70952368Y-129638607D01*
X70964980Y-129659650D01*
X70975470Y-129681829D01*
X70983735Y-129704928D01*
X70989696Y-129728727D01*
X70993296Y-129752995D01*
X70994500Y-129777499D01*
X70994500Y-130427501D01*
X70993296Y-130452005D01*
X70989696Y-130476273D01*
X70983735Y-130500072D01*
X70975470Y-130523171D01*
X70964980Y-130545350D01*
X70952368Y-130566393D01*
X70937753Y-130586099D01*
X70921277Y-130604277D01*
X70903099Y-130620753D01*
X70883393Y-130635368D01*
X70862350Y-130647980D01*
X70840171Y-130658470D01*
X70817072Y-130666735D01*
X70793273Y-130672696D01*
X70769005Y-130676296D01*
X70744501Y-130677500D01*
X69844499Y-130677500D01*
X69819995Y-130676296D01*
X69795727Y-130672696D01*
X69771928Y-130666735D01*
X69748829Y-130658470D01*
X69726650Y-130647980D01*
X69705607Y-130635368D01*
X69685901Y-130620753D01*
X69667723Y-130604277D01*
X69651247Y-130586099D01*
X69636632Y-130566393D01*
X69624020Y-130545350D01*
X69613530Y-130523171D01*
X69605265Y-130500072D01*
X69599304Y-130476273D01*
X69595704Y-130452005D01*
X69594500Y-130427501D01*
X69594500Y-129777499D01*
X69595704Y-129752995D01*
X69599304Y-129728727D01*
X69605265Y-129704928D01*
X69613530Y-129681829D01*
X69624020Y-129659650D01*
X69636632Y-129638607D01*
X69651247Y-129618901D01*
X69667723Y-129600723D01*
X69685901Y-129584247D01*
X69705607Y-129569632D01*
X69726650Y-129557020D01*
X69748829Y-129546530D01*
X69771928Y-129538265D01*
X69795727Y-129532304D01*
X69819995Y-129528704D01*
X69844499Y-129527500D01*
X70744501Y-129527500D01*
X70769005Y-129528704D01*
X70769005Y-129528704D01*
G37*
D15*
X70294500Y-130102500D03*
D14*
G36*
X70769005Y-131578704D02*
G01*
X70793273Y-131582304D01*
X70817072Y-131588265D01*
X70840171Y-131596530D01*
X70862350Y-131607020D01*
X70883393Y-131619632D01*
X70903099Y-131634247D01*
X70921277Y-131650723D01*
X70937753Y-131668901D01*
X70952368Y-131688607D01*
X70964980Y-131709650D01*
X70975470Y-131731829D01*
X70983735Y-131754928D01*
X70989696Y-131778727D01*
X70993296Y-131802995D01*
X70994500Y-131827499D01*
X70994500Y-132477501D01*
X70993296Y-132502005D01*
X70989696Y-132526273D01*
X70983735Y-132550072D01*
X70975470Y-132573171D01*
X70964980Y-132595350D01*
X70952368Y-132616393D01*
X70937753Y-132636099D01*
X70921277Y-132654277D01*
X70903099Y-132670753D01*
X70883393Y-132685368D01*
X70862350Y-132697980D01*
X70840171Y-132708470D01*
X70817072Y-132716735D01*
X70793273Y-132722696D01*
X70769005Y-132726296D01*
X70744501Y-132727500D01*
X69844499Y-132727500D01*
X69819995Y-132726296D01*
X69795727Y-132722696D01*
X69771928Y-132716735D01*
X69748829Y-132708470D01*
X69726650Y-132697980D01*
X69705607Y-132685368D01*
X69685901Y-132670753D01*
X69667723Y-132654277D01*
X69651247Y-132636099D01*
X69636632Y-132616393D01*
X69624020Y-132595350D01*
X69613530Y-132573171D01*
X69605265Y-132550072D01*
X69599304Y-132526273D01*
X69595704Y-132502005D01*
X69594500Y-132477501D01*
X69594500Y-131827499D01*
X69595704Y-131802995D01*
X69599304Y-131778727D01*
X69605265Y-131754928D01*
X69613530Y-131731829D01*
X69624020Y-131709650D01*
X69636632Y-131688607D01*
X69651247Y-131668901D01*
X69667723Y-131650723D01*
X69685901Y-131634247D01*
X69705607Y-131619632D01*
X69726650Y-131607020D01*
X69748829Y-131596530D01*
X69771928Y-131588265D01*
X69795727Y-131582304D01*
X69819995Y-131578704D01*
X69844499Y-131577500D01*
X70744501Y-131577500D01*
X70769005Y-131578704D01*
X70769005Y-131578704D01*
G37*
D15*
X70294500Y-132152500D03*
D14*
G36*
X69181505Y-142945204D02*
G01*
X69205773Y-142948804D01*
X69229572Y-142954765D01*
X69252671Y-142963030D01*
X69274850Y-142973520D01*
X69295893Y-142986132D01*
X69315599Y-143000747D01*
X69333777Y-143017223D01*
X69350253Y-143035401D01*
X69364868Y-143055107D01*
X69377480Y-143076150D01*
X69387970Y-143098329D01*
X69396235Y-143121428D01*
X69402196Y-143145227D01*
X69405796Y-143169495D01*
X69407000Y-143193999D01*
X69407000Y-143844001D01*
X69405796Y-143868505D01*
X69402196Y-143892773D01*
X69396235Y-143916572D01*
X69387970Y-143939671D01*
X69377480Y-143961850D01*
X69364868Y-143982893D01*
X69350253Y-144002599D01*
X69333777Y-144020777D01*
X69315599Y-144037253D01*
X69295893Y-144051868D01*
X69274850Y-144064480D01*
X69252671Y-144074970D01*
X69229572Y-144083235D01*
X69205773Y-144089196D01*
X69181505Y-144092796D01*
X69157001Y-144094000D01*
X68256999Y-144094000D01*
X68232495Y-144092796D01*
X68208227Y-144089196D01*
X68184428Y-144083235D01*
X68161329Y-144074970D01*
X68139150Y-144064480D01*
X68118107Y-144051868D01*
X68098401Y-144037253D01*
X68080223Y-144020777D01*
X68063747Y-144002599D01*
X68049132Y-143982893D01*
X68036520Y-143961850D01*
X68026030Y-143939671D01*
X68017765Y-143916572D01*
X68011804Y-143892773D01*
X68008204Y-143868505D01*
X68007000Y-143844001D01*
X68007000Y-143193999D01*
X68008204Y-143169495D01*
X68011804Y-143145227D01*
X68017765Y-143121428D01*
X68026030Y-143098329D01*
X68036520Y-143076150D01*
X68049132Y-143055107D01*
X68063747Y-143035401D01*
X68080223Y-143017223D01*
X68098401Y-143000747D01*
X68118107Y-142986132D01*
X68139150Y-142973520D01*
X68161329Y-142963030D01*
X68184428Y-142954765D01*
X68208227Y-142948804D01*
X68232495Y-142945204D01*
X68256999Y-142944000D01*
X69157001Y-142944000D01*
X69181505Y-142945204D01*
X69181505Y-142945204D01*
G37*
D15*
X68707000Y-143519000D03*
D14*
G36*
X69181505Y-140895204D02*
G01*
X69205773Y-140898804D01*
X69229572Y-140904765D01*
X69252671Y-140913030D01*
X69274850Y-140923520D01*
X69295893Y-140936132D01*
X69315599Y-140950747D01*
X69333777Y-140967223D01*
X69350253Y-140985401D01*
X69364868Y-141005107D01*
X69377480Y-141026150D01*
X69387970Y-141048329D01*
X69396235Y-141071428D01*
X69402196Y-141095227D01*
X69405796Y-141119495D01*
X69407000Y-141143999D01*
X69407000Y-141794001D01*
X69405796Y-141818505D01*
X69402196Y-141842773D01*
X69396235Y-141866572D01*
X69387970Y-141889671D01*
X69377480Y-141911850D01*
X69364868Y-141932893D01*
X69350253Y-141952599D01*
X69333777Y-141970777D01*
X69315599Y-141987253D01*
X69295893Y-142001868D01*
X69274850Y-142014480D01*
X69252671Y-142024970D01*
X69229572Y-142033235D01*
X69205773Y-142039196D01*
X69181505Y-142042796D01*
X69157001Y-142044000D01*
X68256999Y-142044000D01*
X68232495Y-142042796D01*
X68208227Y-142039196D01*
X68184428Y-142033235D01*
X68161329Y-142024970D01*
X68139150Y-142014480D01*
X68118107Y-142001868D01*
X68098401Y-141987253D01*
X68080223Y-141970777D01*
X68063747Y-141952599D01*
X68049132Y-141932893D01*
X68036520Y-141911850D01*
X68026030Y-141889671D01*
X68017765Y-141866572D01*
X68011804Y-141842773D01*
X68008204Y-141818505D01*
X68007000Y-141794001D01*
X68007000Y-141143999D01*
X68008204Y-141119495D01*
X68011804Y-141095227D01*
X68017765Y-141071428D01*
X68026030Y-141048329D01*
X68036520Y-141026150D01*
X68049132Y-141005107D01*
X68063747Y-140985401D01*
X68080223Y-140967223D01*
X68098401Y-140950747D01*
X68118107Y-140936132D01*
X68139150Y-140923520D01*
X68161329Y-140913030D01*
X68184428Y-140904765D01*
X68208227Y-140898804D01*
X68232495Y-140895204D01*
X68256999Y-140894000D01*
X69157001Y-140894000D01*
X69181505Y-140895204D01*
X69181505Y-140895204D01*
G37*
D15*
X68707000Y-141469000D03*
D14*
G36*
X71404005Y-140895204D02*
G01*
X71428273Y-140898804D01*
X71452072Y-140904765D01*
X71475171Y-140913030D01*
X71497350Y-140923520D01*
X71518393Y-140936132D01*
X71538099Y-140950747D01*
X71556277Y-140967223D01*
X71572753Y-140985401D01*
X71587368Y-141005107D01*
X71599980Y-141026150D01*
X71610470Y-141048329D01*
X71618735Y-141071428D01*
X71624696Y-141095227D01*
X71628296Y-141119495D01*
X71629500Y-141143999D01*
X71629500Y-141794001D01*
X71628296Y-141818505D01*
X71624696Y-141842773D01*
X71618735Y-141866572D01*
X71610470Y-141889671D01*
X71599980Y-141911850D01*
X71587368Y-141932893D01*
X71572753Y-141952599D01*
X71556277Y-141970777D01*
X71538099Y-141987253D01*
X71518393Y-142001868D01*
X71497350Y-142014480D01*
X71475171Y-142024970D01*
X71452072Y-142033235D01*
X71428273Y-142039196D01*
X71404005Y-142042796D01*
X71379501Y-142044000D01*
X70479499Y-142044000D01*
X70454995Y-142042796D01*
X70430727Y-142039196D01*
X70406928Y-142033235D01*
X70383829Y-142024970D01*
X70361650Y-142014480D01*
X70340607Y-142001868D01*
X70320901Y-141987253D01*
X70302723Y-141970777D01*
X70286247Y-141952599D01*
X70271632Y-141932893D01*
X70259020Y-141911850D01*
X70248530Y-141889671D01*
X70240265Y-141866572D01*
X70234304Y-141842773D01*
X70230704Y-141818505D01*
X70229500Y-141794001D01*
X70229500Y-141143999D01*
X70230704Y-141119495D01*
X70234304Y-141095227D01*
X70240265Y-141071428D01*
X70248530Y-141048329D01*
X70259020Y-141026150D01*
X70271632Y-141005107D01*
X70286247Y-140985401D01*
X70302723Y-140967223D01*
X70320901Y-140950747D01*
X70340607Y-140936132D01*
X70361650Y-140923520D01*
X70383829Y-140913030D01*
X70406928Y-140904765D01*
X70430727Y-140898804D01*
X70454995Y-140895204D01*
X70479499Y-140894000D01*
X71379501Y-140894000D01*
X71404005Y-140895204D01*
X71404005Y-140895204D01*
G37*
D15*
X70929500Y-141469000D03*
D14*
G36*
X71404005Y-142945204D02*
G01*
X71428273Y-142948804D01*
X71452072Y-142954765D01*
X71475171Y-142963030D01*
X71497350Y-142973520D01*
X71518393Y-142986132D01*
X71538099Y-143000747D01*
X71556277Y-143017223D01*
X71572753Y-143035401D01*
X71587368Y-143055107D01*
X71599980Y-143076150D01*
X71610470Y-143098329D01*
X71618735Y-143121428D01*
X71624696Y-143145227D01*
X71628296Y-143169495D01*
X71629500Y-143193999D01*
X71629500Y-143844001D01*
X71628296Y-143868505D01*
X71624696Y-143892773D01*
X71618735Y-143916572D01*
X71610470Y-143939671D01*
X71599980Y-143961850D01*
X71587368Y-143982893D01*
X71572753Y-144002599D01*
X71556277Y-144020777D01*
X71538099Y-144037253D01*
X71518393Y-144051868D01*
X71497350Y-144064480D01*
X71475171Y-144074970D01*
X71452072Y-144083235D01*
X71428273Y-144089196D01*
X71404005Y-144092796D01*
X71379501Y-144094000D01*
X70479499Y-144094000D01*
X70454995Y-144092796D01*
X70430727Y-144089196D01*
X70406928Y-144083235D01*
X70383829Y-144074970D01*
X70361650Y-144064480D01*
X70340607Y-144051868D01*
X70320901Y-144037253D01*
X70302723Y-144020777D01*
X70286247Y-144002599D01*
X70271632Y-143982893D01*
X70259020Y-143961850D01*
X70248530Y-143939671D01*
X70240265Y-143916572D01*
X70234304Y-143892773D01*
X70230704Y-143868505D01*
X70229500Y-143844001D01*
X70229500Y-143193999D01*
X70230704Y-143169495D01*
X70234304Y-143145227D01*
X70240265Y-143121428D01*
X70248530Y-143098329D01*
X70259020Y-143076150D01*
X70271632Y-143055107D01*
X70286247Y-143035401D01*
X70302723Y-143017223D01*
X70320901Y-143000747D01*
X70340607Y-142986132D01*
X70361650Y-142973520D01*
X70383829Y-142963030D01*
X70406928Y-142954765D01*
X70430727Y-142948804D01*
X70454995Y-142945204D01*
X70479499Y-142944000D01*
X71379501Y-142944000D01*
X71404005Y-142945204D01*
X71404005Y-142945204D01*
G37*
D15*
X70929500Y-143519000D03*
D14*
G36*
X81310005Y-130608204D02*
G01*
X81334273Y-130611804D01*
X81358072Y-130617765D01*
X81381171Y-130626030D01*
X81403350Y-130636520D01*
X81424393Y-130649132D01*
X81444099Y-130663747D01*
X81462277Y-130680223D01*
X81478753Y-130698401D01*
X81493368Y-130718107D01*
X81505980Y-130739150D01*
X81516470Y-130761329D01*
X81524735Y-130784428D01*
X81530696Y-130808227D01*
X81534296Y-130832495D01*
X81535500Y-130856999D01*
X81535500Y-131507001D01*
X81534296Y-131531505D01*
X81530696Y-131555773D01*
X81524735Y-131579572D01*
X81516470Y-131602671D01*
X81505980Y-131624850D01*
X81493368Y-131645893D01*
X81478753Y-131665599D01*
X81462277Y-131683777D01*
X81444099Y-131700253D01*
X81424393Y-131714868D01*
X81403350Y-131727480D01*
X81381171Y-131737970D01*
X81358072Y-131746235D01*
X81334273Y-131752196D01*
X81310005Y-131755796D01*
X81285501Y-131757000D01*
X80385499Y-131757000D01*
X80360995Y-131755796D01*
X80336727Y-131752196D01*
X80312928Y-131746235D01*
X80289829Y-131737970D01*
X80267650Y-131727480D01*
X80246607Y-131714868D01*
X80226901Y-131700253D01*
X80208723Y-131683777D01*
X80192247Y-131665599D01*
X80177632Y-131645893D01*
X80165020Y-131624850D01*
X80154530Y-131602671D01*
X80146265Y-131579572D01*
X80140304Y-131555773D01*
X80136704Y-131531505D01*
X80135500Y-131507001D01*
X80135500Y-130856999D01*
X80136704Y-130832495D01*
X80140304Y-130808227D01*
X80146265Y-130784428D01*
X80154530Y-130761329D01*
X80165020Y-130739150D01*
X80177632Y-130718107D01*
X80192247Y-130698401D01*
X80208723Y-130680223D01*
X80226901Y-130663747D01*
X80246607Y-130649132D01*
X80267650Y-130636520D01*
X80289829Y-130626030D01*
X80312928Y-130617765D01*
X80336727Y-130611804D01*
X80360995Y-130608204D01*
X80385499Y-130607000D01*
X81285501Y-130607000D01*
X81310005Y-130608204D01*
X81310005Y-130608204D01*
G37*
D15*
X80835500Y-131182000D03*
D14*
G36*
X81310005Y-132658204D02*
G01*
X81334273Y-132661804D01*
X81358072Y-132667765D01*
X81381171Y-132676030D01*
X81403350Y-132686520D01*
X81424393Y-132699132D01*
X81444099Y-132713747D01*
X81462277Y-132730223D01*
X81478753Y-132748401D01*
X81493368Y-132768107D01*
X81505980Y-132789150D01*
X81516470Y-132811329D01*
X81524735Y-132834428D01*
X81530696Y-132858227D01*
X81534296Y-132882495D01*
X81535500Y-132906999D01*
X81535500Y-133557001D01*
X81534296Y-133581505D01*
X81530696Y-133605773D01*
X81524735Y-133629572D01*
X81516470Y-133652671D01*
X81505980Y-133674850D01*
X81493368Y-133695893D01*
X81478753Y-133715599D01*
X81462277Y-133733777D01*
X81444099Y-133750253D01*
X81424393Y-133764868D01*
X81403350Y-133777480D01*
X81381171Y-133787970D01*
X81358072Y-133796235D01*
X81334273Y-133802196D01*
X81310005Y-133805796D01*
X81285501Y-133807000D01*
X80385499Y-133807000D01*
X80360995Y-133805796D01*
X80336727Y-133802196D01*
X80312928Y-133796235D01*
X80289829Y-133787970D01*
X80267650Y-133777480D01*
X80246607Y-133764868D01*
X80226901Y-133750253D01*
X80208723Y-133733777D01*
X80192247Y-133715599D01*
X80177632Y-133695893D01*
X80165020Y-133674850D01*
X80154530Y-133652671D01*
X80146265Y-133629572D01*
X80140304Y-133605773D01*
X80136704Y-133581505D01*
X80135500Y-133557001D01*
X80135500Y-132906999D01*
X80136704Y-132882495D01*
X80140304Y-132858227D01*
X80146265Y-132834428D01*
X80154530Y-132811329D01*
X80165020Y-132789150D01*
X80177632Y-132768107D01*
X80192247Y-132748401D01*
X80208723Y-132730223D01*
X80226901Y-132713747D01*
X80246607Y-132699132D01*
X80267650Y-132686520D01*
X80289829Y-132676030D01*
X80312928Y-132667765D01*
X80336727Y-132661804D01*
X80360995Y-132658204D01*
X80385499Y-132657000D01*
X81285501Y-132657000D01*
X81310005Y-132658204D01*
X81310005Y-132658204D01*
G37*
D15*
X80835500Y-133232000D03*
D14*
G36*
X83659505Y-130608204D02*
G01*
X83683773Y-130611804D01*
X83707572Y-130617765D01*
X83730671Y-130626030D01*
X83752850Y-130636520D01*
X83773893Y-130649132D01*
X83793599Y-130663747D01*
X83811777Y-130680223D01*
X83828253Y-130698401D01*
X83842868Y-130718107D01*
X83855480Y-130739150D01*
X83865970Y-130761329D01*
X83874235Y-130784428D01*
X83880196Y-130808227D01*
X83883796Y-130832495D01*
X83885000Y-130856999D01*
X83885000Y-131507001D01*
X83883796Y-131531505D01*
X83880196Y-131555773D01*
X83874235Y-131579572D01*
X83865970Y-131602671D01*
X83855480Y-131624850D01*
X83842868Y-131645893D01*
X83828253Y-131665599D01*
X83811777Y-131683777D01*
X83793599Y-131700253D01*
X83773893Y-131714868D01*
X83752850Y-131727480D01*
X83730671Y-131737970D01*
X83707572Y-131746235D01*
X83683773Y-131752196D01*
X83659505Y-131755796D01*
X83635001Y-131757000D01*
X82734999Y-131757000D01*
X82710495Y-131755796D01*
X82686227Y-131752196D01*
X82662428Y-131746235D01*
X82639329Y-131737970D01*
X82617150Y-131727480D01*
X82596107Y-131714868D01*
X82576401Y-131700253D01*
X82558223Y-131683777D01*
X82541747Y-131665599D01*
X82527132Y-131645893D01*
X82514520Y-131624850D01*
X82504030Y-131602671D01*
X82495765Y-131579572D01*
X82489804Y-131555773D01*
X82486204Y-131531505D01*
X82485000Y-131507001D01*
X82485000Y-130856999D01*
X82486204Y-130832495D01*
X82489804Y-130808227D01*
X82495765Y-130784428D01*
X82504030Y-130761329D01*
X82514520Y-130739150D01*
X82527132Y-130718107D01*
X82541747Y-130698401D01*
X82558223Y-130680223D01*
X82576401Y-130663747D01*
X82596107Y-130649132D01*
X82617150Y-130636520D01*
X82639329Y-130626030D01*
X82662428Y-130617765D01*
X82686227Y-130611804D01*
X82710495Y-130608204D01*
X82734999Y-130607000D01*
X83635001Y-130607000D01*
X83659505Y-130608204D01*
X83659505Y-130608204D01*
G37*
D15*
X83185000Y-131182000D03*
D14*
G36*
X83659505Y-132658204D02*
G01*
X83683773Y-132661804D01*
X83707572Y-132667765D01*
X83730671Y-132676030D01*
X83752850Y-132686520D01*
X83773893Y-132699132D01*
X83793599Y-132713747D01*
X83811777Y-132730223D01*
X83828253Y-132748401D01*
X83842868Y-132768107D01*
X83855480Y-132789150D01*
X83865970Y-132811329D01*
X83874235Y-132834428D01*
X83880196Y-132858227D01*
X83883796Y-132882495D01*
X83885000Y-132906999D01*
X83885000Y-133557001D01*
X83883796Y-133581505D01*
X83880196Y-133605773D01*
X83874235Y-133629572D01*
X83865970Y-133652671D01*
X83855480Y-133674850D01*
X83842868Y-133695893D01*
X83828253Y-133715599D01*
X83811777Y-133733777D01*
X83793599Y-133750253D01*
X83773893Y-133764868D01*
X83752850Y-133777480D01*
X83730671Y-133787970D01*
X83707572Y-133796235D01*
X83683773Y-133802196D01*
X83659505Y-133805796D01*
X83635001Y-133807000D01*
X82734999Y-133807000D01*
X82710495Y-133805796D01*
X82686227Y-133802196D01*
X82662428Y-133796235D01*
X82639329Y-133787970D01*
X82617150Y-133777480D01*
X82596107Y-133764868D01*
X82576401Y-133750253D01*
X82558223Y-133733777D01*
X82541747Y-133715599D01*
X82527132Y-133695893D01*
X82514520Y-133674850D01*
X82504030Y-133652671D01*
X82495765Y-133629572D01*
X82489804Y-133605773D01*
X82486204Y-133581505D01*
X82485000Y-133557001D01*
X82485000Y-132906999D01*
X82486204Y-132882495D01*
X82489804Y-132858227D01*
X82495765Y-132834428D01*
X82504030Y-132811329D01*
X82514520Y-132789150D01*
X82527132Y-132768107D01*
X82541747Y-132748401D01*
X82558223Y-132730223D01*
X82576401Y-132713747D01*
X82596107Y-132699132D01*
X82617150Y-132686520D01*
X82639329Y-132676030D01*
X82662428Y-132667765D01*
X82686227Y-132661804D01*
X82710495Y-132658204D01*
X82734999Y-132657000D01*
X83635001Y-132657000D01*
X83659505Y-132658204D01*
X83659505Y-132658204D01*
G37*
D15*
X83185000Y-133232000D03*
D14*
G36*
X68673505Y-125337704D02*
G01*
X68697773Y-125341304D01*
X68721572Y-125347265D01*
X68744671Y-125355530D01*
X68766850Y-125366020D01*
X68787893Y-125378632D01*
X68807599Y-125393247D01*
X68825777Y-125409723D01*
X68842253Y-125427901D01*
X68856868Y-125447607D01*
X68869480Y-125468650D01*
X68879970Y-125490829D01*
X68888235Y-125513928D01*
X68894196Y-125537727D01*
X68897796Y-125561995D01*
X68899000Y-125586499D01*
X68899000Y-126236501D01*
X68897796Y-126261005D01*
X68894196Y-126285273D01*
X68888235Y-126309072D01*
X68879970Y-126332171D01*
X68869480Y-126354350D01*
X68856868Y-126375393D01*
X68842253Y-126395099D01*
X68825777Y-126413277D01*
X68807599Y-126429753D01*
X68787893Y-126444368D01*
X68766850Y-126456980D01*
X68744671Y-126467470D01*
X68721572Y-126475735D01*
X68697773Y-126481696D01*
X68673505Y-126485296D01*
X68649001Y-126486500D01*
X67748999Y-126486500D01*
X67724495Y-126485296D01*
X67700227Y-126481696D01*
X67676428Y-126475735D01*
X67653329Y-126467470D01*
X67631150Y-126456980D01*
X67610107Y-126444368D01*
X67590401Y-126429753D01*
X67572223Y-126413277D01*
X67555747Y-126395099D01*
X67541132Y-126375393D01*
X67528520Y-126354350D01*
X67518030Y-126332171D01*
X67509765Y-126309072D01*
X67503804Y-126285273D01*
X67500204Y-126261005D01*
X67499000Y-126236501D01*
X67499000Y-125586499D01*
X67500204Y-125561995D01*
X67503804Y-125537727D01*
X67509765Y-125513928D01*
X67518030Y-125490829D01*
X67528520Y-125468650D01*
X67541132Y-125447607D01*
X67555747Y-125427901D01*
X67572223Y-125409723D01*
X67590401Y-125393247D01*
X67610107Y-125378632D01*
X67631150Y-125366020D01*
X67653329Y-125355530D01*
X67676428Y-125347265D01*
X67700227Y-125341304D01*
X67724495Y-125337704D01*
X67748999Y-125336500D01*
X68649001Y-125336500D01*
X68673505Y-125337704D01*
X68673505Y-125337704D01*
G37*
D15*
X68199000Y-125911500D03*
D14*
G36*
X68673505Y-127387704D02*
G01*
X68697773Y-127391304D01*
X68721572Y-127397265D01*
X68744671Y-127405530D01*
X68766850Y-127416020D01*
X68787893Y-127428632D01*
X68807599Y-127443247D01*
X68825777Y-127459723D01*
X68842253Y-127477901D01*
X68856868Y-127497607D01*
X68869480Y-127518650D01*
X68879970Y-127540829D01*
X68888235Y-127563928D01*
X68894196Y-127587727D01*
X68897796Y-127611995D01*
X68899000Y-127636499D01*
X68899000Y-128286501D01*
X68897796Y-128311005D01*
X68894196Y-128335273D01*
X68888235Y-128359072D01*
X68879970Y-128382171D01*
X68869480Y-128404350D01*
X68856868Y-128425393D01*
X68842253Y-128445099D01*
X68825777Y-128463277D01*
X68807599Y-128479753D01*
X68787893Y-128494368D01*
X68766850Y-128506980D01*
X68744671Y-128517470D01*
X68721572Y-128525735D01*
X68697773Y-128531696D01*
X68673505Y-128535296D01*
X68649001Y-128536500D01*
X67748999Y-128536500D01*
X67724495Y-128535296D01*
X67700227Y-128531696D01*
X67676428Y-128525735D01*
X67653329Y-128517470D01*
X67631150Y-128506980D01*
X67610107Y-128494368D01*
X67590401Y-128479753D01*
X67572223Y-128463277D01*
X67555747Y-128445099D01*
X67541132Y-128425393D01*
X67528520Y-128404350D01*
X67518030Y-128382171D01*
X67509765Y-128359072D01*
X67503804Y-128335273D01*
X67500204Y-128311005D01*
X67499000Y-128286501D01*
X67499000Y-127636499D01*
X67500204Y-127611995D01*
X67503804Y-127587727D01*
X67509765Y-127563928D01*
X67518030Y-127540829D01*
X67528520Y-127518650D01*
X67541132Y-127497607D01*
X67555747Y-127477901D01*
X67572223Y-127459723D01*
X67590401Y-127443247D01*
X67610107Y-127428632D01*
X67631150Y-127416020D01*
X67653329Y-127405530D01*
X67676428Y-127397265D01*
X67700227Y-127391304D01*
X67724495Y-127387704D01*
X67748999Y-127386500D01*
X68649001Y-127386500D01*
X68673505Y-127387704D01*
X68673505Y-127387704D01*
G37*
D15*
X68199000Y-127961500D03*
D14*
G36*
X69181505Y-136526404D02*
G01*
X69205773Y-136530004D01*
X69229572Y-136535965D01*
X69252671Y-136544230D01*
X69274850Y-136554720D01*
X69295893Y-136567332D01*
X69315599Y-136581947D01*
X69333777Y-136598423D01*
X69350253Y-136616601D01*
X69364868Y-136636307D01*
X69377480Y-136657350D01*
X69387970Y-136679529D01*
X69396235Y-136702628D01*
X69402196Y-136726427D01*
X69405796Y-136750695D01*
X69407000Y-136775199D01*
X69407000Y-137425201D01*
X69405796Y-137449705D01*
X69402196Y-137473973D01*
X69396235Y-137497772D01*
X69387970Y-137520871D01*
X69377480Y-137543050D01*
X69364868Y-137564093D01*
X69350253Y-137583799D01*
X69333777Y-137601977D01*
X69315599Y-137618453D01*
X69295893Y-137633068D01*
X69274850Y-137645680D01*
X69252671Y-137656170D01*
X69229572Y-137664435D01*
X69205773Y-137670396D01*
X69181505Y-137673996D01*
X69157001Y-137675200D01*
X68256999Y-137675200D01*
X68232495Y-137673996D01*
X68208227Y-137670396D01*
X68184428Y-137664435D01*
X68161329Y-137656170D01*
X68139150Y-137645680D01*
X68118107Y-137633068D01*
X68098401Y-137618453D01*
X68080223Y-137601977D01*
X68063747Y-137583799D01*
X68049132Y-137564093D01*
X68036520Y-137543050D01*
X68026030Y-137520871D01*
X68017765Y-137497772D01*
X68011804Y-137473973D01*
X68008204Y-137449705D01*
X68007000Y-137425201D01*
X68007000Y-136775199D01*
X68008204Y-136750695D01*
X68011804Y-136726427D01*
X68017765Y-136702628D01*
X68026030Y-136679529D01*
X68036520Y-136657350D01*
X68049132Y-136636307D01*
X68063747Y-136616601D01*
X68080223Y-136598423D01*
X68098401Y-136581947D01*
X68118107Y-136567332D01*
X68139150Y-136554720D01*
X68161329Y-136544230D01*
X68184428Y-136535965D01*
X68208227Y-136530004D01*
X68232495Y-136526404D01*
X68256999Y-136525200D01*
X69157001Y-136525200D01*
X69181505Y-136526404D01*
X69181505Y-136526404D01*
G37*
D15*
X68707000Y-137100200D03*
D14*
G36*
X69181505Y-138576404D02*
G01*
X69205773Y-138580004D01*
X69229572Y-138585965D01*
X69252671Y-138594230D01*
X69274850Y-138604720D01*
X69295893Y-138617332D01*
X69315599Y-138631947D01*
X69333777Y-138648423D01*
X69350253Y-138666601D01*
X69364868Y-138686307D01*
X69377480Y-138707350D01*
X69387970Y-138729529D01*
X69396235Y-138752628D01*
X69402196Y-138776427D01*
X69405796Y-138800695D01*
X69407000Y-138825199D01*
X69407000Y-139475201D01*
X69405796Y-139499705D01*
X69402196Y-139523973D01*
X69396235Y-139547772D01*
X69387970Y-139570871D01*
X69377480Y-139593050D01*
X69364868Y-139614093D01*
X69350253Y-139633799D01*
X69333777Y-139651977D01*
X69315599Y-139668453D01*
X69295893Y-139683068D01*
X69274850Y-139695680D01*
X69252671Y-139706170D01*
X69229572Y-139714435D01*
X69205773Y-139720396D01*
X69181505Y-139723996D01*
X69157001Y-139725200D01*
X68256999Y-139725200D01*
X68232495Y-139723996D01*
X68208227Y-139720396D01*
X68184428Y-139714435D01*
X68161329Y-139706170D01*
X68139150Y-139695680D01*
X68118107Y-139683068D01*
X68098401Y-139668453D01*
X68080223Y-139651977D01*
X68063747Y-139633799D01*
X68049132Y-139614093D01*
X68036520Y-139593050D01*
X68026030Y-139570871D01*
X68017765Y-139547772D01*
X68011804Y-139523973D01*
X68008204Y-139499705D01*
X68007000Y-139475201D01*
X68007000Y-138825199D01*
X68008204Y-138800695D01*
X68011804Y-138776427D01*
X68017765Y-138752628D01*
X68026030Y-138729529D01*
X68036520Y-138707350D01*
X68049132Y-138686307D01*
X68063747Y-138666601D01*
X68080223Y-138648423D01*
X68098401Y-138631947D01*
X68118107Y-138617332D01*
X68139150Y-138604720D01*
X68161329Y-138594230D01*
X68184428Y-138585965D01*
X68208227Y-138580004D01*
X68232495Y-138576404D01*
X68256999Y-138575200D01*
X69157001Y-138575200D01*
X69181505Y-138576404D01*
X69181505Y-138576404D01*
G37*
D15*
X68707000Y-139150200D03*
D14*
G36*
X83664505Y-128611204D02*
G01*
X83688773Y-128614804D01*
X83712572Y-128620765D01*
X83735671Y-128629030D01*
X83757850Y-128639520D01*
X83778893Y-128652132D01*
X83798599Y-128666747D01*
X83816777Y-128683223D01*
X83833253Y-128701401D01*
X83847868Y-128721107D01*
X83860480Y-128742150D01*
X83870970Y-128764329D01*
X83879235Y-128787428D01*
X83885196Y-128811227D01*
X83888796Y-128835495D01*
X83890000Y-128859999D01*
X83890000Y-129510001D01*
X83888796Y-129534505D01*
X83885196Y-129558773D01*
X83879235Y-129582572D01*
X83870970Y-129605671D01*
X83860480Y-129627850D01*
X83847868Y-129648893D01*
X83833253Y-129668599D01*
X83816777Y-129686777D01*
X83798599Y-129703253D01*
X83778893Y-129717868D01*
X83757850Y-129730480D01*
X83735671Y-129740970D01*
X83712572Y-129749235D01*
X83688773Y-129755196D01*
X83664505Y-129758796D01*
X83640001Y-129760000D01*
X82739999Y-129760000D01*
X82715495Y-129758796D01*
X82691227Y-129755196D01*
X82667428Y-129749235D01*
X82644329Y-129740970D01*
X82622150Y-129730480D01*
X82601107Y-129717868D01*
X82581401Y-129703253D01*
X82563223Y-129686777D01*
X82546747Y-129668599D01*
X82532132Y-129648893D01*
X82519520Y-129627850D01*
X82509030Y-129605671D01*
X82500765Y-129582572D01*
X82494804Y-129558773D01*
X82491204Y-129534505D01*
X82490000Y-129510001D01*
X82490000Y-128859999D01*
X82491204Y-128835495D01*
X82494804Y-128811227D01*
X82500765Y-128787428D01*
X82509030Y-128764329D01*
X82519520Y-128742150D01*
X82532132Y-128721107D01*
X82546747Y-128701401D01*
X82563223Y-128683223D01*
X82581401Y-128666747D01*
X82601107Y-128652132D01*
X82622150Y-128639520D01*
X82644329Y-128629030D01*
X82667428Y-128620765D01*
X82691227Y-128614804D01*
X82715495Y-128611204D01*
X82739999Y-128610000D01*
X83640001Y-128610000D01*
X83664505Y-128611204D01*
X83664505Y-128611204D01*
G37*
D15*
X83190000Y-129185000D03*
D14*
G36*
X83664505Y-126561204D02*
G01*
X83688773Y-126564804D01*
X83712572Y-126570765D01*
X83735671Y-126579030D01*
X83757850Y-126589520D01*
X83778893Y-126602132D01*
X83798599Y-126616747D01*
X83816777Y-126633223D01*
X83833253Y-126651401D01*
X83847868Y-126671107D01*
X83860480Y-126692150D01*
X83870970Y-126714329D01*
X83879235Y-126737428D01*
X83885196Y-126761227D01*
X83888796Y-126785495D01*
X83890000Y-126809999D01*
X83890000Y-127460001D01*
X83888796Y-127484505D01*
X83885196Y-127508773D01*
X83879235Y-127532572D01*
X83870970Y-127555671D01*
X83860480Y-127577850D01*
X83847868Y-127598893D01*
X83833253Y-127618599D01*
X83816777Y-127636777D01*
X83798599Y-127653253D01*
X83778893Y-127667868D01*
X83757850Y-127680480D01*
X83735671Y-127690970D01*
X83712572Y-127699235D01*
X83688773Y-127705196D01*
X83664505Y-127708796D01*
X83640001Y-127710000D01*
X82739999Y-127710000D01*
X82715495Y-127708796D01*
X82691227Y-127705196D01*
X82667428Y-127699235D01*
X82644329Y-127690970D01*
X82622150Y-127680480D01*
X82601107Y-127667868D01*
X82581401Y-127653253D01*
X82563223Y-127636777D01*
X82546747Y-127618599D01*
X82532132Y-127598893D01*
X82519520Y-127577850D01*
X82509030Y-127555671D01*
X82500765Y-127532572D01*
X82494804Y-127508773D01*
X82491204Y-127484505D01*
X82490000Y-127460001D01*
X82490000Y-126809999D01*
X82491204Y-126785495D01*
X82494804Y-126761227D01*
X82500765Y-126737428D01*
X82509030Y-126714329D01*
X82519520Y-126692150D01*
X82532132Y-126671107D01*
X82546747Y-126651401D01*
X82563223Y-126633223D01*
X82581401Y-126616747D01*
X82601107Y-126602132D01*
X82622150Y-126589520D01*
X82644329Y-126579030D01*
X82667428Y-126570765D01*
X82691227Y-126564804D01*
X82715495Y-126561204D01*
X82739999Y-126560000D01*
X83640001Y-126560000D01*
X83664505Y-126561204D01*
X83664505Y-126561204D01*
G37*
D15*
X83190000Y-127135000D03*
D14*
G36*
X87734505Y-139191704D02*
G01*
X87758773Y-139195304D01*
X87782572Y-139201265D01*
X87805671Y-139209530D01*
X87827850Y-139220020D01*
X87848893Y-139232632D01*
X87868599Y-139247247D01*
X87886777Y-139263723D01*
X87903253Y-139281901D01*
X87917868Y-139301607D01*
X87930480Y-139322650D01*
X87940970Y-139344829D01*
X87949235Y-139367928D01*
X87955196Y-139391727D01*
X87958796Y-139415995D01*
X87960000Y-139440499D01*
X87960000Y-140340501D01*
X87958796Y-140365005D01*
X87955196Y-140389273D01*
X87949235Y-140413072D01*
X87940970Y-140436171D01*
X87930480Y-140458350D01*
X87917868Y-140479393D01*
X87903253Y-140499099D01*
X87886777Y-140517277D01*
X87868599Y-140533753D01*
X87848893Y-140548368D01*
X87827850Y-140560980D01*
X87805671Y-140571470D01*
X87782572Y-140579735D01*
X87758773Y-140585696D01*
X87734505Y-140589296D01*
X87710001Y-140590500D01*
X87059999Y-140590500D01*
X87035495Y-140589296D01*
X87011227Y-140585696D01*
X86987428Y-140579735D01*
X86964329Y-140571470D01*
X86942150Y-140560980D01*
X86921107Y-140548368D01*
X86901401Y-140533753D01*
X86883223Y-140517277D01*
X86866747Y-140499099D01*
X86852132Y-140479393D01*
X86839520Y-140458350D01*
X86829030Y-140436171D01*
X86820765Y-140413072D01*
X86814804Y-140389273D01*
X86811204Y-140365005D01*
X86810000Y-140340501D01*
X86810000Y-139440499D01*
X86811204Y-139415995D01*
X86814804Y-139391727D01*
X86820765Y-139367928D01*
X86829030Y-139344829D01*
X86839520Y-139322650D01*
X86852132Y-139301607D01*
X86866747Y-139281901D01*
X86883223Y-139263723D01*
X86901401Y-139247247D01*
X86921107Y-139232632D01*
X86942150Y-139220020D01*
X86964329Y-139209530D01*
X86987428Y-139201265D01*
X87011227Y-139195304D01*
X87035495Y-139191704D01*
X87059999Y-139190500D01*
X87710001Y-139190500D01*
X87734505Y-139191704D01*
X87734505Y-139191704D01*
G37*
D15*
X87385000Y-139890500D03*
D14*
G36*
X85684505Y-139191704D02*
G01*
X85708773Y-139195304D01*
X85732572Y-139201265D01*
X85755671Y-139209530D01*
X85777850Y-139220020D01*
X85798893Y-139232632D01*
X85818599Y-139247247D01*
X85836777Y-139263723D01*
X85853253Y-139281901D01*
X85867868Y-139301607D01*
X85880480Y-139322650D01*
X85890970Y-139344829D01*
X85899235Y-139367928D01*
X85905196Y-139391727D01*
X85908796Y-139415995D01*
X85910000Y-139440499D01*
X85910000Y-140340501D01*
X85908796Y-140365005D01*
X85905196Y-140389273D01*
X85899235Y-140413072D01*
X85890970Y-140436171D01*
X85880480Y-140458350D01*
X85867868Y-140479393D01*
X85853253Y-140499099D01*
X85836777Y-140517277D01*
X85818599Y-140533753D01*
X85798893Y-140548368D01*
X85777850Y-140560980D01*
X85755671Y-140571470D01*
X85732572Y-140579735D01*
X85708773Y-140585696D01*
X85684505Y-140589296D01*
X85660001Y-140590500D01*
X85009999Y-140590500D01*
X84985495Y-140589296D01*
X84961227Y-140585696D01*
X84937428Y-140579735D01*
X84914329Y-140571470D01*
X84892150Y-140560980D01*
X84871107Y-140548368D01*
X84851401Y-140533753D01*
X84833223Y-140517277D01*
X84816747Y-140499099D01*
X84802132Y-140479393D01*
X84789520Y-140458350D01*
X84779030Y-140436171D01*
X84770765Y-140413072D01*
X84764804Y-140389273D01*
X84761204Y-140365005D01*
X84760000Y-140340501D01*
X84760000Y-139440499D01*
X84761204Y-139415995D01*
X84764804Y-139391727D01*
X84770765Y-139367928D01*
X84779030Y-139344829D01*
X84789520Y-139322650D01*
X84802132Y-139301607D01*
X84816747Y-139281901D01*
X84833223Y-139263723D01*
X84851401Y-139247247D01*
X84871107Y-139232632D01*
X84892150Y-139220020D01*
X84914329Y-139209530D01*
X84937428Y-139201265D01*
X84961227Y-139195304D01*
X84985495Y-139191704D01*
X85009999Y-139190500D01*
X85660001Y-139190500D01*
X85684505Y-139191704D01*
X85684505Y-139191704D01*
G37*
D15*
X85335000Y-139890500D03*
D21*
X72928500Y-127254000D03*
X72928500Y-128524000D03*
X72928500Y-129794000D03*
X72928500Y-131064000D03*
X78328500Y-131064000D03*
X78328500Y-129794000D03*
X78328500Y-128524000D03*
X78328500Y-127254000D03*
X78709500Y-138874500D03*
X78709500Y-140144500D03*
X78709500Y-141414500D03*
X78709500Y-142684500D03*
X73309500Y-142684500D03*
X73309500Y-141414500D03*
X73309500Y-140144500D03*
X73309500Y-138874500D03*
D13*
X81196000Y-138877000D03*
X81196000Y-139827000D03*
X81196000Y-140777000D03*
X83396000Y-140777000D03*
X83396000Y-138877000D03*
D22*
X81915000Y-120244000D03*
D23*
X81915000Y-113944000D03*
X79615000Y-113944000D03*
X84215000Y-113944000D03*
D14*
G36*
X81611505Y-123253204D02*
G01*
X81635773Y-123256804D01*
X81659572Y-123262765D01*
X81682671Y-123271030D01*
X81704850Y-123281520D01*
X81725893Y-123294132D01*
X81745599Y-123308747D01*
X81763777Y-123325223D01*
X81780253Y-123343401D01*
X81794868Y-123363107D01*
X81807480Y-123384150D01*
X81817970Y-123406329D01*
X81826235Y-123429428D01*
X81832196Y-123453227D01*
X81835796Y-123477495D01*
X81837000Y-123501999D01*
X81837000Y-124402001D01*
X81835796Y-124426505D01*
X81832196Y-124450773D01*
X81826235Y-124474572D01*
X81817970Y-124497671D01*
X81807480Y-124519850D01*
X81794868Y-124540893D01*
X81780253Y-124560599D01*
X81763777Y-124578777D01*
X81745599Y-124595253D01*
X81725893Y-124609868D01*
X81704850Y-124622480D01*
X81682671Y-124632970D01*
X81659572Y-124641235D01*
X81635773Y-124647196D01*
X81611505Y-124650796D01*
X81587001Y-124652000D01*
X80936999Y-124652000D01*
X80912495Y-124650796D01*
X80888227Y-124647196D01*
X80864428Y-124641235D01*
X80841329Y-124632970D01*
X80819150Y-124622480D01*
X80798107Y-124609868D01*
X80778401Y-124595253D01*
X80760223Y-124578777D01*
X80743747Y-124560599D01*
X80729132Y-124540893D01*
X80716520Y-124519850D01*
X80706030Y-124497671D01*
X80697765Y-124474572D01*
X80691804Y-124450773D01*
X80688204Y-124426505D01*
X80687000Y-124402001D01*
X80687000Y-123501999D01*
X80688204Y-123477495D01*
X80691804Y-123453227D01*
X80697765Y-123429428D01*
X80706030Y-123406329D01*
X80716520Y-123384150D01*
X80729132Y-123363107D01*
X80743747Y-123343401D01*
X80760223Y-123325223D01*
X80778401Y-123308747D01*
X80798107Y-123294132D01*
X80819150Y-123281520D01*
X80841329Y-123271030D01*
X80864428Y-123262765D01*
X80888227Y-123256804D01*
X80912495Y-123253204D01*
X80936999Y-123252000D01*
X81587001Y-123252000D01*
X81611505Y-123253204D01*
X81611505Y-123253204D01*
G37*
D15*
X81262000Y-123952000D03*
D14*
G36*
X83661505Y-123253204D02*
G01*
X83685773Y-123256804D01*
X83709572Y-123262765D01*
X83732671Y-123271030D01*
X83754850Y-123281520D01*
X83775893Y-123294132D01*
X83795599Y-123308747D01*
X83813777Y-123325223D01*
X83830253Y-123343401D01*
X83844868Y-123363107D01*
X83857480Y-123384150D01*
X83867970Y-123406329D01*
X83876235Y-123429428D01*
X83882196Y-123453227D01*
X83885796Y-123477495D01*
X83887000Y-123501999D01*
X83887000Y-124402001D01*
X83885796Y-124426505D01*
X83882196Y-124450773D01*
X83876235Y-124474572D01*
X83867970Y-124497671D01*
X83857480Y-124519850D01*
X83844868Y-124540893D01*
X83830253Y-124560599D01*
X83813777Y-124578777D01*
X83795599Y-124595253D01*
X83775893Y-124609868D01*
X83754850Y-124622480D01*
X83732671Y-124632970D01*
X83709572Y-124641235D01*
X83685773Y-124647196D01*
X83661505Y-124650796D01*
X83637001Y-124652000D01*
X82986999Y-124652000D01*
X82962495Y-124650796D01*
X82938227Y-124647196D01*
X82914428Y-124641235D01*
X82891329Y-124632970D01*
X82869150Y-124622480D01*
X82848107Y-124609868D01*
X82828401Y-124595253D01*
X82810223Y-124578777D01*
X82793747Y-124560599D01*
X82779132Y-124540893D01*
X82766520Y-124519850D01*
X82756030Y-124497671D01*
X82747765Y-124474572D01*
X82741804Y-124450773D01*
X82738204Y-124426505D01*
X82737000Y-124402001D01*
X82737000Y-123501999D01*
X82738204Y-123477495D01*
X82741804Y-123453227D01*
X82747765Y-123429428D01*
X82756030Y-123406329D01*
X82766520Y-123384150D01*
X82779132Y-123363107D01*
X82793747Y-123343401D01*
X82810223Y-123325223D01*
X82828401Y-123308747D01*
X82848107Y-123294132D01*
X82869150Y-123281520D01*
X82891329Y-123271030D01*
X82914428Y-123262765D01*
X82938227Y-123256804D01*
X82962495Y-123253204D01*
X82986999Y-123252000D01*
X83637001Y-123252000D01*
X83661505Y-123253204D01*
X83661505Y-123253204D01*
G37*
D15*
X83312000Y-123952000D03*
D14*
G36*
X79733505Y-123253204D02*
G01*
X79757773Y-123256804D01*
X79781572Y-123262765D01*
X79804671Y-123271030D01*
X79826850Y-123281520D01*
X79847893Y-123294132D01*
X79867599Y-123308747D01*
X79885777Y-123325223D01*
X79902253Y-123343401D01*
X79916868Y-123363107D01*
X79929480Y-123384150D01*
X79939970Y-123406329D01*
X79948235Y-123429428D01*
X79954196Y-123453227D01*
X79957796Y-123477495D01*
X79959000Y-123501999D01*
X79959000Y-124402001D01*
X79957796Y-124426505D01*
X79954196Y-124450773D01*
X79948235Y-124474572D01*
X79939970Y-124497671D01*
X79929480Y-124519850D01*
X79916868Y-124540893D01*
X79902253Y-124560599D01*
X79885777Y-124578777D01*
X79867599Y-124595253D01*
X79847893Y-124609868D01*
X79826850Y-124622480D01*
X79804671Y-124632970D01*
X79781572Y-124641235D01*
X79757773Y-124647196D01*
X79733505Y-124650796D01*
X79709001Y-124652000D01*
X79058999Y-124652000D01*
X79034495Y-124650796D01*
X79010227Y-124647196D01*
X78986428Y-124641235D01*
X78963329Y-124632970D01*
X78941150Y-124622480D01*
X78920107Y-124609868D01*
X78900401Y-124595253D01*
X78882223Y-124578777D01*
X78865747Y-124560599D01*
X78851132Y-124540893D01*
X78838520Y-124519850D01*
X78828030Y-124497671D01*
X78819765Y-124474572D01*
X78813804Y-124450773D01*
X78810204Y-124426505D01*
X78809000Y-124402001D01*
X78809000Y-123501999D01*
X78810204Y-123477495D01*
X78813804Y-123453227D01*
X78819765Y-123429428D01*
X78828030Y-123406329D01*
X78838520Y-123384150D01*
X78851132Y-123363107D01*
X78865747Y-123343401D01*
X78882223Y-123325223D01*
X78900401Y-123308747D01*
X78920107Y-123294132D01*
X78941150Y-123281520D01*
X78963329Y-123271030D01*
X78986428Y-123262765D01*
X79010227Y-123256804D01*
X79034495Y-123253204D01*
X79058999Y-123252000D01*
X79709001Y-123252000D01*
X79733505Y-123253204D01*
X79733505Y-123253204D01*
G37*
D15*
X79384000Y-123952000D03*
D14*
G36*
X77683505Y-123253204D02*
G01*
X77707773Y-123256804D01*
X77731572Y-123262765D01*
X77754671Y-123271030D01*
X77776850Y-123281520D01*
X77797893Y-123294132D01*
X77817599Y-123308747D01*
X77835777Y-123325223D01*
X77852253Y-123343401D01*
X77866868Y-123363107D01*
X77879480Y-123384150D01*
X77889970Y-123406329D01*
X77898235Y-123429428D01*
X77904196Y-123453227D01*
X77907796Y-123477495D01*
X77909000Y-123501999D01*
X77909000Y-124402001D01*
X77907796Y-124426505D01*
X77904196Y-124450773D01*
X77898235Y-124474572D01*
X77889970Y-124497671D01*
X77879480Y-124519850D01*
X77866868Y-124540893D01*
X77852253Y-124560599D01*
X77835777Y-124578777D01*
X77817599Y-124595253D01*
X77797893Y-124609868D01*
X77776850Y-124622480D01*
X77754671Y-124632970D01*
X77731572Y-124641235D01*
X77707773Y-124647196D01*
X77683505Y-124650796D01*
X77659001Y-124652000D01*
X77008999Y-124652000D01*
X76984495Y-124650796D01*
X76960227Y-124647196D01*
X76936428Y-124641235D01*
X76913329Y-124632970D01*
X76891150Y-124622480D01*
X76870107Y-124609868D01*
X76850401Y-124595253D01*
X76832223Y-124578777D01*
X76815747Y-124560599D01*
X76801132Y-124540893D01*
X76788520Y-124519850D01*
X76778030Y-124497671D01*
X76769765Y-124474572D01*
X76763804Y-124450773D01*
X76760204Y-124426505D01*
X76759000Y-124402001D01*
X76759000Y-123501999D01*
X76760204Y-123477495D01*
X76763804Y-123453227D01*
X76769765Y-123429428D01*
X76778030Y-123406329D01*
X76788520Y-123384150D01*
X76801132Y-123363107D01*
X76815747Y-123343401D01*
X76832223Y-123325223D01*
X76850401Y-123308747D01*
X76870107Y-123294132D01*
X76891150Y-123281520D01*
X76913329Y-123271030D01*
X76936428Y-123262765D01*
X76960227Y-123256804D01*
X76984495Y-123253204D01*
X77008999Y-123252000D01*
X77659001Y-123252000D01*
X77683505Y-123253204D01*
X77683505Y-123253204D01*
G37*
D15*
X77334000Y-123952000D03*
D14*
G36*
X78817505Y-135826204D02*
G01*
X78841773Y-135829804D01*
X78865572Y-135835765D01*
X78888671Y-135844030D01*
X78910850Y-135854520D01*
X78931893Y-135867132D01*
X78951599Y-135881747D01*
X78969777Y-135898223D01*
X78986253Y-135916401D01*
X79000868Y-135936107D01*
X79013480Y-135957150D01*
X79023970Y-135979329D01*
X79032235Y-136002428D01*
X79038196Y-136026227D01*
X79041796Y-136050495D01*
X79043000Y-136074999D01*
X79043000Y-136975001D01*
X79041796Y-136999505D01*
X79038196Y-137023773D01*
X79032235Y-137047572D01*
X79023970Y-137070671D01*
X79013480Y-137092850D01*
X79000868Y-137113893D01*
X78986253Y-137133599D01*
X78969777Y-137151777D01*
X78951599Y-137168253D01*
X78931893Y-137182868D01*
X78910850Y-137195480D01*
X78888671Y-137205970D01*
X78865572Y-137214235D01*
X78841773Y-137220196D01*
X78817505Y-137223796D01*
X78793001Y-137225000D01*
X78142999Y-137225000D01*
X78118495Y-137223796D01*
X78094227Y-137220196D01*
X78070428Y-137214235D01*
X78047329Y-137205970D01*
X78025150Y-137195480D01*
X78004107Y-137182868D01*
X77984401Y-137168253D01*
X77966223Y-137151777D01*
X77949747Y-137133599D01*
X77935132Y-137113893D01*
X77922520Y-137092850D01*
X77912030Y-137070671D01*
X77903765Y-137047572D01*
X77897804Y-137023773D01*
X77894204Y-136999505D01*
X77893000Y-136975001D01*
X77893000Y-136074999D01*
X77894204Y-136050495D01*
X77897804Y-136026227D01*
X77903765Y-136002428D01*
X77912030Y-135979329D01*
X77922520Y-135957150D01*
X77935132Y-135936107D01*
X77949747Y-135916401D01*
X77966223Y-135898223D01*
X77984401Y-135881747D01*
X78004107Y-135867132D01*
X78025150Y-135854520D01*
X78047329Y-135844030D01*
X78070428Y-135835765D01*
X78094227Y-135829804D01*
X78118495Y-135826204D01*
X78142999Y-135825000D01*
X78793001Y-135825000D01*
X78817505Y-135826204D01*
X78817505Y-135826204D01*
G37*
D15*
X78468000Y-136525000D03*
D14*
G36*
X80867505Y-135826204D02*
G01*
X80891773Y-135829804D01*
X80915572Y-135835765D01*
X80938671Y-135844030D01*
X80960850Y-135854520D01*
X80981893Y-135867132D01*
X81001599Y-135881747D01*
X81019777Y-135898223D01*
X81036253Y-135916401D01*
X81050868Y-135936107D01*
X81063480Y-135957150D01*
X81073970Y-135979329D01*
X81082235Y-136002428D01*
X81088196Y-136026227D01*
X81091796Y-136050495D01*
X81093000Y-136074999D01*
X81093000Y-136975001D01*
X81091796Y-136999505D01*
X81088196Y-137023773D01*
X81082235Y-137047572D01*
X81073970Y-137070671D01*
X81063480Y-137092850D01*
X81050868Y-137113893D01*
X81036253Y-137133599D01*
X81019777Y-137151777D01*
X81001599Y-137168253D01*
X80981893Y-137182868D01*
X80960850Y-137195480D01*
X80938671Y-137205970D01*
X80915572Y-137214235D01*
X80891773Y-137220196D01*
X80867505Y-137223796D01*
X80843001Y-137225000D01*
X80192999Y-137225000D01*
X80168495Y-137223796D01*
X80144227Y-137220196D01*
X80120428Y-137214235D01*
X80097329Y-137205970D01*
X80075150Y-137195480D01*
X80054107Y-137182868D01*
X80034401Y-137168253D01*
X80016223Y-137151777D01*
X79999747Y-137133599D01*
X79985132Y-137113893D01*
X79972520Y-137092850D01*
X79962030Y-137070671D01*
X79953765Y-137047572D01*
X79947804Y-137023773D01*
X79944204Y-136999505D01*
X79943000Y-136975001D01*
X79943000Y-136074999D01*
X79944204Y-136050495D01*
X79947804Y-136026227D01*
X79953765Y-136002428D01*
X79962030Y-135979329D01*
X79972520Y-135957150D01*
X79985132Y-135936107D01*
X79999747Y-135916401D01*
X80016223Y-135898223D01*
X80034401Y-135881747D01*
X80054107Y-135867132D01*
X80075150Y-135854520D01*
X80097329Y-135844030D01*
X80120428Y-135835765D01*
X80144227Y-135829804D01*
X80168495Y-135826204D01*
X80192999Y-135825000D01*
X80843001Y-135825000D01*
X80867505Y-135826204D01*
X80867505Y-135826204D01*
G37*
D15*
X80518000Y-136525000D03*
D14*
G36*
X79978505Y-146113204D02*
G01*
X80002773Y-146116804D01*
X80026572Y-146122765D01*
X80049671Y-146131030D01*
X80071850Y-146141520D01*
X80092893Y-146154132D01*
X80112599Y-146168747D01*
X80130777Y-146185223D01*
X80147253Y-146203401D01*
X80161868Y-146223107D01*
X80174480Y-146244150D01*
X80184970Y-146266329D01*
X80193235Y-146289428D01*
X80199196Y-146313227D01*
X80202796Y-146337495D01*
X80204000Y-146361999D01*
X80204000Y-147262001D01*
X80202796Y-147286505D01*
X80199196Y-147310773D01*
X80193235Y-147334572D01*
X80184970Y-147357671D01*
X80174480Y-147379850D01*
X80161868Y-147400893D01*
X80147253Y-147420599D01*
X80130777Y-147438777D01*
X80112599Y-147455253D01*
X80092893Y-147469868D01*
X80071850Y-147482480D01*
X80049671Y-147492970D01*
X80026572Y-147501235D01*
X80002773Y-147507196D01*
X79978505Y-147510796D01*
X79954001Y-147512000D01*
X79303999Y-147512000D01*
X79279495Y-147510796D01*
X79255227Y-147507196D01*
X79231428Y-147501235D01*
X79208329Y-147492970D01*
X79186150Y-147482480D01*
X79165107Y-147469868D01*
X79145401Y-147455253D01*
X79127223Y-147438777D01*
X79110747Y-147420599D01*
X79096132Y-147400893D01*
X79083520Y-147379850D01*
X79073030Y-147357671D01*
X79064765Y-147334572D01*
X79058804Y-147310773D01*
X79055204Y-147286505D01*
X79054000Y-147262001D01*
X79054000Y-146361999D01*
X79055204Y-146337495D01*
X79058804Y-146313227D01*
X79064765Y-146289428D01*
X79073030Y-146266329D01*
X79083520Y-146244150D01*
X79096132Y-146223107D01*
X79110747Y-146203401D01*
X79127223Y-146185223D01*
X79145401Y-146168747D01*
X79165107Y-146154132D01*
X79186150Y-146141520D01*
X79208329Y-146131030D01*
X79231428Y-146122765D01*
X79255227Y-146116804D01*
X79279495Y-146113204D01*
X79303999Y-146112000D01*
X79954001Y-146112000D01*
X79978505Y-146113204D01*
X79978505Y-146113204D01*
G37*
D15*
X79629000Y-146812000D03*
D14*
G36*
X77928505Y-146113204D02*
G01*
X77952773Y-146116804D01*
X77976572Y-146122765D01*
X77999671Y-146131030D01*
X78021850Y-146141520D01*
X78042893Y-146154132D01*
X78062599Y-146168747D01*
X78080777Y-146185223D01*
X78097253Y-146203401D01*
X78111868Y-146223107D01*
X78124480Y-146244150D01*
X78134970Y-146266329D01*
X78143235Y-146289428D01*
X78149196Y-146313227D01*
X78152796Y-146337495D01*
X78154000Y-146361999D01*
X78154000Y-147262001D01*
X78152796Y-147286505D01*
X78149196Y-147310773D01*
X78143235Y-147334572D01*
X78134970Y-147357671D01*
X78124480Y-147379850D01*
X78111868Y-147400893D01*
X78097253Y-147420599D01*
X78080777Y-147438777D01*
X78062599Y-147455253D01*
X78042893Y-147469868D01*
X78021850Y-147482480D01*
X77999671Y-147492970D01*
X77976572Y-147501235D01*
X77952773Y-147507196D01*
X77928505Y-147510796D01*
X77904001Y-147512000D01*
X77253999Y-147512000D01*
X77229495Y-147510796D01*
X77205227Y-147507196D01*
X77181428Y-147501235D01*
X77158329Y-147492970D01*
X77136150Y-147482480D01*
X77115107Y-147469868D01*
X77095401Y-147455253D01*
X77077223Y-147438777D01*
X77060747Y-147420599D01*
X77046132Y-147400893D01*
X77033520Y-147379850D01*
X77023030Y-147357671D01*
X77014765Y-147334572D01*
X77008804Y-147310773D01*
X77005204Y-147286505D01*
X77004000Y-147262001D01*
X77004000Y-146361999D01*
X77005204Y-146337495D01*
X77008804Y-146313227D01*
X77014765Y-146289428D01*
X77023030Y-146266329D01*
X77033520Y-146244150D01*
X77046132Y-146223107D01*
X77060747Y-146203401D01*
X77077223Y-146185223D01*
X77095401Y-146168747D01*
X77115107Y-146154132D01*
X77136150Y-146141520D01*
X77158329Y-146131030D01*
X77181428Y-146122765D01*
X77205227Y-146116804D01*
X77229495Y-146113204D01*
X77253999Y-146112000D01*
X77904001Y-146112000D01*
X77928505Y-146113204D01*
X77928505Y-146113204D01*
G37*
D15*
X77579000Y-146812000D03*
D14*
G36*
X79996505Y-144081204D02*
G01*
X80020773Y-144084804D01*
X80044572Y-144090765D01*
X80067671Y-144099030D01*
X80089850Y-144109520D01*
X80110893Y-144122132D01*
X80130599Y-144136747D01*
X80148777Y-144153223D01*
X80165253Y-144171401D01*
X80179868Y-144191107D01*
X80192480Y-144212150D01*
X80202970Y-144234329D01*
X80211235Y-144257428D01*
X80217196Y-144281227D01*
X80220796Y-144305495D01*
X80222000Y-144329999D01*
X80222000Y-145230001D01*
X80220796Y-145254505D01*
X80217196Y-145278773D01*
X80211235Y-145302572D01*
X80202970Y-145325671D01*
X80192480Y-145347850D01*
X80179868Y-145368893D01*
X80165253Y-145388599D01*
X80148777Y-145406777D01*
X80130599Y-145423253D01*
X80110893Y-145437868D01*
X80089850Y-145450480D01*
X80067671Y-145460970D01*
X80044572Y-145469235D01*
X80020773Y-145475196D01*
X79996505Y-145478796D01*
X79972001Y-145480000D01*
X79321999Y-145480000D01*
X79297495Y-145478796D01*
X79273227Y-145475196D01*
X79249428Y-145469235D01*
X79226329Y-145460970D01*
X79204150Y-145450480D01*
X79183107Y-145437868D01*
X79163401Y-145423253D01*
X79145223Y-145406777D01*
X79128747Y-145388599D01*
X79114132Y-145368893D01*
X79101520Y-145347850D01*
X79091030Y-145325671D01*
X79082765Y-145302572D01*
X79076804Y-145278773D01*
X79073204Y-145254505D01*
X79072000Y-145230001D01*
X79072000Y-144329999D01*
X79073204Y-144305495D01*
X79076804Y-144281227D01*
X79082765Y-144257428D01*
X79091030Y-144234329D01*
X79101520Y-144212150D01*
X79114132Y-144191107D01*
X79128747Y-144171401D01*
X79145223Y-144153223D01*
X79163401Y-144136747D01*
X79183107Y-144122132D01*
X79204150Y-144109520D01*
X79226329Y-144099030D01*
X79249428Y-144090765D01*
X79273227Y-144084804D01*
X79297495Y-144081204D01*
X79321999Y-144080000D01*
X79972001Y-144080000D01*
X79996505Y-144081204D01*
X79996505Y-144081204D01*
G37*
D15*
X79647000Y-144780000D03*
D14*
G36*
X77946505Y-144081204D02*
G01*
X77970773Y-144084804D01*
X77994572Y-144090765D01*
X78017671Y-144099030D01*
X78039850Y-144109520D01*
X78060893Y-144122132D01*
X78080599Y-144136747D01*
X78098777Y-144153223D01*
X78115253Y-144171401D01*
X78129868Y-144191107D01*
X78142480Y-144212150D01*
X78152970Y-144234329D01*
X78161235Y-144257428D01*
X78167196Y-144281227D01*
X78170796Y-144305495D01*
X78172000Y-144329999D01*
X78172000Y-145230001D01*
X78170796Y-145254505D01*
X78167196Y-145278773D01*
X78161235Y-145302572D01*
X78152970Y-145325671D01*
X78142480Y-145347850D01*
X78129868Y-145368893D01*
X78115253Y-145388599D01*
X78098777Y-145406777D01*
X78080599Y-145423253D01*
X78060893Y-145437868D01*
X78039850Y-145450480D01*
X78017671Y-145460970D01*
X77994572Y-145469235D01*
X77970773Y-145475196D01*
X77946505Y-145478796D01*
X77922001Y-145480000D01*
X77271999Y-145480000D01*
X77247495Y-145478796D01*
X77223227Y-145475196D01*
X77199428Y-145469235D01*
X77176329Y-145460970D01*
X77154150Y-145450480D01*
X77133107Y-145437868D01*
X77113401Y-145423253D01*
X77095223Y-145406777D01*
X77078747Y-145388599D01*
X77064132Y-145368893D01*
X77051520Y-145347850D01*
X77041030Y-145325671D01*
X77032765Y-145302572D01*
X77026804Y-145278773D01*
X77023204Y-145254505D01*
X77022000Y-145230001D01*
X77022000Y-144329999D01*
X77023204Y-144305495D01*
X77026804Y-144281227D01*
X77032765Y-144257428D01*
X77041030Y-144234329D01*
X77051520Y-144212150D01*
X77064132Y-144191107D01*
X77078747Y-144171401D01*
X77095223Y-144153223D01*
X77113401Y-144136747D01*
X77133107Y-144122132D01*
X77154150Y-144109520D01*
X77176329Y-144099030D01*
X77199428Y-144090765D01*
X77223227Y-144084804D01*
X77247495Y-144081204D01*
X77271999Y-144080000D01*
X77922001Y-144080000D01*
X77946505Y-144081204D01*
X77946505Y-144081204D01*
G37*
D15*
X77597000Y-144780000D03*
D14*
G36*
X87607505Y-146113204D02*
G01*
X87631773Y-146116804D01*
X87655572Y-146122765D01*
X87678671Y-146131030D01*
X87700850Y-146141520D01*
X87721893Y-146154132D01*
X87741599Y-146168747D01*
X87759777Y-146185223D01*
X87776253Y-146203401D01*
X87790868Y-146223107D01*
X87803480Y-146244150D01*
X87813970Y-146266329D01*
X87822235Y-146289428D01*
X87828196Y-146313227D01*
X87831796Y-146337495D01*
X87833000Y-146361999D01*
X87833000Y-147262001D01*
X87831796Y-147286505D01*
X87828196Y-147310773D01*
X87822235Y-147334572D01*
X87813970Y-147357671D01*
X87803480Y-147379850D01*
X87790868Y-147400893D01*
X87776253Y-147420599D01*
X87759777Y-147438777D01*
X87741599Y-147455253D01*
X87721893Y-147469868D01*
X87700850Y-147482480D01*
X87678671Y-147492970D01*
X87655572Y-147501235D01*
X87631773Y-147507196D01*
X87607505Y-147510796D01*
X87583001Y-147512000D01*
X86932999Y-147512000D01*
X86908495Y-147510796D01*
X86884227Y-147507196D01*
X86860428Y-147501235D01*
X86837329Y-147492970D01*
X86815150Y-147482480D01*
X86794107Y-147469868D01*
X86774401Y-147455253D01*
X86756223Y-147438777D01*
X86739747Y-147420599D01*
X86725132Y-147400893D01*
X86712520Y-147379850D01*
X86702030Y-147357671D01*
X86693765Y-147334572D01*
X86687804Y-147310773D01*
X86684204Y-147286505D01*
X86683000Y-147262001D01*
X86683000Y-146361999D01*
X86684204Y-146337495D01*
X86687804Y-146313227D01*
X86693765Y-146289428D01*
X86702030Y-146266329D01*
X86712520Y-146244150D01*
X86725132Y-146223107D01*
X86739747Y-146203401D01*
X86756223Y-146185223D01*
X86774401Y-146168747D01*
X86794107Y-146154132D01*
X86815150Y-146141520D01*
X86837329Y-146131030D01*
X86860428Y-146122765D01*
X86884227Y-146116804D01*
X86908495Y-146113204D01*
X86932999Y-146112000D01*
X87583001Y-146112000D01*
X87607505Y-146113204D01*
X87607505Y-146113204D01*
G37*
D15*
X87258000Y-146812000D03*
D14*
G36*
X85557505Y-146113204D02*
G01*
X85581773Y-146116804D01*
X85605572Y-146122765D01*
X85628671Y-146131030D01*
X85650850Y-146141520D01*
X85671893Y-146154132D01*
X85691599Y-146168747D01*
X85709777Y-146185223D01*
X85726253Y-146203401D01*
X85740868Y-146223107D01*
X85753480Y-146244150D01*
X85763970Y-146266329D01*
X85772235Y-146289428D01*
X85778196Y-146313227D01*
X85781796Y-146337495D01*
X85783000Y-146361999D01*
X85783000Y-147262001D01*
X85781796Y-147286505D01*
X85778196Y-147310773D01*
X85772235Y-147334572D01*
X85763970Y-147357671D01*
X85753480Y-147379850D01*
X85740868Y-147400893D01*
X85726253Y-147420599D01*
X85709777Y-147438777D01*
X85691599Y-147455253D01*
X85671893Y-147469868D01*
X85650850Y-147482480D01*
X85628671Y-147492970D01*
X85605572Y-147501235D01*
X85581773Y-147507196D01*
X85557505Y-147510796D01*
X85533001Y-147512000D01*
X84882999Y-147512000D01*
X84858495Y-147510796D01*
X84834227Y-147507196D01*
X84810428Y-147501235D01*
X84787329Y-147492970D01*
X84765150Y-147482480D01*
X84744107Y-147469868D01*
X84724401Y-147455253D01*
X84706223Y-147438777D01*
X84689747Y-147420599D01*
X84675132Y-147400893D01*
X84662520Y-147379850D01*
X84652030Y-147357671D01*
X84643765Y-147334572D01*
X84637804Y-147310773D01*
X84634204Y-147286505D01*
X84633000Y-147262001D01*
X84633000Y-146361999D01*
X84634204Y-146337495D01*
X84637804Y-146313227D01*
X84643765Y-146289428D01*
X84652030Y-146266329D01*
X84662520Y-146244150D01*
X84675132Y-146223107D01*
X84689747Y-146203401D01*
X84706223Y-146185223D01*
X84724401Y-146168747D01*
X84744107Y-146154132D01*
X84765150Y-146141520D01*
X84787329Y-146131030D01*
X84810428Y-146122765D01*
X84834227Y-146116804D01*
X84858495Y-146113204D01*
X84882999Y-146112000D01*
X85533001Y-146112000D01*
X85557505Y-146113204D01*
X85557505Y-146113204D01*
G37*
D15*
X85208000Y-146812000D03*
D14*
G36*
X67022505Y-140668204D02*
G01*
X67046773Y-140671804D01*
X67070572Y-140677765D01*
X67093671Y-140686030D01*
X67115850Y-140696520D01*
X67136893Y-140709132D01*
X67156599Y-140723747D01*
X67174777Y-140740223D01*
X67191253Y-140758401D01*
X67205868Y-140778107D01*
X67218480Y-140799150D01*
X67228970Y-140821329D01*
X67237235Y-140844428D01*
X67243196Y-140868227D01*
X67246796Y-140892495D01*
X67248000Y-140916999D01*
X67248000Y-141567001D01*
X67246796Y-141591505D01*
X67243196Y-141615773D01*
X67237235Y-141639572D01*
X67228970Y-141662671D01*
X67218480Y-141684850D01*
X67205868Y-141705893D01*
X67191253Y-141725599D01*
X67174777Y-141743777D01*
X67156599Y-141760253D01*
X67136893Y-141774868D01*
X67115850Y-141787480D01*
X67093671Y-141797970D01*
X67070572Y-141806235D01*
X67046773Y-141812196D01*
X67022505Y-141815796D01*
X66998001Y-141817000D01*
X66097999Y-141817000D01*
X66073495Y-141815796D01*
X66049227Y-141812196D01*
X66025428Y-141806235D01*
X66002329Y-141797970D01*
X65980150Y-141787480D01*
X65959107Y-141774868D01*
X65939401Y-141760253D01*
X65921223Y-141743777D01*
X65904747Y-141725599D01*
X65890132Y-141705893D01*
X65877520Y-141684850D01*
X65867030Y-141662671D01*
X65858765Y-141639572D01*
X65852804Y-141615773D01*
X65849204Y-141591505D01*
X65848000Y-141567001D01*
X65848000Y-140916999D01*
X65849204Y-140892495D01*
X65852804Y-140868227D01*
X65858765Y-140844428D01*
X65867030Y-140821329D01*
X65877520Y-140799150D01*
X65890132Y-140778107D01*
X65904747Y-140758401D01*
X65921223Y-140740223D01*
X65939401Y-140723747D01*
X65959107Y-140709132D01*
X65980150Y-140696520D01*
X66002329Y-140686030D01*
X66025428Y-140677765D01*
X66049227Y-140671804D01*
X66073495Y-140668204D01*
X66097999Y-140667000D01*
X66998001Y-140667000D01*
X67022505Y-140668204D01*
X67022505Y-140668204D01*
G37*
D15*
X66548000Y-141242000D03*
D14*
G36*
X67022505Y-138618204D02*
G01*
X67046773Y-138621804D01*
X67070572Y-138627765D01*
X67093671Y-138636030D01*
X67115850Y-138646520D01*
X67136893Y-138659132D01*
X67156599Y-138673747D01*
X67174777Y-138690223D01*
X67191253Y-138708401D01*
X67205868Y-138728107D01*
X67218480Y-138749150D01*
X67228970Y-138771329D01*
X67237235Y-138794428D01*
X67243196Y-138818227D01*
X67246796Y-138842495D01*
X67248000Y-138866999D01*
X67248000Y-139517001D01*
X67246796Y-139541505D01*
X67243196Y-139565773D01*
X67237235Y-139589572D01*
X67228970Y-139612671D01*
X67218480Y-139634850D01*
X67205868Y-139655893D01*
X67191253Y-139675599D01*
X67174777Y-139693777D01*
X67156599Y-139710253D01*
X67136893Y-139724868D01*
X67115850Y-139737480D01*
X67093671Y-139747970D01*
X67070572Y-139756235D01*
X67046773Y-139762196D01*
X67022505Y-139765796D01*
X66998001Y-139767000D01*
X66097999Y-139767000D01*
X66073495Y-139765796D01*
X66049227Y-139762196D01*
X66025428Y-139756235D01*
X66002329Y-139747970D01*
X65980150Y-139737480D01*
X65959107Y-139724868D01*
X65939401Y-139710253D01*
X65921223Y-139693777D01*
X65904747Y-139675599D01*
X65890132Y-139655893D01*
X65877520Y-139634850D01*
X65867030Y-139612671D01*
X65858765Y-139589572D01*
X65852804Y-139565773D01*
X65849204Y-139541505D01*
X65848000Y-139517001D01*
X65848000Y-138866999D01*
X65849204Y-138842495D01*
X65852804Y-138818227D01*
X65858765Y-138794428D01*
X65867030Y-138771329D01*
X65877520Y-138749150D01*
X65890132Y-138728107D01*
X65904747Y-138708401D01*
X65921223Y-138690223D01*
X65939401Y-138673747D01*
X65959107Y-138659132D01*
X65980150Y-138646520D01*
X66002329Y-138636030D01*
X66025428Y-138627765D01*
X66049227Y-138621804D01*
X66073495Y-138618204D01*
X66097999Y-138617000D01*
X66998001Y-138617000D01*
X67022505Y-138618204D01*
X67022505Y-138618204D01*
G37*
D15*
X66548000Y-139192000D03*
D14*
G36*
X78971505Y-132397204D02*
G01*
X78995773Y-132400804D01*
X79019572Y-132406765D01*
X79042671Y-132415030D01*
X79064850Y-132425520D01*
X79085893Y-132438132D01*
X79105599Y-132452747D01*
X79123777Y-132469223D01*
X79140253Y-132487401D01*
X79154868Y-132507107D01*
X79167480Y-132528150D01*
X79177970Y-132550329D01*
X79186235Y-132573428D01*
X79192196Y-132597227D01*
X79195796Y-132621495D01*
X79197000Y-132645999D01*
X79197000Y-133546001D01*
X79195796Y-133570505D01*
X79192196Y-133594773D01*
X79186235Y-133618572D01*
X79177970Y-133641671D01*
X79167480Y-133663850D01*
X79154868Y-133684893D01*
X79140253Y-133704599D01*
X79123777Y-133722777D01*
X79105599Y-133739253D01*
X79085893Y-133753868D01*
X79064850Y-133766480D01*
X79042671Y-133776970D01*
X79019572Y-133785235D01*
X78995773Y-133791196D01*
X78971505Y-133794796D01*
X78947001Y-133796000D01*
X78296999Y-133796000D01*
X78272495Y-133794796D01*
X78248227Y-133791196D01*
X78224428Y-133785235D01*
X78201329Y-133776970D01*
X78179150Y-133766480D01*
X78158107Y-133753868D01*
X78138401Y-133739253D01*
X78120223Y-133722777D01*
X78103747Y-133704599D01*
X78089132Y-133684893D01*
X78076520Y-133663850D01*
X78066030Y-133641671D01*
X78057765Y-133618572D01*
X78051804Y-133594773D01*
X78048204Y-133570505D01*
X78047000Y-133546001D01*
X78047000Y-132645999D01*
X78048204Y-132621495D01*
X78051804Y-132597227D01*
X78057765Y-132573428D01*
X78066030Y-132550329D01*
X78076520Y-132528150D01*
X78089132Y-132507107D01*
X78103747Y-132487401D01*
X78120223Y-132469223D01*
X78138401Y-132452747D01*
X78158107Y-132438132D01*
X78179150Y-132425520D01*
X78201329Y-132415030D01*
X78224428Y-132406765D01*
X78248227Y-132400804D01*
X78272495Y-132397204D01*
X78296999Y-132396000D01*
X78947001Y-132396000D01*
X78971505Y-132397204D01*
X78971505Y-132397204D01*
G37*
D15*
X78622000Y-133096000D03*
D14*
G36*
X76921505Y-132397204D02*
G01*
X76945773Y-132400804D01*
X76969572Y-132406765D01*
X76992671Y-132415030D01*
X77014850Y-132425520D01*
X77035893Y-132438132D01*
X77055599Y-132452747D01*
X77073777Y-132469223D01*
X77090253Y-132487401D01*
X77104868Y-132507107D01*
X77117480Y-132528150D01*
X77127970Y-132550329D01*
X77136235Y-132573428D01*
X77142196Y-132597227D01*
X77145796Y-132621495D01*
X77147000Y-132645999D01*
X77147000Y-133546001D01*
X77145796Y-133570505D01*
X77142196Y-133594773D01*
X77136235Y-133618572D01*
X77127970Y-133641671D01*
X77117480Y-133663850D01*
X77104868Y-133684893D01*
X77090253Y-133704599D01*
X77073777Y-133722777D01*
X77055599Y-133739253D01*
X77035893Y-133753868D01*
X77014850Y-133766480D01*
X76992671Y-133776970D01*
X76969572Y-133785235D01*
X76945773Y-133791196D01*
X76921505Y-133794796D01*
X76897001Y-133796000D01*
X76246999Y-133796000D01*
X76222495Y-133794796D01*
X76198227Y-133791196D01*
X76174428Y-133785235D01*
X76151329Y-133776970D01*
X76129150Y-133766480D01*
X76108107Y-133753868D01*
X76088401Y-133739253D01*
X76070223Y-133722777D01*
X76053747Y-133704599D01*
X76039132Y-133684893D01*
X76026520Y-133663850D01*
X76016030Y-133641671D01*
X76007765Y-133618572D01*
X76001804Y-133594773D01*
X75998204Y-133570505D01*
X75997000Y-133546001D01*
X75997000Y-132645999D01*
X75998204Y-132621495D01*
X76001804Y-132597227D01*
X76007765Y-132573428D01*
X76016030Y-132550329D01*
X76026520Y-132528150D01*
X76039132Y-132507107D01*
X76053747Y-132487401D01*
X76070223Y-132469223D01*
X76088401Y-132452747D01*
X76108107Y-132438132D01*
X76129150Y-132425520D01*
X76151329Y-132415030D01*
X76174428Y-132406765D01*
X76198227Y-132400804D01*
X76222495Y-132397204D01*
X76246999Y-132396000D01*
X76897001Y-132396000D01*
X76921505Y-132397204D01*
X76921505Y-132397204D01*
G37*
D15*
X76572000Y-133096000D03*
D14*
G36*
X70462505Y-122872204D02*
G01*
X70486773Y-122875804D01*
X70510572Y-122881765D01*
X70533671Y-122890030D01*
X70555850Y-122900520D01*
X70576893Y-122913132D01*
X70596599Y-122927747D01*
X70614777Y-122944223D01*
X70631253Y-122962401D01*
X70645868Y-122982107D01*
X70658480Y-123003150D01*
X70668970Y-123025329D01*
X70677235Y-123048428D01*
X70683196Y-123072227D01*
X70686796Y-123096495D01*
X70688000Y-123120999D01*
X70688000Y-124021001D01*
X70686796Y-124045505D01*
X70683196Y-124069773D01*
X70677235Y-124093572D01*
X70668970Y-124116671D01*
X70658480Y-124138850D01*
X70645868Y-124159893D01*
X70631253Y-124179599D01*
X70614777Y-124197777D01*
X70596599Y-124214253D01*
X70576893Y-124228868D01*
X70555850Y-124241480D01*
X70533671Y-124251970D01*
X70510572Y-124260235D01*
X70486773Y-124266196D01*
X70462505Y-124269796D01*
X70438001Y-124271000D01*
X69787999Y-124271000D01*
X69763495Y-124269796D01*
X69739227Y-124266196D01*
X69715428Y-124260235D01*
X69692329Y-124251970D01*
X69670150Y-124241480D01*
X69649107Y-124228868D01*
X69629401Y-124214253D01*
X69611223Y-124197777D01*
X69594747Y-124179599D01*
X69580132Y-124159893D01*
X69567520Y-124138850D01*
X69557030Y-124116671D01*
X69548765Y-124093572D01*
X69542804Y-124069773D01*
X69539204Y-124045505D01*
X69538000Y-124021001D01*
X69538000Y-123120999D01*
X69539204Y-123096495D01*
X69542804Y-123072227D01*
X69548765Y-123048428D01*
X69557030Y-123025329D01*
X69567520Y-123003150D01*
X69580132Y-122982107D01*
X69594747Y-122962401D01*
X69611223Y-122944223D01*
X69629401Y-122927747D01*
X69649107Y-122913132D01*
X69670150Y-122900520D01*
X69692329Y-122890030D01*
X69715428Y-122881765D01*
X69739227Y-122875804D01*
X69763495Y-122872204D01*
X69787999Y-122871000D01*
X70438001Y-122871000D01*
X70462505Y-122872204D01*
X70462505Y-122872204D01*
G37*
D15*
X70113000Y-123571000D03*
D14*
G36*
X68412505Y-122872204D02*
G01*
X68436773Y-122875804D01*
X68460572Y-122881765D01*
X68483671Y-122890030D01*
X68505850Y-122900520D01*
X68526893Y-122913132D01*
X68546599Y-122927747D01*
X68564777Y-122944223D01*
X68581253Y-122962401D01*
X68595868Y-122982107D01*
X68608480Y-123003150D01*
X68618970Y-123025329D01*
X68627235Y-123048428D01*
X68633196Y-123072227D01*
X68636796Y-123096495D01*
X68638000Y-123120999D01*
X68638000Y-124021001D01*
X68636796Y-124045505D01*
X68633196Y-124069773D01*
X68627235Y-124093572D01*
X68618970Y-124116671D01*
X68608480Y-124138850D01*
X68595868Y-124159893D01*
X68581253Y-124179599D01*
X68564777Y-124197777D01*
X68546599Y-124214253D01*
X68526893Y-124228868D01*
X68505850Y-124241480D01*
X68483671Y-124251970D01*
X68460572Y-124260235D01*
X68436773Y-124266196D01*
X68412505Y-124269796D01*
X68388001Y-124271000D01*
X67737999Y-124271000D01*
X67713495Y-124269796D01*
X67689227Y-124266196D01*
X67665428Y-124260235D01*
X67642329Y-124251970D01*
X67620150Y-124241480D01*
X67599107Y-124228868D01*
X67579401Y-124214253D01*
X67561223Y-124197777D01*
X67544747Y-124179599D01*
X67530132Y-124159893D01*
X67517520Y-124138850D01*
X67507030Y-124116671D01*
X67498765Y-124093572D01*
X67492804Y-124069773D01*
X67489204Y-124045505D01*
X67488000Y-124021001D01*
X67488000Y-123120999D01*
X67489204Y-123096495D01*
X67492804Y-123072227D01*
X67498765Y-123048428D01*
X67507030Y-123025329D01*
X67517520Y-123003150D01*
X67530132Y-122982107D01*
X67544747Y-122962401D01*
X67561223Y-122944223D01*
X67579401Y-122927747D01*
X67599107Y-122913132D01*
X67620150Y-122900520D01*
X67642329Y-122890030D01*
X67665428Y-122881765D01*
X67689227Y-122875804D01*
X67713495Y-122872204D01*
X67737999Y-122871000D01*
X68388001Y-122871000D01*
X68412505Y-122872204D01*
X68412505Y-122872204D01*
G37*
D15*
X68063000Y-123571000D03*
M02*
