G04 #@! TF.GenerationSoftware,KiCad,Pcbnew,(5.1.0)-1*
G04 #@! TF.CreationDate,2019-07-05T16:38:03+02:00*
G04 #@! TF.ProjectId,BSPD_SMD,42535044-5f53-44d4-942e-6b696361645f,rev?*
G04 #@! TF.SameCoordinates,Original*
G04 #@! TF.FileFunction,Soldermask,Top*
G04 #@! TF.FilePolarity,Negative*
%FSLAX46Y46*%
G04 Gerber Fmt 4.6, Leading zero omitted, Abs format (unit mm)*
G04 Created by KiCad (PCBNEW (5.1.0)-1) date 2019-07-05 16:38:03*
%MOMM*%
%LPD*%
G04 APERTURE LIST*
%ADD10C,0.100000*%
G04 APERTURE END LIST*
D10*
G36*
X87688522Y-146116039D02*
G01*
X87722057Y-146126212D01*
X87752956Y-146142728D01*
X87780043Y-146164957D01*
X87802272Y-146192044D01*
X87818788Y-146222943D01*
X87828961Y-146256478D01*
X87833000Y-146297487D01*
X87833000Y-147326513D01*
X87828961Y-147367522D01*
X87818788Y-147401057D01*
X87802272Y-147431956D01*
X87780043Y-147459043D01*
X87752956Y-147481272D01*
X87722057Y-147497788D01*
X87688522Y-147507961D01*
X87647513Y-147512000D01*
X86868487Y-147512000D01*
X86827478Y-147507961D01*
X86793943Y-147497788D01*
X86763044Y-147481272D01*
X86735957Y-147459043D01*
X86713728Y-147431956D01*
X86697212Y-147401057D01*
X86687039Y-147367522D01*
X86683000Y-147326513D01*
X86683000Y-146297487D01*
X86687039Y-146256478D01*
X86697212Y-146222943D01*
X86713728Y-146192044D01*
X86735957Y-146164957D01*
X86763044Y-146142728D01*
X86793943Y-146126212D01*
X86827478Y-146116039D01*
X86868487Y-146112000D01*
X87647513Y-146112000D01*
X87688522Y-146116039D01*
X87688522Y-146116039D01*
G37*
G36*
X85638522Y-146116039D02*
G01*
X85672057Y-146126212D01*
X85702956Y-146142728D01*
X85730043Y-146164957D01*
X85752272Y-146192044D01*
X85768788Y-146222943D01*
X85778961Y-146256478D01*
X85783000Y-146297487D01*
X85783000Y-147326513D01*
X85778961Y-147367522D01*
X85768788Y-147401057D01*
X85752272Y-147431956D01*
X85730043Y-147459043D01*
X85702956Y-147481272D01*
X85672057Y-147497788D01*
X85638522Y-147507961D01*
X85597513Y-147512000D01*
X84818487Y-147512000D01*
X84777478Y-147507961D01*
X84743943Y-147497788D01*
X84713044Y-147481272D01*
X84685957Y-147459043D01*
X84663728Y-147431956D01*
X84647212Y-147401057D01*
X84637039Y-147367522D01*
X84633000Y-147326513D01*
X84633000Y-146297487D01*
X84637039Y-146256478D01*
X84647212Y-146222943D01*
X84663728Y-146192044D01*
X84685957Y-146164957D01*
X84713044Y-146142728D01*
X84743943Y-146126212D01*
X84777478Y-146116039D01*
X84818487Y-146112000D01*
X85597513Y-146112000D01*
X85638522Y-146116039D01*
X85638522Y-146116039D01*
G37*
G36*
X80059522Y-146116039D02*
G01*
X80093057Y-146126212D01*
X80123956Y-146142728D01*
X80151043Y-146164957D01*
X80173272Y-146192044D01*
X80189788Y-146222943D01*
X80199961Y-146256478D01*
X80204000Y-146297487D01*
X80204000Y-147326513D01*
X80199961Y-147367522D01*
X80189788Y-147401057D01*
X80173272Y-147431956D01*
X80151043Y-147459043D01*
X80123956Y-147481272D01*
X80093057Y-147497788D01*
X80059522Y-147507961D01*
X80018513Y-147512000D01*
X79239487Y-147512000D01*
X79198478Y-147507961D01*
X79164943Y-147497788D01*
X79134044Y-147481272D01*
X79106957Y-147459043D01*
X79084728Y-147431956D01*
X79068212Y-147401057D01*
X79058039Y-147367522D01*
X79054000Y-147326513D01*
X79054000Y-146297487D01*
X79058039Y-146256478D01*
X79068212Y-146222943D01*
X79084728Y-146192044D01*
X79106957Y-146164957D01*
X79134044Y-146142728D01*
X79164943Y-146126212D01*
X79198478Y-146116039D01*
X79239487Y-146112000D01*
X80018513Y-146112000D01*
X80059522Y-146116039D01*
X80059522Y-146116039D01*
G37*
G36*
X78009522Y-146116039D02*
G01*
X78043057Y-146126212D01*
X78073956Y-146142728D01*
X78101043Y-146164957D01*
X78123272Y-146192044D01*
X78139788Y-146222943D01*
X78149961Y-146256478D01*
X78154000Y-146297487D01*
X78154000Y-147326513D01*
X78149961Y-147367522D01*
X78139788Y-147401057D01*
X78123272Y-147431956D01*
X78101043Y-147459043D01*
X78073956Y-147481272D01*
X78043057Y-147497788D01*
X78009522Y-147507961D01*
X77968513Y-147512000D01*
X77189487Y-147512000D01*
X77148478Y-147507961D01*
X77114943Y-147497788D01*
X77084044Y-147481272D01*
X77056957Y-147459043D01*
X77034728Y-147431956D01*
X77018212Y-147401057D01*
X77008039Y-147367522D01*
X77004000Y-147326513D01*
X77004000Y-146297487D01*
X77008039Y-146256478D01*
X77018212Y-146222943D01*
X77034728Y-146192044D01*
X77056957Y-146164957D01*
X77084044Y-146142728D01*
X77114943Y-146126212D01*
X77148478Y-146116039D01*
X77189487Y-146112000D01*
X77968513Y-146112000D01*
X78009522Y-146116039D01*
X78009522Y-146116039D01*
G37*
G36*
X74081522Y-144084039D02*
G01*
X74115057Y-144094212D01*
X74145956Y-144110728D01*
X74173043Y-144132957D01*
X74195272Y-144160044D01*
X74211788Y-144190943D01*
X74221961Y-144224478D01*
X74226000Y-144265487D01*
X74226000Y-145294513D01*
X74221961Y-145335522D01*
X74211788Y-145369057D01*
X74195272Y-145399956D01*
X74173043Y-145427043D01*
X74145956Y-145449272D01*
X74115057Y-145465788D01*
X74081522Y-145475961D01*
X74040513Y-145480000D01*
X73261487Y-145480000D01*
X73220478Y-145475961D01*
X73186943Y-145465788D01*
X73156044Y-145449272D01*
X73128957Y-145427043D01*
X73106728Y-145399956D01*
X73090212Y-145369057D01*
X73080039Y-145335522D01*
X73076000Y-145294513D01*
X73076000Y-144265487D01*
X73080039Y-144224478D01*
X73090212Y-144190943D01*
X73106728Y-144160044D01*
X73128957Y-144132957D01*
X73156044Y-144110728D01*
X73186943Y-144094212D01*
X73220478Y-144084039D01*
X73261487Y-144080000D01*
X74040513Y-144080000D01*
X74081522Y-144084039D01*
X74081522Y-144084039D01*
G37*
G36*
X76131522Y-144084039D02*
G01*
X76165057Y-144094212D01*
X76195956Y-144110728D01*
X76223043Y-144132957D01*
X76245272Y-144160044D01*
X76261788Y-144190943D01*
X76271961Y-144224478D01*
X76276000Y-144265487D01*
X76276000Y-145294513D01*
X76271961Y-145335522D01*
X76261788Y-145369057D01*
X76245272Y-145399956D01*
X76223043Y-145427043D01*
X76195956Y-145449272D01*
X76165057Y-145465788D01*
X76131522Y-145475961D01*
X76090513Y-145480000D01*
X75311487Y-145480000D01*
X75270478Y-145475961D01*
X75236943Y-145465788D01*
X75206044Y-145449272D01*
X75178957Y-145427043D01*
X75156728Y-145399956D01*
X75140212Y-145369057D01*
X75130039Y-145335522D01*
X75126000Y-145294513D01*
X75126000Y-144265487D01*
X75130039Y-144224478D01*
X75140212Y-144190943D01*
X75156728Y-144160044D01*
X75178957Y-144132957D01*
X75206044Y-144110728D01*
X75236943Y-144094212D01*
X75270478Y-144084039D01*
X75311487Y-144080000D01*
X76090513Y-144080000D01*
X76131522Y-144084039D01*
X76131522Y-144084039D01*
G37*
G36*
X78027522Y-144084039D02*
G01*
X78061057Y-144094212D01*
X78091956Y-144110728D01*
X78119043Y-144132957D01*
X78141272Y-144160044D01*
X78157788Y-144190943D01*
X78167961Y-144224478D01*
X78172000Y-144265487D01*
X78172000Y-145294513D01*
X78167961Y-145335522D01*
X78157788Y-145369057D01*
X78141272Y-145399956D01*
X78119043Y-145427043D01*
X78091956Y-145449272D01*
X78061057Y-145465788D01*
X78027522Y-145475961D01*
X77986513Y-145480000D01*
X77207487Y-145480000D01*
X77166478Y-145475961D01*
X77132943Y-145465788D01*
X77102044Y-145449272D01*
X77074957Y-145427043D01*
X77052728Y-145399956D01*
X77036212Y-145369057D01*
X77026039Y-145335522D01*
X77022000Y-145294513D01*
X77022000Y-144265487D01*
X77026039Y-144224478D01*
X77036212Y-144190943D01*
X77052728Y-144160044D01*
X77074957Y-144132957D01*
X77102044Y-144110728D01*
X77132943Y-144094212D01*
X77166478Y-144084039D01*
X77207487Y-144080000D01*
X77986513Y-144080000D01*
X78027522Y-144084039D01*
X78027522Y-144084039D01*
G37*
G36*
X80077522Y-144084039D02*
G01*
X80111057Y-144094212D01*
X80141956Y-144110728D01*
X80169043Y-144132957D01*
X80191272Y-144160044D01*
X80207788Y-144190943D01*
X80217961Y-144224478D01*
X80222000Y-144265487D01*
X80222000Y-145294513D01*
X80217961Y-145335522D01*
X80207788Y-145369057D01*
X80191272Y-145399956D01*
X80169043Y-145427043D01*
X80141956Y-145449272D01*
X80111057Y-145465788D01*
X80077522Y-145475961D01*
X80036513Y-145480000D01*
X79257487Y-145480000D01*
X79216478Y-145475961D01*
X79182943Y-145465788D01*
X79152044Y-145449272D01*
X79124957Y-145427043D01*
X79102728Y-145399956D01*
X79086212Y-145369057D01*
X79076039Y-145335522D01*
X79072000Y-145294513D01*
X79072000Y-144265487D01*
X79076039Y-144224478D01*
X79086212Y-144190943D01*
X79102728Y-144160044D01*
X79124957Y-144132957D01*
X79152044Y-144110728D01*
X79182943Y-144094212D01*
X79216478Y-144084039D01*
X79257487Y-144080000D01*
X80036513Y-144080000D01*
X80077522Y-144084039D01*
X80077522Y-144084039D01*
G37*
G36*
X90779000Y-145368000D02*
G01*
X89879000Y-145368000D01*
X89879000Y-144568000D01*
X90779000Y-144568000D01*
X90779000Y-145368000D01*
X90779000Y-145368000D01*
G37*
G36*
X97883377Y-141116858D02*
G01*
X98247353Y-141267622D01*
X98247355Y-141267623D01*
X98375937Y-141353539D01*
X98574925Y-141486498D01*
X98853502Y-141765075D01*
X98878701Y-141802788D01*
X99037175Y-142039961D01*
X99072378Y-142092647D01*
X99223142Y-142456623D01*
X99300000Y-142843016D01*
X99300000Y-143236984D01*
X99223142Y-143623377D01*
X99088048Y-143949522D01*
X99072377Y-143987355D01*
X99007775Y-144084039D01*
X98913937Y-144224478D01*
X98853501Y-144314926D01*
X98574926Y-144593501D01*
X98247355Y-144812377D01*
X98247354Y-144812378D01*
X98247353Y-144812378D01*
X97883377Y-144963142D01*
X97496984Y-145040000D01*
X97103016Y-145040000D01*
X96716623Y-144963142D01*
X96352647Y-144812378D01*
X96352646Y-144812378D01*
X96352645Y-144812377D01*
X96025074Y-144593501D01*
X95746499Y-144314926D01*
X95686064Y-144224478D01*
X95592225Y-144084039D01*
X95527623Y-143987355D01*
X95511952Y-143949522D01*
X95376858Y-143623377D01*
X95300000Y-143236984D01*
X95300000Y-142843016D01*
X95376858Y-142456623D01*
X95527622Y-142092647D01*
X95562826Y-142039961D01*
X95721299Y-141802788D01*
X95746498Y-141765075D01*
X96025075Y-141486498D01*
X96224063Y-141353539D01*
X96352645Y-141267623D01*
X96352647Y-141267622D01*
X96716623Y-141116858D01*
X97103016Y-141040000D01*
X97496984Y-141040000D01*
X97883377Y-141116858D01*
X97883377Y-141116858D01*
G37*
G36*
X61878377Y-141053858D02*
G01*
X62095996Y-141143999D01*
X62242355Y-141204623D01*
X62336641Y-141267623D01*
X62569925Y-141423498D01*
X62848502Y-141702075D01*
X62904760Y-141786272D01*
X63028043Y-141970777D01*
X63067378Y-142029647D01*
X63218142Y-142393623D01*
X63295000Y-142780016D01*
X63295000Y-143173984D01*
X63218142Y-143560377D01*
X63109774Y-143821999D01*
X63067377Y-143924355D01*
X62974556Y-144063272D01*
X62848502Y-144251925D01*
X62569925Y-144530502D01*
X62407251Y-144639197D01*
X62242355Y-144749377D01*
X62242354Y-144749378D01*
X62242353Y-144749378D01*
X61878377Y-144900142D01*
X61491984Y-144977000D01*
X61098016Y-144977000D01*
X60711623Y-144900142D01*
X60347647Y-144749378D01*
X60347646Y-144749378D01*
X60347645Y-144749377D01*
X60182749Y-144639197D01*
X60020075Y-144530502D01*
X59741498Y-144251925D01*
X59615444Y-144063272D01*
X59522623Y-143924355D01*
X59480226Y-143821999D01*
X59371858Y-143560377D01*
X59295000Y-143173984D01*
X59295000Y-142780016D01*
X59371858Y-142393623D01*
X59522622Y-142029647D01*
X59561958Y-141970777D01*
X59685240Y-141786272D01*
X59741498Y-141702075D01*
X60020075Y-141423498D01*
X60253359Y-141267623D01*
X60347645Y-141204623D01*
X60494004Y-141143999D01*
X60711623Y-141053858D01*
X61098016Y-140977000D01*
X61491984Y-140977000D01*
X61878377Y-141053858D01*
X61878377Y-141053858D01*
G37*
G36*
X87815522Y-143576039D02*
G01*
X87849057Y-143586212D01*
X87879956Y-143602728D01*
X87907043Y-143624957D01*
X87929272Y-143652044D01*
X87945788Y-143682943D01*
X87955961Y-143716478D01*
X87960000Y-143757487D01*
X87960000Y-144786513D01*
X87955961Y-144827522D01*
X87945788Y-144861057D01*
X87929272Y-144891956D01*
X87907043Y-144919043D01*
X87879956Y-144941272D01*
X87849057Y-144957788D01*
X87815522Y-144967961D01*
X87774513Y-144972000D01*
X86995487Y-144972000D01*
X86954478Y-144967961D01*
X86920943Y-144957788D01*
X86890044Y-144941272D01*
X86862957Y-144919043D01*
X86840728Y-144891956D01*
X86824212Y-144861057D01*
X86814039Y-144827522D01*
X86810000Y-144786513D01*
X86810000Y-143757487D01*
X86814039Y-143716478D01*
X86824212Y-143682943D01*
X86840728Y-143652044D01*
X86862957Y-143624957D01*
X86890044Y-143602728D01*
X86920943Y-143586212D01*
X86954478Y-143576039D01*
X86995487Y-143572000D01*
X87774513Y-143572000D01*
X87815522Y-143576039D01*
X87815522Y-143576039D01*
G37*
G36*
X85765522Y-143576039D02*
G01*
X85799057Y-143586212D01*
X85829956Y-143602728D01*
X85857043Y-143624957D01*
X85879272Y-143652044D01*
X85895788Y-143682943D01*
X85905961Y-143716478D01*
X85910000Y-143757487D01*
X85910000Y-144786513D01*
X85905961Y-144827522D01*
X85895788Y-144861057D01*
X85879272Y-144891956D01*
X85857043Y-144919043D01*
X85829956Y-144941272D01*
X85799057Y-144957788D01*
X85765522Y-144967961D01*
X85724513Y-144972000D01*
X84945487Y-144972000D01*
X84904478Y-144967961D01*
X84870943Y-144957788D01*
X84840044Y-144941272D01*
X84812957Y-144919043D01*
X84790728Y-144891956D01*
X84774212Y-144861057D01*
X84764039Y-144827522D01*
X84760000Y-144786513D01*
X84760000Y-143757487D01*
X84764039Y-143716478D01*
X84774212Y-143682943D01*
X84790728Y-143652044D01*
X84812957Y-143624957D01*
X84840044Y-143602728D01*
X84870943Y-143586212D01*
X84904478Y-143576039D01*
X84945487Y-143572000D01*
X85724513Y-143572000D01*
X85765522Y-143576039D01*
X85765522Y-143576039D01*
G37*
G36*
X92779000Y-144418000D02*
G01*
X91879000Y-144418000D01*
X91879000Y-143618000D01*
X92779000Y-143618000D01*
X92779000Y-144418000D01*
X92779000Y-144418000D01*
G37*
G36*
X71485022Y-142948039D02*
G01*
X71518557Y-142958212D01*
X71549456Y-142974728D01*
X71576543Y-142996957D01*
X71598772Y-143024044D01*
X71615288Y-143054943D01*
X71625461Y-143088478D01*
X71629500Y-143129487D01*
X71629500Y-143908513D01*
X71625461Y-143949522D01*
X71615288Y-143983057D01*
X71598772Y-144013956D01*
X71576543Y-144041043D01*
X71549456Y-144063272D01*
X71518557Y-144079788D01*
X71485022Y-144089961D01*
X71444013Y-144094000D01*
X70414987Y-144094000D01*
X70373978Y-144089961D01*
X70340443Y-144079788D01*
X70309544Y-144063272D01*
X70282457Y-144041043D01*
X70260228Y-144013956D01*
X70243712Y-143983057D01*
X70233539Y-143949522D01*
X70229500Y-143908513D01*
X70229500Y-143129487D01*
X70233539Y-143088478D01*
X70243712Y-143054943D01*
X70260228Y-143024044D01*
X70282457Y-142996957D01*
X70309544Y-142974728D01*
X70340443Y-142958212D01*
X70373978Y-142948039D01*
X70414987Y-142944000D01*
X71444013Y-142944000D01*
X71485022Y-142948039D01*
X71485022Y-142948039D01*
G37*
G36*
X69262522Y-142948039D02*
G01*
X69296057Y-142958212D01*
X69326956Y-142974728D01*
X69354043Y-142996957D01*
X69376272Y-143024044D01*
X69392788Y-143054943D01*
X69402961Y-143088478D01*
X69407000Y-143129487D01*
X69407000Y-143908513D01*
X69402961Y-143949522D01*
X69392788Y-143983057D01*
X69376272Y-144013956D01*
X69354043Y-144041043D01*
X69326956Y-144063272D01*
X69296057Y-144079788D01*
X69262522Y-144089961D01*
X69221513Y-144094000D01*
X68192487Y-144094000D01*
X68151478Y-144089961D01*
X68117943Y-144079788D01*
X68087044Y-144063272D01*
X68059957Y-144041043D01*
X68037728Y-144013956D01*
X68021212Y-143983057D01*
X68011039Y-143949522D01*
X68007000Y-143908513D01*
X68007000Y-143129487D01*
X68011039Y-143088478D01*
X68021212Y-143054943D01*
X68037728Y-143024044D01*
X68059957Y-142996957D01*
X68087044Y-142974728D01*
X68117943Y-142958212D01*
X68151478Y-142948039D01*
X68192487Y-142944000D01*
X69221513Y-142944000D01*
X69262522Y-142948039D01*
X69262522Y-142948039D01*
G37*
G36*
X90779000Y-143468000D02*
G01*
X89879000Y-143468000D01*
X89879000Y-142668000D01*
X90779000Y-142668000D01*
X90779000Y-143468000D01*
X90779000Y-143468000D01*
G37*
G36*
X79484500Y-142984500D02*
G01*
X77934500Y-142984500D01*
X77934500Y-142384500D01*
X79484500Y-142384500D01*
X79484500Y-142984500D01*
X79484500Y-142984500D01*
G37*
G36*
X74084500Y-142984500D02*
G01*
X72534500Y-142984500D01*
X72534500Y-142384500D01*
X74084500Y-142384500D01*
X74084500Y-142984500D01*
X74084500Y-142984500D01*
G37*
G36*
X87815522Y-141353539D02*
G01*
X87849057Y-141363712D01*
X87879956Y-141380228D01*
X87907043Y-141402457D01*
X87929272Y-141429544D01*
X87945788Y-141460443D01*
X87955961Y-141493978D01*
X87960000Y-141534987D01*
X87960000Y-142564013D01*
X87955961Y-142605022D01*
X87945788Y-142638557D01*
X87929272Y-142669456D01*
X87907043Y-142696543D01*
X87879956Y-142718772D01*
X87849057Y-142735288D01*
X87815522Y-142745461D01*
X87774513Y-142749500D01*
X86995487Y-142749500D01*
X86954478Y-142745461D01*
X86920943Y-142735288D01*
X86890044Y-142718772D01*
X86862957Y-142696543D01*
X86840728Y-142669456D01*
X86824212Y-142638557D01*
X86814039Y-142605022D01*
X86810000Y-142564013D01*
X86810000Y-141534987D01*
X86814039Y-141493978D01*
X86824212Y-141460443D01*
X86840728Y-141429544D01*
X86862957Y-141402457D01*
X86890044Y-141380228D01*
X86920943Y-141363712D01*
X86954478Y-141353539D01*
X86995487Y-141349500D01*
X87774513Y-141349500D01*
X87815522Y-141353539D01*
X87815522Y-141353539D01*
G37*
G36*
X85765522Y-141353539D02*
G01*
X85799057Y-141363712D01*
X85829956Y-141380228D01*
X85857043Y-141402457D01*
X85879272Y-141429544D01*
X85895788Y-141460443D01*
X85905961Y-141493978D01*
X85910000Y-141534987D01*
X85910000Y-142564013D01*
X85905961Y-142605022D01*
X85895788Y-142638557D01*
X85879272Y-142669456D01*
X85857043Y-142696543D01*
X85829956Y-142718772D01*
X85799057Y-142735288D01*
X85765522Y-142745461D01*
X85724513Y-142749500D01*
X84945487Y-142749500D01*
X84904478Y-142745461D01*
X84870943Y-142735288D01*
X84840044Y-142718772D01*
X84812957Y-142696543D01*
X84790728Y-142669456D01*
X84774212Y-142638557D01*
X84764039Y-142605022D01*
X84760000Y-142564013D01*
X84760000Y-141534987D01*
X84764039Y-141493978D01*
X84774212Y-141460443D01*
X84790728Y-141429544D01*
X84812957Y-141402457D01*
X84840044Y-141380228D01*
X84870943Y-141363712D01*
X84904478Y-141353539D01*
X84945487Y-141349500D01*
X85724513Y-141349500D01*
X85765522Y-141353539D01*
X85765522Y-141353539D01*
G37*
G36*
X71485022Y-140898039D02*
G01*
X71518557Y-140908212D01*
X71549456Y-140924728D01*
X71576543Y-140946957D01*
X71598772Y-140974044D01*
X71615288Y-141004943D01*
X71625461Y-141038478D01*
X71629500Y-141079487D01*
X71629500Y-141858513D01*
X71625461Y-141899522D01*
X71615288Y-141933057D01*
X71598772Y-141963956D01*
X71576543Y-141991043D01*
X71549456Y-142013272D01*
X71518557Y-142029788D01*
X71485022Y-142039961D01*
X71444013Y-142044000D01*
X70414987Y-142044000D01*
X70373978Y-142039961D01*
X70340443Y-142029788D01*
X70309544Y-142013272D01*
X70282457Y-141991043D01*
X70260228Y-141963956D01*
X70243712Y-141933057D01*
X70233539Y-141899522D01*
X70229500Y-141858513D01*
X70229500Y-141079487D01*
X70233539Y-141038478D01*
X70243712Y-141004943D01*
X70260228Y-140974044D01*
X70282457Y-140946957D01*
X70309544Y-140924728D01*
X70340443Y-140908212D01*
X70373978Y-140898039D01*
X70414987Y-140894000D01*
X71444013Y-140894000D01*
X71485022Y-140898039D01*
X71485022Y-140898039D01*
G37*
G36*
X69262522Y-140898039D02*
G01*
X69296057Y-140908212D01*
X69326956Y-140924728D01*
X69354043Y-140946957D01*
X69376272Y-140974044D01*
X69392788Y-141004943D01*
X69402961Y-141038478D01*
X69407000Y-141079487D01*
X69407000Y-141858513D01*
X69402961Y-141899522D01*
X69392788Y-141933057D01*
X69376272Y-141963956D01*
X69354043Y-141991043D01*
X69326956Y-142013272D01*
X69296057Y-142029788D01*
X69262522Y-142039961D01*
X69221513Y-142044000D01*
X68192487Y-142044000D01*
X68151478Y-142039961D01*
X68117943Y-142029788D01*
X68087044Y-142013272D01*
X68059957Y-141991043D01*
X68037728Y-141963956D01*
X68021212Y-141933057D01*
X68011039Y-141899522D01*
X68007000Y-141858513D01*
X68007000Y-141079487D01*
X68011039Y-141038478D01*
X68021212Y-141004943D01*
X68037728Y-140974044D01*
X68059957Y-140946957D01*
X68087044Y-140924728D01*
X68117943Y-140908212D01*
X68151478Y-140898039D01*
X68192487Y-140894000D01*
X69221513Y-140894000D01*
X69262522Y-140898039D01*
X69262522Y-140898039D01*
G37*
G36*
X67103522Y-140671039D02*
G01*
X67137057Y-140681212D01*
X67167956Y-140697728D01*
X67195043Y-140719957D01*
X67217272Y-140747044D01*
X67233788Y-140777943D01*
X67243961Y-140811478D01*
X67248000Y-140852487D01*
X67248000Y-141631513D01*
X67243961Y-141672522D01*
X67233788Y-141706057D01*
X67217272Y-141736956D01*
X67195043Y-141764043D01*
X67167956Y-141786272D01*
X67137057Y-141802788D01*
X67103522Y-141812961D01*
X67062513Y-141817000D01*
X66033487Y-141817000D01*
X65992478Y-141812961D01*
X65958943Y-141802788D01*
X65928044Y-141786272D01*
X65900957Y-141764043D01*
X65878728Y-141736956D01*
X65862212Y-141706057D01*
X65852039Y-141672522D01*
X65848000Y-141631513D01*
X65848000Y-140852487D01*
X65852039Y-140811478D01*
X65862212Y-140777943D01*
X65878728Y-140747044D01*
X65900957Y-140719957D01*
X65928044Y-140697728D01*
X65958943Y-140681212D01*
X65992478Y-140671039D01*
X66033487Y-140667000D01*
X67062513Y-140667000D01*
X67103522Y-140671039D01*
X67103522Y-140671039D01*
G37*
G36*
X79484500Y-141714500D02*
G01*
X77934500Y-141714500D01*
X77934500Y-141114500D01*
X79484500Y-141114500D01*
X79484500Y-141714500D01*
X79484500Y-141714500D01*
G37*
G36*
X74084500Y-141714500D02*
G01*
X72534500Y-141714500D01*
X72534500Y-141114500D01*
X74084500Y-141114500D01*
X74084500Y-141714500D01*
X74084500Y-141714500D01*
G37*
G36*
X83926000Y-141102000D02*
G01*
X82866000Y-141102000D01*
X82866000Y-140452000D01*
X83926000Y-140452000D01*
X83926000Y-141102000D01*
X83926000Y-141102000D01*
G37*
G36*
X81726000Y-141102000D02*
G01*
X80666000Y-141102000D01*
X80666000Y-140452000D01*
X81726000Y-140452000D01*
X81726000Y-141102000D01*
X81726000Y-141102000D01*
G37*
G36*
X87815522Y-139194539D02*
G01*
X87849057Y-139204712D01*
X87879956Y-139221228D01*
X87907043Y-139243457D01*
X87929272Y-139270544D01*
X87945788Y-139301443D01*
X87955961Y-139334978D01*
X87960000Y-139375987D01*
X87960000Y-140405013D01*
X87955961Y-140446022D01*
X87945788Y-140479557D01*
X87929272Y-140510456D01*
X87907043Y-140537543D01*
X87879956Y-140559772D01*
X87849057Y-140576288D01*
X87815522Y-140586461D01*
X87774513Y-140590500D01*
X86995487Y-140590500D01*
X86954478Y-140586461D01*
X86920943Y-140576288D01*
X86890044Y-140559772D01*
X86862957Y-140537543D01*
X86840728Y-140510456D01*
X86824212Y-140479557D01*
X86814039Y-140446022D01*
X86810000Y-140405013D01*
X86810000Y-139375987D01*
X86814039Y-139334978D01*
X86824212Y-139301443D01*
X86840728Y-139270544D01*
X86862957Y-139243457D01*
X86890044Y-139221228D01*
X86920943Y-139204712D01*
X86954478Y-139194539D01*
X86995487Y-139190500D01*
X87774513Y-139190500D01*
X87815522Y-139194539D01*
X87815522Y-139194539D01*
G37*
G36*
X85765522Y-139194539D02*
G01*
X85799057Y-139204712D01*
X85829956Y-139221228D01*
X85857043Y-139243457D01*
X85879272Y-139270544D01*
X85895788Y-139301443D01*
X85905961Y-139334978D01*
X85910000Y-139375987D01*
X85910000Y-140405013D01*
X85905961Y-140446022D01*
X85895788Y-140479557D01*
X85879272Y-140510456D01*
X85857043Y-140537543D01*
X85829956Y-140559772D01*
X85799057Y-140576288D01*
X85765522Y-140586461D01*
X85724513Y-140590500D01*
X84945487Y-140590500D01*
X84904478Y-140586461D01*
X84870943Y-140576288D01*
X84840044Y-140559772D01*
X84812957Y-140537543D01*
X84790728Y-140510456D01*
X84774212Y-140479557D01*
X84764039Y-140446022D01*
X84760000Y-140405013D01*
X84760000Y-139375987D01*
X84764039Y-139334978D01*
X84774212Y-139301443D01*
X84790728Y-139270544D01*
X84812957Y-139243457D01*
X84840044Y-139221228D01*
X84870943Y-139204712D01*
X84904478Y-139194539D01*
X84945487Y-139190500D01*
X85724513Y-139190500D01*
X85765522Y-139194539D01*
X85765522Y-139194539D01*
G37*
G36*
X79484500Y-140444500D02*
G01*
X77934500Y-140444500D01*
X77934500Y-139844500D01*
X79484500Y-139844500D01*
X79484500Y-140444500D01*
X79484500Y-140444500D01*
G37*
G36*
X74084500Y-140444500D02*
G01*
X72534500Y-140444500D01*
X72534500Y-139844500D01*
X74084500Y-139844500D01*
X74084500Y-140444500D01*
X74084500Y-140444500D01*
G37*
G36*
X81726000Y-140152000D02*
G01*
X80666000Y-140152000D01*
X80666000Y-139502000D01*
X81726000Y-139502000D01*
X81726000Y-140152000D01*
X81726000Y-140152000D01*
G37*
G36*
X71675522Y-138630039D02*
G01*
X71709057Y-138640212D01*
X71739956Y-138656728D01*
X71767043Y-138678957D01*
X71789272Y-138706044D01*
X71805788Y-138736943D01*
X71815961Y-138770478D01*
X71820000Y-138811487D01*
X71820000Y-139590513D01*
X71815961Y-139631522D01*
X71805788Y-139665057D01*
X71789272Y-139695956D01*
X71767043Y-139723043D01*
X71739956Y-139745272D01*
X71709057Y-139761788D01*
X71675522Y-139771961D01*
X71634513Y-139776000D01*
X70605487Y-139776000D01*
X70564478Y-139771961D01*
X70530943Y-139761788D01*
X70500044Y-139745272D01*
X70472957Y-139723043D01*
X70450728Y-139695956D01*
X70434212Y-139665057D01*
X70424039Y-139631522D01*
X70420000Y-139590513D01*
X70420000Y-138811487D01*
X70424039Y-138770478D01*
X70434212Y-138736943D01*
X70450728Y-138706044D01*
X70472957Y-138678957D01*
X70500044Y-138656728D01*
X70530943Y-138640212D01*
X70564478Y-138630039D01*
X70605487Y-138626000D01*
X71634513Y-138626000D01*
X71675522Y-138630039D01*
X71675522Y-138630039D01*
G37*
G36*
X67103522Y-138621039D02*
G01*
X67137057Y-138631212D01*
X67167956Y-138647728D01*
X67195043Y-138669957D01*
X67217272Y-138697044D01*
X67233788Y-138727943D01*
X67243961Y-138761478D01*
X67248000Y-138802487D01*
X67248000Y-139581513D01*
X67243961Y-139622522D01*
X67233788Y-139656057D01*
X67217272Y-139686956D01*
X67195043Y-139714043D01*
X67167956Y-139736272D01*
X67137057Y-139752788D01*
X67103522Y-139762961D01*
X67062513Y-139767000D01*
X66033487Y-139767000D01*
X65992478Y-139762961D01*
X65958943Y-139752788D01*
X65928044Y-139736272D01*
X65900957Y-139714043D01*
X65878728Y-139686956D01*
X65862212Y-139656057D01*
X65852039Y-139622522D01*
X65848000Y-139581513D01*
X65848000Y-138802487D01*
X65852039Y-138761478D01*
X65862212Y-138727943D01*
X65878728Y-138697044D01*
X65900957Y-138669957D01*
X65928044Y-138647728D01*
X65958943Y-138631212D01*
X65992478Y-138621039D01*
X66033487Y-138617000D01*
X67062513Y-138617000D01*
X67103522Y-138621039D01*
X67103522Y-138621039D01*
G37*
G36*
X69262522Y-138579239D02*
G01*
X69296057Y-138589412D01*
X69326956Y-138605928D01*
X69354043Y-138628157D01*
X69376272Y-138655244D01*
X69392788Y-138686143D01*
X69402961Y-138719678D01*
X69407000Y-138760687D01*
X69407000Y-139539713D01*
X69402961Y-139580722D01*
X69392788Y-139614257D01*
X69376272Y-139645156D01*
X69354043Y-139672243D01*
X69326956Y-139694472D01*
X69296057Y-139710988D01*
X69262522Y-139721161D01*
X69221513Y-139725200D01*
X68192487Y-139725200D01*
X68151478Y-139721161D01*
X68117943Y-139710988D01*
X68087044Y-139694472D01*
X68059957Y-139672243D01*
X68037728Y-139645156D01*
X68021212Y-139614257D01*
X68011039Y-139580722D01*
X68007000Y-139539713D01*
X68007000Y-138760687D01*
X68011039Y-138719678D01*
X68021212Y-138686143D01*
X68037728Y-138655244D01*
X68059957Y-138628157D01*
X68087044Y-138605928D01*
X68117943Y-138589412D01*
X68151478Y-138579239D01*
X68192487Y-138575200D01*
X69221513Y-138575200D01*
X69262522Y-138579239D01*
X69262522Y-138579239D01*
G37*
G36*
X81726000Y-139202000D02*
G01*
X80666000Y-139202000D01*
X80666000Y-138552000D01*
X81726000Y-138552000D01*
X81726000Y-139202000D01*
X81726000Y-139202000D01*
G37*
G36*
X83926000Y-139202000D02*
G01*
X82866000Y-139202000D01*
X82866000Y-138552000D01*
X83926000Y-138552000D01*
X83926000Y-139202000D01*
X83926000Y-139202000D01*
G37*
G36*
X74084500Y-139174500D02*
G01*
X72534500Y-139174500D01*
X72534500Y-138574500D01*
X74084500Y-138574500D01*
X74084500Y-139174500D01*
X74084500Y-139174500D01*
G37*
G36*
X79484500Y-139174500D02*
G01*
X77934500Y-139174500D01*
X77934500Y-138574500D01*
X79484500Y-138574500D01*
X79484500Y-139174500D01*
X79484500Y-139174500D01*
G37*
G36*
X71675522Y-136580039D02*
G01*
X71709057Y-136590212D01*
X71739956Y-136606728D01*
X71767043Y-136628957D01*
X71789272Y-136656044D01*
X71805788Y-136686943D01*
X71815961Y-136720478D01*
X71820000Y-136761487D01*
X71820000Y-137540513D01*
X71815961Y-137581522D01*
X71805788Y-137615057D01*
X71789272Y-137645956D01*
X71767043Y-137673043D01*
X71739956Y-137695272D01*
X71709057Y-137711788D01*
X71675522Y-137721961D01*
X71634513Y-137726000D01*
X70605487Y-137726000D01*
X70564478Y-137721961D01*
X70530943Y-137711788D01*
X70500044Y-137695272D01*
X70472957Y-137673043D01*
X70450728Y-137645956D01*
X70434212Y-137615057D01*
X70424039Y-137581522D01*
X70420000Y-137540513D01*
X70420000Y-136761487D01*
X70424039Y-136720478D01*
X70434212Y-136686943D01*
X70450728Y-136656044D01*
X70472957Y-136628957D01*
X70500044Y-136606728D01*
X70530943Y-136590212D01*
X70564478Y-136580039D01*
X70605487Y-136576000D01*
X71634513Y-136576000D01*
X71675522Y-136580039D01*
X71675522Y-136580039D01*
G37*
G36*
X69262522Y-136529239D02*
G01*
X69296057Y-136539412D01*
X69326956Y-136555928D01*
X69354043Y-136578157D01*
X69376272Y-136605244D01*
X69392788Y-136636143D01*
X69402961Y-136669678D01*
X69407000Y-136710687D01*
X69407000Y-137489713D01*
X69402961Y-137530722D01*
X69392788Y-137564257D01*
X69376272Y-137595156D01*
X69354043Y-137622243D01*
X69326956Y-137644472D01*
X69296057Y-137660988D01*
X69262522Y-137671161D01*
X69221513Y-137675200D01*
X68192487Y-137675200D01*
X68151478Y-137671161D01*
X68117943Y-137660988D01*
X68087044Y-137644472D01*
X68059957Y-137622243D01*
X68037728Y-137595156D01*
X68021212Y-137564257D01*
X68011039Y-137530722D01*
X68007000Y-137489713D01*
X68007000Y-136710687D01*
X68011039Y-136669678D01*
X68021212Y-136636143D01*
X68037728Y-136605244D01*
X68059957Y-136578157D01*
X68087044Y-136555928D01*
X68117943Y-136539412D01*
X68151478Y-136529239D01*
X68192487Y-136525200D01*
X69221513Y-136525200D01*
X69262522Y-136529239D01*
X69262522Y-136529239D01*
G37*
G36*
X80948522Y-135829039D02*
G01*
X80982057Y-135839212D01*
X81012956Y-135855728D01*
X81040043Y-135877957D01*
X81062272Y-135905044D01*
X81078788Y-135935943D01*
X81088961Y-135969478D01*
X81093000Y-136010487D01*
X81093000Y-137039513D01*
X81088961Y-137080522D01*
X81078788Y-137114057D01*
X81062272Y-137144956D01*
X81040043Y-137172043D01*
X81012956Y-137194272D01*
X80982057Y-137210788D01*
X80948522Y-137220961D01*
X80907513Y-137225000D01*
X80128487Y-137225000D01*
X80087478Y-137220961D01*
X80053943Y-137210788D01*
X80023044Y-137194272D01*
X79995957Y-137172043D01*
X79973728Y-137144956D01*
X79957212Y-137114057D01*
X79947039Y-137080522D01*
X79943000Y-137039513D01*
X79943000Y-136010487D01*
X79947039Y-135969478D01*
X79957212Y-135935943D01*
X79973728Y-135905044D01*
X79995957Y-135877957D01*
X80023044Y-135855728D01*
X80053943Y-135839212D01*
X80087478Y-135829039D01*
X80128487Y-135825000D01*
X80907513Y-135825000D01*
X80948522Y-135829039D01*
X80948522Y-135829039D01*
G37*
G36*
X78898522Y-135829039D02*
G01*
X78932057Y-135839212D01*
X78962956Y-135855728D01*
X78990043Y-135877957D01*
X79012272Y-135905044D01*
X79028788Y-135935943D01*
X79038961Y-135969478D01*
X79043000Y-136010487D01*
X79043000Y-137039513D01*
X79038961Y-137080522D01*
X79028788Y-137114057D01*
X79012272Y-137144956D01*
X78990043Y-137172043D01*
X78962956Y-137194272D01*
X78932057Y-137210788D01*
X78898522Y-137220961D01*
X78857513Y-137225000D01*
X78078487Y-137225000D01*
X78037478Y-137220961D01*
X78003943Y-137210788D01*
X77973044Y-137194272D01*
X77945957Y-137172043D01*
X77923728Y-137144956D01*
X77907212Y-137114057D01*
X77897039Y-137080522D01*
X77893000Y-137039513D01*
X77893000Y-136010487D01*
X77897039Y-135969478D01*
X77907212Y-135935943D01*
X77923728Y-135905044D01*
X77945957Y-135877957D01*
X77973044Y-135855728D01*
X78003943Y-135839212D01*
X78037478Y-135829039D01*
X78078487Y-135825000D01*
X78857513Y-135825000D01*
X78898522Y-135829039D01*
X78898522Y-135829039D01*
G37*
G36*
X86019522Y-135638539D02*
G01*
X86053057Y-135648712D01*
X86083956Y-135665228D01*
X86111043Y-135687457D01*
X86133272Y-135714544D01*
X86149788Y-135745443D01*
X86159961Y-135778978D01*
X86164000Y-135819987D01*
X86164000Y-136849013D01*
X86159961Y-136890022D01*
X86149788Y-136923557D01*
X86133272Y-136954456D01*
X86111043Y-136981543D01*
X86083956Y-137003772D01*
X86053057Y-137020288D01*
X86019522Y-137030461D01*
X85978513Y-137034500D01*
X85199487Y-137034500D01*
X85158478Y-137030461D01*
X85124943Y-137020288D01*
X85094044Y-137003772D01*
X85066957Y-136981543D01*
X85044728Y-136954456D01*
X85028212Y-136923557D01*
X85018039Y-136890022D01*
X85014000Y-136849013D01*
X85014000Y-135819987D01*
X85018039Y-135778978D01*
X85028212Y-135745443D01*
X85044728Y-135714544D01*
X85066957Y-135687457D01*
X85094044Y-135665228D01*
X85124943Y-135648712D01*
X85158478Y-135638539D01*
X85199487Y-135634500D01*
X85978513Y-135634500D01*
X86019522Y-135638539D01*
X86019522Y-135638539D01*
G37*
G36*
X88069522Y-135638539D02*
G01*
X88103057Y-135648712D01*
X88133956Y-135665228D01*
X88161043Y-135687457D01*
X88183272Y-135714544D01*
X88199788Y-135745443D01*
X88209961Y-135778978D01*
X88214000Y-135819987D01*
X88214000Y-136849013D01*
X88209961Y-136890022D01*
X88199788Y-136923557D01*
X88183272Y-136954456D01*
X88161043Y-136981543D01*
X88133956Y-137003772D01*
X88103057Y-137020288D01*
X88069522Y-137030461D01*
X88028513Y-137034500D01*
X87249487Y-137034500D01*
X87208478Y-137030461D01*
X87174943Y-137020288D01*
X87144044Y-137003772D01*
X87116957Y-136981543D01*
X87094728Y-136954456D01*
X87078212Y-136923557D01*
X87068039Y-136890022D01*
X87064000Y-136849013D01*
X87064000Y-135819987D01*
X87068039Y-135778978D01*
X87078212Y-135745443D01*
X87094728Y-135714544D01*
X87116957Y-135687457D01*
X87144044Y-135665228D01*
X87174943Y-135648712D01*
X87208478Y-135638539D01*
X87249487Y-135634500D01*
X88028513Y-135634500D01*
X88069522Y-135638539D01*
X88069522Y-135638539D01*
G37*
G36*
X97233351Y-135310743D02*
G01*
X97378941Y-135371048D01*
X97509970Y-135458599D01*
X97621401Y-135570030D01*
X97708952Y-135701059D01*
X97769257Y-135846649D01*
X97800000Y-136001206D01*
X97800000Y-136158794D01*
X97769257Y-136313351D01*
X97708952Y-136458941D01*
X97621401Y-136589970D01*
X97509970Y-136701401D01*
X97378941Y-136788952D01*
X97233351Y-136849257D01*
X97078794Y-136880000D01*
X96921206Y-136880000D01*
X96766649Y-136849257D01*
X96621059Y-136788952D01*
X96490030Y-136701401D01*
X96378599Y-136589970D01*
X96291048Y-136458941D01*
X96230743Y-136313351D01*
X96200000Y-136158794D01*
X96200000Y-136001206D01*
X96230743Y-135846649D01*
X96291048Y-135701059D01*
X96378599Y-135570030D01*
X96490030Y-135458599D01*
X96621059Y-135371048D01*
X96766649Y-135310743D01*
X96921206Y-135280000D01*
X97078794Y-135280000D01*
X97233351Y-135310743D01*
X97233351Y-135310743D01*
G37*
G36*
X62395000Y-136817000D02*
G01*
X60795000Y-136817000D01*
X60795000Y-135217000D01*
X62395000Y-135217000D01*
X62395000Y-136817000D01*
X62395000Y-136817000D01*
G37*
G36*
X100073351Y-133925743D02*
G01*
X100218941Y-133986048D01*
X100349970Y-134073599D01*
X100461401Y-134185030D01*
X100548952Y-134316059D01*
X100609257Y-134461649D01*
X100640000Y-134616206D01*
X100640000Y-134773794D01*
X100609257Y-134928351D01*
X100548952Y-135073941D01*
X100461401Y-135204970D01*
X100349970Y-135316401D01*
X100218941Y-135403952D01*
X100073351Y-135464257D01*
X99918794Y-135495000D01*
X99761206Y-135495000D01*
X99606649Y-135464257D01*
X99461059Y-135403952D01*
X99330030Y-135316401D01*
X99218599Y-135204970D01*
X99131048Y-135073941D01*
X99070743Y-134928351D01*
X99040000Y-134773794D01*
X99040000Y-134616206D01*
X99070743Y-134461649D01*
X99131048Y-134316059D01*
X99218599Y-134185030D01*
X99330030Y-134073599D01*
X99461059Y-133986048D01*
X99606649Y-133925743D01*
X99761206Y-133895000D01*
X99918794Y-133895000D01*
X100073351Y-133925743D01*
X100073351Y-133925743D01*
G37*
G36*
X58988351Y-133862743D02*
G01*
X59133941Y-133923048D01*
X59264970Y-134010599D01*
X59376401Y-134122030D01*
X59463952Y-134253059D01*
X59524257Y-134398649D01*
X59555000Y-134553206D01*
X59555000Y-134710794D01*
X59524257Y-134865351D01*
X59463952Y-135010941D01*
X59376401Y-135141970D01*
X59264970Y-135253401D01*
X59133941Y-135340952D01*
X58988351Y-135401257D01*
X58833794Y-135432000D01*
X58676206Y-135432000D01*
X58521649Y-135401257D01*
X58376059Y-135340952D01*
X58245030Y-135253401D01*
X58133599Y-135141970D01*
X58046048Y-135010941D01*
X57985743Y-134865351D01*
X57955000Y-134710794D01*
X57955000Y-134553206D01*
X57985743Y-134398649D01*
X58046048Y-134253059D01*
X58133599Y-134122030D01*
X58245030Y-134010599D01*
X58376059Y-133923048D01*
X58521649Y-133862743D01*
X58676206Y-133832000D01*
X58833794Y-133832000D01*
X58988351Y-133862743D01*
X58988351Y-133862743D01*
G37*
G36*
X97233351Y-132540743D02*
G01*
X97378941Y-132601048D01*
X97509970Y-132688599D01*
X97621401Y-132800030D01*
X97708952Y-132931059D01*
X97769257Y-133076649D01*
X97800000Y-133231206D01*
X97800000Y-133388794D01*
X97769257Y-133543351D01*
X97708952Y-133688941D01*
X97621401Y-133819970D01*
X97509970Y-133931401D01*
X97378941Y-134018952D01*
X97233351Y-134079257D01*
X97078794Y-134110000D01*
X96921206Y-134110000D01*
X96766649Y-134079257D01*
X96621059Y-134018952D01*
X96490030Y-133931401D01*
X96378599Y-133819970D01*
X96291048Y-133688941D01*
X96230743Y-133543351D01*
X96200000Y-133388794D01*
X96200000Y-133231206D01*
X96230743Y-133076649D01*
X96291048Y-132931059D01*
X96378599Y-132800030D01*
X96490030Y-132688599D01*
X96621059Y-132601048D01*
X96766649Y-132540743D01*
X96921206Y-132510000D01*
X97078794Y-132510000D01*
X97233351Y-132540743D01*
X97233351Y-132540743D01*
G37*
G36*
X61828351Y-132477743D02*
G01*
X61973941Y-132538048D01*
X62104970Y-132625599D01*
X62216401Y-132737030D01*
X62303952Y-132868059D01*
X62364257Y-133013649D01*
X62395000Y-133168206D01*
X62395000Y-133325794D01*
X62364257Y-133480351D01*
X62303952Y-133625941D01*
X62216401Y-133756970D01*
X62104970Y-133868401D01*
X61973941Y-133955952D01*
X61828351Y-134016257D01*
X61673794Y-134047000D01*
X61516206Y-134047000D01*
X61361649Y-134016257D01*
X61216059Y-133955952D01*
X61085030Y-133868401D01*
X60973599Y-133756970D01*
X60886048Y-133625941D01*
X60825743Y-133480351D01*
X60795000Y-133325794D01*
X60795000Y-133168206D01*
X60825743Y-133013649D01*
X60886048Y-132868059D01*
X60973599Y-132737030D01*
X61085030Y-132625599D01*
X61216059Y-132538048D01*
X61361649Y-132477743D01*
X61516206Y-132447000D01*
X61673794Y-132447000D01*
X61828351Y-132477743D01*
X61828351Y-132477743D01*
G37*
G36*
X81391022Y-132661039D02*
G01*
X81424557Y-132671212D01*
X81455456Y-132687728D01*
X81482543Y-132709957D01*
X81504772Y-132737044D01*
X81521288Y-132767943D01*
X81531461Y-132801478D01*
X81535500Y-132842487D01*
X81535500Y-133621513D01*
X81531461Y-133662522D01*
X81521288Y-133696057D01*
X81504772Y-133726956D01*
X81482543Y-133754043D01*
X81455456Y-133776272D01*
X81424557Y-133792788D01*
X81391022Y-133802961D01*
X81350013Y-133807000D01*
X80320987Y-133807000D01*
X80279978Y-133802961D01*
X80246443Y-133792788D01*
X80215544Y-133776272D01*
X80188457Y-133754043D01*
X80166228Y-133726956D01*
X80149712Y-133696057D01*
X80139539Y-133662522D01*
X80135500Y-133621513D01*
X80135500Y-132842487D01*
X80139539Y-132801478D01*
X80149712Y-132767943D01*
X80166228Y-132737044D01*
X80188457Y-132709957D01*
X80215544Y-132687728D01*
X80246443Y-132671212D01*
X80279978Y-132661039D01*
X80320987Y-132657000D01*
X81350013Y-132657000D01*
X81391022Y-132661039D01*
X81391022Y-132661039D01*
G37*
G36*
X83740522Y-132661039D02*
G01*
X83774057Y-132671212D01*
X83804956Y-132687728D01*
X83832043Y-132709957D01*
X83854272Y-132737044D01*
X83870788Y-132767943D01*
X83880961Y-132801478D01*
X83885000Y-132842487D01*
X83885000Y-133621513D01*
X83880961Y-133662522D01*
X83870788Y-133696057D01*
X83854272Y-133726956D01*
X83832043Y-133754043D01*
X83804956Y-133776272D01*
X83774057Y-133792788D01*
X83740522Y-133802961D01*
X83699513Y-133807000D01*
X82670487Y-133807000D01*
X82629478Y-133802961D01*
X82595943Y-133792788D01*
X82565044Y-133776272D01*
X82537957Y-133754043D01*
X82515728Y-133726956D01*
X82499212Y-133696057D01*
X82489039Y-133662522D01*
X82485000Y-133621513D01*
X82485000Y-132842487D01*
X82489039Y-132801478D01*
X82499212Y-132767943D01*
X82515728Y-132737044D01*
X82537957Y-132709957D01*
X82565044Y-132687728D01*
X82595943Y-132671212D01*
X82629478Y-132661039D01*
X82670487Y-132657000D01*
X83699513Y-132657000D01*
X83740522Y-132661039D01*
X83740522Y-132661039D01*
G37*
G36*
X77002522Y-132400039D02*
G01*
X77036057Y-132410212D01*
X77066956Y-132426728D01*
X77094043Y-132448957D01*
X77116272Y-132476044D01*
X77132788Y-132506943D01*
X77142961Y-132540478D01*
X77147000Y-132581487D01*
X77147000Y-133610513D01*
X77142961Y-133651522D01*
X77132788Y-133685057D01*
X77116272Y-133715956D01*
X77094043Y-133743043D01*
X77066956Y-133765272D01*
X77036057Y-133781788D01*
X77002522Y-133791961D01*
X76961513Y-133796000D01*
X76182487Y-133796000D01*
X76141478Y-133791961D01*
X76107943Y-133781788D01*
X76077044Y-133765272D01*
X76049957Y-133743043D01*
X76027728Y-133715956D01*
X76011212Y-133685057D01*
X76001039Y-133651522D01*
X75997000Y-133610513D01*
X75997000Y-132581487D01*
X76001039Y-132540478D01*
X76011212Y-132506943D01*
X76027728Y-132476044D01*
X76049957Y-132448957D01*
X76077044Y-132426728D01*
X76107943Y-132410212D01*
X76141478Y-132400039D01*
X76182487Y-132396000D01*
X76961513Y-132396000D01*
X77002522Y-132400039D01*
X77002522Y-132400039D01*
G37*
G36*
X79052522Y-132400039D02*
G01*
X79086057Y-132410212D01*
X79116956Y-132426728D01*
X79144043Y-132448957D01*
X79166272Y-132476044D01*
X79182788Y-132506943D01*
X79192961Y-132540478D01*
X79197000Y-132581487D01*
X79197000Y-133610513D01*
X79192961Y-133651522D01*
X79182788Y-133685057D01*
X79166272Y-133715956D01*
X79144043Y-133743043D01*
X79116956Y-133765272D01*
X79086057Y-133781788D01*
X79052522Y-133791961D01*
X79011513Y-133796000D01*
X78232487Y-133796000D01*
X78191478Y-133791961D01*
X78157943Y-133781788D01*
X78127044Y-133765272D01*
X78099957Y-133743043D01*
X78077728Y-133715956D01*
X78061212Y-133685057D01*
X78051039Y-133651522D01*
X78047000Y-133610513D01*
X78047000Y-132581487D01*
X78051039Y-132540478D01*
X78061212Y-132506943D01*
X78077728Y-132476044D01*
X78099957Y-132448957D01*
X78127044Y-132426728D01*
X78157943Y-132410212D01*
X78191478Y-132400039D01*
X78232487Y-132396000D01*
X79011513Y-132396000D01*
X79052522Y-132400039D01*
X79052522Y-132400039D01*
G37*
G36*
X75115522Y-132336539D02*
G01*
X75149057Y-132346712D01*
X75179956Y-132363228D01*
X75207043Y-132385457D01*
X75229272Y-132412544D01*
X75245788Y-132443443D01*
X75255961Y-132476978D01*
X75260000Y-132517987D01*
X75260000Y-133547013D01*
X75255961Y-133588022D01*
X75245788Y-133621557D01*
X75229272Y-133652456D01*
X75207043Y-133679543D01*
X75179956Y-133701772D01*
X75149057Y-133718288D01*
X75115522Y-133728461D01*
X75074513Y-133732500D01*
X74295487Y-133732500D01*
X74254478Y-133728461D01*
X74220943Y-133718288D01*
X74190044Y-133701772D01*
X74162957Y-133679543D01*
X74140728Y-133652456D01*
X74124212Y-133621557D01*
X74114039Y-133588022D01*
X74110000Y-133547013D01*
X74110000Y-132517987D01*
X74114039Y-132476978D01*
X74124212Y-132443443D01*
X74140728Y-132412544D01*
X74162957Y-132385457D01*
X74190044Y-132363228D01*
X74220943Y-132346712D01*
X74254478Y-132336539D01*
X74295487Y-132332500D01*
X75074513Y-132332500D01*
X75115522Y-132336539D01*
X75115522Y-132336539D01*
G37*
G36*
X73065522Y-132336539D02*
G01*
X73099057Y-132346712D01*
X73129956Y-132363228D01*
X73157043Y-132385457D01*
X73179272Y-132412544D01*
X73195788Y-132443443D01*
X73205961Y-132476978D01*
X73210000Y-132517987D01*
X73210000Y-133547013D01*
X73205961Y-133588022D01*
X73195788Y-133621557D01*
X73179272Y-133652456D01*
X73157043Y-133679543D01*
X73129956Y-133701772D01*
X73099057Y-133718288D01*
X73065522Y-133728461D01*
X73024513Y-133732500D01*
X72245487Y-133732500D01*
X72204478Y-133728461D01*
X72170943Y-133718288D01*
X72140044Y-133701772D01*
X72112957Y-133679543D01*
X72090728Y-133652456D01*
X72074212Y-133621557D01*
X72064039Y-133588022D01*
X72060000Y-133547013D01*
X72060000Y-132517987D01*
X72064039Y-132476978D01*
X72074212Y-132443443D01*
X72090728Y-132412544D01*
X72112957Y-132385457D01*
X72140044Y-132363228D01*
X72170943Y-132346712D01*
X72204478Y-132336539D01*
X72245487Y-132332500D01*
X73024513Y-132332500D01*
X73065522Y-132336539D01*
X73065522Y-132336539D01*
G37*
G36*
X68754522Y-131594239D02*
G01*
X68788057Y-131604412D01*
X68818956Y-131620928D01*
X68846043Y-131643157D01*
X68868272Y-131670244D01*
X68884788Y-131701143D01*
X68894961Y-131734678D01*
X68899000Y-131775687D01*
X68899000Y-132554713D01*
X68894961Y-132595722D01*
X68884788Y-132629257D01*
X68868272Y-132660156D01*
X68846043Y-132687243D01*
X68818956Y-132709472D01*
X68788057Y-132725988D01*
X68754522Y-132736161D01*
X68713513Y-132740200D01*
X67684487Y-132740200D01*
X67643478Y-132736161D01*
X67609943Y-132725988D01*
X67579044Y-132709472D01*
X67551957Y-132687243D01*
X67529728Y-132660156D01*
X67513212Y-132629257D01*
X67503039Y-132595722D01*
X67499000Y-132554713D01*
X67499000Y-131775687D01*
X67503039Y-131734678D01*
X67513212Y-131701143D01*
X67529728Y-131670244D01*
X67551957Y-131643157D01*
X67579044Y-131620928D01*
X67609943Y-131604412D01*
X67643478Y-131594239D01*
X67684487Y-131590200D01*
X68713513Y-131590200D01*
X68754522Y-131594239D01*
X68754522Y-131594239D01*
G37*
G36*
X70850022Y-131581539D02*
G01*
X70883557Y-131591712D01*
X70914456Y-131608228D01*
X70941543Y-131630457D01*
X70963772Y-131657544D01*
X70980288Y-131688443D01*
X70990461Y-131721978D01*
X70994500Y-131762987D01*
X70994500Y-132542013D01*
X70990461Y-132583022D01*
X70980288Y-132616557D01*
X70963772Y-132647456D01*
X70941543Y-132674543D01*
X70914456Y-132696772D01*
X70883557Y-132713288D01*
X70850022Y-132723461D01*
X70809013Y-132727500D01*
X69779987Y-132727500D01*
X69738978Y-132723461D01*
X69705443Y-132713288D01*
X69674544Y-132696772D01*
X69647457Y-132674543D01*
X69625228Y-132647456D01*
X69608712Y-132616557D01*
X69598539Y-132583022D01*
X69594500Y-132542013D01*
X69594500Y-131762987D01*
X69598539Y-131721978D01*
X69608712Y-131688443D01*
X69625228Y-131657544D01*
X69647457Y-131630457D01*
X69674544Y-131608228D01*
X69705443Y-131591712D01*
X69738978Y-131581539D01*
X69779987Y-131577500D01*
X70809013Y-131577500D01*
X70850022Y-131581539D01*
X70850022Y-131581539D01*
G37*
G36*
X100073351Y-131155743D02*
G01*
X100218941Y-131216048D01*
X100349970Y-131303599D01*
X100461401Y-131415030D01*
X100548952Y-131546059D01*
X100609257Y-131691649D01*
X100640000Y-131846206D01*
X100640000Y-132003794D01*
X100609257Y-132158351D01*
X100548952Y-132303941D01*
X100461401Y-132434970D01*
X100349970Y-132546401D01*
X100218941Y-132633952D01*
X100073351Y-132694257D01*
X99918794Y-132725000D01*
X99761206Y-132725000D01*
X99606649Y-132694257D01*
X99461059Y-132633952D01*
X99330030Y-132546401D01*
X99218599Y-132434970D01*
X99131048Y-132303941D01*
X99070743Y-132158351D01*
X99040000Y-132003794D01*
X99040000Y-131846206D01*
X99070743Y-131691649D01*
X99131048Y-131546059D01*
X99218599Y-131415030D01*
X99330030Y-131303599D01*
X99461059Y-131216048D01*
X99606649Y-131155743D01*
X99761206Y-131125000D01*
X99918794Y-131125000D01*
X100073351Y-131155743D01*
X100073351Y-131155743D01*
G37*
G36*
X58988351Y-131092743D02*
G01*
X59133941Y-131153048D01*
X59264970Y-131240599D01*
X59376401Y-131352030D01*
X59463952Y-131483059D01*
X59524257Y-131628649D01*
X59555000Y-131783206D01*
X59555000Y-131940794D01*
X59524257Y-132095351D01*
X59463952Y-132240941D01*
X59376401Y-132371970D01*
X59264970Y-132483401D01*
X59133941Y-132570952D01*
X58988351Y-132631257D01*
X58833794Y-132662000D01*
X58676206Y-132662000D01*
X58521649Y-132631257D01*
X58376059Y-132570952D01*
X58245030Y-132483401D01*
X58133599Y-132371970D01*
X58046048Y-132240941D01*
X57985743Y-132095351D01*
X57955000Y-131940794D01*
X57955000Y-131783206D01*
X57985743Y-131628649D01*
X58046048Y-131483059D01*
X58133599Y-131352030D01*
X58245030Y-131240599D01*
X58376059Y-131153048D01*
X58521649Y-131092743D01*
X58676206Y-131062000D01*
X58833794Y-131062000D01*
X58988351Y-131092743D01*
X58988351Y-131092743D01*
G37*
G36*
X83740522Y-130611039D02*
G01*
X83774057Y-130621212D01*
X83804956Y-130637728D01*
X83832043Y-130659957D01*
X83854272Y-130687044D01*
X83870788Y-130717943D01*
X83880961Y-130751478D01*
X83885000Y-130792487D01*
X83885000Y-131571513D01*
X83880961Y-131612522D01*
X83870788Y-131646057D01*
X83854272Y-131676956D01*
X83832043Y-131704043D01*
X83804956Y-131726272D01*
X83774057Y-131742788D01*
X83740522Y-131752961D01*
X83699513Y-131757000D01*
X82670487Y-131757000D01*
X82629478Y-131752961D01*
X82595943Y-131742788D01*
X82565044Y-131726272D01*
X82537957Y-131704043D01*
X82515728Y-131676956D01*
X82499212Y-131646057D01*
X82489039Y-131612522D01*
X82485000Y-131571513D01*
X82485000Y-130792487D01*
X82489039Y-130751478D01*
X82499212Y-130717943D01*
X82515728Y-130687044D01*
X82537957Y-130659957D01*
X82565044Y-130637728D01*
X82595943Y-130621212D01*
X82629478Y-130611039D01*
X82670487Y-130607000D01*
X83699513Y-130607000D01*
X83740522Y-130611039D01*
X83740522Y-130611039D01*
G37*
G36*
X81391022Y-130611039D02*
G01*
X81424557Y-130621212D01*
X81455456Y-130637728D01*
X81482543Y-130659957D01*
X81504772Y-130687044D01*
X81521288Y-130717943D01*
X81531461Y-130751478D01*
X81535500Y-130792487D01*
X81535500Y-131571513D01*
X81531461Y-131612522D01*
X81521288Y-131646057D01*
X81504772Y-131676956D01*
X81482543Y-131704043D01*
X81455456Y-131726272D01*
X81424557Y-131742788D01*
X81391022Y-131752961D01*
X81350013Y-131757000D01*
X80320987Y-131757000D01*
X80279978Y-131752961D01*
X80246443Y-131742788D01*
X80215544Y-131726272D01*
X80188457Y-131704043D01*
X80166228Y-131676956D01*
X80149712Y-131646057D01*
X80139539Y-131612522D01*
X80135500Y-131571513D01*
X80135500Y-130792487D01*
X80139539Y-130751478D01*
X80149712Y-130717943D01*
X80166228Y-130687044D01*
X80188457Y-130659957D01*
X80215544Y-130637728D01*
X80246443Y-130621212D01*
X80279978Y-130611039D01*
X80320987Y-130607000D01*
X81350013Y-130607000D01*
X81391022Y-130611039D01*
X81391022Y-130611039D01*
G37*
G36*
X79103500Y-131364000D02*
G01*
X77553500Y-131364000D01*
X77553500Y-130764000D01*
X79103500Y-130764000D01*
X79103500Y-131364000D01*
X79103500Y-131364000D01*
G37*
G36*
X73703500Y-131364000D02*
G01*
X72153500Y-131364000D01*
X72153500Y-130764000D01*
X73703500Y-130764000D01*
X73703500Y-131364000D01*
X73703500Y-131364000D01*
G37*
G36*
X97233351Y-129770743D02*
G01*
X97378941Y-129831048D01*
X97509970Y-129918599D01*
X97621401Y-130030030D01*
X97708952Y-130161059D01*
X97769257Y-130306649D01*
X97800000Y-130461206D01*
X97800000Y-130618794D01*
X97769257Y-130773351D01*
X97708952Y-130918941D01*
X97621401Y-131049970D01*
X97509970Y-131161401D01*
X97378941Y-131248952D01*
X97233351Y-131309257D01*
X97078794Y-131340000D01*
X96921206Y-131340000D01*
X96766649Y-131309257D01*
X96621059Y-131248952D01*
X96490030Y-131161401D01*
X96378599Y-131049970D01*
X96291048Y-130918941D01*
X96230743Y-130773351D01*
X96200000Y-130618794D01*
X96200000Y-130461206D01*
X96230743Y-130306649D01*
X96291048Y-130161059D01*
X96378599Y-130030030D01*
X96490030Y-129918599D01*
X96621059Y-129831048D01*
X96766649Y-129770743D01*
X96921206Y-129740000D01*
X97078794Y-129740000D01*
X97233351Y-129770743D01*
X97233351Y-129770743D01*
G37*
G36*
X61828351Y-129707743D02*
G01*
X61973941Y-129768048D01*
X62104970Y-129855599D01*
X62216401Y-129967030D01*
X62303952Y-130098059D01*
X62364257Y-130243649D01*
X62395000Y-130398206D01*
X62395000Y-130555794D01*
X62364257Y-130710351D01*
X62303952Y-130855941D01*
X62216401Y-130986970D01*
X62104970Y-131098401D01*
X61973941Y-131185952D01*
X61828351Y-131246257D01*
X61673794Y-131277000D01*
X61516206Y-131277000D01*
X61361649Y-131246257D01*
X61216059Y-131185952D01*
X61085030Y-131098401D01*
X60973599Y-130986970D01*
X60886048Y-130855941D01*
X60825743Y-130710351D01*
X60795000Y-130555794D01*
X60795000Y-130398206D01*
X60825743Y-130243649D01*
X60886048Y-130098059D01*
X60973599Y-129967030D01*
X61085030Y-129855599D01*
X61216059Y-129768048D01*
X61361649Y-129707743D01*
X61516206Y-129677000D01*
X61673794Y-129677000D01*
X61828351Y-129707743D01*
X61828351Y-129707743D01*
G37*
G36*
X68754522Y-129544239D02*
G01*
X68788057Y-129554412D01*
X68818956Y-129570928D01*
X68846043Y-129593157D01*
X68868272Y-129620244D01*
X68884788Y-129651143D01*
X68894961Y-129684678D01*
X68899000Y-129725687D01*
X68899000Y-130504713D01*
X68894961Y-130545722D01*
X68884788Y-130579257D01*
X68868272Y-130610156D01*
X68846043Y-130637243D01*
X68818956Y-130659472D01*
X68788057Y-130675988D01*
X68754522Y-130686161D01*
X68713513Y-130690200D01*
X67684487Y-130690200D01*
X67643478Y-130686161D01*
X67609943Y-130675988D01*
X67579044Y-130659472D01*
X67551957Y-130637243D01*
X67529728Y-130610156D01*
X67513212Y-130579257D01*
X67503039Y-130545722D01*
X67499000Y-130504713D01*
X67499000Y-129725687D01*
X67503039Y-129684678D01*
X67513212Y-129651143D01*
X67529728Y-129620244D01*
X67551957Y-129593157D01*
X67579044Y-129570928D01*
X67609943Y-129554412D01*
X67643478Y-129544239D01*
X67684487Y-129540200D01*
X68713513Y-129540200D01*
X68754522Y-129544239D01*
X68754522Y-129544239D01*
G37*
G36*
X70850022Y-129531539D02*
G01*
X70883557Y-129541712D01*
X70914456Y-129558228D01*
X70941543Y-129580457D01*
X70963772Y-129607544D01*
X70980288Y-129638443D01*
X70990461Y-129671978D01*
X70994500Y-129712987D01*
X70994500Y-130492013D01*
X70990461Y-130533022D01*
X70980288Y-130566557D01*
X70963772Y-130597456D01*
X70941543Y-130624543D01*
X70914456Y-130646772D01*
X70883557Y-130663288D01*
X70850022Y-130673461D01*
X70809013Y-130677500D01*
X69779987Y-130677500D01*
X69738978Y-130673461D01*
X69705443Y-130663288D01*
X69674544Y-130646772D01*
X69647457Y-130624543D01*
X69625228Y-130597456D01*
X69608712Y-130566557D01*
X69598539Y-130533022D01*
X69594500Y-130492013D01*
X69594500Y-129712987D01*
X69598539Y-129671978D01*
X69608712Y-129638443D01*
X69625228Y-129607544D01*
X69647457Y-129580457D01*
X69674544Y-129558228D01*
X69705443Y-129541712D01*
X69738978Y-129531539D01*
X69779987Y-129527500D01*
X70809013Y-129527500D01*
X70850022Y-129531539D01*
X70850022Y-129531539D01*
G37*
G36*
X73703500Y-130094000D02*
G01*
X72153500Y-130094000D01*
X72153500Y-129494000D01*
X73703500Y-129494000D01*
X73703500Y-130094000D01*
X73703500Y-130094000D01*
G37*
G36*
X79103500Y-130094000D02*
G01*
X77553500Y-130094000D01*
X77553500Y-129494000D01*
X79103500Y-129494000D01*
X79103500Y-130094000D01*
X79103500Y-130094000D01*
G37*
G36*
X100073351Y-128385743D02*
G01*
X100218941Y-128446048D01*
X100349970Y-128533599D01*
X100461401Y-128645030D01*
X100548952Y-128776059D01*
X100609257Y-128921649D01*
X100640000Y-129076206D01*
X100640000Y-129233794D01*
X100609257Y-129388351D01*
X100548952Y-129533941D01*
X100461401Y-129664970D01*
X100349970Y-129776401D01*
X100218941Y-129863952D01*
X100073351Y-129924257D01*
X99918794Y-129955000D01*
X99761206Y-129955000D01*
X99606649Y-129924257D01*
X99461059Y-129863952D01*
X99330030Y-129776401D01*
X99218599Y-129664970D01*
X99131048Y-129533941D01*
X99070743Y-129388351D01*
X99040000Y-129233794D01*
X99040000Y-129076206D01*
X99070743Y-128921649D01*
X99131048Y-128776059D01*
X99218599Y-128645030D01*
X99330030Y-128533599D01*
X99461059Y-128446048D01*
X99606649Y-128385743D01*
X99761206Y-128355000D01*
X99918794Y-128355000D01*
X100073351Y-128385743D01*
X100073351Y-128385743D01*
G37*
G36*
X58988351Y-128322743D02*
G01*
X59133941Y-128383048D01*
X59264970Y-128470599D01*
X59376401Y-128582030D01*
X59463952Y-128713059D01*
X59524257Y-128858649D01*
X59555000Y-129013206D01*
X59555000Y-129170794D01*
X59524257Y-129325351D01*
X59463952Y-129470941D01*
X59376401Y-129601970D01*
X59264970Y-129713401D01*
X59133941Y-129800952D01*
X58988351Y-129861257D01*
X58833794Y-129892000D01*
X58676206Y-129892000D01*
X58521649Y-129861257D01*
X58376059Y-129800952D01*
X58245030Y-129713401D01*
X58133599Y-129601970D01*
X58046048Y-129470941D01*
X57985743Y-129325351D01*
X57955000Y-129170794D01*
X57955000Y-129013206D01*
X57985743Y-128858649D01*
X58046048Y-128713059D01*
X58133599Y-128582030D01*
X58245030Y-128470599D01*
X58376059Y-128383048D01*
X58521649Y-128322743D01*
X58676206Y-128292000D01*
X58833794Y-128292000D01*
X58988351Y-128322743D01*
X58988351Y-128322743D01*
G37*
G36*
X90408022Y-128724039D02*
G01*
X90441557Y-128734212D01*
X90472456Y-128750728D01*
X90499543Y-128772957D01*
X90521772Y-128800044D01*
X90538288Y-128830943D01*
X90548461Y-128864478D01*
X90552500Y-128905487D01*
X90552500Y-129684513D01*
X90548461Y-129725522D01*
X90538288Y-129759057D01*
X90521772Y-129789956D01*
X90499543Y-129817043D01*
X90472456Y-129839272D01*
X90441557Y-129855788D01*
X90408022Y-129865961D01*
X90367013Y-129870000D01*
X89337987Y-129870000D01*
X89296978Y-129865961D01*
X89263443Y-129855788D01*
X89232544Y-129839272D01*
X89205457Y-129817043D01*
X89183228Y-129789956D01*
X89166712Y-129759057D01*
X89156539Y-129725522D01*
X89152500Y-129684513D01*
X89152500Y-128905487D01*
X89156539Y-128864478D01*
X89166712Y-128830943D01*
X89183228Y-128800044D01*
X89205457Y-128772957D01*
X89232544Y-128750728D01*
X89263443Y-128734212D01*
X89296978Y-128724039D01*
X89337987Y-128720000D01*
X90367013Y-128720000D01*
X90408022Y-128724039D01*
X90408022Y-128724039D01*
G37*
G36*
X83745522Y-128614039D02*
G01*
X83779057Y-128624212D01*
X83809956Y-128640728D01*
X83837043Y-128662957D01*
X83859272Y-128690044D01*
X83875788Y-128720943D01*
X83885961Y-128754478D01*
X83890000Y-128795487D01*
X83890000Y-129574513D01*
X83885961Y-129615522D01*
X83875788Y-129649057D01*
X83859272Y-129679956D01*
X83837043Y-129707043D01*
X83809956Y-129729272D01*
X83779057Y-129745788D01*
X83745522Y-129755961D01*
X83704513Y-129760000D01*
X82675487Y-129760000D01*
X82634478Y-129755961D01*
X82600943Y-129745788D01*
X82570044Y-129729272D01*
X82542957Y-129707043D01*
X82520728Y-129679956D01*
X82504212Y-129649057D01*
X82494039Y-129615522D01*
X82490000Y-129574513D01*
X82490000Y-128795487D01*
X82494039Y-128754478D01*
X82504212Y-128720943D01*
X82520728Y-128690044D01*
X82542957Y-128662957D01*
X82570044Y-128640728D01*
X82600943Y-128624212D01*
X82634478Y-128614039D01*
X82675487Y-128610000D01*
X83704513Y-128610000D01*
X83745522Y-128614039D01*
X83745522Y-128614039D01*
G37*
G36*
X81391022Y-128588039D02*
G01*
X81424557Y-128598212D01*
X81455456Y-128614728D01*
X81482543Y-128636957D01*
X81504772Y-128664044D01*
X81521288Y-128694943D01*
X81531461Y-128728478D01*
X81535500Y-128769487D01*
X81535500Y-129548513D01*
X81531461Y-129589522D01*
X81521288Y-129623057D01*
X81504772Y-129653956D01*
X81482543Y-129681043D01*
X81455456Y-129703272D01*
X81424557Y-129719788D01*
X81391022Y-129729961D01*
X81350013Y-129734000D01*
X80320987Y-129734000D01*
X80279978Y-129729961D01*
X80246443Y-129719788D01*
X80215544Y-129703272D01*
X80188457Y-129681043D01*
X80166228Y-129653956D01*
X80149712Y-129623057D01*
X80139539Y-129589522D01*
X80135500Y-129548513D01*
X80135500Y-128769487D01*
X80139539Y-128728478D01*
X80149712Y-128694943D01*
X80166228Y-128664044D01*
X80188457Y-128636957D01*
X80215544Y-128614728D01*
X80246443Y-128598212D01*
X80279978Y-128588039D01*
X80320987Y-128584000D01*
X81350013Y-128584000D01*
X81391022Y-128588039D01*
X81391022Y-128588039D01*
G37*
G36*
X86440000Y-129525000D02*
G01*
X85380000Y-129525000D01*
X85380000Y-128875000D01*
X86440000Y-128875000D01*
X86440000Y-129525000D01*
X86440000Y-129525000D01*
G37*
G36*
X88640000Y-129525000D02*
G01*
X87580000Y-129525000D01*
X87580000Y-128875000D01*
X88640000Y-128875000D01*
X88640000Y-129525000D01*
X88640000Y-129525000D01*
G37*
G36*
X79103500Y-128824000D02*
G01*
X77553500Y-128824000D01*
X77553500Y-128224000D01*
X79103500Y-128224000D01*
X79103500Y-128824000D01*
X79103500Y-128824000D01*
G37*
G36*
X73703500Y-128824000D02*
G01*
X72153500Y-128824000D01*
X72153500Y-128224000D01*
X73703500Y-128224000D01*
X73703500Y-128824000D01*
X73703500Y-128824000D01*
G37*
G36*
X86440000Y-128575000D02*
G01*
X85380000Y-128575000D01*
X85380000Y-127925000D01*
X86440000Y-127925000D01*
X86440000Y-128575000D01*
X86440000Y-128575000D01*
G37*
G36*
X97233351Y-127000743D02*
G01*
X97378941Y-127061048D01*
X97509970Y-127148599D01*
X97621401Y-127260030D01*
X97708952Y-127391059D01*
X97769257Y-127536649D01*
X97800000Y-127691206D01*
X97800000Y-127848794D01*
X97769257Y-128003351D01*
X97708952Y-128148941D01*
X97621401Y-128279970D01*
X97509970Y-128391401D01*
X97378941Y-128478952D01*
X97233351Y-128539257D01*
X97078794Y-128570000D01*
X96921206Y-128570000D01*
X96766649Y-128539257D01*
X96621059Y-128478952D01*
X96490030Y-128391401D01*
X96378599Y-128279970D01*
X96291048Y-128148941D01*
X96230743Y-128003351D01*
X96200000Y-127848794D01*
X96200000Y-127691206D01*
X96230743Y-127536649D01*
X96291048Y-127391059D01*
X96378599Y-127260030D01*
X96490030Y-127148599D01*
X96621059Y-127061048D01*
X96766649Y-127000743D01*
X96921206Y-126970000D01*
X97078794Y-126970000D01*
X97233351Y-127000743D01*
X97233351Y-127000743D01*
G37*
G36*
X68754522Y-127390539D02*
G01*
X68788057Y-127400712D01*
X68818956Y-127417228D01*
X68846043Y-127439457D01*
X68868272Y-127466544D01*
X68884788Y-127497443D01*
X68894961Y-127530978D01*
X68899000Y-127571987D01*
X68899000Y-128351013D01*
X68894961Y-128392022D01*
X68884788Y-128425557D01*
X68868272Y-128456456D01*
X68846043Y-128483543D01*
X68818956Y-128505772D01*
X68788057Y-128522288D01*
X68754522Y-128532461D01*
X68713513Y-128536500D01*
X67684487Y-128536500D01*
X67643478Y-128532461D01*
X67609943Y-128522288D01*
X67579044Y-128505772D01*
X67551957Y-128483543D01*
X67529728Y-128456456D01*
X67513212Y-128425557D01*
X67503039Y-128392022D01*
X67499000Y-128351013D01*
X67499000Y-127571987D01*
X67503039Y-127530978D01*
X67513212Y-127497443D01*
X67529728Y-127466544D01*
X67551957Y-127439457D01*
X67579044Y-127417228D01*
X67609943Y-127400712D01*
X67643478Y-127390539D01*
X67684487Y-127386500D01*
X68713513Y-127386500D01*
X68754522Y-127390539D01*
X68754522Y-127390539D01*
G37*
G36*
X70850022Y-127390539D02*
G01*
X70883557Y-127400712D01*
X70914456Y-127417228D01*
X70941543Y-127439457D01*
X70963772Y-127466544D01*
X70980288Y-127497443D01*
X70990461Y-127530978D01*
X70994500Y-127571987D01*
X70994500Y-128351013D01*
X70990461Y-128392022D01*
X70980288Y-128425557D01*
X70963772Y-128456456D01*
X70941543Y-128483543D01*
X70914456Y-128505772D01*
X70883557Y-128522288D01*
X70850022Y-128532461D01*
X70809013Y-128536500D01*
X69779987Y-128536500D01*
X69738978Y-128532461D01*
X69705443Y-128522288D01*
X69674544Y-128505772D01*
X69647457Y-128483543D01*
X69625228Y-128456456D01*
X69608712Y-128425557D01*
X69598539Y-128392022D01*
X69594500Y-128351013D01*
X69594500Y-127571987D01*
X69598539Y-127530978D01*
X69608712Y-127497443D01*
X69625228Y-127466544D01*
X69647457Y-127439457D01*
X69674544Y-127417228D01*
X69705443Y-127400712D01*
X69738978Y-127390539D01*
X69779987Y-127386500D01*
X70809013Y-127386500D01*
X70850022Y-127390539D01*
X70850022Y-127390539D01*
G37*
G36*
X61828351Y-126937743D02*
G01*
X61973941Y-126998048D01*
X62104970Y-127085599D01*
X62216401Y-127197030D01*
X62303952Y-127328059D01*
X62364257Y-127473649D01*
X62395000Y-127628206D01*
X62395000Y-127785794D01*
X62364257Y-127940351D01*
X62303952Y-128085941D01*
X62216401Y-128216970D01*
X62104970Y-128328401D01*
X61973941Y-128415952D01*
X61828351Y-128476257D01*
X61673794Y-128507000D01*
X61516206Y-128507000D01*
X61361649Y-128476257D01*
X61216059Y-128415952D01*
X61085030Y-128328401D01*
X60973599Y-128216970D01*
X60886048Y-128085941D01*
X60825743Y-127940351D01*
X60795000Y-127785794D01*
X60795000Y-127628206D01*
X60825743Y-127473649D01*
X60886048Y-127328059D01*
X60973599Y-127197030D01*
X61085030Y-127085599D01*
X61216059Y-126998048D01*
X61361649Y-126937743D01*
X61516206Y-126907000D01*
X61673794Y-126907000D01*
X61828351Y-126937743D01*
X61828351Y-126937743D01*
G37*
G36*
X90408022Y-126674039D02*
G01*
X90441557Y-126684212D01*
X90472456Y-126700728D01*
X90499543Y-126722957D01*
X90521772Y-126750044D01*
X90538288Y-126780943D01*
X90548461Y-126814478D01*
X90552500Y-126855487D01*
X90552500Y-127634513D01*
X90548461Y-127675522D01*
X90538288Y-127709057D01*
X90521772Y-127739956D01*
X90499543Y-127767043D01*
X90472456Y-127789272D01*
X90441557Y-127805788D01*
X90408022Y-127815961D01*
X90367013Y-127820000D01*
X89337987Y-127820000D01*
X89296978Y-127815961D01*
X89263443Y-127805788D01*
X89232544Y-127789272D01*
X89205457Y-127767043D01*
X89183228Y-127739956D01*
X89166712Y-127709057D01*
X89156539Y-127675522D01*
X89152500Y-127634513D01*
X89152500Y-126855487D01*
X89156539Y-126814478D01*
X89166712Y-126780943D01*
X89183228Y-126750044D01*
X89205457Y-126722957D01*
X89232544Y-126700728D01*
X89263443Y-126684212D01*
X89296978Y-126674039D01*
X89337987Y-126670000D01*
X90367013Y-126670000D01*
X90408022Y-126674039D01*
X90408022Y-126674039D01*
G37*
G36*
X83745522Y-126564039D02*
G01*
X83779057Y-126574212D01*
X83809956Y-126590728D01*
X83837043Y-126612957D01*
X83859272Y-126640044D01*
X83875788Y-126670943D01*
X83885961Y-126704478D01*
X83890000Y-126745487D01*
X83890000Y-127524513D01*
X83885961Y-127565522D01*
X83875788Y-127599057D01*
X83859272Y-127629956D01*
X83837043Y-127657043D01*
X83809956Y-127679272D01*
X83779057Y-127695788D01*
X83745522Y-127705961D01*
X83704513Y-127710000D01*
X82675487Y-127710000D01*
X82634478Y-127705961D01*
X82600943Y-127695788D01*
X82570044Y-127679272D01*
X82542957Y-127657043D01*
X82520728Y-127629956D01*
X82504212Y-127599057D01*
X82494039Y-127565522D01*
X82490000Y-127524513D01*
X82490000Y-126745487D01*
X82494039Y-126704478D01*
X82504212Y-126670943D01*
X82520728Y-126640044D01*
X82542957Y-126612957D01*
X82570044Y-126590728D01*
X82600943Y-126574212D01*
X82634478Y-126564039D01*
X82675487Y-126560000D01*
X83704513Y-126560000D01*
X83745522Y-126564039D01*
X83745522Y-126564039D01*
G37*
G36*
X81391022Y-126538039D02*
G01*
X81424557Y-126548212D01*
X81455456Y-126564728D01*
X81482543Y-126586957D01*
X81504772Y-126614044D01*
X81521288Y-126644943D01*
X81531461Y-126678478D01*
X81535500Y-126719487D01*
X81535500Y-127498513D01*
X81531461Y-127539522D01*
X81521288Y-127573057D01*
X81504772Y-127603956D01*
X81482543Y-127631043D01*
X81455456Y-127653272D01*
X81424557Y-127669788D01*
X81391022Y-127679961D01*
X81350013Y-127684000D01*
X80320987Y-127684000D01*
X80279978Y-127679961D01*
X80246443Y-127669788D01*
X80215544Y-127653272D01*
X80188457Y-127631043D01*
X80166228Y-127603956D01*
X80149712Y-127573057D01*
X80139539Y-127539522D01*
X80135500Y-127498513D01*
X80135500Y-126719487D01*
X80139539Y-126678478D01*
X80149712Y-126644943D01*
X80166228Y-126614044D01*
X80188457Y-126586957D01*
X80215544Y-126564728D01*
X80246443Y-126548212D01*
X80279978Y-126538039D01*
X80320987Y-126534000D01*
X81350013Y-126534000D01*
X81391022Y-126538039D01*
X81391022Y-126538039D01*
G37*
G36*
X88640000Y-127625000D02*
G01*
X87580000Y-127625000D01*
X87580000Y-126975000D01*
X88640000Y-126975000D01*
X88640000Y-127625000D01*
X88640000Y-127625000D01*
G37*
G36*
X86440000Y-127625000D02*
G01*
X85380000Y-127625000D01*
X85380000Y-126975000D01*
X86440000Y-126975000D01*
X86440000Y-127625000D01*
X86440000Y-127625000D01*
G37*
G36*
X79103500Y-127554000D02*
G01*
X77553500Y-127554000D01*
X77553500Y-126954000D01*
X79103500Y-126954000D01*
X79103500Y-127554000D01*
X79103500Y-127554000D01*
G37*
G36*
X73703500Y-127554000D02*
G01*
X72153500Y-127554000D01*
X72153500Y-126954000D01*
X73703500Y-126954000D01*
X73703500Y-127554000D01*
X73703500Y-127554000D01*
G37*
G36*
X100073351Y-125615743D02*
G01*
X100218941Y-125676048D01*
X100349970Y-125763599D01*
X100461401Y-125875030D01*
X100548952Y-126006059D01*
X100609257Y-126151649D01*
X100640000Y-126306206D01*
X100640000Y-126463794D01*
X100609257Y-126618351D01*
X100548952Y-126763941D01*
X100461401Y-126894970D01*
X100349970Y-127006401D01*
X100218941Y-127093952D01*
X100073351Y-127154257D01*
X99918794Y-127185000D01*
X99761206Y-127185000D01*
X99606649Y-127154257D01*
X99461059Y-127093952D01*
X99330030Y-127006401D01*
X99218599Y-126894970D01*
X99131048Y-126763941D01*
X99070743Y-126618351D01*
X99040000Y-126463794D01*
X99040000Y-126306206D01*
X99070743Y-126151649D01*
X99131048Y-126006059D01*
X99218599Y-125875030D01*
X99330030Y-125763599D01*
X99461059Y-125676048D01*
X99606649Y-125615743D01*
X99761206Y-125585000D01*
X99918794Y-125585000D01*
X100073351Y-125615743D01*
X100073351Y-125615743D01*
G37*
G36*
X58988351Y-125552743D02*
G01*
X59133941Y-125613048D01*
X59264970Y-125700599D01*
X59376401Y-125812030D01*
X59463952Y-125943059D01*
X59524257Y-126088649D01*
X59555000Y-126243206D01*
X59555000Y-126400794D01*
X59524257Y-126555351D01*
X59463952Y-126700941D01*
X59376401Y-126831970D01*
X59264970Y-126943401D01*
X59133941Y-127030952D01*
X58988351Y-127091257D01*
X58833794Y-127122000D01*
X58676206Y-127122000D01*
X58521649Y-127091257D01*
X58376059Y-127030952D01*
X58245030Y-126943401D01*
X58133599Y-126831970D01*
X58046048Y-126700941D01*
X57985743Y-126555351D01*
X57955000Y-126400794D01*
X57955000Y-126243206D01*
X57985743Y-126088649D01*
X58046048Y-125943059D01*
X58133599Y-125812030D01*
X58245030Y-125700599D01*
X58376059Y-125613048D01*
X58521649Y-125552743D01*
X58676206Y-125522000D01*
X58833794Y-125522000D01*
X58988351Y-125552743D01*
X58988351Y-125552743D01*
G37*
G36*
X68754522Y-125340539D02*
G01*
X68788057Y-125350712D01*
X68818956Y-125367228D01*
X68846043Y-125389457D01*
X68868272Y-125416544D01*
X68884788Y-125447443D01*
X68894961Y-125480978D01*
X68899000Y-125521987D01*
X68899000Y-126301013D01*
X68894961Y-126342022D01*
X68884788Y-126375557D01*
X68868272Y-126406456D01*
X68846043Y-126433543D01*
X68818956Y-126455772D01*
X68788057Y-126472288D01*
X68754522Y-126482461D01*
X68713513Y-126486500D01*
X67684487Y-126486500D01*
X67643478Y-126482461D01*
X67609943Y-126472288D01*
X67579044Y-126455772D01*
X67551957Y-126433543D01*
X67529728Y-126406456D01*
X67513212Y-126375557D01*
X67503039Y-126342022D01*
X67499000Y-126301013D01*
X67499000Y-125521987D01*
X67503039Y-125480978D01*
X67513212Y-125447443D01*
X67529728Y-125416544D01*
X67551957Y-125389457D01*
X67579044Y-125367228D01*
X67609943Y-125350712D01*
X67643478Y-125340539D01*
X67684487Y-125336500D01*
X68713513Y-125336500D01*
X68754522Y-125340539D01*
X68754522Y-125340539D01*
G37*
G36*
X70850022Y-125340539D02*
G01*
X70883557Y-125350712D01*
X70914456Y-125367228D01*
X70941543Y-125389457D01*
X70963772Y-125416544D01*
X70980288Y-125447443D01*
X70990461Y-125480978D01*
X70994500Y-125521987D01*
X70994500Y-126301013D01*
X70990461Y-126342022D01*
X70980288Y-126375557D01*
X70963772Y-126406456D01*
X70941543Y-126433543D01*
X70914456Y-126455772D01*
X70883557Y-126472288D01*
X70850022Y-126482461D01*
X70809013Y-126486500D01*
X69779987Y-126486500D01*
X69738978Y-126482461D01*
X69705443Y-126472288D01*
X69674544Y-126455772D01*
X69647457Y-126433543D01*
X69625228Y-126406456D01*
X69608712Y-126375557D01*
X69598539Y-126342022D01*
X69594500Y-126301013D01*
X69594500Y-125521987D01*
X69598539Y-125480978D01*
X69608712Y-125447443D01*
X69625228Y-125416544D01*
X69647457Y-125389457D01*
X69674544Y-125367228D01*
X69705443Y-125350712D01*
X69738978Y-125340539D01*
X69779987Y-125336500D01*
X70809013Y-125336500D01*
X70850022Y-125340539D01*
X70850022Y-125340539D01*
G37*
G36*
X97800000Y-125800000D02*
G01*
X96200000Y-125800000D01*
X96200000Y-124200000D01*
X97800000Y-124200000D01*
X97800000Y-125800000D01*
X97800000Y-125800000D01*
G37*
G36*
X61828351Y-124167743D02*
G01*
X61973941Y-124228048D01*
X62104970Y-124315599D01*
X62216401Y-124427030D01*
X62303952Y-124558059D01*
X62364257Y-124703649D01*
X62395000Y-124858206D01*
X62395000Y-125015794D01*
X62364257Y-125170351D01*
X62303952Y-125315941D01*
X62216401Y-125446970D01*
X62104970Y-125558401D01*
X61973941Y-125645952D01*
X61828351Y-125706257D01*
X61673794Y-125737000D01*
X61516206Y-125737000D01*
X61361649Y-125706257D01*
X61216059Y-125645952D01*
X61085030Y-125558401D01*
X60973599Y-125446970D01*
X60886048Y-125315941D01*
X60825743Y-125170351D01*
X60795000Y-125015794D01*
X60795000Y-124858206D01*
X60825743Y-124703649D01*
X60886048Y-124558059D01*
X60973599Y-124427030D01*
X61085030Y-124315599D01*
X61216059Y-124228048D01*
X61361649Y-124167743D01*
X61516206Y-124137000D01*
X61673794Y-124137000D01*
X61828351Y-124167743D01*
X61828351Y-124167743D01*
G37*
G36*
X83742522Y-123256039D02*
G01*
X83776057Y-123266212D01*
X83806956Y-123282728D01*
X83834043Y-123304957D01*
X83856272Y-123332044D01*
X83872788Y-123362943D01*
X83882961Y-123396478D01*
X83887000Y-123437487D01*
X83887000Y-124466513D01*
X83882961Y-124507522D01*
X83872788Y-124541057D01*
X83856272Y-124571956D01*
X83834043Y-124599043D01*
X83806956Y-124621272D01*
X83776057Y-124637788D01*
X83742522Y-124647961D01*
X83701513Y-124652000D01*
X82922487Y-124652000D01*
X82881478Y-124647961D01*
X82847943Y-124637788D01*
X82817044Y-124621272D01*
X82789957Y-124599043D01*
X82767728Y-124571956D01*
X82751212Y-124541057D01*
X82741039Y-124507522D01*
X82737000Y-124466513D01*
X82737000Y-123437487D01*
X82741039Y-123396478D01*
X82751212Y-123362943D01*
X82767728Y-123332044D01*
X82789957Y-123304957D01*
X82817044Y-123282728D01*
X82847943Y-123266212D01*
X82881478Y-123256039D01*
X82922487Y-123252000D01*
X83701513Y-123252000D01*
X83742522Y-123256039D01*
X83742522Y-123256039D01*
G37*
G36*
X81692522Y-123256039D02*
G01*
X81726057Y-123266212D01*
X81756956Y-123282728D01*
X81784043Y-123304957D01*
X81806272Y-123332044D01*
X81822788Y-123362943D01*
X81832961Y-123396478D01*
X81837000Y-123437487D01*
X81837000Y-124466513D01*
X81832961Y-124507522D01*
X81822788Y-124541057D01*
X81806272Y-124571956D01*
X81784043Y-124599043D01*
X81756956Y-124621272D01*
X81726057Y-124637788D01*
X81692522Y-124647961D01*
X81651513Y-124652000D01*
X80872487Y-124652000D01*
X80831478Y-124647961D01*
X80797943Y-124637788D01*
X80767044Y-124621272D01*
X80739957Y-124599043D01*
X80717728Y-124571956D01*
X80701212Y-124541057D01*
X80691039Y-124507522D01*
X80687000Y-124466513D01*
X80687000Y-123437487D01*
X80691039Y-123396478D01*
X80701212Y-123362943D01*
X80717728Y-123332044D01*
X80739957Y-123304957D01*
X80767044Y-123282728D01*
X80797943Y-123266212D01*
X80831478Y-123256039D01*
X80872487Y-123252000D01*
X81651513Y-123252000D01*
X81692522Y-123256039D01*
X81692522Y-123256039D01*
G37*
G36*
X77764522Y-123256039D02*
G01*
X77798057Y-123266212D01*
X77828956Y-123282728D01*
X77856043Y-123304957D01*
X77878272Y-123332044D01*
X77894788Y-123362943D01*
X77904961Y-123396478D01*
X77909000Y-123437487D01*
X77909000Y-124466513D01*
X77904961Y-124507522D01*
X77894788Y-124541057D01*
X77878272Y-124571956D01*
X77856043Y-124599043D01*
X77828956Y-124621272D01*
X77798057Y-124637788D01*
X77764522Y-124647961D01*
X77723513Y-124652000D01*
X76944487Y-124652000D01*
X76903478Y-124647961D01*
X76869943Y-124637788D01*
X76839044Y-124621272D01*
X76811957Y-124599043D01*
X76789728Y-124571956D01*
X76773212Y-124541057D01*
X76763039Y-124507522D01*
X76759000Y-124466513D01*
X76759000Y-123437487D01*
X76763039Y-123396478D01*
X76773212Y-123362943D01*
X76789728Y-123332044D01*
X76811957Y-123304957D01*
X76839044Y-123282728D01*
X76869943Y-123266212D01*
X76903478Y-123256039D01*
X76944487Y-123252000D01*
X77723513Y-123252000D01*
X77764522Y-123256039D01*
X77764522Y-123256039D01*
G37*
G36*
X79814522Y-123256039D02*
G01*
X79848057Y-123266212D01*
X79878956Y-123282728D01*
X79906043Y-123304957D01*
X79928272Y-123332044D01*
X79944788Y-123362943D01*
X79954961Y-123396478D01*
X79959000Y-123437487D01*
X79959000Y-124466513D01*
X79954961Y-124507522D01*
X79944788Y-124541057D01*
X79928272Y-124571956D01*
X79906043Y-124599043D01*
X79878956Y-124621272D01*
X79848057Y-124637788D01*
X79814522Y-124647961D01*
X79773513Y-124652000D01*
X78994487Y-124652000D01*
X78953478Y-124647961D01*
X78919943Y-124637788D01*
X78889044Y-124621272D01*
X78861957Y-124599043D01*
X78839728Y-124571956D01*
X78823212Y-124541057D01*
X78813039Y-124507522D01*
X78809000Y-124466513D01*
X78809000Y-123437487D01*
X78813039Y-123396478D01*
X78823212Y-123362943D01*
X78839728Y-123332044D01*
X78861957Y-123304957D01*
X78889044Y-123282728D01*
X78919943Y-123266212D01*
X78953478Y-123256039D01*
X78994487Y-123252000D01*
X79773513Y-123252000D01*
X79814522Y-123256039D01*
X79814522Y-123256039D01*
G37*
G36*
X68493522Y-122875039D02*
G01*
X68527057Y-122885212D01*
X68557956Y-122901728D01*
X68585043Y-122923957D01*
X68607272Y-122951044D01*
X68623788Y-122981943D01*
X68633961Y-123015478D01*
X68638000Y-123056487D01*
X68638000Y-124085513D01*
X68633961Y-124126522D01*
X68623788Y-124160057D01*
X68607272Y-124190956D01*
X68585043Y-124218043D01*
X68557956Y-124240272D01*
X68527057Y-124256788D01*
X68493522Y-124266961D01*
X68452513Y-124271000D01*
X67673487Y-124271000D01*
X67632478Y-124266961D01*
X67598943Y-124256788D01*
X67568044Y-124240272D01*
X67540957Y-124218043D01*
X67518728Y-124190956D01*
X67502212Y-124160057D01*
X67492039Y-124126522D01*
X67488000Y-124085513D01*
X67488000Y-123056487D01*
X67492039Y-123015478D01*
X67502212Y-122981943D01*
X67518728Y-122951044D01*
X67540957Y-122923957D01*
X67568044Y-122901728D01*
X67598943Y-122885212D01*
X67632478Y-122875039D01*
X67673487Y-122871000D01*
X68452513Y-122871000D01*
X68493522Y-122875039D01*
X68493522Y-122875039D01*
G37*
G36*
X70543522Y-122875039D02*
G01*
X70577057Y-122885212D01*
X70607956Y-122901728D01*
X70635043Y-122923957D01*
X70657272Y-122951044D01*
X70673788Y-122981943D01*
X70683961Y-123015478D01*
X70688000Y-123056487D01*
X70688000Y-124085513D01*
X70683961Y-124126522D01*
X70673788Y-124160057D01*
X70657272Y-124190956D01*
X70635043Y-124218043D01*
X70607956Y-124240272D01*
X70577057Y-124256788D01*
X70543522Y-124266961D01*
X70502513Y-124271000D01*
X69723487Y-124271000D01*
X69682478Y-124266961D01*
X69648943Y-124256788D01*
X69618044Y-124240272D01*
X69590957Y-124218043D01*
X69568728Y-124190956D01*
X69552212Y-124160057D01*
X69542039Y-124126522D01*
X69538000Y-124085513D01*
X69538000Y-123056487D01*
X69542039Y-123015478D01*
X69552212Y-122981943D01*
X69568728Y-122951044D01*
X69590957Y-122923957D01*
X69618044Y-122901728D01*
X69648943Y-122885212D01*
X69682478Y-122875039D01*
X69723487Y-122871000D01*
X70502513Y-122871000D01*
X70543522Y-122875039D01*
X70543522Y-122875039D01*
G37*
G36*
X74906964Y-119854037D02*
G01*
X74938525Y-119863612D01*
X74967620Y-119879163D01*
X74993115Y-119900085D01*
X75014037Y-119925580D01*
X75029588Y-119954675D01*
X75039163Y-119986236D01*
X75043000Y-120025198D01*
X75043000Y-121100202D01*
X75039163Y-121139164D01*
X75029588Y-121170725D01*
X75014037Y-121199820D01*
X74993115Y-121225315D01*
X74967620Y-121246237D01*
X74938525Y-121261788D01*
X74906964Y-121271363D01*
X74868002Y-121275200D01*
X73467998Y-121275200D01*
X73429036Y-121271363D01*
X73397475Y-121261788D01*
X73368380Y-121246237D01*
X73342885Y-121225315D01*
X73321963Y-121199820D01*
X73306412Y-121170725D01*
X73296837Y-121139164D01*
X73293000Y-121100202D01*
X73293000Y-120025198D01*
X73296837Y-119986236D01*
X73306412Y-119954675D01*
X73321963Y-119925580D01*
X73342885Y-119900085D01*
X73368380Y-119879163D01*
X73397475Y-119863612D01*
X73429036Y-119854037D01*
X73467998Y-119850200D01*
X74868002Y-119850200D01*
X74906964Y-119854037D01*
X74906964Y-119854037D01*
G37*
G36*
X77390522Y-120113439D02*
G01*
X77424057Y-120123612D01*
X77454956Y-120140128D01*
X77482043Y-120162357D01*
X77504272Y-120189444D01*
X77520788Y-120220343D01*
X77530961Y-120253878D01*
X77535000Y-120294887D01*
X77535000Y-121073913D01*
X77530961Y-121114922D01*
X77520788Y-121148457D01*
X77504272Y-121179356D01*
X77482043Y-121206443D01*
X77454956Y-121228672D01*
X77424057Y-121245188D01*
X77390522Y-121255361D01*
X77349513Y-121259400D01*
X76320487Y-121259400D01*
X76279478Y-121255361D01*
X76245943Y-121245188D01*
X76215044Y-121228672D01*
X76187957Y-121206443D01*
X76165728Y-121179356D01*
X76149212Y-121148457D01*
X76139039Y-121114922D01*
X76135000Y-121073913D01*
X76135000Y-120294887D01*
X76139039Y-120253878D01*
X76149212Y-120220343D01*
X76165728Y-120189444D01*
X76187957Y-120162357D01*
X76215044Y-120140128D01*
X76245943Y-120123612D01*
X76279478Y-120113439D01*
X76320487Y-120109400D01*
X77349513Y-120109400D01*
X77390522Y-120113439D01*
X77390522Y-120113439D01*
G37*
G36*
X83815000Y-121244000D02*
G01*
X80015000Y-121244000D01*
X80015000Y-119244000D01*
X83815000Y-119244000D01*
X83815000Y-121244000D01*
X83815000Y-121244000D01*
G37*
G36*
X87423522Y-119643539D02*
G01*
X87457057Y-119653712D01*
X87487956Y-119670228D01*
X87515043Y-119692457D01*
X87537272Y-119719544D01*
X87553788Y-119750443D01*
X87563961Y-119783978D01*
X87568000Y-119824987D01*
X87568000Y-120604013D01*
X87563961Y-120645022D01*
X87553788Y-120678557D01*
X87537272Y-120709456D01*
X87515043Y-120736543D01*
X87487956Y-120758772D01*
X87457057Y-120775288D01*
X87423522Y-120785461D01*
X87382513Y-120789500D01*
X86353487Y-120789500D01*
X86312478Y-120785461D01*
X86278943Y-120775288D01*
X86248044Y-120758772D01*
X86220957Y-120736543D01*
X86198728Y-120709456D01*
X86182212Y-120678557D01*
X86172039Y-120645022D01*
X86168000Y-120604013D01*
X86168000Y-119824987D01*
X86172039Y-119783978D01*
X86182212Y-119750443D01*
X86198728Y-119719544D01*
X86220957Y-119692457D01*
X86248044Y-119670228D01*
X86278943Y-119653712D01*
X86312478Y-119643539D01*
X86353487Y-119639500D01*
X87382513Y-119639500D01*
X87423522Y-119643539D01*
X87423522Y-119643539D01*
G37*
G36*
X97883377Y-116116858D02*
G01*
X98247353Y-116267622D01*
X98247355Y-116267623D01*
X98412251Y-116377803D01*
X98574925Y-116486498D01*
X98853502Y-116765075D01*
X99072378Y-117092647D01*
X99223142Y-117456623D01*
X99300000Y-117843016D01*
X99300000Y-118236984D01*
X99223142Y-118623377D01*
X99083956Y-118959401D01*
X99072377Y-118987355D01*
X98853501Y-119314926D01*
X98574926Y-119593501D01*
X98247355Y-119812377D01*
X98247354Y-119812378D01*
X98247353Y-119812378D01*
X97883377Y-119963142D01*
X97496984Y-120040000D01*
X97103016Y-120040000D01*
X96716623Y-119963142D01*
X96352647Y-119812378D01*
X96352646Y-119812378D01*
X96352645Y-119812377D01*
X96025074Y-119593501D01*
X95746499Y-119314926D01*
X95527623Y-118987355D01*
X95516044Y-118959401D01*
X95376858Y-118623377D01*
X95300000Y-118236984D01*
X95300000Y-117843016D01*
X95376858Y-117456623D01*
X95527622Y-117092647D01*
X95746498Y-116765075D01*
X96025075Y-116486498D01*
X96187749Y-116377803D01*
X96352645Y-116267623D01*
X96352647Y-116267622D01*
X96716623Y-116116858D01*
X97103016Y-116040000D01*
X97496984Y-116040000D01*
X97883377Y-116116858D01*
X97883377Y-116116858D01*
G37*
G36*
X61878377Y-116053858D02*
G01*
X62242353Y-116204622D01*
X62242355Y-116204623D01*
X62569926Y-116423499D01*
X62848501Y-116702074D01*
X62992333Y-116917333D01*
X63067378Y-117029647D01*
X63218142Y-117393623D01*
X63295000Y-117780016D01*
X63295000Y-118173984D01*
X63218142Y-118560377D01*
X63067378Y-118924353D01*
X63067377Y-118924355D01*
X63000854Y-119023913D01*
X62848502Y-119251925D01*
X62569925Y-119530502D01*
X62407251Y-119639197D01*
X62242355Y-119749377D01*
X62242354Y-119749378D01*
X62242353Y-119749378D01*
X61878377Y-119900142D01*
X61491984Y-119977000D01*
X61098016Y-119977000D01*
X60711623Y-119900142D01*
X60347647Y-119749378D01*
X60347646Y-119749378D01*
X60347645Y-119749377D01*
X60182749Y-119639197D01*
X60020075Y-119530502D01*
X59741498Y-119251925D01*
X59589146Y-119023913D01*
X59522623Y-118924355D01*
X59522622Y-118924353D01*
X59371858Y-118560377D01*
X59295000Y-118173984D01*
X59295000Y-117780016D01*
X59371858Y-117393623D01*
X59522622Y-117029647D01*
X59597668Y-116917333D01*
X59741499Y-116702074D01*
X60020074Y-116423499D01*
X60347645Y-116204623D01*
X60347647Y-116204622D01*
X60711623Y-116053858D01*
X61098016Y-115977000D01*
X61491984Y-115977000D01*
X61878377Y-116053858D01*
X61878377Y-116053858D01*
G37*
G36*
X77390522Y-118063439D02*
G01*
X77424057Y-118073612D01*
X77454956Y-118090128D01*
X77482043Y-118112357D01*
X77504272Y-118139444D01*
X77520788Y-118170343D01*
X77530961Y-118203878D01*
X77535000Y-118244887D01*
X77535000Y-119023913D01*
X77530961Y-119064922D01*
X77520788Y-119098457D01*
X77504272Y-119129356D01*
X77482043Y-119156443D01*
X77454956Y-119178672D01*
X77424057Y-119195188D01*
X77390522Y-119205361D01*
X77349513Y-119209400D01*
X76320487Y-119209400D01*
X76279478Y-119205361D01*
X76245943Y-119195188D01*
X76215044Y-119178672D01*
X76187957Y-119156443D01*
X76165728Y-119129356D01*
X76149212Y-119098457D01*
X76139039Y-119064922D01*
X76135000Y-119023913D01*
X76135000Y-118244887D01*
X76139039Y-118203878D01*
X76149212Y-118170343D01*
X76165728Y-118139444D01*
X76187957Y-118112357D01*
X76215044Y-118090128D01*
X76245943Y-118073612D01*
X76279478Y-118063439D01*
X76320487Y-118059400D01*
X77349513Y-118059400D01*
X77390522Y-118063439D01*
X77390522Y-118063439D01*
G37*
G36*
X87423522Y-117593539D02*
G01*
X87457057Y-117603712D01*
X87487956Y-117620228D01*
X87515043Y-117642457D01*
X87537272Y-117669544D01*
X87553788Y-117700443D01*
X87563961Y-117733978D01*
X87568000Y-117774987D01*
X87568000Y-118554013D01*
X87563961Y-118595022D01*
X87553788Y-118628557D01*
X87537272Y-118659456D01*
X87515043Y-118686543D01*
X87487956Y-118708772D01*
X87457057Y-118725288D01*
X87423522Y-118735461D01*
X87382513Y-118739500D01*
X86353487Y-118739500D01*
X86312478Y-118735461D01*
X86278943Y-118725288D01*
X86248044Y-118708772D01*
X86220957Y-118686543D01*
X86198728Y-118659456D01*
X86182212Y-118628557D01*
X86172039Y-118595022D01*
X86168000Y-118554013D01*
X86168000Y-117774987D01*
X86172039Y-117733978D01*
X86182212Y-117700443D01*
X86198728Y-117669544D01*
X86220957Y-117642457D01*
X86248044Y-117620228D01*
X86278943Y-117603712D01*
X86312478Y-117593539D01*
X86353487Y-117589500D01*
X87382513Y-117589500D01*
X87423522Y-117593539D01*
X87423522Y-117593539D01*
G37*
G36*
X74906964Y-116879037D02*
G01*
X74938525Y-116888612D01*
X74967620Y-116904163D01*
X74993115Y-116925085D01*
X75014037Y-116950580D01*
X75029588Y-116979675D01*
X75039163Y-117011236D01*
X75043000Y-117050198D01*
X75043000Y-118125202D01*
X75039163Y-118164164D01*
X75029588Y-118195725D01*
X75014037Y-118224820D01*
X74993115Y-118250315D01*
X74967620Y-118271237D01*
X74938525Y-118286788D01*
X74906964Y-118296363D01*
X74868002Y-118300200D01*
X73467998Y-118300200D01*
X73429036Y-118296363D01*
X73397475Y-118286788D01*
X73368380Y-118271237D01*
X73342885Y-118250315D01*
X73321963Y-118224820D01*
X73306412Y-118195725D01*
X73296837Y-118164164D01*
X73293000Y-118125202D01*
X73293000Y-117050198D01*
X73296837Y-117011236D01*
X73306412Y-116979675D01*
X73321963Y-116950580D01*
X73342885Y-116925085D01*
X73368380Y-116904163D01*
X73397475Y-116888612D01*
X73429036Y-116879037D01*
X73467998Y-116875200D01*
X74868002Y-116875200D01*
X74906964Y-116879037D01*
X74906964Y-116879037D01*
G37*
G36*
X77497764Y-115917037D02*
G01*
X77529325Y-115926612D01*
X77558420Y-115942163D01*
X77583915Y-115963085D01*
X77604837Y-115988580D01*
X77620388Y-116017675D01*
X77629963Y-116049236D01*
X77633800Y-116088198D01*
X77633800Y-117163202D01*
X77629963Y-117202164D01*
X77620388Y-117233725D01*
X77604837Y-117262820D01*
X77583915Y-117288315D01*
X77558420Y-117309237D01*
X77529325Y-117324788D01*
X77497764Y-117334363D01*
X77458802Y-117338200D01*
X76058798Y-117338200D01*
X76019836Y-117334363D01*
X75988275Y-117324788D01*
X75959180Y-117309237D01*
X75933685Y-117288315D01*
X75912763Y-117262820D01*
X75897212Y-117233725D01*
X75887637Y-117202164D01*
X75883800Y-117163202D01*
X75883800Y-116088198D01*
X75887637Y-116049236D01*
X75897212Y-116017675D01*
X75912763Y-115988580D01*
X75933685Y-115963085D01*
X75959180Y-115942163D01*
X75988275Y-115926612D01*
X76019836Y-115917037D01*
X76058798Y-115913200D01*
X77458802Y-115913200D01*
X77497764Y-115917037D01*
X77497764Y-115917037D01*
G37*
G36*
X74825122Y-114982639D02*
G01*
X74858657Y-114992812D01*
X74889556Y-115009328D01*
X74916643Y-115031557D01*
X74938872Y-115058644D01*
X74955388Y-115089543D01*
X74965561Y-115123078D01*
X74969600Y-115164087D01*
X74969600Y-115943113D01*
X74965561Y-115984122D01*
X74955388Y-116017657D01*
X74938872Y-116048556D01*
X74916643Y-116075643D01*
X74889556Y-116097872D01*
X74858657Y-116114388D01*
X74825122Y-116124561D01*
X74784113Y-116128600D01*
X73755087Y-116128600D01*
X73714078Y-116124561D01*
X73680543Y-116114388D01*
X73649644Y-116097872D01*
X73622557Y-116075643D01*
X73600328Y-116048556D01*
X73583812Y-116017657D01*
X73573639Y-115984122D01*
X73569600Y-115943113D01*
X73569600Y-115164087D01*
X73573639Y-115123078D01*
X73583812Y-115089543D01*
X73600328Y-115058644D01*
X73622557Y-115031557D01*
X73649644Y-115009328D01*
X73680543Y-114992812D01*
X73714078Y-114982639D01*
X73755087Y-114978600D01*
X74784113Y-114978600D01*
X74825122Y-114982639D01*
X74825122Y-114982639D01*
G37*
G36*
X80365000Y-114944000D02*
G01*
X78865000Y-114944000D01*
X78865000Y-112944000D01*
X80365000Y-112944000D01*
X80365000Y-114944000D01*
X80365000Y-114944000D01*
G37*
G36*
X82665000Y-114944000D02*
G01*
X81165000Y-114944000D01*
X81165000Y-112944000D01*
X82665000Y-112944000D01*
X82665000Y-114944000D01*
X82665000Y-114944000D01*
G37*
G36*
X84965000Y-114944000D02*
G01*
X83465000Y-114944000D01*
X83465000Y-112944000D01*
X84965000Y-112944000D01*
X84965000Y-114944000D01*
X84965000Y-114944000D01*
G37*
G36*
X77497764Y-112942037D02*
G01*
X77529325Y-112951612D01*
X77558420Y-112967163D01*
X77583915Y-112988085D01*
X77604837Y-113013580D01*
X77620388Y-113042675D01*
X77629963Y-113074236D01*
X77633800Y-113113198D01*
X77633800Y-114188202D01*
X77629963Y-114227164D01*
X77620388Y-114258725D01*
X77604837Y-114287820D01*
X77583915Y-114313315D01*
X77558420Y-114334237D01*
X77529325Y-114349788D01*
X77497764Y-114359363D01*
X77458802Y-114363200D01*
X76058798Y-114363200D01*
X76019836Y-114359363D01*
X75988275Y-114349788D01*
X75959180Y-114334237D01*
X75933685Y-114313315D01*
X75912763Y-114287820D01*
X75897212Y-114258725D01*
X75887637Y-114227164D01*
X75883800Y-114188202D01*
X75883800Y-113113198D01*
X75887637Y-113074236D01*
X75897212Y-113042675D01*
X75912763Y-113013580D01*
X75933685Y-112988085D01*
X75959180Y-112967163D01*
X75988275Y-112951612D01*
X76019836Y-112942037D01*
X76058798Y-112938200D01*
X77458802Y-112938200D01*
X77497764Y-112942037D01*
X77497764Y-112942037D01*
G37*
G36*
X74825122Y-112932639D02*
G01*
X74858657Y-112942812D01*
X74889556Y-112959328D01*
X74916643Y-112981557D01*
X74938872Y-113008644D01*
X74955388Y-113039543D01*
X74965561Y-113073078D01*
X74969600Y-113114087D01*
X74969600Y-113893113D01*
X74965561Y-113934122D01*
X74955388Y-113967657D01*
X74938872Y-113998556D01*
X74916643Y-114025643D01*
X74889556Y-114047872D01*
X74858657Y-114064388D01*
X74825122Y-114074561D01*
X74784113Y-114078600D01*
X73755087Y-114078600D01*
X73714078Y-114074561D01*
X73680543Y-114064388D01*
X73649644Y-114047872D01*
X73622557Y-114025643D01*
X73600328Y-113998556D01*
X73583812Y-113967657D01*
X73573639Y-113934122D01*
X73569600Y-113893113D01*
X73569600Y-113114087D01*
X73573639Y-113073078D01*
X73583812Y-113039543D01*
X73600328Y-113008644D01*
X73622557Y-112981557D01*
X73649644Y-112959328D01*
X73680543Y-112942812D01*
X73714078Y-112932639D01*
X73755087Y-112928600D01*
X74784113Y-112928600D01*
X74825122Y-112932639D01*
X74825122Y-112932639D01*
G37*
M02*
