G04 #@! TF.GenerationSoftware,KiCad,Pcbnew,(5.0.2)-1*
G04 #@! TF.CreationDate,2019-02-20T00:52:58+02:00*
G04 #@! TF.ProjectId,TSAL_SMD,5453414c-5f53-44d4-942e-6b696361645f,rev?*
G04 #@! TF.SameCoordinates,Original*
G04 #@! TF.FileFunction,Soldermask,Bot*
G04 #@! TF.FilePolarity,Negative*
%FSLAX46Y46*%
G04 Gerber Fmt 4.6, Leading zero omitted, Abs format (unit mm)*
G04 Created by KiCad (PCBNEW (5.0.2)-1) date 2/20/2019 12:52:58 AM*
%MOMM*%
%LPD*%
G01*
G04 APERTURE LIST*
%ADD10C,0.100000*%
G04 APERTURE END LIST*
D10*
G36*
X65356228Y-81015703D02*
X65511100Y-81079853D01*
X65650481Y-81172985D01*
X65769015Y-81291519D01*
X65862147Y-81430900D01*
X65926297Y-81585772D01*
X65959000Y-81750184D01*
X65959000Y-81917816D01*
X65926297Y-82082228D01*
X65862147Y-82237100D01*
X65769015Y-82376481D01*
X65650481Y-82495015D01*
X65511100Y-82588147D01*
X65356228Y-82652297D01*
X65191816Y-82685000D01*
X65024184Y-82685000D01*
X64859772Y-82652297D01*
X64704900Y-82588147D01*
X64565519Y-82495015D01*
X64446985Y-82376481D01*
X64353853Y-82237100D01*
X64289703Y-82082228D01*
X64257000Y-81917816D01*
X64257000Y-81750184D01*
X64289703Y-81585772D01*
X64353853Y-81430900D01*
X64446985Y-81291519D01*
X64565519Y-81172985D01*
X64704900Y-81079853D01*
X64859772Y-81015703D01*
X65024184Y-80983000D01*
X65191816Y-80983000D01*
X65356228Y-81015703D01*
X65356228Y-81015703D01*
G37*
G36*
X70896228Y-81015703D02*
X71051100Y-81079853D01*
X71190481Y-81172985D01*
X71309015Y-81291519D01*
X71402147Y-81430900D01*
X71466297Y-81585772D01*
X71499000Y-81750184D01*
X71499000Y-81917816D01*
X71466297Y-82082228D01*
X71402147Y-82237100D01*
X71309015Y-82376481D01*
X71190481Y-82495015D01*
X71051100Y-82588147D01*
X70896228Y-82652297D01*
X70731816Y-82685000D01*
X70564184Y-82685000D01*
X70399772Y-82652297D01*
X70244900Y-82588147D01*
X70105519Y-82495015D01*
X69986985Y-82376481D01*
X69893853Y-82237100D01*
X69829703Y-82082228D01*
X69797000Y-81917816D01*
X69797000Y-81750184D01*
X69829703Y-81585772D01*
X69893853Y-81430900D01*
X69986985Y-81291519D01*
X70105519Y-81172985D01*
X70244900Y-81079853D01*
X70399772Y-81015703D01*
X70564184Y-80983000D01*
X70731816Y-80983000D01*
X70896228Y-81015703D01*
X70896228Y-81015703D01*
G37*
G36*
X73666228Y-81015703D02*
X73821100Y-81079853D01*
X73960481Y-81172985D01*
X74079015Y-81291519D01*
X74172147Y-81430900D01*
X74236297Y-81585772D01*
X74269000Y-81750184D01*
X74269000Y-81917816D01*
X74236297Y-82082228D01*
X74172147Y-82237100D01*
X74079015Y-82376481D01*
X73960481Y-82495015D01*
X73821100Y-82588147D01*
X73666228Y-82652297D01*
X73501816Y-82685000D01*
X73334184Y-82685000D01*
X73169772Y-82652297D01*
X73014900Y-82588147D01*
X72875519Y-82495015D01*
X72756985Y-82376481D01*
X72663853Y-82237100D01*
X72599703Y-82082228D01*
X72567000Y-81917816D01*
X72567000Y-81750184D01*
X72599703Y-81585772D01*
X72663853Y-81430900D01*
X72756985Y-81291519D01*
X72875519Y-81172985D01*
X73014900Y-81079853D01*
X73169772Y-81015703D01*
X73334184Y-80983000D01*
X73501816Y-80983000D01*
X73666228Y-81015703D01*
X73666228Y-81015703D01*
G37*
G36*
X68126228Y-81015703D02*
X68281100Y-81079853D01*
X68420481Y-81172985D01*
X68539015Y-81291519D01*
X68632147Y-81430900D01*
X68696297Y-81585772D01*
X68729000Y-81750184D01*
X68729000Y-81917816D01*
X68696297Y-82082228D01*
X68632147Y-82237100D01*
X68539015Y-82376481D01*
X68420481Y-82495015D01*
X68281100Y-82588147D01*
X68126228Y-82652297D01*
X67961816Y-82685000D01*
X67794184Y-82685000D01*
X67629772Y-82652297D01*
X67474900Y-82588147D01*
X67335519Y-82495015D01*
X67216985Y-82376481D01*
X67123853Y-82237100D01*
X67059703Y-82082228D01*
X67027000Y-81917816D01*
X67027000Y-81750184D01*
X67059703Y-81585772D01*
X67123853Y-81430900D01*
X67216985Y-81291519D01*
X67335519Y-81172985D01*
X67474900Y-81079853D01*
X67629772Y-81015703D01*
X67794184Y-80983000D01*
X67961816Y-80983000D01*
X68126228Y-81015703D01*
X68126228Y-81015703D01*
G37*
G36*
X57361252Y-77321818D02*
X57361254Y-77321819D01*
X57361255Y-77321819D01*
X57734513Y-77476427D01*
X57734514Y-77476428D01*
X58070439Y-77700886D01*
X58356114Y-77986561D01*
X58356116Y-77986564D01*
X58580573Y-78322487D01*
X58691753Y-78590900D01*
X58735182Y-78695748D01*
X58814000Y-79091993D01*
X58814000Y-79496007D01*
X58782372Y-79655014D01*
X58735181Y-79892255D01*
X58580573Y-80265513D01*
X58580572Y-80265514D01*
X58356114Y-80601439D01*
X58070439Y-80887114D01*
X58070436Y-80887116D01*
X57734513Y-81111573D01*
X57361255Y-81266181D01*
X57361254Y-81266181D01*
X57361252Y-81266182D01*
X56965007Y-81345000D01*
X56560993Y-81345000D01*
X56164748Y-81266182D01*
X56164746Y-81266181D01*
X56164745Y-81266181D01*
X55791487Y-81111573D01*
X55455564Y-80887116D01*
X55455561Y-80887114D01*
X55169886Y-80601439D01*
X54945428Y-80265514D01*
X54945427Y-80265513D01*
X54790819Y-79892255D01*
X54743629Y-79655014D01*
X54712000Y-79496007D01*
X54712000Y-79091993D01*
X54790818Y-78695748D01*
X54834247Y-78590900D01*
X54945427Y-78322487D01*
X55169884Y-77986564D01*
X55169886Y-77986561D01*
X55455561Y-77700886D01*
X55791486Y-77476428D01*
X55791487Y-77476427D01*
X56164745Y-77321819D01*
X56164746Y-77321819D01*
X56164748Y-77321818D01*
X56560993Y-77243000D01*
X56965007Y-77243000D01*
X57361252Y-77321818D01*
X57361252Y-77321818D01*
G37*
G36*
X82361252Y-77321818D02*
X82361254Y-77321819D01*
X82361255Y-77321819D01*
X82734513Y-77476427D01*
X82734514Y-77476428D01*
X83070439Y-77700886D01*
X83356114Y-77986561D01*
X83356116Y-77986564D01*
X83580573Y-78322487D01*
X83691753Y-78590900D01*
X83735182Y-78695748D01*
X83814000Y-79091993D01*
X83814000Y-79496007D01*
X83782372Y-79655014D01*
X83735181Y-79892255D01*
X83580573Y-80265513D01*
X83580572Y-80265514D01*
X83356114Y-80601439D01*
X83070439Y-80887114D01*
X83070436Y-80887116D01*
X82734513Y-81111573D01*
X82361255Y-81266181D01*
X82361254Y-81266181D01*
X82361252Y-81266182D01*
X81965007Y-81345000D01*
X81560993Y-81345000D01*
X81164748Y-81266182D01*
X81164746Y-81266181D01*
X81164745Y-81266181D01*
X80791487Y-81111573D01*
X80455564Y-80887116D01*
X80455561Y-80887114D01*
X80169886Y-80601439D01*
X79945428Y-80265514D01*
X79945427Y-80265513D01*
X79790819Y-79892255D01*
X79743629Y-79655014D01*
X79712000Y-79496007D01*
X79712000Y-79091993D01*
X79790818Y-78695748D01*
X79834247Y-78590900D01*
X79945427Y-78322487D01*
X80169884Y-77986564D01*
X80169886Y-77986561D01*
X80455561Y-77700886D01*
X80791486Y-77476428D01*
X80791487Y-77476427D01*
X81164745Y-77321819D01*
X81164746Y-77321819D01*
X81164748Y-77321818D01*
X81560993Y-77243000D01*
X81965007Y-77243000D01*
X82361252Y-77321818D01*
X82361252Y-77321818D01*
G37*
G36*
X72281228Y-78175703D02*
X72436100Y-78239853D01*
X72575481Y-78332985D01*
X72694015Y-78451519D01*
X72787147Y-78590900D01*
X72851297Y-78745772D01*
X72884000Y-78910184D01*
X72884000Y-79077816D01*
X72851297Y-79242228D01*
X72787147Y-79397100D01*
X72694015Y-79536481D01*
X72575481Y-79655015D01*
X72436100Y-79748147D01*
X72281228Y-79812297D01*
X72116816Y-79845000D01*
X71949184Y-79845000D01*
X71784772Y-79812297D01*
X71629900Y-79748147D01*
X71490519Y-79655015D01*
X71371985Y-79536481D01*
X71278853Y-79397100D01*
X71214703Y-79242228D01*
X71182000Y-79077816D01*
X71182000Y-78910184D01*
X71214703Y-78745772D01*
X71278853Y-78590900D01*
X71371985Y-78451519D01*
X71490519Y-78332985D01*
X71629900Y-78239853D01*
X71784772Y-78175703D01*
X71949184Y-78143000D01*
X72116816Y-78143000D01*
X72281228Y-78175703D01*
X72281228Y-78175703D01*
G37*
G36*
X75654000Y-79845000D02*
X73952000Y-79845000D01*
X73952000Y-78143000D01*
X75654000Y-78143000D01*
X75654000Y-79845000D01*
X75654000Y-79845000D01*
G37*
G36*
X69511228Y-78175703D02*
X69666100Y-78239853D01*
X69805481Y-78332985D01*
X69924015Y-78451519D01*
X70017147Y-78590900D01*
X70081297Y-78745772D01*
X70114000Y-78910184D01*
X70114000Y-79077816D01*
X70081297Y-79242228D01*
X70017147Y-79397100D01*
X69924015Y-79536481D01*
X69805481Y-79655015D01*
X69666100Y-79748147D01*
X69511228Y-79812297D01*
X69346816Y-79845000D01*
X69179184Y-79845000D01*
X69014772Y-79812297D01*
X68859900Y-79748147D01*
X68720519Y-79655015D01*
X68601985Y-79536481D01*
X68508853Y-79397100D01*
X68444703Y-79242228D01*
X68412000Y-79077816D01*
X68412000Y-78910184D01*
X68444703Y-78745772D01*
X68508853Y-78590900D01*
X68601985Y-78451519D01*
X68720519Y-78332985D01*
X68859900Y-78239853D01*
X69014772Y-78175703D01*
X69179184Y-78143000D01*
X69346816Y-78143000D01*
X69511228Y-78175703D01*
X69511228Y-78175703D01*
G37*
G36*
X66741228Y-78175703D02*
X66896100Y-78239853D01*
X67035481Y-78332985D01*
X67154015Y-78451519D01*
X67247147Y-78590900D01*
X67311297Y-78745772D01*
X67344000Y-78910184D01*
X67344000Y-79077816D01*
X67311297Y-79242228D01*
X67247147Y-79397100D01*
X67154015Y-79536481D01*
X67035481Y-79655015D01*
X66896100Y-79748147D01*
X66741228Y-79812297D01*
X66576816Y-79845000D01*
X66409184Y-79845000D01*
X66244772Y-79812297D01*
X66089900Y-79748147D01*
X65950519Y-79655015D01*
X65831985Y-79536481D01*
X65738853Y-79397100D01*
X65674703Y-79242228D01*
X65642000Y-79077816D01*
X65642000Y-78910184D01*
X65674703Y-78745772D01*
X65738853Y-78590900D01*
X65831985Y-78451519D01*
X65950519Y-78332985D01*
X66089900Y-78239853D01*
X66244772Y-78175703D01*
X66409184Y-78143000D01*
X66576816Y-78143000D01*
X66741228Y-78175703D01*
X66741228Y-78175703D01*
G37*
G36*
X63971228Y-78175703D02*
X64126100Y-78239853D01*
X64265481Y-78332985D01*
X64384015Y-78451519D01*
X64477147Y-78590900D01*
X64541297Y-78745772D01*
X64574000Y-78910184D01*
X64574000Y-79077816D01*
X64541297Y-79242228D01*
X64477147Y-79397100D01*
X64384015Y-79536481D01*
X64265481Y-79655015D01*
X64126100Y-79748147D01*
X63971228Y-79812297D01*
X63806816Y-79845000D01*
X63639184Y-79845000D01*
X63474772Y-79812297D01*
X63319900Y-79748147D01*
X63180519Y-79655015D01*
X63061985Y-79536481D01*
X62968853Y-79397100D01*
X62904703Y-79242228D01*
X62872000Y-79077816D01*
X62872000Y-78910184D01*
X62904703Y-78745772D01*
X62968853Y-78590900D01*
X63061985Y-78451519D01*
X63180519Y-78332985D01*
X63319900Y-78239853D01*
X63474772Y-78175703D01*
X63639184Y-78143000D01*
X63806816Y-78143000D01*
X63971228Y-78175703D01*
X63971228Y-78175703D01*
G37*
G36*
X61205239Y-70395101D02*
X61441053Y-70466634D01*
X61658381Y-70582799D01*
X61848871Y-70739129D01*
X62005201Y-70929619D01*
X62121366Y-71146947D01*
X62192899Y-71382761D01*
X62217053Y-71628000D01*
X62192899Y-71873239D01*
X62121366Y-72109053D01*
X62005201Y-72326381D01*
X61848871Y-72516871D01*
X61658381Y-72673201D01*
X61441053Y-72789366D01*
X61205239Y-72860899D01*
X61021457Y-72879000D01*
X60898543Y-72879000D01*
X60714761Y-72860899D01*
X60478947Y-72789366D01*
X60261619Y-72673201D01*
X60071129Y-72516871D01*
X59914799Y-72326381D01*
X59798634Y-72109053D01*
X59727101Y-71873239D01*
X59702947Y-71628000D01*
X59727101Y-71382761D01*
X59798634Y-71146947D01*
X59914799Y-70929619D01*
X60071129Y-70739129D01*
X60261619Y-70582799D01*
X60478947Y-70466634D01*
X60714761Y-70395101D01*
X60898543Y-70377000D01*
X61021457Y-70377000D01*
X61205239Y-70395101D01*
X61205239Y-70395101D01*
G37*
G36*
X73815764Y-69233308D02*
X73904220Y-69242020D01*
X74093381Y-69299401D01*
X74267712Y-69392583D01*
X74420515Y-69517985D01*
X74545917Y-69670788D01*
X74639099Y-69845119D01*
X74696480Y-70034280D01*
X74715855Y-70231000D01*
X74696480Y-70427720D01*
X74639099Y-70616881D01*
X74545917Y-70791212D01*
X74420515Y-70944015D01*
X74267712Y-71069417D01*
X74093381Y-71162599D01*
X73904220Y-71219980D01*
X73815764Y-71228692D01*
X73756796Y-71234500D01*
X73563204Y-71234500D01*
X73504236Y-71228692D01*
X73415780Y-71219980D01*
X73226619Y-71162599D01*
X73052288Y-71069417D01*
X72899485Y-70944015D01*
X72774083Y-70791212D01*
X72680901Y-70616881D01*
X72623520Y-70427720D01*
X72604145Y-70231000D01*
X72623520Y-70034280D01*
X72680901Y-69845119D01*
X72774083Y-69670788D01*
X72899485Y-69517985D01*
X73052288Y-69392583D01*
X73226619Y-69299401D01*
X73415780Y-69242020D01*
X73504236Y-69233308D01*
X73563204Y-69227500D01*
X73756796Y-69227500D01*
X73815764Y-69233308D01*
X73815764Y-69233308D01*
G37*
G36*
X73815764Y-66693308D02*
X73904220Y-66702020D01*
X74093381Y-66759401D01*
X74267712Y-66852583D01*
X74420515Y-66977985D01*
X74545917Y-67130788D01*
X74639099Y-67305119D01*
X74696480Y-67494280D01*
X74715855Y-67691000D01*
X74696480Y-67887720D01*
X74639099Y-68076881D01*
X74545917Y-68251212D01*
X74420515Y-68404015D01*
X74267712Y-68529417D01*
X74093381Y-68622599D01*
X73904220Y-68679980D01*
X73815764Y-68688692D01*
X73756796Y-68694500D01*
X73563204Y-68694500D01*
X73504236Y-68688692D01*
X73415780Y-68679980D01*
X73226619Y-68622599D01*
X73052288Y-68529417D01*
X72899485Y-68404015D01*
X72774083Y-68251212D01*
X72680901Y-68076881D01*
X72623520Y-67887720D01*
X72604145Y-67691000D01*
X72623520Y-67494280D01*
X72680901Y-67305119D01*
X72774083Y-67130788D01*
X72899485Y-66977985D01*
X73052288Y-66852583D01*
X73226619Y-66759401D01*
X73415780Y-66702020D01*
X73504236Y-66693308D01*
X73563204Y-66687500D01*
X73756796Y-66687500D01*
X73815764Y-66693308D01*
X73815764Y-66693308D01*
G37*
G36*
X74711000Y-66154500D02*
X72609000Y-66154500D01*
X72609000Y-64147500D01*
X74711000Y-64147500D01*
X74711000Y-66154500D01*
X74711000Y-66154500D01*
G37*
G36*
X61143636Y-57689019D02*
X61324903Y-57725075D01*
X61552571Y-57819378D01*
X61756542Y-57955668D01*
X61757469Y-57956287D01*
X61931713Y-58130531D01*
X61931715Y-58130534D01*
X62068622Y-58335429D01*
X62162925Y-58563097D01*
X62211000Y-58804787D01*
X62211000Y-59051213D01*
X62162925Y-59292903D01*
X62068622Y-59520571D01*
X61943142Y-59708364D01*
X61931713Y-59725469D01*
X61757469Y-59899713D01*
X61757466Y-59899715D01*
X61552571Y-60036622D01*
X61324903Y-60130925D01*
X61143636Y-60166981D01*
X61083214Y-60179000D01*
X60836786Y-60179000D01*
X60776364Y-60166981D01*
X60595097Y-60130925D01*
X60367429Y-60036622D01*
X60162534Y-59899715D01*
X60162531Y-59899713D01*
X59988287Y-59725469D01*
X59976858Y-59708364D01*
X59851378Y-59520571D01*
X59757075Y-59292903D01*
X59709000Y-59051213D01*
X59709000Y-58804787D01*
X59757075Y-58563097D01*
X59851378Y-58335429D01*
X59988285Y-58130534D01*
X59988287Y-58130531D01*
X60162531Y-57956287D01*
X60163458Y-57955668D01*
X60367429Y-57819378D01*
X60595097Y-57725075D01*
X60776364Y-57689019D01*
X60836786Y-57677000D01*
X61083214Y-57677000D01*
X61143636Y-57689019D01*
X61143636Y-57689019D01*
G37*
G36*
X49931720Y-57842520D02*
X50120881Y-57899901D01*
X50295212Y-57993083D01*
X50448015Y-58118485D01*
X50573417Y-58271288D01*
X50666599Y-58445620D01*
X50723980Y-58634781D01*
X50723980Y-58634784D01*
X50735329Y-58750005D01*
X50738500Y-58782207D01*
X50738500Y-58975794D01*
X50723980Y-59123220D01*
X50666599Y-59312381D01*
X50573417Y-59486712D01*
X50448015Y-59639515D01*
X50295212Y-59764917D01*
X50120880Y-59858099D01*
X49931719Y-59915480D01*
X49735000Y-59934855D01*
X49538280Y-59915480D01*
X49349119Y-59858099D01*
X49174788Y-59764917D01*
X49021985Y-59639515D01*
X48896583Y-59486712D01*
X48803401Y-59312380D01*
X48746020Y-59123219D01*
X48731500Y-58975793D01*
X48731500Y-58782206D01*
X48734672Y-58750004D01*
X48746020Y-58634783D01*
X48746020Y-58634780D01*
X48803401Y-58445619D01*
X48896583Y-58271288D01*
X49021985Y-58118485D01*
X49174788Y-57993083D01*
X49349120Y-57899901D01*
X49538281Y-57842520D01*
X49735000Y-57823145D01*
X49931720Y-57842520D01*
X49931720Y-57842520D01*
G37*
G36*
X52471720Y-57842520D02*
X52660881Y-57899901D01*
X52835212Y-57993083D01*
X52988015Y-58118485D01*
X53113417Y-58271288D01*
X53206599Y-58445620D01*
X53263980Y-58634781D01*
X53263980Y-58634784D01*
X53275329Y-58750005D01*
X53278500Y-58782207D01*
X53278500Y-58975794D01*
X53263980Y-59123220D01*
X53206599Y-59312381D01*
X53113417Y-59486712D01*
X52988015Y-59639515D01*
X52835212Y-59764917D01*
X52660880Y-59858099D01*
X52471719Y-59915480D01*
X52275000Y-59934855D01*
X52078280Y-59915480D01*
X51889119Y-59858099D01*
X51714788Y-59764917D01*
X51561985Y-59639515D01*
X51436583Y-59486712D01*
X51343401Y-59312380D01*
X51286020Y-59123219D01*
X51271500Y-58975793D01*
X51271500Y-58782206D01*
X51274672Y-58750004D01*
X51286020Y-58634783D01*
X51286020Y-58634780D01*
X51343401Y-58445619D01*
X51436583Y-58271288D01*
X51561985Y-58118485D01*
X51714788Y-57993083D01*
X51889120Y-57899901D01*
X52078281Y-57842520D01*
X52275000Y-57823145D01*
X52471720Y-57842520D01*
X52471720Y-57842520D01*
G37*
G36*
X55818500Y-59930000D02*
X53811500Y-59930000D01*
X53811500Y-57828000D01*
X55818500Y-57828000D01*
X55818500Y-59930000D01*
X55818500Y-59930000D01*
G37*
G36*
X78731239Y-57314101D02*
X78967053Y-57385634D01*
X79184381Y-57501799D01*
X79374871Y-57658129D01*
X79531201Y-57848619D01*
X79647366Y-58065947D01*
X79718899Y-58301761D01*
X79743053Y-58547000D01*
X79718899Y-58792239D01*
X79647366Y-59028053D01*
X79531201Y-59245381D01*
X79374871Y-59435871D01*
X79184381Y-59592201D01*
X78967053Y-59708366D01*
X78731239Y-59779899D01*
X78547457Y-59798000D01*
X78424543Y-59798000D01*
X78240761Y-59779899D01*
X78004947Y-59708366D01*
X77787619Y-59592201D01*
X77597129Y-59435871D01*
X77440799Y-59245381D01*
X77324634Y-59028053D01*
X77253101Y-58792239D01*
X77228947Y-58547000D01*
X77253101Y-58301761D01*
X77324634Y-58065947D01*
X77440799Y-57848619D01*
X77597129Y-57658129D01*
X77787619Y-57501799D01*
X78004947Y-57385634D01*
X78240761Y-57314101D01*
X78424543Y-57296000D01*
X78547457Y-57296000D01*
X78731239Y-57314101D01*
X78731239Y-57314101D01*
G37*
G36*
X73397239Y-57314101D02*
X73633053Y-57385634D01*
X73850381Y-57501799D01*
X74040871Y-57658129D01*
X74197201Y-57848619D01*
X74313366Y-58065947D01*
X74384899Y-58301761D01*
X74409053Y-58547000D01*
X74384899Y-58792239D01*
X74313366Y-59028053D01*
X74197201Y-59245381D01*
X74040871Y-59435871D01*
X73850381Y-59592201D01*
X73633053Y-59708366D01*
X73397239Y-59779899D01*
X73213457Y-59798000D01*
X73090543Y-59798000D01*
X72906761Y-59779899D01*
X72670947Y-59708366D01*
X72453619Y-59592201D01*
X72263129Y-59435871D01*
X72106799Y-59245381D01*
X71990634Y-59028053D01*
X71919101Y-58792239D01*
X71894947Y-58547000D01*
X71919101Y-58301761D01*
X71990634Y-58065947D01*
X72106799Y-57848619D01*
X72263129Y-57658129D01*
X72453619Y-57501799D01*
X72670947Y-57385634D01*
X72906761Y-57314101D01*
X73090543Y-57296000D01*
X73213457Y-57296000D01*
X73397239Y-57314101D01*
X73397239Y-57314101D01*
G37*
G36*
X93911821Y-57200313D02*
X93911824Y-57200314D01*
X93911825Y-57200314D01*
X94072239Y-57248975D01*
X94072241Y-57248976D01*
X94072244Y-57248977D01*
X94220078Y-57327995D01*
X94349659Y-57434341D01*
X94456005Y-57563922D01*
X94535023Y-57711756D01*
X94535024Y-57711759D01*
X94535025Y-57711761D01*
X94574690Y-57842520D01*
X94583687Y-57872179D01*
X94600117Y-58039000D01*
X94583687Y-58205821D01*
X94535023Y-58366244D01*
X94456005Y-58514078D01*
X94349659Y-58643659D01*
X94220078Y-58750005D01*
X94072244Y-58829023D01*
X94072241Y-58829024D01*
X94072239Y-58829025D01*
X93911825Y-58877686D01*
X93911824Y-58877686D01*
X93911821Y-58877687D01*
X93786804Y-58890000D01*
X92903196Y-58890000D01*
X92778179Y-58877687D01*
X92778176Y-58877686D01*
X92778175Y-58877686D01*
X92617761Y-58829025D01*
X92617759Y-58829024D01*
X92617756Y-58829023D01*
X92469922Y-58750005D01*
X92340341Y-58643659D01*
X92233995Y-58514078D01*
X92154977Y-58366244D01*
X92106313Y-58205821D01*
X92089883Y-58039000D01*
X92106313Y-57872179D01*
X92115310Y-57842520D01*
X92154975Y-57711761D01*
X92154976Y-57711759D01*
X92154977Y-57711756D01*
X92233995Y-57563922D01*
X92340341Y-57434341D01*
X92469922Y-57327995D01*
X92617756Y-57248977D01*
X92617759Y-57248976D01*
X92617761Y-57248975D01*
X92778175Y-57200314D01*
X92778176Y-57200314D01*
X92778179Y-57200313D01*
X92903196Y-57188000D01*
X93786804Y-57188000D01*
X93911821Y-57200313D01*
X93911821Y-57200313D01*
G37*
G36*
X86291821Y-57200313D02*
X86291824Y-57200314D01*
X86291825Y-57200314D01*
X86452239Y-57248975D01*
X86452241Y-57248976D01*
X86452244Y-57248977D01*
X86600078Y-57327995D01*
X86729659Y-57434341D01*
X86836005Y-57563922D01*
X86915023Y-57711756D01*
X86915024Y-57711759D01*
X86915025Y-57711761D01*
X86954690Y-57842520D01*
X86963687Y-57872179D01*
X86980117Y-58039000D01*
X86963687Y-58205821D01*
X86915023Y-58366244D01*
X86836005Y-58514078D01*
X86729659Y-58643659D01*
X86600078Y-58750005D01*
X86452244Y-58829023D01*
X86452241Y-58829024D01*
X86452239Y-58829025D01*
X86291825Y-58877686D01*
X86291824Y-58877686D01*
X86291821Y-58877687D01*
X86166804Y-58890000D01*
X85283196Y-58890000D01*
X85158179Y-58877687D01*
X85158176Y-58877686D01*
X85158175Y-58877686D01*
X84997761Y-58829025D01*
X84997759Y-58829024D01*
X84997756Y-58829023D01*
X84849922Y-58750005D01*
X84720341Y-58643659D01*
X84613995Y-58514078D01*
X84534977Y-58366244D01*
X84486313Y-58205821D01*
X84469883Y-58039000D01*
X84486313Y-57872179D01*
X84495310Y-57842520D01*
X84534975Y-57711761D01*
X84534976Y-57711759D01*
X84534977Y-57711756D01*
X84613995Y-57563922D01*
X84720341Y-57434341D01*
X84849922Y-57327995D01*
X84997756Y-57248977D01*
X84997759Y-57248976D01*
X84997761Y-57248975D01*
X85158175Y-57200314D01*
X85158176Y-57200314D01*
X85158179Y-57200313D01*
X85283196Y-57188000D01*
X86166804Y-57188000D01*
X86291821Y-57200313D01*
X86291821Y-57200313D01*
G37*
G36*
X93911821Y-54660313D02*
X93911824Y-54660314D01*
X93911825Y-54660314D01*
X94072239Y-54708975D01*
X94072241Y-54708976D01*
X94072244Y-54708977D01*
X94220078Y-54787995D01*
X94349659Y-54894341D01*
X94456005Y-55023922D01*
X94535023Y-55171756D01*
X94583687Y-55332179D01*
X94600117Y-55499000D01*
X94583687Y-55665821D01*
X94535023Y-55826244D01*
X94456005Y-55974078D01*
X94349659Y-56103659D01*
X94220078Y-56210005D01*
X94072244Y-56289023D01*
X94072241Y-56289024D01*
X94072239Y-56289025D01*
X93911825Y-56337686D01*
X93911824Y-56337686D01*
X93911821Y-56337687D01*
X93786804Y-56350000D01*
X92903196Y-56350000D01*
X92778179Y-56337687D01*
X92778176Y-56337686D01*
X92778175Y-56337686D01*
X92617761Y-56289025D01*
X92617759Y-56289024D01*
X92617756Y-56289023D01*
X92469922Y-56210005D01*
X92340341Y-56103659D01*
X92233995Y-55974078D01*
X92154977Y-55826244D01*
X92106313Y-55665821D01*
X92089883Y-55499000D01*
X92106313Y-55332179D01*
X92154977Y-55171756D01*
X92233995Y-55023922D01*
X92340341Y-54894341D01*
X92469922Y-54787995D01*
X92617756Y-54708977D01*
X92617759Y-54708976D01*
X92617761Y-54708975D01*
X92778175Y-54660314D01*
X92778176Y-54660314D01*
X92778179Y-54660313D01*
X92903196Y-54648000D01*
X93786804Y-54648000D01*
X93911821Y-54660313D01*
X93911821Y-54660313D01*
G37*
G36*
X86291821Y-54660313D02*
X86291824Y-54660314D01*
X86291825Y-54660314D01*
X86452239Y-54708975D01*
X86452241Y-54708976D01*
X86452244Y-54708977D01*
X86600078Y-54787995D01*
X86729659Y-54894341D01*
X86836005Y-55023922D01*
X86915023Y-55171756D01*
X86963687Y-55332179D01*
X86980117Y-55499000D01*
X86963687Y-55665821D01*
X86915023Y-55826244D01*
X86836005Y-55974078D01*
X86729659Y-56103659D01*
X86600078Y-56210005D01*
X86452244Y-56289023D01*
X86452241Y-56289024D01*
X86452239Y-56289025D01*
X86291825Y-56337686D01*
X86291824Y-56337686D01*
X86291821Y-56337687D01*
X86166804Y-56350000D01*
X85283196Y-56350000D01*
X85158179Y-56337687D01*
X85158176Y-56337686D01*
X85158175Y-56337686D01*
X84997761Y-56289025D01*
X84997759Y-56289024D01*
X84997756Y-56289023D01*
X84849922Y-56210005D01*
X84720341Y-56103659D01*
X84613995Y-55974078D01*
X84534977Y-55826244D01*
X84486313Y-55665821D01*
X84469883Y-55499000D01*
X84486313Y-55332179D01*
X84534977Y-55171756D01*
X84613995Y-55023922D01*
X84720341Y-54894341D01*
X84849922Y-54787995D01*
X84997756Y-54708977D01*
X84997759Y-54708976D01*
X84997761Y-54708975D01*
X85158175Y-54660314D01*
X85158176Y-54660314D01*
X85158179Y-54660313D01*
X85283196Y-54648000D01*
X86166804Y-54648000D01*
X86291821Y-54660313D01*
X86291821Y-54660313D01*
G37*
G36*
X52441821Y-54660313D02*
X52441824Y-54660314D01*
X52441825Y-54660314D01*
X52602239Y-54708975D01*
X52602241Y-54708976D01*
X52602244Y-54708977D01*
X52750078Y-54787995D01*
X52879659Y-54894341D01*
X52986005Y-55023922D01*
X53065023Y-55171756D01*
X53113687Y-55332179D01*
X53130117Y-55499000D01*
X53113687Y-55665821D01*
X53065023Y-55826244D01*
X52986005Y-55974078D01*
X52879659Y-56103659D01*
X52750078Y-56210005D01*
X52602244Y-56289023D01*
X52602241Y-56289024D01*
X52602239Y-56289025D01*
X52441825Y-56337686D01*
X52441824Y-56337686D01*
X52441821Y-56337687D01*
X52316804Y-56350000D01*
X52233196Y-56350000D01*
X52108179Y-56337687D01*
X52108176Y-56337686D01*
X52108175Y-56337686D01*
X51947761Y-56289025D01*
X51947759Y-56289024D01*
X51947756Y-56289023D01*
X51799922Y-56210005D01*
X51670341Y-56103659D01*
X51563995Y-55974078D01*
X51484977Y-55826244D01*
X51436313Y-55665821D01*
X51419883Y-55499000D01*
X51436313Y-55332179D01*
X51484977Y-55171756D01*
X51563995Y-55023922D01*
X51670341Y-54894341D01*
X51799922Y-54787995D01*
X51947756Y-54708977D01*
X51947759Y-54708976D01*
X51947761Y-54708975D01*
X52108175Y-54660314D01*
X52108176Y-54660314D01*
X52108179Y-54660313D01*
X52233196Y-54648000D01*
X52316804Y-54648000D01*
X52441821Y-54660313D01*
X52441821Y-54660313D01*
G37*
G36*
X54981821Y-54660313D02*
X54981824Y-54660314D01*
X54981825Y-54660314D01*
X55142239Y-54708975D01*
X55142241Y-54708976D01*
X55142244Y-54708977D01*
X55290078Y-54787995D01*
X55419659Y-54894341D01*
X55526005Y-55023922D01*
X55605023Y-55171756D01*
X55653687Y-55332179D01*
X55670117Y-55499000D01*
X55653687Y-55665821D01*
X55605023Y-55826244D01*
X55526005Y-55974078D01*
X55419659Y-56103659D01*
X55290078Y-56210005D01*
X55142244Y-56289023D01*
X55142241Y-56289024D01*
X55142239Y-56289025D01*
X54981825Y-56337686D01*
X54981824Y-56337686D01*
X54981821Y-56337687D01*
X54856804Y-56350000D01*
X54773196Y-56350000D01*
X54648179Y-56337687D01*
X54648176Y-56337686D01*
X54648175Y-56337686D01*
X54487761Y-56289025D01*
X54487759Y-56289024D01*
X54487756Y-56289023D01*
X54339922Y-56210005D01*
X54210341Y-56103659D01*
X54103995Y-55974078D01*
X54024977Y-55826244D01*
X53976313Y-55665821D01*
X53959883Y-55499000D01*
X53976313Y-55332179D01*
X54024977Y-55171756D01*
X54103995Y-55023922D01*
X54210341Y-54894341D01*
X54339922Y-54787995D01*
X54487756Y-54708977D01*
X54487759Y-54708976D01*
X54487761Y-54708975D01*
X54648175Y-54660314D01*
X54648176Y-54660314D01*
X54648179Y-54660313D01*
X54773196Y-54648000D01*
X54856804Y-54648000D01*
X54981821Y-54660313D01*
X54981821Y-54660313D01*
G37*
G36*
X93911821Y-52120313D02*
X93911824Y-52120314D01*
X93911825Y-52120314D01*
X94072239Y-52168975D01*
X94072241Y-52168976D01*
X94072244Y-52168977D01*
X94220078Y-52247995D01*
X94349659Y-52354341D01*
X94456005Y-52483922D01*
X94535023Y-52631756D01*
X94583687Y-52792179D01*
X94600117Y-52959000D01*
X94583687Y-53125821D01*
X94535023Y-53286244D01*
X94456005Y-53434078D01*
X94349659Y-53563659D01*
X94220078Y-53670005D01*
X94072244Y-53749023D01*
X94072241Y-53749024D01*
X94072239Y-53749025D01*
X93911825Y-53797686D01*
X93911824Y-53797686D01*
X93911821Y-53797687D01*
X93786804Y-53810000D01*
X92903196Y-53810000D01*
X92778179Y-53797687D01*
X92778176Y-53797686D01*
X92778175Y-53797686D01*
X92617761Y-53749025D01*
X92617759Y-53749024D01*
X92617756Y-53749023D01*
X92469922Y-53670005D01*
X92340341Y-53563659D01*
X92233995Y-53434078D01*
X92154977Y-53286244D01*
X92106313Y-53125821D01*
X92089883Y-52959000D01*
X92106313Y-52792179D01*
X92154977Y-52631756D01*
X92233995Y-52483922D01*
X92340341Y-52354341D01*
X92469922Y-52247995D01*
X92617756Y-52168977D01*
X92617759Y-52168976D01*
X92617761Y-52168975D01*
X92778175Y-52120314D01*
X92778176Y-52120314D01*
X92778179Y-52120313D01*
X92903196Y-52108000D01*
X93786804Y-52108000D01*
X93911821Y-52120313D01*
X93911821Y-52120313D01*
G37*
G36*
X86291821Y-52120313D02*
X86291824Y-52120314D01*
X86291825Y-52120314D01*
X86452239Y-52168975D01*
X86452241Y-52168976D01*
X86452244Y-52168977D01*
X86600078Y-52247995D01*
X86729659Y-52354341D01*
X86836005Y-52483922D01*
X86915023Y-52631756D01*
X86963687Y-52792179D01*
X86980117Y-52959000D01*
X86963687Y-53125821D01*
X86915023Y-53286244D01*
X86836005Y-53434078D01*
X86729659Y-53563659D01*
X86600078Y-53670005D01*
X86452244Y-53749023D01*
X86452241Y-53749024D01*
X86452239Y-53749025D01*
X86291825Y-53797686D01*
X86291824Y-53797686D01*
X86291821Y-53797687D01*
X86166804Y-53810000D01*
X85283196Y-53810000D01*
X85158179Y-53797687D01*
X85158176Y-53797686D01*
X85158175Y-53797686D01*
X84997761Y-53749025D01*
X84997759Y-53749024D01*
X84997756Y-53749023D01*
X84849922Y-53670005D01*
X84720341Y-53563659D01*
X84613995Y-53434078D01*
X84534977Y-53286244D01*
X84486313Y-53125821D01*
X84469883Y-52959000D01*
X84486313Y-52792179D01*
X84534977Y-52631756D01*
X84613995Y-52483922D01*
X84720341Y-52354341D01*
X84849922Y-52247995D01*
X84997756Y-52168977D01*
X84997759Y-52168976D01*
X84997761Y-52168975D01*
X85158175Y-52120314D01*
X85158176Y-52120314D01*
X85158179Y-52120313D01*
X85283196Y-52108000D01*
X86166804Y-52108000D01*
X86291821Y-52120313D01*
X86291821Y-52120313D01*
G37*
G36*
X86976000Y-51270000D02*
X84474000Y-51270000D01*
X84474000Y-49568000D01*
X86976000Y-49568000D01*
X86976000Y-51270000D01*
X86976000Y-51270000D01*
G37*
G36*
X93911821Y-49580313D02*
X93911824Y-49580314D01*
X93911825Y-49580314D01*
X94072239Y-49628975D01*
X94072241Y-49628976D01*
X94072244Y-49628977D01*
X94220078Y-49707995D01*
X94349659Y-49814341D01*
X94456005Y-49943922D01*
X94535023Y-50091756D01*
X94583687Y-50252179D01*
X94600117Y-50419000D01*
X94583687Y-50585821D01*
X94535023Y-50746244D01*
X94456005Y-50894078D01*
X94349659Y-51023659D01*
X94220078Y-51130005D01*
X94072244Y-51209023D01*
X94072241Y-51209024D01*
X94072239Y-51209025D01*
X93911825Y-51257686D01*
X93911824Y-51257686D01*
X93911821Y-51257687D01*
X93786804Y-51270000D01*
X92903196Y-51270000D01*
X92778179Y-51257687D01*
X92778176Y-51257686D01*
X92778175Y-51257686D01*
X92617761Y-51209025D01*
X92617759Y-51209024D01*
X92617756Y-51209023D01*
X92469922Y-51130005D01*
X92340341Y-51023659D01*
X92233995Y-50894078D01*
X92154977Y-50746244D01*
X92106313Y-50585821D01*
X92089883Y-50419000D01*
X92106313Y-50252179D01*
X92154977Y-50091756D01*
X92233995Y-49943922D01*
X92340341Y-49814341D01*
X92469922Y-49707995D01*
X92617756Y-49628977D01*
X92617759Y-49628976D01*
X92617761Y-49628975D01*
X92778175Y-49580314D01*
X92778176Y-49580314D01*
X92778179Y-49580313D01*
X92903196Y-49568000D01*
X93786804Y-49568000D01*
X93911821Y-49580313D01*
X93911821Y-49580313D01*
G37*
G36*
X55666000Y-48730000D02*
X53964000Y-48730000D01*
X53964000Y-47028000D01*
X55666000Y-47028000D01*
X55666000Y-48730000D01*
X55666000Y-48730000D01*
G37*
G36*
X52441821Y-47040313D02*
X52441824Y-47040314D01*
X52441825Y-47040314D01*
X52602239Y-47088975D01*
X52602241Y-47088976D01*
X52602244Y-47088977D01*
X52750078Y-47167995D01*
X52879659Y-47274341D01*
X52986005Y-47403922D01*
X53065023Y-47551756D01*
X53113687Y-47712179D01*
X53130117Y-47879000D01*
X53113687Y-48045821D01*
X53065023Y-48206244D01*
X52986005Y-48354078D01*
X52879659Y-48483659D01*
X52750078Y-48590005D01*
X52602244Y-48669023D01*
X52602241Y-48669024D01*
X52602239Y-48669025D01*
X52441825Y-48717686D01*
X52441824Y-48717686D01*
X52441821Y-48717687D01*
X52316804Y-48730000D01*
X52233196Y-48730000D01*
X52108179Y-48717687D01*
X52108176Y-48717686D01*
X52108175Y-48717686D01*
X51947761Y-48669025D01*
X51947759Y-48669024D01*
X51947756Y-48669023D01*
X51799922Y-48590005D01*
X51670341Y-48483659D01*
X51563995Y-48354078D01*
X51484977Y-48206244D01*
X51436313Y-48045821D01*
X51419883Y-47879000D01*
X51436313Y-47712179D01*
X51484977Y-47551756D01*
X51563995Y-47403922D01*
X51670341Y-47274341D01*
X51799922Y-47167995D01*
X51947756Y-47088977D01*
X51947759Y-47088976D01*
X51947761Y-47088975D01*
X52108175Y-47040314D01*
X52108176Y-47040314D01*
X52108179Y-47040313D01*
X52233196Y-47028000D01*
X52316804Y-47028000D01*
X52441821Y-47040313D01*
X52441821Y-47040313D01*
G37*
G36*
X73335635Y-44608019D02*
X73516903Y-44644075D01*
X73744571Y-44738378D01*
X73948542Y-44874668D01*
X73949469Y-44875287D01*
X74123713Y-45049531D01*
X74123715Y-45049534D01*
X74260622Y-45254429D01*
X74354925Y-45482097D01*
X74403000Y-45723787D01*
X74403000Y-45970213D01*
X74354925Y-46211903D01*
X74260622Y-46439571D01*
X74124332Y-46643542D01*
X74123713Y-46644469D01*
X73949469Y-46818713D01*
X73949466Y-46818715D01*
X73744571Y-46955622D01*
X73516903Y-47049925D01*
X73335635Y-47085981D01*
X73275214Y-47098000D01*
X73028786Y-47098000D01*
X72968364Y-47085981D01*
X72787097Y-47049925D01*
X72559429Y-46955622D01*
X72354534Y-46818715D01*
X72354531Y-46818713D01*
X72180287Y-46644469D01*
X72179668Y-46643542D01*
X72043378Y-46439571D01*
X71949075Y-46211903D01*
X71901000Y-45970213D01*
X71901000Y-45723787D01*
X71949075Y-45482097D01*
X72043378Y-45254429D01*
X72180285Y-45049534D01*
X72180287Y-45049531D01*
X72354531Y-44875287D01*
X72355458Y-44874668D01*
X72559429Y-44738378D01*
X72787097Y-44644075D01*
X72968365Y-44608019D01*
X73028786Y-44596000D01*
X73275214Y-44596000D01*
X73335635Y-44608019D01*
X73335635Y-44608019D01*
G37*
G36*
X78669635Y-44608019D02*
X78850903Y-44644075D01*
X79078571Y-44738378D01*
X79282542Y-44874668D01*
X79283469Y-44875287D01*
X79457713Y-45049531D01*
X79457715Y-45049534D01*
X79594622Y-45254429D01*
X79688925Y-45482097D01*
X79737000Y-45723787D01*
X79737000Y-45970213D01*
X79688925Y-46211903D01*
X79594622Y-46439571D01*
X79458332Y-46643542D01*
X79457713Y-46644469D01*
X79283469Y-46818713D01*
X79283466Y-46818715D01*
X79078571Y-46955622D01*
X78850903Y-47049925D01*
X78669635Y-47085981D01*
X78609214Y-47098000D01*
X78362786Y-47098000D01*
X78302364Y-47085981D01*
X78121097Y-47049925D01*
X77893429Y-46955622D01*
X77688534Y-46818715D01*
X77688531Y-46818713D01*
X77514287Y-46644469D01*
X77513668Y-46643542D01*
X77377378Y-46439571D01*
X77283075Y-46211903D01*
X77235000Y-45970213D01*
X77235000Y-45723787D01*
X77283075Y-45482097D01*
X77377378Y-45254429D01*
X77514285Y-45049534D01*
X77514287Y-45049531D01*
X77688531Y-44875287D01*
X77689458Y-44874668D01*
X77893429Y-44738378D01*
X78121097Y-44644075D01*
X78302365Y-44608019D01*
X78362786Y-44596000D01*
X78609214Y-44596000D01*
X78669635Y-44608019D01*
X78669635Y-44608019D01*
G37*
G36*
X88100000Y-44412000D02*
X86398000Y-44412000D01*
X86398000Y-42710000D01*
X88100000Y-42710000D01*
X88100000Y-44412000D01*
X88100000Y-44412000D01*
G37*
G36*
X67809239Y-40677101D02*
X68045053Y-40748634D01*
X68262381Y-40864799D01*
X68452871Y-41021129D01*
X68609201Y-41211619D01*
X68725366Y-41428947D01*
X68796899Y-41664761D01*
X68821053Y-41910000D01*
X68796899Y-42155239D01*
X68725366Y-42391053D01*
X68609201Y-42608381D01*
X68452871Y-42798871D01*
X68262381Y-42955201D01*
X68045053Y-43071366D01*
X67809239Y-43142899D01*
X67625457Y-43161000D01*
X67502543Y-43161000D01*
X67318761Y-43142899D01*
X67082947Y-43071366D01*
X66865619Y-42955201D01*
X66675129Y-42798871D01*
X66518799Y-42608381D01*
X66402634Y-42391053D01*
X66331101Y-42155239D01*
X66306947Y-41910000D01*
X66331101Y-41664761D01*
X66402634Y-41428947D01*
X66518799Y-41211619D01*
X66675129Y-41021129D01*
X66865619Y-40864799D01*
X67082947Y-40748634D01*
X67318761Y-40677101D01*
X67502543Y-40659000D01*
X67625457Y-40659000D01*
X67809239Y-40677101D01*
X67809239Y-40677101D01*
G37*
G36*
X55047636Y-40671019D02*
X55228903Y-40707075D01*
X55456571Y-40801378D01*
X55551488Y-40864800D01*
X55661469Y-40938287D01*
X55835713Y-41112531D01*
X55835715Y-41112534D01*
X55972622Y-41317429D01*
X56066925Y-41545097D01*
X56115000Y-41786787D01*
X56115000Y-42033213D01*
X56066925Y-42274903D01*
X55972622Y-42502571D01*
X55901921Y-42608382D01*
X55835713Y-42707469D01*
X55661469Y-42881713D01*
X55661466Y-42881715D01*
X55456571Y-43018622D01*
X55228903Y-43112925D01*
X55078213Y-43142899D01*
X54987214Y-43161000D01*
X54740786Y-43161000D01*
X54649787Y-43142899D01*
X54499097Y-43112925D01*
X54271429Y-43018622D01*
X54066534Y-42881715D01*
X54066531Y-42881713D01*
X53892287Y-42707469D01*
X53826079Y-42608382D01*
X53755378Y-42502571D01*
X53661075Y-42274903D01*
X53613000Y-42033213D01*
X53613000Y-41786787D01*
X53661075Y-41545097D01*
X53755378Y-41317429D01*
X53892285Y-41112534D01*
X53892287Y-41112531D01*
X54066531Y-40938287D01*
X54176512Y-40864800D01*
X54271429Y-40801378D01*
X54499097Y-40707075D01*
X54680364Y-40671019D01*
X54740786Y-40659000D01*
X54987214Y-40659000D01*
X55047636Y-40671019D01*
X55047636Y-40671019D01*
G37*
G36*
X87497228Y-40242703D02*
X87652100Y-40306853D01*
X87791481Y-40399985D01*
X87910015Y-40518519D01*
X88003147Y-40657900D01*
X88067297Y-40812772D01*
X88100000Y-40977184D01*
X88100000Y-41144816D01*
X88067297Y-41309228D01*
X88003147Y-41464100D01*
X87910015Y-41603481D01*
X87791481Y-41722015D01*
X87652100Y-41815147D01*
X87497228Y-41879297D01*
X87332816Y-41912000D01*
X87165184Y-41912000D01*
X87000772Y-41879297D01*
X86845900Y-41815147D01*
X86706519Y-41722015D01*
X86587985Y-41603481D01*
X86494853Y-41464100D01*
X86430703Y-41309228D01*
X86398000Y-41144816D01*
X86398000Y-40977184D01*
X86430703Y-40812772D01*
X86494853Y-40657900D01*
X86587985Y-40518519D01*
X86706519Y-40399985D01*
X86845900Y-40306853D01*
X87000772Y-40242703D01*
X87165184Y-40210000D01*
X87332816Y-40210000D01*
X87497228Y-40242703D01*
X87497228Y-40242703D01*
G37*
M02*
