G04 #@! TF.GenerationSoftware,KiCad,Pcbnew,(5.0.2)-1*
G04 #@! TF.CreationDate,2019-02-20T00:52:58+02:00*
G04 #@! TF.ProjectId,TSAL_SMD,5453414c-5f53-44d4-942e-6b696361645f,rev?*
G04 #@! TF.SameCoordinates,Original*
G04 #@! TF.FileFunction,Copper,L1,Top*
G04 #@! TF.FilePolarity,Positive*
%FSLAX46Y46*%
G04 Gerber Fmt 4.6, Leading zero omitted, Abs format (unit mm)*
G04 Created by KiCad (PCBNEW (5.0.2)-1) date 2/20/2019 12:52:58 AM*
%MOMM*%
%LPD*%
G01*
G04 APERTURE LIST*
G04 #@! TA.AperFunction,ComponentPad*
%ADD10C,2.400000*%
G04 #@! TD*
G04 #@! TA.AperFunction,ComponentPad*
%ADD11O,2.400000X2.400000*%
G04 #@! TD*
G04 #@! TA.AperFunction,ComponentPad*
%ADD12R,1.600000X1.600000*%
G04 #@! TD*
G04 #@! TA.AperFunction,ComponentPad*
%ADD13C,1.600000*%
G04 #@! TD*
G04 #@! TA.AperFunction,ComponentPad*
%ADD14C,4.000000*%
G04 #@! TD*
G04 #@! TA.AperFunction,ComponentPad*
%ADD15R,2.000000X1.905000*%
G04 #@! TD*
G04 #@! TA.AperFunction,ComponentPad*
%ADD16O,2.000000X1.905000*%
G04 #@! TD*
G04 #@! TA.AperFunction,ComponentPad*
%ADD17O,1.905000X2.000000*%
G04 #@! TD*
G04 #@! TA.AperFunction,ComponentPad*
%ADD18R,1.905000X2.000000*%
G04 #@! TD*
G04 #@! TA.AperFunction,ComponentPad*
%ADD19R,2.400000X1.600000*%
G04 #@! TD*
G04 #@! TA.AperFunction,ComponentPad*
%ADD20O,2.400000X1.600000*%
G04 #@! TD*
G04 #@! TA.AperFunction,ComponentPad*
%ADD21O,1.600000X1.600000*%
G04 #@! TD*
G04 #@! TA.AperFunction,ViaPad*
%ADD22C,5.000000*%
G04 #@! TD*
G04 #@! TA.AperFunction,Conductor*
%ADD23C,1.000000*%
G04 #@! TD*
G04 #@! TA.AperFunction,Conductor*
%ADD24C,0.500000*%
G04 #@! TD*
G04 APERTURE END LIST*
D10*
G04 #@! TO.P,R3,1*
G04 #@! TO.N,Net-(R3-Pad1)*
X54864000Y-41910000D03*
D11*
G04 #@! TO.P,R3,2*
G04 #@! TO.N,+12V*
X67564000Y-41910000D03*
G04 #@! TD*
D12*
G04 #@! TO.P,J1,1*
G04 #@! TO.N,+12V*
X74803000Y-78994000D03*
D13*
G04 #@! TO.P,J1,2*
X72033000Y-78994000D03*
G04 #@! TO.P,J1,3*
G04 #@! TO.N,+12L*
X69263000Y-78994000D03*
G04 #@! TO.P,J1,4*
X66493000Y-78994000D03*
G04 #@! TO.P,J1,5*
G04 #@! TO.N,/GREEN_LED_ON*
X63723000Y-78994000D03*
G04 #@! TO.P,J1,6*
G04 #@! TO.N,GNDPWR*
X73418000Y-81834000D03*
G04 #@! TO.P,J1,7*
G04 #@! TO.N,/RED_LED-*
X70648000Y-81834000D03*
G04 #@! TO.P,J1,8*
G04 #@! TO.N,GND*
X67878000Y-81834000D03*
G04 #@! TO.P,J1,9*
G04 #@! TO.N,/GREEN_LED-*
X65108000Y-81834000D03*
D14*
G04 #@! TO.P,J1,0*
G04 #@! TO.N,Net-(J1-Pad0)*
X56763000Y-79294000D03*
X81763000Y-79294000D03*
G04 #@! TD*
D12*
G04 #@! TO.P,C1,1*
G04 #@! TO.N,Net-(C1-Pad1)*
X87249000Y-43561000D03*
D13*
G04 #@! TO.P,C1,2*
G04 #@! TO.N,GNDPWR*
X87249000Y-41061000D03*
G04 #@! TD*
D15*
G04 #@! TO.P,Q1,1*
G04 #@! TO.N,Net-(Q1-Pad1)*
X73660000Y-65151000D03*
D16*
G04 #@! TO.P,Q1,2*
G04 #@! TO.N,/RED_LED-*
X73660000Y-67691000D03*
G04 #@! TO.P,Q1,3*
G04 #@! TO.N,GNDPWR*
X73660000Y-70231000D03*
G04 #@! TD*
D17*
G04 #@! TO.P,Q2,3*
G04 #@! TO.N,GND*
X49735000Y-58879000D03*
G04 #@! TO.P,Q2,2*
G04 #@! TO.N,/GREEN_LED-*
X52275000Y-58879000D03*
D18*
G04 #@! TO.P,Q2,1*
G04 #@! TO.N,/GREEN_LED_ON*
X54815000Y-58879000D03*
G04 #@! TD*
D11*
G04 #@! TO.P,R1,2*
G04 #@! TO.N,Net-(R1-Pad2)*
X78486000Y-58547000D03*
D10*
G04 #@! TO.P,R1,1*
G04 #@! TO.N,Net-(C1-Pad1)*
X78486000Y-45847000D03*
G04 #@! TD*
G04 #@! TO.P,R2,1*
G04 #@! TO.N,Net-(Q1-Pad1)*
X73152000Y-45847000D03*
D11*
G04 #@! TO.P,R2,2*
G04 #@! TO.N,Net-(R1-Pad2)*
X73152000Y-58547000D03*
G04 #@! TD*
G04 #@! TO.P,R4,2*
G04 #@! TO.N,+12L*
X60960000Y-71628000D03*
D10*
G04 #@! TO.P,R4,1*
G04 #@! TO.N,/GREEN_LED_ON*
X60960000Y-58928000D03*
G04 #@! TD*
D19*
G04 #@! TO.P,U1,1*
G04 #@! TO.N,GNDPWR*
X85725000Y-50419000D03*
D20*
G04 #@! TO.P,U1,5*
G04 #@! TO.N,Net-(U1-Pad5)*
X93345000Y-58039000D03*
G04 #@! TO.P,U1,2*
G04 #@! TO.N,Net-(C1-Pad1)*
X85725000Y-52959000D03*
G04 #@! TO.P,U1,6*
X93345000Y-55499000D03*
G04 #@! TO.P,U1,3*
G04 #@! TO.N,Net-(R1-Pad2)*
X85725000Y-55499000D03*
G04 #@! TO.P,U1,7*
G04 #@! TO.N,Net-(U1-Pad7)*
X93345000Y-52959000D03*
G04 #@! TO.P,U1,4*
G04 #@! TO.N,+12V*
X85725000Y-58039000D03*
G04 #@! TO.P,U1,8*
X93345000Y-50419000D03*
G04 #@! TD*
D12*
G04 #@! TO.P,U2,1*
G04 #@! TO.N,Net-(R3-Pad1)*
X54815000Y-47879000D03*
D21*
G04 #@! TO.P,U2,3*
G04 #@! TO.N,GND*
X52275000Y-55499000D03*
G04 #@! TO.P,U2,2*
G04 #@! TO.N,GNDPWR*
X52275000Y-47879000D03*
G04 #@! TO.P,U2,4*
G04 #@! TO.N,/GREEN_LED_ON*
X54815000Y-55499000D03*
G04 #@! TD*
D22*
G04 #@! TO.N,*
X45000000Y-38000000D03*
X96000000Y-38000000D03*
X96000000Y-83000000D03*
X45000000Y-83000000D03*
G04 #@! TD*
D23*
G04 #@! TO.N,Net-(C1-Pad1)*
X86445002Y-52959000D02*
X85725000Y-52959000D01*
X88265000Y-51139002D02*
X86445002Y-52959000D01*
X88265000Y-46990000D02*
X88265000Y-51139002D01*
X87249000Y-43561000D02*
X87249000Y-45974000D01*
X87249000Y-45974000D02*
X88265000Y-46990000D01*
G04 #@! TO.N,GNDPWR*
X52275000Y-47879000D02*
X52275000Y-40689000D01*
X52275000Y-40689000D02*
X53213000Y-39751000D01*
X60833000Y-39751000D02*
X74549000Y-53467000D01*
X53213000Y-39751000D02*
X60833000Y-39751000D01*
X74549000Y-53467000D02*
X70612000Y-57404000D01*
X75989001Y-82633999D02*
X76454000Y-82169000D01*
X73418000Y-81834000D02*
X74217999Y-82633999D01*
X74217999Y-82633999D02*
X75989001Y-82633999D01*
X73612500Y-70231000D02*
X73660000Y-70231000D01*
X70612000Y-67230500D02*
X73612500Y-70231000D01*
X70612000Y-57404000D02*
X70612000Y-67230500D01*
X73660000Y-72183500D02*
X73660000Y-70231000D01*
X76454000Y-74977500D02*
X73660000Y-72183500D01*
X76454000Y-82169000D02*
X76454000Y-74977500D01*
X84161000Y-41061000D02*
X87249000Y-41061000D01*
X83439000Y-41783000D02*
X84161000Y-41061000D01*
X83439000Y-44704000D02*
X83439000Y-41783000D01*
X85725000Y-50419000D02*
X85725000Y-46990000D01*
X85725000Y-46990000D02*
X83439000Y-44704000D01*
X80477000Y-53467000D02*
X74549000Y-53467000D01*
X83525000Y-50419000D02*
X80477000Y-53467000D01*
X85725000Y-50419000D02*
X83525000Y-50419000D01*
G04 #@! TO.N,/RED_LED-*
X73142000Y-84328000D02*
X70648000Y-81834000D01*
X77216000Y-84328000D02*
X73142000Y-84328000D01*
X78994000Y-82550000D02*
X77216000Y-84328000D01*
X78994000Y-72977500D02*
X78994000Y-82550000D01*
X73707500Y-67691000D02*
X78994000Y-72977500D01*
X73660000Y-67691000D02*
X73707500Y-67691000D01*
D24*
G04 #@! TO.N,GND*
X49735000Y-58039000D02*
X52275000Y-55499000D01*
X49735000Y-58879000D02*
X49735000Y-58039000D01*
D23*
X65892000Y-83820000D02*
X67878000Y-81834000D01*
X57292998Y-83820000D02*
X65892000Y-83820000D01*
X49735000Y-58879000D02*
X49735000Y-76262002D01*
X49735000Y-76262002D02*
X57292998Y-83820000D01*
G04 #@! TO.N,/GREEN_LED-*
X52275000Y-58879000D02*
X52275000Y-69774000D01*
X52275000Y-70616070D02*
X52275000Y-69774000D01*
X62692931Y-81034001D02*
X52275000Y-70616070D01*
X64308001Y-81034001D02*
X62692931Y-81034001D01*
X65108000Y-81834000D02*
X64308001Y-81034001D01*
D24*
G04 #@! TO.N,/GREEN_LED_ON*
X54815000Y-58879000D02*
X54815000Y-55499000D01*
D23*
X60911000Y-58879000D02*
X60960000Y-58928000D01*
X54815000Y-58879000D02*
X60911000Y-58879000D01*
X56896000Y-72167000D02*
X63723000Y-78994000D01*
X54815000Y-58879000D02*
X54815000Y-70086000D01*
X54815000Y-70086000D02*
X56896000Y-72167000D01*
G04 #@! TO.N,Net-(R1-Pad2)*
X78486000Y-58547000D02*
X73152000Y-58547000D01*
X81788000Y-55499000D02*
X85725000Y-55499000D01*
X78486000Y-58547000D02*
X81534000Y-55499000D01*
X81534000Y-55499000D02*
X81788000Y-55499000D01*
G04 #@! TO.N,+12V*
X87925000Y-58039000D02*
X85725000Y-58039000D01*
X89281000Y-56683000D02*
X87925000Y-58039000D01*
X89281000Y-52451000D02*
X89281000Y-56683000D01*
X91313000Y-50419000D02*
X89281000Y-52451000D01*
X93345000Y-50419000D02*
X91313000Y-50419000D01*
X72033000Y-78994000D02*
X74803000Y-78994000D01*
X93345000Y-41783000D02*
X93345000Y-50419000D01*
X88011000Y-36449000D02*
X93345000Y-41783000D01*
X67564000Y-41910000D02*
X73025000Y-36449000D01*
X73025000Y-36449000D02*
X88011000Y-36449000D01*
G04 #@! TO.N,+12L*
X69263000Y-78994000D02*
X66493000Y-78994000D01*
X66493000Y-78939000D02*
X66493000Y-78994000D01*
X60960000Y-71628000D02*
X60960000Y-73406000D01*
X60960000Y-73406000D02*
X66493000Y-78939000D01*
G04 #@! TO.N,Net-(R3-Pad1)*
X54815000Y-41959000D02*
X54864000Y-41910000D01*
X54815000Y-47879000D02*
X54815000Y-41959000D01*
G04 #@! TD*
M02*
