M48
;DRILL file {KiCad (5.0.2)-1} date 2/20/2019 12:53:00 AM
;FORMAT={-:-/ absolute / inch / decimal}
FMAT,2
INCH,TZ
T1C0.0315
T2C0.0394
T3C0.0433
T4C0.0472
T5C0.1260
T6C0.1575
%
G90
G05
T1
X3.375Y-1.985
X3.375Y-2.085
X3.375Y-2.185
X3.375Y-2.285
X3.675Y-1.985
X3.675Y-2.085
X3.675Y-2.185
X3.675Y-2.285
X2.0581Y-1.885
X2.0581Y-2.185
X2.1581Y-1.885
X2.1581Y-2.185
X3.435Y-1.6166
X3.435Y-1.715
T2
X2.5088Y-3.11
X2.5633Y-3.2218
X2.6178Y-3.11
X2.6724Y-3.2218
X2.7269Y-3.11
X2.7814Y-3.2218
X2.8359Y-3.11
X2.8905Y-3.2218
X2.945Y-3.11
T3
X2.9Y-2.565
X2.9Y-2.665
X2.9Y-2.765
X1.9581Y-2.3181
X2.0581Y-2.3181
X2.1581Y-2.3181
T4
X2.16Y-1.65
X2.66Y-1.65
X2.4Y-2.32
X2.4Y-2.82
X3.09Y-1.805
X3.09Y-2.305
X2.88Y-1.805
X2.88Y-2.305
T5
X2.2348Y-3.1218
X3.219Y-3.1218
T6
X1.7717Y-1.4961
X1.7717Y-3.2677
X3.7795Y-1.4961
X3.7795Y-3.2677
T0
M30
