G04 #@! TF.GenerationSoftware,KiCad,Pcbnew,(5.0.2)-1*
G04 #@! TF.CreationDate,2019-02-20T00:52:58+02:00*
G04 #@! TF.ProjectId,TSAL_SMD,5453414c-5f53-44d4-942e-6b696361645f,rev?*
G04 #@! TF.SameCoordinates,Original*
G04 #@! TF.FileFunction,Legend,Top*
G04 #@! TF.FilePolarity,Positive*
%FSLAX46Y46*%
G04 Gerber Fmt 4.6, Leading zero omitted, Abs format (unit mm)*
G04 Created by KiCad (PCBNEW (5.0.2)-1) date 2/20/2019 12:52:58 AM*
%MOMM*%
%LPD*%
G01*
G04 APERTURE LIST*
%ADD10C,0.300000*%
%ADD11C,0.200000*%
%ADD12C,0.120000*%
%ADD13C,0.150000*%
G04 APERTURE END LIST*
D10*
X65071428Y-23078571D02*
X64357142Y-23078571D01*
X64285714Y-23792857D01*
X64357142Y-23721428D01*
X64500000Y-23650000D01*
X64857142Y-23650000D01*
X65000000Y-23721428D01*
X65071428Y-23792857D01*
X65142857Y-23935714D01*
X65142857Y-24292857D01*
X65071428Y-24435714D01*
X65000000Y-24507142D01*
X64857142Y-24578571D01*
X64500000Y-24578571D01*
X64357142Y-24507142D01*
X64285714Y-24435714D01*
X65857142Y-24578571D02*
X66142857Y-24578571D01*
X66285714Y-24507142D01*
X66357142Y-24435714D01*
X66500000Y-24221428D01*
X66571428Y-23935714D01*
X66571428Y-23364285D01*
X66500000Y-23221428D01*
X66428571Y-23150000D01*
X66285714Y-23078571D01*
X66000000Y-23078571D01*
X65857142Y-23150000D01*
X65785714Y-23221428D01*
X65714285Y-23364285D01*
X65714285Y-23721428D01*
X65785714Y-23864285D01*
X65857142Y-23935714D01*
X66000000Y-24007142D01*
X66285714Y-24007142D01*
X66428571Y-23935714D01*
X66500000Y-23864285D01*
X66571428Y-23721428D01*
X67214285Y-24435714D02*
X67285714Y-24507142D01*
X67214285Y-24578571D01*
X67142857Y-24507142D01*
X67214285Y-24435714D01*
X67214285Y-24578571D01*
X68214285Y-23078571D02*
X68357142Y-23078571D01*
X68500000Y-23150000D01*
X68571428Y-23221428D01*
X68642857Y-23364285D01*
X68714285Y-23650000D01*
X68714285Y-24007142D01*
X68642857Y-24292857D01*
X68571428Y-24435714D01*
X68500000Y-24507142D01*
X68357142Y-24578571D01*
X68214285Y-24578571D01*
X68071428Y-24507142D01*
X68000000Y-24435714D01*
X67928571Y-24292857D01*
X67857142Y-24007142D01*
X67857142Y-23650000D01*
X67928571Y-23364285D01*
X68000000Y-23221428D01*
X68071428Y-23150000D01*
X68214285Y-23078571D01*
X69642857Y-23078571D02*
X69785714Y-23078571D01*
X69928571Y-23150000D01*
X70000000Y-23221428D01*
X70071428Y-23364285D01*
X70142857Y-23650000D01*
X70142857Y-24007142D01*
X70071428Y-24292857D01*
X70000000Y-24435714D01*
X69928571Y-24507142D01*
X69785714Y-24578571D01*
X69642857Y-24578571D01*
X69500000Y-24507142D01*
X69428571Y-24435714D01*
X69357142Y-24292857D01*
X69285714Y-24007142D01*
X69285714Y-23650000D01*
X69357142Y-23364285D01*
X69428571Y-23221428D01*
X69500000Y-23150000D01*
X69642857Y-23078571D01*
X71071428Y-23078571D02*
X71214285Y-23078571D01*
X71357142Y-23150000D01*
X71428571Y-23221428D01*
X71500000Y-23364285D01*
X71571428Y-23650000D01*
X71571428Y-24007142D01*
X71500000Y-24292857D01*
X71428571Y-24435714D01*
X71357142Y-24507142D01*
X71214285Y-24578571D01*
X71071428Y-24578571D01*
X70928571Y-24507142D01*
X70857142Y-24435714D01*
X70785714Y-24292857D01*
X70714285Y-24007142D01*
X70714285Y-23650000D01*
X70785714Y-23364285D01*
X70857142Y-23221428D01*
X70928571Y-23150000D01*
X71071428Y-23078571D01*
X73357142Y-24578571D02*
X73357142Y-23578571D01*
X73357142Y-23721428D02*
X73428571Y-23650000D01*
X73571428Y-23578571D01*
X73785714Y-23578571D01*
X73928571Y-23650000D01*
X74000000Y-23792857D01*
X74000000Y-24578571D01*
X74000000Y-23792857D02*
X74071428Y-23650000D01*
X74214285Y-23578571D01*
X74428571Y-23578571D01*
X74571428Y-23650000D01*
X74642857Y-23792857D01*
X74642857Y-24578571D01*
X75357142Y-24578571D02*
X75357142Y-23578571D01*
X75357142Y-23721428D02*
X75428571Y-23650000D01*
X75571428Y-23578571D01*
X75785714Y-23578571D01*
X75928571Y-23650000D01*
X76000000Y-23792857D01*
X76000000Y-24578571D01*
X76000000Y-23792857D02*
X76071428Y-23650000D01*
X76214285Y-23578571D01*
X76428571Y-23578571D01*
X76571428Y-23650000D01*
X76642857Y-23792857D01*
X76642857Y-24578571D01*
X100000000Y-26000000D02*
X41000000Y-26000000D01*
X100000000Y-32000000D02*
X100000000Y-25413579D01*
X41000000Y-32000000D02*
X41000000Y-25413579D01*
X41000000Y-26000000D02*
X42126504Y-25413579D01*
X41000000Y-26000000D02*
X42126504Y-26586421D01*
X100000000Y-26000000D02*
X98873496Y-25413579D01*
X100000000Y-26000000D02*
X98873496Y-26586421D01*
X115278571Y-65928571D02*
X115278571Y-66642857D01*
X115992857Y-66714285D01*
X115921428Y-66642857D01*
X115850000Y-66500000D01*
X115850000Y-66142857D01*
X115921428Y-66000000D01*
X115992857Y-65928571D01*
X116135714Y-65857142D01*
X116492857Y-65857142D01*
X116635714Y-65928571D01*
X116707142Y-66000000D01*
X116778571Y-66142857D01*
X116778571Y-66500000D01*
X116707142Y-66642857D01*
X116635714Y-66714285D01*
X115278571Y-65357142D02*
X115278571Y-64428571D01*
X115850000Y-64928571D01*
X115850000Y-64714285D01*
X115921428Y-64571428D01*
X115992857Y-64500000D01*
X116135714Y-64428571D01*
X116492857Y-64428571D01*
X116635714Y-64500000D01*
X116707142Y-64571428D01*
X116778571Y-64714285D01*
X116778571Y-65142857D01*
X116707142Y-65285714D01*
X116635714Y-65357142D01*
X116635714Y-63785714D02*
X116707142Y-63714285D01*
X116778571Y-63785714D01*
X116707142Y-63857142D01*
X116635714Y-63785714D01*
X116778571Y-63785714D01*
X115278571Y-62785714D02*
X115278571Y-62642857D01*
X115350000Y-62500000D01*
X115421428Y-62428571D01*
X115564285Y-62357142D01*
X115850000Y-62285714D01*
X116207142Y-62285714D01*
X116492857Y-62357142D01*
X116635714Y-62428571D01*
X116707142Y-62500000D01*
X116778571Y-62642857D01*
X116778571Y-62785714D01*
X116707142Y-62928571D01*
X116635714Y-63000000D01*
X116492857Y-63071428D01*
X116207142Y-63142857D01*
X115850000Y-63142857D01*
X115564285Y-63071428D01*
X115421428Y-63000000D01*
X115350000Y-62928571D01*
X115278571Y-62785714D01*
X115278571Y-61357142D02*
X115278571Y-61214285D01*
X115350000Y-61071428D01*
X115421428Y-61000000D01*
X115564285Y-60928571D01*
X115850000Y-60857142D01*
X116207142Y-60857142D01*
X116492857Y-60928571D01*
X116635714Y-61000000D01*
X116707142Y-61071428D01*
X116778571Y-61214285D01*
X116778571Y-61357142D01*
X116707142Y-61500000D01*
X116635714Y-61571428D01*
X116492857Y-61642857D01*
X116207142Y-61714285D01*
X115850000Y-61714285D01*
X115564285Y-61642857D01*
X115421428Y-61571428D01*
X115350000Y-61500000D01*
X115278571Y-61357142D01*
X115278571Y-59928571D02*
X115278571Y-59785714D01*
X115350000Y-59642857D01*
X115421428Y-59571428D01*
X115564285Y-59500000D01*
X115850000Y-59428571D01*
X116207142Y-59428571D01*
X116492857Y-59500000D01*
X116635714Y-59571428D01*
X116707142Y-59642857D01*
X116778571Y-59785714D01*
X116778571Y-59928571D01*
X116707142Y-60071428D01*
X116635714Y-60142857D01*
X116492857Y-60214285D01*
X116207142Y-60285714D01*
X115850000Y-60285714D01*
X115564285Y-60214285D01*
X115421428Y-60142857D01*
X115350000Y-60071428D01*
X115278571Y-59928571D01*
X116778571Y-57642857D02*
X115778571Y-57642857D01*
X115921428Y-57642857D02*
X115850000Y-57571428D01*
X115778571Y-57428571D01*
X115778571Y-57214285D01*
X115850000Y-57071428D01*
X115992857Y-57000000D01*
X116778571Y-57000000D01*
X115992857Y-57000000D02*
X115850000Y-56928571D01*
X115778571Y-56785714D01*
X115778571Y-56571428D01*
X115850000Y-56428571D01*
X115992857Y-56357142D01*
X116778571Y-56357142D01*
X116778571Y-55642857D02*
X115778571Y-55642857D01*
X115921428Y-55642857D02*
X115850000Y-55571428D01*
X115778571Y-55428571D01*
X115778571Y-55214285D01*
X115850000Y-55071428D01*
X115992857Y-55000000D01*
X116778571Y-55000000D01*
X115992857Y-55000000D02*
X115850000Y-54928571D01*
X115778571Y-54785714D01*
X115778571Y-54571428D01*
X115850000Y-54428571D01*
X115992857Y-54357142D01*
X116778571Y-54357142D01*
X114000000Y-87000000D02*
X114000000Y-34000000D01*
X101000000Y-87000000D02*
X114586421Y-87000000D01*
X101000000Y-34000000D02*
X114586421Y-34000000D01*
X114000000Y-34000000D02*
X114586421Y-35126504D01*
X114000000Y-34000000D02*
X113413579Y-35126504D01*
X114000000Y-87000000D02*
X114586421Y-85873496D01*
X114000000Y-87000000D02*
X113413579Y-85873496D01*
X63067428Y-54526571D02*
X62353142Y-54526571D01*
X62353142Y-53026571D01*
X63353142Y-53026571D02*
X63853142Y-54526571D01*
X64353142Y-53026571D01*
X62428571Y-49700571D02*
X62428571Y-48200571D01*
X62428571Y-48914857D02*
X63285714Y-48914857D01*
X63285714Y-49700571D02*
X63285714Y-48200571D01*
X63785714Y-48200571D02*
X64285714Y-49700571D01*
X64785714Y-48200571D01*
D11*
X69342000Y-83058000D02*
X69342000Y-85598000D01*
X69342000Y-80264000D02*
X69342000Y-83058000D01*
X70612000Y-80264000D02*
X69342000Y-80264000D01*
X70612000Y-80010000D02*
X70612000Y-80264000D01*
X70612000Y-79756000D02*
X70612000Y-80010000D01*
X70612000Y-70866000D02*
X70612000Y-79756000D01*
X66040000Y-70866000D02*
X70612000Y-70866000D01*
X66040000Y-51816000D02*
X66040000Y-70866000D01*
X61468000Y-51816000D02*
X66040000Y-51816000D01*
X48006000Y-51816000D02*
X61468000Y-51816000D01*
D12*
G04 #@! TO.C,R3*
X56144000Y-40470000D02*
X56144000Y-39990000D01*
X56144000Y-39990000D02*
X66284000Y-39990000D01*
X66284000Y-39990000D02*
X66284000Y-40470000D01*
X56144000Y-43350000D02*
X56144000Y-43830000D01*
X56144000Y-43830000D02*
X66284000Y-43830000D01*
X66284000Y-43830000D02*
X66284000Y-43350000D01*
G04 #@! TO.C,J1*
X53778000Y-86714000D02*
X53778000Y-76234000D01*
X53778000Y-76234000D02*
X84748000Y-76234000D01*
X84748000Y-76234000D02*
X84748000Y-86714000D01*
X74553000Y-75339662D02*
X75053000Y-75339662D01*
X75053000Y-75339662D02*
X74803000Y-75772675D01*
X74803000Y-75772675D02*
X74553000Y-75339662D01*
G04 #@! TO.C,C1*
X91369000Y-42311000D02*
G75*
G03X91369000Y-42311000I-4120000J0D01*
G01*
X83169000Y-42311000D02*
X91329000Y-42311000D01*
X83169000Y-42271000D02*
X91329000Y-42271000D01*
X83169000Y-42231000D02*
X91329000Y-42231000D01*
X83170000Y-42191000D02*
X91328000Y-42191000D01*
X83172000Y-42151000D02*
X91326000Y-42151000D01*
X83173000Y-42111000D02*
X91325000Y-42111000D01*
X83175000Y-42071000D02*
X86209000Y-42071000D01*
X88289000Y-42071000D02*
X91323000Y-42071000D01*
X83178000Y-42031000D02*
X86209000Y-42031000D01*
X88289000Y-42031000D02*
X91320000Y-42031000D01*
X83181000Y-41991000D02*
X86209000Y-41991000D01*
X88289000Y-41991000D02*
X91317000Y-41991000D01*
X83184000Y-41951000D02*
X86209000Y-41951000D01*
X88289000Y-41951000D02*
X91314000Y-41951000D01*
X83188000Y-41911000D02*
X86209000Y-41911000D01*
X88289000Y-41911000D02*
X91310000Y-41911000D01*
X83192000Y-41871000D02*
X86209000Y-41871000D01*
X88289000Y-41871000D02*
X91306000Y-41871000D01*
X83197000Y-41831000D02*
X86209000Y-41831000D01*
X88289000Y-41831000D02*
X91301000Y-41831000D01*
X83201000Y-41791000D02*
X86209000Y-41791000D01*
X88289000Y-41791000D02*
X91297000Y-41791000D01*
X83207000Y-41751000D02*
X86209000Y-41751000D01*
X88289000Y-41751000D02*
X91291000Y-41751000D01*
X83212000Y-41711000D02*
X86209000Y-41711000D01*
X88289000Y-41711000D02*
X91286000Y-41711000D01*
X83219000Y-41671000D02*
X86209000Y-41671000D01*
X88289000Y-41671000D02*
X91279000Y-41671000D01*
X83225000Y-41631000D02*
X86209000Y-41631000D01*
X88289000Y-41631000D02*
X91273000Y-41631000D01*
X83232000Y-41590000D02*
X86209000Y-41590000D01*
X88289000Y-41590000D02*
X91266000Y-41590000D01*
X83239000Y-41550000D02*
X86209000Y-41550000D01*
X88289000Y-41550000D02*
X91259000Y-41550000D01*
X83247000Y-41510000D02*
X86209000Y-41510000D01*
X88289000Y-41510000D02*
X91251000Y-41510000D01*
X83255000Y-41470000D02*
X86209000Y-41470000D01*
X88289000Y-41470000D02*
X91243000Y-41470000D01*
X83264000Y-41430000D02*
X86209000Y-41430000D01*
X88289000Y-41430000D02*
X91234000Y-41430000D01*
X83273000Y-41390000D02*
X86209000Y-41390000D01*
X88289000Y-41390000D02*
X91225000Y-41390000D01*
X83282000Y-41350000D02*
X86209000Y-41350000D01*
X88289000Y-41350000D02*
X91216000Y-41350000D01*
X83292000Y-41310000D02*
X86209000Y-41310000D01*
X88289000Y-41310000D02*
X91206000Y-41310000D01*
X83302000Y-41270000D02*
X86209000Y-41270000D01*
X88289000Y-41270000D02*
X91196000Y-41270000D01*
X83313000Y-41230000D02*
X86209000Y-41230000D01*
X88289000Y-41230000D02*
X91185000Y-41230000D01*
X83324000Y-41190000D02*
X86209000Y-41190000D01*
X88289000Y-41190000D02*
X91174000Y-41190000D01*
X83335000Y-41150000D02*
X86209000Y-41150000D01*
X88289000Y-41150000D02*
X91163000Y-41150000D01*
X83347000Y-41110000D02*
X86209000Y-41110000D01*
X88289000Y-41110000D02*
X91151000Y-41110000D01*
X83360000Y-41070000D02*
X86209000Y-41070000D01*
X88289000Y-41070000D02*
X91138000Y-41070000D01*
X83372000Y-41030000D02*
X86209000Y-41030000D01*
X88289000Y-41030000D02*
X91126000Y-41030000D01*
X83386000Y-40990000D02*
X86209000Y-40990000D01*
X88289000Y-40990000D02*
X91112000Y-40990000D01*
X83399000Y-40950000D02*
X86209000Y-40950000D01*
X88289000Y-40950000D02*
X91099000Y-40950000D01*
X83414000Y-40910000D02*
X86209000Y-40910000D01*
X88289000Y-40910000D02*
X91084000Y-40910000D01*
X83428000Y-40870000D02*
X86209000Y-40870000D01*
X88289000Y-40870000D02*
X91070000Y-40870000D01*
X83444000Y-40830000D02*
X86209000Y-40830000D01*
X88289000Y-40830000D02*
X91054000Y-40830000D01*
X83459000Y-40790000D02*
X86209000Y-40790000D01*
X88289000Y-40790000D02*
X91039000Y-40790000D01*
X83475000Y-40750000D02*
X86209000Y-40750000D01*
X88289000Y-40750000D02*
X91023000Y-40750000D01*
X83492000Y-40710000D02*
X86209000Y-40710000D01*
X88289000Y-40710000D02*
X91006000Y-40710000D01*
X83509000Y-40670000D02*
X86209000Y-40670000D01*
X88289000Y-40670000D02*
X90989000Y-40670000D01*
X83527000Y-40630000D02*
X86209000Y-40630000D01*
X88289000Y-40630000D02*
X90971000Y-40630000D01*
X83545000Y-40590000D02*
X86209000Y-40590000D01*
X88289000Y-40590000D02*
X90953000Y-40590000D01*
X83563000Y-40550000D02*
X86209000Y-40550000D01*
X88289000Y-40550000D02*
X90935000Y-40550000D01*
X83583000Y-40510000D02*
X86209000Y-40510000D01*
X88289000Y-40510000D02*
X90915000Y-40510000D01*
X83602000Y-40470000D02*
X86209000Y-40470000D01*
X88289000Y-40470000D02*
X90896000Y-40470000D01*
X83622000Y-40430000D02*
X86209000Y-40430000D01*
X88289000Y-40430000D02*
X90876000Y-40430000D01*
X83643000Y-40390000D02*
X86209000Y-40390000D01*
X88289000Y-40390000D02*
X90855000Y-40390000D01*
X83665000Y-40350000D02*
X86209000Y-40350000D01*
X88289000Y-40350000D02*
X90833000Y-40350000D01*
X83687000Y-40310000D02*
X86209000Y-40310000D01*
X88289000Y-40310000D02*
X90811000Y-40310000D01*
X83709000Y-40270000D02*
X86209000Y-40270000D01*
X88289000Y-40270000D02*
X90789000Y-40270000D01*
X83732000Y-40230000D02*
X86209000Y-40230000D01*
X88289000Y-40230000D02*
X90766000Y-40230000D01*
X83756000Y-40190000D02*
X86209000Y-40190000D01*
X88289000Y-40190000D02*
X90742000Y-40190000D01*
X83780000Y-40150000D02*
X86209000Y-40150000D01*
X88289000Y-40150000D02*
X90718000Y-40150000D01*
X83805000Y-40110000D02*
X86209000Y-40110000D01*
X88289000Y-40110000D02*
X90693000Y-40110000D01*
X83831000Y-40070000D02*
X86209000Y-40070000D01*
X88289000Y-40070000D02*
X90667000Y-40070000D01*
X83857000Y-40030000D02*
X86209000Y-40030000D01*
X88289000Y-40030000D02*
X90641000Y-40030000D01*
X83884000Y-39990000D02*
X90614000Y-39990000D01*
X83911000Y-39950000D02*
X90587000Y-39950000D01*
X83940000Y-39910000D02*
X90558000Y-39910000D01*
X83969000Y-39870000D02*
X90529000Y-39870000D01*
X83999000Y-39830000D02*
X90499000Y-39830000D01*
X84029000Y-39790000D02*
X90469000Y-39790000D01*
X84060000Y-39750000D02*
X90438000Y-39750000D01*
X84093000Y-39710000D02*
X90405000Y-39710000D01*
X84125000Y-39670000D02*
X90373000Y-39670000D01*
X84159000Y-39630000D02*
X90339000Y-39630000D01*
X84194000Y-39590000D02*
X90304000Y-39590000D01*
X84230000Y-39550000D02*
X90268000Y-39550000D01*
X84266000Y-39510000D02*
X90232000Y-39510000D01*
X84304000Y-39470000D02*
X90194000Y-39470000D01*
X84342000Y-39430000D02*
X90156000Y-39430000D01*
X84382000Y-39390000D02*
X90116000Y-39390000D01*
X84423000Y-39350000D02*
X90075000Y-39350000D01*
X84465000Y-39310000D02*
X90033000Y-39310000D01*
X84508000Y-39270000D02*
X89990000Y-39270000D01*
X84552000Y-39230000D02*
X89946000Y-39230000D01*
X84598000Y-39190000D02*
X89900000Y-39190000D01*
X84645000Y-39150000D02*
X89853000Y-39150000D01*
X84693000Y-39110000D02*
X89805000Y-39110000D01*
X84744000Y-39070000D02*
X89754000Y-39070000D01*
X84795000Y-39030000D02*
X89703000Y-39030000D01*
X84849000Y-38990000D02*
X89649000Y-38990000D01*
X84904000Y-38950000D02*
X89594000Y-38950000D01*
X84962000Y-38910000D02*
X89536000Y-38910000D01*
X85021000Y-38870000D02*
X89477000Y-38870000D01*
X85083000Y-38830000D02*
X89415000Y-38830000D01*
X85147000Y-38790000D02*
X89351000Y-38790000D01*
X85215000Y-38750000D02*
X89283000Y-38750000D01*
X85285000Y-38710000D02*
X89213000Y-38710000D01*
X85359000Y-38670000D02*
X89139000Y-38670000D01*
X85436000Y-38630000D02*
X89062000Y-38630000D01*
X85518000Y-38590000D02*
X88980000Y-38590000D01*
X85604000Y-38550000D02*
X88894000Y-38550000D01*
X85697000Y-38510000D02*
X88801000Y-38510000D01*
X85796000Y-38470000D02*
X88702000Y-38470000D01*
X85903000Y-38430000D02*
X88595000Y-38430000D01*
X86020000Y-38390000D02*
X88478000Y-38390000D01*
X86151000Y-38350000D02*
X88347000Y-38350000D01*
X86301000Y-38310000D02*
X88197000Y-38310000D01*
X86481000Y-38270000D02*
X88017000Y-38270000D01*
X86716000Y-38230000D02*
X87782000Y-38230000D01*
X84934000Y-46720698D02*
X84934000Y-45920698D01*
X84534000Y-46320698D02*
X85334000Y-46320698D01*
G04 #@! TO.C,Q1*
X76930000Y-62571000D02*
X76930000Y-72811000D01*
X72289000Y-62571000D02*
X72289000Y-72811000D01*
X76930000Y-62571000D02*
X72289000Y-62571000D01*
X76930000Y-72811000D02*
X72289000Y-72811000D01*
X75420000Y-62571000D02*
X75420000Y-72811000D01*
X76930000Y-65841000D02*
X75420000Y-65841000D01*
X76930000Y-69542000D02*
X75420000Y-69542000D01*
G04 #@! TO.C,Q2*
X50424000Y-62149000D02*
X50424000Y-60639000D01*
X54125000Y-62149000D02*
X54125000Y-60639000D01*
X57395000Y-60639000D02*
X47155000Y-60639000D01*
X47155000Y-62149000D02*
X47155000Y-57508000D01*
X57395000Y-62149000D02*
X57395000Y-57508000D01*
X57395000Y-57508000D02*
X47155000Y-57508000D01*
X57395000Y-62149000D02*
X47155000Y-62149000D01*
G04 #@! TO.C,R1*
X76566000Y-57267000D02*
X77046000Y-57267000D01*
X76566000Y-47127000D02*
X76566000Y-57267000D01*
X77046000Y-47127000D02*
X76566000Y-47127000D01*
X80406000Y-57267000D02*
X79926000Y-57267000D01*
X80406000Y-47127000D02*
X80406000Y-57267000D01*
X79926000Y-47127000D02*
X80406000Y-47127000D01*
G04 #@! TO.C,R2*
X74592000Y-47127000D02*
X75072000Y-47127000D01*
X75072000Y-47127000D02*
X75072000Y-57267000D01*
X75072000Y-57267000D02*
X74592000Y-57267000D01*
X71712000Y-47127000D02*
X71232000Y-47127000D01*
X71232000Y-47127000D02*
X71232000Y-57267000D01*
X71232000Y-57267000D02*
X71712000Y-57267000D01*
G04 #@! TO.C,R4*
X59040000Y-70348000D02*
X59520000Y-70348000D01*
X59040000Y-60208000D02*
X59040000Y-70348000D01*
X59520000Y-60208000D02*
X59040000Y-60208000D01*
X62880000Y-70348000D02*
X62400000Y-70348000D01*
X62880000Y-60208000D02*
X62880000Y-70348000D01*
X62400000Y-60208000D02*
X62880000Y-60208000D01*
G04 #@! TO.C,U1*
X90535000Y-49089000D02*
G75*
G02X88535000Y-49089000I-1000000J0D01*
G01*
X88535000Y-49089000D02*
X87285000Y-49089000D01*
X87285000Y-49089000D02*
X87285000Y-59369000D01*
X87285000Y-59369000D02*
X91785000Y-59369000D01*
X91785000Y-59369000D02*
X91785000Y-49089000D01*
X91785000Y-49089000D02*
X90535000Y-49089000D01*
X84285000Y-49029000D02*
X84285000Y-59429000D01*
X84285000Y-59429000D02*
X94785000Y-59429000D01*
X94785000Y-59429000D02*
X94785000Y-49029000D01*
X94785000Y-49029000D02*
X84285000Y-49029000D01*
G04 #@! TO.C,U2*
X56145000Y-52689000D02*
G75*
G02X56145000Y-50689000I0J1000000D01*
G01*
X56145000Y-50689000D02*
X56145000Y-49039000D01*
X56145000Y-49039000D02*
X50945000Y-49039000D01*
X50945000Y-49039000D02*
X50945000Y-54339000D01*
X50945000Y-54339000D02*
X56145000Y-54339000D01*
X56145000Y-54339000D02*
X56145000Y-52689000D01*
G04 #@! TO.C,R3*
D13*
X61047333Y-39442380D02*
X60714000Y-38966190D01*
X60475904Y-39442380D02*
X60475904Y-38442380D01*
X60856857Y-38442380D01*
X60952095Y-38490000D01*
X60999714Y-38537619D01*
X61047333Y-38632857D01*
X61047333Y-38775714D01*
X60999714Y-38870952D01*
X60952095Y-38918571D01*
X60856857Y-38966190D01*
X60475904Y-38966190D01*
X61380666Y-38442380D02*
X61999714Y-38442380D01*
X61666380Y-38823333D01*
X61809238Y-38823333D01*
X61904476Y-38870952D01*
X61952095Y-38918571D01*
X61999714Y-39013809D01*
X61999714Y-39251904D01*
X61952095Y-39347142D01*
X61904476Y-39394761D01*
X61809238Y-39442380D01*
X61523523Y-39442380D01*
X61428285Y-39394761D01*
X61380666Y-39347142D01*
G04 #@! TO.C,J1*
X68929666Y-74746380D02*
X68929666Y-75460666D01*
X68882047Y-75603523D01*
X68786809Y-75698761D01*
X68643952Y-75746380D01*
X68548714Y-75746380D01*
X69929666Y-75746380D02*
X69358238Y-75746380D01*
X69643952Y-75746380D02*
X69643952Y-74746380D01*
X69548714Y-74889238D01*
X69453476Y-74984476D01*
X69358238Y-75032095D01*
G04 #@! TO.C,C1*
X82356142Y-42477666D02*
X82403761Y-42525285D01*
X82451380Y-42668142D01*
X82451380Y-42763380D01*
X82403761Y-42906238D01*
X82308523Y-43001476D01*
X82213285Y-43049095D01*
X82022809Y-43096714D01*
X81879952Y-43096714D01*
X81689476Y-43049095D01*
X81594238Y-43001476D01*
X81499000Y-42906238D01*
X81451380Y-42763380D01*
X81451380Y-42668142D01*
X81499000Y-42525285D01*
X81546619Y-42477666D01*
X82451380Y-41525285D02*
X82451380Y-42096714D01*
X82451380Y-41811000D02*
X81451380Y-41811000D01*
X81594238Y-41906238D01*
X81689476Y-42001476D01*
X81737095Y-42096714D01*
G04 #@! TO.C,Q1*
X78477619Y-67786238D02*
X78430000Y-67881476D01*
X78334761Y-67976714D01*
X78191904Y-68119571D01*
X78144285Y-68214809D01*
X78144285Y-68310047D01*
X78382380Y-68262428D02*
X78334761Y-68357666D01*
X78239523Y-68452904D01*
X78049047Y-68500523D01*
X77715714Y-68500523D01*
X77525238Y-68452904D01*
X77430000Y-68357666D01*
X77382380Y-68262428D01*
X77382380Y-68071952D01*
X77430000Y-67976714D01*
X77525238Y-67881476D01*
X77715714Y-67833857D01*
X78049047Y-67833857D01*
X78239523Y-67881476D01*
X78334761Y-67976714D01*
X78382380Y-68071952D01*
X78382380Y-68262428D01*
X78382380Y-66881476D02*
X78382380Y-67452904D01*
X78382380Y-67167190D02*
X77382380Y-67167190D01*
X77525238Y-67262428D01*
X77620476Y-67357666D01*
X77668095Y-67452904D01*
G04 #@! TO.C,Q2*
X52179761Y-63696619D02*
X52084523Y-63649000D01*
X51989285Y-63553761D01*
X51846428Y-63410904D01*
X51751190Y-63363285D01*
X51655952Y-63363285D01*
X51703571Y-63601380D02*
X51608333Y-63553761D01*
X51513095Y-63458523D01*
X51465476Y-63268047D01*
X51465476Y-62934714D01*
X51513095Y-62744238D01*
X51608333Y-62649000D01*
X51703571Y-62601380D01*
X51894047Y-62601380D01*
X51989285Y-62649000D01*
X52084523Y-62744238D01*
X52132142Y-62934714D01*
X52132142Y-63268047D01*
X52084523Y-63458523D01*
X51989285Y-63553761D01*
X51894047Y-63601380D01*
X51703571Y-63601380D01*
X52513095Y-62696619D02*
X52560714Y-62649000D01*
X52655952Y-62601380D01*
X52894047Y-62601380D01*
X52989285Y-62649000D01*
X53036904Y-62696619D01*
X53084523Y-62791857D01*
X53084523Y-62887095D01*
X53036904Y-63029952D01*
X52465476Y-63601380D01*
X53084523Y-63601380D01*
G04 #@! TO.C,R1*
X81858380Y-52363666D02*
X81382190Y-52697000D01*
X81858380Y-52935095D02*
X80858380Y-52935095D01*
X80858380Y-52554142D01*
X80906000Y-52458904D01*
X80953619Y-52411285D01*
X81048857Y-52363666D01*
X81191714Y-52363666D01*
X81286952Y-52411285D01*
X81334571Y-52458904D01*
X81382190Y-52554142D01*
X81382190Y-52935095D01*
X81858380Y-51411285D02*
X81858380Y-51982714D01*
X81858380Y-51697000D02*
X80858380Y-51697000D01*
X81001238Y-51792238D01*
X81096476Y-51887476D01*
X81144095Y-51982714D01*
G04 #@! TO.C,R2*
X76524380Y-52363666D02*
X76048190Y-52697000D01*
X76524380Y-52935095D02*
X75524380Y-52935095D01*
X75524380Y-52554142D01*
X75572000Y-52458904D01*
X75619619Y-52411285D01*
X75714857Y-52363666D01*
X75857714Y-52363666D01*
X75952952Y-52411285D01*
X76000571Y-52458904D01*
X76048190Y-52554142D01*
X76048190Y-52935095D01*
X75619619Y-51982714D02*
X75572000Y-51935095D01*
X75524380Y-51839857D01*
X75524380Y-51601761D01*
X75572000Y-51506523D01*
X75619619Y-51458904D01*
X75714857Y-51411285D01*
X75810095Y-51411285D01*
X75952952Y-51458904D01*
X76524380Y-52030333D01*
X76524380Y-51411285D01*
G04 #@! TO.C,R4*
X64332380Y-65444666D02*
X63856190Y-65778000D01*
X64332380Y-66016095D02*
X63332380Y-66016095D01*
X63332380Y-65635142D01*
X63380000Y-65539904D01*
X63427619Y-65492285D01*
X63522857Y-65444666D01*
X63665714Y-65444666D01*
X63760952Y-65492285D01*
X63808571Y-65539904D01*
X63856190Y-65635142D01*
X63856190Y-66016095D01*
X63665714Y-64587523D02*
X64332380Y-64587523D01*
X63284761Y-64825619D02*
X63999047Y-65063714D01*
X63999047Y-64444666D01*
G04 #@! TO.C,U1*
X88773095Y-47541380D02*
X88773095Y-48350904D01*
X88820714Y-48446142D01*
X88868333Y-48493761D01*
X88963571Y-48541380D01*
X89154047Y-48541380D01*
X89249285Y-48493761D01*
X89296904Y-48446142D01*
X89344523Y-48350904D01*
X89344523Y-47541380D01*
X90344523Y-48541380D02*
X89773095Y-48541380D01*
X90058809Y-48541380D02*
X90058809Y-47541380D01*
X89963571Y-47684238D01*
X89868333Y-47779476D01*
X89773095Y-47827095D01*
G04 #@! TO.C,U2*
X56597380Y-52450904D02*
X57406904Y-52450904D01*
X57502142Y-52403285D01*
X57549761Y-52355666D01*
X57597380Y-52260428D01*
X57597380Y-52069952D01*
X57549761Y-51974714D01*
X57502142Y-51927095D01*
X57406904Y-51879476D01*
X56597380Y-51879476D01*
X56692619Y-51450904D02*
X56645000Y-51403285D01*
X56597380Y-51308047D01*
X56597380Y-51069952D01*
X56645000Y-50974714D01*
X56692619Y-50927095D01*
X56787857Y-50879476D01*
X56883095Y-50879476D01*
X57025952Y-50927095D01*
X57597380Y-51498523D01*
X57597380Y-50879476D01*
G04 #@! TD*
M02*
