G04 #@! TF.GenerationSoftware,KiCad,Pcbnew,(5.0.2)-1*
G04 #@! TF.CreationDate,2019-02-20T00:52:58+02:00*
G04 #@! TF.ProjectId,TSAL_SMD,5453414c-5f53-44d4-942e-6b696361645f,rev?*
G04 #@! TF.SameCoordinates,Original*
G04 #@! TF.FileFunction,Copper,L2,Bot*
G04 #@! TF.FilePolarity,Positive*
%FSLAX46Y46*%
G04 Gerber Fmt 4.6, Leading zero omitted, Abs format (unit mm)*
G04 Created by KiCad (PCBNEW (5.0.2)-1) date 2/20/2019 12:52:58 AM*
%MOMM*%
%LPD*%
G01*
G04 APERTURE LIST*
G04 #@! TA.AperFunction,ComponentPad*
%ADD10C,2.400000*%
G04 #@! TD*
G04 #@! TA.AperFunction,ComponentPad*
%ADD11O,2.400000X2.400000*%
G04 #@! TD*
G04 #@! TA.AperFunction,ComponentPad*
%ADD12R,1.600000X1.600000*%
G04 #@! TD*
G04 #@! TA.AperFunction,ComponentPad*
%ADD13C,1.600000*%
G04 #@! TD*
G04 #@! TA.AperFunction,ComponentPad*
%ADD14C,4.000000*%
G04 #@! TD*
G04 #@! TA.AperFunction,ComponentPad*
%ADD15R,2.000000X1.905000*%
G04 #@! TD*
G04 #@! TA.AperFunction,ComponentPad*
%ADD16O,2.000000X1.905000*%
G04 #@! TD*
G04 #@! TA.AperFunction,ComponentPad*
%ADD17O,1.905000X2.000000*%
G04 #@! TD*
G04 #@! TA.AperFunction,ComponentPad*
%ADD18R,1.905000X2.000000*%
G04 #@! TD*
G04 #@! TA.AperFunction,ComponentPad*
%ADD19R,2.400000X1.600000*%
G04 #@! TD*
G04 #@! TA.AperFunction,ComponentPad*
%ADD20O,2.400000X1.600000*%
G04 #@! TD*
G04 #@! TA.AperFunction,ComponentPad*
%ADD21O,1.600000X1.600000*%
G04 #@! TD*
G04 #@! TA.AperFunction,ViaPad*
%ADD22C,5.000000*%
G04 #@! TD*
G04 #@! TA.AperFunction,Conductor*
%ADD23C,1.000000*%
G04 #@! TD*
G04 APERTURE END LIST*
D10*
G04 #@! TO.P,R3,1*
G04 #@! TO.N,Net-(R3-Pad1)*
X54864000Y-41910000D03*
D11*
G04 #@! TO.P,R3,2*
G04 #@! TO.N,+12V*
X67564000Y-41910000D03*
G04 #@! TD*
D12*
G04 #@! TO.P,J1,1*
G04 #@! TO.N,+12V*
X74803000Y-78994000D03*
D13*
G04 #@! TO.P,J1,2*
X72033000Y-78994000D03*
G04 #@! TO.P,J1,3*
G04 #@! TO.N,+12L*
X69263000Y-78994000D03*
G04 #@! TO.P,J1,4*
X66493000Y-78994000D03*
G04 #@! TO.P,J1,5*
G04 #@! TO.N,/GREEN_LED_ON*
X63723000Y-78994000D03*
G04 #@! TO.P,J1,6*
G04 #@! TO.N,GNDPWR*
X73418000Y-81834000D03*
G04 #@! TO.P,J1,7*
G04 #@! TO.N,/RED_LED-*
X70648000Y-81834000D03*
G04 #@! TO.P,J1,8*
G04 #@! TO.N,GND*
X67878000Y-81834000D03*
G04 #@! TO.P,J1,9*
G04 #@! TO.N,/GREEN_LED-*
X65108000Y-81834000D03*
D14*
G04 #@! TO.P,J1,0*
G04 #@! TO.N,Net-(J1-Pad0)*
X56763000Y-79294000D03*
X81763000Y-79294000D03*
G04 #@! TD*
D12*
G04 #@! TO.P,C1,1*
G04 #@! TO.N,Net-(C1-Pad1)*
X87249000Y-43561000D03*
D13*
G04 #@! TO.P,C1,2*
G04 #@! TO.N,GNDPWR*
X87249000Y-41061000D03*
G04 #@! TD*
D15*
G04 #@! TO.P,Q1,1*
G04 #@! TO.N,Net-(Q1-Pad1)*
X73660000Y-65151000D03*
D16*
G04 #@! TO.P,Q1,2*
G04 #@! TO.N,/RED_LED-*
X73660000Y-67691000D03*
G04 #@! TO.P,Q1,3*
G04 #@! TO.N,GNDPWR*
X73660000Y-70231000D03*
G04 #@! TD*
D17*
G04 #@! TO.P,Q2,3*
G04 #@! TO.N,GND*
X49735000Y-58879000D03*
G04 #@! TO.P,Q2,2*
G04 #@! TO.N,/GREEN_LED-*
X52275000Y-58879000D03*
D18*
G04 #@! TO.P,Q2,1*
G04 #@! TO.N,/GREEN_LED_ON*
X54815000Y-58879000D03*
G04 #@! TD*
D11*
G04 #@! TO.P,R1,2*
G04 #@! TO.N,Net-(R1-Pad2)*
X78486000Y-58547000D03*
D10*
G04 #@! TO.P,R1,1*
G04 #@! TO.N,Net-(C1-Pad1)*
X78486000Y-45847000D03*
G04 #@! TD*
G04 #@! TO.P,R2,1*
G04 #@! TO.N,Net-(Q1-Pad1)*
X73152000Y-45847000D03*
D11*
G04 #@! TO.P,R2,2*
G04 #@! TO.N,Net-(R1-Pad2)*
X73152000Y-58547000D03*
G04 #@! TD*
G04 #@! TO.P,R4,2*
G04 #@! TO.N,+12L*
X60960000Y-71628000D03*
D10*
G04 #@! TO.P,R4,1*
G04 #@! TO.N,/GREEN_LED_ON*
X60960000Y-58928000D03*
G04 #@! TD*
D19*
G04 #@! TO.P,U1,1*
G04 #@! TO.N,GNDPWR*
X85725000Y-50419000D03*
D20*
G04 #@! TO.P,U1,5*
G04 #@! TO.N,Net-(U1-Pad5)*
X93345000Y-58039000D03*
G04 #@! TO.P,U1,2*
G04 #@! TO.N,Net-(C1-Pad1)*
X85725000Y-52959000D03*
G04 #@! TO.P,U1,6*
X93345000Y-55499000D03*
G04 #@! TO.P,U1,3*
G04 #@! TO.N,Net-(R1-Pad2)*
X85725000Y-55499000D03*
G04 #@! TO.P,U1,7*
G04 #@! TO.N,Net-(U1-Pad7)*
X93345000Y-52959000D03*
G04 #@! TO.P,U1,4*
G04 #@! TO.N,+12V*
X85725000Y-58039000D03*
G04 #@! TO.P,U1,8*
X93345000Y-50419000D03*
G04 #@! TD*
D12*
G04 #@! TO.P,U2,1*
G04 #@! TO.N,Net-(R3-Pad1)*
X54815000Y-47879000D03*
D21*
G04 #@! TO.P,U2,3*
G04 #@! TO.N,GND*
X52275000Y-55499000D03*
G04 #@! TO.P,U2,2*
G04 #@! TO.N,GNDPWR*
X52275000Y-47879000D03*
G04 #@! TO.P,U2,4*
G04 #@! TO.N,/GREEN_LED_ON*
X54815000Y-55499000D03*
G04 #@! TD*
D22*
G04 #@! TO.N,*
X45000000Y-38000000D03*
X96000000Y-38000000D03*
X96000000Y-83000000D03*
X45000000Y-83000000D03*
G04 #@! TD*
D23*
G04 #@! TO.N,Net-(C1-Pad1)*
X85725000Y-52959000D02*
X88265000Y-52959000D01*
X90805000Y-55499000D02*
X93345000Y-55499000D01*
X88265000Y-52959000D02*
X90805000Y-55499000D01*
X87249000Y-45361000D02*
X87249000Y-43561000D01*
X86763000Y-45847000D02*
X87249000Y-45361000D01*
X78486000Y-45847000D02*
X86763000Y-45847000D01*
G04 #@! TO.N,Net-(Q1-Pad1)*
X73152000Y-45847000D02*
X81534000Y-54229000D01*
X81534000Y-59277000D02*
X81534000Y-54229000D01*
X75660000Y-65151000D02*
X81534000Y-59277000D01*
X73660000Y-65151000D02*
X75660000Y-65151000D01*
G04 #@! TO.N,+12V*
X85725000Y-68199000D02*
X85725000Y-58039000D01*
X74803000Y-78994000D02*
X74930000Y-78994000D01*
X74930000Y-78994000D02*
X85725000Y-68199000D01*
G04 #@! TD*
M02*
